<svg width="40" height="40" viewBox="0 0 40 40" fill="none" xmlns="http://www.w3.org/2000/svg">
<path fill-rule="evenodd" clip-rule="evenodd" d="M17.4998 9.5C15.2897 9.5 13.1701 10.378 11.6073 11.9408C10.0445 13.5036 9.1665 15.6232 9.1665 17.8333C9.1665 20.0435 10.0445 22.1631 11.6073 23.7259C13.1701 25.2887 15.2897 26.1667 17.4998 26.1667C19.71 26.1667 21.8296 25.2887 23.3924 23.7259C24.9552 22.1631 25.8332 20.0435 25.8332 17.8333C25.8332 15.6232 24.9552 13.5036 23.3924 11.9408C21.8296 10.378 19.71 9.5 17.4998 9.5ZM6.6665 17.8333C6.6665 14.9602 7.80787 12.2047 9.83951 10.173C11.8712 8.14137 14.6267 7 17.4998 7C20.373 7 23.1285 8.14137 25.1602 10.173C27.1918 12.2047 28.3332 14.9602 28.3332 17.8333C28.3332 20.7065 27.1918 23.462 25.1602 25.4937C23.1285 27.5253 20.373 28.6667 17.4998 28.6667C14.6267 28.6667 11.8712 27.5253 9.83951 25.4937C7.80787 23.462 6.6665 20.7065 6.6665 17.8333Z" fill="#A2A2A2"/>
<path fill-rule="evenodd" clip-rule="evenodd" d="M24.1165 24.45C24.3509 24.2159 24.6686 24.0844 24.9999 24.0844C25.3311 24.0844 25.6488 24.2159 25.8832 24.45L32.5499 31.1166C32.6727 31.2311 32.7712 31.3691 32.8395 31.5224C32.9078 31.6757 32.9446 31.8413 32.9475 32.0091C32.9505 32.1769 32.9196 32.3437 32.8567 32.4993C32.7939 32.655 32.7003 32.7963 32.5816 32.915C32.4629 33.0337 32.3215 33.1273 32.1659 33.1902C32.0102 33.2531 31.8435 33.2839 31.6757 33.281C31.5078 33.278 31.3423 33.2413 31.189 33.1729C31.0356 33.1046 30.8976 33.0061 30.7832 32.8833L24.1165 26.2166C23.8825 25.9823 23.751 25.6646 23.751 25.3333C23.751 25.0021 23.8825 24.6844 24.1165 24.45Z" fill="#A2A2A2"/>
</svg>
