<svg width="50" height="50" viewBox="0 0 50 50" fill="none" xmlns="http://www.w3.org/2000/svg">
<path d="M38.3483 7.0876C38.6492 7.24289 38.8197 7.44156 38.9666 7.74092C39.1011 8.3013 39.1569 8.87998 39.2211 9.45168C39.2305 9.53229 39.2399 9.6129 39.2496 9.69595C39.2876 10.0288 39.3233 10.3533 39.3176 10.6887C39.3682 10.6913 39.4188 10.6939 39.4709 10.6966C40.0534 10.7323 40.6329 10.7902 41.2128 10.8554C41.289 10.8634 41.3653 10.8713 41.4438 10.8796C42.0357 10.9484 42.423 11.0705 42.8273 11.5309C42.9707 11.7615 42.9905 11.9498 42.994 12.2196C42.996 12.2895 42.9979 12.3595 43 12.4315C42.9225 12.9642 42.5457 13.3171 42.1795 13.6808C42.1289 13.7319 42.0783 13.7829 42.0262 13.8356C41.8597 14.0033 41.6925 14.1703 41.5251 14.3372C41.4086 14.454 41.2922 14.5708 41.1758 14.6876C40.932 14.932 40.6879 15.1759 40.4435 15.4196C40.1306 15.7316 39.8188 16.0447 39.5074 16.3582C39.2673 16.5995 39.0266 16.8402 38.7857 17.0807C38.6705 17.1959 38.5555 17.3113 38.4407 17.4269C38.2801 17.5885 38.1187 17.7492 37.957 17.9097C37.8865 17.9812 37.8865 17.9812 37.8145 18.0542C37.4619 18.4013 37.1689 18.6002 36.6615 18.6415C36.1281 18.6225 35.596 18.5442 35.0665 18.4792C34.9013 18.4589 34.7361 18.4388 34.5709 18.4191C34.4687 18.4069 34.3666 18.3944 34.2645 18.3816C33.6781 18.2881 33.6781 18.2881 33.127 18.429C33.0697 18.4908 33.0697 18.4908 33.0112 18.5538C32.9687 18.5981 32.9261 18.6424 32.8823 18.6881C32.8402 18.735 32.798 18.7818 32.7546 18.8301C32.7102 18.877 32.6659 18.9238 32.6202 18.9721C32.5115 19.0874 32.4044 19.2037 32.2983 19.3214C32.4422 19.542 32.5883 19.7578 32.7482 19.967C35.0657 23.0019 36.0157 26.7812 35.5608 30.5583C35.3213 32.3416 34.7765 34.0266 33.9127 35.6042C33.8861 35.6531 33.8596 35.7019 33.8322 35.7522C33.3067 36.7065 32.6793 37.5337 31.9416 38.3341C31.8314 38.4549 31.7284 38.5773 31.6271 38.7055C31.4037 38.9632 31.1543 39.1742 30.8944 39.3942C30.7981 39.48 30.7981 39.48 30.6998 39.5675C28.1177 41.8481 24.774 43.0077 21.3526 43C21.2893 42.9999 21.226 42.9999 21.1607 42.9998C20.1466 42.997 19.1785 42.9324 18.1895 42.6929C18.0924 42.6703 18.0924 42.6703 17.9934 42.6473C15.4666 42.0495 13.2704 40.8146 11.3808 39.0433C11.3288 38.9949 11.3288 38.9949 11.2758 38.9455C10.3 38.0298 9.52425 36.9696 8.85382 35.8148C8.82707 35.7693 8.80032 35.7238 8.77276 35.6769C7.57924 33.6227 6.98381 31.24 7.00135 28.8716C7.00248 28.691 7.00135 28.5106 7.00001 28.33C6.99864 27.2584 7.12213 26.1942 7.39293 25.1555C7.40752 25.0989 7.42212 25.0422 7.43716 24.9839C8.04741 22.7065 9.15953 20.7244 10.7474 18.9877C10.8595 18.8633 10.9655 18.7377 11.0693 18.6064C11.2926 18.3487 11.542 18.1376 11.8019 17.9177C11.8686 17.8589 11.9353 17.8001 12.004 17.7395C12.559 17.2532 13.1389 16.8304 13.7673 16.4438C13.8141 16.415 13.8608 16.3861 13.9089 16.3564C15.6858 15.2764 17.6782 14.6642 19.7337 14.4085C19.8057 14.3992 19.8776 14.39 19.9517 14.3805C23.6487 13.9947 27.446 15.1556 30.3322 17.4755C30.4264 17.5522 30.5201 17.6296 30.6137 17.7072C30.7297 17.6105 30.8452 17.5131 30.9581 17.4127C31.105 17.286 31.105 17.286 31.2651 17.1725C31.5174 16.9728 31.6537 16.8293 31.6937 16.503C31.6807 16.2608 31.6565 16.026 31.6223 15.7861C31.5811 15.4932 31.5486 15.1993 31.5149 14.9055C31.4965 14.747 31.4773 14.5887 31.4573 14.4304C31.4151 14.0896 31.3767 13.7488 31.3619 13.4056C31.3584 13.3297 31.3584 13.3297 31.3548 13.2522C31.4498 12.7086 31.7971 12.3423 32.175 11.9699C32.2511 11.8933 32.2511 11.8932 32.3287 11.8151C32.4954 11.6475 32.663 11.481 32.8308 11.3146C32.9474 11.1979 33.0641 11.0812 33.1806 10.9645C33.4246 10.7204 33.669 10.4769 33.9138 10.2337C34.2273 9.92226 34.5397 9.60971 34.8518 9.2968C35.0923 9.05586 35.3333 8.81545 35.5744 8.57519C35.6898 8.46013 35.805 8.34493 35.9201 8.22958C36.0811 8.06847 36.2426 7.90806 36.4044 7.74783C36.4517 7.70025 36.499 7.65267 36.5477 7.60364C37.0641 7.09533 37.6223 6.85856 38.3483 7.0876ZM36.6829 10.5579C36.6499 10.5888 36.6169 10.6198 36.5829 10.6517C36.2772 10.9394 35.975 11.2309 35.6739 11.5235C35.4717 11.7199 35.2685 11.9149 35.0623 12.1071C34.8628 12.2931 34.6666 12.4822 34.4722 12.6737C34.398 12.7457 34.3228 12.8167 34.2464 12.8864C33.8209 13.2686 33.8209 13.2686 33.608 13.784C33.5941 14.1392 33.6444 14.4799 33.7022 14.8296C33.7141 14.9537 33.7253 15.0779 33.7348 15.2022C33.7455 15.2988 33.7565 15.3954 33.768 15.4919C33.7732 15.5423 33.7784 15.5926 33.7837 15.6445C33.8122 15.9349 33.8122 15.9349 33.9829 16.1631C34.1639 16.2023 34.1639 16.2023 34.3761 16.2229C34.4952 16.2364 34.4952 16.2364 34.6166 16.2503C34.7416 16.2636 34.7416 16.2636 34.8691 16.2771C34.9508 16.2865 35.0325 16.296 35.1167 16.3057C35.3472 16.3312 35.5767 16.3564 35.808 16.3736C35.8935 16.3897 35.9791 16.4057 36.0673 16.4223C36.4573 16.417 36.6896 16.1211 36.9468 15.86C37.0184 15.7856 37.0899 15.7112 37.1614 15.6367C37.236 15.561 37.3107 15.4855 37.3856 15.4101C37.5816 15.2119 37.7759 15.0122 37.9699 14.812C38.1684 14.6077 38.3685 14.4051 38.5685 14.2023C38.9602 13.8047 39.35 13.4053 39.7388 13.0048C39.5219 12.8602 39.4354 12.8404 39.1846 12.8145C39.1175 12.8067 39.0504 12.7989 38.9813 12.7909C38.8408 12.7757 38.7002 12.7609 38.5596 12.7465C38.1602 12.6993 37.8738 12.6494 37.5628 12.3731C37.3714 12.1222 37.3172 11.907 37.2776 11.5967C37.2669 11.5174 37.2561 11.4382 37.245 11.3565C37.234 11.2751 37.2231 11.1937 37.2118 11.1098C37.1861 10.9503 37.1598 10.7909 37.1328 10.6317C37.1152 10.5268 37.1152 10.5268 37.0972 10.4197C37.0887 10.3695 37.0802 10.3193 37.0714 10.2676C36.9241 10.2676 36.7803 10.4664 36.6829 10.5579ZM12.7846 20.0232C12.6934 20.1089 12.6934 20.1089 12.6004 20.1962C10.3098 22.4042 9.23921 25.5352 9.13459 28.656C9.08243 31.8268 10.4226 34.8772 12.5861 37.1554C14.7888 39.4293 17.8757 40.8003 21.0496 40.8703C22.303 40.8741 23.5098 40.706 24.7174 40.3768C24.806 40.3533 24.8946 40.3298 24.9859 40.3055C26.2945 39.9128 27.5726 39.2523 28.6483 38.4116C28.6876 38.381 28.7269 38.3504 28.7675 38.3188C31.3839 36.2522 33.0343 33.3029 33.4301 29.9934C33.7539 27.0036 32.9513 24.035 31.2235 21.5805C31.1948 21.5397 31.1661 21.4989 31.1366 21.4568C30.9748 21.2344 30.8389 21.1046 30.6137 20.9356C30.0114 21.5378 29.4092 22.14 28.7886 22.7605C28.9276 22.9689 29.0666 23.1773 29.2098 23.3921C29.9829 24.5557 30.4394 25.8096 30.6839 27.1821C30.7041 27.2924 30.7041 27.2924 30.7247 27.405C30.851 28.5601 30.8166 29.7706 30.5435 30.9019C30.5322 30.9503 30.5209 30.9988 30.5092 31.0487C29.964 33.3133 28.489 35.3919 26.5135 36.6351C24.2315 38.0282 21.6247 38.4706 19.0095 37.8838C17.4162 37.492 16.0249 36.7109 14.8202 35.6042C14.7591 35.5489 14.6979 35.4935 14.6349 35.4365C12.9716 33.8571 11.9671 31.5433 11.8645 29.2582C11.8033 26.6885 12.5222 24.3846 14.1885 22.4095C14.2244 22.365 14.2603 22.3205 14.2973 22.2746C15.6562 20.6193 17.9638 19.5225 20.0666 19.2712C22.5501 19.0773 24.8911 19.5281 26.9184 21.0253C27.0965 21.1654 27.0965 21.1654 27.3146 21.1462C27.4572 21.0221 27.5877 20.8976 27.719 20.7624C27.7577 20.7234 27.7963 20.6845 27.8362 20.6444C27.9597 20.5197 28.0824 20.3943 28.2052 20.2689C28.2887 20.1843 28.3723 20.0998 28.4559 20.0153C28.661 19.8079 28.8654 19.5999 29.0694 19.3916C28.9044 19.1744 28.7536 18.9965 28.5268 18.8444C28.4768 18.8107 28.4269 18.7771 28.3754 18.7424C28.3221 18.7077 28.2688 18.6729 28.2139 18.6371C28.1582 18.6004 28.1024 18.5638 28.045 18.526C26.4623 17.5018 24.703 16.809 22.8222 16.5842C22.7654 16.5765 22.7086 16.5688 22.65 16.5609C18.9885 16.1398 15.4191 17.5072 12.7846 20.0232ZM15.6625 23.9536C14.3743 25.5652 13.7878 27.551 14.0081 29.6024C14.2557 31.498 15.2417 33.2649 16.7385 34.4629C18.3463 35.6769 20.2875 36.2421 22.2925 35.99C24.276 35.6963 26.0163 34.6789 27.2386 33.0849C27.8406 32.2657 28.2639 31.3263 28.5079 30.3404C28.5315 30.2492 28.5315 30.2492 28.5556 30.1562C28.8053 28.9794 28.7195 27.6947 28.3675 26.5504C28.3528 26.5023 28.3382 26.4543 28.323 26.4047C28.089 25.6648 27.7348 25.0245 27.3146 24.3747C27.0267 24.4885 26.8351 24.6959 26.6225 24.9126C26.5647 24.9707 26.5647 24.9707 26.5057 25.03C26.3831 25.1534 26.261 25.2773 26.1389 25.4011C26.0556 25.4851 25.9724 25.569 25.8891 25.6528C25.6853 25.8581 25.4821 26.0638 25.279 26.2697C25.3078 26.3333 25.3365 26.3969 25.3662 26.4624C25.8976 27.6551 26.0888 28.9793 25.6485 30.2435C25.1887 31.438 24.3917 32.3125 23.2343 32.8577C21.9505 33.3642 20.618 33.3737 19.3449 32.8314C18.8173 32.5658 18.3932 32.233 17.9789 31.8143C17.921 31.7599 17.921 31.7599 17.8618 31.7043C17.0517 30.8726 16.7487 29.6248 16.756 28.502C16.7947 27.3077 17.286 26.2097 18.1193 25.3573C19.0426 24.5464 20.0842 24.1229 21.3131 24.1378C21.3801 24.137 21.4472 24.1362 21.5163 24.1354C22.1917 24.1381 22.7847 24.3063 23.3926 24.5946C23.5348 24.6633 23.5348 24.6633 23.7347 24.7256C24.0051 24.4588 24.275 24.1915 24.5445 23.9237C24.6363 23.8326 24.7282 23.7417 24.8202 23.6509C24.9523 23.5205 25.0839 23.3897 25.2154 23.2589C25.2568 23.2181 25.2983 23.1774 25.341 23.1355C25.44 23.0365 25.5354 22.9339 25.63 22.8306C25.63 22.7843 25.63 22.738 25.63 22.6903C22.4841 20.4595 18.1838 21.0612 15.6625 23.9536ZM19.4022 27.1761C18.9859 27.6895 18.8478 28.205 18.867 28.8627C18.9491 29.5835 19.295 30.1818 19.8522 30.6387C20.4376 31.0452 21.0626 31.2005 21.7693 31.1124C22.4468 30.9723 22.9405 30.5918 23.3602 30.049C23.658 29.5954 23.7582 29.175 23.7523 28.6384C23.7528 28.5879 23.7534 28.5375 23.7539 28.4854C23.7623 28.1874 23.7623 28.1874 23.5944 27.9541C23.5371 28.0131 23.5371 28.0131 23.4786 28.0732C23.3043 28.2519 23.1291 28.4298 22.9538 28.6077C22.8938 28.6695 22.8337 28.7314 22.7718 28.7951C22.713 28.8546 22.6542 28.9141 22.5936 28.9754C22.5399 29.0301 22.4862 29.0849 22.4309 29.1413C22.0936 29.4312 21.7958 29.5346 21.3608 29.5185C21.0634 29.479 20.8592 29.3676 20.6594 29.1473C20.5335 28.9352 20.4907 28.7452 20.4795 28.5024C20.4761 28.4522 20.4727 28.402 20.4691 28.3503C20.5831 27.7743 21.0712 27.3625 21.4754 26.9715C21.5584 26.89 21.5584 26.89 21.6431 26.8068C21.7783 26.674 21.914 26.5418 22.0501 26.4101C21.877 26.237 21.7707 26.2482 21.5337 26.243C20.6111 26.2454 20.0285 26.4803 19.4022 27.1761Z" fill="white"/>
</svg>
