<svg width="50" height="50" viewBox="0 0 50 50" fill="none" xmlns="http://www.w3.org/2000/svg">
<path d="M23.314 7.31433C23.463 7.37798 23.6123 7.4409 23.7619 7.50312C23.8648 7.54699 23.8648 7.54699 23.9699 7.59175C24.7581 7.90266 25.6447 7.78245 26.4049 7.45482C26.6106 7.36503 26.8149 7.27357 27.0177 7.1774C27.4656 6.97071 27.9884 6.95633 28.4668 7.07395C29.0069 7.31064 29.3494 7.82713 29.667 8.30218C30.1925 9.06774 30.9052 9.5232 31.814 9.70274C32.0775 9.73818 32.3421 9.76015 32.607 9.78163C33.1793 9.83621 33.6445 9.98786 34.0619 10.4052C34.4166 10.888 34.4476 11.4208 34.513 12.0039C34.6386 13.0754 34.9725 13.7999 35.8057 14.5021C35.9723 14.6307 36.1442 14.7482 36.3186 14.8659C36.8009 15.1969 37.1429 15.5485 37.259 16.137C37.3051 16.8989 36.9814 17.5095 36.6568 18.1824C36.369 18.8835 36.4509 19.7699 36.7159 20.4627C36.8333 20.7349 36.9519 21.0062 37.079 21.2741C37.2857 21.722 37.3 22.2448 37.1824 22.7232C36.9448 23.2653 36.4234 23.6088 35.9498 23.9322C35.174 24.4678 34.734 25.1307 34.5536 26.0704C34.5184 26.3339 34.4962 26.5985 34.4747 26.8634C34.4248 27.3873 34.2987 27.86 33.9214 28.248C33.4536 28.6119 32.9697 28.6828 32.3979 28.731C31.3524 28.8356 30.4598 29.1742 29.7768 30.0042C29.683 30.1436 29.5909 30.2842 29.5002 30.4257C29.1904 30.9048 28.8568 31.2988 28.3016 31.4794C27.6499 31.5705 27.1339 31.3931 26.5454 31.1282C26.4833 31.1007 26.4212 31.0731 26.3572 31.0448C26.2533 30.9985 26.1498 30.9514 26.0468 30.9032C25.433 30.6461 24.5307 30.6911 23.9095 30.9131C23.6113 31.041 23.3169 31.1761 23.0248 31.3175C22.5617 31.5271 22.0334 31.5643 21.5381 31.4388C20.9924 31.2006 20.6497 30.6829 20.3241 30.2062C19.7994 29.4461 19.1635 29.0296 18.2562 28.81C18.049 28.781 17.8412 28.7625 17.6328 28.7442C16.456 28.6255 16.456 28.6255 16.0083 28.1778C15.6444 27.71 15.5736 27.2262 15.5254 26.6543C15.4206 25.6063 15.0806 24.7197 14.2521 24.0332C14.0993 23.9262 13.9461 23.8209 13.7911 23.7171C13.3274 23.4064 12.9575 23.1052 12.7769 22.558C12.6921 21.8924 12.8366 21.3941 13.1282 20.8018C13.1814 20.6865 13.2341 20.5709 13.2862 20.455C13.3083 20.408 13.3304 20.361 13.3532 20.3126C13.6212 19.6281 13.5693 18.699 13.284 18.0317C13.2558 17.9722 13.2275 17.9127 13.1984 17.8514C13.1673 17.7825 13.1361 17.7136 13.104 17.6426C13.0442 17.5106 12.9833 17.379 12.921 17.248C12.7244 16.7972 12.6966 16.2716 12.8175 15.7945C13.0549 15.2508 13.5677 14.909 14.0458 14.5893C14.8113 14.0639 15.2668 13.3512 15.4463 12.4424C15.4818 12.1789 15.5038 11.9143 15.5252 11.6494C15.5798 11.077 15.7315 10.6118 16.1488 10.1945C16.6595 9.82677 17.2199 9.79356 17.833 9.72783C18.8649 9.61307 19.5717 9.25035 20.2457 8.45063C20.3743 8.28405 20.4918 8.11221 20.6095 7.93777C21.2957 6.93771 22.2361 6.79927 23.314 7.31433ZM19.4504 14.6903C18.2525 16.1332 17.7141 18.0103 17.8542 19.8656C18.0314 21.7402 18.9427 23.4985 20.3637 24.7357C21.9645 26.0056 23.8595 26.5789 25.8903 26.3717C27.4895 26.1729 28.9085 25.4325 30.0578 24.3142C30.1023 24.2732 30.1469 24.2322 30.1928 24.1899C31.4522 23.0002 32.0879 21.2029 32.1781 19.5055C32.2166 17.4886 31.4837 15.6789 30.1056 14.2183C28.7767 12.8563 26.954 12.0949 25.0571 12.0692C22.8291 12.0815 20.9385 13.06 19.4504 14.6903Z" fill="white"/>
<path d="M15.8678 29.0209C15.9125 29.0641 15.9125 29.0641 15.9581 29.1081C15.9993 29.146 16.0405 29.1838 16.0829 29.2228C16.1229 29.2603 16.1628 29.2978 16.2039 29.3364C16.5774 29.5907 17.0136 29.6059 17.4513 29.6486C18.4702 29.7502 19.169 29.9268 19.8719 30.7068C20.0559 30.9393 20.2261 31.1814 20.396 31.4244C20.7195 31.872 21.0768 32.1875 21.6281 32.3225C21.7289 32.3352 21.8299 32.3468 21.931 32.3576C22.0592 32.375 22.0592 32.375 22.1901 32.3927C22.2132 32.4391 22.2364 32.4855 22.2603 32.5332C22.2078 32.6743 22.2078 32.6743 22.1204 32.8502C22.088 32.9162 22.0556 32.9823 22.0221 33.0503C21.986 33.1225 21.9499 33.1946 21.9126 33.2689C21.857 33.3817 21.857 33.3817 21.8003 33.4967C21.6805 33.7392 21.5599 33.9814 21.4393 34.2236C21.2837 34.5375 21.1284 34.8516 20.9731 35.1656C20.9148 35.2833 20.9148 35.2833 20.8553 35.4034C20.4808 36.1601 20.1157 36.9212 19.7517 37.6829C19.627 37.9433 19.5014 38.2033 19.3755 38.4631C19.3548 38.5058 19.3341 38.5485 19.3128 38.5924C19.2519 38.7182 19.1909 38.8439 19.1299 38.9697C18.8147 39.62 18.5012 40.271 18.1903 40.9234C17.8921 41.5493 17.586 42.1709 17.2727 42.7894C16.9648 42.6867 16.8752 42.4454 16.7151 42.1791C16.3129 41.525 15.891 40.8853 15.4639 40.2473C15.4317 40.1992 15.3996 40.1512 15.3665 40.1017C15.1826 39.8266 14.9984 39.5517 14.8141 39.277C14.7678 39.2823 14.7215 39.2876 14.6738 39.293C14.1907 39.3481 13.7075 39.4027 13.2243 39.4571C13.0441 39.4774 12.8639 39.4978 12.6838 39.5184C12.4244 39.548 12.1649 39.5772 11.9054 39.6063C11.8253 39.6155 11.7452 39.6247 11.6627 39.6342C11.2585 39.6792 10.8655 39.7089 10.4587 39.6985C11.0765 38.3736 11.7213 37.0618 12.4095 35.772C12.7424 35.1431 13.0568 34.5049 13.374 33.8679C14.1023 32.4055 14.1023 32.4055 14.4864 31.6884C14.8219 31.0587 15.1359 30.4178 15.4525 29.7785C15.4749 29.7336 15.4972 29.6887 15.5202 29.6424C15.5816 29.5188 15.6428 29.3951 15.704 29.2714C15.7975 29.0911 15.7975 29.0911 15.8678 29.0209Z" fill="white"/>
<path d="M34.1323 29.5124C34.2355 29.6671 34.3189 29.8123 34.4017 29.9775C34.4267 30.0255 34.4517 30.0734 34.4774 30.1228C34.5594 30.2804 34.6399 30.4386 34.7206 30.5969C34.7774 30.7066 34.8343 30.8163 34.8913 30.9259C35.0063 31.147 35.1209 31.3683 35.2352 31.5897C35.4524 32.0093 35.6765 32.425 35.9016 32.8404C35.981 32.9875 36.0604 33.1346 36.1398 33.2816C36.179 33.3544 36.2183 33.4271 36.2587 33.502C36.4741 33.9016 36.6884 34.3018 36.9026 34.702C36.9683 34.8245 36.9683 34.8245 37.0352 34.9496C37.1238 35.1151 37.2124 35.2806 37.301 35.4461C37.4771 35.7749 37.6533 36.1038 37.8294 36.4326C37.9163 36.5948 38.0032 36.7571 38.0901 36.9193C38.2971 37.3059 38.5043 37.6924 38.7122 38.0786C38.8111 38.2624 38.91 38.4463 39.0088 38.6302C39.0562 38.7184 39.1037 38.8066 39.1513 38.8948C39.2169 39.0165 39.2824 39.1383 39.3478 39.2601C39.3853 39.3296 39.4227 39.3991 39.4613 39.4707C39.5413 39.6281 39.5413 39.6281 39.5413 39.6983C38.6481 39.6537 37.7664 39.5314 36.8807 39.4129C36.7295 39.3929 36.5783 39.3729 36.4271 39.353C36.0602 39.3045 35.6933 39.2557 35.3265 39.2066C35.1059 39.7196 34.9014 40.2377 34.7025 40.7594C34.6534 40.8876 34.6042 41.0158 34.5551 41.144C34.479 41.3426 34.4032 41.5412 34.3281 41.7402C34.2546 41.9345 34.1801 42.1285 34.1054 42.3224C34.0718 42.4124 34.0718 42.4124 34.0375 42.5042C34.0055 42.5866 34.0055 42.5866 33.9728 42.6707C33.9543 42.7192 33.9359 42.7676 33.9169 42.8176C33.8513 42.9297 33.8513 42.9297 33.6405 42.9999C33.6155 42.9548 33.5905 42.9097 33.5647 42.8632C33.0844 41.9981 32.5988 41.1373 32.0927 40.287C31.7981 39.7916 31.5088 39.2934 31.2214 38.7939C30.8805 38.2017 30.5385 37.6102 30.194 37.0201C30.1537 36.951 30.1133 36.8819 30.0718 36.8108C29.9501 36.6025 29.8284 36.3942 29.7067 36.1859C29.1821 35.2885 28.6589 34.3904 28.1393 33.4902C28.0934 33.4108 28.0476 33.3314 28.0003 33.2496C27.9581 33.1763 27.9158 33.103 27.8723 33.0275C27.8348 32.9625 27.7972 32.8974 27.7586 32.8304C27.703 32.7326 27.6495 32.6336 27.5992 32.5331C27.6773 32.5219 27.7554 32.5108 27.8358 32.4993C28.8113 32.3507 29.514 32.0897 30.1984 31.3389C30.3191 31.1611 30.4252 30.9808 30.5291 30.7928C30.9211 30.1177 31.64 29.8844 32.3511 29.6932C32.6439 29.622 32.9392 29.5693 33.2366 29.5212C33.2935 29.5119 33.3504 29.5026 33.409 29.4931C33.9283 29.4163 33.9283 29.4163 34.1323 29.5124Z" fill="white"/>
<path d="M24.9298 14.6201C24.9762 14.6201 25.0226 14.6201 25.0703 14.6201C25.1007 14.7073 25.131 14.7945 25.1623 14.8843C25.6745 16.4555 25.6745 16.4555 26.7045 17.6726C27.4085 17.9911 28.2247 17.999 28.9853 17.9842C29.308 17.9823 29.6065 18.0509 29.9174 18.1325C29.5882 18.5279 29.2371 18.8937 28.8725 19.2564C28.8188 19.3104 28.7651 19.3644 28.7097 19.42C28.4111 19.7181 28.1071 20.0034 27.7836 20.2745C27.6529 20.3875 27.6529 20.3875 27.529 20.5911C27.5271 20.7268 27.5271 20.7268 27.5582 20.8728C27.573 20.9572 27.573 20.9572 27.588 21.0433C27.5995 21.1039 27.611 21.1645 27.6228 21.2269C27.6339 21.2896 27.6451 21.3522 27.6565 21.4167C27.6922 21.6173 27.7291 21.8177 27.7661 22.018C27.8024 22.2177 27.8385 22.4174 27.8741 22.6171C27.8964 22.7414 27.919 22.8657 27.9421 22.9898C27.9974 23.2953 28.0337 23.5808 28.0207 23.8928C27.7181 23.7993 27.446 23.6823 27.1654 23.5358C27.084 23.4934 27.0027 23.4511 26.9188 23.4075C26.8769 23.3855 26.835 23.3635 26.7918 23.3408C26.6653 23.2744 26.5385 23.2083 26.4118 23.1424C26.2893 23.0785 26.2893 23.0785 26.1644 23.0133C26.0454 22.9514 26.0454 22.9514 25.9241 22.8883C25.7286 22.7829 25.5415 22.6695 25.3527 22.5529C25.1543 22.4439 25.099 22.4143 24.8686 22.4409C24.7961 22.4796 24.7236 22.5182 24.6488 22.5581C24.5931 22.5858 24.5373 22.6136 24.4798 22.6421C24.2754 22.7444 24.0736 22.8506 23.8717 22.9576C23.7641 23.0141 23.7641 23.0141 23.6544 23.0718C23.1926 23.3149 22.733 23.5617 22.2766 23.8148C22.1199 23.8928 22.1199 23.8928 21.9794 23.8928C22.0035 23.4189 22.077 22.9641 22.1734 22.5007C22.2071 22.3305 22.2404 22.1602 22.2737 21.9899C22.2971 21.8736 22.3219 21.7576 22.348 21.6419C22.5207 20.9546 22.5207 20.9546 22.3443 20.3009C22.1632 20.1175 21.978 19.9684 21.7687 19.8184C21.672 19.7352 21.576 19.651 21.4811 19.5657C21.4361 19.5271 21.3911 19.4885 21.3447 19.4488C21.0884 19.2221 20.85 18.9773 20.6096 18.734C20.5585 18.6826 20.5075 18.6312 20.4549 18.5783C20.3307 18.4532 20.2066 18.3281 20.0828 18.2027C20.297 17.9885 20.5653 17.9979 20.8547 17.9588C20.9176 17.9498 20.9805 17.9408 21.0453 17.9315C21.2468 17.9028 21.4485 17.875 21.6502 17.8471C21.8511 17.8188 22.0519 17.7904 22.2528 17.7619C22.3779 17.7442 22.503 17.7267 22.6281 17.7094C22.6853 17.7014 22.7425 17.6934 22.8014 17.6852C22.8513 17.6783 22.9013 17.6714 22.9528 17.6643C23.0025 17.6565 23.0522 17.6487 23.1034 17.6408C23.164 17.634 23.2245 17.6272 23.2869 17.6203C23.461 17.5857 23.461 17.5857 23.5529 17.4501C23.5783 17.3978 23.6037 17.3455 23.6299 17.2917C23.6594 17.2326 23.6889 17.1736 23.7193 17.1127C23.765 17.0165 23.765 17.0165 23.8116 16.9182C23.8439 16.8529 23.8761 16.7875 23.9094 16.7201C24.0122 16.5109 24.1132 16.301 24.2142 16.0909C24.2835 15.949 24.353 15.8072 24.4226 15.6655C24.593 15.3177 24.762 14.9692 24.9298 14.6201Z" fill="white"/>
</svg>
