<svg width="50" height="50" viewBox="0 0 50 50" fill="none" xmlns="http://www.w3.org/2000/svg">
<path d="M15.9602 7.01756C16.0972 7.01711 16.2341 7.0166 16.3711 7.01604C16.7413 7.01473 17.1114 7.01437 17.4816 7.01427C17.713 7.01417 17.9444 7.01385 18.1758 7.01345C18.9836 7.01207 19.7913 7.01146 20.5991 7.01158C21.3516 7.01167 22.1041 7.01009 22.8566 7.00773C23.5035 7.00578 24.1504 7.00498 24.7973 7.00508C25.1833 7.00511 25.5693 7.00469 25.9554 7.00311C26.318 7.00166 26.6807 7.00165 27.0433 7.00274C27.1763 7.00289 27.3094 7.00254 27.4424 7.00164C27.624 7.00048 27.8056 7.00118 27.9873 7.00233C28.0398 7.00156 28.0923 7.00079 28.1465 7C28.7187 7.00801 29.0332 7.33808 29.4189 7.72348C29.457 7.76134 29.4951 7.7992 29.5343 7.83821C29.6609 7.96422 29.787 8.09074 29.9131 8.21728C30.0041 8.3081 30.0952 8.3989 30.1862 8.48967C30.4328 8.73558 30.679 8.98197 30.925 9.22846C31.1826 9.48651 31.4407 9.74418 31.6986 10.0019C32.1316 10.4346 32.5642 10.8676 32.9967 11.3007C33.4967 11.8016 33.9973 12.302 34.4982 12.802C34.9284 13.2315 35.3583 13.6613 35.7879 14.0914C36.0445 14.3481 36.3012 14.6048 36.5581 14.8613C36.7994 15.1022 37.0404 15.3435 37.2812 15.5851C37.3696 15.6737 37.4582 15.7622 37.5469 15.8506C37.6678 15.9712 37.7883 16.0922 37.9087 16.2133C37.9763 16.2809 38.0438 16.3485 38.1135 16.4182C38.3665 16.7006 38.4432 16.8992 38.4436 17.2777C38.444 17.355 38.4445 17.4322 38.4449 17.5117C38.4446 17.5965 38.4444 17.6812 38.4441 17.7685C38.4443 17.8586 38.4446 17.9487 38.4449 18.0415C38.4456 18.2917 38.4455 18.5419 38.4452 18.7921C38.445 19.0619 38.4457 19.3318 38.4463 19.6016C38.4472 20.1305 38.4473 20.6593 38.4472 21.1882C38.447 21.6184 38.4472 22.0486 38.4475 22.4788C38.4475 22.54 38.4476 22.6012 38.4476 22.6643C38.4477 22.7887 38.4478 22.913 38.4479 23.0374C38.4487 24.2046 38.4485 25.3718 38.4481 26.539C38.4477 27.6054 38.4485 28.6717 38.45 29.7381C38.4514 30.8337 38.452 31.9293 38.4517 33.0249C38.4516 33.6397 38.4518 34.2545 38.4528 34.8693C38.4537 35.3931 38.4538 35.917 38.4529 36.4408C38.4525 36.7078 38.4524 36.9747 38.4533 37.2417C38.4543 37.532 38.4535 37.8224 38.4525 38.1127C38.4531 38.1958 38.4536 38.2789 38.4542 38.3644C38.4451 39.7053 38.0402 40.8848 37.0803 41.8418C36.1032 42.6721 35.0417 42.986 33.7741 42.9821C33.6518 42.9826 33.6518 42.9826 33.527 42.9831C33.2555 42.984 32.9841 42.9839 32.7126 42.9838C32.5172 42.9842 32.3218 42.9848 32.1265 42.9853C31.6518 42.9866 31.1772 42.987 30.7025 42.9871C30.3163 42.9871 29.9301 42.9874 29.5439 42.9879C28.4468 42.9892 27.3497 42.9899 26.2525 42.9898C26.164 42.9898 26.164 42.9898 26.0736 42.9898C25.9849 42.9898 25.9849 42.9898 25.8944 42.9898C24.9371 42.9897 23.9798 42.9911 23.0225 42.9932C22.0375 42.9954 21.0524 42.9964 20.0673 42.9963C19.5151 42.9962 18.9629 42.9966 18.4108 42.9982C17.891 42.9998 17.3714 42.9997 16.8516 42.9986C16.6616 42.9985 16.4716 42.9988 16.2816 42.9997C14.6052 43.0072 13.2133 42.8704 11.9358 41.6607C11.1826 40.8251 10.7834 39.7791 10.7816 38.6594C10.7814 38.6114 10.7813 38.5635 10.7811 38.5141C10.7806 38.3537 10.7806 38.1932 10.7806 38.0328C10.7804 37.9165 10.7801 37.8002 10.7798 37.684C10.7791 37.3645 10.7788 37.0451 10.7786 36.7257C10.7783 36.3812 10.7776 36.0366 10.7769 35.692C10.7755 34.8599 10.7747 34.0278 10.774 33.1957C10.7737 32.8035 10.7733 32.4114 10.7729 32.0192C10.7716 30.7151 10.7706 29.4109 10.77 28.1068C10.7699 27.7684 10.7697 27.4301 10.7696 27.0918C10.7696 27.0077 10.7695 26.9237 10.7695 26.837C10.7689 25.4757 10.767 24.1144 10.7645 22.7531C10.7621 21.3545 10.7607 19.9559 10.7605 18.5573C10.7603 17.7725 10.7597 16.9876 10.7578 16.2028C10.7561 15.5342 10.7555 14.8656 10.7563 14.197C10.7566 13.8562 10.7565 13.5154 10.755 13.1747C10.7537 12.8619 10.7538 12.5492 10.7549 12.2364C10.7551 12.1241 10.7548 12.0117 10.7539 11.8993C10.7435 10.5004 11.0689 9.27752 12.0499 8.23624C13.1818 7.17007 14.4774 7.01659 15.9602 7.01756ZM13.1815 9.65319C12.7846 10.2094 12.5657 10.7323 12.5648 11.4246C12.5646 11.4725 12.5643 11.5203 12.564 11.5697C12.5633 11.7295 12.5637 11.8893 12.5641 12.049C12.5638 12.1651 12.5634 12.2811 12.563 12.3971C12.5621 12.7153 12.5622 13.0336 12.5623 13.3518C12.5624 13.6953 12.5615 14.0387 12.5608 14.3821C12.5596 15.0548 12.5592 15.7275 12.5591 16.4002C12.559 16.9471 12.5587 17.4939 12.5582 18.0408C12.5569 19.5916 12.5562 21.1424 12.5563 22.6932C12.5564 22.7768 12.5564 22.8604 12.5564 22.9466C12.5564 23.0302 12.5564 23.1139 12.5564 23.2002C12.5564 24.5564 12.555 25.9126 12.5529 27.2689C12.5508 28.6618 12.5497 30.0548 12.5499 31.4477C12.5499 32.2296 12.5495 33.0115 12.5479 33.7933C12.5465 34.4591 12.5462 35.1248 12.5472 35.7905C12.5477 36.1301 12.5477 36.4696 12.5464 36.8091C12.5452 37.1203 12.5455 37.4314 12.5468 37.7425C12.547 37.8548 12.5467 37.967 12.5459 38.0792C12.5391 39.0511 12.6873 39.7726 13.3784 40.4853C14.0351 41.0866 14.6983 41.1924 15.5652 41.1892C15.6457 41.1894 15.7262 41.1897 15.8091 41.19C16.078 41.1908 16.3469 41.1905 16.6158 41.1902C16.8089 41.1905 17.002 41.1909 17.1951 41.1914C17.6648 41.1923 18.1344 41.1924 18.604 41.1923C18.9859 41.1921 19.3677 41.1923 19.7496 41.1926C19.804 41.1926 19.8585 41.1927 19.9145 41.1927C20.0251 41.1928 20.1357 41.1929 20.2463 41.193C21.2824 41.1938 22.3186 41.1936 23.3548 41.1932C24.3018 41.1928 25.2488 41.1936 26.1958 41.1951C27.1692 41.1965 28.1426 41.1971 29.116 41.1968C29.6621 41.1967 30.2082 41.1969 30.7542 41.1979C31.2678 41.1989 31.7814 41.1987 32.295 41.1978C32.4832 41.1976 32.6715 41.1978 32.8598 41.1984C33.1172 41.1992 33.3746 41.1986 33.6321 41.1976C33.7062 41.1982 33.7803 41.1987 33.8567 41.1993C34.7175 41.1927 35.3435 40.9591 35.9559 40.354C36.4269 39.8456 36.6417 39.3286 36.6414 38.6302C36.6415 38.5563 36.6417 38.4825 36.6418 38.4064C36.6415 38.2855 36.6415 38.2855 36.6412 38.1622C36.6412 38.0762 36.6413 37.9902 36.6414 37.9016C36.6415 37.6632 36.6412 37.4247 36.6409 37.1863C36.6405 36.9291 36.6406 36.6718 36.6407 36.4146C36.6407 35.969 36.6405 35.5234 36.6401 35.0778C36.6395 34.4336 36.6393 33.7894 36.6392 33.1451C36.639 32.0999 36.6385 31.0547 36.6378 30.0095C36.6371 28.9941 36.6366 27.9788 36.6363 26.9635C36.6363 26.9009 36.6362 26.8383 36.6362 26.7738C36.6361 26.4598 36.636 26.1459 36.6359 25.8319C36.6352 23.2272 36.6339 20.6225 36.6322 18.0178C36.564 18.0173 36.4958 18.0169 36.4256 18.0164C35.7796 18.0121 35.1336 18.0067 34.4877 18.0002C34.1557 17.9968 33.8237 17.9939 33.4916 17.9919C33.1706 17.9899 32.8495 17.9869 32.5285 17.9832C32.4067 17.9819 32.2848 17.9811 32.163 17.9806C30.8292 17.9749 29.6498 17.7322 28.6507 16.7791C27.5744 15.5586 27.4409 14.237 27.4225 12.668C27.4209 12.5568 27.4194 12.4457 27.4178 12.3346C27.4137 12.0446 27.41 11.7546 27.4063 11.4646C27.4026 11.1677 27.3984 10.8708 27.3943 10.5739C27.3863 9.99316 27.3787 9.41241 27.3714 8.83167C25.7218 8.82293 24.0721 8.81635 22.4225 8.81232C21.6565 8.8104 20.8904 8.80778 20.1244 8.80349C19.4565 8.79976 18.7886 8.79736 18.1206 8.79653C17.7672 8.79605 17.4138 8.79491 17.0604 8.79218C16.7271 8.78963 16.394 8.78887 16.0607 8.78943C15.939 8.78933 15.8172 8.78859 15.6955 8.78715C14.7623 8.77665 13.8238 8.89754 13.1815 9.65319ZM29.1638 10.1013C29.1562 10.6366 29.151 11.1719 29.1474 11.7072C29.1459 11.8889 29.1439 12.0706 29.1413 12.2524C29.08 13.9783 29.08 13.9783 29.8316 15.4832C30.6174 16.2228 31.5289 16.3124 32.5546 16.3073C32.6351 16.3072 32.7156 16.3071 32.7985 16.307C33.0542 16.3066 33.3098 16.3057 33.5655 16.3047C33.7394 16.3043 33.9133 16.304 34.0873 16.3037C34.5124 16.3029 34.9375 16.3016 35.3626 16.3C35.0393 15.9138 34.7003 15.5524 34.3437 15.1969C34.2884 15.1414 34.2331 15.086 34.1761 15.0289C33.9949 14.8473 33.8133 14.6659 33.6317 14.4846C33.5053 14.3581 33.3788 14.2316 33.2524 14.105C32.9883 13.8408 32.7241 13.5768 32.4597 13.3128C32.1201 12.9736 31.7808 12.634 31.4416 12.2944C31.181 12.0335 30.9203 11.7729 30.6595 11.5123C30.5342 11.3871 30.409 11.2618 30.2839 11.1365C30.1097 10.9621 29.9353 10.7881 29.7609 10.614C29.7088 10.5618 29.6567 10.5095 29.603 10.4557C29.5558 10.4087 29.5086 10.3617 29.4599 10.3133C29.4187 10.2721 29.3775 10.2309 29.3351 10.1885C29.2509 10.0929 29.2509 10.0929 29.1638 10.1013Z" fill="white"/>
<path d="M16.3232 28.2302C16.3834 28.2298 16.4435 28.2293 16.5055 28.2288C16.5712 28.229 16.6368 28.2293 16.7045 28.2295C16.7746 28.2292 16.8447 28.2288 16.9169 28.2285C17.1523 28.2275 17.3877 28.2276 17.6231 28.2278C17.7916 28.2273 17.9602 28.2268 18.1287 28.2262C18.587 28.2249 19.0453 28.2246 19.5036 28.2245C19.8859 28.2243 20.2683 28.2238 20.6506 28.2233C21.501 28.2221 22.3513 28.2217 23.2017 28.2218C23.2527 28.2218 23.3037 28.2218 23.3563 28.2218C23.4329 28.2218 23.4329 28.2218 23.5111 28.2218C24.339 28.2219 25.1669 28.2204 25.9949 28.2183C26.8451 28.2162 27.6953 28.2152 28.5454 28.2153C29.0227 28.2153 29.5 28.2149 29.9773 28.2133C30.4261 28.2119 30.875 28.2119 31.3238 28.2129C31.4886 28.2131 31.6534 28.2127 31.8182 28.2118C32.0431 28.2107 32.2679 28.2114 32.4927 28.2125C32.558 28.2118 32.6234 28.211 32.6907 28.2102C33.0944 28.2148 33.3235 28.2808 33.6448 28.5482C33.8225 28.7743 33.8215 29.0148 33.8126 29.298C33.7845 29.5218 33.7165 29.6471 33.5701 29.8178C33.1849 30.063 32.8666 30.0739 32.4252 30.0708C32.3557 30.0712 32.2861 30.0716 32.2145 30.072C31.9817 30.0731 31.7491 30.0726 31.5163 30.072C31.3494 30.0725 31.1824 30.073 31.0154 30.0736C30.5621 30.0749 30.1087 30.0749 29.6554 30.0744C29.2769 30.0742 28.8985 30.0746 28.5201 30.0751C27.5763 30.0762 26.6325 30.0759 25.6887 30.075C24.8695 30.0743 24.0504 30.0753 23.2312 30.077C22.3895 30.0789 21.5478 30.0796 20.7062 30.0791C20.2338 30.0788 19.7615 30.079 19.2892 30.0803C18.8451 30.0815 18.401 30.0812 17.9569 30.0798C17.7939 30.0795 17.6309 30.0797 17.468 30.0805C17.2454 30.0815 17.023 30.0806 16.8004 30.0793C16.736 30.08 16.6716 30.0807 16.6052 30.0815C16.1756 30.0762 15.9257 29.9887 15.5714 29.7431C15.3914 29.5241 15.3908 29.278 15.3981 28.9986C15.4379 28.7458 15.557 28.5899 15.7207 28.3988C15.9279 28.2728 16.0821 28.2307 16.3232 28.2302Z" fill="white"/>
<path d="M16.6355 34.7174C16.7415 34.7167 16.7415 34.7167 16.8497 34.716C17.0872 34.7148 17.3246 34.7152 17.5621 34.7155C17.7321 34.715 17.9021 34.7143 18.0722 34.7136C18.5345 34.7119 18.9968 34.7117 19.4591 34.7119C19.8447 34.7119 20.2304 34.7112 20.6161 34.7106C21.5779 34.7091 22.5397 34.709 23.5016 34.7096C24.3368 34.71 25.1719 34.7084 26.0071 34.7059C26.8647 34.7034 27.7223 34.7023 28.5799 34.7026C29.0614 34.7028 29.5429 34.7024 30.0243 34.7005C30.4771 34.6989 30.9298 34.699 31.3826 34.7005C31.5488 34.7008 31.7151 34.7004 31.8813 34.6993C32.1082 34.698 32.3349 34.6989 32.5617 34.7005C32.6276 34.6995 32.6935 34.6986 32.7614 34.6976C33.0759 34.7022 33.2838 34.7239 33.5351 34.9225C33.7551 35.1585 33.7892 35.2774 33.8128 35.5964C33.789 35.9422 33.6906 36.1134 33.4558 36.3612C33.172 36.5203 32.9008 36.496 32.5807 36.4941C32.4747 36.4947 32.4747 36.4947 32.3665 36.4954C32.129 36.4967 31.8915 36.4963 31.6541 36.496C31.484 36.4965 31.314 36.4972 31.144 36.4979C30.6817 36.4995 30.2194 36.4998 29.7571 36.4996C29.3714 36.4996 28.9858 36.5002 28.6001 36.5009C27.6382 36.5024 26.6764 36.5025 25.7146 36.5019C24.8794 36.5015 24.0442 36.5031 23.2091 36.5055C22.3515 36.5081 21.4938 36.5092 20.6362 36.5088C20.1548 36.5087 19.6733 36.5091 19.1918 36.5109C18.7391 36.5126 18.2863 36.5125 17.8336 36.5109C17.6673 36.5107 17.5011 36.5111 17.3348 36.5121C17.108 36.5135 16.8813 36.5125 16.6544 36.511C16.5885 36.5119 16.5226 36.5129 16.4547 36.5138C16.1402 36.5093 15.9324 36.4876 15.681 36.289C15.461 36.053 15.427 35.9341 15.4033 35.6151C15.4272 35.2693 15.5256 35.0981 15.7604 34.8502C16.0441 34.6912 16.3154 34.7155 16.6355 34.7174Z" fill="white"/>
<path d="M16.3547 21.7972C16.4381 21.7964 16.5214 21.7955 16.6073 21.7946C16.6984 21.7949 16.7895 21.7951 16.8833 21.7953C17.0276 21.7943 17.0276 21.7943 17.1749 21.7934C17.4386 21.7917 17.7023 21.7915 17.966 21.7916C18.1863 21.7917 18.4066 21.791 18.6269 21.7904C19.1467 21.789 19.6666 21.7887 20.1864 21.7892C20.7223 21.7897 21.2582 21.788 21.7941 21.7853C22.2545 21.783 22.7149 21.7821 23.1753 21.7824C23.4502 21.7826 23.725 21.7822 23.9999 21.7803C24.3065 21.7784 24.6131 21.7794 24.9197 21.7807C25.0105 21.7797 25.1013 21.7787 25.1949 21.7777C25.8806 21.7846 25.8806 21.7846 26.1569 22.0069C26.4079 22.2941 26.4297 22.4759 26.4273 22.8477C26.3821 23.1403 26.2385 23.2683 26.027 23.4697C25.8359 23.5653 25.6997 23.5546 25.4856 23.5559C25.4025 23.5565 25.3193 23.5572 25.2337 23.5578C25.0962 23.5583 25.0962 23.5583 24.956 23.5588C24.8598 23.5594 24.7636 23.56 24.6645 23.5606C24.345 23.5626 24.0255 23.5637 23.706 23.5648C23.596 23.5652 23.486 23.5656 23.376 23.566C22.9184 23.5676 22.4609 23.569 22.0033 23.5699C21.3476 23.5711 20.6919 23.5736 20.0362 23.5778C19.5752 23.5807 19.1141 23.5822 18.6531 23.5826C18.3777 23.5828 18.1024 23.5837 17.8271 23.5861C17.5197 23.5888 17.2124 23.5885 16.905 23.588C16.814 23.5892 16.723 23.5904 16.6292 23.5917C15.9414 23.5866 15.9414 23.5866 15.6653 23.369C15.4035 23.0617 15.3947 22.8188 15.4219 22.4241C15.6229 21.982 15.8707 21.7991 16.3547 21.7972Z" fill="white"/>
</svg>
