<svg width="28" height="28" viewBox="0 0 28 28" fill="none" xmlns="http://www.w3.org/2000/svg">
<path fill-rule="evenodd" clip-rule="evenodd" d="M26.5128 3.7277C26.5978 3.16824 26.3593 2.60761 25.8978 2.27831C25.4363 1.95019 24.8285 1.90888 24.3269 2.17208C20.3127 4.28008 6.27081 11.6522 1.95804 13.916C1.42573 14.1945 1.11177 14.7634 1.1578 15.3618C1.20383 15.9602 1.60041 16.4748 2.16931 16.6696C3.84886 17.2444 5.90138 17.949 9.12003 19.0526L22.1032 6.91802L11.5963 19.9012C15.0286 21.0779 20.3953 22.918 21.742 23.3795C22.1634 23.5247 22.6284 23.4739 23.0097 23.2438C23.3909 23.0124 23.6494 22.6241 23.7167 22.1827L26.5128 3.7277Z" fill="#0D0D0D"/>
<path fill-rule="evenodd" clip-rule="evenodd" d="M10.1021 20.6362V24.4958C10.1021 25.0883 10.4502 25.6253 10.9896 25.8673C11.5302 26.1104 12.1617 26.0136 12.6043 25.6194L15.9539 22.6427L10.1021 20.6362Z" fill="#0D0D0D"/>
</svg>
