<svg width="24" height="24" viewBox="0 0 24 24" fill="none" xmlns="http://www.w3.org/2000/svg">
<path d="M19.8549 23.371C21.468 22.7477 22.7433 21.4724 23.3666 19.8593C23.6616 19.0951 23.8682 18.2233 23.9242 16.9479C23.9375 16.6492 23.9478 16.3984 23.9574 16.1469V7.6261C23.9508 7.44834 23.9434 7.2632 23.9338 7.05519C23.8777 5.77987 23.6712 4.9036 23.3762 4.14387C23.0715 3.33766 22.6024 2.61555 21.9887 2.01588C21.3883 1.40588 20.6618 0.932334 19.8644 0.632866C19.1003 0.337824 18.2284 0.131295 16.9531 0.0752371C15.6682 0.0140159 15.2603 0 12.0023 0C8.74431 0 8.33567 0.0140154 7.05593 0.0700734C5.78061 0.126131 4.90433 0.332661 4.1446 0.627702C3.3384 0.932333 2.61628 1.40145 2.01587 2.01588C1.40661 2.61629 0.933069 3.34283 0.632864 4.13944C0.337822 4.9036 0.131293 5.77545 0.0752349 7.05077C0.0140137 8.33568 0 8.74357 0 12.0023C0 15.261 0.0140131 15.6689 0.0700711 16.9487C0.126129 18.224 0.332659 19.101 0.628439 19.86C0.93307 20.6662 1.40661 21.3883 2.01587 21.9887C2.61628 22.598 3.34282 23.0723 4.14018 23.3717C4.90433 23.6668 5.77618 23.8733 7.0515 23.9294C8.33125 23.9862 8.73914 24.0002 11.9979 24.0002C15.2566 24.0002 15.6638 23.9862 16.9443 23.9294C18.2196 23.8733 19.0951 23.6661 19.8549 23.371ZM12.0067 21.8427C8.80405 21.8427 8.41976 21.8287 7.15846 21.7726C5.9864 21.721 5.35354 21.5241 4.93163 21.3603C4.41161 21.1678 3.93807 20.8632 3.55304 20.4648C3.15474 20.0754 2.84937 19.607 2.65759 19.0863C2.49384 18.6644 2.2969 18.0263 2.24527 16.8594C2.18921 15.5937 2.1752 15.2138 2.1752 12.0112C2.1752 8.80848 2.18921 8.42419 2.24527 7.16362C2.2969 5.99157 2.49384 5.3587 2.65759 4.93679C2.85011 4.41604 3.15474 3.9425 3.55821 3.55821C3.94692 3.1599 4.41604 2.85527 4.93605 2.66275C5.35796 2.49901 5.99599 2.30207 7.16288 2.25043C8.42861 2.19438 8.80848 2.18036 12.0104 2.18036C15.2124 2.18036 15.5974 2.19438 16.8587 2.25043C18.0308 2.30207 18.6636 2.49901 19.0855 2.66275C19.6055 2.85527 20.0791 3.1599 20.4634 3.55821C20.8617 3.94766 21.1671 4.41604 21.3588 4.93679C21.5226 5.3587 21.7195 5.99599 21.7711 7.16362C21.8272 8.42935 21.8412 8.80922 21.8412 12.0112C21.8412 15.2131 21.8272 15.5885 21.7711 16.8543C21.7195 18.0263 21.5226 18.6592 21.3588 19.0811C20.9554 20.127 20.1256 20.9568 19.0804 21.3596C18.6585 21.5233 18.0212 21.7203 16.8535 21.7719C15.5878 21.8279 15.2087 21.8427 12.0067 21.8427Z" fill="#0D0D0D"/>
<path d="M12.0026 5.83598C8.59851 5.83598 5.83692 8.59758 5.83692 12.0016C5.83692 15.4057 8.59851 18.1673 12.0026 18.1673C15.4066 18.1673 18.1675 15.4057 18.1675 12.0016C18.1675 8.59758 15.4059 5.83598 12.0026 5.83598ZM12.0026 16.0002C9.79417 16.0002 8.00327 14.2093 8.00327 12.0009C8.00327 9.79249 9.79417 8.00159 12.0026 8.00159C14.2109 8.00159 16.0019 9.79249 16.0019 12.0009C16.0019 14.2093 14.2109 16.0002 12.0026 16.0002Z" fill="#0D0D0D"/>
<path d="M19.8491 5.59222C19.8491 4.79709 19.2044 4.15316 18.4093 4.15316C17.6142 4.15316 16.9702 4.79782 16.9702 5.59222C16.9702 6.38662 17.6149 7.03129 18.4093 7.03129C19.2037 7.03129 19.8491 6.38736 19.8491 5.59222Z" fill="#0D0D0D"/>
</svg>
