<svg width="26" height="24" viewBox="0 0 26 24" fill="none" xmlns="http://www.w3.org/2000/svg">
<path d="M5.69399 23.9968V7.80526H0.316941V23.9968H5.69399ZM3.00659 5.59495C4.88129 5.59495 6.04841 4.35163 6.04841 2.79783C6.01332 1.20862 4.88129 0 3.04224 0C1.20193 0 0 1.20862 0 2.79769C0 4.35149 1.1667 5.59481 2.97136 5.59481L3.00659 5.59495ZM8.67026 23.9968H14.0469V14.9557C14.0469 14.4724 14.082 13.9879 14.224 13.6427C14.6126 12.6754 15.4973 11.6742 16.983 11.6742C18.9282 11.6742 19.7068 13.1588 19.7068 15.3357V23.9968H25.0833V14.7131C25.0833 9.73992 22.431 7.42565 18.8934 7.42565C15.993 7.42565 14.7192 9.04816 14.0115 10.1532H14.0473V7.80582H8.67054C8.74072 9.32478 8.67026 23.9968 8.67026 23.9968Z" fill="#0D0D0D"/>
</svg>
