<svg width="175" height="72" viewBox="0 0 175 72" fill="none" xmlns="http://www.w3.org/2000/svg">
<g clip-path="url(#clip0_2390_36)">
<path d="M93.4332 66.9346C141.046 57.2963 176.879 35.8186 173.466 18.9628C170.054 2.10698 128.69 -3.74401 81.0769 5.89426C33.4637 15.5325 -2.3684 37.0102 1.0437 53.866C4.45579 70.7219 45.82 76.5728 93.4332 66.9346Z" fill="#B9C6DC"/>
<path d="M91.9354 66.1032C135.002 57.3854 167.328 37.5436 164.138 21.7853C160.948 6.02699 123.45 0.319548 80.3837 9.03737C37.3175 17.7552 4.99136 37.597 8.18129 53.3553C11.3712 69.1136 48.8692 74.8211 91.9354 66.1032Z" fill="white"/>
<path d="M34.6228 20.5343C34.6228 20.5343 27.1761 24.8567 33.6596 32.7498C33.6596 32.7498 28.1626 33.0083 27.4579 27.6286C27.4579 27.6286 27.6458 20.7928 34.6228 20.5343Z" fill="#19478E"/>
<path d="M43.5933 19.5334C43.5933 19.5334 44.5506 27.7843 32.5616 26.3257C32.5616 26.3257 31.6498 26.2802 32.0146 27.3743C32.0146 27.3743 33.4734 33.3003 36.4363 32.7077C36.4363 32.7077 51.2517 29.5623 43.5933 19.5334Z" fill="#19478D"/>
<path d="M32.3717 20.0426C32.3717 20.0426 38.708 17.9305 40.8353 22.3827C40.8353 22.3827 41.5496 23.7047 42.0206 22.3674C42.0206 22.3674 43.1754 18.994 42.4614 18.3408C42.4614 18.3408 42.0206 17.9 41.2306 17.809C41.2306 17.809 36.3832 16.73 32.3717 20.0426Z" fill="#6CA642"/>
<path d="M25.0411 25.2397C24.2988 29.1823 22.1224 32.8436 13.4689 32.8436C5.737 32.8436 1.97338 29.4384 1.97338 23.1403C1.97338 17.0213 5.53208 13.4369 13.4689 13.4369C19.0502 13.4369 23.6586 14.7169 24.99 21.0408H18.2053C17.8469 19.7351 16.9508 17.5333 13.4944 17.5333C9.67962 17.5333 8.42508 20.1192 8.42508 23.1403C8.42508 26.1613 9.55157 28.7473 13.4944 28.7473C16.2339 28.7473 17.8723 27.3647 18.282 25.2397H25.0411Z" fill="#19478E"/>
<path d="M47.0347 18.4041H52.3087V20.4267H52.3599C53.6656 19.1467 55.3042 18.0456 57.9412 18.0456C59.8614 18.0456 61.6281 18.5576 62.8567 20.4267C64.3162 18.9931 65.929 18.0456 68.6941 18.0456C71.5871 18.0456 74.0705 19.3002 74.0705 22.7563V32.2804H68.643V24.1901C68.643 22.8587 67.7723 22.142 66.3131 22.142C64.3162 22.142 63.2666 23.1148 63.2666 24.523V32.2807H57.8388V24.1903C57.8388 22.8589 56.9682 22.1422 55.5089 22.1422C53.512 22.1422 52.4624 23.115 52.4624 24.5233V32.2809H47.0347V18.4041Z" fill="#19478E"/>
<path d="M76.9393 18.4041H82.2134V20.2475H82.2645C83.4167 18.8394 85.3368 18.0456 87.5388 18.0456C92.4544 18.0456 95.6546 20.7594 95.6546 25.5727C95.6546 29.5922 92.6848 32.8438 87.59 32.8438C85.1834 32.8438 83.3401 32.0501 82.4183 31.0261H82.3673V37.2986H76.9396V18.4041H76.9393ZM86.2331 28.901C88.7165 28.901 90.0733 27.6719 90.0733 25.3677C90.0733 23.0636 88.7167 21.8345 86.2331 21.8345C83.6983 21.8345 82.3671 23.2171 82.3671 25.3677C82.3671 27.5184 83.6985 28.901 86.2331 28.901Z" fill="#19478E"/>
<path d="M97.8828 13.5395H103.311V32.2805H97.8828V13.5395Z" fill="#19478E"/>
<path d="M124.612 28.1584C123.946 30.4628 121.309 32.8436 115.395 32.8436C109.148 32.8436 105.666 30.4626 105.666 25.3166C105.666 20.401 109.481 17.8405 115.241 17.8405C121.181 17.8405 124.868 20.4265 124.868 26.2125V26.6221H111.247C111.529 28.4143 112.809 29.72 115.6 29.72C117.341 29.72 118.237 28.9774 118.877 28.1582H124.612V28.1584ZM119.286 23.8062C118.979 22.2701 117.827 20.9643 115.267 20.9643C112.707 20.9643 111.554 22.2701 111.247 23.8062H119.286Z" fill="#19478E"/>
<path d="M125.688 18.4041H128.53V14.0005H133.958V18.4041H137.542V21.9883H133.958V27.5696C133.958 28.8241 134.265 29.0033 135.724 29.0033C136.39 29.0033 136.927 28.9776 137.644 28.9521V32.3318C136.543 32.4854 135.11 32.5877 133.522 32.5877C129.989 32.5877 128.53 31.7173 128.53 28.7218V21.9885H125.688L125.688 18.4041Z" fill="#19478E"/>
<path d="M158.255 28.1584C157.589 30.4628 154.952 32.8436 149.038 32.8436C142.791 32.8436 139.309 30.4626 139.309 25.3166C139.309 20.401 143.124 17.8405 148.884 17.8405C154.824 17.8405 158.511 20.4265 158.511 26.2125V26.6221H144.89C145.172 28.4143 146.452 29.72 149.243 29.72C150.984 29.72 151.88 28.9774 152.52 28.1582H158.255V28.1584ZM152.929 23.8062C152.622 22.2701 151.47 20.9643 148.91 20.9643C146.35 20.9643 145.197 22.2701 144.89 23.8062H152.929Z" fill="#19478E"/>
<path d="M25.5664 38.3173C25.4825 37.7305 25.0154 37.3233 23.7097 37.3233C22.7513 37.3233 22.2244 37.5989 22.2244 38.1619C22.2244 38.4493 22.428 38.6172 22.8594 38.6889C23.5782 38.8088 25.7702 39.1322 26.6088 39.2759C28.202 39.5514 29.1601 40.1982 29.1601 41.7075C29.1601 44.6064 25.3989 44.6303 24.225 44.6303C21.3261 44.6303 19.2299 44.1153 19.0622 41.7315H22.4402C22.512 42.3784 22.8713 42.7857 24.3567 42.7857C25.0755 42.7857 25.854 42.6178 25.854 41.8872C25.854 41.432 25.4947 41.2761 24.5004 41.1204L21.6495 40.6892C19.8886 40.4257 19.2057 39.5394 19.2057 38.2697C19.2057 37.1436 19.9004 35.5504 23.6498 35.5504C26.7523 35.5504 28.6212 36.2932 28.8008 38.3176H25.5664V38.3173Z" fill="#19478E"/>
<path d="M29.4369 37.8742H30.7666V35.8139H33.3061V37.8742H34.9832V39.5512H33.3061V42.1626C33.3061 42.7495 33.4499 42.8333 34.1326 42.8333C34.444 42.8333 34.6955 42.8214 35.0308 42.8094V44.3908C34.5158 44.4627 33.8449 44.5106 33.1023 44.5106C31.4493 44.5106 30.7664 44.1033 30.7664 42.7016V39.5512H29.4367L29.4369 37.8742Z" fill="#19478E"/>
<path d="M36.1937 39.9107C36.4332 37.9822 38.2662 37.7067 40.2544 37.7067C42.6143 37.7067 44.3871 38.09 44.3871 39.9107V43.1929C44.3871 43.7438 44.447 43.9956 44.6506 44.3668H42.1112C42.0274 44.1752 41.9915 43.9476 41.9795 43.768C41.2489 44.4627 40.2067 44.6303 38.9249 44.6303C36.8524 44.6303 35.7506 43.9596 35.7506 42.606C35.7506 41.1324 36.7329 40.6054 38.5536 40.4858L41.0812 40.318C41.7399 40.27 41.848 40.1263 41.848 39.791C41.848 39.3356 41.3569 39.0963 40.2428 39.0963C39.3084 39.0963 38.8533 39.3598 38.7335 39.9107H36.1937ZM41.9196 41.3362C41.728 41.3961 41.4163 41.456 40.9492 41.5159L39.2363 41.7195C38.7211 41.7794 38.5057 41.9832 38.5057 42.3784C38.5057 42.8815 38.9608 43.1689 39.6437 43.1689C41.1052 43.1689 41.9198 42.618 41.9198 41.7315V41.3362H41.9196Z" fill="#19478E"/>
<path d="M45.1791 37.8742H46.5088V37.3233C46.5088 36.1253 46.916 35.4546 49.24 35.4546C49.7552 35.4546 50.2343 35.4906 50.7253 35.5504V36.9879H49.5873C49.12 36.9879 49.0481 37.0957 49.0481 37.479V37.8742H50.7251V39.5512H49.0481V44.3666H46.5085V39.5512H45.1789V37.8742H45.1791Z" fill="#19478E"/>
<path d="M50.7258 37.8742H52.0554V37.3233C52.0554 36.1253 52.4626 35.4546 54.7866 35.4546C55.3016 35.4546 55.7807 35.4906 56.272 35.5504V36.9879H55.134C54.6666 36.9879 54.5948 37.0957 54.5948 37.479V37.8742H56.2718V39.5512H54.5948V44.3666H52.0552V39.5512H50.7255L50.7258 37.8742ZM57.0028 35.5983H59.5424V37.1316H57.0028V35.5983ZM57.0028 37.8742H59.5424V44.3666H57.0028V37.8742Z" fill="#19478E"/>
<path d="M60.933 37.8742H63.4007V38.8086H63.4247C63.9397 38.1736 64.8739 37.7065 66.1557 37.7065C67.7488 37.7065 68.9108 38.4733 68.9108 40.0902V44.3666H66.3712V40.8569C66.3712 40.0303 65.9041 39.6231 65.0536 39.6231C64.1553 39.6231 63.4724 40.1143 63.4724 41.1803V44.3666H60.9328V37.8742H60.933Z" fill="#19478E"/>
<path d="M76.4226 37.8742H78.8903V43.7797C78.8903 45.9478 77.6804 46.8583 74.5659 46.8583C72.0026 46.8583 70.3735 46.4271 70.1098 44.6303H72.9129C73.0326 45.2172 73.7155 45.3971 74.4583 45.3971C75.8838 45.3971 76.3507 44.8938 76.3507 43.7081V43.2528C75.7878 43.8279 74.7336 44.0794 73.7513 44.0794C70.9963 44.0794 69.9062 42.6659 69.9062 40.8931C69.9062 39.1801 71.1401 37.7067 73.7513 37.7067C74.8773 37.7067 75.8714 37.994 76.3986 38.7008H76.4224L76.4226 37.8742ZM74.4583 42.474C75.8958 42.474 76.3507 41.7794 76.3507 40.9527C76.3507 40.0425 75.7638 39.3835 74.4583 39.3835C73.1764 39.3835 72.5895 40.0784 72.5895 40.929C72.5895 41.7911 73.1764 42.474 74.4583 42.474Z" fill="#19478E"/>
<path d="M90.9906 38.3173C90.9065 37.7305 90.4396 37.3233 89.1339 37.3233C88.1757 37.3233 87.6485 37.5989 87.6485 38.1619C87.6485 38.4493 87.8524 38.6172 88.2835 38.6889C89.0022 38.8088 91.1942 39.1322 92.0328 39.2759C93.6259 39.5514 94.5843 40.1982 94.5843 41.7075C94.5843 44.6064 90.8231 44.6303 89.6491 44.6303C86.7503 44.6303 84.6541 44.1153 84.4864 41.7315H87.8643C87.9362 42.3784 88.2955 42.7857 89.7811 42.7857C90.4997 42.7857 91.2784 42.6178 91.2784 41.8872C91.2784 41.432 90.9191 41.2761 89.9248 41.1204L87.0736 40.6892C85.3128 40.4257 84.6299 39.5394 84.6299 38.2697C84.6299 37.1436 85.3248 35.5504 89.074 35.5504C92.1765 35.5504 94.0451 36.2932 94.2248 38.3176H90.9906V38.3173Z" fill="#19478E"/>
<path d="M99.7364 37.6107C102.671 37.6107 104.288 38.8206 104.288 41.1204C104.288 43.4202 102.671 44.6301 99.7364 44.6301C96.8014 44.6301 95.1845 43.4202 95.1845 41.1204C95.1845 38.8206 96.8014 37.6107 99.7364 37.6107ZM97.8676 41.1204C97.8676 42.3423 98.5864 42.9531 99.7364 42.9531C100.886 42.9531 101.605 42.3423 101.605 41.1204C101.605 39.8988 100.886 39.2877 99.7364 39.2877C98.5864 39.2877 97.8676 39.8988 97.8676 41.1204Z" fill="#19478E"/>
<path d="M105.332 35.5983H107.871V44.3668H105.332V35.5983Z" fill="#19478E"/>
<path d="M109.261 37.8742H111.8V41.2282C111.8 42.3303 112.268 42.7136 113.118 42.7136C114.016 42.7136 114.699 42.2223 114.699 41.1563V37.8742H117.239V44.3666H114.771V43.528H114.747C114.232 44.1628 113.298 44.6301 112.016 44.6301C110.459 44.6301 109.261 43.9594 109.261 42.0067L109.261 37.8742Z" fill="#19478E"/>
<path d="M117.911 37.8742H119.24V35.8139H121.78V37.8742H123.457V39.5512H121.78V42.1626C121.78 42.7495 121.924 42.8333 122.606 42.8333C122.918 42.8333 123.169 42.8214 123.505 42.8094V44.3908C122.99 44.4627 122.319 44.5106 121.576 44.5106C119.923 44.5106 119.24 44.1033 119.24 42.7016V39.5512H117.911V37.8742Z" fill="#19478E"/>
<path d="M124.62 35.5983H127.159V37.1316H124.62V35.5983ZM124.62 37.8742H127.159V44.3666H124.62V37.8742Z" fill="#19478E"/>
<path d="M132.754 37.6107C135.689 37.6107 137.306 38.8206 137.306 41.1204C137.306 43.4202 135.688 44.6301 132.754 44.6301C129.819 44.6301 128.202 43.4202 128.202 41.1204C128.202 38.8206 129.819 37.6107 132.754 37.6107ZM130.885 41.1204C130.885 42.3423 131.604 42.9531 132.754 42.9531C133.904 42.9531 134.622 42.3423 134.622 41.1204C134.622 39.8988 133.904 39.2877 132.754 39.2877C131.604 39.2877 130.885 39.8988 130.885 41.1204Z" fill="#19478E"/>
<path d="M138.301 37.8742H140.769V38.8086H140.793C141.308 38.1736 142.242 37.7065 143.524 37.7065C145.117 37.7065 146.279 38.4733 146.279 40.0902V44.3666H143.739V40.8569C143.739 40.0303 143.272 39.6231 142.422 39.6231C141.523 39.6231 140.84 40.1143 140.84 41.1803V44.3666H138.301V37.8742H138.301Z" fill="#19478E"/>
<path d="M150.221 42.3425C150.257 42.582 150.353 42.7735 150.58 42.8934C150.808 43.025 151.155 43.0971 151.706 43.0971C152.269 43.0971 152.868 42.9893 152.868 42.5219C152.868 42.1746 152.617 42.0788 151.994 42.0069L149.73 41.7315C148.244 41.5518 147.49 41.0246 147.49 39.9225C147.49 38.1616 148.999 37.6107 151.431 37.6107C153.156 37.6107 155.336 37.9221 155.48 39.7668H152.629C152.605 39.4911 152.425 39.3117 152.174 39.2158C151.922 39.108 151.587 39.0721 151.263 39.0721C150.532 39.0721 150.101 39.24 150.101 39.6832C150.101 39.8868 150.269 40.0664 150.916 40.1383L153.108 40.3781C154.857 40.5697 155.719 41.1086 155.719 42.3786C155.719 43.9119 154.258 44.6305 151.562 44.6305C149.766 44.6305 147.334 44.3072 147.274 42.3427L150.221 42.3425Z" fill="#19478E"/>
</g>
<defs>
<clipPath id="clip0_2390_36">
<rect width="174.488" height="72" fill="white"/>
</clipPath>
</defs>
</svg>
