<svg width="50" height="50" viewBox="0 0 50 50" fill="none" xmlns="http://www.w3.org/2000/svg">
<path d="M38.9919 26.638C39.1547 26.6449 39.3176 26.6512 39.4805 26.6569C39.8775 26.6721 40.273 26.6959 40.6692 26.7245C41.0818 28.6178 41.4716 30.5155 41.8566 32.4146C41.9412 32.8318 42.0263 33.249 42.1116 33.6661C42.1778 33.9907 42.2437 34.3153 42.3094 34.64C42.3407 34.7941 42.3721 34.9481 42.4037 35.1021C42.4473 35.3155 42.4905 35.5289 42.5335 35.7423C42.5464 35.805 42.5594 35.8676 42.5727 35.9321C42.6365 36.2517 42.6603 36.5236 42.6603 36.8534C40.5748 36.8534 38.4893 36.8534 36.3406 36.8534C36.3406 36.1392 36.3406 35.425 36.3406 34.6891C36.9977 34.6891 37.6548 34.6891 38.3318 34.6891C37.8866 33.2404 37.4344 31.7956 36.9466 30.3605C36.8323 30.5605 36.7181 30.7605 36.6003 30.9665C36.7432 30.9665 36.886 30.9665 37.0332 30.9665C37.0332 31.5093 37.0332 32.0521 37.0332 32.6114C36.7475 32.6114 36.4618 32.6114 36.1675 32.6114C36.1675 36.0396 36.1675 39.4679 36.1675 43C35.4247 43 34.6819 43 33.9166 43C33.9166 39.5718 33.9166 36.1435 33.9166 32.6114C28.1172 32.6114 22.3177 32.6114 16.3426 32.6114C16.3426 36.0396 16.3426 39.4679 16.3426 43C15.5998 43 14.857 43 14.0917 43C14.0917 39.5718 14.0917 36.1435 14.0917 32.6114C13.7489 32.6114 13.4061 32.6114 13.0528 32.6114C13.0528 32.0686 13.0528 31.5258 13.0528 30.9665C13.1385 30.938 13.2243 30.9094 13.3126 30.88C13.2268 30.7371 13.1411 30.5943 13.0528 30.4471C12.5658 31.8828 12.1091 33.3253 11.6677 34.7757C12.4105 34.7757 13.1533 34.7757 13.9186 34.7757C13.9186 35.4899 13.9186 36.2041 13.9186 36.94C11.7473 36.94 9.57612 36.94 7.33911 36.94C7.43651 35.966 7.43651 35.966 7.50453 35.6301C7.51982 35.5535 7.53511 35.477 7.55087 35.3981C7.56742 35.3174 7.58397 35.2367 7.60102 35.1536C7.61863 35.0661 7.63624 34.9786 7.65438 34.8884C7.7121 34.602 7.77043 34.3157 7.82878 34.0294C7.86924 33.8294 7.90967 33.6294 7.95007 33.4294C8.03452 33.0117 8.11924 32.5941 8.20419 32.1765C8.31318 31.6408 8.42166 31.1049 8.52995 30.569C8.61328 30.1567 8.6968 29.7445 8.78038 29.3323C8.82045 29.1346 8.86049 28.9369 8.90049 28.7392C8.95628 28.4638 9.01228 28.1884 9.06835 27.9131C9.0849 27.8312 9.10145 27.7493 9.1185 27.6649C9.13379 27.59 9.14909 27.5152 9.16484 27.438C9.17806 27.373 9.19127 27.308 9.20489 27.241C9.24369 27.0708 9.24369 27.0708 9.33026 26.8111C12.2952 26.511 12.2952 26.511 13.0593 26.9715C13.4658 27.396 13.6813 27.909 13.8928 28.4508C14.0772 28.8855 14.3394 29.2654 14.6003 29.6571C14.687 29.7937 14.7734 29.9306 14.8593 30.0677C14.9203 30.1643 14.9812 30.261 15.044 30.3605C15.444 30.2327 15.8388 30.0981 16.2279 29.9399C16.2942 29.913 16.3604 29.8861 16.4286 29.8584C16.5644 29.8028 16.6998 29.7466 16.8351 29.6899C16.9008 29.6635 16.9665 29.6371 17.0341 29.6098C17.0926 29.5856 17.1511 29.5614 17.2114 29.5365C17.4182 29.4858 17.5313 29.5011 17.7277 29.5814C17.9096 29.9149 18.0256 30.264 18.1606 30.6203C18.7605 30.6631 18.7605 30.6631 19.3726 30.7068C19.3726 30.4497 19.3726 30.1926 19.3726 29.9277C19.9577 29.852 20.5282 29.8287 21.1179 29.8299C21.2113 29.8298 21.3047 29.8296 21.401 29.8294C21.7078 29.8291 22.0146 29.8293 22.3214 29.8296C22.5358 29.8296 22.7502 29.8295 22.9646 29.8294C23.4132 29.8292 23.8617 29.8294 24.3103 29.8298C24.884 29.8303 25.4578 29.83 26.0315 29.8295C26.474 29.8292 26.9165 29.8293 27.359 29.8295C27.5705 29.8296 27.782 29.8295 27.9935 29.8293C28.2895 29.8291 28.5856 29.8294 28.8816 29.8299C28.9682 29.8297 29.0549 29.8296 29.1441 29.8294C29.6452 29.8309 30.1298 29.8634 30.6269 29.9277C30.6269 30.1848 30.6269 30.4419 30.6269 30.7068C31.0268 30.6783 31.4268 30.6497 31.8389 30.6203C32.0103 30.2203 32.1817 29.8203 32.3583 29.4083C32.7883 29.5262 33.2038 29.6569 33.6163 29.8262C33.6853 29.8543 33.7543 29.8825 33.8253 29.9114C33.9646 29.9687 34.1033 30.0272 34.2415 30.0868C34.3064 30.1134 34.3712 30.14 34.4381 30.1674C34.525 30.2044 34.525 30.2044 34.6137 30.2421C34.7855 30.2881 34.7855 30.2881 34.9602 30.2193C35.1719 30.0703 35.2657 29.92 35.3971 29.697C35.4468 29.614 35.4964 29.531 35.5476 29.4455C35.5986 29.3582 35.6496 29.2709 35.7021 29.181C35.8558 28.922 36.0098 28.6637 36.1681 28.4075C36.2976 28.184 36.4054 27.971 36.5108 27.7368C37.0836 26.5459 37.7522 26.5457 38.9919 26.638ZM23.7012 30.3605C23.7012 30.3891 23.7012 30.4177 23.7012 30.4471C24.5296 30.4471 25.3581 30.4471 26.2117 30.4471C26.2117 30.4185 26.2117 30.39 26.2117 30.3605C25.3832 30.3605 24.5547 30.3605 23.7012 30.3605Z" fill="white"/>
<path d="M24.2692 7.21343C24.7717 7.31723 25.1889 7.3522 25.6923 7.2459C28.4477 6.716 31.4284 6.9927 33.8138 8.56611C35.0028 9.435 35.8643 10.4462 36.1674 11.9208C36.2882 13.0781 35.9978 14.2129 35.2655 15.1249C34.6398 15.8431 33.9328 16.4186 33.1374 16.9419C33.1728 17.0021 33.2081 17.0624 33.2446 17.1244C33.4056 17.3989 33.5664 17.6736 33.7272 17.9483C33.7828 18.0431 33.8385 18.1378 33.8958 18.2354C33.9765 18.3735 33.9765 18.3735 34.0589 18.5144C34.1084 18.5987 34.1578 18.6831 34.2087 18.7699C34.351 19.0225 34.4817 19.2788 34.6091 19.5391C33.6674 19.4931 32.7524 19.3186 31.828 19.1441C31.7467 19.1288 31.6654 19.1136 31.5816 19.0979C27.3685 18.3056 27.3685 18.3056 25.8032 17.6897C25.2091 17.4641 24.735 17.627 24.1594 17.818C21.9989 18.5308 19.7284 18.9443 17.4896 19.3281C17.4251 19.3391 17.3606 19.3502 17.2941 19.3617C16.1768 19.5522 16.1768 19.5522 15.7365 19.5391C15.8617 19.2047 16.0164 18.9013 16.1917 18.5905C16.2458 18.4942 16.3 18.398 16.3557 18.2988C16.4126 18.1982 16.4696 18.0976 16.5265 17.997C16.5841 17.8947 16.6417 17.7924 16.6993 17.6901C16.8399 17.4406 16.9807 17.1912 17.1217 16.9419C16.8348 16.7103 16.544 16.4953 16.2397 16.2872C15.1479 15.4912 14.3905 14.4598 14.1434 13.1165C13.9797 11.9686 14.2948 10.894 14.9741 9.9609C16.2819 8.29986 18.3555 7.39547 20.4114 7.10217C21.714 6.95461 22.9825 6.94682 24.2692 7.21343ZM26.558 7.8519C26.558 7.90903 26.558 7.96617 26.558 8.02504C26.6633 8.0771 26.6633 8.0771 26.7707 8.13021C28.1918 8.85981 29.2945 9.83287 29.8748 11.3526C30.1115 12.5796 29.9961 13.5327 29.3283 14.6045C28.5186 15.6879 27.3956 16.3393 26.2117 16.9419C26.2844 17.1375 26.2844 17.1375 26.5077 17.1887C26.601 17.2129 26.6942 17.2372 26.7903 17.2622C26.9489 17.3036 26.9489 17.3036 27.1107 17.3458C27.2277 17.3754 27.3446 17.4049 27.4616 17.4343C27.5206 17.4493 27.5795 17.4644 27.6403 17.4799C28.6037 17.7251 29.5721 17.9424 30.5457 18.1431C30.6062 18.1556 30.6666 18.1682 30.729 18.1811C31.5285 18.346 32.3279 18.4808 33.1374 18.5868C33.0425 18.2834 32.9474 18.0104 32.7769 17.7417C32.725 17.6581 32.725 17.6581 32.6721 17.5728C32.5993 17.4578 32.5265 17.3428 32.4536 17.2278C32.1851 16.795 32.1851 16.795 32.1851 16.5091C32.2501 16.4796 32.315 16.4501 32.382 16.4198C33.5582 15.8628 34.6713 15.0158 35.2206 13.799C35.5507 12.8498 35.5339 11.9652 35.1232 11.0496C34.854 10.5509 34.4873 10.1561 34.0897 9.75647C34.0127 9.67495 34.0127 9.67495 33.9342 9.59178C32.3993 8.09429 29.9208 7.73878 27.8813 7.74442C27.4321 7.75026 27.0006 7.77502 26.558 7.8519Z" fill="white"/>
<path d="M12.7931 18.7599C12.8502 18.7599 12.9074 18.7599 12.9662 18.7599C13.0774 18.9289 13.1809 19.103 13.2801 19.2793C13.3347 19.3757 13.3894 19.4722 13.4458 19.5715C13.5084 19.684 13.5084 19.684 13.5722 19.7987C13.9748 19.6175 14.3069 19.3427 14.6578 19.0784C14.8708 18.933 14.8708 18.933 15.044 18.933C15.1021 19.115 15.1597 19.2972 15.2171 19.4795C15.2492 19.581 15.2814 19.6824 15.3145 19.7869C15.3902 20.0585 15.3902 20.0585 15.3902 20.3182C15.4602 20.3057 15.5302 20.2932 15.6023 20.2803C15.6948 20.2642 15.7873 20.2482 15.8826 20.2316C15.974 20.2155 16.0654 20.1995 16.1596 20.1829C16.3987 20.1493 16.6211 20.1379 16.862 20.145C16.8422 20.2035 16.8225 20.262 16.8021 20.3222C16.7772 20.3995 16.7523 20.4767 16.7267 20.5562C16.7016 20.6326 16.6765 20.7089 16.6506 20.7876C16.599 21.0259 16.5845 21.1372 16.6888 21.357C16.8678 21.4925 16.8678 21.4925 17.0838 21.5951C17.1911 21.6507 17.1911 21.6507 17.3006 21.7074C17.3558 21.7346 17.4111 21.7618 17.468 21.7899C17.3572 22.0381 17.2995 22.1327 17.073 22.2985C16.7774 22.6774 16.8188 23.0013 16.8011 23.4709C16.7354 24.2637 16.336 24.9462 15.7582 25.48C15.0385 26.0782 14.2666 26.3197 13.3217 26.2815C12.4222 26.1554 11.6926 25.7229 11.1185 25.0252C10.586 24.2629 10.4852 23.482 10.5422 22.569C10.5811 22.4187 10.6225 22.2689 10.6667 22.1199C10.7359 21.8332 10.7353 21.7399 10.5919 21.4764C10.4398 21.281 10.2835 21.1 10.1094 20.9242C10.3254 20.7082 10.4274 20.7199 10.7262 20.6969C10.805 20.6905 10.8838 20.684 10.9649 20.6773C11.0557 20.671 11.0557 20.671 11.1482 20.6645C11.1232 20.5852 11.0982 20.506 11.0725 20.4244C11.0403 20.3215 11.0082 20.2186 10.9751 20.1126C10.943 20.0101 10.9108 19.9077 10.8777 19.8021C10.8019 19.539 10.8019 19.539 10.8019 19.3659C11.296 19.5089 11.7311 19.7377 12.1871 19.9719C12.3871 19.5719 12.5871 19.172 12.7931 18.7599Z" fill="white"/>
<path d="M37.0331 18.7599C37.2351 19.0135 37.3837 19.2694 37.5255 19.5607C37.5633 19.6379 37.6012 19.7151 37.6401 19.7947C37.6825 19.8824 37.6825 19.8824 37.7257 19.9719C37.8112 19.9281 37.8967 19.8844 37.9847 19.8393C38.0968 19.7825 38.2088 19.7257 38.3209 19.6689C38.3772 19.64 38.4336 19.6111 38.4917 19.5813C38.9181 19.3659 38.9181 19.3659 39.1108 19.3659C39.0696 19.5499 39.0281 19.7339 38.9864 19.9178C38.9633 20.0202 38.9402 20.1227 38.9164 20.2282C38.8511 20.4913 38.8511 20.4913 38.7646 20.6645C38.825 20.6687 38.8855 20.6729 38.9478 20.6773C39.0266 20.6838 39.1054 20.6903 39.1866 20.6969C39.2649 20.703 39.3433 20.709 39.424 20.7152C39.6303 20.751 39.6303 20.751 39.8034 20.9242C39.7577 20.9704 39.7119 21.0166 39.6648 21.0642C39.3141 21.4358 39.3141 21.4358 39.1957 21.9113C39.2303 22.0544 39.2685 22.1967 39.3097 22.3381C39.5186 23.1308 39.3816 23.9673 38.9992 24.6823C38.5481 25.4048 37.9515 25.8975 37.1407 26.1695C36.2932 26.3246 35.3433 26.2888 34.6 25.8337C33.8511 25.3083 33.3104 24.6083 33.1374 23.6945C33.1331 23.5123 33.1296 23.3302 33.1266 23.148C33.0993 22.7225 33.0494 22.4972 32.7424 22.1957C32.6456 22.1152 32.5471 22.0365 32.4448 21.963C32.5515 21.6429 32.6353 21.6223 32.9264 21.4707C32.9979 21.4328 33.0694 21.395 33.1431 21.356C33.226 21.3137 33.226 21.3137 33.3105 21.2705C33.3105 21.0022 33.2601 20.8165 33.1807 20.5617C33.1566 20.4837 33.1325 20.4056 33.1076 20.3253C33.0795 20.2361 33.0795 20.2361 33.0508 20.145C33.2474 20.1572 33.444 20.17 33.6406 20.1829C33.7501 20.1899 33.8595 20.197 33.9723 20.2042C34.2628 20.2316 34.2628 20.2316 34.5225 20.3182C34.6368 19.8611 34.7511 19.404 34.8688 18.933C35.2505 19.0857 35.446 19.206 35.7508 19.4633C36.0124 19.7159 36.0124 19.7159 36.3405 19.7987C36.4495 19.646 36.5512 19.4881 36.649 19.328C36.942 18.851 36.942 18.851 37.0331 18.7599Z" fill="white"/>
<path d="M45.6037 28.9753C45.7549 29.002 45.9061 29.0289 46.0572 29.0558C46.1414 29.0708 46.2255 29.0857 46.3123 29.1011C46.6027 29.1576 46.8796 29.2338 47.162 29.3216C47.1102 29.8922 47.009 30.4278 46.8683 30.9826C46.8473 31.067 46.8263 31.1514 46.8047 31.2383C46.7358 31.5149 46.6662 31.7912 46.5966 32.0676C46.5483 32.2603 46.5001 32.4531 46.452 32.6459C46.3513 33.0485 46.2503 33.4511 46.149 33.8535C46.0188 34.3705 45.8895 34.8877 45.7603 35.4049C45.661 35.8023 45.5615 36.1996 45.4618 36.5969C45.4139 36.7877 45.3661 36.9785 45.3185 37.1693C45.252 37.4349 45.1852 37.7003 45.1183 37.9658C45.0985 38.0452 45.0787 38.1246 45.0583 38.2064C44.921 38.748 44.921 38.748 44.8246 38.8445C44.65 38.8648 44.4749 38.8803 44.2997 38.8932C44.2041 38.9005 44.1084 38.9077 44.0099 38.9152C43.9359 38.9204 43.8619 38.9257 43.7857 38.9311C43.8277 39.0215 43.8696 39.1119 43.9128 39.2051C44.0682 39.5403 44.223 39.8758 44.3775 40.2114C44.4445 40.3566 44.5117 40.5018 44.579 40.6469C44.6758 40.8554 44.7719 41.0641 44.8678 41.2729C44.8981 41.3378 44.9284 41.4028 44.9597 41.4697C45.1708 41.9315 45.1708 41.9315 45.1708 42.2208C44.8566 42.3636 44.5423 42.5065 44.2186 42.6537C43.5852 41.4372 43.0394 40.1862 42.4871 38.9311C41.6586 38.9025 40.8301 38.8739 39.9765 38.8445C39.8908 39.1016 39.8051 39.3587 39.7168 39.6237C39.6311 39.8355 39.5427 40.0462 39.4514 40.2557C39.4272 40.3114 39.403 40.3671 39.378 40.4246C39.3275 40.5408 39.2768 40.6569 39.2259 40.773C39.1483 40.9503 39.0711 41.1277 38.994 41.3052C38.5875 42.2386 38.5875 42.2386 38.4183 42.5671C38.0231 42.52 37.728 42.4117 37.3794 42.2208C37.4373 41.8187 37.5932 41.4692 37.7585 41.1018C37.7872 41.0371 37.8159 40.9724 37.8455 40.9057C37.9368 40.7 38.0287 40.4946 38.1207 40.2892C38.1829 40.1494 38.245 40.0095 38.3072 39.8697C38.4592 39.5277 38.6117 39.1861 38.7645 38.8445C38.4503 38.8445 38.136 38.8445 37.8123 38.8445C37.8123 38.3017 37.8123 37.7589 37.8123 37.1996C39.7264 37.1996 41.6405 37.1996 43.6126 37.1996C43.6697 36.8854 43.7268 36.5711 43.7857 36.2474C43.8454 35.9878 43.9068 35.7298 43.9722 35.4717C43.99 35.4006 44.0078 35.3296 44.026 35.2563C44.0838 35.0254 44.1421 34.7945 44.2003 34.5636C44.2408 34.4019 44.2813 34.2403 44.3218 34.0786C44.4277 33.656 44.534 33.2334 44.6403 32.8109C44.7491 32.3786 44.8575 31.9462 44.9659 31.5138C45.1782 30.6676 45.3908 29.8214 45.6037 28.9753Z" fill="white"/>
<path d="M4.39568 29.0619C4.65565 30.0958 4.9153 31.1297 5.17452 32.1638C5.29489 32.6439 5.41538 33.124 5.53612 33.604C5.65258 34.0671 5.76874 34.5302 5.8847 34.9933C5.92905 35.1702 5.97351 35.3471 6.01808 35.524C6.08035 35.7712 6.14225 36.0185 6.20405 36.2659C6.23198 36.3762 6.23198 36.3762 6.26047 36.4887C6.32805 36.7605 6.38683 37.005 6.38683 37.2862C8.30093 37.2862 10.215 37.2862 12.1871 37.2862C12.1871 37.829 12.1871 38.3718 12.1871 38.9311C11.8729 38.9311 11.5586 38.9311 11.2348 38.9311C11.2676 39.0039 11.3003 39.0768 11.334 39.1519C11.4565 39.4247 11.579 39.6976 11.7014 39.9704C11.7542 40.088 11.807 40.2057 11.8598 40.3233C11.9362 40.4933 12.0125 40.6633 12.0887 40.8333C12.1345 40.9353 12.1803 41.0373 12.2275 41.1424C12.2713 41.2411 12.3151 41.3399 12.3603 41.4416C12.3849 41.4956 12.4095 41.5496 12.4349 41.6052C12.5468 41.8551 12.62 42.0303 12.62 42.3074C12.4958 42.3657 12.3713 42.4232 12.2466 42.4805C12.1773 42.5126 12.108 42.5448 12.0366 42.5779C11.8408 42.6536 11.8408 42.6536 11.5811 42.6536C11.3865 42.2211 11.1924 41.7884 10.9988 41.3554C10.933 41.2083 10.867 41.0613 10.8008 40.9143C10.7055 40.7024 10.6106 40.4902 10.5159 40.278C10.4865 40.2129 10.4571 40.1479 10.4268 40.0809C10.3991 40.0185 10.3713 39.9562 10.3428 39.8919C10.3186 39.8379 10.2943 39.7839 10.2694 39.7283C10.1697 39.4686 10.0993 39.1985 10.0228 38.9311C8.7801 38.9739 8.7801 38.9739 7.51226 39.0176C7.31968 39.438 7.12715 39.8584 6.93473 40.2789C6.86935 40.4217 6.80394 40.5646 6.73851 40.7074C6.64409 40.9134 6.54978 41.1195 6.45548 41.3256C6.42652 41.3888 6.39756 41.4519 6.36773 41.517C6.19551 41.8937 6.02908 42.2723 5.8674 42.6536C5.48745 42.5961 5.17646 42.4643 4.82854 42.3074C4.88544 41.9097 5.04011 41.5683 5.20763 41.2073C5.23633 41.1445 5.26503 41.0817 5.2946 41.017C5.38591 40.8175 5.47785 40.6182 5.56981 40.419C5.63202 40.2834 5.69419 40.1477 5.75631 40.012C5.90829 39.6803 6.06083 39.3489 6.21369 39.0176C5.87086 38.9891 5.52804 38.9605 5.17483 38.9311C4.98978 38.3942 4.83213 37.8582 4.6949 37.3074C4.6746 37.2269 4.65429 37.1465 4.63337 37.0635C4.56702 36.8001 4.50111 36.5366 4.43525 36.273C4.38905 36.0889 4.34284 35.9047 4.29661 35.7205C4.20014 35.3358 4.1039 34.951 4.00782 34.5661C3.88466 34.0729 3.76075 33.58 3.63664 33.087C3.54115 32.7073 3.44613 32.3275 3.35124 31.9476C3.30574 31.7657 3.26007 31.5839 3.21424 31.4021C3.15034 31.1484 3.08709 30.8946 3.024 30.6407C3.00498 30.5658 2.98596 30.4909 2.96636 30.4137C2.88209 30.0718 2.8125 29.7634 2.83739 29.4082C3.03201 29.3499 3.22684 29.2923 3.42175 29.235C3.53022 29.2029 3.63869 29.1708 3.75045 29.1376C4.0494 29.0619 4.0494 29.0619 4.39568 29.0619Z" fill="white"/>
<path d="M20.5846 23.8677C23.4986 23.8677 26.4126 23.8677 29.4149 23.8677C29.4149 25.7818 29.4149 27.6959 29.4149 29.668C26.5009 29.668 23.5869 29.668 20.5846 29.668C20.5846 27.7539 20.5846 25.8398 20.5846 23.8677ZM21.3637 24.5602C21.3637 26.0172 21.3637 27.4743 21.3637 28.9754C23.7635 28.9754 26.1633 28.9754 28.6358 28.9754C28.6358 27.5184 28.6358 26.0614 28.6358 24.5602C26.236 24.5602 23.8362 24.5602 21.3637 24.5602Z" fill="white"/>
<path d="M32.7911 34.6891C33.1054 34.6891 33.4196 34.6891 33.7434 34.6891C33.7434 37.4317 33.7434 40.1743 33.7434 43C33.4292 43 33.1149 43 32.7911 43C32.7911 40.2574 32.7911 37.5148 32.7911 34.6891Z" fill="white"/>
<path d="M16.5156 34.7756C16.7442 34.7756 16.9727 34.7756 17.2082 34.7756C17.2082 37.4897 17.2082 40.2037 17.2082 42.9999C16.9796 42.9999 16.7511 42.9999 16.5156 42.9999C16.5156 40.2859 16.5156 37.5719 16.5156 34.7756Z" fill="white"/>
</svg>
