<svg width="50" height="50" viewBox="0 0 50 50" fill="none" xmlns="http://www.w3.org/2000/svg">
<path d="M23.0793 11.026C23.1295 11.0556 23.1796 11.0852 23.2313 11.1156C23.3473 11.1771 23.4634 11.2386 23.5795 11.3C23.6721 11.3511 23.6721 11.3511 23.7665 11.4032C24.1259 11.5985 24.4938 11.7769 24.8602 11.9586C25.0179 12.0378 25.1756 12.117 25.3332 12.1963C25.7411 12.4002 26.1516 12.5977 26.5637 12.7928C27.3003 13.1418 28.0287 13.5064 28.757 13.8723C29.4531 14.2218 30.1517 14.5649 30.8556 14.8987C31.3094 15.1142 31.7605 15.3346 32.2099 15.5589C32.2702 15.5888 32.3305 15.6188 32.3925 15.6497C32.4473 15.6771 32.502 15.7046 32.5584 15.7328C32.6067 15.757 32.6549 15.7811 32.7045 15.806C32.8158 15.8662 32.8158 15.8662 32.8861 15.9365C32.8928 16.1503 32.8949 16.3625 32.8941 16.5764C32.8941 16.6436 32.8941 16.7107 32.8941 16.7799C32.894 17.003 32.8935 17.2262 32.893 17.4493C32.8928 17.6035 32.8927 17.7578 32.8927 17.912C32.8924 18.3189 32.8917 18.7258 32.8909 19.1326C32.8902 19.5474 32.8899 19.9623 32.8895 20.3771C32.8888 21.1917 32.8876 22.0063 32.8861 22.8208C32.7563 22.8204 32.7563 22.8204 32.6239 22.82C32.5091 22.8198 32.3942 22.8196 32.2794 22.8194C32.1941 22.8191 32.1941 22.8191 32.1071 22.8188C31.6924 22.8182 31.2834 22.8341 30.8708 22.8779C30.8089 22.8843 30.7469 22.8907 30.6831 22.8974C27.9242 23.1993 25.3016 24.5513 23.5452 26.7282C22.3188 28.2933 21.4552 30.1767 21.2248 32.164C21.2171 32.2226 21.2094 32.2813 21.2015 32.3418C21.0797 33.4194 21.1657 34.4527 21.3397 35.5179C21.3746 35.7343 21.4053 35.9511 21.4355 36.1681C21.1697 36.0718 20.9528 35.9498 20.7201 35.7897C20.65 35.7417 20.5799 35.6937 20.5076 35.6443C20.4328 35.5926 20.3579 35.5409 20.2808 35.4876C20.2018 35.4334 20.1229 35.3793 20.0439 35.3252C19.8825 35.2146 19.7213 35.1039 19.5602 34.993C19.2879 34.8057 19.0148 34.6195 18.7416 34.4334C18.617 34.3486 18.4925 34.2637 18.3681 34.1787C18.06 33.9684 17.7516 33.7586 17.4425 33.5498C17.3252 33.4706 17.208 33.3913 17.0908 33.3119C16.9427 33.2118 16.7946 33.1118 16.6462 33.012C16.1466 32.6737 15.6636 32.3183 15.1834 31.9532C15.1095 31.8981 15.0356 31.8431 14.9595 31.7864C13.7737 30.6797 13.0465 29.1983 12.5842 27.668C12.5593 27.5882 12.5593 27.5882 12.5339 27.5067C12.3261 26.7725 12.3633 25.975 12.3654 25.2194C12.3655 25.1175 12.3654 25.0157 12.3654 24.9138C12.3654 24.64 12.3658 24.3662 12.3663 24.0923C12.3667 23.8052 12.3668 23.518 12.3669 23.2308C12.3671 22.6882 12.3676 22.1456 12.3684 21.603C12.3691 20.9848 12.3695 20.3666 12.3699 19.7484C12.3706 18.4777 12.3718 17.2071 12.3734 15.9365C12.5873 15.8237 12.8012 15.711 13.0151 15.5984C13.1054 15.5508 13.1054 15.5508 13.1975 15.5022C13.6173 15.2811 14.0385 15.0632 14.4633 14.852C14.5269 14.8202 14.5906 14.7885 14.6561 14.7558C15.1863 14.4924 15.7202 14.2372 16.2549 13.9832C16.7437 13.7504 17.2287 13.5104 17.7123 13.267C18.3253 12.9585 18.9419 12.659 19.5619 12.3648C20.136 12.0916 20.7047 11.8083 21.2718 11.5211C21.402 11.4554 21.5326 11.3904 21.6636 11.3263C21.7962 11.2601 21.9273 11.1907 22.0569 11.1187C22.4474 10.9137 22.6759 10.8177 23.0793 11.026Z" fill="white"/>
<path d="M38.7036 26.8514C40.0716 28.2687 40.887 30.0323 41.2458 31.9533C41.2581 32.0185 41.2704 32.0837 41.283 32.1509C41.4678 33.4049 41.3824 34.8148 41.035 36.0277C41.0203 36.081 41.0057 36.1343 40.9905 36.1892C40.298 38.6476 38.571 40.6635 36.3596 41.9042C34.952 42.6665 33.4662 42.9986 31.8719 42.9999C31.7961 43 31.7961 43 31.7187 43C30.9864 42.9989 30.2948 42.9733 29.5845 42.7716C29.5382 42.7588 29.492 42.746 29.4444 42.7328C27.7989 42.2713 26.3924 41.4939 25.1588 40.3129C25.1072 40.2657 25.0555 40.2185 25.0024 40.1699C23.2997 38.5605 22.3822 36.1791 22.2801 33.8653C22.2167 31.218 23.1671 28.7408 24.9897 26.8219C26.7042 25.0664 29.0356 24.0478 31.4864 23.9468C34.255 23.9275 36.7057 24.9443 38.7036 26.8514ZM29.8654 26.8251C29.7132 27.0124 29.7132 27.0124 29.6547 27.2466C29.732 27.5704 29.8625 27.7803 30.0762 28.0325C30.132 28.0986 30.1878 28.1647 30.2452 28.2328C30.4897 28.5119 30.739 28.7862 30.9916 29.058C31.1299 29.2135 31.1299 29.2135 31.2002 29.354C31.1106 29.3529 31.021 29.3518 30.9287 29.3507C30.5931 29.3469 30.2576 29.3445 29.922 29.3425C29.7774 29.3414 29.6327 29.34 29.4881 29.3381C28.3916 29.3061 28.3916 29.3061 27.3365 29.5648C27.2589 29.5955 27.1813 29.6262 27.1013 29.6578C25.9529 30.2345 25.175 31.0839 24.7579 32.31C24.7187 32.4484 24.6906 32.5841 24.667 32.726C24.6576 32.7827 24.6482 32.8394 24.6385 32.8978C24.4865 34.0829 24.8614 35.2051 25.5803 36.1402C26.3614 37.0636 27.3811 37.4883 28.5543 37.6456C28.8439 37.6431 28.9919 37.5893 29.2332 37.4327C29.3976 37.2306 29.3976 37.2306 29.3649 36.9804C29.2955 36.6977 29.2495 36.6243 29.0225 36.4492C28.8382 36.4025 28.6693 36.3692 28.4824 36.3438C27.6976 36.215 27.036 35.9463 26.5105 35.3181C26.4 35.1609 26.3046 35.002 26.2125 34.8335C26.1834 34.7833 26.1544 34.7331 26.1244 34.6814C25.8207 34.0656 25.8365 33.2876 25.9853 32.628C26.1068 32.2757 26.2669 31.9697 26.4935 31.6723C26.5522 31.5853 26.5522 31.5853 26.612 31.4966C27.1069 30.9616 27.7909 30.6288 28.5185 30.5961C28.9134 30.5875 29.3081 30.5939 29.703 30.601C29.8416 30.6024 29.9802 30.6037 30.1189 30.6048C30.4559 30.6079 30.7929 30.6127 31.1299 30.6185C31.0883 30.6646 31.0466 30.7107 31.0037 30.7581C30.1755 31.5802 30.1755 31.5802 29.6547 32.5855C29.7522 32.8725 29.823 32.9787 30.0762 33.1475C30.3461 33.1895 30.4641 33.1691 30.6953 33.0202C30.954 32.7816 31.1668 32.5011 31.386 32.2268C31.5411 32.0362 31.7017 31.8537 31.8675 31.6723C32.1982 31.3092 32.5084 30.9311 32.8159 30.5483C32.8672 30.4881 32.9184 30.428 32.9712 30.3661C33.1131 30.1752 33.1588 30.0307 33.1463 29.7915C33.057 29.5087 32.8485 29.3258 32.6447 29.1175C32.4682 28.9362 32.3107 28.7483 32.1529 28.5506C31.8788 28.2118 31.5911 27.8887 31.2954 27.5687C31.1461 27.4048 31.0039 27.237 30.8621 27.0666C30.5519 26.7136 30.3092 26.5936 29.8654 26.8251ZM34.5019 29.4945C34.3375 29.6966 34.3375 29.6966 34.3702 29.9468C34.4395 30.229 34.4861 30.3032 34.7126 30.478C34.8923 30.5213 35.0575 30.5515 35.2395 30.5746C35.963 30.6889 36.6796 30.9644 37.1713 31.5318C37.5899 32.1209 37.844 32.6892 37.8343 33.4153C37.8339 33.4705 37.8334 33.5257 37.833 33.5825C37.8135 34.3123 37.5691 34.9022 37.0703 35.4394C36.3773 36.0817 35.6861 36.3341 34.7455 36.3224C34.6532 36.3221 34.6532 36.3221 34.559 36.3218C34.3643 36.321 34.1697 36.3193 33.975 36.3175C33.8422 36.3168 33.7094 36.3161 33.5766 36.3155C33.2528 36.314 32.929 36.3116 32.6052 36.3087C32.6443 36.2636 32.6443 36.2636 32.6842 36.2177C32.8039 36.0799 32.9235 35.9421 33.0431 35.8043C33.0842 35.7571 33.1252 35.7098 33.1675 35.6612C33.7736 35.0433 33.7736 35.0433 34.0804 34.2715C33.9665 34.0266 33.8862 33.9313 33.6589 33.7797C33.4016 33.7462 33.2815 33.7488 33.0667 33.8994C32.8845 34.0622 32.7386 34.2289 32.5876 34.4207C32.3778 34.6826 32.1641 34.937 31.9378 35.1847C31.6574 35.4926 31.3922 35.8105 31.131 36.1347C31.0167 36.2752 30.8992 36.4107 30.7787 36.5458C30.6316 36.7388 30.5679 36.8392 30.5679 37.0814C30.7237 37.3834 30.9381 37.6309 31.1607 37.8849C31.2365 37.9723 31.3123 38.0598 31.3881 38.1472C31.4269 38.1917 31.4656 38.2362 31.5055 38.2821C31.6535 38.4529 31.8 38.6251 31.9464 38.7973C32.0849 38.9597 32.2242 39.1213 32.3638 39.2827C32.4308 39.3604 32.4976 39.4384 32.5642 39.5166C32.6575 39.6261 32.7519 39.7347 32.8466 39.8431C32.9002 39.9051 32.9537 39.9671 33.0088 40.0311C33.1856 40.1889 33.2846 40.2253 33.5184 40.2426C33.7086 40.2181 33.7086 40.2181 33.8696 40.1021C34.0235 39.8817 34.0235 39.8817 34.0804 39.6104C33.9572 39.236 33.7779 38.986 33.5008 38.7059C33.1761 38.3692 32.8878 38.0163 32.6052 37.6434C32.6901 37.6424 32.7751 37.6414 32.8626 37.6403C33.1816 37.6362 33.5005 37.6308 33.8194 37.625C33.9568 37.6227 34.0941 37.6207 34.2314 37.6191C35.6689 37.6018 36.8366 37.4087 37.8952 36.3641C38.7455 35.4843 39.0977 34.507 39.0937 33.2921C39.0837 32.7608 39.0022 32.3023 38.7871 31.8128C38.7581 31.7468 38.7291 31.6809 38.6992 31.613C38.19 30.583 37.336 29.9105 36.2809 29.4954C35.6978 29.3179 35.0413 29.1444 34.5019 29.4945Z" fill="white"/>
<path d="M23.5329 7.211C23.6205 7.25734 23.6205 7.25734 23.7099 7.30462C23.8506 7.37539 23.9914 7.44609 24.1322 7.51674C24.2139 7.55836 24.2956 7.59998 24.3798 7.64286C24.72 7.81523 25.063 7.98172 25.406 8.14843C25.5407 8.21393 25.6754 8.27943 25.81 8.34493C25.8783 8.37813 25.9466 8.41133 26.0169 8.44553C27.0625 8.95459 28.1051 9.46921 29.144 9.99166C29.6791 10.2602 30.2179 10.5197 30.759 10.7758C31.458 11.1085 32.1491 11.4569 32.8407 11.8047C33.5738 12.1732 34.3082 12.5368 35.0541 12.879C35.6135 13.1401 36.1743 13.405 36.4688 13.9695C36.5424 14.1987 36.5477 14.4097 36.5475 14.6496C36.5476 14.7717 36.5476 14.7717 36.5478 14.8962C36.5475 14.9852 36.5473 15.0742 36.547 15.1658C36.547 15.2607 36.547 15.3556 36.5471 15.4504C36.5471 15.7077 36.5467 15.965 36.5462 16.2224C36.5457 16.4913 36.5457 16.7603 36.5456 17.0293C36.5454 17.5386 36.5448 18.0479 36.5441 18.5571C36.5433 19.1369 36.5429 19.7168 36.5426 20.2966C36.5419 21.4893 36.5406 22.6819 36.5391 23.8746C36.4685 23.8475 36.4685 23.8475 36.3966 23.8199C36.1793 23.7368 35.9618 23.6542 35.7444 23.5716C35.6704 23.5432 35.5965 23.5149 35.5203 23.4856C35.0461 23.3061 34.5722 23.1549 34.0803 23.0316C34.0803 22.9925 34.0803 22.9533 34.0802 22.913C34.0792 21.9602 34.0762 21.0075 34.0711 20.0547C34.0687 19.5939 34.0669 19.1332 34.0666 18.6724C34.0663 18.2279 34.0643 17.7833 34.0611 17.3388C34.0602 17.1691 34.0599 16.9994 34.0602 16.8297C34.0606 16.5922 34.0588 16.3547 34.0564 16.1172C34.0573 16.0117 34.0573 16.0117 34.0583 15.9041C34.0529 15.5784 34.049 15.425 33.8454 15.1606C33.6343 15.0051 33.425 14.8859 33.1896 14.7702C33.1446 14.7479 33.0997 14.7255 33.0533 14.7025C32.9072 14.6302 32.7606 14.5589 32.6139 14.4876C32.5113 14.437 32.4087 14.3864 32.3061 14.3358C31.6811 14.028 31.0533 13.7262 30.4236 13.4282C29.7587 13.1122 29.1017 12.7809 28.4439 12.4505C27.7672 12.1107 27.0885 11.7767 26.4036 11.4535C26.0079 11.2659 25.6155 11.0724 25.2246 10.875C25.175 10.85 25.1254 10.8249 25.0742 10.7992C24.8293 10.6756 24.5846 10.5515 24.3403 10.4267C24.1183 10.3138 23.8951 10.2038 23.6704 10.0965C23.5455 10.0367 23.4213 9.97548 23.2972 9.91419C22.8876 9.72482 22.8876 9.72482 22.447 9.71066C22.2623 9.78106 22.0989 9.86728 21.9273 9.9653C21.7903 10.0323 21.6532 10.099 21.5159 10.1653C21.3675 10.2404 21.2193 10.3157 21.0711 10.3912C20.4756 10.692 19.8783 10.9878 19.2754 11.2737C18.6864 11.5532 18.1024 11.8412 17.5202 12.1344C17.0629 12.364 16.6027 12.5865 16.1405 12.806C15.5132 13.1039 14.8914 13.4115 14.2711 13.7239C13.7067 14.0073 13.1381 14.2812 12.5665 14.5497C12.3843 14.6358 12.203 14.7236 12.0222 14.8125C11.9622 14.8415 11.9023 14.8704 11.8405 14.9003C11.7837 14.9294 11.727 14.9584 11.6685 14.9884C11.6181 15.0137 11.5678 15.039 11.5159 15.0651C11.3464 15.1978 11.3152 15.3105 11.2495 15.515C11.2285 15.7297 11.2285 15.7297 11.2316 15.9635C11.231 16.0993 11.231 16.0993 11.2304 16.238C11.2307 16.3379 11.231 16.4378 11.2313 16.5376C11.2311 16.6433 11.2308 16.7489 11.2305 16.8545C11.2299 17.1412 11.2301 17.4279 11.2306 17.7146C11.2309 18.0155 11.2306 18.3165 11.2304 18.6174C11.2301 19.1235 11.2305 19.6296 11.2311 20.1357C11.2319 20.7185 11.2317 21.3012 11.2309 21.884C11.2302 22.3858 11.2302 22.8875 11.2305 23.3893C11.2307 23.6883 11.2308 23.9873 11.2303 24.2863C11.2299 24.5683 11.2302 24.8503 11.231 25.1322C11.2312 25.2349 11.2311 25.3375 11.2308 25.4401C11.2234 28.1064 12.2383 30.5917 14.0945 32.5108C14.5237 32.9403 15.0046 33.2701 15.5111 33.6013C15.8217 33.806 16.1277 34.0174 16.4347 34.2275C16.5676 34.3181 16.7005 34.4086 16.8334 34.4992C17.1852 34.7389 17.5367 34.9792 17.888 35.2198C18.3633 35.5452 18.839 35.87 19.3149 36.1945C19.3788 36.2381 19.4427 36.2817 19.5086 36.3266C19.8453 36.5563 20.1824 36.7855 20.5201 37.0139C20.5889 37.0605 20.6576 37.1071 20.7284 37.1551C20.8588 37.2434 20.9892 37.3316 21.1198 37.4195C22.3013 38.2212 22.3013 38.2212 22.52 38.7015C22.6985 39.0617 22.8946 39.3856 23.1303 39.7113C23.159 39.7511 23.1876 39.7909 23.2171 39.8319C23.3612 40.029 23.5105 40.218 23.6698 40.4031C23.824 40.5938 23.824 40.5938 23.824 40.7343C23.6777 40.8378 23.6777 40.8378 23.4859 40.9494C23.4232 40.9865 23.3604 41.0235 23.2958 41.0617C22.9922 41.2256 22.7615 41.2489 22.419 41.2261C22.0283 41.0824 21.7033 40.8808 21.3609 40.6465C21.3066 40.6098 21.2523 40.5731 21.1963 40.5353C21.0182 40.4148 20.8405 40.2936 20.6628 40.1723C20.5389 40.0881 20.4149 40.0038 20.291 39.9196C19.9654 39.6981 19.6402 39.476 19.315 39.2537C18.9917 39.0328 18.6682 38.8123 18.3446 38.5917C18.2158 38.5039 18.087 38.4161 17.9582 38.3283C17.8945 38.2848 17.8307 38.2414 17.765 38.1966C17.5719 38.0649 17.3787 37.9331 17.1855 37.8014C17.0898 37.7362 17.0898 37.7362 16.9922 37.6696C16.8637 37.5821 16.7353 37.4945 16.6069 37.4069C16.213 37.1384 15.8192 36.8699 15.4252 36.6016C15.2308 36.4691 15.0366 36.3365 14.8423 36.2038C14.6157 36.0491 14.3887 35.895 14.1612 35.7417C11.4071 33.8799 9.54627 31.1594 8.88479 27.8819C8.7629 27.2329 8.75109 26.5971 8.75438 25.9387C8.754 25.8077 8.7535 25.6767 8.75289 25.5457C8.75163 25.1948 8.7521 24.8439 8.753 24.493C8.75371 24.124 8.75305 23.755 8.75261 23.386C8.7521 22.7678 8.75276 22.1496 8.75411 21.5314C8.75564 20.8172 8.75514 20.1031 8.75359 19.3889C8.75232 18.7736 8.75214 18.1582 8.75288 17.5429C8.75331 17.1762 8.75337 16.8096 8.75244 16.443C8.75163 16.0992 8.75219 15.7554 8.75382 15.4116C8.75419 15.2856 8.75408 15.1596 8.75346 15.0336C8.75269 14.8615 8.75366 14.6895 8.75506 14.5174C8.75443 14.4677 8.75381 14.4179 8.75316 14.3667C8.75868 14.0164 8.85481 13.8193 9.07174 13.548C9.44535 13.2299 9.90091 13.0146 10.3412 12.8041C10.4014 12.7748 10.4616 12.7455 10.5237 12.7153C10.7215 12.6193 10.9196 12.5238 11.1177 12.4284C11.2586 12.3601 11.3994 12.2918 11.5402 12.2234C11.8342 12.0806 12.1284 11.9381 12.4226 11.7956C13.053 11.4902 13.682 11.1819 14.3111 10.8736C14.6552 10.705 14.9994 10.5366 15.3436 10.3681C15.4118 10.3348 15.4799 10.3015 15.5501 10.2671C16.6806 9.71388 17.8113 9.16087 18.9422 8.60838C19.2044 8.48026 19.4666 8.35208 19.7288 8.22386C20.0523 8.06564 20.3759 7.90756 20.6995 7.74957C20.8204 7.69052 20.9413 7.63142 21.0621 7.57228C21.2277 7.49126 21.3933 7.41041 21.559 7.32959C21.6078 7.30567 21.6566 7.28175 21.7069 7.2571C22.3324 6.95256 22.8985 6.89566 23.5329 7.211Z" fill="white"/>
</svg>
