<svg width="50" height="50" viewBox="0 0 50 50" fill="none" xmlns="http://www.w3.org/2000/svg">
<path d="M38.8477 12.7289C38.8266 12.9398 38.8141 13.1805 38.8086 13.4414L35.8133 14.8719C35.3938 14.8031 33.3133 14.9242 30.2102 13.393C29.4234 13.0047 28.6547 12.7984 27.9164 12.7984C27.2483 12.7991 26.5898 12.9584 25.9953 13.2633C25.2117 13.0937 24.0828 12.6594 23.4227 12.6609C21.9289 12.6687 18.5328 13.8852 17.5922 13.9891C16.6719 14.0898 15.7242 14.343 14.7703 14.7461C13.0367 14.2414 10.8633 13.4172 9.69922 12.9617L1.5625 7.03125V26.1016L7.54219 28.9469C7.62891 28.8453 7.72813 28.6891 7.83594 28.4953L8.02109 28.5812C8.11172 28.8156 8.21172 29.049 8.32109 29.2812C7.66484 30.3859 7.58672 31.6305 8.11094 32.7125C8.56016 33.6383 9.39687 34.2883 10.3289 34.4703C10.3797 35.0469 10.5734 35.6047 10.9 36.0883C11.4859 36.9531 12.4172 37.4695 13.393 37.4695C13.4815 37.4695 13.5695 37.4648 13.657 37.4555C13.7961 37.8313 14 38.1812 14.2648 38.4844C14.8539 39.1617 15.6789 39.55 16.5273 39.55C16.5898 39.55 16.6516 39.5479 16.7125 39.5438C16.8203 39.9531 17.0039 40.3406 17.2602 40.6859C17.85 41.4828 18.7602 41.957 19.6961 41.957C20.2773 41.957 20.8328 41.7789 21.3227 41.4453C22.2695 42.0531 23.093 42.4805 23.8234 42.743C24.1898 42.8922 24.5711 42.9688 24.9602 42.9688C25.8805 42.9688 26.7734 42.5391 27.4109 41.7875C27.6477 41.5078 27.8398 41.1953 27.9805 40.8609C28.2559 40.9441 28.542 40.9867 28.8297 40.9875C29.8078 40.9875 30.7352 40.5086 31.3766 39.6711C31.6815 39.2744 31.9022 38.8195 32.025 38.3344C32.0922 38.3391 32.1589 38.3414 32.225 38.3414C33.3555 38.3414 34.4375 37.6781 35.0461 36.6102C35.365 36.0546 35.5343 35.4258 35.5375 34.7852C36.6547 34.6188 37.6383 33.8242 38.1172 32.6656C38.5891 31.5242 38.4609 30.2648 37.8023 29.2148L40.8453 27.5C40.9234 27.7672 41 28.0133 41.0742 28.2133L48.4375 24.2953V8.31406L38.8477 12.7289ZM38.8469 15.1016C38.8953 15.9469 38.9836 16.9023 39.0977 17.9C38.4727 16.85 37.6836 16.3711 36.7039 16.1328L38.8469 15.1016ZM34.7625 33.6609C33.0844 33.0836 29.5914 28.9773 29.5914 28.9773H29.6602C30.0156 28.9523 30.7836 28.5781 31.6453 28.757C30.2922 27.5945 28.8039 28.5781 27.7906 27.9758C28.0258 28.7297 29.1563 28.9672 29.4461 28.9766L32.793 32.8687C34.3086 34.6305 33.2531 36.8102 31.7336 37.157C30.7141 36.6609 27.8352 33.2367 27.8352 33.2367C27.9336 33.2187 28.5172 33.0359 29.1117 33.1141C27.7391 32.0875 26.1828 32.9781 25.2594 32.3336C25.7828 33.6266 27.507 33.2953 27.6875 33.2641L29.4781 35.55C30.9109 37.3781 29.7852 39.4898 28.2633 39.7758C26.9141 39.3016 26.0383 37.6141 26.0383 37.6141C26.1742 37.5922 26.6289 37.3898 27.2758 37.4836C26.125 36.475 24.7852 37.3898 23.9797 36.8156C24.4773 37.9 25.718 37.6531 25.7875 37.6453C27.0281 39.5992 25.7414 41.6367 24.2039 41.6977L24.2008 41.6984C23.2773 41.5383 22.3102 40.8 21.218 40.0422C21.593 39.6266 21.9242 38.8961 21.9242 38.8961C23.0211 36.9102 21.5977 35.1539 20.1281 35.3047C21.3203 35.6305 22.2141 37.1523 21.2836 38.8422L20.875 39.5297C20.4312 40.3383 19.7383 40.8266 19.2289 40.7664C18.4445 40.6711 17.3391 39.5258 17.8039 37.9102C17.9836 37.7461 19.7164 35.0953 19.7164 35.0953C20.9078 33.1766 19.5703 31.3398 18.0969 31.4023C19.2703 31.7984 20.093 33.3719 19.0812 35.0047L17.6727 37.2008C17.1922 37.9773 16.5703 38.4172 15.9773 38.3359C15.057 38.2109 14.4117 37.0883 14.5594 35.9297C14.5516 35.9367 15.5734 34.7937 15.5734 34.7937C16.9313 33.0195 15.7688 31.0383 14.2977 30.9344C15.4281 31.4609 16.1016 33.1203 14.9477 34.6305L14.4492 35.2414C13.9023 35.9586 13.2438 36.3234 12.6672 36.1797C11.6609 35.9273 11.1375 34.0445 11.6133 33.5312C11.9875 33.1273 13.0383 31.8484 13.0383 31.8484C14.3953 30.0734 13.2344 28.093 11.7617 27.9875C12.893 28.5156 13.5664 30.175 12.4125 31.6859L11.9141 32.2953C11.3641 33.0188 10.7031 33.382 10.1227 33.2344C8.91328 32.9281 8.30937 31.0609 9.46641 29.5453C9.46641 29.5453 9.07344 28.2969 8.89609 27.7633L8.31328 27.493C9.67969 24.3094 11.7438 17.2828 11.8391 14.9484C12.8453 15.307 15.5016 16.0711 15.7836 16.0727C18.643 15.1742 21.6383 15.275 23.0055 14.7469C23.4484 14.5781 24.3297 14.5672 25.2641 15.1016C24.6805 15.6133 24.1289 16.2227 23.5562 16.7906C22.1875 18.1492 17.0984 20.268 18.0797 22.4961C18.9266 24.4187 21.3117 26.3859 25.3125 23.2977L27.5625 22.9883L31.0617 24.7148L35.5461 29.3203C37.1453 30.9594 36.2398 33.1844 34.7625 33.6609ZM35.8875 28.5867C35.3734 27.6258 33.7711 26.05 32.2586 24.7617L32.2492 24.7523C32.9469 24.7805 33.6789 23.657 34.625 23.5703C33.9641 23.0656 32.8687 23.6484 32.5273 23.7406C30.6453 24.2469 27.7203 21.8789 27.7203 21.8789L24.9219 22.282C24.9219 22.282 21.5938 26.3438 18.7898 22.9977C17.2672 21.1805 22.7852 18.807 24.1445 17.4563C25.8859 15.7258 27.4375 13.6086 30.3023 15.0508C32.682 16.2508 33.6195 16.1766 36.8117 16.732C37.7633 16.8984 38.4227 17.3344 39.1297 18.1852C39.4625 20.9852 40.0008 24.0906 40.5172 26.2516C40.2508 26.4758 37.9672 28.0117 35.8875 28.5867Z" fill="white"/>
</svg>
