<svg width="40" height="40" viewBox="0 0 40 40" fill="none" xmlns="http://www.w3.org/2000/svg">
<g clip-path="url(#clip0_2397_1171)">
<path d="M2.06982 -0.0303608C2.13461 -0.0307816 2.1994 -0.0312023 2.26615 -0.0316358C2.48218 -0.0327492 2.69816 -0.032197 2.91419 -0.0316399C3.0695 -0.0320856 3.22482 -0.0326298 3.38013 -0.0332648C3.80126 -0.0346656 4.22238 -0.0345744 4.64352 -0.0341286C4.99532 -0.0338871 5.34711 -0.0343631 5.69891 -0.0348348C6.52893 -0.0359319 7.35894 -0.0358102 8.18896 -0.0349206C9.0448 -0.0340235 9.90061 -0.0351234 10.7564 -0.0372172C11.4917 -0.0389486 12.227 -0.0394667 12.9623 -0.0390081C13.4012 -0.0387448 13.8402 -0.0389335 14.2791 -0.0402777C14.6919 -0.0414866 15.1046 -0.0411767 15.5174 -0.039707C15.6687 -0.0394191 15.82 -0.0396615 15.9713 -0.0404793C16.1782 -0.0415123 16.3851 -0.0406084 16.592 -0.03923C16.6813 -0.0403556 16.6813 -0.0403556 16.7723 -0.0415039C17.2926 -0.0344004 17.6938 0.137854 18.0828 0.48302C18.1322 0.541129 18.1815 0.599237 18.2324 0.659106C18.2829 0.717014 18.3335 0.774921 18.3856 0.834583C18.6685 1.22847 18.6926 1.58093 18.6816 2.05559C18.6809 2.11345 18.6802 2.1713 18.6794 2.23091C18.6776 2.37268 18.6748 2.51443 18.6718 2.65618C18.8011 2.62833 18.8011 2.62833 18.9329 2.59993C22.0695 1.94797 25.5865 1.6116 28.3988 3.4057C29.6161 4.20465 30.6973 5.16799 31.7333 6.18645C31.8021 6.25376 31.8021 6.25376 31.8722 6.32242C34.5058 8.91149 35.9222 11.4027 35.9598 15.1414C35.9618 17.2408 35.7346 19.3377 35.3906 21.4062C34.9265 21.4062 34.4624 21.4062 33.9843 21.4062C33.9843 18.3124 33.9843 15.2187 33.9843 12.0312C31.3288 12.0312 28.6734 12.0312 25.9374 12.0312C25.9374 9.40149 25.9374 6.7718 25.9374 4.06243C23.5398 4.06243 21.1421 4.06243 18.6718 4.06243C18.6734 4.57981 18.6751 5.0972 18.6768 5.63027C18.6819 7.33783 18.6854 9.04539 18.688 10.753C18.6896 11.7885 18.6918 12.824 18.6954 13.8595C18.6985 14.762 18.7005 15.6646 18.7012 16.5671C18.7016 17.045 18.7026 17.5229 18.7048 18.0008C18.707 18.4507 18.7076 18.9006 18.7072 19.3505C18.7072 19.5155 18.7079 19.6805 18.7091 19.8455C18.7106 20.0711 18.7102 20.2967 18.7094 20.5223C18.7103 20.5873 18.7112 20.6524 18.7121 20.7194C18.7063 21.2907 18.5128 21.7683 18.1005 22.1728C17.6195 22.6249 17.0634 22.7443 16.4157 22.7437C16.324 22.7438 16.2323 22.7439 16.1378 22.744C16.0374 22.7437 15.9371 22.7435 15.8337 22.7432C15.725 22.7431 15.6162 22.7432 15.5074 22.7432C15.2166 22.7432 14.9257 22.7428 14.6349 22.7422C14.3618 22.7418 14.0887 22.7418 13.8156 22.7417C13.0173 22.7413 12.2191 22.7402 11.4208 22.7392C9.63709 22.7376 7.85335 22.736 6.01556 22.7343C6.01556 27.9679 6.01556 33.2015 6.01556 38.5937C15.2452 38.5937 24.4749 38.5937 33.9843 38.5937C33.9843 35.964 33.9843 33.3343 33.9843 30.6249C34.4484 30.6249 34.9124 30.6249 35.3906 30.6249C35.3906 33.7187 35.3906 36.8124 35.3906 39.9999C25.2327 39.9999 15.0749 39.9999 4.60931 39.9999C4.60931 34.3023 4.60931 28.6046 4.60931 22.7343C3.68118 22.7343 2.75306 22.7343 1.79681 22.7343C0.972012 22.4869 0.57107 22.3436 0.151908 21.6302C0.0271924 21.3838 -0.009921 21.1846 -0.0105554 20.9129C-0.0109036 20.8437 -0.011252 20.7745 -0.0116108 20.7032C-0.0115964 20.6271 -0.011582 20.551 -0.0115671 20.4726C-0.0118544 20.3918 -0.0121416 20.311 -0.0124375 20.2278C-0.0133013 19.9557 -0.0136004 19.6837 -0.0138977 19.4116C-0.014387 19.2171 -0.0149063 19.0226 -0.0154534 18.8281C-0.0169566 18.2434 -0.0177839 17.6587 -0.018479 17.074C-0.0188215 16.7986 -0.0192407 16.5232 -0.01965 16.2478C-0.0209791 15.3322 -0.0221113 14.4167 -0.0226772 13.5011C-0.0228264 13.2636 -0.0229765 13.026 -0.0231293 12.7884C-0.023167 12.7294 -0.0232049 12.6703 -0.0232438 12.6095C-0.0238922 11.6531 -0.0258715 10.6967 -0.028409 9.74026C-0.0309934 8.7582 -0.0323999 7.77614 -0.0326495 6.79407C-0.0328185 6.24274 -0.0335011 5.69141 -0.035498 5.14008C-0.0373723 4.62138 -0.0376485 4.10269 -0.0368447 3.58399C-0.036806 3.39364 -0.0373018 3.20329 -0.0383725 3.01294C-0.0397531 2.75297 -0.0392034 2.49308 -0.0381747 2.2331C-0.0390316 2.15787 -0.0398885 2.08264 -0.0407715 2.00513C-0.0354289 1.44549 0.105451 1.05377 0.443351 0.608752C0.485548 0.567361 0.527744 0.52597 0.57122 0.483325C0.612812 0.440927 0.654405 0.398529 0.697257 0.354846C1.13617 0.0283502 1.53961 -0.0345317 2.06982 -0.0303608ZM1.52655 1.51709C1.33956 1.83025 1.36311 2.12543 1.3665 2.48377C1.36601 2.5623 1.36552 2.64083 1.36502 2.72173C1.36377 2.98565 1.36476 3.2495 1.36574 3.51342C1.36532 3.7023 1.36477 3.89118 1.36409 4.08007C1.36281 4.54031 1.363 5.00053 1.3639 5.46077C1.36461 5.83478 1.3647 6.20878 1.36436 6.58278C1.36432 6.63599 1.36427 6.68919 1.36422 6.74401C1.36412 6.8521 1.36402 6.96018 1.36391 7.06826C1.36302 8.08205 1.36405 9.09582 1.36573 10.1096C1.36712 10.9797 1.36688 11.8498 1.36544 12.7199C1.36377 13.73 1.36311 14.7401 1.36407 15.7503C1.36417 15.8579 1.36427 15.9656 1.36436 16.0733C1.36441 16.1263 1.36446 16.1793 1.36451 16.2339C1.36478 16.6075 1.36432 16.9811 1.36359 17.3547C1.36262 17.8574 1.36331 18.3602 1.36512 18.8629C1.36553 19.0477 1.36541 19.2325 1.36472 19.4173C1.36387 19.669 1.36494 19.9206 1.3665 20.1723C1.3658 20.246 1.3651 20.3196 1.36439 20.3955C1.36622 20.7933 1.36622 20.7933 1.55026 21.1366C1.86946 21.3514 2.16906 21.3395 2.53917 21.339C2.59939 21.3393 2.65961 21.3395 2.72166 21.3397C2.92407 21.3404 3.12649 21.3405 3.3289 21.3406C3.47378 21.341 3.61865 21.3414 3.76352 21.3418C4.15754 21.3428 4.55155 21.3433 4.94557 21.3437C5.19161 21.3439 5.43766 21.3442 5.68371 21.3446C6.4532 21.3457 7.22269 21.3464 7.99219 21.3467C8.88109 21.3471 9.76999 21.3484 10.6589 21.3507C11.3456 21.3524 12.0323 21.3532 12.719 21.3533C13.1294 21.3534 13.5397 21.3538 13.95 21.3552C14.3359 21.3565 14.7218 21.3567 15.1077 21.356C15.2494 21.3559 15.3911 21.3563 15.5328 21.357C15.7261 21.358 15.9194 21.3576 16.1127 21.3568C16.197 21.3577 16.197 21.3577 16.2829 21.3587C16.7164 21.3544 16.9624 21.2406 17.2656 20.9374C17.2893 20.79 17.2893 20.79 17.2857 20.6189C17.2864 20.5183 17.2864 20.5183 17.2872 20.4157C17.2869 20.3416 17.2867 20.2675 17.2864 20.1911C17.287 20.0735 17.287 20.0735 17.2875 19.9536C17.2885 19.6892 17.2884 19.4248 17.2883 19.1604C17.2887 18.9716 17.2893 18.7827 17.2898 18.5938C17.2911 18.1331 17.2916 17.6723 17.2917 17.2115C17.2917 16.8371 17.2921 16.4626 17.2925 16.0881C17.2939 15.0271 17.2946 13.9661 17.2945 12.9051C17.2945 12.8193 17.2945 12.8193 17.2945 12.7317C17.2945 12.6457 17.2945 12.6457 17.2945 12.558C17.2944 11.6292 17.2959 10.7003 17.2981 9.77151C17.3004 8.8184 17.3014 7.86531 17.3013 6.9122C17.3013 6.37686 17.3017 5.84152 17.3034 5.30618C17.3049 4.8028 17.3049 4.29944 17.3038 3.79607C17.3036 3.61101 17.304 3.42594 17.3049 3.24088C17.3061 2.98884 17.3054 2.73687 17.3042 2.48482C17.305 2.41106 17.3058 2.3373 17.3066 2.2613C17.3035 1.96457 17.2991 1.77487 17.1453 1.51702C16.8788 1.36336 16.6385 1.36291 16.3392 1.36649C16.277 1.36601 16.2147 1.36552 16.1506 1.36502C15.9417 1.36377 15.7329 1.36476 15.5241 1.36574C15.3744 1.36532 15.2248 1.36476 15.0752 1.36408C14.6686 1.36266 14.262 1.36321 13.8554 1.3642C13.4302 1.36499 13.0051 1.36426 12.5799 1.36377C11.8659 1.3632 11.1519 1.36395 10.4378 1.36544C9.61185 1.36714 8.7859 1.36659 7.95993 1.36487C7.25126 1.36345 6.5426 1.36325 5.83392 1.36406C5.41045 1.36455 4.98699 1.36462 4.56351 1.36358C4.16542 1.36268 3.76736 1.36331 3.36927 1.36511C3.22301 1.36553 3.07675 1.36541 2.93049 1.36472C2.73113 1.36387 2.53187 1.36493 2.33251 1.36649C2.27436 1.3658 2.21621 1.3651 2.15629 1.36438C1.91037 1.36813 1.74076 1.39343 1.52655 1.51709ZM27.3437 5.07805C27.3437 6.90852 27.3437 8.73899 27.3437 10.6249C29.1742 10.6249 31.0046 10.6249 32.8906 10.6249C32.5725 10.2539 32.2557 9.90065 31.9108 9.55698C31.8621 9.50814 31.8134 9.45929 31.7632 9.40896C31.604 9.24941 31.4445 9.09014 31.285 8.9309C31.1738 8.81959 31.0625 8.70827 30.9513 8.59694C30.7192 8.36469 30.4869 8.13258 30.2545 7.90057C29.956 7.60247 29.6578 7.30403 29.3597 7.00547C29.1306 6.77606 28.9013 6.54684 28.6719 6.31767C28.5618 6.20761 28.4517 6.09749 28.3417 5.98732C28.1887 5.83414 28.0355 5.68122 27.8822 5.52836C27.8365 5.48246 27.7908 5.43657 27.7436 5.38928C27.5718 5.17617 27.5718 5.17617 27.3437 5.07805Z" fill="white"/>
<path d="M38.9405 20.8154C39.4542 21.1313 39.8495 21.6043 40.0001 22.1875C40.029 22.428 40.029 22.428 40.0342 22.6758C40.0374 22.7567 40.0405 22.8377 40.0437 22.9211C39.8975 23.8655 39.1802 24.4775 38.5402 25.1253C38.4298 25.2383 38.3195 25.3515 38.2092 25.4647C37.8477 25.8352 37.4842 26.2037 37.1204 26.572C36.9942 26.6999 36.868 26.8279 36.7418 26.956C36.2152 27.4899 35.6881 28.0234 35.1595 28.5554C34.4086 29.3113 33.6608 30.0699 32.9172 30.8329C32.3909 31.3725 31.8611 31.9087 31.3289 32.4425C31.013 32.7595 30.6985 33.0778 30.3877 33.3998C28.7088 35.1361 27.0931 36.2752 24.8265 37.1344C24.7045 37.181 24.5835 37.23 24.4626 37.2793C24.1816 37.3886 23.9728 37.3724 23.6719 37.3437C23.4217 37.1833 23.371 37.0748 23.295 36.7883C23.2743 36.3294 23.4607 36.0162 23.6603 35.6115C23.8456 35.231 24.0131 34.8532 24.1549 34.4543C24.8303 32.6605 26.099 31.4742 27.4462 30.1565C27.7718 29.8369 28.0941 29.5141 28.4168 29.1917C28.9575 28.6524 29.5004 28.1153 30.0448 27.5797C30.7427 26.8932 31.4368 26.2031 32.1299 25.5118C32.7287 24.9145 33.3292 24.3189 33.9299 23.7235C34.1219 23.5332 34.3136 23.3427 34.5052 23.1521C34.8062 22.853 35.1082 22.555 35.411 22.2578C35.5216 22.149 35.6319 22.0397 35.7419 21.9302C35.8925 21.7803 36.0442 21.6317 36.1962 21.4834C36.2391 21.4402 36.2819 21.397 36.3261 21.3525C37.0089 20.6943 38.0398 20.4292 38.9405 20.8154ZM37.5001 22.2656C37.3604 22.4164 37.2359 22.5718 37.1094 22.7344C37.3672 22.9922 37.6251 23.25 37.8907 23.5156C38.2334 23.3442 38.3774 23.2033 38.5938 22.8906C38.6524 22.6495 38.6524 22.6495 38.5938 22.4219C38.4425 22.2146 38.3299 22.128 38.0909 22.0361C37.819 22.0295 37.7146 22.0994 37.5001 22.2656ZM36.0157 23.75C35.9126 23.8789 35.8094 24.0078 35.7032 24.1406C35.961 24.3984 36.2188 24.6562 36.4844 24.9219C36.8066 24.7931 36.8066 24.7931 36.9532 24.5312C36.8267 24.4006 36.6996 24.2705 36.5723 24.1406C36.5016 24.0681 36.4309 23.9956 36.3581 23.9209C36.1949 23.7324 36.1949 23.7324 36.0157 23.75ZM34.2751 25.4661C34.2049 25.5348 34.1347 25.6035 34.0623 25.6743C33.9843 25.7515 33.9063 25.8288 33.8283 25.906C33.7463 25.9866 33.6643 26.0672 33.5823 26.1478C33.312 26.4136 33.0425 26.6802 32.7732 26.947C32.7043 27.0152 32.7043 27.0152 32.634 27.0848C32.1998 27.5147 31.7659 27.9448 31.3327 28.3756C30.7805 28.9248 30.227 29.4726 29.6713 30.0183C29.2799 30.4029 28.8902 30.7892 28.5017 31.1768C28.2702 31.4076 28.0381 31.6377 27.8041 31.866C26.7864 32.86 25.9125 33.7665 25.4688 35.1562C26.5019 34.8463 27.2364 34.3966 27.9904 33.6254C28.0736 33.5421 28.1568 33.4589 28.2402 33.3758C28.4639 33.1522 28.6862 32.9271 28.9083 32.7018C29.1414 32.4657 29.3759 32.231 29.6102 31.9961C30.0527 31.5522 30.494 31.107 30.9349 30.6614C31.4373 30.1538 31.941 29.6475 32.4449 29.1413C33.4804 28.1009 34.5142 27.0588 35.5469 26.0156C35.4725 25.9284 35.398 25.8412 35.3235 25.7541C35.2821 25.7055 35.2406 25.657 35.1979 25.607C35.0604 25.4482 34.9225 25.2963 34.7657 25.1562C34.5248 25.1562 34.4442 25.2995 34.2751 25.4661Z" fill="white"/>
<path d="M19.3524 25.2327C20.8175 26.3746 21.7829 27.9925 22.0313 29.8437C22.1669 31.8996 21.6682 33.6677 20.3125 35.2343C20.2678 35.2869 20.2231 35.3394 20.177 35.3936C19.1837 36.4705 17.5786 37.2588 16.1244 37.3575C14.0599 37.4029 12.2898 37.0369 10.7349 35.5755C10.6729 35.5145 10.6108 35.4534 10.5469 35.3906C10.4865 35.3311 10.4261 35.2717 10.3638 35.2105C9.1353 33.9273 8.58821 32.2234 8.59379 30.4687C8.65182 28.8587 9.23469 27.3773 10.3125 26.1718C10.3702 26.1067 10.428 26.0417 10.4874 25.9747C11.2191 25.1963 12.1134 24.6382 13.125 24.2968C13.2143 24.2662 13.3035 24.2356 13.3954 24.204C15.4095 23.606 17.6627 23.9823 19.3524 25.2327ZM11.2262 27.3022C10.4181 28.2415 10.0308 29.4216 10.044 30.6493C10.0446 30.7278 10.0453 30.8062 10.046 30.887C10.0778 32.2947 10.6417 33.4643 11.6407 34.4531C11.6925 34.5075 11.7444 34.562 11.7978 34.6182C12.7937 35.595 14.1399 35.9783 15.5021 35.9704C17.0205 35.9267 18.3135 35.2607 19.3506 34.165C20.3346 32.9728 20.7419 31.5297 20.625 29.9999C20.4288 28.5196 19.6092 27.2383 18.4375 26.3281C16.0824 24.6104 13.1002 25.2949 11.2262 27.3022Z" fill="white"/>
<path d="M1.95312 1.95312C6.82578 1.95312 11.6984 1.95312 16.7188 1.95312C16.7188 3.52578 16.7188 5.09844 16.7188 6.71875C11.8461 6.71875 6.97344 6.71875 1.95312 6.71875C1.95312 5.14609 1.95312 3.57344 1.95312 1.95312ZM3.35938 3.35938C3.35938 4.00391 3.35938 4.64844 3.35938 5.3125C7.30391 5.3125 11.2484 5.3125 15.3125 5.3125C15.3125 4.66797 15.3125 4.02344 15.3125 3.35938C11.368 3.35938 7.42344 3.35938 3.35938 3.35938Z" fill="white"/>
<path d="M14.6093 26.6406C15.0734 26.6406 15.5375 26.6406 16.0156 26.6406C16.0543 26.9887 16.0543 26.9887 16.0937 27.3438C16.1485 27.3609 16.2033 27.378 16.2597 27.3956C16.9765 27.6352 17.4859 27.924 17.8976 28.5687C18.0016 28.8339 18.0187 29.0918 18.0468 29.375C17.8205 29.3856 17.5946 29.3933 17.3681 29.3994C17.3043 29.4027 17.2405 29.406 17.1748 29.4093C16.8302 29.4163 16.6914 29.418 16.4193 29.1879C16.3355 29.0872 16.3355 29.0872 16.25 28.9844C15.8302 28.7253 15.3384 28.7141 14.8632 28.8037C14.5637 28.8798 14.365 29.0015 14.1406 29.2188C14.1692 29.4264 14.1978 29.5128 14.3573 29.6539C14.5384 29.7702 14.6625 29.8116 14.873 29.8486C14.9757 29.8675 14.9757 29.8675 15.0805 29.8868C15.2444 29.9116 15.4089 29.9321 15.5737 29.9496C16.3465 30.036 17.0781 30.222 17.622 30.8154C17.9756 31.292 18.1327 31.7552 18.0468 32.3438C17.8966 32.9071 17.5873 33.2698 17.1093 33.5938C16.7616 33.7844 16.4117 33.9333 16.0156 33.9844C16.0156 34.2164 16.0156 34.4484 16.0156 34.6875C15.5515 34.6875 15.0875 34.6875 14.6093 34.6875C14.5836 34.4555 14.5578 34.2234 14.5312 33.9844C14.4755 33.9663 14.4198 33.9483 14.3624 33.9297C13.5858 33.6653 13.173 33.4146 12.7395 32.7106C12.6562 32.5 12.6562 32.5 12.6562 31.9531C13.1203 31.9531 13.5843 31.9531 14.0625 31.9531C14.0882 32.0563 14.114 32.1594 14.1406 32.2656C14.3074 32.3639 14.3074 32.3639 14.5312 32.4219C14.6263 32.4525 14.7213 32.4831 14.8193 32.5146C15.2993 32.629 15.7527 32.5693 16.2109 32.3975C16.4118 32.2619 16.4844 32.1795 16.5625 31.9531C16.1327 31.4756 15.6709 31.4527 15.0634 31.3818C14.1536 31.2621 13.4856 31.0447 12.8906 30.3125C12.5672 29.8744 12.5897 29.3502 12.6562 28.8281C12.8316 28.3344 13.2414 27.9406 13.6718 27.6562C13.9527 27.5306 14.2363 27.431 14.5312 27.3438C14.557 27.1117 14.5828 26.8797 14.6093 26.6406Z" fill="white"/>
<path d="M9.3212 16.621C9.41682 16.6194 9.51244 16.6178 9.61096 16.6161C9.74987 16.6155 9.74987 16.6155 9.89157 16.6149C10.0182 16.6138 10.0182 16.6138 10.1474 16.6127C10.5457 16.6583 10.7935 16.8091 11.0741 17.0897C11.4186 17.5872 11.4328 18.0747 11.4306 18.662C11.4318 18.7282 11.4331 18.7943 11.4344 18.8625C11.4348 19.3497 11.394 19.8931 11.0666 20.2806C10.5286 20.7537 9.98619 20.7316 9.30655 20.7323C9.21601 20.7342 9.12548 20.7361 9.0322 20.7381C8.50255 20.7399 8.16188 20.7122 7.73429 20.3905C7.24661 19.8896 7.2389 19.344 7.24112 18.6815C7.23986 18.6069 7.2386 18.5323 7.23731 18.4554C7.23694 17.9223 7.27887 17.4521 7.63419 17.0266C7.68011 16.991 7.72603 16.9555 7.77335 16.9188C7.84223 16.8634 7.84223 16.8634 7.91251 16.8068C8.32111 16.5385 8.85263 16.6229 9.3212 16.621ZM8.67179 18.0468C8.67179 18.4593 8.67179 18.8718 8.67179 19.2968C9.11007 19.2968 9.54835 19.2968 9.99991 19.2968C9.99991 18.8843 9.99991 18.4718 9.99991 18.0468C9.56163 18.0468 9.12335 18.0468 8.67179 18.0468Z" fill="white"/>
<path d="M9.3212 11.9238C9.40736 11.9219 9.49351 11.92 9.58228 11.918C10.2117 11.9158 10.6561 11.9917 11.123 12.4463C11.4175 12.9335 11.4327 13.4197 11.4306 13.9746C11.4318 14.0408 11.4331 14.1069 11.4344 14.1751C11.4348 14.6996 11.3753 15.2186 11.0348 15.6372C10.9881 15.6718 10.9415 15.7065 10.8935 15.7422C10.8466 15.7784 10.7998 15.8147 10.7516 15.852C10.3791 16.1034 9.95079 16.0361 9.51464 16.0387C9.35703 16.04 9.19955 16.0434 9.04197 16.0469C8.89196 16.0479 8.89196 16.0479 8.73893 16.0489C8.64746 16.05 8.55599 16.0512 8.46175 16.0523C8.06699 15.9963 7.82788 15.8019 7.55851 15.5176C7.23579 15.0335 7.23924 14.5568 7.24112 13.9941C7.23986 13.9195 7.23861 13.8449 7.23731 13.768C7.23697 13.2736 7.26016 12.7712 7.60506 12.381C8.13398 11.9132 8.65033 11.9246 9.3212 11.9238ZM8.67179 13.3594C8.67179 13.7719 8.67179 14.1844 8.67179 14.6094C9.11007 14.6094 9.54835 14.6094 9.99991 14.6094C9.99991 14.1969 9.99991 13.7844 9.99991 13.3594C9.56163 13.3594 9.12335 13.3594 8.67179 13.3594Z" fill="white"/>
<path d="M13.9747 7.24112C14.0866 7.23923 14.0866 7.23923 14.2008 7.23731C14.7336 7.23694 15.2073 7.27708 15.6297 7.63693C15.683 7.70688 15.683 7.70688 15.7374 7.77823C15.7744 7.82506 15.8113 7.87189 15.8494 7.92014C16.1064 8.28919 16.0362 8.72173 16.0388 9.15705C16.0401 9.31467 16.0435 9.47215 16.047 9.62973C16.0477 9.72974 16.0483 9.82974 16.049 9.93277C16.0501 10.0242 16.0513 10.1157 16.0524 10.2099C15.9967 10.6029 15.8019 10.8414 15.5226 11.1132C15.0525 11.4193 14.5727 11.4309 14.0284 11.4257C13.9653 11.4263 13.9022 11.4269 13.8372 11.4275C13.3094 11.4258 12.8479 11.3764 12.3976 11.079C11.9017 10.5601 11.9146 10.0264 11.919 9.34073C11.9175 9.25528 11.9159 9.16983 11.9143 9.08179C11.9147 8.45724 11.9934 8.00657 12.4513 7.54874C12.9439 7.24376 13.4117 7.23924 13.9747 7.24112ZM13.3595 8.67179C13.3595 9.11007 13.3595 9.54835 13.3595 9.99991C13.772 9.99991 14.1845 9.99991 14.6095 9.99991C14.6095 9.56163 14.6095 9.12335 14.6095 8.67179C14.197 8.67179 13.7845 8.67179 13.3595 8.67179Z" fill="white"/>
<path d="M9.32119 7.24619C9.39244 7.24458 9.46369 7.24297 9.5371 7.24131C10.1022 7.23807 10.5427 7.31467 11.0009 7.671C11.3922 8.17417 11.4439 8.67652 11.4354 9.29209C11.4364 9.3579 11.4373 9.42371 11.4382 9.49152C11.4356 10.0496 11.342 10.5511 11.0058 11.006C10.503 11.3776 9.94669 11.4446 9.33584 11.4356C9.24324 11.437 9.24324 11.437 9.14876 11.4384C8.60292 11.4357 8.1059 11.3358 7.66591 11.0011C7.26912 10.4759 7.22977 9.96684 7.24111 9.33115C7.24086 9.2603 7.24061 9.18946 7.24035 9.11646C7.24512 8.51796 7.29863 8.02632 7.73427 7.57822C8.22471 7.22611 8.74007 7.24944 9.32119 7.24619ZM8.67177 8.67197C8.67177 9.11025 8.67177 9.54853 8.67177 10.0001C9.11006 10.0001 9.54834 10.0001 9.9999 10.0001C9.9999 9.56182 9.9999 9.12353 9.9999 8.67197C9.56162 8.67197 9.12334 8.67197 8.67177 8.67197Z" fill="white"/>
<path d="M4.67783 7.24112C4.78977 7.23923 4.78977 7.23923 4.90397 7.23731C5.39839 7.23697 5.90078 7.26016 6.29091 7.60506C6.75878 8.13398 6.74737 8.65033 6.74814 9.3212C6.75006 9.40736 6.75197 9.49351 6.75394 9.58228C6.75608 10.1792 6.68844 10.6341 6.27268 11.0811C6.20833 11.1236 6.20833 11.1236 6.14267 11.1669C6.10018 11.1966 6.05768 11.2263 6.01389 11.2569C5.59549 11.4496 5.11502 11.4228 4.66318 11.4257C4.60039 11.4273 4.5376 11.4289 4.4729 11.4306C3.95616 11.4339 3.44671 11.3698 3.03476 11.0348C3.00012 10.9881 2.96548 10.9415 2.92978 10.8935C2.89353 10.8466 2.85727 10.7998 2.81992 10.7516C2.56859 10.3791 2.63587 9.95079 2.63329 9.51464C2.63195 9.35703 2.62852 9.19955 2.62506 9.04197C2.62441 8.94196 2.62376 8.84196 2.62308 8.73893C2.62194 8.64746 2.6208 8.55599 2.61963 8.46175C2.67565 8.06699 2.87006 7.82788 3.15439 7.55851C3.63847 7.23579 4.11518 7.23924 4.67783 7.24112ZM4.0626 8.67179C4.0626 9.11007 4.0626 9.54835 4.0626 9.99991C4.4751 9.99991 4.8876 9.99991 5.3126 9.99991C5.3126 9.56163 5.3126 9.12335 5.3126 8.67179C4.9001 8.67179 4.4876 8.67179 4.0626 8.67179Z" fill="white"/>
<path d="M13.9991 16.6113C14.0934 16.6083 14.1877 16.6054 14.2849 16.6024C14.8543 16.5968 15.2813 16.6225 15.7032 17.0312C16.1123 17.5194 16.0651 18.052 16.0597 18.6669C16.0624 18.8119 16.0624 18.8119 16.0653 18.9597C16.0645 19.4532 16.0558 19.8667 15.748 20.2694C15.3086 20.7024 14.8456 20.7416 14.246 20.742C14.1565 20.7404 14.0669 20.7388 13.9747 20.7372C13.8846 20.7378 13.7944 20.7383 13.7016 20.7389C13.1636 20.7349 12.7691 20.7118 12.3545 20.3371C12.3171 20.2919 12.2798 20.2467 12.2413 20.2001C12.2029 20.1551 12.1646 20.1101 12.125 20.0637C11.8555 19.6554 11.9358 19.1107 11.9337 18.6425C11.9321 18.5547 11.9305 18.4669 11.9288 18.3764C11.9263 17.8398 11.9426 17.4531 12.3219 17.0419C12.3678 17.0045 12.4137 16.9671 12.461 16.9286C12.5069 16.8903 12.5529 16.8519 12.6002 16.8124C12.9977 16.535 13.5361 16.6166 13.9991 16.6113ZM13.3595 18.0468C13.3595 18.4593 13.3595 18.8718 13.3595 19.2968C13.772 19.2968 14.1845 19.2968 14.6095 19.2968C14.6095 18.8843 14.6095 18.4718 14.6095 18.0468C14.197 18.0468 13.7845 18.0468 13.3595 18.0468Z" fill="white"/>
<path d="M4.6338 16.6211C4.72943 16.6195 4.82505 16.6179 4.92357 16.6162C5.06247 16.6156 5.06247 16.6156 5.20418 16.615C5.33081 16.6139 5.33081 16.6139 5.46001 16.6128C5.86671 16.6594 6.17134 16.8297 6.43068 17.1436C6.48823 17.2111 6.48823 17.2111 6.54695 17.28C6.80849 17.6761 6.73909 18.1973 6.74318 18.6524C6.74544 18.7351 6.74771 18.8179 6.75005 18.9032C6.75462 19.4708 6.69471 19.9323 6.29037 20.3558C5.8057 20.7806 5.32369 20.7225 4.71193 20.7276C4.57605 20.731 4.57605 20.731 4.43742 20.7344C3.88192 20.7385 3.51697 20.6937 3.04689 20.3906C2.56226 19.8812 2.63941 19.3531 2.63673 18.6865C2.63512 18.5872 2.63351 18.4878 2.63185 18.3855C2.63145 18.2894 2.63105 18.1932 2.63063 18.0942C2.6299 18.0065 2.62917 17.9188 2.62842 17.8284C2.66569 17.4934 2.77983 17.2309 3.00783 16.9809C3.53305 16.572 3.99067 16.6238 4.6338 16.6211ZM4.06252 18.0469C4.06252 18.4594 4.06252 18.8719 4.06252 19.2969C4.47502 19.2969 4.88752 19.2969 5.31252 19.2969C5.31252 18.8844 5.31252 18.4719 5.31252 18.0469C4.90002 18.0469 4.48752 18.0469 4.06252 18.0469Z" fill="white"/>
<path d="M14.0039 11.9287C14.0904 11.9265 14.1769 11.9242 14.2661 11.9219C14.7795 11.9179 15.2146 11.931 15.625 12.2656C15.9669 12.6024 16.0401 12.9401 16.0648 13.411C16.0651 13.6037 16.0633 13.7965 16.0596 13.9893C16.0604 14.0862 16.0613 14.1831 16.0622 14.283C16.0578 14.8224 16.0348 15.1915 15.7031 15.625C15.1894 16.1011 14.6764 16.0375 14.0088 16.0449C13.9107 16.0479 13.8127 16.0508 13.7117 16.0538C13.2122 16.0585 12.794 16.0622 12.3861 15.7487C11.9668 15.3183 11.9132 14.8669 11.9104 14.2813C11.9116 14.1962 11.9128 14.1111 11.9141 14.0235C11.9129 13.9384 11.9116 13.8533 11.9104 13.7656C11.9132 13.1959 11.9792 12.7291 12.3787 12.3006C12.8635 11.8682 13.3869 11.934 14.0039 11.9287ZM13.3594 13.3594C13.3594 13.7719 13.3594 14.1844 13.3594 14.6094C13.7719 14.6094 14.1844 14.6094 14.6094 14.6094C14.6094 14.1969 14.6094 13.7844 14.6094 13.3594C14.1969 13.3594 13.7844 13.3594 13.3594 13.3594Z" fill="white"/>
<path d="M4.64839 11.9141C4.73349 11.9129 4.81859 11.9116 4.90626 11.9104C5.44218 11.913 5.79463 11.9788 6.24995 12.2656C6.74999 12.7788 6.74516 13.295 6.74312 13.9746C6.74437 14.0577 6.74563 14.1408 6.74693 14.2264C6.7473 14.8238 6.69581 15.2247 6.2939 15.6885C5.80184 16.1085 5.32153 16.0416 4.69722 16.04C4.54872 16.0419 4.54872 16.0419 4.39723 16.0439C4.25357 16.0439 4.25357 16.0439 4.10701 16.044C4.01981 16.0442 3.93261 16.0445 3.84276 16.0447C3.50897 16.0057 3.24573 15.8914 2.99647 15.6641C2.58384 15.1341 2.63414 14.6585 2.62691 14.0088C2.62252 13.8617 2.62252 13.8617 2.61806 13.7117C2.61332 13.2122 2.60966 12.794 2.92319 12.3861C3.42097 11.9011 3.98344 11.9046 4.64839 11.9141ZM4.06245 13.3594C4.06245 13.7719 4.06245 14.1844 4.06245 14.6094C4.47495 14.6094 4.88745 14.6094 5.31245 14.6094C5.31245 14.1969 5.31245 13.7844 5.31245 13.3594C4.89995 13.3594 4.48745 13.3594 4.06245 13.3594Z" fill="white"/>
<path d="M23.9844 21.9531C26.6398 21.9531 29.2953 21.9531 32.0312 21.9531C32.0312 22.4172 32.0312 22.8813 32.0312 23.3594C29.3758 23.3594 26.7203 23.3594 23.9844 23.3594C23.9844 22.8953 23.9844 22.4312 23.9844 21.9531Z" fill="white"/>
<path d="M23.9844 19.2969C26.6398 19.2969 29.2953 19.2969 32.0312 19.2969C32.0312 19.7609 32.0312 20.225 32.0312 20.7031C29.3758 20.7031 26.7203 20.7031 23.9844 20.7031C23.9844 20.2391 23.9844 19.775 23.9844 19.2969Z" fill="white"/>
<path d="M23.9844 16.6406C26.6398 16.6406 29.2953 16.6406 32.0312 16.6406C32.0312 17.1047 32.0312 17.5688 32.0312 18.0469C29.3758 18.0469 26.7203 18.0469 23.9844 18.0469C23.9844 17.5828 23.9844 17.1187 23.9844 16.6406Z" fill="white"/>
<path d="M23.9844 13.9844C26.6398 13.9844 29.2953 13.9844 32.0312 13.9844C32.0312 14.4484 32.0312 14.9125 32.0312 15.3906C29.3758 15.3906 26.7203 15.3906 23.9844 15.3906C23.9844 14.9266 23.9844 14.4625 23.9844 13.9844Z" fill="white"/>
<path d="M21.3281 21.9531C21.7922 21.9531 22.2563 21.9531 22.7344 21.9531C22.7344 22.4172 22.7344 22.8813 22.7344 23.3594C22.2703 23.3594 21.8062 23.3594 21.3281 23.3594C21.3281 22.8953 21.3281 22.4312 21.3281 21.9531Z" fill="white"/>
<path d="M21.3281 19.2969C21.7922 19.2969 22.2563 19.2969 22.7344 19.2969C22.7344 19.7609 22.7344 20.225 22.7344 20.7031C22.2703 20.7031 21.8062 20.7031 21.3281 20.7031C21.3281 20.2391 21.3281 19.775 21.3281 19.2969Z" fill="white"/>
<path d="M21.3281 16.6406C21.7922 16.6406 22.2563 16.6406 22.7344 16.6406C22.7344 17.1047 22.7344 17.5688 22.7344 18.0469C22.2703 18.0469 21.8062 18.0469 21.3281 18.0469C21.3281 17.5828 21.3281 17.1187 21.3281 16.6406Z" fill="white"/>
<path d="M21.3281 13.9844C21.7922 13.9844 22.2563 13.9844 22.7344 13.9844C22.7344 14.4484 22.7344 14.9125 22.7344 15.3906C22.2703 15.3906 21.8062 15.3906 21.3281 15.3906C21.3281 14.9266 21.3281 14.4625 21.3281 13.9844Z" fill="white"/>
</g>
<defs>
<clipPath id="clip0_2397_1171">
<rect width="40" height="40" fill="white"/>
</clipPath>
</defs>
</svg>
