<svg width="40" height="40" viewBox="0 0 40 40" fill="none" xmlns="http://www.w3.org/2000/svg">
<path d="M37.2754 2.47565C37.3659 2.47434 37.4563 2.47303 37.5495 2.47168C37.8954 2.509 38.1515 2.61605 38.4098 2.85162C38.8244 3.38413 38.7964 3.87555 38.75 4.53131C38.2815 7.01431 36.1797 9.34479 34.5407 11.1457C34.3463 11.3599 34.1557 11.577 33.967 11.7963C33.865 11.9116 33.7597 12.0239 33.6527 12.1345C33.5655 12.226 33.5655 12.226 33.4766 12.3194C33.4226 12.3745 33.3686 12.4296 33.313 12.4863C33.187 12.6469 33.187 12.6469 33.2053 12.8303C33.2906 13.0736 33.3947 13.3013 33.5065 13.5335C34.4014 15.3983 34.9966 17.5373 35.0187 19.6168C35.0193 19.6753 35.0199 19.7339 35.0206 19.7943C35.0216 19.9177 35.0225 20.0411 35.0231 20.1646C35.024 20.2882 35.0256 20.4118 35.0279 20.5353C35.0488 21.6507 34.9271 22.7115 34.3897 23.711C34.3625 23.763 34.3353 23.8149 34.3072 23.8685C33.607 25.1655 32.3131 25.8906 30.954 26.3502C29.5674 26.7421 28.1536 26.8716 26.7188 26.9092C24.2789 26.9339 24.2789 26.9339 22.2132 28.0955C21.5923 28.7609 21.4333 29.5826 21.4063 30.4688C21.438 31.1512 21.6749 31.7279 21.9532 32.3438C22.391 33.3616 22.6062 34.3365 22.2681 35.4276C21.9687 36.1614 21.3043 36.7561 20.6006 37.0948C19.7084 37.4524 18.8661 37.5421 17.9151 37.5342C17.8553 37.534 17.7956 37.5338 17.734 37.5336C16.6448 37.5278 15.5968 37.4227 14.5313 37.1876C14.4658 37.1733 14.4003 37.1591 14.3328 37.1445C9.97147 36.1678 6.23762 33.4505 3.80375 29.7278C2.28243 27.3245 1.24979 24.3991 1.23417 21.5369C1.23362 21.4695 1.23307 21.4021 1.23251 21.3326C1.23115 21.1163 1.23064 20.9 1.23051 20.6837C1.23045 20.6098 1.2304 20.536 1.23035 20.46C1.23155 19.4045 1.25371 18.378 1.48441 17.3438C1.49782 17.2806 1.51123 17.2174 1.52504 17.1524C2.35062 13.3299 4.4661 9.74711 7.57816 7.34381C7.62041 7.3108 7.66266 7.2778 7.70618 7.24379C10.3857 5.1619 13.8376 3.75392 17.2571 3.73419C17.3211 3.73364 17.385 3.7331 17.4509 3.73253C17.6561 3.73117 17.8613 3.73067 18.0664 3.73053C18.1366 3.73048 18.2067 3.73042 18.279 3.73037C19.3134 3.73161 20.3136 3.76588 21.3282 3.98444C21.3941 3.99784 21.46 4.01125 21.528 4.02506C24.2758 4.5909 26.8073 5.81146 28.9844 7.57819C29.323 7.44592 29.5522 7.19552 29.8096 6.9483C30.2737 6.51079 30.7488 6.09808 31.25 5.70319C31.3012 5.6624 31.3524 5.62161 31.4051 5.57959C35.2924 2.4823 35.2924 2.4823 37.2754 2.47565ZM28.9294 9.6543C28.7976 9.78653 28.6653 9.91833 28.5331 10.0501C28.0939 10.4889 27.666 10.9312 27.2657 11.4063C27.1832 11.5019 27.1007 11.5974 27.0182 11.6929C26.9395 11.7845 26.8609 11.8762 26.7823 11.9678C26.7426 12.0139 26.703 12.06 26.6622 12.1075C26.5855 12.1968 26.5091 12.2864 26.433 12.3763C26.3372 12.4894 26.2404 12.6017 26.1435 12.714C25.9928 12.886 25.9928 12.886 26.0157 13.1251C26.166 13.2513 26.3147 13.3639 26.4746 13.4766C27.1417 13.9671 27.6754 14.537 28.125 15.2344C28.4596 15.1949 28.668 14.9841 28.9112 14.7706C28.9557 14.7322 29.0002 14.6938 29.0461 14.6542C29.4026 14.3454 29.7525 14.0295 30.0992 13.7098C30.2109 13.6081 30.323 13.5068 30.4382 13.4092C30.9481 12.9754 31.417 12.5011 31.8892 12.0273C32.0358 11.8803 32.1828 11.7337 32.3299 11.5871C32.7939 11.1234 33.2493 10.6585 33.6719 10.1563C33.7469 10.0707 33.8221 9.98527 33.8974 9.89996C35.047 8.58419 36.0982 7.16555 36.919 5.62018C36.9507 5.56073 36.9824 5.50128 37.015 5.44003C37.417 4.67177 37.417 4.67177 37.5 3.82819C37.4199 3.73124 37.4199 3.73124 37.2498 3.73572C34.2486 3.93273 30.9186 7.65744 28.9294 9.6543ZM7.73441 8.98444C7.63305 9.07175 7.63305 9.07175 7.52964 9.16083C4.55652 11.749 2.7889 15.669 2.51102 19.5703C2.27283 23.8066 3.69986 27.898 6.50883 31.0767C9.35249 34.2312 13.2881 35.9778 17.5055 36.2302C18.5734 36.2824 19.7209 36.2311 20.5793 35.514C20.9501 35.1449 21.0785 34.8317 21.1133 34.3262C21.1019 33.761 20.8945 33.2732 20.6591 32.7659C20.008 31.3555 19.9277 29.9708 20.3959 28.4858C20.7985 27.4467 21.5102 26.726 22.5049 26.2305C23.5807 25.7781 24.6515 25.6579 25.8084 25.6263C26.1788 25.6158 26.549 25.6003 26.9193 25.5848C26.9911 25.5818 27.0629 25.5788 27.1368 25.5758C29.1247 25.4892 31.3931 25.2198 32.8125 23.6719C33.9029 22.3716 33.7606 20.4945 33.6561 18.8996C33.6127 18.4528 33.5348 18.0162 33.4375 17.5782C33.422 17.5075 33.4065 17.4368 33.3905 17.364C33.1061 16.1079 32.7017 14.8962 32.1094 13.7501C31.7422 14.0024 31.4197 14.2756 31.1084 14.5948C30.7117 14.9994 30.2878 15.352 29.8438 15.7032C29.7674 15.7662 29.6909 15.8293 29.6122 15.8942C29.0392 16.3627 28.4378 16.7816 27.8223 17.1924C27.7417 17.2469 27.6611 17.3013 27.5781 17.3573C27.2198 17.5965 26.8664 17.8244 26.4792 18.014C25.9116 18.2715 25.9116 18.2715 25.5702 18.7584C25.5079 19.1435 25.5238 19.5237 25.5435 19.9119C25.5617 20.7944 24.9286 21.6985 24.3503 22.3109C22.9862 23.542 21.4828 23.7464 19.7076 23.6875C19.1558 23.6537 18.6482 23.5329 18.125 23.3594C18.0416 23.332 17.9581 23.3047 17.872 23.2764C16.8056 22.8781 15.7175 22.0895 15.1413 21.0926C15.0281 20.8148 15.0379 20.6097 15.0782 20.3126C15.1578 20.1795 15.1578 20.1795 15.3125 20.0782C15.5297 20.0566 15.7349 20.0462 15.9522 20.044C16.5893 20.0206 17.0363 19.9439 17.4952 19.4727C17.8027 19.085 18.0255 18.6367 18.2633 18.2044C18.896 17.0573 19.5341 16.1637 20.8233 15.7439C21.031 15.6999 21.1966 15.7038 21.4075 15.7236C21.8401 15.764 22.2467 15.7923 22.6563 15.6251C23.0805 15.2259 23.3019 14.6553 23.5513 14.1385C23.7389 13.7773 23.9729 13.4582 24.2188 13.1348C24.2643 13.0743 24.3099 13.0138 24.3568 12.9514C24.8166 12.3461 25.2934 11.7547 25.7813 11.1719C25.8439 11.0971 25.8439 11.0971 25.9078 11.0207C26.3032 10.5497 26.6986 10.0826 27.1415 9.65491C27.4717 9.3263 27.7709 8.96873 28.0469 8.59381C22.1426 3.78484 13.4277 3.84367 7.73441 8.98444ZM25.0782 14.1407C24.9709 14.273 24.9709 14.273 24.8661 14.4462C24.805 14.5429 24.805 14.5429 24.7426 14.6416C24.7003 14.71 24.6579 14.7783 24.6143 14.8487C24.5722 14.9149 24.5302 14.9811 24.4869 15.0493C24.2583 15.4143 24.0626 15.7705 23.9063 16.1719C23.9703 16.2303 24.0344 16.2888 24.1004 16.3489C24.1854 16.4267 24.2705 16.5044 24.3555 16.5821C24.3976 16.6205 24.4397 16.6588 24.4831 16.6984C24.7129 16.9086 24.9381 17.1214 25.1563 17.3438C26.155 16.7942 26.155 16.7942 27.1094 16.1719C26.9447 15.6822 26.5998 15.3682 26.25 15.0001C26.2001 14.9469 26.1501 14.8937 26.0987 14.8389C25.8311 14.5618 25.5681 14.3347 25.2344 14.1407C25.1829 14.1407 25.1313 14.1407 25.0782 14.1407ZM20.4648 17.3496C19.9823 17.8264 19.6625 18.3393 19.3409 18.9356C18.5204 20.4558 18.5204 20.4558 17.837 20.8546C17.7658 20.8972 17.6946 20.9398 17.6212 20.9836C17.4524 21.077 17.2829 21.1659 17.1094 21.2501C17.924 22.1379 19.1609 22.4443 20.3254 22.4998C21.5227 22.501 22.5885 22.1696 23.4473 21.3203C24.0754 20.6482 24.3271 20.0351 24.3186 19.1132C24.2697 18.4708 23.9993 17.9264 23.5157 17.5001C22.6178 16.8058 21.3937 16.6086 20.4648 17.3496Z" fill="white"/>
<path d="M16.1264 27.3053C16.8141 27.8006 17.331 28.4558 17.5 29.2969C17.6045 30.267 17.5215 31.1241 16.9385 31.9336C16.4063 32.5653 15.7574 33.0518 14.9164 33.1424C13.9077 33.2124 13.0664 33.0901 12.2708 32.4197C11.6054 31.7845 11.2498 31.1087 11.2132 30.1847C11.2011 29.2071 11.4212 28.4552 12.1094 27.7344C13.186 26.7066 14.852 26.5106 16.1264 27.3053ZM12.8473 28.9767C12.525 29.4445 12.5222 29.9179 12.5781 30.4687C12.7167 30.9879 13.0818 31.3417 13.5156 31.6406C13.9843 31.8704 14.5221 31.8827 15.0244 31.7487C15.5032 31.5373 15.8781 31.1399 16.1072 30.6726C16.2561 30.2034 16.255 29.6482 16.0547 29.1943C15.7825 28.7303 15.3567 28.3659 14.8438 28.2031C13.9504 28.0972 13.4236 28.3026 12.8473 28.9767Z" fill="white"/>
<path d="M10.5014 20.4303C11.1891 20.9256 11.706 21.5808 11.875 22.4219C11.9795 23.392 11.8965 24.2491 11.3135 25.0586C10.7813 25.6903 10.1324 26.1768 9.29136 26.2674C8.28266 26.3374 7.44138 26.2151 6.64582 25.5447C5.98035 24.9095 5.62482 24.2337 5.58824 23.3097C5.57613 22.3321 5.79622 21.5802 6.48439 20.8594C7.56096 19.8316 9.22696 19.6356 10.5014 20.4303ZM7.2223 22.1017C6.90003 22.5695 6.89719 23.0429 6.95314 23.5937C7.09169 24.1129 7.45678 24.4667 7.89064 24.7656C8.3593 24.9954 8.89711 25.0077 9.39943 24.8737C9.87824 24.6623 10.2531 24.2649 10.4822 23.7976C10.6311 23.3284 10.63 22.7732 10.4297 22.3193C10.1575 21.8553 9.73169 21.4909 9.21876 21.3281C8.32545 21.2222 7.79859 21.4276 7.2223 22.1017Z" fill="white"/>
<path d="M12.3764 11.6803C13.0641 12.1756 13.581 12.8308 13.75 13.6719C13.8545 14.642 13.7715 15.4991 13.1885 16.3086C12.6563 16.9403 12.0074 17.4268 11.1664 17.5174C10.1577 17.5874 9.31638 17.4651 8.52082 16.7947C7.85535 16.1595 7.49982 15.4837 7.46324 14.5597C7.45113 13.5821 7.67122 12.8302 8.35939 12.1094C9.43596 11.0816 11.102 10.8856 12.3764 11.6803ZM9.0973 13.3517C8.77503 13.8195 8.77219 14.2929 8.82814 14.8437C8.96669 15.3629 9.33178 15.7167 9.76564 16.0156C10.2343 16.2454 10.7721 16.2577 11.2744 16.1237C11.7532 15.9123 12.1281 15.5149 12.3572 15.0476C12.5061 14.5784 12.505 14.0232 12.3047 13.5693C12.0325 13.1053 11.6067 12.7409 11.0938 12.5781C10.2004 12.4722 9.67359 12.6776 9.0973 13.3517Z" fill="white"/>
<path d="M20.5014 7.3053C21.1891 7.80064 21.706 8.4558 21.875 9.29687C21.9795 10.267 21.8965 11.1241 21.3135 11.9336C20.7813 12.5653 20.1324 13.0518 19.2914 13.1424C18.2827 13.2124 17.4414 13.0901 16.6458 12.4197C15.9804 11.7845 15.6248 11.1087 15.5882 10.1847C15.5761 9.20706 15.7962 8.45524 16.4844 7.73437C17.561 6.70664 19.227 6.51056 20.5014 7.3053ZM17.2223 8.97674C16.9 9.44448 16.8972 9.91792 16.9531 10.4687C17.0917 10.9879 17.4568 11.3417 17.8906 11.6406C18.3593 11.8704 18.8971 11.8827 19.3994 11.7487C19.8782 11.5373 20.2531 11.1399 20.4822 10.6726C20.6311 10.2034 20.63 9.64821 20.4297 9.19433C20.1575 8.73027 19.7317 8.36591 19.2188 8.20312C18.3254 8.09716 17.7986 8.30262 17.2223 8.97674Z" fill="white"/>
</svg>
