<svg width="40" height="40" viewBox="0 0 40 40" fill="none" xmlns="http://www.w3.org/2000/svg">
<g clip-path="url(#clip0_2397_1146)">
<path d="M30.6679 11.3937C30.753 11.3929 30.838 11.3922 30.9256 11.3914C31.0625 11.3909 31.0625 11.3909 31.2021 11.3904C31.2968 11.3899 31.3915 11.3895 31.4891 11.389C31.6894 11.3883 31.8898 11.3878 32.0901 11.3875C32.395 11.3867 32.6998 11.3843 33.0046 11.3818C33.1997 11.3813 33.3947 11.3809 33.5898 11.3806C33.7254 11.3792 33.7254 11.3792 33.8638 11.3777C34.6566 11.3798 35.3006 11.4841 35.8838 12.045C36.5015 12.7127 36.5072 13.3611 36.5032 14.2269C36.5032 14.3314 36.5034 14.436 36.5036 14.5406C36.5039 14.827 36.5033 15.1135 36.5025 15.4C36.5018 15.7092 36.5021 16.0185 36.5022 16.3277C36.5023 16.8632 36.5018 17.3987 36.5009 17.9342C36.4996 18.7085 36.4992 19.4827 36.499 20.257C36.4987 21.5132 36.4976 22.7694 36.4962 24.0257C36.4947 25.2459 36.4936 26.4661 36.493 27.6862C36.4929 27.7615 36.4929 27.8367 36.4928 27.9142C36.4926 28.2916 36.4924 28.6691 36.4922 29.0465C36.4906 32.1768 36.4879 35.3072 36.4844 38.4375C36.5736 38.4344 36.5736 38.4344 36.6646 38.4313C36.9349 38.4232 37.2052 38.4181 37.4756 38.4131C37.5692 38.4098 37.6628 38.4065 37.7592 38.4032C38.5342 38.3924 38.5342 38.3924 38.7711 38.6175C38.942 38.8838 38.9844 39.0584 38.9844 39.375C38.866 39.6887 38.7964 39.8128 38.5156 40C38.3108 40.0153 38.1144 40.0214 37.9095 40.0203C37.8469 40.0206 37.7842 40.0209 37.7196 40.0212C37.5078 40.022 37.296 40.0217 37.0842 40.0214C36.9315 40.0218 36.7789 40.0222 36.6262 40.0227C36.2053 40.0238 35.7843 40.0239 35.3634 40.0239C34.91 40.024 34.4566 40.025 34.0032 40.0259C33.0111 40.0277 32.0191 40.0283 31.027 40.0287C30.408 40.029 29.789 40.0295 29.17 40.03C27.4573 40.0316 25.7445 40.0328 24.0318 40.0331C23.977 40.0331 23.9222 40.0331 23.8657 40.0331C23.6436 40.0331 23.4215 40.0331 23.1994 40.0332C23.0323 40.0332 22.8651 40.0332 22.6979 40.0332C22.6151 40.0332 22.6151 40.0332 22.5306 40.0333C20.7945 40.0335 19.0585 40.0352 17.3224 40.038C15.373 40.0412 13.4236 40.0431 11.4742 40.0431C10.4417 40.0431 9.40911 40.0438 8.37655 40.0461C7.4975 40.048 6.61846 40.0486 5.73941 40.0474C5.29063 40.0468 4.84187 40.0469 4.39309 40.0487C3.9826 40.0503 3.57215 40.0501 3.16166 40.0484C3.01283 40.0482 2.86399 40.0486 2.71515 40.0497C2.51342 40.0511 2.31184 40.0501 2.11012 40.0485C2.0518 40.0495 1.99348 40.0505 1.9334 40.0515C1.62972 40.0463 1.49593 40.0091 1.25484 39.8184C1.05173 39.5548 1.01562 39.3942 1.01562 39.0625C1.134 38.7488 1.20356 38.6247 1.48438 38.4375C1.70462 38.4198 1.70462 38.4198 1.96869 38.4222C2.0631 38.4227 2.15752 38.4232 2.25479 38.4238C2.35343 38.4251 2.45208 38.4264 2.55371 38.4277C2.65326 38.4284 2.75281 38.4291 2.85538 38.4299C3.10152 38.4317 3.34763 38.4343 3.59375 38.4375C3.59323 38.3482 3.59271 38.2589 3.59217 38.1669C3.58741 37.3233 3.5839 36.4797 3.58161 35.636C3.58039 35.2023 3.57873 34.7687 3.57607 34.335C3.57351 33.9161 3.57212 33.4972 3.57151 33.0783C3.57108 32.9188 3.57024 32.7594 3.56897 32.6C3.56725 32.3759 3.56703 32.1517 3.56714 31.9275C3.5663 31.8624 3.56546 31.7973 3.56459 31.7302C3.56847 30.9809 3.76292 30.308 4.29688 29.7656C4.95985 29.2159 5.72825 29.1948 6.55762 29.198C6.64513 29.1978 6.73264 29.1977 6.8228 29.1975C7.0069 29.1974 7.191 29.1977 7.37511 29.1984C7.6554 29.1992 7.93565 29.1984 8.21594 29.1974C8.39559 29.1975 8.57524 29.1977 8.75488 29.198C8.83791 29.1977 8.92094 29.1974 9.00648 29.197C9.83879 29.2022 10.5245 29.3101 11.1505 29.8907C11.6467 30.426 11.7541 30.99 11.7454 31.6969C11.7454 31.7702 11.7454 31.8434 11.7455 31.9189C11.7453 32.159 11.7435 32.3991 11.7416 32.6392C11.7412 32.8064 11.7409 32.9737 11.7406 33.1409C11.7397 33.5797 11.7374 34.0184 11.7348 34.4571C11.732 34.9843 11.7309 35.5115 11.7296 36.0387C11.7273 36.8383 11.7228 37.6379 11.7188 38.4375C13.1367 38.4375 14.5547 38.4375 16.0156 38.4375C16.0136 38.0132 16.0115 37.589 16.0094 37.1518C16.003 35.7502 15.9986 34.3485 15.9954 32.9468C15.9934 32.097 15.9906 31.2472 15.9862 30.3973C15.9823 29.6564 15.9797 28.9156 15.9789 28.1747C15.9784 27.7825 15.9772 27.3904 15.9743 26.9983C15.9717 26.6288 15.9709 26.2593 15.9714 25.8898C15.9713 25.7546 15.9706 25.6194 15.9691 25.4841C15.9605 24.6741 15.9788 23.9748 16.5607 23.3497C17.2525 22.6886 18.0146 22.6441 18.9313 22.6404C19.0168 22.6399 19.1024 22.6395 19.1905 22.639C19.3714 22.6383 19.5522 22.6378 19.733 22.6375C20.0072 22.6367 20.2813 22.6343 20.5554 22.6318C20.7318 22.6313 20.9082 22.6309 21.0846 22.6306C21.1654 22.6296 21.2463 22.6287 21.3296 22.6277C22.0336 22.6298 22.8279 22.6989 23.396 23.157C23.9055 23.686 24.0749 24.1506 24.0719 24.8713C24.072 24.9583 24.072 24.9583 24.0721 25.0471C24.0722 25.2415 24.0718 25.436 24.0714 25.6304C24.0713 25.7698 24.0714 25.9091 24.0714 26.0485C24.0714 26.427 24.071 26.8055 24.0704 27.184C24.0699 27.5794 24.0699 27.9749 24.0698 28.3704C24.0696 29.1194 24.0689 29.8684 24.0681 30.6174C24.0673 31.47 24.0668 32.3227 24.0664 33.1753C24.0656 34.9294 24.0642 36.6834 24.0625 38.4375C25.4805 38.4375 26.8984 38.4375 28.3594 38.4375C28.3586 37.9674 28.3586 37.9674 28.3578 37.4877C28.3531 34.6129 28.3496 31.738 28.3474 28.8631C28.3471 28.4862 28.3468 28.1094 28.3465 27.7325C28.3464 27.6575 28.3464 27.5824 28.3463 27.5051C28.3453 26.2907 28.3434 25.0762 28.3413 23.8617C28.3391 22.6154 28.3378 21.369 28.3373 20.1226C28.337 19.3537 28.336 18.5847 28.3341 17.8158C28.3328 17.2884 28.3325 16.7609 28.3328 16.2335C28.3329 15.9292 28.3327 15.6251 28.3314 15.3208C28.3303 15.042 28.3302 14.7631 28.331 14.4843C28.3312 14.3364 28.3302 14.1884 28.3291 14.0405C28.3335 13.1999 28.4552 12.5631 29.0479 11.9464C29.5277 11.5265 30.039 11.3982 30.6679 11.3937ZM30.0831 13.2913C29.8905 13.63 29.9486 14.0557 29.953 14.4336C29.9527 14.536 29.9524 14.6384 29.952 14.7439C29.9511 15.0281 29.9527 15.3122 29.9547 15.5964C29.9563 15.9029 29.9558 16.2094 29.9555 16.5158C29.9553 17.0468 29.9565 17.5777 29.9587 18.1087C29.9619 18.8764 29.9629 19.644 29.9634 20.4117C29.9642 21.6572 29.9668 22.9026 29.9705 24.1481C29.9741 25.358 29.9769 26.5679 29.9785 27.7778C29.9786 27.8524 29.9787 27.9269 29.9789 28.0038C29.9794 28.3779 29.9799 28.752 29.9803 29.1261C29.9844 32.2299 29.9916 35.3337 30 38.4375C31.5984 38.4375 33.1969 38.4375 34.8438 38.4375C34.8524 35.248 34.8596 32.0585 34.8637 28.869C34.8642 28.4927 34.8647 28.1164 34.8652 27.7401C34.8654 27.6278 34.8654 27.6278 34.8655 27.5131C34.8672 26.2991 34.8703 25.085 34.8739 23.871C34.8775 22.6259 34.8797 21.3808 34.8805 20.1356C34.881 19.3669 34.8827 18.5982 34.8859 17.8295C34.888 17.3028 34.8886 16.7762 34.8881 16.2495C34.8878 15.9453 34.8882 15.6412 34.8903 15.3371C34.8926 15.0077 34.8918 14.6784 34.8907 14.349C34.8924 14.204 34.8924 14.204 34.8942 14.0561C34.9034 13.5563 34.9034 13.5563 34.6579 13.1438C34.4347 13.0382 34.2882 13.0069 34.0421 13.0052C33.922 13.0033 33.922 13.0033 33.7995 13.0014C33.7139 13.0018 33.6283 13.0022 33.54 13.0026C33.4513 13.0021 33.3627 13.0016 33.2713 13.0012C33.084 13.0006 32.8967 13.0008 32.7094 13.0018C32.4229 13.0029 32.1365 13.0003 31.85 12.9973C31.6679 12.9972 31.4858 12.9973 31.3037 12.9977C31.2181 12.9967 31.1325 12.9957 31.0443 12.9946C30.9642 12.9956 30.8842 12.9966 30.8017 12.9976C30.6965 12.9977 30.6965 12.9977 30.5892 12.9978C30.3711 13.0517 30.2381 13.1279 30.0831 13.2913ZM17.6562 24.6094C17.6487 24.7874 17.6467 24.9656 17.6469 25.1437C17.6468 25.2003 17.6467 25.2568 17.6467 25.315C17.6465 25.5059 17.647 25.6968 17.6474 25.8876C17.6474 26.0239 17.6474 26.1601 17.6473 26.2964C17.6473 26.6674 17.6478 27.0385 17.6483 27.4096C17.6488 27.7969 17.6489 28.1843 17.649 28.5717C17.6492 29.3057 17.6498 30.0398 17.6506 30.7738C17.6515 31.6093 17.6519 32.4447 17.6523 33.2802C17.6531 34.9993 17.6546 36.7184 17.6562 38.4375C19.2547 38.4375 20.8531 38.4375 22.5 38.4375C22.5035 36.6718 22.5064 34.9062 22.5081 33.1405C22.5089 32.3207 22.51 31.5009 22.5118 30.6811C22.5133 29.9666 22.5144 29.2521 22.5147 28.5377C22.5149 28.1593 22.5154 27.7809 22.5165 27.4026C22.5176 27.0465 22.5179 26.6904 22.5177 26.3343C22.5177 26.2036 22.518 26.0729 22.5186 25.9421C22.5194 25.7637 22.5192 25.5852 22.5188 25.4068C22.5189 25.3069 22.5191 25.207 22.5192 25.1041C22.5004 24.8498 22.4627 24.6775 22.3438 24.4531C22.0838 24.3076 21.8582 24.277 21.5636 24.2754C21.4882 24.2747 21.4129 24.2739 21.3352 24.2732C21.2145 24.2733 21.2145 24.2733 21.0913 24.2734C21.0078 24.273 20.9243 24.2727 20.8383 24.2724C20.6621 24.2719 20.4858 24.2719 20.3096 24.2722C20.04 24.2725 19.7706 24.2706 19.501 24.2686C19.3296 24.2685 19.1582 24.2684 18.9868 24.2685C18.9063 24.2678 18.8258 24.267 18.7429 24.2663C18.3026 24.2692 17.9841 24.2815 17.6562 24.6094ZM5.3125 31.0937C5.21067 31.3992 5.22414 31.689 5.22551 32.0073C5.22549 32.0767 5.22548 32.1461 5.22547 32.2176C5.22553 32.4471 5.22613 32.6766 5.22675 32.9062C5.22689 33.0652 5.227 33.2243 5.22708 33.3834C5.22738 33.8022 5.22815 34.221 5.22901 34.6398C5.22995 35.1423 5.23031 35.6447 5.23077 36.1471C5.23152 36.9106 5.23302 37.674 5.23438 38.4375C6.83281 38.4375 8.43125 38.4375 10.0781 38.4375C10.0849 37.1677 10.0849 37.1677 10.0896 35.8978C10.091 35.38 10.0926 34.8622 10.0958 34.3444C10.0984 33.927 10.0998 33.5096 10.1004 33.0922C10.1008 32.9328 10.1016 32.7735 10.1029 32.6141C10.1046 32.3912 10.1048 32.1682 10.1047 31.9453C10.1056 31.8792 10.1064 31.8131 10.1073 31.745C10.1059 31.4838 10.0985 31.288 9.97392 31.0552C9.74606 30.8492 9.52342 30.8491 9.23038 30.8468C9.15346 30.846 9.07653 30.8453 8.99727 30.8445C8.91426 30.8442 8.83125 30.8438 8.74573 30.8435C8.66028 30.8431 8.57484 30.8426 8.4868 30.8421C8.30594 30.8414 8.12508 30.8409 7.94422 30.8406C7.66765 30.8398 7.39112 30.8374 7.11456 30.835C6.93888 30.8344 6.7632 30.834 6.58752 30.8337C6.50483 30.8328 6.42214 30.8318 6.33694 30.8308C5.78203 30.8236 5.78203 30.8236 5.3125 31.0937Z" fill="white"/>
<path d="M31.0162 -0.0504593C31.0697 -0.0511438 31.1232 -0.0518283 31.1784 -0.0525336C31.3545 -0.0542464 31.5305 -0.0531171 31.7066 -0.0517945C31.8295 -0.0520578 31.9524 -0.052437 32.0753 -0.052927C32.3324 -0.0535021 32.5896 -0.0526683 32.8467 -0.0508408C33.1759 -0.0486151 33.505 -0.049897 33.8342 -0.0522363C34.0878 -0.0536498 34.3414 -0.0531977 34.5951 -0.0521864C34.7164 -0.0519263 34.8378 -0.0522437 34.9591 -0.053155C35.1289 -0.0541505 35.2986 -0.0526308 35.4684 -0.0504593C35.5649 -0.0501486 35.6614 -0.0498378 35.7608 -0.0495176C36.0848 0.0135165 36.1998 0.139412 36.4064 0.39071C36.5135 0.605024 36.4956 0.777601 36.4971 1.01748C36.4978 1.11632 36.4986 1.21515 36.4993 1.31697C36.4997 1.42539 36.5001 1.53381 36.5003 1.64224C36.5008 1.75318 36.5012 1.86412 36.5017 1.97506C36.5025 2.20788 36.503 2.4407 36.5032 2.67352C36.5037 2.97143 36.5056 3.26931 36.5078 3.56722C36.5092 3.7965 36.5096 4.02578 36.5098 4.25507C36.51 4.36487 36.5106 4.47466 36.5116 4.58446C36.513 4.73833 36.5127 4.89223 36.5123 5.04611C36.5126 5.1336 36.5129 5.22108 36.5132 5.31122C36.4806 5.57907 36.411 5.72269 36.2501 5.93759C35.9374 6.14605 35.6803 6.15899 35.3126 6.09384C35.0973 5.9234 34.9661 5.79135 34.8439 5.54696C34.8316 5.34766 34.8237 5.15015 34.8191 4.95065C34.8175 4.89191 34.8159 4.83317 34.8142 4.77266C34.8091 4.5848 34.8045 4.39694 34.7999 4.20907C34.7965 4.08181 34.7931 3.95455 34.7897 3.82729C34.7813 3.51511 34.7734 3.20291 34.7657 2.89071C34.7236 2.93291 34.6815 2.97512 34.6381 3.0186C33.614 4.0444 32.5897 5.06998 31.5652 6.09533C31.0697 6.59117 30.5743 7.0871 30.0791 7.58319C29.6476 8.01546 29.216 8.4476 28.7842 8.87957C28.5555 9.10841 28.3268 9.33732 28.0983 9.56639C27.8834 9.78182 27.6683 9.99707 27.4531 10.2122C27.374 10.2913 27.2949 10.3705 27.216 10.4498C27.1084 10.5577 27.0006 10.6654 26.8928 10.773C26.8325 10.8334 26.7721 10.8939 26.7099 10.9561C26.456 11.1935 26.2401 11.2143 25.9014 11.2072C25.6654 11.1652 25.5777 11.0948 25.4039 10.9325C25.35 10.8827 25.2961 10.8329 25.2407 10.7816C25.1871 10.73 25.1335 10.6783 25.0782 10.6251C25.0293 10.578 24.9803 10.5309 24.9298 10.4823C24.781 10.3368 24.634 10.1897 24.4874 10.0419C24.4345 9.98891 24.3817 9.93593 24.3272 9.88134C24.1607 9.7144 23.9945 9.54719 23.8282 9.37997C23.7144 9.26576 23.6006 9.15158 23.4867 9.03741C23.2097 8.75955 22.933 8.48145 22.6564 8.20321C22.432 8.30494 22.2716 8.41244 22.0985 8.58711C22.0517 8.63391 22.005 8.6807 21.9568 8.72892C21.9061 8.78039 21.8555 8.83187 21.8033 8.8849C21.7217 8.96685 21.7217 8.96685 21.6385 9.05045C21.456 9.23404 21.274 9.41818 21.0919 9.60231C20.9613 9.73386 20.8307 9.86537 20.7 9.99685C20.4184 10.2803 20.137 10.5639 19.8558 10.8477C19.4112 11.2963 18.9658 11.7441 18.5202 12.1917C18.3677 12.3449 18.2153 12.4981 18.0628 12.6512C18.0247 12.6895 17.9866 12.7278 17.9473 12.7673C17.5137 13.2029 17.0802 13.6388 16.6469 14.0747C16.5875 14.1345 16.5875 14.1345 16.5268 14.1954C15.8849 14.8412 15.2436 15.4877 14.6026 16.1344C13.9443 16.7985 13.285 17.4616 12.6247 18.1237C12.2541 18.4955 11.884 18.8677 11.5151 19.2412C11.1682 19.5925 10.8201 19.9424 10.4709 20.2914C10.3429 20.4198 10.2155 20.5486 10.0885 20.6779C9.91512 20.8544 9.74016 21.029 9.56471 21.2033C9.48979 21.2808 9.48979 21.2808 9.41335 21.3598C9.06995 21.6961 8.84369 21.7952 8.35948 21.797C8.07291 21.676 7.88035 21.5265 7.73448 21.2501C7.68616 20.8773 7.72895 20.6705 7.94394 20.3649C8.14738 20.1074 8.38042 19.8794 8.61283 19.6482C8.66993 19.5908 8.72702 19.5334 8.78585 19.4743C8.97686 19.2825 9.16842 19.0913 9.35998 18.9C9.4972 18.7624 9.63439 18.6249 9.77154 18.4872C10.1052 18.1526 10.4393 17.8184 10.7735 17.4843C11.0451 17.2128 11.3166 16.9412 11.588 16.6695C11.6267 16.6308 11.6653 16.5921 11.7052 16.5522C11.7837 16.4736 11.8622 16.3949 11.9408 16.3163C12.6767 15.5795 13.4132 14.8432 14.1498 14.1071C14.8237 13.4336 15.497 12.7594 16.1699 12.085C16.8612 11.3922 17.5529 10.6998 18.2451 10.008C18.6336 9.61963 19.0219 9.23111 19.4098 8.84213C19.7743 8.47659 20.1394 8.11166 20.5049 7.74714C20.6391 7.61312 20.7732 7.47889 20.9069 7.34445C21.0893 7.16129 21.2723 6.97887 21.4556 6.79662C21.5086 6.74298 21.5617 6.68935 21.6164 6.63408C21.9508 6.30346 22.1923 6.09817 22.6808 6.08895C23.2894 6.26433 23.7465 6.86034 24.1847 7.30203C24.2375 7.35501 24.2904 7.40799 24.3449 7.46258C24.5114 7.62952 24.6776 7.79673 24.8439 7.96395C24.9577 8.07816 25.0715 8.19234 25.1853 8.30651C25.4623 8.58437 25.7391 8.86247 26.0157 9.14071C26.4574 8.77321 26.8649 8.38035 27.2701 7.9733C27.3388 7.90465 27.4075 7.836 27.4782 7.76527C27.6649 7.57853 27.8514 7.39161 28.0379 7.20462C28.2333 7.00866 28.429 6.81294 28.6247 6.61718C28.9945 6.24715 29.3641 5.87691 29.7336 5.50661C30.1546 5.08474 30.5758 4.6631 30.997 4.24148C31.8629 3.37481 32.7285 2.50785 33.5939 1.64071C33.5012 1.64039 33.4086 1.64007 33.3132 1.63974C32.9688 1.63803 32.6245 1.63379 32.2802 1.62879C32.1313 1.62698 31.9824 1.62585 31.8335 1.62543C31.6191 1.62471 31.4049 1.6215 31.1906 1.61782C31.0911 1.61828 31.0911 1.61828 30.9896 1.61875C30.6474 1.61036 30.5094 1.59445 30.2317 1.37603C30.065 1.15434 30.0251 1.05505 30.0294 0.781335C30.0284 0.716882 30.0274 0.652429 30.0263 0.586023C30.1628 0.0724239 30.5293 -0.0488912 31.0162 -0.0504593Z" fill="white"/>
<path d="M6.17188 22.8906C6.3924 22.9886 6.52054 23.069 6.66504 23.2617C6.74439 23.5214 6.7514 23.7138 6.71875 23.9844C6.52752 24.2973 6.41203 24.4272 6.05957 24.5361C5.73502 24.5304 5.5776 24.4836 5.3125 24.2969C5.12572 24.0318 5.07894 23.8743 5.07324 23.5498C5.24342 22.9992 5.61698 22.8099 6.17188 22.8906Z" fill="white"/>
</g>
<defs>
<clipPath id="clip0_2397_1146">
<rect width="40" height="40" fill="white"/>
</clipPath>
</defs>
</svg>
