<svg width="40" height="40" viewBox="0 0 40 40" fill="none" xmlns="http://www.w3.org/2000/svg">
<path d="M11.2415 1.46412C11.9196 1.86846 12.2527 2.38309 12.5 3.12488C12.5 3.74363 12.5 4.36238 12.5 4.99988C14.15 4.99988 15.8 4.99988 17.5 4.99988C17.5 4.38113 17.5 3.76238 17.5 3.12488C17.8339 2.29022 18.1113 1.79629 18.9063 1.40613C19.5559 1.14462 20.3984 1.13307 21.0596 1.37684C21.6494 1.65989 22.0555 2.0689 22.3438 2.65613C22.5 3.12488 22.5 3.12488 22.5 4.99988C24.15 4.99988 25.8 4.99988 27.5 4.99988C27.5 4.38113 27.5 3.76238 27.5 3.12488C27.8339 2.29022 28.1113 1.79629 28.9063 1.40613C29.5559 1.14462 30.3984 1.13307 31.0596 1.37684C31.7249 1.69611 32.1276 2.17381 32.4264 2.84046C32.5344 3.25755 32.5163 3.66289 32.5098 4.09168C32.5091 4.17899 32.5084 4.26631 32.5076 4.35627C32.5058 4.57082 32.5032 4.78534 32.5 4.99988C32.5461 4.99919 32.5921 4.99849 32.6395 4.99778C33.1225 4.99082 33.6054 4.98613 34.0883 4.98272C34.2682 4.98115 34.448 4.97903 34.6277 4.97631C34.8874 4.97248 35.1471 4.97074 35.4068 4.96937C35.4861 4.96775 35.5654 4.96614 35.6471 4.96448C36.5319 4.9642 37.2496 5.24729 37.8906 5.85926C38.8046 6.81665 38.7957 7.84977 38.7904 9.09929C38.7909 9.26901 38.7914 9.43873 38.7921 9.60846C38.7935 10.0673 38.793 10.5262 38.792 10.985C38.7912 11.4657 38.7919 11.9463 38.7924 12.4269C38.793 13.2333 38.7922 14.0397 38.7907 14.8461C38.789 15.7788 38.7896 16.7115 38.7913 17.6442C38.7927 18.4454 38.7929 19.2467 38.7921 20.0479C38.7916 20.5263 38.7916 21.0047 38.7926 21.4831C38.7935 21.9323 38.7929 22.3815 38.7911 22.8307C38.7906 22.9957 38.7908 23.1607 38.7915 23.3258C38.7923 23.5506 38.7912 23.7753 38.7897 24.0001C38.7907 24.0986 38.7907 24.0986 38.7918 24.1992C38.7879 24.4856 38.7767 24.6521 38.601 24.884C38.424 25.0095 38.3396 25.0423 38.125 25.0389C38.0477 25.0402 38.0477 25.0402 37.9688 25.0414C37.8125 24.9999 37.8125 24.9999 37.5 24.6874C37.5 21.078 37.5 17.4686 37.5 13.7499C25.95 13.7499 14.4 13.7499 2.5 13.7499C2.50967 16.9323 2.51934 20.1146 2.5293 23.3934C2.53195 24.3985 2.53461 25.4037 2.53735 26.4392C2.54046 27.3396 2.54046 27.3396 2.54379 28.24C2.54526 28.6413 2.54632 29.0426 2.54709 29.4439C2.54807 29.9558 2.54985 30.4677 2.55213 30.9796C2.55284 31.1674 2.55329 31.3552 2.55346 31.5431C2.55372 31.797 2.55493 32.0509 2.55637 32.3048C2.55622 32.3781 2.55607 32.4514 2.55591 32.527C2.56193 33.2377 2.62968 33.883 3.15765 34.4066C3.73608 34.9181 4.37001 34.9335 5.1055 34.932C5.17842 34.9322 5.25134 34.9323 5.32646 34.9325C5.57044 34.933 5.81441 34.9329 6.05839 34.9328C6.23344 34.9331 6.40849 34.9334 6.58355 34.9337C6.9603 34.9343 7.33706 34.9347 7.71381 34.9349C8.30924 34.9354 8.90467 34.9367 9.5001 34.9382C9.70394 34.9387 9.90777 34.9392 10.1116 34.9396C10.2137 34.9399 10.3157 34.9401 10.4209 34.9404C10.9484 34.9416 11.476 34.9428 12.0035 34.9439C12.0564 34.944 12.1094 34.9441 12.1639 34.9442C13.0225 34.9459 13.8811 34.9467 14.7397 34.9473C15.6215 34.948 16.5032 34.9498 17.385 34.9526C17.88 34.9542 18.375 34.9552 18.87 34.9548C19.3352 34.9544 19.8003 34.9555 20.2655 34.9577C20.4364 34.9582 20.6074 34.9582 20.7783 34.9576C21.0112 34.9569 21.244 34.9582 21.4768 34.9599C21.5449 34.9592 21.613 34.9585 21.6831 34.9579C22.1399 34.9641 22.1399 34.9641 22.3856 35.1489C22.5094 35.3258 22.5424 35.4112 22.5391 35.6249C22.5399 35.6764 22.5407 35.728 22.5415 35.7811C22.4778 36.0211 22.3875 36.1006 22.1875 36.2499C21.943 36.2972 21.7011 36.292 21.4528 36.2896C21.3775 36.2901 21.3022 36.2905 21.2247 36.291C20.9718 36.2923 20.7189 36.2913 20.466 36.2903C20.2849 36.2907 20.1038 36.2913 19.9228 36.292C19.4303 36.2934 18.9378 36.2928 18.4453 36.2919C17.9821 36.2911 17.5189 36.2917 17.0557 36.2922C16.0818 36.293 15.1078 36.292 14.1338 36.2903C13.2993 36.2889 12.4648 36.2892 11.6303 36.2906C10.6606 36.2923 9.69098 36.293 8.72134 36.292C8.20829 36.2915 7.69525 36.2914 7.1822 36.2925C6.69928 36.2934 6.21638 36.2927 5.73345 36.2909C5.55656 36.2905 5.37966 36.2907 5.20277 36.2913C3.99721 36.2956 3.0265 36.266 2.10938 35.3905C1.3626 34.6082 1.20294 33.7827 1.21032 32.728C1.20996 32.6189 1.20946 32.5099 1.20884 32.4008C1.20754 32.1033 1.20818 31.8059 1.20915 31.5084C1.20986 31.1867 1.20876 30.8651 1.20791 30.5434C1.20652 29.9141 1.20682 29.2849 1.20772 28.6556C1.20843 28.144 1.20852 27.6324 1.20818 27.1208C1.20814 27.0478 1.20809 26.9749 1.20804 26.8998C1.20794 26.7516 1.20784 26.6035 1.20773 26.4553C1.20684 25.0673 1.20787 23.6793 1.20955 22.2913C1.21094 21.1013 1.2107 19.9113 1.20926 18.7213C1.20759 17.3382 1.20693 15.955 1.20789 14.5718C1.20799 14.4242 1.20809 14.2766 1.20818 14.129C1.20823 14.0564 1.20828 13.9838 1.20833 13.909C1.2086 13.3982 1.20814 12.8874 1.20741 12.3767C1.20653 11.7539 1.20677 11.1311 1.20843 10.5084C1.20925 10.1908 1.20958 9.87334 1.20854 9.55583C1.20761 9.26475 1.20813 8.97371 1.20979 8.68263C1.2103 8.52836 1.20929 8.37408 1.20821 8.21981C1.21642 7.28113 1.45494 6.5448 2.10938 5.85926C2.83084 5.17052 3.6122 4.94941 4.5932 4.96937C4.67695 4.96981 4.76071 4.97025 4.847 4.97071C5.11125 4.97244 5.37542 4.97636 5.63965 4.98035C5.82016 4.98192 6.00067 4.98335 6.18118 4.98462C6.62082 4.98805 7.0604 4.99326 7.5 4.99988C7.49755 4.92082 7.49755 4.92082 7.49504 4.84016C7.48847 4.59719 7.48446 4.35424 7.48047 4.11121C7.47785 4.02833 7.47523 3.94545 7.47254 3.86005C7.46331 3.10844 7.62568 2.47584 8.14819 1.91639C8.97609 1.17204 10.2295 0.978497 11.2415 1.46412ZM9.14063 2.89051C8.8235 3.29335 8.74163 3.62403 8.73741 4.12731C8.73666 4.20009 8.73591 4.27287 8.73514 4.34785C8.73481 4.42566 8.73447 4.50346 8.73413 4.58362C8.73369 4.66464 8.73324 4.74565 8.73278 4.82912C8.73205 5.00038 8.73153 5.17164 8.73123 5.3429C8.73048 5.60334 8.72805 5.86373 8.72559 6.12415C8.72508 6.29098 8.72467 6.45781 8.72437 6.62464C8.7234 6.70181 8.72244 6.77898 8.72144 6.85849C8.72305 7.36389 8.74402 7.93416 9.09782 8.3299C9.46865 8.64671 9.71845 8.69957 10.1923 8.69343C10.4863 8.66131 10.642 8.55591 10.8594 8.35926C11.1765 7.95642 11.2584 7.62574 11.2626 7.12246C11.2633 7.04968 11.2641 6.9769 11.2649 6.90191C11.2654 6.78521 11.2654 6.78521 11.2659 6.66614C11.2663 6.58513 11.2668 6.50411 11.2672 6.42064C11.268 6.24938 11.2685 6.07813 11.2688 5.90687C11.2695 5.64643 11.272 5.38604 11.2744 5.12562C11.2749 4.95879 11.2753 4.79196 11.2756 4.62513C11.2766 4.54795 11.2776 4.47078 11.2786 4.39127C11.277 3.88588 11.256 3.31561 10.9022 2.91987C10.5313 2.60306 10.2815 2.5502 9.80774 2.55634C9.5137 2.58846 9.35798 2.69386 9.14063 2.89051ZM19.1406 2.89051C18.8235 3.29335 18.7416 3.62403 18.7374 4.12731C18.7367 4.20009 18.7359 4.27287 18.7351 4.34785C18.7348 4.42566 18.7345 4.50346 18.7341 4.58362C18.7337 4.66464 18.7332 4.74565 18.7328 4.82912C18.732 5.00038 18.7315 5.17164 18.7312 5.3429C18.7305 5.60334 18.7281 5.86373 18.7256 6.12415C18.7251 6.29098 18.7247 6.45781 18.7244 6.62464C18.7234 6.70181 18.7224 6.77898 18.7214 6.85849C18.723 7.36389 18.744 7.93416 19.0978 8.3299C19.4687 8.64671 19.7185 8.69957 20.1923 8.69343C20.4863 8.66131 20.642 8.55591 20.8594 8.35926C21.1765 7.95642 21.2584 7.62574 21.2626 7.12246C21.2633 7.04968 21.2641 6.9769 21.2649 6.90191C21.2654 6.78521 21.2654 6.78521 21.2659 6.66614C21.2663 6.58513 21.2668 6.50411 21.2672 6.42064C21.268 6.24938 21.2685 6.07813 21.2688 5.90687C21.2695 5.64643 21.272 5.38604 21.2744 5.12562C21.2749 4.95879 21.2753 4.79196 21.2756 4.62513C21.2766 4.54795 21.2776 4.47078 21.2786 4.39127C21.277 3.88588 21.256 3.31561 20.9022 2.91987C20.5313 2.60306 20.2815 2.5502 19.8077 2.55634C19.5137 2.58846 19.358 2.69386 19.1406 2.89051ZM29.1406 2.89051C28.8235 3.29335 28.7416 3.62403 28.7374 4.12731C28.7367 4.20009 28.7359 4.27287 28.7351 4.34785C28.7348 4.42566 28.7345 4.50346 28.7341 4.58362C28.7337 4.66464 28.7332 4.74565 28.7328 4.82912C28.732 5.00038 28.7315 5.17164 28.7312 5.3429C28.7305 5.60334 28.7281 5.86373 28.7256 6.12415C28.7251 6.29098 28.7247 6.45781 28.7244 6.62464C28.7234 6.70181 28.7224 6.77898 28.7214 6.85849C28.723 7.36389 28.744 7.93416 29.0978 8.3299C29.4687 8.64671 29.7185 8.69957 30.1923 8.69343C30.4863 8.66131 30.642 8.55591 30.8594 8.35926C31.1765 7.95642 31.2584 7.62574 31.2626 7.12246C31.2633 7.04968 31.2641 6.9769 31.2649 6.90191C31.2654 6.78521 31.2654 6.78521 31.2659 6.66614C31.2663 6.58513 31.2668 6.50411 31.2672 6.42064C31.268 6.24938 31.2685 6.07813 31.2688 5.90687C31.2695 5.64643 31.272 5.38604 31.2744 5.12562C31.2749 4.95879 31.2753 4.79196 31.2756 4.62513C31.2766 4.54795 31.2776 4.47078 31.2786 4.39127C31.277 3.88588 31.256 3.31561 30.9022 2.91987C30.5313 2.60306 30.2815 2.5502 29.8077 2.55634C29.5137 2.58846 29.358 2.69386 29.1406 2.89051ZM2.94922 6.98719C1.84938 8.33686 2.5 11.6679 2.5 12.4999C14.05 12.4999 25.6 12.4999 37.5 12.4999C37.8112 9.99558 37.8112 9.99558 37.0313 6.95301C36.4522 6.37812 35.9004 6.24096 35.0954 6.24103C34.9965 6.24164 34.9965 6.24164 34.8956 6.24225C34.7926 6.24242 34.7926 6.24242 34.6875 6.24259C34.4694 6.24302 34.2513 6.244 34.0332 6.245C33.8848 6.24539 33.7364 6.24575 33.588 6.24607C33.2253 6.24693 32.8627 6.24827 32.5 6.24988C32.4989 6.32894 32.4989 6.32894 32.4978 6.4096C32.4935 6.65264 32.487 6.89557 32.4805 7.13855C32.4794 7.22144 32.4783 7.30432 32.4771 7.38971C32.4535 8.15991 32.2803 8.82609 31.7188 9.37488C30.9968 9.91146 30.2532 10.0131 29.375 9.92176C28.7398 9.77148 28.2694 9.45767 27.9102 8.91102C27.393 8.07153 27.5433 7.28802 27.5 6.24988C25.85 6.24988 24.2 6.24988 22.5 6.24988C22.4742 6.86863 22.4484 7.48738 22.4219 8.12488C22.0986 8.93315 21.8572 9.38446 21.0938 9.76551C20.4413 10.0287 19.5979 10.0386 18.9355 9.78992C18.3758 9.52084 18.0122 9.15035 17.7344 8.59363C17.5781 8.12488 17.5781 8.12488 17.5 6.24988C15.85 6.24988 14.2 6.24988 12.5 6.24988C12.4742 6.86863 12.4484 7.48738 12.4219 8.12488C12.0986 8.93315 11.8572 9.38446 11.0938 9.76551C10.4413 10.0287 9.5979 10.0386 8.93555 9.78992C8.3001 9.48444 7.93206 9.03878 7.64832 8.39985C7.54343 7.98897 7.54124 7.58062 7.5293 7.15809C7.52628 7.07077 7.52326 6.98346 7.52014 6.8935C7.51281 6.67897 7.50611 6.46445 7.5 6.24988C7.06783 6.246 6.63567 6.24317 6.20348 6.2413C6.05671 6.24052 5.90995 6.23945 5.76319 6.2381C5.55121 6.23618 5.33925 6.23531 5.12726 6.23462C5.06253 6.23382 4.99781 6.23301 4.93112 6.23218C4.12636 6.23203 3.50588 6.37017 2.94922 6.98719Z" fill="white"/>
<path d="M35.4403 23.9714C37.1726 25.2964 38.3098 27.0746 38.7173 29.2244C38.8556 30.5245 38.844 31.8748 38.4375 33.1251C38.413 33.2009 38.413 33.2009 38.388 33.2782C37.9763 34.5027 37.3074 35.4943 36.4062 36.4064C36.356 36.4623 36.3057 36.5182 36.2539 36.5757C35.0992 37.8307 33.1784 38.6721 31.4833 38.7627C28.7829 38.7985 26.6985 38.2322 24.7265 36.3234C23.1122 34.7065 22.4778 32.6282 22.4752 30.3834C22.4835 29.5937 22.5684 28.8759 22.8125 28.1251C22.837 28.0493 22.837 28.0493 22.862 27.972C23.2737 26.7476 23.9425 25.7559 24.8437 24.8439C24.894 24.788 24.9442 24.7321 24.996 24.6745C27.6273 21.8149 32.408 21.8645 35.4403 23.9714ZM26.0156 25.547C25.9573 25.5974 25.899 25.6479 25.8389 25.6999C24.6468 26.8123 23.8763 28.4755 23.7985 30.0962C23.741 32.1889 24.3229 33.8506 25.708 35.4167C26.9159 36.6904 28.6831 37.4383 30.4284 37.5053C32.2807 37.4703 33.9333 36.8782 35.3125 35.6251C35.3618 35.5821 35.4112 35.5391 35.462 35.4948C36.6349 34.4103 37.3676 32.7407 37.4542 31.1622C37.5198 29.1544 37.0001 27.4303 35.625 25.9376C35.5821 25.8885 35.5392 25.8393 35.495 25.7887C34.3578 24.5562 32.5906 23.8418 30.9356 23.7526C29.0707 23.733 27.4204 24.3269 26.0156 25.547Z" fill="white"/>
<path d="M35 27.8124C35.1953 27.9296 35.1953 27.9296 35.3125 28.1249C35.3674 28.4245 35.3981 28.6203 35.2272 28.8792C34.7164 29.4401 34.1779 29.974 33.6411 30.5099C33.5318 30.6192 33.4227 30.7284 33.3135 30.8377C33.0858 31.0655 32.858 31.2931 32.6301 31.5207C32.3376 31.8127 32.0455 32.1051 31.7534 32.3976C31.5286 32.6227 31.3036 32.8477 31.0785 33.0725C30.9706 33.1803 30.8628 33.2882 30.7551 33.3962C30.6051 33.5463 30.4549 33.6962 30.3046 33.8461C30.26 33.8908 30.2154 33.9356 30.1695 33.9817C29.9034 34.2463 29.7805 34.3621 29.4043 34.414C28.654 34.395 27.9291 33.3315 27.4267 32.8274C27.2693 32.6696 27.1114 32.5122 26.9536 32.3548C26.8534 32.2546 26.7533 32.1544 26.6531 32.0541C26.6059 32.007 26.5587 31.96 26.5101 31.9115C26.1014 31.5005 26.1014 31.5005 26.0693 31.1035C26.074 30.8726 26.0886 30.7897 26.2109 30.5859C26.4317 30.4534 26.6078 30.4098 26.8661 30.4245C27.4982 30.5936 28.0692 31.4195 28.5156 31.8701C28.5918 31.9466 28.668 32.0232 28.7442 32.0997C28.9286 32.285 29.1128 32.4705 29.2969 32.6562C29.6162 32.5296 29.8292 32.3005 30.0655 32.0603C30.1103 32.0155 30.155 31.9706 30.2011 31.9244C30.3487 31.7763 30.4957 31.6277 30.6427 31.4791C30.7452 31.3762 30.8477 31.2732 30.9503 31.1703C31.22 30.8996 31.4893 30.6284 31.7585 30.357C32.1898 29.9224 32.6216 29.4882 33.0537 29.0543C33.2047 28.9024 33.3555 28.7503 33.5063 28.5982C33.5985 28.5055 33.6907 28.4128 33.7828 28.3201C33.8249 28.2775 33.8669 28.2349 33.9103 28.1911C34.2597 27.8405 34.5002 27.7443 35 27.8124Z" fill="white"/>
<path d="M15.3125 28.0835C15.387 28.0832 15.4615 28.0829 15.5383 28.0826C15.6954 28.0823 15.8524 28.0829 16.0095 28.0842C16.2492 28.0859 16.4888 28.0842 16.7285 28.0822C16.8815 28.0824 17.0345 28.0828 17.1875 28.0835C17.2944 28.0825 17.2944 28.0825 17.4035 28.0815C17.8375 28.0879 18.101 28.1373 18.4375 28.4375C18.7434 28.7947 18.7965 29.0938 18.7915 29.5507C18.7919 29.6417 18.7919 29.6417 18.7924 29.7345C18.7926 29.8622 18.792 29.9898 18.7907 30.1175C18.789 30.3119 18.7907 30.5062 18.7927 30.7006C18.7925 30.8252 18.7921 30.9497 18.7915 31.0742C18.7921 31.1318 18.7927 31.1894 18.7934 31.2488C18.7861 31.6522 18.6991 31.8819 18.4375 32.1875C18.0396 32.5424 17.6953 32.546 17.1875 32.5415C17.0757 32.5419 17.0757 32.5419 16.9616 32.5424C16.8046 32.5426 16.6475 32.542 16.4904 32.5407C16.2507 32.539 16.0112 32.5407 15.7714 32.5427C15.6185 32.5425 15.4655 32.5421 15.3125 32.5415C15.2055 32.5424 15.2055 32.5424 15.0964 32.5434C14.6624 32.537 14.3989 32.4876 14.0625 32.1875C13.7565 31.8302 13.7034 31.5312 13.7085 31.0742C13.7082 31.0135 13.7079 30.9529 13.7076 30.8904C13.7073 30.7627 13.7079 30.6351 13.7092 30.5075C13.7109 30.313 13.7092 30.1187 13.7072 29.9243C13.7074 29.7998 13.7078 29.6753 13.7085 29.5507C13.7078 29.4931 13.7072 29.4355 13.7065 29.3761C13.7138 28.9727 13.8008 28.743 14.0625 28.4375C14.4603 28.0826 14.8046 28.079 15.3125 28.0835ZM15 29.375C15 29.9937 15 30.6125 15 31.25C15.825 31.25 16.65 31.25 17.5 31.25C17.5 30.6312 17.5 30.0125 17.5 29.375C16.675 29.375 15.85 29.375 15 29.375Z" fill="white"/>
<path d="M7.81246 28.0835C7.88699 28.0832 7.96151 28.0829 8.03829 28.0826C8.19536 28.0823 8.35243 28.0829 8.50949 28.0842C8.74921 28.0859 8.98876 28.0842 9.22848 28.0822C9.38147 28.0824 9.53447 28.0828 9.68746 28.0835C9.79442 28.0825 9.79442 28.0825 9.90353 28.0815C10.3375 28.0879 10.601 28.1373 10.9375 28.4375C11.2434 28.7947 11.2965 29.0938 11.2915 29.5507C11.2919 29.6417 11.2919 29.6417 11.2924 29.7345C11.2926 29.8622 11.292 29.9898 11.2907 30.1175C11.289 30.3119 11.2907 30.5062 11.2927 30.7006C11.2925 30.8252 11.2921 30.9497 11.2915 31.0742C11.2921 31.1318 11.2927 31.1894 11.2934 31.2488C11.2861 31.6522 11.1991 31.8819 10.9375 32.1875C10.5396 32.5424 10.1953 32.546 9.68746 32.5415C9.57568 32.5419 9.57568 32.5419 9.46163 32.5424C9.30457 32.5426 9.1475 32.542 8.99044 32.5407C8.75071 32.539 8.51117 32.5407 8.27145 32.5427C8.11845 32.5425 7.96546 32.5421 7.81246 32.5415C7.70551 32.5424 7.70551 32.5424 7.5964 32.5434C7.1624 32.537 6.89892 32.4876 6.56246 32.1875C6.25649 31.8302 6.20344 31.5312 6.20846 31.0742C6.20816 31.0135 6.20786 30.9529 6.20755 30.8904C6.20734 30.7627 6.20791 30.6351 6.20922 30.5075C6.2109 30.313 6.20924 30.1187 6.20724 29.9243C6.20745 29.7998 6.20785 29.6753 6.20846 29.5507C6.20783 29.4931 6.20719 29.4355 6.20654 29.3761C6.2138 28.9727 6.3008 28.743 6.56246 28.4375C6.96029 28.0826 7.30463 28.079 7.81246 28.0835ZM7.49996 29.375C7.49996 29.9937 7.49996 30.6125 7.49996 31.25C8.32496 31.25 9.14996 31.25 9.99996 31.25C9.99996 30.6312 9.99996 30.0125 9.99996 29.375C9.17496 29.375 8.34996 29.375 7.49996 29.375Z" fill="white"/>
<path d="M15.3125 22.4585C15.387 22.4582 15.4615 22.4579 15.5383 22.4576C15.6954 22.4573 15.8524 22.4579 16.0095 22.4592C16.2492 22.4609 16.4888 22.4592 16.7285 22.4572C16.8815 22.4574 17.0345 22.4578 17.1875 22.4585C17.2944 22.4575 17.2944 22.4575 17.4035 22.4565C17.8375 22.4629 18.101 22.5123 18.4375 22.8125C18.7434 23.1697 18.7965 23.4688 18.7915 23.9257C18.7919 24.0167 18.7919 24.0167 18.7924 24.1095C18.7926 24.2372 18.792 24.3648 18.7907 24.4925C18.789 24.6869 18.7907 24.8812 18.7927 25.0756C18.7925 25.2002 18.7921 25.3247 18.7915 25.4492C18.7921 25.5068 18.7927 25.5644 18.7934 25.6238C18.7861 26.0272 18.6991 26.2569 18.4375 26.5625C18.0396 26.9174 17.6953 26.921 17.1875 26.9165C17.0757 26.9169 17.0757 26.9169 16.9616 26.9174C16.8046 26.9176 16.6475 26.917 16.4904 26.9157C16.2507 26.914 16.0112 26.9157 15.7714 26.9177C15.6185 26.9175 15.4655 26.9171 15.3125 26.9165C15.2055 26.9174 15.2055 26.9174 15.0964 26.9184C14.6624 26.912 14.3989 26.8626 14.0625 26.5625C13.7565 26.2052 13.7034 25.9062 13.7085 25.4492C13.7082 25.3885 13.7079 25.3279 13.7076 25.2654C13.7073 25.1377 13.7079 25.0101 13.7092 24.8825C13.7109 24.688 13.7092 24.4937 13.7072 24.2993C13.7074 24.1748 13.7078 24.0503 13.7085 23.9257C13.7078 23.8681 13.7072 23.8105 13.7065 23.7511C13.7138 23.3477 13.8008 23.118 14.0625 22.8125C14.4603 22.4576 14.8046 22.454 15.3125 22.4585ZM15 23.75C15 24.3687 15 24.9875 15 25.625C15.825 25.625 16.65 25.625 17.5 25.625C17.5 25.0062 17.5 24.3875 17.5 23.75C16.675 23.75 15.85 23.75 15 23.75Z" fill="white"/>
<path d="M7.81246 22.4585C7.88699 22.4582 7.96151 22.4579 8.03829 22.4576C8.19536 22.4573 8.35243 22.4579 8.50949 22.4592C8.74921 22.4609 8.98876 22.4592 9.22848 22.4572C9.38147 22.4574 9.53447 22.4578 9.68746 22.4585C9.79442 22.4575 9.79442 22.4575 9.90353 22.4565C10.3375 22.4629 10.601 22.5123 10.9375 22.8125C11.2434 23.1697 11.2965 23.4688 11.2915 23.9257C11.2919 24.0167 11.2919 24.0167 11.2924 24.1095C11.2926 24.2372 11.292 24.3648 11.2907 24.4925C11.289 24.6869 11.2907 24.8812 11.2927 25.0756C11.2925 25.2002 11.2921 25.3247 11.2915 25.4492C11.2921 25.5068 11.2927 25.5644 11.2934 25.6238C11.2861 26.0272 11.1991 26.2569 10.9375 26.5625C10.5396 26.9174 10.1953 26.921 9.68746 26.9165C9.57568 26.9169 9.57568 26.9169 9.46163 26.9174C9.30457 26.9176 9.1475 26.917 8.99044 26.9157C8.75071 26.914 8.51117 26.9157 8.27145 26.9177C8.11845 26.9175 7.96546 26.9171 7.81246 26.9165C7.70551 26.9174 7.70551 26.9174 7.5964 26.9184C7.1624 26.912 6.89892 26.8626 6.56246 26.5625C6.25649 26.2052 6.20344 25.9062 6.20846 25.4492C6.20816 25.3885 6.20786 25.3279 6.20755 25.2654C6.20734 25.1377 6.20791 25.0101 6.20922 24.8825C6.2109 24.688 6.20924 24.4937 6.20724 24.2993C6.20745 24.1748 6.20785 24.0503 6.20846 23.9257C6.20783 23.8681 6.20719 23.8105 6.20654 23.7511C6.2138 23.3477 6.3008 23.118 6.56246 22.8125C6.96029 22.4576 7.30463 22.454 7.81246 22.4585ZM7.49996 23.75C7.49996 24.3687 7.49996 24.9875 7.49996 25.625C8.32496 25.625 9.14996 25.625 9.99996 25.625C9.99996 25.0062 9.99996 24.3875 9.99996 23.75C9.17496 23.75 8.34996 23.75 7.49996 23.75Z" fill="white"/>
<path d="M30.3125 16.8335C30.387 16.8332 30.4615 16.8329 30.5383 16.8326C30.6954 16.8323 30.8524 16.8329 31.0095 16.8342C31.2492 16.8359 31.4888 16.8342 31.7285 16.8322C31.8815 16.8324 32.0345 16.8328 32.1875 16.8335C32.2944 16.8325 32.2944 16.8325 32.4035 16.8315C32.8375 16.8379 33.101 16.8873 33.4375 17.1875C33.7434 17.5447 33.7965 17.8438 33.7915 18.3007C33.7919 18.3917 33.7919 18.3917 33.7924 18.4845C33.7926 18.6122 33.792 18.7398 33.7907 18.8675C33.789 19.0619 33.7907 19.2562 33.7927 19.4506C33.7925 19.5752 33.7921 19.6997 33.7915 19.8242C33.7921 19.8818 33.7927 19.9394 33.7934 19.9988C33.7861 20.4022 33.6991 20.6319 33.4375 20.9375C33.0396 21.2924 32.6953 21.296 32.1875 21.2915C32.0757 21.2919 32.0757 21.2919 31.9616 21.2924C31.8046 21.2926 31.6475 21.292 31.4904 21.2907C31.2507 21.289 31.0112 21.2907 30.7714 21.2927C30.6185 21.2925 30.4655 21.2921 30.3125 21.2915C30.2055 21.2924 30.2055 21.2924 30.0964 21.2934C29.6624 21.287 29.3989 21.2376 29.0625 20.9375C28.7565 20.5802 28.7034 20.2812 28.7085 19.8242C28.7082 19.7635 28.7079 19.7029 28.7076 19.6404C28.7073 19.5127 28.7079 19.3851 28.7092 19.2575C28.7109 19.063 28.7092 18.8687 28.7072 18.6743C28.7074 18.5498 28.7078 18.4253 28.7085 18.3007C28.7078 18.2431 28.7072 18.1855 28.7065 18.1261C28.7138 17.7227 28.8008 17.493 29.0625 17.1875C29.4603 16.8326 29.8046 16.829 30.3125 16.8335ZM30 18.125C30 18.7437 30 19.3625 30 20C30.825 20 31.65 20 32.5 20C32.5 19.3812 32.5 18.7625 32.5 18.125C31.675 18.125 30.85 18.125 30 18.125Z" fill="white"/>
<path d="M22.8125 16.8335C22.887 16.8332 22.9615 16.8329 23.0383 16.8326C23.1954 16.8323 23.3524 16.8329 23.5095 16.8342C23.7492 16.8359 23.9888 16.8342 24.2285 16.8322C24.3815 16.8324 24.5345 16.8328 24.6875 16.8335C24.7944 16.8325 24.7944 16.8325 24.9035 16.8315C25.3375 16.8379 25.601 16.8873 25.9375 17.1875C26.2434 17.5447 26.2965 17.8438 26.2915 18.3007C26.2919 18.3917 26.2919 18.3917 26.2924 18.4845C26.2926 18.6122 26.292 18.7398 26.2907 18.8675C26.289 19.0619 26.2907 19.2562 26.2927 19.4506C26.2925 19.5752 26.2921 19.6997 26.2915 19.8242C26.2921 19.8818 26.2927 19.9394 26.2934 19.9988C26.2861 20.4022 26.1991 20.6319 25.9375 20.9375C25.5396 21.2924 25.1953 21.296 24.6875 21.2915C24.5757 21.2919 24.5757 21.2919 24.4616 21.2924C24.3046 21.2926 24.1475 21.292 23.9904 21.2907C23.7507 21.289 23.5112 21.2907 23.2714 21.2927C23.1185 21.2925 22.9655 21.2921 22.8125 21.2915C22.7055 21.2924 22.7055 21.2924 22.5964 21.2934C22.1624 21.287 21.8989 21.2376 21.5625 20.9375C21.2565 20.5802 21.2034 20.2812 21.2085 19.8242C21.2082 19.7635 21.2079 19.7029 21.2076 19.6404C21.2073 19.5127 21.2079 19.3851 21.2092 19.2575C21.2109 19.063 21.2092 18.8687 21.2072 18.6743C21.2074 18.5498 21.2078 18.4253 21.2085 18.3007C21.2078 18.2431 21.2072 18.1855 21.2065 18.1261C21.2138 17.7227 21.3008 17.493 21.5625 17.1875C21.9603 16.8326 22.3046 16.829 22.8125 16.8335ZM22.5 18.125C22.5 18.7437 22.5 19.3625 22.5 20C23.325 20 24.15 20 25 20C25 19.3812 25 18.7625 25 18.125C24.175 18.125 23.35 18.125 22.5 18.125Z" fill="white"/>
<path d="M15.3125 16.8335C15.387 16.8332 15.4615 16.8329 15.5383 16.8326C15.6954 16.8323 15.8524 16.8329 16.0095 16.8342C16.2492 16.8359 16.4888 16.8342 16.7285 16.8322C16.8815 16.8324 17.0345 16.8328 17.1875 16.8335C17.2944 16.8325 17.2944 16.8325 17.4035 16.8315C17.8375 16.8379 18.101 16.8873 18.4375 17.1875C18.7434 17.5447 18.7965 17.8438 18.7915 18.3007C18.7919 18.3917 18.7919 18.3917 18.7924 18.4845C18.7926 18.6122 18.792 18.7398 18.7907 18.8675C18.789 19.0619 18.7907 19.2562 18.7927 19.4506C18.7925 19.5752 18.7921 19.6997 18.7915 19.8242C18.7921 19.8818 18.7927 19.9394 18.7934 19.9988C18.7861 20.4022 18.6991 20.6319 18.4375 20.9375C18.0396 21.2924 17.6953 21.296 17.1875 21.2915C17.0757 21.2919 17.0757 21.2919 16.9616 21.2924C16.8046 21.2926 16.6475 21.292 16.4904 21.2907C16.2507 21.289 16.0112 21.2907 15.7714 21.2927C15.6185 21.2925 15.4655 21.2921 15.3125 21.2915C15.2055 21.2924 15.2055 21.2924 15.0964 21.2934C14.6624 21.287 14.3989 21.2376 14.0625 20.9375C13.7565 20.5802 13.7034 20.2812 13.7085 19.8242C13.7082 19.7635 13.7079 19.7029 13.7076 19.6404C13.7073 19.5127 13.7079 19.3851 13.7092 19.2575C13.7109 19.063 13.7092 18.8687 13.7072 18.6743C13.7074 18.5498 13.7078 18.4253 13.7085 18.3007C13.7078 18.2431 13.7072 18.1855 13.7065 18.1261C13.7138 17.7227 13.8008 17.493 14.0625 17.1875C14.4603 16.8326 14.8046 16.829 15.3125 16.8335ZM15 18.125C15 18.7437 15 19.3625 15 20C15.825 20 16.65 20 17.5 20C17.5 19.3812 17.5 18.7625 17.5 18.125C16.675 18.125 15.85 18.125 15 18.125Z" fill="white"/>
<path d="M7.81246 16.8335C7.88699 16.8332 7.96151 16.8329 8.03829 16.8326C8.19536 16.8323 8.35243 16.8329 8.50949 16.8342C8.74921 16.8359 8.98876 16.8342 9.22848 16.8322C9.38147 16.8324 9.53447 16.8328 9.68746 16.8335C9.79442 16.8325 9.79442 16.8325 9.90353 16.8315C10.3375 16.8379 10.601 16.8873 10.9375 17.1875C11.2434 17.5447 11.2965 17.8438 11.2915 18.3007C11.2919 18.3917 11.2919 18.3917 11.2924 18.4845C11.2926 18.6122 11.292 18.7398 11.2907 18.8675C11.289 19.0619 11.2907 19.2562 11.2927 19.4506C11.2925 19.5752 11.2921 19.6997 11.2915 19.8242C11.2921 19.8818 11.2927 19.9394 11.2934 19.9988C11.2861 20.4022 11.1991 20.6319 10.9375 20.9375C10.5396 21.2924 10.1953 21.296 9.68746 21.2915C9.57568 21.2919 9.57568 21.2919 9.46163 21.2924C9.30457 21.2926 9.1475 21.292 8.99044 21.2907C8.75071 21.289 8.51117 21.2907 8.27145 21.2927C8.11845 21.2925 7.96546 21.2921 7.81246 21.2915C7.70551 21.2924 7.70551 21.2924 7.5964 21.2934C7.1624 21.287 6.89892 21.2376 6.56246 20.9375C6.25649 20.5802 6.20344 20.2812 6.20846 19.8242C6.20816 19.7635 6.20786 19.7029 6.20755 19.6404C6.20734 19.5127 6.20791 19.3851 6.20922 19.2575C6.2109 19.063 6.20924 18.8687 6.20724 18.6743C6.20745 18.5498 6.20785 18.4253 6.20846 18.3007C6.20783 18.2431 6.20719 18.1855 6.20654 18.1261C6.2138 17.7227 6.3008 17.493 6.56246 17.1875C6.96029 16.8326 7.30463 16.829 7.81246 16.8335ZM7.49996 18.125C7.49996 18.7437 7.49996 19.3625 7.49996 20C8.32496 20 9.14996 20 9.99996 20C9.99996 19.3812 9.99996 18.7625 9.99996 18.125C9.17496 18.125 8.34996 18.125 7.49996 18.125Z" fill="white"/>
<path d="M22.7838 22.4585C22.8552 22.4582 22.9266 22.4579 23.0002 22.4576C23.1506 22.4573 23.301 22.4579 23.4513 22.4592C23.6814 22.4609 23.9114 22.4592 24.1415 22.4572C24.2879 22.4574 24.4343 22.4578 24.5807 22.4585C24.6493 22.4578 24.718 22.4572 24.7888 22.4565C25.2641 22.4638 25.2641 22.4638 25.5119 22.649C25.6342 22.8258 25.6674 22.9121 25.664 23.125C25.6648 23.1765 25.6656 23.2281 25.6665 23.2812C25.6037 23.5175 25.5067 23.6014 25.3125 23.75C25.0867 23.7772 24.8917 23.7865 24.6667 23.7805C24.6047 23.78 24.5427 23.7796 24.4789 23.7791C24.2814 23.7774 24.0841 23.7735 23.8867 23.7695C23.7526 23.7679 23.6185 23.7665 23.4845 23.7652C23.1562 23.762 22.8282 23.7559 22.5 23.75C22.5 24.3687 22.5 24.9875 22.5 25.625C22.6547 25.6507 22.8093 25.6765 22.9687 25.7031C23.1615 25.9923 23.1763 26.2271 23.125 26.5625C23.0175 26.7578 23.0175 26.7578 22.8125 26.875C22.4242 26.9388 22.1234 26.9193 21.7675 26.748C21.4476 26.4585 21.2674 26.2247 21.2095 25.7898C21.2075 25.6763 21.2072 25.5627 21.2085 25.4492C21.2082 25.3885 21.2079 25.3279 21.2076 25.2654C21.2073 25.1377 21.2079 25.0101 21.2092 24.8825C21.2109 24.688 21.2092 24.4937 21.2072 24.2993C21.2074 24.1748 21.2078 24.0503 21.2085 23.9257C21.2078 23.8681 21.2072 23.8105 21.2065 23.7511C21.2138 23.3477 21.3008 23.118 21.5625 22.8125C21.955 22.4653 22.2842 22.4538 22.7838 22.4585Z" fill="white"/>
</svg>
