<svg width="40" height="40" viewBox="0 0 40 40" fill="none" xmlns="http://www.w3.org/2000/svg">
<g clip-path="url(#clip0_2397_1228)">
<path d="M22.4268 -0.0340492C22.4859 -0.0338376 22.545 -0.033626 22.6059 -0.0334079C24.719 -0.0220003 26.9688 0.333723 28.5318 1.87849C29.1117 2.47872 29.5464 3.12708 29.8438 3.90638C29.8717 3.97657 29.8996 4.04677 29.9283 4.11909C30.6684 6.13432 30.5067 8.4668 30.1563 10.547C30.1394 10.6531 30.1226 10.7592 30.1059 10.8653C30.0725 11.0721 30.0377 11.2784 30 11.4845C30.0709 11.528 30.1418 11.5715 30.2149 11.6163C30.627 11.9096 30.8623 12.2532 31.0156 12.7345C31.0373 13.0209 31.0373 13.0209 31.0275 13.3244C31.0253 13.4366 31.0232 13.5487 31.021 13.6609C31.0162 13.8347 31.0108 14.0085 31.0049 14.1822C30.9856 14.8075 30.9691 15.3616 31.2523 15.9383C31.6074 16.6669 31.4968 17.8505 31.2842 18.6036C31.1071 19.0877 30.848 19.5058 30.5469 19.922C30.4599 20.0453 30.4599 20.0453 30.3711 20.171C29.4627 21.1 28.3908 21.4845 27.1192 21.587C26.5658 21.5719 25.9678 21.4367 25.4575 21.2275C25.2363 21.1472 25.2363 21.1472 25.0534 21.2599C24.9955 21.3082 24.9376 21.3566 24.878 21.4064C24.2254 21.9057 23.5102 22.1634 22.7344 22.422C22.7344 23.2212 22.7344 24.0204 22.7344 24.8439C22.9791 24.8442 23.2239 24.8445 23.476 24.8449C24.2883 24.8462 25.1006 24.8497 25.9129 24.8542C26.405 24.8569 26.897 24.8588 27.3891 24.8592C27.8648 24.8595 28.3404 24.8617 28.8161 24.8652C28.9967 24.8663 29.1774 24.8666 29.3581 24.8662C30.9973 24.8637 32.2761 25.1057 33.5282 26.2553C34.4746 27.25 34.7797 28.4822 34.9512 29.8048C34.9597 29.8646 34.9683 29.9245 34.977 29.9861C35.0197 30.3557 34.9979 30.565 34.7656 30.8595C34.6211 31.0041 34.42 30.9604 34.227 30.9709C33.9895 30.9229 33.9044 30.8085 33.75 30.6251C33.6921 30.4324 33.6921 30.4324 33.6649 30.2174C33.6538 30.1386 33.6428 30.0597 33.6314 29.9785C33.6206 29.8954 33.6098 29.8123 33.5987 29.7267C33.4286 28.5926 33.1632 27.6117 32.2153 26.8696C31.2152 26.2011 30.1987 26.1517 29.0235 26.1134C28.875 26.1031 28.875 26.1031 28.7235 26.0927C28.1565 26.0769 28.1565 26.0769 27.6786 26.3494C27.499 26.569 27.3421 26.7937 27.1875 27.0314C27.1111 27.1258 27.0332 27.219 26.9528 27.31C26.6352 27.682 26.3195 28.0542 26.0156 28.4376C25.7012 28.834 25.376 29.2206 25.047 29.6049C24.9253 29.7472 24.8065 29.8903 24.6894 30.0364C24.2243 30.6066 23.6971 30.8356 22.9688 30.9376C22.5239 30.9611 22.0796 30.9616 21.6342 30.9611C21.5044 30.9614 21.3745 30.9618 21.2446 30.9621C20.9732 30.9627 20.7018 30.9627 20.4305 30.9623C20.0851 30.9618 19.7397 30.9632 19.3943 30.965C19.1263 30.9661 18.8582 30.9662 18.5902 30.966C18.4629 30.966 18.3357 30.9664 18.2085 30.9672C16.3231 30.9775 16.3231 30.9775 15.6391 30.4042C15.0116 29.779 14.4605 29.0819 13.92 28.3817C13.6071 27.979 13.2752 27.5944 12.9367 27.213C12.8968 27.1677 12.857 27.1225 12.8159 27.0759C12.7555 27.009 12.7555 27.009 12.6939 26.9406C12.5781 26.797 12.5781 26.797 12.4826 26.625C12.372 26.4347 12.2828 26.3087 12.1094 26.172C11.7395 26.09 11.3827 26.1061 11.0059 26.1232C10.8587 26.1254 10.8587 26.1254 10.7086 26.1278C9.42878 26.1583 8.28129 26.3298 7.34377 27.2658C6.65085 28.1163 6.45694 29.1408 6.32355 30.2037C6.30301 30.3585 6.28246 30.5133 6.26192 30.6681C6.24031 30.8322 6.21914 30.9963 6.19809 31.1605C6.15401 31.5041 6.10857 31.8475 6.06294 32.1909C5.95818 32.9808 5.85514 33.7709 5.75216 34.5611C5.65744 35.2876 5.56236 36.0142 5.46582 36.7405C5.42052 37.0817 5.3761 37.4229 5.33234 37.7643C5.31157 37.9253 5.29039 38.0861 5.26903 38.247C5.24303 38.4428 5.21767 38.6387 5.19308 38.8347C5.18138 38.9212 5.16967 39.0077 5.15762 39.0968C5.14787 39.1717 5.13812 39.2467 5.12808 39.3239C5.06542 39.5843 4.95707 39.8087 4.76565 40.0001C4.22171 40.0447 4.22171 40.0447 3.94534 39.8927C3.63604 39.3514 3.86455 38.5233 3.94511 37.9339C3.95756 37.8398 3.97001 37.7457 3.98284 37.6487C4.01685 37.3926 4.05132 37.1366 4.08604 36.8806C4.11516 36.6656 4.14395 36.4505 4.17275 36.2354C4.24083 35.727 4.30945 35.2187 4.37842 34.7104C4.44909 34.1894 4.51888 33.6683 4.58822 33.1472C4.64815 32.697 4.70864 32.2468 4.76956 31.7968C4.80577 31.5292 4.84179 31.2616 4.87727 30.9939C5.40399 27.0358 5.40399 27.0358 6.84317 25.9192C7.41073 25.5069 7.99381 25.1932 8.6719 25.0001C8.71991 24.9864 8.76793 24.9727 8.8174 24.9586C8.99511 24.9197 9.15452 24.9112 9.33637 24.9096C9.40647 24.9089 9.47658 24.9081 9.54882 24.9073C9.62513 24.9069 9.70144 24.9064 9.78007 24.906C9.86088 24.9052 9.9417 24.9044 10.025 24.9036C10.2921 24.9012 10.5593 24.8992 10.8264 24.8973C11.0117 24.8957 11.1969 24.894 11.3821 24.8924C11.8696 24.8881 12.3572 24.8842 12.8447 24.8804C13.3422 24.8765 13.8397 24.8722 14.3372 24.8678C15.3133 24.8594 16.2895 24.8515 17.2656 24.8439C17.2656 24.0447 17.2656 23.2454 17.2656 22.422C17.0771 22.3543 16.8886 22.2867 16.6944 22.2169C14.9888 21.583 13.5968 20.4138 12.8125 18.7501C12.4894 17.9558 12.2511 17.1887 12.2656 16.3283C12.2125 16.3299 12.1594 16.3315 12.1047 16.3332C11.8605 16.3398 11.6163 16.3438 11.3721 16.3478C11.2886 16.3504 11.205 16.353 11.1189 16.3557C10.5213 16.363 9.99912 16.3009 9.54304 15.8835C8.9655 15.2702 8.94364 14.6534 8.94533 13.8429C8.94312 13.7476 8.9409 13.6523 8.93862 13.5541C8.93719 12.8885 9.03565 12.341 9.485 11.8276C9.93349 11.4213 10.4145 11.2939 11.0025 11.2965C11.0866 11.2952 11.0866 11.2952 11.1725 11.294C11.4101 11.2904 11.6478 11.2895 11.8855 11.2883C12.06 11.2871 12.2344 11.2845 12.4088 11.2819C12.4626 11.2821 12.5165 11.2823 12.572 11.2826C12.7393 11.2826 12.7393 11.2826 12.9688 11.2501C13.1419 10.9905 13.1489 10.8862 13.1635 10.5815C13.1686 10.4948 13.1737 10.4082 13.179 10.3189C13.1885 10.1384 13.1974 9.95799 13.2059 9.7775C13.2563 8.9509 13.3961 8.1626 13.9896 7.54865C14.4933 7.12637 15.0052 7.01997 15.6494 7.01673C15.7988 7.01507 15.7988 7.01507 15.9513 7.01338C16.25 7.03138 16.25 7.03138 16.7969 7.18763C16.7969 5.66654 16.7969 4.14544 16.7969 2.57826C14.9927 2.19165 13.6168 2.33043 12.0313 3.28138C11.176 3.85372 10.8008 4.77581 10.5786 5.75056C10.5305 6.15287 10.532 6.5533 10.5322 6.95814C10.5322 7.08924 10.5322 7.08924 10.5321 7.22299C10.536 7.82838 10.5919 8.38974 10.7031 8.98451C10.7397 9.27615 10.7485 9.46516 10.5762 9.71693C10.3467 9.87396 10.2 9.91633 9.9219 9.92201C9.72018 9.83534 9.72018 9.83534 9.53127 9.68763C9.4446 9.46455 9.4446 9.46455 9.39455 9.20423C9.37723 9.11934 9.35991 9.03444 9.34206 8.94697C9.01127 6.93316 9.08869 4.89791 10.2497 3.16145C10.6706 2.58655 11.1837 2.23041 11.7969 1.87513C11.8579 1.83968 11.919 1.80423 11.9818 1.76771C12.3792 1.55366 12.7889 1.40559 13.2178 1.26966C13.2698 1.25318 13.3218 1.2367 13.3753 1.21973C14.4294 0.900297 15.5704 0.922962 16.6318 1.19123C17.1559 1.33635 17.1559 1.33635 17.6679 1.21565C17.7926 1.13362 17.7926 1.13362 17.9199 1.04994C18.3233 0.800632 18.7229 0.603253 19.1699 0.444466C19.2185 0.426534 19.2671 0.408602 19.3172 0.390126C20.3304 0.0434659 21.3644 -0.0430407 22.4268 -0.0340492ZM19.8438 1.56263C19.7496 1.59274 19.6554 1.62285 19.5584 1.65388C19.0182 1.8451 18.4592 2.08786 18.0469 2.50013C18.0396 2.63919 18.0377 2.77853 18.038 2.91778C18.038 3.00693 18.038 3.09608 18.038 3.18793C18.0384 3.28493 18.0389 3.38194 18.0393 3.48188C18.0394 3.58061 18.0395 3.67934 18.0396 3.78107C18.04 4.04398 18.0407 4.30688 18.0415 4.56979C18.0423 4.8379 18.0427 5.10601 18.0431 5.37412C18.0439 5.9005 18.0453 6.42688 18.0469 6.95326C18.1346 6.93104 18.2223 6.90882 18.3127 6.88593C19.4361 6.60731 20.6975 6.37306 21.7578 6.97767C22.402 7.44069 22.7765 8.21616 23.1739 8.88685C23.858 10.0386 24.6155 10.7837 25.9375 11.172C26.8288 11.3981 27.7596 11.3442 28.6719 11.3283C28.7359 11.0175 28.7992 10.7066 28.8623 10.3956C28.8803 10.3084 28.8983 10.2211 28.9168 10.1312C29.3774 7.85477 29.366 5.37136 28.1192 3.34242C27.2354 2.06597 25.9104 1.63936 24.4571 1.36247C23.7986 1.24951 23.1528 1.21996 22.4854 1.22083C22.4061 1.22086 22.4061 1.22086 22.3251 1.22088C21.461 1.22357 20.6678 1.29882 19.8438 1.56263ZM17.8052 8.64515C17.5631 8.8158 17.4001 8.78764 17.1094 8.75013C16.9027 8.66126 16.7072 8.56143 16.5103 8.45258C16.1054 8.24572 15.6817 8.23192 15.2344 8.28138C14.8832 8.44103 14.7259 8.60682 14.5813 8.9629C14.4733 9.34692 14.4729 9.75012 14.4531 10.1466C14.3808 11.5919 14.3808 11.5919 13.9502 12.0997C13.75 12.2658 13.75 12.2658 13.5835 12.3464C13.339 12.6039 13.3962 12.9097 13.4015 13.2509C13.4016 13.3258 13.4017 13.4007 13.4017 13.4779C13.4022 13.6371 13.4034 13.7963 13.4054 13.9555C13.4082 14.1952 13.4086 14.4348 13.4085 14.6745C13.4156 16.6797 13.7334 18.355 15.1581 19.854C16.2283 20.8704 17.5757 21.3346 19.0351 21.3469C19.1077 21.3475 19.1804 21.3481 19.2553 21.3488C19.4091 21.3499 19.5628 21.3507 19.7166 21.3513C19.8716 21.3522 20.0266 21.3538 20.1816 21.3561C21.9927 21.3832 23.5656 21.0696 24.9219 19.7658C26.1734 18.4837 26.5798 16.9164 26.5702 15.1704C26.57 15.0935 26.5699 15.0166 26.5698 14.9373C26.5694 14.6946 26.5684 14.4518 26.5674 14.2091C26.567 14.0433 26.5667 13.8775 26.5663 13.7117C26.5655 13.3078 26.5641 12.904 26.5625 12.5001C26.4687 12.481 26.3749 12.4618 26.2783 12.4421C24.9953 12.1733 24.9953 12.1733 24.4922 11.8947C24.4413 11.8676 24.3905 11.8406 24.3381 11.8128C23.187 11.1829 22.5578 10.2508 21.9161 9.14303C21.5024 8.3473 21.5024 8.3473 20.7999 7.84376C19.6683 7.64232 18.6939 7.94215 17.8052 8.64515ZM10.3824 12.7214C10.1637 13.0871 10.1774 13.4097 10.1856 13.8283C10.1841 13.9052 10.1825 13.9821 10.181 14.0614C10.1834 14.4123 10.2001 14.6303 10.3824 14.9351C10.7337 15.1424 11.0316 15.1209 11.4307 15.1027C11.8053 15.0906 11.8053 15.0906 12.1875 15.0783C12.1875 14.2533 12.1875 13.4283 12.1875 12.5783C11.9378 12.5702 11.688 12.5621 11.4307 12.5538C11.3527 12.5503 11.2747 12.5467 11.1943 12.5431C10.8643 12.5379 10.6713 12.551 10.3824 12.7214ZM27.8125 12.5783C27.8125 13.4033 27.8125 14.2283 27.8125 15.0783C28.0623 15.0863 28.312 15.0944 28.5694 15.1027C28.6864 15.108 28.6864 15.108 28.8058 15.1134C29.1358 15.1186 29.3288 15.1055 29.6176 14.9351C29.8364 14.5694 29.8227 14.2468 29.8145 13.8283C29.816 13.7513 29.8175 13.6744 29.8191 13.5951C29.8167 13.2442 29.8 13.0262 29.6176 12.7214C29.2663 12.5141 28.9685 12.5356 28.5694 12.5538C28.1947 12.5659 28.1947 12.5659 27.8125 12.5783ZM29.6094 16.2501C29.4653 16.2618 29.3208 16.2695 29.1764 16.2748C29.0506 16.2798 29.0506 16.2798 28.9223 16.2848C28.8348 16.2878 28.7474 16.2909 28.6572 16.2941C28.5689 16.2974 28.4805 16.3008 28.3895 16.3043C28.1711 16.3126 27.9528 16.3206 27.7344 16.3283C27.7229 16.4096 27.7114 16.491 27.6996 16.5748C27.5006 17.8859 27.0779 18.911 26.3281 20.0001C26.3024 20.0517 26.2766 20.1033 26.25 20.1564C26.9942 20.4045 27.7742 20.3465 28.4891 20.0221C29.2175 19.6233 29.7559 19.0451 30.0733 18.2716C30.262 17.6204 30.2452 16.8002 30 16.172C29.8273 16.1638 29.8273 16.1638 29.6094 16.2501ZM18.5938 22.5783C18.5805 23.4313 18.5805 23.4313 18.5705 24.2844C18.5682 24.3921 18.5658 24.4999 18.5633 24.6077C18.5632 24.6626 18.5631 24.7176 18.563 24.7742C18.5516 25.1707 18.4517 25.3971 18.2031 25.7033C17.923 25.9238 17.6993 26.0521 17.3438 26.0939C17.5687 26.4464 17.8157 26.7609 18.0908 27.0753C18.1742 27.1715 18.2575 27.2678 18.3408 27.364C18.3828 27.4125 18.4248 27.461 18.4682 27.5109C18.6648 27.7386 18.8588 27.9684 19.0528 28.1984C19.3411 28.5398 19.6304 28.8802 19.9219 29.2189C20.1526 29.1165 20.2991 29.0131 20.4624 28.8212C20.5036 28.7733 20.5448 28.7253 20.5873 28.6759C20.6303 28.6247 20.6734 28.5734 20.7178 28.5206C20.7628 28.4679 20.8078 28.4151 20.8541 28.3608C21.1691 27.9903 21.4797 27.6163 21.7856 27.2383C21.9071 27.0882 22.0293 26.939 22.1524 26.7903C22.2172 26.7119 22.2819 26.6336 22.3487 26.5529C22.4076 26.4818 22.4665 26.4107 22.5272 26.3374C22.6643 26.1967 22.6643 26.1967 22.6563 26.0939C22.61 26.0824 22.5638 26.0709 22.5162 26.0591C22.0509 25.927 21.8352 25.7913 21.5625 25.3908C21.4432 25.1521 21.4656 24.9004 21.4597 24.6382C21.4582 24.5861 21.4568 24.5341 21.4553 24.4804C21.4499 24.2858 21.4452 24.0912 21.4405 23.8966C21.4235 23.244 21.4235 23.244 21.4063 22.5783C20.4781 22.5783 19.55 22.5783 18.5938 22.5783ZM13.75 26.0939C13.9743 26.446 14.2214 26.7575 14.4971 27.0704C14.8258 27.4481 15.1425 27.832 15.4492 28.2277C15.5856 28.4021 15.7224 28.5762 15.8594 28.7501C15.9157 28.8216 15.972 28.8931 16.03 28.9668C16.0817 29.029 16.1333 29.0913 16.1865 29.1554C16.251 29.2344 16.251 29.2344 16.3169 29.315C16.7847 29.7011 17.3069 29.7198 17.8906 29.7023C17.9586 29.7012 18.0266 29.7002 18.0966 29.6991C18.2624 29.6963 18.4281 29.6921 18.5938 29.6876C18.4931 29.4698 18.3839 29.2978 18.2248 29.1185C18.1831 29.071 18.1414 29.0236 18.0985 28.9747C18.054 28.9248 18.0096 28.8748 17.9639 28.8234C17.871 28.7177 17.7783 28.6119 17.6856 28.506C17.6403 28.4542 17.5949 28.4025 17.5482 28.3491C17.3834 28.1588 17.2239 27.9644 17.0655 27.7687C16.7874 27.4256 16.5032 27.0884 16.2158 26.7531C16.1752 26.7055 16.1345 26.658 16.0925 26.609C15.8224 26.2411 15.8224 26.2411 15.4352 26.0761C15.3186 26.0774 15.3186 26.0774 15.1996 26.0786C15.0735 26.0794 15.0735 26.0794 14.9448 26.0801C14.8567 26.0815 14.7685 26.0828 14.6778 26.0841C14.5447 26.0852 14.5447 26.0852 14.4089 26.0863C14.1893 26.0881 13.9696 26.0907 13.75 26.0939ZM23.6841 26.7698C23.6285 26.8562 23.5729 26.9425 23.5156 27.0314C23.4018 27.1727 23.2862 27.3128 23.169 27.4513C23.113 27.5208 23.057 27.5903 22.9993 27.6619C22.7064 28.0208 22.4034 28.371 22.1012 28.7221C22.0646 28.7647 22.028 28.8074 21.9903 28.8513C21.9083 28.946 21.8256 29.04 21.7424 29.1336C21.6994 29.1823 21.6565 29.231 21.6123 29.2811C21.5729 29.3253 21.5334 29.3695 21.4928 29.415C21.3907 29.5281 21.3907 29.5281 21.4063 29.6876C21.6407 29.694 21.8749 29.6986 22.1094 29.7023C22.2077 29.7052 22.2077 29.7052 22.3081 29.7082C22.8487 29.7145 23.29 29.6479 23.7085 29.2869C23.7609 29.2242 23.8133 29.1615 23.8672 29.0968C23.9262 29.0271 23.9852 28.9574 24.046 28.8856C24.103 28.8151 24.16 28.7446 24.2188 28.672C24.2693 28.6096 24.3199 28.5471 24.372 28.4828C24.4733 28.3563 24.5741 28.2293 24.6744 28.1019C24.8712 27.8566 25.0742 27.6173 25.2783 27.3781C25.8925 26.7779 25.8925 26.7779 26.25 26.0939C24.7703 25.9221 24.7703 25.9221 23.6841 26.7698Z" fill="white"/>
<path d="M9.95385 32.8427C10.0756 32.8424 10.1973 32.8419 10.319 32.8413C10.6481 32.8402 10.9772 32.8416 11.3063 32.8434C11.6513 32.845 11.9963 32.8445 12.3413 32.8443C12.9204 32.8443 13.4995 32.8459 14.0786 32.8484C14.7477 32.8513 15.4167 32.8519 16.0858 32.8514C16.7303 32.8509 17.3747 32.8517 18.0192 32.8533C18.2931 32.8539 18.5671 32.8541 18.841 32.854C19.1635 32.8539 19.4861 32.855 19.8086 32.8571C19.9269 32.8576 20.0451 32.8578 20.1633 32.8575C20.325 32.8572 20.4865 32.8584 20.6482 32.8599C20.7385 32.8602 20.8289 32.8605 20.922 32.8608C21.3285 32.9095 21.6351 33.0736 21.8946 33.3888C21.932 33.4329 21.9695 33.477 22.0081 33.5224C22.2479 33.8764 22.2858 34.1871 22.2884 34.6099C22.2889 34.6635 22.2894 34.717 22.29 34.7721C22.2914 34.9482 22.2917 35.1243 22.2919 35.3004C22.2924 35.4233 22.2929 35.5461 22.2935 35.669C22.2944 35.9262 22.2947 36.1833 22.2946 36.4405C22.2946 36.7697 22.2967 37.0988 22.2994 37.428C22.3012 37.6816 22.3015 37.9352 22.3014 38.1888C22.3016 38.3101 22.3023 38.4315 22.3035 38.5528C22.305 38.7226 22.3046 38.8923 22.3036 39.0621C22.3038 39.1586 22.3041 39.2551 22.3043 39.3545C22.2586 39.6563 22.1666 39.786 21.9532 40.0001C21.7969 40.0492 21.7969 40.0492 21.6407 40.044C21.5891 40.0441 21.5375 40.0442 21.4844 40.0443C21.2545 39.9792 21.1643 39.8736 21.0157 39.6876C20.9756 39.4459 20.9756 39.4459 20.9743 39.1585C20.9736 39.106 20.9729 39.0535 20.9722 38.9994C20.9703 38.8265 20.9706 38.6536 20.9708 38.4806C20.9698 38.3604 20.9687 38.2402 20.9675 38.1199C20.9645 37.8039 20.9633 37.4879 20.9625 37.1718C20.961 36.6651 20.9566 36.1583 20.9525 35.6516C20.9513 35.4743 20.9507 35.297 20.9503 35.1197C20.9497 35.0117 20.9492 34.9037 20.9486 34.7957C20.9484 34.7011 20.9481 34.6064 20.9478 34.5089C20.9617 34.3036 20.9617 34.3036 20.8594 34.2188C20.6513 34.2063 20.4449 34.1986 20.2366 34.1941C20.1742 34.1925 20.1119 34.1909 20.0477 34.1892C19.8479 34.1841 19.6481 34.1795 19.4483 34.1749C19.3131 34.1715 19.178 34.1681 19.0429 34.1647C18.7109 34.1563 18.3789 34.1484 18.0469 34.1407C18.0491 34.278 18.0491 34.278 18.0514 34.418C18.0526 34.5391 18.0537 34.6602 18.0549 34.7813C18.0559 34.8415 18.057 34.9017 18.0581 34.9637C18.0613 35.4258 18.0175 35.7139 17.7344 36.0938C17.3748 36.3801 17.0952 36.4936 16.6404 36.4971C16.5609 36.4978 16.4813 36.4986 16.3994 36.4993C16.3134 36.4997 16.2275 36.5 16.139 36.5003C16.0504 36.5008 15.9619 36.5012 15.8706 36.5017C15.6831 36.5024 15.4955 36.5029 15.308 36.5032C15.0218 36.504 14.7357 36.5064 14.4495 36.5089C14.2672 36.5094 14.0849 36.5098 13.9026 36.5101C13.8173 36.5111 13.732 36.512 13.6441 36.513C13.1253 36.5115 12.6921 36.4882 12.2858 36.1302C12.0591 35.8245 11.943 35.6633 11.9455 35.2851C11.9457 35.2252 11.9459 35.1654 11.9461 35.1037C11.9468 35.0276 11.9476 34.9515 11.9483 34.8731C11.9499 34.6314 11.9515 34.3897 11.9532 34.1407C10.9993 34.1665 10.0454 34.1923 9.06254 34.2188C9.05962 34.5978 9.0567 34.9768 9.05369 35.3672C9.05133 35.6075 9.04889 35.8479 9.04622 36.0882C9.04197 36.4695 9.03798 36.8508 9.03548 37.2321C9.03344 37.5396 9.03029 37.8471 9.02636 38.1546C9.02505 38.2718 9.02415 38.389 9.02367 38.5062C9.02291 38.6706 9.02072 38.8349 9.0182 38.9993C9.01733 39.0928 9.01646 39.1863 9.01557 39.2827C8.97862 39.5776 8.88373 39.7883 8.67192 40.0001C8.10822 40.0463 8.10822 40.0463 7.88299 39.8765C7.68139 39.6202 7.69431 39.4555 7.69274 39.1313C7.69207 39.0759 7.6914 39.0205 7.6907 38.9634C7.68893 38.7803 7.68946 38.5974 7.69017 38.4144C7.68976 38.2867 7.68927 38.1591 7.6887 38.0314C7.68789 37.7637 7.68824 37.496 7.68938 37.2283C7.69072 36.8865 7.6889 36.5447 7.68614 36.2028C7.68442 35.939 7.68454 35.6752 7.68519 35.4114C7.68525 35.2854 7.68472 35.1595 7.68356 35.0335C7.6736 33.7488 7.6736 33.7488 8.12504 33.2813C8.65425 32.7899 9.27542 32.8362 9.95385 32.8427ZM13.2032 34.1407C13.2032 34.5017 13.2032 34.8626 13.2032 35.2345C14.3891 35.2345 15.575 35.2345 16.7969 35.2345C16.7969 34.8735 16.7969 34.5126 16.7969 34.1407C15.611 34.1407 14.425 34.1407 13.2032 34.1407Z" fill="white"/>
<path d="M27.0868 33.1741C27.1859 33.173 27.1859 33.173 27.287 33.1719C27.4266 33.1708 27.5662 33.1701 27.7058 33.1698C27.9187 33.1689 28.1313 33.165 28.3441 33.1611C28.48 33.1603 28.6159 33.1598 28.7518 33.1594C28.8467 33.1571 28.8467 33.1571 28.9435 33.1548C29.2573 33.1573 29.4688 33.1816 29.7216 33.3767C30.1342 33.8237 30.1067 34.2543 30.1074 34.8339C30.1093 34.9095 30.1112 34.9852 30.1132 35.0631C30.1152 35.5528 30.0718 35.8603 29.7656 36.2499C29.4028 36.4779 29.0886 36.519 28.6694 36.5154C28.6105 36.5157 28.5516 36.5159 28.4909 36.5161C28.3669 36.5163 28.243 36.5158 28.119 36.5149C27.9302 36.5136 27.7416 36.5148 27.5528 36.5163C27.4318 36.5162 27.3109 36.5159 27.1899 36.5154C27.1061 36.5161 27.1061 36.5161 27.0205 36.5169C26.5491 36.5103 26.2473 36.4007 25.9108 36.0703C25.7561 35.8184 25.741 35.6675 25.7397 35.3735C25.7393 35.2813 25.7389 35.1892 25.7385 35.0942C25.7397 34.9987 25.7409 34.9031 25.7422 34.8046C25.741 34.709 25.7398 34.6135 25.7385 34.515C25.7389 34.4229 25.7393 34.3307 25.7397 34.2358C25.7401 34.1519 25.7405 34.0681 25.7408 33.9817C25.7994 33.6458 25.9584 33.4616 26.227 33.2586C26.5095 33.1711 26.7937 33.176 27.0868 33.1741ZM27.0312 34.453C27.0312 34.7109 27.0312 34.9687 27.0312 35.2343C27.6242 35.2343 28.2172 35.2343 28.8281 35.2343C28.8281 34.9765 28.8281 34.7187 28.8281 34.453C28.2352 34.453 27.6422 34.453 27.0312 34.453Z" fill="white"/>
<path d="M35.0781 32.5001C35.2668 32.7067 35.3445 32.8698 35.3845 33.1446C35.3951 33.2144 35.4056 33.2842 35.4165 33.3561C35.4327 33.4738 35.4327 33.4738 35.4492 33.5938C35.4675 33.72 35.4675 33.72 35.4862 33.8486C35.5241 34.1131 35.5608 34.3777 35.5972 34.6424C35.6286 34.8699 35.6605 35.0974 35.6925 35.3248C35.7557 35.7755 35.8181 36.2263 35.88 36.6772C35.9052 36.8604 35.9305 37.0436 35.956 37.2267C35.9923 37.4887 36.0279 37.7507 36.0632 38.0128C36.0742 38.0912 36.0852 38.1696 36.0965 38.2503C36.2659 39.5231 36.2659 39.5231 36.0547 39.8927C35.7601 40.0547 35.5692 40.0373 35.2344 40.0001C35.0398 39.869 35.0022 39.7736 34.9389 39.5462C34.9232 39.4497 34.9075 39.3533 34.8914 39.2539C34.8821 39.1976 34.8729 39.1413 34.8634 39.0833C34.7066 38.1004 34.5762 37.1131 34.4433 36.1268C34.4025 35.8245 34.3608 35.5224 34.319 35.2203C34.2866 34.9856 34.2549 34.7508 34.2233 34.516C34.2082 34.4045 34.1929 34.293 34.1773 34.1816C34.1557 34.0264 34.1351 33.8711 34.1145 33.7158C34.1025 33.6279 34.0906 33.54 34.0782 33.4494C34.0583 33.1375 34.0541 32.8485 34.2481 32.5929C34.5309 32.3862 34.7538 32.4122 35.0781 32.5001Z" fill="white"/>
<path d="M22.1095 4.21881C23.1764 4.44744 23.9986 4.93875 24.7658 5.70318C24.8099 5.74548 24.854 5.78778 24.8994 5.83136C25.3567 6.31044 25.8082 7.07586 25.8302 7.74908C25.7807 8.05128 25.7707 8.10182 25.547 8.28131C25.288 8.36012 25.1418 8.38513 24.8887 8.28283C24.6079 8.06248 24.5012 7.80355 24.3507 7.48541C23.8459 6.48593 23.244 6.00049 22.1815 5.61621C21.9835 5.5561 21.7957 5.51622 21.5919 5.48346C21.3395 5.42802 21.2507 5.39118 21.045 5.21978C20.9019 4.92691 20.9294 4.76393 21.0158 4.45318C21.2894 4.08572 21.6946 4.17322 22.1095 4.21881Z" fill="white"/>
<path d="M19.375 17.1874C19.4523 17.2131 19.5297 17.2389 19.6094 17.2655C19.7394 17.2728 19.8698 17.2756 20 17.2753C20.1015 17.2756 20.1015 17.2756 20.2051 17.2759C20.4024 17.273 20.4024 17.273 20.625 17.1874C20.9004 17.1585 21.1574 17.1336 21.4014 17.2753C21.521 17.4863 21.5528 17.6479 21.5625 17.8905C21.4642 18.1853 21.3051 18.3173 21.04 18.4618C20.4176 18.7114 19.5824 18.7114 18.96 18.4618C18.6949 18.3173 18.5358 18.1853 18.4375 17.8905C18.4472 17.6479 18.479 17.4863 18.5986 17.2753C18.8426 17.1336 19.0996 17.1585 19.375 17.1874Z" fill="white"/>
<path d="M20.3125 13.5937C20.4816 13.7029 20.4816 13.7029 20.625 13.9062C20.672 14.1786 20.6686 14.4459 20.6641 14.7216C20.6653 14.7952 20.6665 14.8688 20.6677 14.9446C20.6658 15.2825 20.6557 15.4931 20.4858 15.7907C20.3043 15.9444 20.2341 15.9908 20 15.9863C19.9484 15.9873 19.8969 15.9883 19.8438 15.9893C19.5834 15.9029 19.5105 15.7843 19.375 15.5468C19.3298 15.2708 19.3314 15.0008 19.3359 14.7216C19.3347 14.6478 19.3335 14.5739 19.3323 14.4978C19.3353 13.9601 19.3353 13.9601 19.5239 13.7039C19.8226 13.5027 19.9597 13.502 20.3125 13.5937Z" fill="white"/>
</g>
<defs>
<clipPath id="clip0_2397_1228">
<rect width="40" height="40" fill="white"/>
</clipPath>
</defs>
</svg>
