<svg width="40" height="40" viewBox="0 0 40 40" fill="none" xmlns="http://www.w3.org/2000/svg">
<path d="M26.6667 6.66675H13.3333C11.4924 6.66675 10 8.15913 10 10.0001V30.0001C10 31.841 11.4924 33.3334 13.3333 33.3334H26.6667C28.5076 33.3334 30 31.841 30 30.0001V10.0001C30 8.15913 28.5076 6.66675 26.6667 6.66675Z" stroke="white" stroke-width="2"/>
<path d="M22.5 3.33325H17.5C17.0397 3.33325 16.6666 3.70635 16.6666 4.16659V7.49992C16.6666 7.96016 17.0397 8.33325 17.5 8.33325H22.5C22.9602 8.33325 23.3333 7.96016 23.3333 7.49992V4.16659C23.3333 3.70635 22.9602 3.33325 22.5 3.33325Z" stroke="white" stroke-width="2"/>
<path d="M13.3334 13.3333H26.6667" stroke="white" stroke-width="2" stroke-linecap="round"/>
<path d="M13.3334 20H26.6667" stroke="white" stroke-width="2" stroke-linecap="round"/>
<path d="M13.3334 26.6667H26.6667" stroke="white" stroke-width="2" stroke-linecap="round"/>
</svg>
