<svg width="40" height="40" viewBox="0 0 40 40" fill="none" xmlns="http://www.w3.org/2000/svg">
<path d="M31.6667 11.6667H8.33333C6.49238 11.6667 5 13.1591 5 15.0001V28.3334C5 30.1744 6.49238 31.6667 8.33333 31.6667H31.6667C33.5076 31.6667 35 30.1744 35 28.3334V15.0001C35 13.1591 33.5076 11.6667 31.6667 11.6667Z" stroke="white" stroke-width="3"/>
<path d="M24.9999 6.66675H14.9999C14.0794 6.66675 13.3333 7.41294 13.3333 8.33341V10.0001C13.3333 10.9206 14.0794 11.6667 14.9999 11.6667H24.9999C25.9204 11.6667 26.6666 10.9206 26.6666 10.0001V8.33341C26.6666 7.41294 25.9204 6.66675 24.9999 6.66675Z" stroke="white" stroke-width="3"/>
<path d="M12.5 20H10.8333C10.3731 20 10 20.3731 10 20.8333V27.5C10 27.9602 10.3731 28.3333 10.8333 28.3333H12.5C12.9602 28.3333 13.3333 27.9602 13.3333 27.5V20.8333C13.3333 20.3731 12.9602 20 12.5 20Z" fill="white"/>
<path d="M19.1667 16.6667H17.5001C17.0398 16.6667 16.6667 17.0398 16.6667 17.5001V27.5001C16.6667 27.9603 17.0398 28.3334 17.5001 28.3334H19.1667C19.627 28.3334 20.0001 27.9603 20.0001 27.5001V17.5001C20.0001 17.0398 19.627 16.6667 19.1667 16.6667Z" fill="white"/>
<path d="M25.8333 21.6667H24.1666C23.7063 21.6667 23.3333 22.0398 23.3333 22.5001V27.5001C23.3333 27.9603 23.7063 28.3334 24.1666 28.3334H25.8333C26.2935 28.3334 26.6666 27.9603 26.6666 27.5001V22.5001C26.6666 22.0398 26.2935 21.6667 25.8333 21.6667Z" fill="white"/>
</svg>
