<svg width="40" height="40" viewBox="0 0 40 40" fill="none" xmlns="http://www.w3.org/2000/svg">
<g clip-path="url(#clip0_2397_1119)">
<path d="M21.8357 1.05964C22.0312 1.12844 22.2267 1.19704 22.4224 1.26537C22.8143 1.40261 23.2057 1.54129 23.5968 1.6811C24.0656 1.84869 24.5352 2.01374 25.0056 2.17689C25.1385 2.22302 25.2714 2.26914 25.4043 2.31527C25.4689 2.3377 25.5335 2.36012 25.6001 2.38323C25.8653 2.47548 26.1303 2.56841 26.3953 2.66132C27.5044 3.05002 28.6158 3.43187 29.7273 3.81387C31.1366 4.2983 32.5458 4.78298 33.9531 5.27305C34.0912 5.32113 34.2293 5.36916 34.3675 5.41713C34.7301 5.54316 35.0925 5.67005 35.4542 5.7988C35.5705 5.84015 35.6869 5.88131 35.8033 5.92228C35.9764 5.98343 36.1492 6.04564 36.3218 6.10817C36.3732 6.12618 36.4247 6.1442 36.4777 6.16276C36.9025 6.31887 37.1091 6.49148 37.3435 6.87507C37.4264 7.12544 37.4336 7.36198 37.4377 7.62466C37.4393 7.71223 37.4408 7.7998 37.4424 7.89002C37.4444 8.03114 37.4444 8.03114 37.4464 8.17512C37.448 8.27179 37.4496 8.36845 37.4513 8.46805C37.4555 8.7244 37.4595 8.98076 37.4632 9.23712C37.4672 9.49897 37.4715 9.76081 37.4758 10.0227C37.4842 10.536 37.4921 11.0493 37.4998 11.5626C37.5527 11.5874 37.6055 11.6122 37.66 11.6377C37.7647 11.6881 37.7647 11.6881 37.8715 11.7396C37.9405 11.7724 38.0095 11.8053 38.0806 11.8391C38.5486 12.1054 38.8898 12.5702 39.0888 13.0665C39.2481 13.73 39.2459 14.4846 38.9039 15.0864C38.7576 15.3714 38.731 15.561 38.822 15.8722C38.8597 15.9633 38.8974 16.0545 38.9362 16.1485C38.9564 16.1981 38.9766 16.2477 38.9974 16.2988C39.062 16.4571 39.128 16.6148 39.1941 16.7725C39.2371 16.877 39.28 16.9815 39.3227 17.0861C39.5511 17.6436 39.5511 17.6436 39.7863 18.1982C40.0381 18.7923 40.1609 19.416 39.9253 20.0416C39.631 20.5408 39.2571 20.7908 38.7147 20.9661C38.3779 21.0499 38.048 21.0491 37.7024 21.0468C37.627 21.0471 37.5517 21.0473 37.474 21.0475C37.3157 21.0477 37.1573 21.0472 36.9989 21.0463C36.7582 21.045 36.5176 21.0462 36.2769 21.0477C36.1222 21.0476 35.9675 21.0473 35.8128 21.0468C35.7062 21.0475 35.7062 21.0475 35.5974 21.0483C35.0135 21.0419 34.4312 20.9551 33.9842 20.5469C33.7238 22.1109 33.7287 23.3918 34.1404 24.9219C34.2863 24.9374 34.2863 24.9374 34.4352 24.9531C34.9144 25.0037 35.2452 25.2202 35.5662 25.5665C35.949 26.0465 36.0558 26.5042 36.0154 27.1094C35.9913 27.2141 35.9657 27.3184 35.9373 27.4219C36.0388 27.4155 36.1403 27.4091 36.2449 27.4024C36.7414 27.4055 37.1317 27.5448 37.5037 27.8779C37.9802 28.3928 38.0843 28.8393 38.0714 29.5335C38.0148 30.0654 37.7496 30.4414 37.3435 30.7813C36.9951 31.0212 36.6597 31.139 36.2498 31.2501C35.7741 32.894 35.8348 34.2721 36.2498 35.9376C36.3416 35.944 36.4335 35.9505 36.5281 35.9571C37.0874 36.0301 37.4534 36.3042 37.7949 36.7368C38.1136 37.1982 38.1023 37.7403 38.0467 38.2813C37.9079 38.8005 37.5431 39.1542 37.1092 39.4532C36.7912 39.6085 36.5317 39.6291 36.1796 39.6295C36.1261 39.6298 36.0726 39.6301 36.0174 39.6304C35.8377 39.6311 35.658 39.6307 35.4782 39.6303C35.3482 39.6306 35.2182 39.631 35.0882 39.6314C34.7306 39.6324 34.373 39.6323 34.0154 39.6322C33.6298 39.6321 33.2442 39.633 32.8586 39.6337C32.1029 39.635 31.3472 39.6355 30.5915 39.6356C29.9769 39.6356 29.3624 39.6359 28.7479 39.6364C27.0052 39.6378 25.2626 39.6385 23.5199 39.6384C23.3789 39.6384 23.3789 39.6384 23.2351 39.6384C23.141 39.6384 23.0469 39.6384 22.95 39.6384C21.4263 39.6383 19.9027 39.6398 18.3791 39.642C16.8143 39.6443 15.2495 39.6453 13.6846 39.6452C12.8063 39.6452 11.9279 39.6456 11.0496 39.6473C10.3014 39.6487 9.55316 39.649 8.80495 39.648C8.42348 39.6475 8.04202 39.6474 7.66055 39.6488C7.31064 39.65 6.96077 39.6498 6.61087 39.6484C6.48495 39.6482 6.35902 39.6485 6.2331 39.6494C5.19008 39.6561 4.21041 39.5083 3.27126 39.0186C3.21989 38.9922 3.16852 38.9657 3.11559 38.9384C1.6331 38.1392 0.634509 36.759 0.121849 35.171C-0.280045 33.5042 -0.034895 31.7871 0.815209 30.312C1.10776 29.8366 1.47399 29.4478 1.87478 29.0626C1.92594 29.0108 1.9771 28.959 2.02981 28.9057C2.72402 28.2441 3.61709 27.8326 4.53103 27.5782C4.32448 27.3654 4.11966 27.1705 3.8865 26.9874C2.82023 26.0741 2.21802 24.6477 2.03103 23.2813C1.91799 21.4655 2.35969 19.7742 3.574 18.379C4.46838 17.443 5.72966 16.6687 7.03103 16.4844C7.18572 16.4844 7.3404 16.4844 7.49978 16.4844C7.49978 14.5766 7.49978 12.6688 7.49978 10.7032C7.21619 10.6259 6.93259 10.5485 6.6404 10.4688C6.46513 10.4134 6.29039 10.3563 6.11653 10.2966C6.02345 10.2648 5.93038 10.2329 5.83448 10.2001C5.73589 10.1661 5.6373 10.1321 5.53872 10.098C5.43479 10.0623 5.33086 10.0266 5.22692 9.99094C5.01058 9.91659 4.79432 9.84205 4.5781 9.76736C4.3029 9.67232 4.02752 9.57781 3.75208 9.48345C3.53792 9.41002 3.32386 9.33628 3.10983 9.26246C3.0084 9.22751 2.90693 9.19266 2.80543 9.15791C1.03138 8.54997 1.03138 8.54997 0.694359 7.97798C0.539806 7.61058 0.585031 7.22428 0.712669 6.85554C1.03724 6.3795 1.42772 6.18218 1.95748 6.00776C2.01968 5.98635 2.08189 5.96493 2.14597 5.94286C2.35311 5.87179 2.56071 5.80216 2.76833 5.7325C2.91609 5.68207 3.0638 5.63154 3.21149 5.58092C3.53135 5.4714 3.8514 5.36243 4.17157 5.25379C4.89715 5.00723 5.62106 4.75587 6.34517 4.50504C6.71627 4.3765 7.0875 4.24836 7.45887 4.1206C8.22108 3.85831 8.98304 3.59581 9.7416 3.32313C9.84857 3.28499 9.95554 3.24688 10.0625 3.20879C10.247 3.14285 10.4311 3.07599 10.6148 3.00794C11.0462 2.85453 11.35 2.76206 11.7967 2.8907C12.0169 3.07546 12.0293 3.18977 12.0652 3.47664C12.0239 3.80746 11.9761 3.85913 11.7185 4.06257C11.5029 4.16292 11.2803 4.23528 11.0542 4.30824C10.9875 4.33062 10.9208 4.35299 10.852 4.37604C10.7075 4.42442 10.5628 4.47237 10.418 4.51994C10.1076 4.62195 9.79785 4.72595 9.48805 4.82983C9.32682 4.88388 9.16555 4.93781 9.00426 4.99164C8.25594 5.24163 7.51087 5.50051 6.76641 5.76172C6.42087 5.88292 6.07516 6.00362 5.72945 6.12434C5.62894 6.15945 5.62894 6.15945 5.5264 6.19527C4.86479 6.42631 4.20306 6.65696 3.54062 6.8856C3.42074 6.92703 3.30089 6.9686 3.1811 7.01029C3.01759 7.06719 2.85392 7.12363 2.69021 7.17994C2.59826 7.21176 2.50632 7.24358 2.41158 7.27636C2.18728 7.34382 2.18728 7.34382 1.9529 7.34382C1.9529 7.39539 1.9529 7.44695 1.9529 7.50007C2.05342 7.52065 2.15394 7.54123 2.25751 7.56243C2.65177 7.65026 3.02702 7.77387 3.40737 7.9087C3.51245 7.94544 3.51245 7.94544 3.61964 7.98293C3.76743 8.03468 3.91515 8.08663 4.06281 8.13875C4.28344 8.21663 4.50426 8.29397 4.72512 8.3712C5.65347 8.69658 6.57778 9.03214 7.49978 9.37507C7.50383 9.32732 7.50789 9.27957 7.51206 9.23036C7.51808 9.16744 7.5241 9.10452 7.5303 9.03969C7.53596 8.97743 7.54163 8.91517 7.54746 8.85103C7.62279 8.40789 7.93076 8.13938 8.28103 7.8907C9.01175 7.63606 9.82051 7.56705 10.5857 7.46101C10.6452 7.45267 10.7047 7.44434 10.766 7.43575C16.5283 6.63063 22.3236 6.69452 28.0759 7.54402C28.1299 7.55182 28.1839 7.55962 28.2395 7.56766C29.7836 7.79324 29.7836 7.79324 30.2342 8.28132C30.4211 8.64843 30.5467 8.96047 30.5467 9.37507C30.6306 9.34364 30.7146 9.31221 30.8012 9.27982C31.8711 8.88144 32.9488 8.50682 34.0281 8.13484C34.2896 8.04466 34.5511 7.95443 34.8125 7.86407C34.9736 7.8084 35.1347 7.75284 35.2959 7.69739C35.3677 7.67257 35.4395 7.64775 35.5136 7.62218C35.5767 7.60041 35.6399 7.57864 35.705 7.55621C35.8621 7.50234 35.8621 7.50234 36.0154 7.42195C35.9735 7.40745 35.9317 7.39296 35.8885 7.37803C35.8286 7.35728 35.7687 7.33654 35.7069 7.31518C35.6386 7.2915 35.5702 7.26783 35.4997 7.24344C35.3431 7.18924 35.1866 7.13505 35.03 7.08085C34.5807 6.92532 34.1314 6.7698 33.6821 6.61428C32.7646 6.29669 31.8471 5.97908 30.9296 5.66139C29.5608 5.1874 28.1918 4.71348 26.8226 4.24049C26.7335 4.20971 26.6444 4.17893 26.5526 4.14722C26.1046 3.99245 25.6565 3.83778 25.2084 3.6833C24.3816 3.39813 23.5551 3.11208 22.7297 2.82267C22.3541 2.691 21.9784 2.55976 21.6026 2.42853C21.4245 2.36616 21.2464 2.30356 21.0684 2.24073C20.8223 2.15389 20.576 2.06781 20.3297 1.98189C20.2577 1.95625 20.1857 1.9306 20.1115 1.90419C19.4724 1.68276 18.9677 1.57691 18.3057 1.79542C18.2211 1.82183 18.2211 1.82183 18.1347 1.84878C17.3227 2.10581 16.5197 2.39323 15.7175 2.67923C15.5086 2.75354 15.2992 2.82663 15.0898 2.89955C15.0271 2.92225 14.9645 2.94495 14.8999 2.96833C14.4997 3.10644 14.1736 3.15795 13.7498 3.12507C13.5545 3.003 13.5545 3.003 13.4373 2.81257C13.3958 2.52193 13.3755 2.34879 13.5544 2.10819C13.8204 1.89716 14.0948 1.8068 14.4145 1.6999C14.48 1.67718 14.5456 1.65446 14.6132 1.63105C14.8232 1.55854 15.0335 1.4873 15.2439 1.41609C15.3812 1.36887 15.5184 1.32157 15.6556 1.27418C15.9288 1.17992 16.2025 1.08733 16.4766 0.995634C16.7329 0.909387 16.986 0.817943 17.2382 0.720213C18.9129 0.0838903 20.1938 0.465484 21.8357 1.05964ZM10.0681 8.7989C10.0142 8.80704 9.96031 8.81517 9.90477 8.82356C9.75383 8.84657 9.60306 8.87062 9.45229 8.89473C9.36718 8.90829 9.28207 8.92184 9.19438 8.93581C8.96834 8.97508 8.96834 8.97508 8.74978 9.1407C8.71555 9.3203 8.71555 9.3203 8.72317 9.53136C8.72319 9.61268 8.72321 9.69401 8.72323 9.77779C8.72443 9.86585 8.72564 9.95391 8.72689 10.0446C8.72722 10.1346 8.72755 10.2245 8.7279 10.3172C8.72921 10.6054 8.73215 10.8935 8.73513 11.1817C8.73631 11.3767 8.73738 11.5717 8.73833 11.7667C8.74092 12.2456 8.74485 12.7244 8.74978 13.2032C8.82358 13.2035 8.89737 13.2037 8.97341 13.204C10.7677 13.2103 12.5621 13.2175 14.3564 13.2257C15.2241 13.2296 16.0918 13.2332 16.9595 13.2362C17.7157 13.2387 18.4719 13.2418 19.228 13.2456C19.6285 13.2476 20.029 13.2493 20.4295 13.2503C20.8063 13.2513 21.1831 13.2531 21.5599 13.2553C21.6984 13.256 21.8368 13.2565 21.9753 13.2567C22.164 13.2569 22.3527 13.2581 22.5415 13.2596C22.5965 13.2594 22.6515 13.2593 22.7082 13.2591C22.9882 13.2623 23.2035 13.2753 23.4373 13.4376C23.547 13.657 23.5349 13.8195 23.5154 14.0626C23.4332 14.2315 23.4332 14.2315 23.281 14.3751C23.077 14.4067 22.9054 14.4178 22.7012 14.4156C22.6416 14.4162 22.5821 14.4168 22.5208 14.4174C22.3207 14.419 22.1206 14.4183 21.9205 14.4177C21.7773 14.4184 21.6341 14.4192 21.4909 14.4202C21.1016 14.4224 20.7123 14.4226 20.323 14.4225C19.9163 14.4228 19.5097 14.4248 19.1031 14.4266C18.3328 14.4298 17.5625 14.4314 16.7922 14.4324C15.9153 14.4336 15.0385 14.4366 14.1617 14.4398C12.3577 14.4462 10.5537 14.4504 8.74978 14.4532C8.74978 15.0977 8.74978 15.7423 8.74978 16.4063C15.5302 16.4063 22.3107 16.4063 29.2967 16.4063C29.2967 15.7618 29.2967 15.1173 29.2967 14.4532C29.0174 14.4512 28.7381 14.4492 28.4504 14.4471C28.1805 14.4441 27.9105 14.4406 27.6406 14.437C27.4527 14.4348 27.2649 14.4331 27.077 14.432C26.8072 14.4304 26.5375 14.4267 26.2678 14.4227C26.1835 14.4226 26.0993 14.4225 26.0125 14.4224C25.9343 14.4209 25.8561 14.4193 25.7756 14.4177C25.7067 14.417 25.6378 14.4163 25.5669 14.4156C25.3904 14.3751 25.3904 14.3751 25.251 14.2311C25.1227 14.0034 25.1232 13.8511 25.156 13.5938C25.2767 13.4347 25.3686 13.3703 25.5467 13.2813C25.6671 13.2721 25.7879 13.2675 25.9086 13.2653C25.9837 13.2637 26.0588 13.2622 26.1361 13.2606C26.2579 13.2586 26.2579 13.2586 26.3822 13.2566C26.4652 13.255 26.5483 13.2534 26.6338 13.2517C26.8997 13.2466 27.1655 13.242 27.4314 13.2374C27.6114 13.234 27.7913 13.2306 27.9713 13.2272C28.4131 13.2188 28.8549 13.2108 29.2967 13.2032C29.3026 12.6401 29.3067 12.0769 29.3095 11.5138C29.3107 11.3221 29.3123 11.1305 29.3143 10.9388C29.3172 10.6636 29.3185 10.3885 29.3195 10.1133C29.3208 10.0274 29.322 9.94141 29.3232 9.85286C29.3232 9.77311 29.3232 9.69335 29.3233 9.61118C29.3238 9.54092 29.3243 9.47066 29.3248 9.39827C29.3102 9.21503 29.3102 9.21503 29.1951 9.08123C28.9707 8.91771 28.7042 8.90447 28.4354 8.86726C28.3726 8.85782 28.3097 8.84837 28.245 8.83864C28.039 8.80805 27.8329 8.77898 27.6267 8.75007C27.4835 8.72941 27.3402 8.70874 27.197 8.68805C26.0247 8.52065 24.8522 8.37756 23.6717 8.28132C23.5759 8.27328 23.4802 8.26524 23.3816 8.25695C18.9405 7.89893 14.4677 8.12435 10.0681 8.7989ZM35.7605 8.86207C35.6894 8.88665 35.6183 8.91122 35.5451 8.93654C35.4672 8.96363 35.3892 8.99072 35.3089 9.01863C35.2281 9.04663 35.1474 9.07462 35.0641 9.10347C34.8916 9.16331 34.719 9.22322 34.5465 9.28318C34.2889 9.37269 34.0312 9.46194 33.7734 9.55116C33.6049 9.60964 33.4364 9.66813 33.2679 9.72664C33.1933 9.75246 33.1187 9.77829 33.0418 9.8049C32.2067 10.0956 31.3779 10.4009 30.5467 10.7032C30.5467 12.5852 30.5467 14.4673 30.5467 16.4063C31.8615 16.4063 33.1763 16.4063 34.531 16.4063C34.981 15.7183 34.981 15.7183 34.8435 15.3126C34.7936 15.1944 34.7414 15.0773 34.6873 14.961C34.3954 14.3344 34.3593 13.7389 34.575 13.0762C34.9068 12.2594 35.3723 11.9986 36.1717 11.5626C36.1717 10.6344 36.1717 9.70632 36.1717 8.75007C36.0285 8.75007 35.8945 8.81565 35.7605 8.86207ZM35.7795 13.2966C35.633 13.5663 35.6068 13.8374 35.6248 14.1407C35.7495 14.5223 35.9728 14.8072 36.3279 15.0001C36.677 15.1021 36.9449 15.1075 37.2898 14.9903C37.5616 14.8007 37.7423 14.5932 37.8904 14.2969C37.9324 13.9144 37.9314 13.6042 37.7683 13.252C37.4834 12.9452 37.218 12.7612 36.7918 12.7003C36.3591 12.7647 36.0486 12.9465 35.7795 13.2966ZM37.3576 16.2105C37.0887 16.273 36.8173 16.2581 36.5427 16.255C36.4845 16.2546 36.4263 16.2543 36.3664 16.2539C36.2233 16.253 36.0803 16.2516 35.9373 16.2501C35.7676 16.6541 35.5994 17.0586 35.4323 17.4636C35.3753 17.6013 35.3179 17.7388 35.2602 17.8762C35.1772 18.0738 35.0955 18.272 35.0141 18.4702C34.9881 18.5314 34.962 18.5927 34.9352 18.6557C34.8339 18.9055 34.7645 19.0917 34.7694 19.3633C34.8698 19.5908 34.9291 19.6568 35.156 19.7657C35.402 19.7995 35.6454 19.7985 35.8933 19.7968C36.0008 19.7972 36.0008 19.7972 36.1104 19.7975C36.2617 19.7977 36.413 19.7972 36.5643 19.7963C36.7958 19.795 37.0272 19.7962 37.2587 19.7977C37.4058 19.7976 37.5529 19.7973 37.7 19.7968C37.7692 19.7973 37.8383 19.7978 37.9096 19.7983C38.1766 19.7952 38.3925 19.782 38.6445 19.6905C38.7978 19.4588 38.7585 19.285 38.7152 19.0168C38.6474 18.7234 38.5439 18.4545 38.4248 18.1785C38.4006 18.1205 38.3764 18.0626 38.3515 18.0028C38.2752 17.8202 38.1976 17.6382 38.1199 17.4561C38.0675 17.3314 38.0151 17.2066 37.9629 17.0818C37.8355 16.7781 37.707 16.4749 37.5779 16.1719C37.4878 16.1685 37.4878 16.1685 37.3576 16.2105ZM11.4842 20.1563C11.4842 20.904 11.4842 21.6516 11.4842 22.4219C11.9633 22.292 11.9633 22.292 12.4217 22.1094C12.566 22.1107 12.566 22.1107 12.739 22.129C12.8226 22.1368 12.8226 22.1368 12.9078 22.1448C13.2221 22.2067 13.524 22.3207 13.8279 22.4219C13.8279 21.6743 13.8279 20.9266 13.8279 20.1563C13.0545 20.1563 12.281 20.1563 11.4842 20.1563ZM4.41293 19.3641C3.54252 20.4748 3.15514 21.712 3.28103 23.1251C3.48045 24.4454 4.10425 25.6151 5.18044 26.4307C6.32537 27.2067 7.4218 27.4587 8.79631 27.4522C8.90686 27.4526 9.01742 27.453 9.12797 27.4535C9.42849 27.4546 9.729 27.4543 10.0295 27.4537C10.3549 27.4534 10.6802 27.4543 11.0055 27.4551C11.6413 27.4565 12.2772 27.4566 12.913 27.4561C13.4296 27.4558 13.9462 27.4559 14.4629 27.4564C14.5366 27.4564 14.6102 27.4565 14.6861 27.4565C14.8358 27.4567 14.9855 27.4568 15.1352 27.4569C16.5363 27.458 17.9374 27.4575 19.3384 27.4566C20.6205 27.4559 21.9026 27.4569 23.1848 27.4587C24.5022 27.4606 25.8197 27.4614 27.1372 27.4609C27.8765 27.4606 28.6158 27.4608 29.355 27.4622C29.9838 27.4633 30.6124 27.4634 31.2412 27.462C31.5619 27.4613 31.8827 27.4612 32.2035 27.4624C32.497 27.4634 32.7904 27.4631 33.084 27.4616C33.2407 27.4611 33.3974 27.4622 33.5541 27.4634C33.6934 27.4622 33.6934 27.4622 33.8356 27.4611C33.9559 27.461 33.9559 27.461 34.0786 27.461C34.3565 27.4112 34.4873 27.3053 34.6873 27.1094C34.7847 26.8831 34.7847 26.8831 34.7654 26.6407C34.6271 26.4261 34.5261 26.2867 34.2967 26.1719C34.1927 26.1646 34.0884 26.1621 33.9843 26.162C33.8857 26.1616 33.8857 26.1616 33.7851 26.1613C33.7126 26.1614 33.64 26.1615 33.5652 26.1617C33.45 26.1614 33.45 26.1614 33.3325 26.1612C33.0735 26.1607 32.8145 26.1608 32.5555 26.1609C32.3705 26.1606 32.1855 26.1604 32.0005 26.16C31.6012 26.1594 31.202 26.159 30.8028 26.1588C30.1719 26.1583 29.5411 26.157 28.9103 26.1555C28.6945 26.155 28.4788 26.1546 28.2631 26.1541C28.2092 26.1539 28.1552 26.1538 28.0997 26.1537C27.4857 26.1523 26.8718 26.151 26.2578 26.1498C26.2017 26.1497 26.1455 26.1496 26.0877 26.1495C25.1778 26.1478 24.2679 26.147 23.358 26.1464C22.4243 26.1457 21.4906 26.1439 20.557 26.1411C20.0325 26.1395 19.5081 26.1385 18.9837 26.1389C18.4906 26.1393 17.9975 26.1382 17.5044 26.1361C17.3231 26.1355 17.1418 26.1355 16.9605 26.1361C16.7136 26.1368 16.4668 26.1355 16.2198 26.1338C16.1476 26.1345 16.0754 26.1352 16.0009 26.1358C15.5185 26.1297 15.5185 26.1297 15.2678 25.9497C15.1144 25.7186 15.1107 25.5845 15.156 25.3126C15.2712 25.1442 15.2712 25.1442 15.4685 25.0001C15.7098 24.9691 15.9232 24.9573 16.1645 24.9595C16.2712 24.9586 16.2712 24.9586 16.38 24.9578C16.6187 24.9562 16.8574 24.9568 17.0961 24.9574C17.267 24.9567 17.4379 24.9559 17.6089 24.955C18.0734 24.9528 18.5379 24.9525 19.0024 24.9526C19.4877 24.9524 19.9729 24.9504 20.4582 24.9486C21.2729 24.9457 22.0875 24.944 22.9022 24.9431C23.7412 24.9422 24.5803 24.9406 25.4194 24.9382C25.4711 24.938 25.5228 24.9379 25.5761 24.9377C25.8356 24.9369 26.0951 24.9362 26.3546 24.9354C28.5071 24.9289 30.6597 24.9247 32.8123 24.9219C32.796 24.8421 32.7797 24.7623 32.7629 24.68C32.7414 24.5739 32.7199 24.4678 32.6984 24.3616C32.6877 24.3092 32.677 24.2567 32.6659 24.2027C32.3856 22.8135 32.5356 21.5397 32.8123 20.1563C26.9599 20.1563 21.1076 20.1563 15.0779 20.1563C15.0521 21.2907 15.0263 22.4251 14.9998 23.5938C14.6873 23.9063 14.6873 23.9063 14.3894 23.9161C13.9811 23.8537 13.6075 23.6872 13.2345 23.5154C12.7772 23.314 12.4901 23.3788 12.0408 23.5477C11.8788 23.6119 11.7174 23.6773 11.5562 23.7435C11.2378 23.869 10.9721 23.9611 10.6248 23.9063C10.4581 23.7969 10.4581 23.7969 10.3123 23.5938C10.2637 23.3336 10.265 23.0756 10.2647 22.8114C10.2634 22.7355 10.2621 22.6596 10.2608 22.5815C10.257 22.3395 10.2553 22.0976 10.2537 21.8555C10.2515 21.6914 10.2491 21.5272 10.2467 21.363C10.2409 20.9608 10.237 20.5586 10.2342 20.1563C9.8813 20.1485 9.52849 20.1429 9.17558 20.1392C9.05586 20.1376 8.93615 20.1355 8.81646 20.1327C7.927 20.113 7.13784 20.1574 6.45303 20.7935C5.91186 21.4165 5.7512 21.9735 5.75936 22.7821C5.81126 23.4165 6.09015 23.9506 6.56228 24.3751C7.07927 24.7639 7.56071 24.9412 8.21347 24.9419C8.26714 24.9422 8.32081 24.9425 8.3761 24.9428C8.49183 24.9433 8.60756 24.9435 8.7233 24.9434C8.90655 24.9433 9.08978 24.9443 9.27303 24.9456C9.79375 24.9493 10.3145 24.9512 10.8352 24.9517C11.1544 24.9521 11.4735 24.954 11.7927 24.9568C11.9141 24.9576 12.0355 24.9578 12.1569 24.9573C12.3266 24.9568 12.4961 24.9581 12.6657 24.9599C12.8103 24.9602 12.8103 24.9602 12.9579 24.9606C13.2487 25.0075 13.3416 25.0786 13.5154 25.3126C13.5545 25.5469 13.5545 25.5469 13.5154 25.7813C13.3418 26.0148 13.2489 26.0864 12.9586 26.1335C12.8144 26.1339 12.8144 26.1339 12.6672 26.1343C12.6139 26.1348 12.5606 26.1354 12.5057 26.1359C12.3297 26.1373 12.1537 26.1364 11.9776 26.1353C11.8544 26.1355 11.7312 26.1358 11.6079 26.1362C11.3492 26.1367 11.0906 26.136 10.8319 26.1346C10.503 26.1328 10.1742 26.1338 9.84535 26.1357C9.59044 26.1368 9.33554 26.1364 9.08062 26.1356C8.95957 26.1354 8.83851 26.1357 8.71746 26.1364C7.51115 26.1421 6.47554 25.9103 5.54452 25.0959C4.76112 24.2834 4.57629 23.2873 4.59237 22.2062C4.62318 21.3375 5.03066 20.5496 5.6141 19.9155C6.50056 19.1198 7.51863 18.9489 8.6689 18.9533C8.77695 18.9529 8.885 18.9523 8.99305 18.9517C9.28774 18.9503 9.5824 18.9504 9.87709 18.9506C10.1957 18.9507 10.5143 18.9494 10.8329 18.9483C11.3842 18.9465 11.9355 18.9456 12.4868 18.9452C13.2838 18.9447 14.0808 18.9429 14.8779 18.9408C16.1712 18.9374 17.4645 18.9351 18.7578 18.9334C20.0138 18.9317 21.2697 18.9296 22.5257 18.9268C22.6031 18.9267 22.6806 18.9265 22.7605 18.9263C23.1492 18.9254 23.5379 18.9246 23.9266 18.9237C27.1489 18.9164 30.3712 18.9108 33.5935 18.9063C33.7482 18.4938 33.9029 18.0813 34.0623 17.6563C30.7196 17.6492 27.3768 17.6437 24.0341 17.6404C23.6391 17.64 23.244 17.6396 22.849 17.6392C22.7703 17.6391 22.6917 17.639 22.6107 17.6389C21.3389 17.6376 20.0672 17.6351 18.7954 17.6322C17.4895 17.6293 16.1837 17.6276 14.8778 17.6269C14.0726 17.6265 13.2675 17.6251 12.4623 17.6226C11.9095 17.6209 11.3566 17.6205 10.8037 17.6209C10.4852 17.6211 10.1667 17.6208 9.84823 17.6191C7.78418 17.6087 5.88108 17.6927 4.41293 19.3641ZM2.25838 30.4884C1.30475 31.6235 1.14047 32.9509 1.24978 34.3751C1.30387 34.7328 1.41897 35.0591 1.56228 35.3907C1.58877 35.4573 1.61525 35.5238 1.64254 35.5924C2.16378 36.7703 3.19472 37.6469 4.37478 38.1251C5.29521 38.4371 6.2057 38.4491 7.16702 38.448C7.29206 38.4482 7.4171 38.4483 7.54214 38.4486C7.88451 38.449 8.22689 38.449 8.56927 38.4489C8.93896 38.4489 9.30865 38.4493 9.67835 38.4497C10.402 38.4504 11.1257 38.4506 11.8493 38.4506C12.4373 38.4507 13.0253 38.4508 13.6133 38.4511C15.2803 38.4518 16.9473 38.4521 18.6142 38.4521C18.704 38.4521 18.7939 38.4521 18.8864 38.4521C18.9763 38.452 19.0662 38.452 19.1589 38.452C20.6178 38.452 22.0768 38.4528 23.5357 38.4539C25.0336 38.455 26.5315 38.4555 28.0295 38.4555C28.8705 38.4554 29.7115 38.4556 30.5526 38.4565C31.2682 38.4572 31.9838 38.4574 32.6995 38.4568C33.0647 38.4566 33.4299 38.4566 33.7952 38.4573C34.1293 38.4579 34.4634 38.4578 34.7975 38.4571C34.9186 38.457 35.0397 38.4571 35.1607 38.4575C35.325 38.4581 35.4891 38.4577 35.6534 38.457C35.7903 38.457 35.7903 38.457 35.9301 38.4571C36.232 38.4327 36.4552 38.3552 36.7039 38.1837C36.8492 37.9695 36.8371 37.8307 36.7967 37.5782C36.6676 37.3769 36.6101 37.2992 36.406 37.1876C36.0613 37.129 35.7195 37.135 35.3706 37.1378C35.2162 37.1366 35.0619 37.1354 34.9076 37.1341C34.6919 37.1328 34.4763 37.1332 34.2607 37.1336C33.883 37.1341 33.5053 37.1324 33.1276 37.1298C32.9267 37.1287 32.7257 37.1284 32.5248 37.129C32.4338 37.1288 32.3428 37.1285 32.2491 37.1282C32.169 37.1283 32.089 37.1284 32.0066 37.1286C31.7913 37.109 31.6643 37.0708 31.4842 36.9532C31.3744 36.7337 31.3866 36.5713 31.406 36.3282C31.4781 36.1597 31.4781 36.1597 31.6404 36.0157C31.8864 35.9659 32.1308 35.9684 32.3811 35.9681C32.4898 35.9662 32.4898 35.9662 32.6008 35.9642C32.8324 35.9604 33.064 35.9587 33.2957 35.9571C33.4527 35.9549 33.6097 35.9526 33.7667 35.9501C34.1517 35.9443 34.5366 35.9404 34.9217 35.9376C34.9054 35.8522 34.8891 35.7668 34.8723 35.6789C34.8508 35.5655 34.8293 35.4522 34.8078 35.3388C34.7971 35.2827 34.7864 35.2266 34.7753 35.1688C34.5161 33.7969 34.619 32.5337 34.9217 31.1719C33.0912 31.1719 31.2607 31.1719 29.3748 31.1719C29.3615 32.2891 29.3615 32.2891 29.3515 33.4064C29.3492 33.5466 29.3468 33.6868 29.3443 33.827C29.3442 33.8996 29.3441 33.9722 29.344 34.047C29.3326 34.5586 29.3326 34.5586 29.1531 34.8123C28.8986 34.9775 28.7365 34.9593 28.4373 34.9219C28.1466 34.8248 27.8728 34.6927 27.5958 34.5626C27.1145 34.3482 26.8286 34.3797 26.3377 34.5634C26.1757 34.6275 26.0142 34.6929 25.853 34.7591C25.5347 34.8846 25.269 34.9767 24.9217 34.9219C24.755 34.8125 24.755 34.8125 24.6092 34.6094C24.5605 34.3492 24.5619 34.0912 24.5615 33.827C24.5603 33.7511 24.559 33.6753 24.5576 33.5971C24.5538 33.3551 24.5522 33.1132 24.5506 32.8712C24.5484 32.707 24.546 32.5428 24.5435 32.3786C24.5378 31.9764 24.5339 31.5742 24.531 31.1719C22.1258 31.1648 19.7206 31.1593 17.3154 31.156C17.0313 31.1556 16.7471 31.1552 16.4629 31.1548C16.3781 31.1547 16.3781 31.1547 16.2915 31.1545C15.3764 31.1532 14.4612 31.1507 13.5461 31.1478C12.6066 31.1449 11.6671 31.1432 10.7276 31.1425C10.2001 31.1422 9.67258 31.1412 9.14508 31.1389C8.64838 31.1368 8.15169 31.1361 7.65498 31.1366C7.47289 31.1365 7.2908 31.1359 7.10871 31.1347C6.85956 31.1331 6.61048 31.1335 6.36132 31.1344C6.28973 31.1335 6.21814 31.1325 6.14438 31.1316C5.54896 31.1371 5.05731 31.3053 4.55056 31.6163C4.01289 32.1689 3.72433 32.7897 3.64236 33.5548C3.726 34.3354 4.01018 34.8948 4.5826 35.4349C5.2208 35.9404 5.99335 35.9718 6.77504 35.9666C6.87253 35.9669 6.97002 35.9672 7.07046 35.9675C7.33904 35.9681 7.60759 35.9677 7.87617 35.9668C8.16656 35.9661 8.45695 35.9668 8.74734 35.9673C9.24985 35.968 9.75236 35.9679 10.2549 35.9673C10.9817 35.9664 11.7084 35.9671 12.4352 35.9683C13.6149 35.9701 14.7945 35.9712 15.9742 35.9715C16.08 35.9715 16.08 35.9715 16.1879 35.9715C16.9756 35.9717 17.7632 35.9718 18.5509 35.9717C18.837 35.9717 19.1231 35.9716 19.4092 35.9716C19.4798 35.9716 19.5504 35.9716 19.6231 35.9716C20.7992 35.9716 21.9752 35.9727 23.1512 35.9748C23.8765 35.976 24.6019 35.9762 25.3272 35.975C25.8235 35.9743 26.3199 35.9747 26.8162 35.9759C27.1028 35.9766 27.3894 35.9768 27.6759 35.9756C27.9861 35.9743 28.2963 35.9754 28.6065 35.9767C28.7433 35.9756 28.7433 35.9756 28.8828 35.9744C29.0069 35.9755 29.0069 35.9755 29.1335 35.9767C29.2051 35.9767 29.2767 35.9767 29.3505 35.9767C29.531 36.0157 29.531 36.0157 29.6715 36.1594C29.7973 36.3855 29.7925 36.542 29.7654 36.7969C29.6092 37.0313 29.6092 37.0313 29.3748 37.1094C29.243 37.1168 29.111 37.1195 28.9791 37.1197C28.8968 37.12 28.8145 37.1203 28.7297 37.1206C28.5936 37.1205 28.5936 37.1205 28.4548 37.1204C28.3105 37.1208 28.3105 37.1208 28.1634 37.1211C27.896 37.1217 27.6286 37.1219 27.3612 37.122C27.0729 37.1221 26.7847 37.1227 26.4965 37.1232C25.8658 37.1243 25.2351 37.1247 24.6044 37.1251C24.2104 37.1253 23.8165 37.1256 23.4225 37.126C22.3313 37.1269 21.2401 37.1277 20.1489 37.128C20.0441 37.128 20.0441 37.128 19.9371 37.1281C19.8671 37.1281 19.7971 37.1281 19.7249 37.1281C19.583 37.1281 19.4411 37.1282 19.2992 37.1282C19.2288 37.1282 19.1584 37.1283 19.0859 37.1283C17.9466 37.1286 16.8073 37.1299 15.668 37.1318C14.4978 37.1336 13.3276 37.1346 12.1574 37.1347C11.5006 37.1347 10.8439 37.1352 10.1871 37.1366C9.62743 37.1378 9.06781 37.1382 8.50818 37.1376C8.22293 37.1373 7.93769 37.1373 7.65244 37.1384C7.34233 37.1396 7.03224 37.139 6.72214 37.1382C6.63315 37.1388 6.54416 37.1394 6.45248 37.1401C5.36947 37.1335 4.39642 36.8963 3.56881 36.1692C2.86481 35.4331 2.51547 34.533 2.47536 33.5255C2.49894 32.5852 2.84474 31.6082 3.5154 30.9376C4.22056 30.3737 4.92125 29.9907 5.8328 29.9899C5.88528 29.9897 5.93776 29.9896 5.99183 29.9894C6.16846 29.989 6.3451 29.9892 6.52174 29.9893C6.64934 29.9891 6.77694 29.9889 6.90454 29.9886C7.25582 29.988 7.6071 29.9879 7.95837 29.9878C8.33697 29.9877 8.71556 29.9871 9.09416 29.9866C9.7504 29.9856 10.4066 29.985 11.0629 29.9845C12.0997 29.9837 13.1365 29.9821 14.1734 29.9804C14.5279 29.9798 14.8825 29.9792 15.2371 29.9786C15.3257 29.9785 15.4143 29.9783 15.5056 29.9782C16.5145 29.9765 17.5234 29.9751 18.5323 29.9737C18.6246 29.9735 18.7168 29.9734 18.8118 29.9733C20.3075 29.9712 21.8031 29.9698 23.2987 29.9685C24.8333 29.9671 26.3679 29.9649 27.9025 29.9618C28.8496 29.96 29.7967 29.9589 30.7438 29.9588C31.3925 29.9586 32.0412 29.9576 32.6899 29.9559C33.0645 29.955 33.439 29.9544 33.8136 29.9549C34.1563 29.9553 34.499 29.9546 34.8416 29.9531C34.9658 29.9528 35.09 29.9528 35.2142 29.9533C35.3826 29.9539 35.551 29.953 35.7194 29.9518C35.8131 29.9517 35.9067 29.9516 36.0033 29.9515C36.3513 29.9098 36.5522 29.7758 36.7967 29.5313C36.8423 29.3069 36.8423 29.3069 36.7967 29.0626C36.597 28.81 36.4795 28.6865 36.1597 28.6232C36.0194 28.6232 36.0194 28.6232 35.8762 28.6232C35.8237 28.6227 35.7711 28.6222 35.717 28.6216C35.5406 28.6204 35.3643 28.6219 35.1879 28.6234C35.0603 28.6231 34.9327 28.6226 34.8051 28.6219C34.4541 28.6206 34.1032 28.6217 33.7523 28.6232C33.3739 28.6244 32.9955 28.6233 32.6171 28.6226C31.8756 28.6214 31.134 28.6224 30.3925 28.6241C29.5288 28.6259 28.6651 28.6258 27.8014 28.6256C26.2598 28.6253 24.7183 28.6269 23.1768 28.6296C21.6815 28.6322 20.1862 28.6333 18.691 28.6328C17.063 28.6323 15.435 28.6325 13.807 28.634C13.7208 28.6341 13.6346 28.6342 13.5458 28.6343C13.3728 28.6344 13.1997 28.6346 13.0267 28.6348C12.425 28.6353 11.8233 28.6353 11.2216 28.6352C10.4876 28.6351 9.75366 28.6359 9.0197 28.6377C8.64538 28.6386 8.27107 28.6392 7.89675 28.6388C7.55366 28.6383 7.21058 28.639 6.8675 28.6406C6.74378 28.6409 6.62007 28.6409 6.49636 28.6405C4.71539 28.6345 3.45677 29.1981 2.25838 30.4884ZM25.781 31.1719C25.781 31.9196 25.781 32.6673 25.781 33.4376C26.0388 33.3602 26.2967 33.2829 26.5623 33.2032C27.0385 33.0733 27.3412 33.1861 27.7845 33.3665C27.9599 33.447 27.9599 33.447 28.1248 33.4376C28.1248 32.6899 28.1248 31.9423 28.1248 31.1719C27.3513 31.1719 26.5779 31.1719 25.781 31.1719Z" fill="white"/>
</g>
<defs>
<clipPath id="clip0_2397_1119">
<rect width="40" height="40" fill="white"/>
</clipPath>
</defs>
</svg>
