<svg width="40" height="40" viewBox="0 0 40 40" fill="none" xmlns="http://www.w3.org/2000/svg">
<g clip-path="url(#clip0_2397_1068)">
<path d="M3.9881 17.3089C4.1508 17.3095 4.31329 17.3073 4.47596 17.3048C5.21006 17.301 5.90496 17.3823 6.51362 17.8271C7.05457 18.4067 7.21298 19.0771 7.38265 19.8304C7.42286 20.0044 7.46619 20.1774 7.51063 20.3503C7.53245 20.4353 7.53245 20.4353 7.55471 20.522C7.58275 20.6308 7.61089 20.7396 7.63913 20.8484C7.69469 21.0676 7.73433 21.2571 7.73433 21.4843C19.8386 21.4457 19.8386 21.4457 32.1875 21.4062C32.4195 20.4781 32.6515 19.55 32.8906 18.5937C34.1167 17.4902 34.9422 17.2644 36.5625 17.3437C37.7164 17.4371 38.8445 17.6654 39.6435 18.5644C40.0637 19.0744 40.0286 19.5438 40.0292 20.1855C40.0312 20.2808 40.0331 20.3761 40.035 20.4742C40.0367 20.9937 40.0281 21.306 39.6875 21.7187C39.3847 22.2549 39.1621 22.8221 38.9477 23.3978C38.9162 23.4812 38.8848 23.5645 38.8523 23.6504C38.7527 23.9146 38.6536 24.1789 38.5546 24.4433C38.4555 24.7071 38.3563 24.9709 38.2569 25.2345C38.1954 25.3978 38.1341 25.5611 38.073 25.7245C37.9874 25.9522 37.9 26.1792 37.8125 26.4062C37.7811 26.4912 37.7498 26.5761 37.7176 26.6636C37.6853 26.7475 37.653 26.8313 37.6197 26.9177C37.5912 26.9937 37.5626 27.0697 37.5331 27.1481C37.3983 27.3851 37.276 27.4634 37.0312 27.5781C36.7919 27.6123 36.7919 27.6123 36.5625 27.5781C36.3213 27.3825 36.1868 27.2293 36.1479 26.9179C36.1827 26.5149 36.3291 26.1715 36.4767 25.7971C36.5077 25.7166 36.5388 25.6362 36.5707 25.5533C36.6698 25.2969 36.7699 25.041 36.8701 24.7851C36.9372 24.6117 37.0043 24.4383 37.0713 24.2648C37.1938 23.9484 37.3166 23.6321 37.4401 23.3161C37.4649 23.2526 37.4897 23.1891 37.5153 23.1238C37.5781 22.9687 37.5781 22.9687 37.6562 22.8125C26.0031 22.8383 14.3499 22.864 2.3437 22.8906C2.73042 23.9218 3.11714 24.9531 3.51558 26.0156C3.7982 26.7693 3.7982 26.7693 3.74995 27.1875C3.65535 27.3572 3.65535 27.3572 3.51558 27.5C3.33003 27.5415 3.33003 27.5415 3.12495 27.539C3.02344 27.5402 3.02344 27.5402 2.91987 27.5415C2.6734 27.4863 2.6359 27.3963 2.49995 27.1875C2.44212 27.062 2.38903 26.9342 2.33983 26.8051C2.31058 26.7291 2.28133 26.6531 2.2512 26.5748C2.22019 26.4927 2.18919 26.4106 2.15724 26.326C2.12437 26.2401 2.0915 26.1543 2.05764 26.0658C1.95233 25.7905 1.84771 25.5149 1.74311 25.2392C1.67424 25.0588 1.60532 24.8784 1.53636 24.698C1.27568 24.0155 1.01522 23.3329 0.758732 22.6489C0.730831 22.5748 0.702929 22.5007 0.674183 22.4243C0.622883 22.288 0.571844 22.1516 0.521139 22.015C0.408698 21.7168 0.288877 21.4315 0.141361 21.1488C0.0278181 20.9276 -0.04032 20.7537 -0.0443001 20.5011C-0.0453512 20.4401 -0.0464024 20.3791 -0.0474854 20.3162C-0.0463335 20.2537 -0.0451817 20.1913 -0.0439949 20.1269C-0.0431955 20.0616 -0.0423962 19.9964 -0.0415726 19.9291C-0.0237295 19.4101 0.0696266 19.0129 0.390575 18.5937C0.447375 18.5188 0.447375 18.5188 0.505322 18.4424C1.36686 17.4626 2.76059 17.3012 3.9881 17.3089ZM1.56245 19.375C1.32798 19.711 1.29033 19.9762 1.35096 20.3714C1.47383 20.7617 1.75528 21.0082 2.08003 21.2402C2.37722 21.381 2.63757 21.4164 2.96496 21.4223C3.07989 21.4246 3.07989 21.4246 3.19714 21.427C3.27926 21.4283 3.36138 21.4296 3.446 21.4309C3.53052 21.4326 3.61505 21.4342 3.70214 21.4359C3.97198 21.441 4.24182 21.4456 4.51167 21.4502C4.69467 21.4535 4.87768 21.457 5.06068 21.4604C5.50918 21.4688 5.95769 21.4767 6.4062 21.4843C6.38632 21.3686 6.36486 21.253 6.34272 21.1377C6.33094 21.0733 6.31916 21.009 6.30702 20.9427C6.28819 20.8894 6.26935 20.8361 6.24995 20.7812C5.95022 20.6813 5.79465 20.7427 5.48823 20.8154C4.88978 20.9464 4.28309 21.0174 3.67183 20.9375C3.5232 20.838 3.5232 20.838 3.43745 20.7031C3.40907 20.5517 3.40907 20.5517 3.41304 20.3906C3.41334 20.3374 3.41364 20.2842 3.41395 20.2295C3.43745 20.0781 3.43745 20.0781 3.5937 19.8437C3.94844 19.7255 4.31977 19.713 4.69096 19.6817C5.11605 19.6398 5.46495 19.5399 5.85933 19.375C5.79563 19.1144 5.74818 18.9471 5.54683 18.7646C5.21131 18.6318 4.88955 18.611 4.5312 18.5937C4.47652 18.5905 4.42183 18.5873 4.36549 18.584C3.39785 18.5547 2.27968 18.6577 1.56245 19.375ZM34.3701 18.9746C34.1836 19.1416 34.1836 19.1416 34.2187 19.4531C34.8555 19.7125 35.4959 19.7645 36.1747 19.8242C36.3345 19.8445 36.4852 19.8798 36.6406 19.9218C36.658 20.0323 36.674 20.1431 36.6894 20.2539C36.6985 20.3155 36.7075 20.3771 36.7169 20.4406C36.719 20.6532 36.6776 20.7605 36.5625 20.9375C35.8919 21.2727 34.8434 20.9313 34.1406 20.7812C34.0117 20.7554 33.8828 20.7297 33.75 20.7031C33.6984 20.9609 33.6468 21.2187 33.5937 21.4843C34.1274 21.4902 34.6612 21.4944 35.1949 21.4972C35.3763 21.4984 35.5577 21.5 35.7391 21.502C36.0006 21.5049 36.2619 21.5062 36.5234 21.5072C36.6442 21.5091 36.6442 21.5091 36.7674 21.5109C37.3495 21.511 37.8109 21.4544 38.2666 21.0595C38.3229 20.9935 38.3793 20.9274 38.4375 20.8593C38.4826 20.8094 38.5277 20.7594 38.5742 20.708C38.7314 20.4485 38.7752 20.2268 38.724 19.9255C38.6069 19.5297 38.4102 19.3111 38.0709 19.082C37.081 18.546 35.3516 18.3737 34.3701 18.9746Z" fill="white"/>
<path d="M16.1719 3.82817C16.3965 3.94535 16.3965 3.94535 16.5626 4.14067C16.6195 4.45628 16.6395 4.63797 16.4731 4.91398C16.2898 5.13557 16.0959 5.31089 15.8692 5.48832C14.7439 6.39268 14.3113 7.93158 14.1407 9.29692C18.0079 9.29692 21.8751 9.29692 25.8594 9.29692C25.542 7.49824 25.0625 6.3071 23.6667 5.1334C23.4388 4.93215 23.4386 4.85455 23.4083 4.54106C23.4121 4.27873 23.4245 4.2341 23.6036 4.02348C23.8776 3.88052 23.9921 3.84652 24.2969 3.90629C24.5278 4.03781 24.7227 4.19995 24.9219 4.37504C24.9728 4.41945 25.0236 4.46387 25.076 4.50962C26.2622 5.62028 27.0838 7.27323 27.2114 8.89683C27.2119 9.11018 27.2066 9.31889 27.1876 9.53129C27.2913 9.55999 27.2913 9.55999 27.3972 9.58927C28.0332 9.83048 28.5337 10.4126 28.8282 11.0157C29.0284 11.4733 29.063 11.8945 28.8917 12.3633C28.6309 12.759 28.343 12.928 27.8907 13.0469C27.6461 13.0647 27.4033 13.0618 27.1583 13.0567C27.0933 13.056 27.0283 13.0553 26.9614 13.0545C26.8024 13.0527 26.6434 13.0499 26.4844 13.0469C26.5102 13.0985 26.536 13.15 26.5626 13.2032C26.7112 14.8767 26.0675 16.4917 25.0586 17.793C24.0251 18.9985 22.537 19.8996 20.9376 20.0782C19.0213 20.1748 17.2413 19.8752 15.7569 18.5547C15.6342 18.4381 15.5121 18.321 15.3907 18.2032C15.3427 18.161 15.2948 18.1188 15.2454 18.0753C14.3291 17.2409 13.6959 15.9047 13.5157 14.6875C13.5071 14.632 13.4986 14.5764 13.4897 14.5191C13.4284 14.0547 13.4297 13.5928 13.4376 13.125C13.3471 13.1221 13.2567 13.1192 13.1635 13.1162C13.0433 13.1111 12.923 13.1059 12.8028 13.1006C12.7434 13.0989 12.684 13.0971 12.6227 13.0953C12.1746 13.074 11.8359 12.9926 11.4951 12.6783C11.4577 12.6323 11.4204 12.5864 11.3819 12.5391C11.3435 12.4932 11.3051 12.4473 11.2656 12.3999C11.1069 12.1724 11.0579 11.9338 11.0615 11.6587C11.1673 11.0883 11.5105 10.5234 11.9532 10.1563C12.0199 10.095 12.0199 10.095 12.0881 10.0324C12.3263 9.81644 12.4896 9.66878 12.8126 9.60942C12.8089 9.55151 12.8053 9.4936 12.8016 9.43394C12.7411 7.66874 13.476 6.03294 14.6485 4.73637C15.6132 3.70401 15.6132 3.70401 16.1719 3.82817ZM12.7393 11.1719C12.5976 11.3781 12.5481 11.484 12.5001 11.7188C13.6963 11.7212 14.8926 11.7228 16.0889 11.7237C16.2234 11.7238 16.2234 11.7238 16.3605 11.7239C19.0827 11.7257 21.8044 11.7131 24.5264 11.6797C24.6027 11.6788 24.6789 11.6779 24.7575 11.6769C25.6717 11.6656 26.5859 11.6536 27.5001 11.6407C27.2708 11.1423 26.9943 10.8448 26.4844 10.625C26.0664 10.5581 25.6531 10.5624 25.2312 10.5669C25.1051 10.5665 24.979 10.5659 24.8529 10.5651C24.5122 10.5637 24.1715 10.5651 23.8307 10.5672C23.4733 10.569 23.1158 10.5683 22.7584 10.568C22.1583 10.5679 21.5583 10.5696 20.9582 10.5725C20.2655 10.5758 19.5727 10.5764 18.8799 10.5754C18.2121 10.5745 17.5443 10.5754 16.8765 10.5771C16.5929 10.5779 16.3093 10.578 16.0257 10.5777C15.6915 10.5774 15.3574 10.5787 15.0232 10.5811C14.9009 10.5818 14.7786 10.5819 14.6563 10.5815C13.9072 10.5792 13.2745 10.5776 12.7393 11.1719ZM14.8438 13.0469C14.7109 14.5088 15.0422 15.6712 15.9327 16.836C16.7917 17.8317 17.9001 18.5515 19.2188 18.75C20.8069 18.8455 22.1838 18.5639 23.4192 17.5061C24.5829 16.4239 25.1694 15.1234 25.236 13.5419C25.2479 13.2813 25.2479 13.2813 25.1563 13.0469C21.7532 13.0469 18.3501 13.0469 14.8438 13.0469Z" fill="white"/>
<path d="M6.97754 36.2207C7.32583 36.2561 7.42541 36.3005 7.65625 36.5625C7.7085 36.6881 7.75701 36.8153 7.80273 36.9434C7.98962 37.453 8.27339 37.6835 8.74351 37.9339C9.13711 38.099 9.53265 38.0798 9.95347 38.0777C10.0427 38.0782 10.132 38.0786 10.2239 38.0791C10.5227 38.0804 10.8215 38.0801 11.1202 38.0797C11.3346 38.0801 11.5489 38.0809 11.7632 38.0817C12.2848 38.0833 12.8065 38.0837 13.3281 38.0835C13.7522 38.0834 14.1763 38.0837 14.6004 38.0843C14.7227 38.0845 14.845 38.0847 14.9673 38.0848C15.0586 38.0849 15.0586 38.0849 15.1517 38.0851C16.3023 38.0865 17.4529 38.0865 18.6035 38.0859C19.6553 38.0855 20.7071 38.0871 21.7588 38.0897C22.8396 38.0923 23.9204 38.0935 25.0011 38.0932C25.6076 38.093 26.214 38.0934 26.8205 38.0953C27.3368 38.097 27.8531 38.0973 28.3695 38.0958C28.6327 38.0951 28.8959 38.0952 29.1591 38.0966C29.4451 38.098 29.7309 38.097 30.0168 38.0954C30.0992 38.0964 30.1817 38.0974 30.2667 38.0984C30.8233 38.0918 31.2561 37.9744 31.7188 37.6562C31.988 37.3778 32.1732 37.0864 32.3193 36.7285C32.4219 36.4844 32.4219 36.4844 32.6562 36.3281C33.2031 36.276 33.2031 36.276 33.4717 36.4551C33.6303 36.6962 33.6719 36.8177 33.6719 37.1094C33.466 37.8714 33.0012 38.5436 32.3438 38.9844C31.8332 39.2527 31.3681 39.4624 30.7869 39.4636C30.67 39.4641 30.67 39.4641 30.5507 39.4647C30.4653 39.4647 30.3799 39.4646 30.2918 39.4646C30.2009 39.4649 30.11 39.4652 30.0164 39.4655C29.764 39.4662 29.5116 39.4666 29.2592 39.4668C28.987 39.4671 28.7148 39.4678 28.4426 39.4685C27.7852 39.4701 27.1277 39.4708 26.4703 39.4715C26.1605 39.4719 25.8508 39.4723 25.541 39.4727C24.511 39.474 23.481 39.4752 22.4509 39.4757C22.1837 39.4759 21.9165 39.476 21.6492 39.4762C21.5496 39.4762 21.5496 39.4762 21.448 39.4763C20.3725 39.4769 19.297 39.4789 18.2215 39.4815C17.1169 39.4841 16.0122 39.4855 14.9075 39.4857C14.2875 39.4859 13.6674 39.4866 13.0474 39.4886C12.5193 39.4903 11.9911 39.4909 11.463 39.4901C11.1937 39.4898 10.9245 39.4899 10.6552 39.4914C10.3627 39.4928 10.0702 39.4923 9.77762 39.4912C9.6934 39.4921 9.60918 39.4929 9.5224 39.4938C8.67137 39.4866 7.9824 39.2346 7.34375 38.6719C7.29551 38.6309 7.24727 38.5899 7.19757 38.5477C6.74123 38.1306 6.48426 37.6412 6.32812 37.0459C6.32812 36.6137 6.53596 36.2707 6.97754 36.2207Z" fill="white"/>
<path d="M34.1657 27.8334C34.8231 27.9695 35.4475 28.0002 36.1173 27.968C36.8266 27.9394 37.362 28.1051 37.9172 28.551C38.2194 28.8326 38.3331 29.14 38.378 29.5413C38.4289 31.212 37.7589 32.9854 36.683 34.2468C35.8348 35.1276 34.7413 35.674 33.5144 35.7294C32.3153 35.75 31.2837 35.6186 30.3787 34.7629C29.5272 33.8637 29.2507 32.7688 29.2627 31.5527C29.2632 31.4683 29.2638 31.3838 29.2643 31.2968C29.2873 30.1328 29.4615 28.8702 30.3174 28.0127C31.4095 27.1268 32.9238 27.5596 34.1657 27.8334ZM31.0156 29.2187C30.4768 30.1732 30.4902 31.596 30.6787 32.6416C30.8604 33.2349 31.1531 33.7016 31.6357 34.0918C32.1045 34.3405 32.5506 34.4035 33.0713 34.3994C33.1298 34.399 33.1882 34.3985 33.2485 34.3981C34.1884 34.3775 34.9586 34.0244 35.6445 33.3789C36.4967 32.4684 36.8478 31.2305 36.9873 30.0146C36.9409 29.6762 36.8314 29.5809 36.5625 29.375C36.3384 29.3671 36.1609 29.3779 35.9424 29.4092C35.0756 29.4958 34.282 29.324 33.4375 29.1406C32.1606 28.7801 32.1606 28.7801 31.0156 29.2187Z" fill="white"/>
<path d="M9.45312 27.9688C10.1703 28.4814 10.4239 29.2263 10.5788 30.0634C10.8029 31.4168 10.8631 32.9881 10.1562 34.2188C9.63284 34.9385 8.96033 35.4572 8.08684 35.6666C6.52848 35.8746 5.08507 35.6733 3.80858 34.7071C2.58343 33.6659 1.89789 32.0484 1.71874 30.4688C1.67164 29.8672 1.6426 29.3205 2.03124 28.8282C2.69666 28.141 2.69666 28.141 3.14508 28.1148C3.20985 28.1186 3.27462 28.1224 3.34136 28.1263C4.3198 28.1646 5.22178 28.0944 6.17675 27.8907C8.4719 27.4063 8.4719 27.4063 9.45312 27.9688ZM6.70898 29.1407C5.87825 29.3228 5.08708 29.4227 4.23305 29.3783C3.82165 29.359 3.56237 29.3774 3.20312 29.6094C3.09092 29.7051 3.09092 29.7051 3.09569 29.9903C3.11209 31.2602 3.64517 32.605 4.51903 33.5209C5.33984 34.2569 6.27718 34.4306 7.34557 34.3977C7.89426 34.3578 8.36237 34.2368 8.74999 33.8282C9.51013 32.8387 9.53908 31.6398 9.38964 30.4493C9.26074 29.6216 9.26074 29.6216 8.74999 28.9844C8.07397 28.7591 7.3785 28.9893 6.70898 29.1407Z" fill="white"/>
<path d="M20.9814 0.72272C21.0986 0.79165 21.2144 0.862954 21.3281 0.937564C21.4006 0.982681 21.4731 1.0278 21.5478 1.07428C21.9556 1.49377 22.1946 2.01353 22.2025 2.59648C22.2038 2.67992 22.205 2.76335 22.2063 2.84932C22.2098 3.22972 22.213 3.61011 22.2148 3.99052C22.2161 4.19141 22.2182 4.3923 22.2212 4.59317C22.2255 4.88253 22.2272 5.1718 22.2284 5.46118C22.2301 5.55112 22.2319 5.64105 22.2337 5.73371C22.2321 6.35369 22.2321 6.35369 22.007 6.61919C21.7311 6.74997 21.5517 6.7627 21.25 6.71881C21.0796 6.60996 21.0796 6.60996 20.9375 6.40631C20.8906 6.14083 20.8939 5.8779 20.8953 5.60889C20.8944 5.53086 20.8935 5.45283 20.8926 5.37244C20.8898 5.12298 20.8891 4.87356 20.8886 4.62409C20.8874 4.37546 20.8856 4.12686 20.883 3.87824C20.8815 3.72365 20.8808 3.56904 20.8809 3.41443C20.8764 2.6922 20.8764 2.6922 20.5371 2.07526C20.2424 1.91509 20.0159 1.88871 19.6875 1.95319C19.4116 2.10313 19.3195 2.20508 19.2097 2.49924C19.1103 2.87637 19.1188 3.25348 19.1192 3.64112C19.1176 3.80169 19.116 3.96226 19.1143 4.12284C19.1126 4.37435 19.1113 4.62584 19.1108 4.87736C19.1101 5.12124 19.1075 5.36503 19.1046 5.60889C19.105 5.68417 19.1054 5.75945 19.1058 5.83701C19.0981 6.35771 19.0981 6.35771 18.9133 6.60981C18.7369 6.72751 18.6477 6.76116 18.4375 6.75788C18.3859 6.75868 18.3343 6.75949 18.2812 6.76032C18.0538 6.69992 17.9615 6.58571 17.8125 6.40631C17.7728 6.21331 17.7728 6.21331 17.772 5.99473C17.771 5.91256 17.7701 5.83039 17.769 5.74573C17.7697 5.65727 17.7703 5.56881 17.771 5.47766C17.7707 5.38613 17.7704 5.2946 17.7701 5.2003C17.7698 5.00651 17.7704 4.81271 17.7717 4.61892C17.7734 4.32381 17.7717 4.02884 17.7697 3.73374C17.7699 3.54519 17.7703 3.35664 17.771 3.16809C17.7703 3.08042 17.7697 2.99275 17.769 2.90242C17.7769 2.23832 17.9171 1.63056 18.3816 1.12647C19.1313 0.506545 20.0846 0.294973 20.9814 0.72272Z" fill="white"/>
</g>
<defs>
<clipPath id="clip0_2397_1068">
<rect width="40" height="40" fill="white"/>
</clipPath>
</defs>
</svg>
