<svg width="40" height="40" viewBox="0 0 40 40" fill="none" xmlns="http://www.w3.org/2000/svg">
<g clip-path="url(#clip0_2397_1299)">
<path d="M4.53125 -0.000148745C8.67075 -0.0227073 12.8103 -0.0452659 17.0752 -0.0685081C18.3819 -0.0784656 19.6887 -0.0884231 21.035 -0.0986824C22.6315 -0.103622 22.6315 -0.103622 23.3791 -0.10454C23.9009 -0.105559 24.4226 -0.109564 24.9443 -0.115622C25.5467 -0.122605 26.149 -0.125746 26.7514 -0.124229C27.0593 -0.123573 27.367 -0.124581 27.6749 -0.13054C29.6861 -0.1676 29.6861 -0.1676 30.3271 0.377182C30.5098 0.559941 30.6733 0.749794 30.8293 0.955657C31.0025 1.17652 31.2035 1.36299 31.4059 1.55716C31.5479 1.70029 31.6896 1.84361 31.8311 1.98716C32.3788 2.54748 32.3788 2.54748 32.9578 3.0748C33.4255 3.47522 33.8498 3.92254 34.2822 4.3602C34.4567 4.53672 34.6314 4.71297 34.8062 4.88907C34.8458 4.92927 34.8853 4.96947 34.9261 5.01089C35.1001 5.18617 35.2622 5.33092 35.4688 5.4686C35.492 5.66121 35.4997 5.83429 35.4976 6.02711C35.4979 6.0856 35.4981 6.14408 35.4984 6.20433C35.499 6.40235 35.498 6.60032 35.4969 6.79833C35.497 6.9409 35.4972 7.08347 35.4975 7.22604C35.4981 7.6194 35.4971 8.01275 35.496 8.40611C35.4949 8.8297 35.4953 9.25329 35.4955 9.67688C35.4956 10.4113 35.4948 11.1457 35.4935 11.8802C35.4916 12.942 35.491 14.0039 35.4907 15.0658C35.4902 16.7884 35.4886 18.5111 35.4864 20.2337C35.4843 21.9075 35.4826 23.5813 35.4816 25.2551C35.4816 25.3603 35.4815 25.4655 35.4814 25.5707C35.4809 26.3852 35.4805 27.1998 35.48 28.0143C35.4778 32.0095 35.4731 36.0047 35.4688 39.9999C25.2594 39.9999 15.05 39.9999 4.53125 39.9999C4.53125 26.7999 4.53125 13.5999 4.53125 -0.000148745ZM7.26562 2.73423C7.26562 14.1295 7.26562 25.5249 7.26562 37.2655C15.6703 37.2655 24.075 37.2655 32.7344 37.2655C32.7344 27.2624 32.7344 17.2592 32.7344 6.95298C31.2648 6.95298 29.7953 6.95298 28.2812 6.95298C28.2812 5.56079 28.2812 4.1686 28.2812 2.73423C21.3461 2.73423 14.4109 2.73423 7.26562 2.73423Z" fill="white"/>
<path d="M25.625 19.375C26.2438 19.375 26.8625 19.375 27.5 19.375C27.5989 19.6718 27.5898 19.9496 27.5879 20.2588C27.5875 20.3242 27.5871 20.3895 27.5867 20.4569C27.5848 20.6692 27.5816 20.8815 27.5781 21.0938C27.5771 21.164 27.5762 21.2342 27.5751 21.3065C27.5394 23.3404 27.2144 25.3261 25.7031 26.8115C23.8938 28.3234 21.0729 28.5156 18.8281 28.5156C18.8281 29.418 18.8281 30.3203 18.8281 31.25C18.579 31.1006 18.3653 30.9679 18.1412 30.7919C18.0862 30.749 18.0313 30.706 17.9747 30.6618C17.9163 30.6158 17.858 30.5698 17.7979 30.5225C17.6715 30.4236 17.5452 30.3247 17.4188 30.2258C17.3544 30.1753 17.2901 30.1248 17.2237 30.0728C16.9241 29.8379 16.6237 29.6039 16.3232 29.3701C16.2661 29.3257 16.209 29.2812 16.1502 29.2354C15.5353 28.7573 14.9164 28.2846 14.2969 27.8125C14.432 27.5186 14.5819 27.3776 14.8389 27.1777C15.1503 26.93 15.4499 26.6763 15.7422 26.4062C16.0914 26.0849 16.4524 25.7835 16.8216 25.4855C17.0271 25.3159 17.225 25.1404 17.4219 24.9609C18.4692 24.0076 18.4692 24.0076 18.8281 23.8281C18.8281 24.7305 18.8281 25.6328 18.8281 26.5625C21.9516 26.4451 21.9516 26.4451 24.5996 25.0098C25.5766 23.7903 25.5541 22.1791 25.5908 20.6934C25.5942 20.5652 25.5976 20.437 25.601 20.3088C25.6094 19.9976 25.6172 19.6863 25.625 19.375Z" fill="white"/>
<path d="M21.1718 11.3281C21.4101 11.4473 21.5794 11.548 21.784 11.7087C21.8408 11.7531 21.8976 11.7975 21.9561 11.8433C22.0163 11.8908 22.0766 11.9383 22.1386 11.9873C22.2014 12.0366 22.2643 12.0858 22.329 12.1365C22.5164 12.2835 22.7035 12.4308 22.8906 12.5781C22.986 12.6531 23.0814 12.7281 23.1768 12.803C23.3066 12.905 23.4364 13.007 23.5661 13.1091C23.9552 13.4152 24.3456 13.7195 24.7363 14.0234C24.7965 14.0703 24.8567 14.1172 24.9188 14.1655C24.9756 14.2097 25.0324 14.2538 25.0909 14.2993C25.1412 14.3384 25.1915 14.3776 25.2433 14.4179C25.3956 14.5351 25.5491 14.6506 25.7031 14.7656C25.6054 15.0585 25.4859 15.1286 25.2441 15.3174C24.9309 15.567 24.6303 15.8218 24.3359 16.0938C23.9867 16.4151 23.6257 16.7165 23.2565 17.0145C23.0509 17.1841 22.8531 17.3596 22.6562 17.5391C21.5475 18.5467 21.5475 18.5467 21.1718 18.6719C21.1718 17.7953 21.1718 16.9188 21.1718 16.0156C18.4258 16.187 18.4258 16.187 15.8593 17.1094C15.782 17.1352 15.7046 17.1609 15.6249 17.1875C15.5699 17.2902 15.5184 17.3947 15.4687 17.5C15.4203 17.558 15.372 17.616 15.3222 17.6758C14.4054 18.8622 14.4444 20.4597 14.4091 21.8848C14.4057 22.0129 14.4023 22.1411 14.3989 22.2693C14.3906 22.5806 14.3828 22.8918 14.3749 23.2031C13.7562 23.2031 13.1374 23.2031 12.4999 23.2031C12.4362 22.8206 12.4128 22.4776 12.4203 22.0941C12.4213 22.0331 12.4222 21.972 12.4232 21.9091C12.4268 21.7122 12.4315 21.5153 12.4365 21.3184C12.4381 21.2514 12.4398 21.1845 12.4415 21.1155C12.4875 19.4277 12.6581 17.7716 13.7499 16.4062C13.7974 16.3451 13.8448 16.284 13.8937 16.221C15.1924 14.6461 17.5518 14.3003 19.4714 14.1037C20.0416 14.0587 20.5966 14.0625 21.1718 14.0625C21.1718 13.1602 21.1718 12.2578 21.1718 11.3281Z" fill="white"/>
</g>
<defs>
<clipPath id="clip0_2397_1299">
<rect width="40" height="40" fill="white"/>
</clipPath>
</defs>
</svg>
