<svg width="40" height="40" viewBox="0 0 40 40" fill="none" xmlns="http://www.w3.org/2000/svg">
<g clip-path="url(#clip0_2397_1127)">
<path d="M19.4527 -0.0396496C19.5487 -0.0405308 19.6446 -0.041412 19.7435 -0.0423199C19.8496 -0.0417124 19.9557 -0.0410723 20.0618 -0.040403C20.1737 -0.0408266 20.2856 -0.041383 20.3975 -0.0420624C20.7013 -0.0434873 21.0051 -0.0429346 21.3089 -0.041944C21.6267 -0.041153 21.9446 -0.0418865 22.2625 -0.0423772C22.7963 -0.0429457 23.3301 -0.0421963 23.8639 -0.0407082C24.4811 -0.0390075 25.0983 -0.0395584 25.7155 -0.041279C26.2454 -0.0426969 26.7753 -0.0428973 27.3051 -0.0420794C27.6216 -0.0415921 27.9381 -0.0415275 28.2546 -0.0425595C28.5521 -0.0434621 28.8497 -0.0428365 29.1472 -0.0410301C29.2564 -0.0406168 29.3656 -0.0407358 29.4749 -0.0414247C29.6239 -0.0422781 29.7729 -0.0410183 29.922 -0.0396496C30.0054 -0.0395318 30.0888 -0.039414 30.1748 -0.0392926C30.4447 0.00991903 30.5351 0.0996681 30.703 0.312533C30.8164 0.624583 30.7945 0.750927 30.6593 1.05655C30.4412 1.47496 30.178 1.86355 29.9168 2.25589C29.5564 2.80258 29.2006 3.3506 28.8622 3.91117C28.415 4.65089 27.9504 5.37905 27.4848 6.10725C27.2517 6.47193 27.0193 6.83705 26.787 7.20218C26.7416 7.27349 26.6962 7.3448 26.6494 7.41826C26.2405 8.06107 25.8335 8.70511 25.427 9.34951C25.194 9.7189 24.9607 10.0881 24.7274 10.4574C24.526 10.7761 24.3248 11.0951 24.124 11.4142C24.0826 11.4799 24.0412 11.5456 23.9986 11.6133C23.9204 11.7375 23.8422 11.8617 23.7642 11.986C23.5763 12.2842 23.3853 12.5799 23.1894 12.8729C23.1478 12.9351 23.1063 12.9973 23.0635 13.0613C23.0322 13.1081 23.0009 13.1549 22.9686 13.2032C23.0666 13.2036 23.1646 13.2041 23.2655 13.2045C24.1886 13.209 25.1117 13.2147 26.0348 13.2216C26.5094 13.2251 26.9839 13.2281 27.4585 13.2302C27.9165 13.2323 28.3744 13.2354 28.8323 13.2393C29.0071 13.2406 29.1818 13.2415 29.3566 13.242C29.6013 13.2428 29.8459 13.245 30.0905 13.2475C30.1629 13.2474 30.2353 13.2473 30.3099 13.2472C30.6872 13.2527 30.9434 13.2702 31.2498 13.5157C31.4213 13.7261 31.4056 13.8432 31.3963 14.1193C31.3436 14.4993 31.1658 14.7035 30.908 14.9756C30.8222 15.0708 30.7365 15.166 30.6508 15.2613C30.6072 15.3088 30.5637 15.3563 30.5188 15.4053C30.3224 15.622 30.1342 15.8454 29.9461 16.0694C29.9106 16.1114 29.875 16.1534 29.8384 16.1967C29.6176 16.458 29.4002 16.7219 29.1844 16.9873C28.8398 17.4106 28.4848 17.8245 28.1288 18.2383C27.6409 18.8055 27.1564 19.3755 26.6844 19.9561C26.3398 20.3794 25.9848 20.7932 25.6288 21.207C25.1409 21.7743 24.6564 22.3442 24.1844 22.9248C23.8398 23.3481 23.4848 23.762 23.1288 24.1758C22.6409 24.743 22.1564 25.313 21.6844 25.8936C21.3398 26.3169 20.9848 26.7307 20.6288 27.1445C20.1409 27.7118 19.6564 28.2817 19.1844 28.8623C18.8398 29.2856 18.4848 29.6995 18.1288 30.1133C17.6409 30.6805 17.1564 31.2505 16.6844 31.8311C16.3398 32.2544 15.9848 32.6682 15.6288 33.082C15.1409 33.6493 14.6564 34.2192 14.1844 34.7998C13.8398 35.2231 13.4848 35.637 13.1288 36.0508C12.6409 36.618 12.1564 37.188 11.6844 37.7686C11.2969 38.2445 10.8975 38.7098 10.4964 39.1742C10.4022 39.2834 10.3084 39.393 10.2147 39.5026C10.1422 39.5869 10.1422 39.5869 10.0682 39.6729C10.0277 39.7201 9.98724 39.7673 9.94553 39.816C9.76263 40.006 9.59994 40.0183 9.34555 40.0293C9.07046 40.0253 9.00649 40.018 8.78403 39.8389C8.61392 39.4913 8.61606 39.228 8.73739 38.8674C8.83753 38.624 8.94407 38.3843 9.05258 38.1446C9.13943 37.9474 9.22609 37.7501 9.31259 37.5528C9.33602 37.4997 9.35944 37.4465 9.38357 37.3918C9.66207 36.7585 9.92803 36.12 10.1943 35.4814C10.2841 35.2661 10.374 35.0509 10.464 34.8356C10.5867 34.5419 10.7095 34.2482 10.8321 33.9545C11.0981 33.3177 11.3646 32.6813 11.6312 32.0448C11.7776 31.695 11.924 31.3453 12.0705 30.9955C12.0995 30.9262 12.1285 30.8569 12.1584 30.7854C12.3335 30.3671 12.5085 29.9488 12.6834 29.5304C13.3814 27.8606 14.082 26.1919 14.7874 24.5252C15.2266 23.4871 15.661 22.4471 16.0936 21.4063C16.0093 21.4066 15.925 21.407 15.8382 21.4073C15.0439 21.4105 14.2496 21.4128 13.4552 21.4144C13.0469 21.4152 12.6385 21.4163 12.2301 21.4181C11.836 21.4198 11.4419 21.4207 11.0478 21.4211C10.8975 21.4214 10.7471 21.422 10.5968 21.4228C10.3862 21.4239 10.1756 21.4241 9.965 21.424C9.90285 21.4246 9.8407 21.4251 9.77666 21.4257C9.33573 21.4241 9.04769 21.3804 8.72055 21.0791C8.58367 20.8422 8.58003 20.7406 8.62626 20.477C8.7227 20.1281 8.89578 19.8114 9.05866 19.4896C9.09934 19.4077 9.14002 19.3258 9.18193 19.2414C9.29461 19.0149 9.40797 18.7888 9.52164 18.5628C9.64422 18.3187 9.76589 18.0741 9.88768 17.8296C10.1262 17.3511 10.3656 16.8729 10.6053 16.395C10.8001 16.0065 10.9946 15.6179 11.1888 15.2292C11.2164 15.1738 11.2441 15.1185 11.2726 15.0615C11.3288 14.949 11.3849 14.8366 11.4411 14.7242C11.9377 13.7303 12.4351 12.7368 12.9329 11.7435C13.416 10.7797 13.8983 9.81552 14.38 8.85099C14.9046 7.80053 15.4295 6.75027 15.9552 5.70035C16.0112 5.58841 16.0673 5.47647 16.1233 5.36453C16.1509 5.30945 16.1784 5.25437 16.2069 5.19763C16.4012 4.80945 16.5952 4.42114 16.7891 4.03278C17.0254 3.55958 17.2622 3.08662 17.4995 2.61393C17.6206 2.37276 17.7414 2.13148 17.8618 1.88993C17.9923 1.62823 18.1236 1.36693 18.255 1.10571C18.293 1.02917 18.3309 0.952638 18.37 0.873783C18.4054 0.80383 18.4408 0.733878 18.4773 0.661805C18.5075 0.601465 18.5377 0.541125 18.5689 0.478956C18.8105 0.088025 18.9935 -0.0390011 19.4527 -0.0396496ZM19.7655 1.40628C19.1577 2.55659 19.1577 2.55659 18.567 3.71521C18.5138 3.82135 18.5138 3.82135 18.4596 3.92963C18.3442 4.16013 18.229 4.39074 18.1138 4.62135C18.0298 4.78924 17.9458 4.95713 17.8618 5.125C17.6362 5.57583 17.4108 6.02675 17.1855 6.4777C17.0446 6.75963 16.9036 7.04153 16.7626 7.32342C16.7273 7.39399 16.7273 7.39399 16.6913 7.46598C16.6435 7.56158 16.5957 7.65719 16.5479 7.75279C16.1022 8.64399 15.6566 9.53529 15.2112 10.4266C14.8289 11.1915 14.4465 11.9563 14.064 12.721C13.6184 13.6116 13.173 14.5022 12.7278 15.393C12.6804 15.4877 12.633 15.5825 12.5857 15.6773C12.5624 15.7239 12.5391 15.7706 12.515 15.8186C12.3507 16.1474 12.1862 16.4762 12.0218 16.8049C11.8012 17.2459 11.5807 17.687 11.3604 18.1281C11.2793 18.2903 11.1982 18.4526 11.117 18.6148C11.0067 18.8351 10.8966 19.0555 10.7866 19.2759C10.754 19.341 10.7214 19.406 10.6878 19.473C10.5371 19.7256 10.5371 19.7256 10.4686 20C10.556 20.0003 10.6434 20.0006 10.7334 20.0009C11.5565 20.0038 12.3796 20.0083 13.2027 20.0144C13.6259 20.0175 14.049 20.02 14.4722 20.0212C14.8805 20.0224 15.2888 20.0251 15.697 20.0288C15.8529 20.03 16.0088 20.0306 16.1646 20.0306C16.3828 20.0308 16.6008 20.0329 16.8189 20.0355C16.8835 20.0351 16.9482 20.0347 17.0148 20.0343C17.2935 20.0394 17.4672 20.0554 17.6988 20.2166C17.8651 20.4715 17.8262 20.616 17.7789 20.9059C17.7062 21.2117 17.5941 21.4918 17.4684 21.7792C17.4412 21.8436 17.4139 21.908 17.3858 21.9743C17.2961 22.1857 17.2051 22.3966 17.1141 22.6075C17.0503 22.7573 16.9865 22.9072 16.9229 23.0571C16.7907 23.3684 16.6581 23.6795 16.5252 23.9904C16.2504 24.634 15.9809 25.2798 15.7114 25.9256C15.5656 26.2747 15.4194 26.6237 15.2733 26.9727C15.2147 27.1127 15.1561 27.2526 15.0975 27.3926C14.9803 27.6726 14.8631 27.9525 14.7459 28.2325C14.7024 28.3364 14.7024 28.3364 14.6581 28.4424C14.5994 28.5825 14.5408 28.7226 14.4821 28.8627C14.3365 29.2104 14.191 29.5582 14.0456 29.906C13.7711 30.5623 13.4961 31.2184 13.2197 31.8739C13.0892 32.1837 12.9588 32.4936 12.8285 32.8035C12.7663 32.9513 12.7039 33.099 12.6415 33.2467C12.5549 33.4514 12.4688 33.6562 12.3827 33.8611C12.3572 33.9211 12.3317 33.9811 12.3054 34.0429C12.1627 34.3839 12.0472 34.7206 11.953 35.0782C12.5303 34.5194 13.0485 33.9093 13.5533 33.2852C13.7834 33.0062 14.0199 32.7335 14.2577 32.461C14.6088 32.0582 14.9519 31.6504 15.2882 31.2351C15.5404 30.9283 15.8 30.6281 16.0593 30.3273C16.2946 30.0537 16.5257 29.7775 16.7528 29.4971C17.0764 29.0983 17.4124 28.7113 17.7499 28.3242C18.0565 27.9717 18.3541 27.6131 18.6482 27.2501C18.9356 26.9003 19.2319 26.5582 19.5271 26.2149C20.0135 25.6494 20.4968 25.0814 20.9666 24.502C21.2922 24.1018 21.6297 23.713 21.9686 23.3242C22.275 22.972 22.5725 22.6135 22.8664 22.2507C23.1185 21.9439 23.3782 21.6437 23.6374 21.3429C23.8727 21.0694 24.1038 20.7932 24.3309 20.5127C24.6545 20.1139 24.9906 19.7269 25.328 19.3398C25.6346 18.9873 25.9322 18.6287 26.2263 18.2657C26.5137 17.9159 26.81 17.5738 27.1053 17.2306C27.4739 16.8019 27.8397 16.3708 28.203 15.9375C28.2366 15.8975 28.2702 15.8574 28.3048 15.8162C28.4014 15.7007 28.4975 15.5847 28.5936 15.4688C28.6484 15.4027 28.7032 15.3367 28.7596 15.2686C28.9032 15.0819 29.0211 14.8903 29.1405 14.6875C28.9932 14.6868 28.9932 14.6868 28.843 14.6861C27.9187 14.6817 26.9945 14.676 26.0702 14.6691C25.595 14.6656 25.1199 14.6626 24.6447 14.6605C24.1862 14.6584 23.7278 14.6553 23.2694 14.6513C23.0943 14.65 22.9193 14.6491 22.7442 14.6487C22.4993 14.6479 22.2545 14.6457 22.0097 14.6432C21.937 14.6433 21.8643 14.6434 21.7895 14.6435C21.2999 14.6364 21.2999 14.6364 21.0513 14.5026C20.8683 14.2978 20.8542 14.1827 20.8592 13.9063C21.0913 13.3246 21.4459 12.8036 21.7918 12.2852C21.8967 12.1262 22.0015 11.9672 22.1062 11.8082C22.1589 11.7282 22.2117 11.6482 22.266 11.5658C22.5053 11.2007 22.7397 10.8325 22.9735 10.4639C23.0184 10.3932 23.0632 10.3225 23.1095 10.2497C23.1999 10.1071 23.2903 9.96456 23.3807 9.82196C23.6043 9.46931 23.8284 9.11698 24.0526 8.76468C24.1197 8.65923 24.1197 8.65923 24.1881 8.55165C24.5886 7.92234 24.9908 7.29412 25.3931 6.66595C25.7348 6.13229 26.0758 5.59817 26.4159 5.06351C26.46 4.99408 26.5042 4.92466 26.5497 4.85313C26.7808 4.48977 27.0117 4.12624 27.2423 3.76254C27.3379 3.61188 27.4335 3.46123 27.5291 3.31058C27.5975 3.20288 27.5975 3.20288 27.6672 3.09301C27.9614 2.63048 28.2619 2.1735 28.5735 1.72244C28.6854 1.57163 28.6854 1.57163 28.6717 1.40628C25.7327 1.40628 22.7936 1.40628 19.7655 1.40628Z" fill="white"/>
</g>
<defs>
<clipPath id="clip0_2397_1127">
<rect width="40" height="40" fill="white"/>
</clipPath>
</defs>
</svg>
