<svg width="40" height="40" viewBox="0 0 40 40" fill="none" xmlns="http://www.w3.org/2000/svg">
<path d="M11.1774 0.992927C11.2333 0.992402 11.2892 0.991877 11.3468 0.991336C11.5317 0.989852 11.7166 0.989547 11.9016 0.989379C12.0301 0.988877 12.1586 0.988351 12.2872 0.987803C12.5566 0.986867 12.8261 0.986578 13.0955 0.98667C13.4408 0.986686 13.7861 0.984552 14.1314 0.981862C14.3969 0.980125 14.6623 0.979808 14.9278 0.979891C15.0551 0.979706 15.1824 0.979015 15.3097 0.977807C15.4878 0.976277 15.6657 0.976726 15.8438 0.977668C15.9958 0.977334 15.9958 0.977334 16.1508 0.976993C16.4489 1.02207 16.5376 1.09276 16.7188 1.32812C16.8468 1.58429 16.8063 1.86767 16.8045 2.14905C16.8043 2.24756 16.8043 2.24756 16.8042 2.34806C16.8037 2.55821 16.8028 2.76836 16.8018 2.97851C16.8014 3.12083 16.801 3.26314 16.8007 3.40546C16.7998 3.75468 16.7985 4.1039 16.7969 4.45312C16.8834 4.46384 16.9699 4.47456 17.059 4.48561C17.4807 4.55319 17.6953 4.76096 17.9688 5.07812C18.2579 5.53589 18.2292 6.03819 18.2031 6.5625C18.2547 6.5625 18.3063 6.5625 18.3594 6.5625C18.3714 6.49817 18.3714 6.49817 18.3836 6.43255C18.4735 5.98758 18.6099 5.59264 18.7988 5.18066C18.8265 5.11992 18.8542 5.05918 18.8827 4.9966C19.5269 3.60491 20.3283 2.32354 21.7908 1.70013C22.4959 1.44167 23.253 1.49085 23.941 1.77704C25.5626 2.57293 26.4653 4.21031 27.0313 5.85937C27.0926 6.09311 27.1415 6.32506 27.1875 6.5625C27.2391 6.5625 27.2906 6.5625 27.3438 6.5625C27.3663 6.4916 27.3889 6.4207 27.4121 6.34765C27.4819 6.14602 27.5588 5.96965 27.6563 5.78125C27.6069 5.72611 27.6069 5.72611 27.5565 5.66986C27.5137 5.62122 27.4709 5.57258 27.4268 5.52246C27.3629 5.4504 27.3629 5.4504 27.2977 5.37689C26.9909 4.98004 27.0886 4.40621 27.085 3.93066C27.0827 3.83262 27.0804 3.73458 27.0781 3.63357C27.0742 3.06147 27.1013 2.66836 27.4219 2.1875C27.8721 1.82915 28.2288 1.78488 28.7871 1.78305C28.8548 1.78253 28.9224 1.78202 28.992 1.78149C29.216 1.77995 29.44 1.77904 29.664 1.77826C29.7789 1.77778 29.7789 1.77778 29.8961 1.77729C30.3015 1.77566 30.707 1.77455 31.1124 1.77381C31.5306 1.77295 31.9487 1.77026 32.3668 1.76716C32.6888 1.76511 33.0109 1.76446 33.3329 1.76418C33.487 1.7638 33.6411 1.7629 33.7952 1.76145C34.0113 1.75954 34.2274 1.75962 34.4436 1.76016C34.5067 1.75916 34.5698 1.75816 34.6349 1.75712C35.1256 1.76159 35.556 1.88127 35.909 2.2388C36.264 2.67894 36.2287 3.21703 36.2185 3.75713C36.2158 3.9163 36.2169 4.07513 36.2184 4.23431C36.2143 4.78599 36.202 5.09775 35.8594 5.54687C35.7917 5.63872 35.7917 5.63872 35.7227 5.73242C35.6904 5.77431 35.6582 5.81621 35.625 5.85937C35.6478 5.89925 35.6705 5.93913 35.694 5.98022C37.1159 8.50221 37.615 11.2015 37.7344 14.0625C37.7853 14.0702 37.8363 14.0778 37.8888 14.0857C38.4273 14.1778 38.7851 14.3098 39.1602 14.7266C39.42 15.0978 39.4787 15.3718 39.4821 15.824C39.4828 15.881 39.4835 15.938 39.4843 15.9968C39.4854 16.1174 39.4861 16.2379 39.4864 16.3585C39.4873 16.5413 39.4911 16.7239 39.4951 16.9067C39.5075 18.0528 39.5075 18.0528 39.0625 18.5156C38.6045 18.9507 38.1986 19.0073 37.5928 18.9941C37.5312 18.9934 37.4696 18.9927 37.4062 18.992C37.2551 18.9902 37.1041 18.9874 36.9531 18.9844C36.944 19.0805 36.9349 19.1766 36.9255 19.2756C36.8737 19.7399 36.7831 20.1948 36.6918 20.6526C36.6732 20.7468 36.6547 20.8411 36.6356 20.9381C36.5849 21.1947 36.5341 21.4512 36.483 21.7076C36.451 21.8682 36.4191 22.0289 36.3872 22.1895C36.2758 22.7512 36.1639 23.3127 36.0518 23.8742C35.9477 24.3959 35.8444 24.9176 35.7415 25.4395C35.6528 25.8892 35.5634 26.3388 35.4736 26.7883C35.4201 27.056 35.3668 27.3238 35.3142 27.5917C35.2556 27.8907 35.1955 28.1893 35.1354 28.488C35.1184 28.5757 35.1014 28.6634 35.0838 28.7537C34.8676 29.8139 34.3859 30.8058 33.5156 31.4844C32.5357 32.0721 31.6769 32.2112 30.5488 32.2052C30.4318 32.2052 30.3147 32.2052 30.1976 32.2053C29.8816 32.2053 29.5656 32.2044 29.2496 32.2033C28.9186 32.2024 28.5877 32.2023 28.2567 32.2021C27.6309 32.2016 27.005 32.2003 26.3792 32.1987C25.6663 32.197 24.9535 32.1961 24.2406 32.1954C22.775 32.1937 21.3094 32.191 19.8438 32.1875C19.8615 32.3215 19.8615 32.3215 19.8796 32.4582C19.924 32.7944 19.9674 33.1306 20.0107 33.4668C20.0294 33.6115 20.0483 33.7561 20.0675 33.9007C20.3682 36.1706 20.3682 36.1706 20.0226 36.7163C19.9296 36.8363 19.8341 36.9543 19.7363 37.0703C19.6868 37.1329 19.6373 37.1956 19.5862 37.2601C19.4864 37.3861 19.3857 37.5113 19.284 37.6358C19.153 37.7973 19.0267 37.9611 18.9023 38.1277C18.8671 38.1748 18.832 38.2218 18.7957 38.2703C18.7629 38.3142 18.7301 38.3581 18.6963 38.4033C18.5099 38.6492 18.3821 38.813 18.125 38.9844C17.8965 38.9999 17.6755 39.0061 17.447 39.0053C17.3418 39.0058 17.3418 39.0058 17.2345 39.0063C16.9986 39.0073 16.7627 39.0072 16.5268 39.0071C16.3581 39.0075 16.1894 39.0081 16.0206 39.0087C15.5616 39.01 15.1025 39.0104 14.6435 39.0105C14.2606 39.0107 13.8777 39.0112 13.4948 39.0118C12.5917 39.0131 11.6886 39.0134 10.7855 39.0133C9.85307 39.0132 8.92065 39.0149 7.98823 39.0173C7.1884 39.0194 6.38857 39.0202 5.58874 39.0201C5.11072 39.0201 4.63272 39.0205 4.1547 39.0222C3.70519 39.0237 3.2557 39.0237 2.80618 39.0226C2.64106 39.0224 2.47593 39.0228 2.31081 39.0237C2.08565 39.0249 1.86057 39.0242 1.63541 39.023C1.56983 39.0238 1.50426 39.0246 1.43669 39.0254C1.13997 39.0219 0.967393 39.0001 0.700633 38.8595C0.491825 38.6047 0.502905 38.4582 0.514034 38.131C0.516358 38.0492 0.516359 38.0492 0.51873 37.9657C0.544813 37.23 0.614651 36.4964 0.681908 35.7636C0.696452 35.6006 0.710948 35.4376 0.7254 35.2746C0.764453 34.8357 0.804186 34.3969 0.844053 33.9581C0.885801 33.4973 0.926927 33.0364 0.968126 32.5755C1.03732 31.8025 1.10691 31.0295 1.17679 30.2566C1.27524 29.1675 1.37298 28.0784 1.47057 26.9893C1.54656 26.1415 1.62272 25.2938 1.69892 24.4461C1.71114 24.3102 1.71114 24.3102 1.7236 24.1716C1.77046 23.6506 1.8174 23.1295 1.86449 22.6085C1.87871 22.4509 1.89292 22.2934 1.90709 22.1358C1.9265 21.9202 1.94599 21.7047 1.96551 21.4891C1.97106 21.4273 1.97661 21.3654 1.98233 21.3017C1.9981 21.1282 2.01457 20.9547 2.03126 20.7812C2.03704 20.7179 2.04281 20.6546 2.04876 20.5894C2.05492 20.5269 2.06107 20.4644 2.06741 20.4001C2.07277 20.3439 2.07812 20.2878 2.08364 20.2299C2.12062 20.0119 2.20878 19.8603 2.34376 19.6875C2.59993 19.5594 2.8833 19.6 3.16468 19.6017C3.26319 19.6019 3.26319 19.6019 3.36369 19.6021C3.57385 19.6025 3.784 19.6035 3.99415 19.6045C4.13647 19.6049 4.27878 19.6052 4.42109 19.6056C4.77032 19.6064 5.11954 19.6078 5.46876 19.6094C5.46819 19.5617 5.46762 19.514 5.46703 19.4648C5.46659 19.4019 5.46615 19.3391 5.46569 19.2743C5.46483 19.181 5.46483 19.181 5.46396 19.0858C5.4841 18.3325 5.85821 17.6733 6.32814 17.1094C6.37295 17.054 6.41777 16.9986 6.46394 16.9415C7.08837 16.2436 8.02492 15.8416 8.94807 15.7648C10.005 15.7252 10.924 16.0435 11.7435 16.7096C12.438 17.3606 12.8709 18.1756 12.9355 19.122C12.9451 19.259 12.9451 19.259 12.9549 19.3987C12.9595 19.4682 12.9641 19.5377 12.9688 19.6094C13.0307 19.6087 13.0927 19.608 13.1565 19.6073C13.7404 19.601 14.3244 19.5962 14.9083 19.5932C15.2085 19.5916 15.5087 19.5893 15.809 19.5858C16.0987 19.5824 16.3884 19.5805 16.6782 19.5797C16.7887 19.5791 16.8992 19.578 17.0097 19.5763C17.1646 19.5741 17.3194 19.5739 17.4743 19.5739C17.6065 19.5729 17.6065 19.5729 17.7414 19.5718C17.9688 19.6094 17.9688 19.6094 18.1461 19.719C18.3512 20.0269 18.386 20.341 18.4375 20.7031C18.448 20.7762 18.4586 20.8492 18.4694 20.9245C18.5026 21.1684 18.5331 21.4125 18.5628 21.6568C18.5743 21.7489 18.5857 21.841 18.5975 21.9358C18.6286 22.186 18.6594 22.4362 18.69 22.6864C18.7157 22.8961 18.7416 23.1058 18.7675 23.3154C18.8286 23.8102 18.8894 24.3051 18.95 24.7999C19.0123 25.309 19.0752 25.818 19.1382 26.327C19.1926 26.7657 19.2466 27.2044 19.3005 27.6431C19.3325 27.9044 19.3647 28.1657 19.3971 28.427C19.4332 28.7183 19.4688 29.0096 19.5043 29.3009C19.5204 29.4294 19.5204 29.4294 19.5368 29.5604C19.5894 29.9972 19.6208 30.4194 19.6094 30.8594C21.153 30.8565 22.6967 30.8518 24.2403 30.845C24.9571 30.8419 25.6739 30.8394 26.3908 30.8382C27.0158 30.8372 27.6408 30.8351 28.2659 30.8317C28.5966 30.8299 28.9273 30.8287 29.258 30.8288C29.5698 30.8288 29.8816 30.8274 30.1935 30.8249C30.3074 30.8242 30.4213 30.8241 30.5352 30.8245C31.4888 30.8277 32.3405 30.6871 33.0469 30C33.8325 29.1387 33.8966 27.4315 34.1134 26.3337C34.1719 26.0375 34.2308 25.7414 34.2898 25.4453C34.404 24.8716 34.5177 24.2979 34.6314 23.7242C34.7868 22.9402 34.9425 22.1563 35.0985 21.3725C35.1566 21.0804 35.2143 20.7882 35.2721 20.4961C35.3074 20.3185 35.3427 20.1409 35.378 19.9633C35.3941 19.8818 35.4101 19.8003 35.4266 19.7163C35.4488 19.6053 35.4488 19.6053 35.4714 19.4921C35.4841 19.4276 35.4969 19.3631 35.5101 19.2967C35.5469 19.1406 35.5469 19.1406 35.625 18.9844C35.5784 18.9845 35.5317 18.9847 35.4837 18.9848C32.7208 18.9936 29.958 19.0003 27.1951 19.0043C26.8635 19.0048 26.5319 19.0053 26.2003 19.0058C26.1013 19.006 26.1013 19.006 26.0003 19.0061C24.9308 19.0078 23.8613 19.0109 22.7918 19.0145C21.6947 19.0182 20.5976 19.0203 19.5005 19.0211C18.8234 19.0217 18.1462 19.0234 17.469 19.0265C17.0049 19.0286 16.5408 19.0292 16.0767 19.0287C15.8087 19.0285 15.5409 19.0288 15.2729 19.0309C14.9826 19.0329 14.6923 19.0324 14.402 19.0313C14.3171 19.0325 14.2322 19.0336 14.1447 19.0348C13.5768 19.0291 13.5768 19.0291 13.268 18.8032C13.0782 18.5251 13.066 18.3771 13.125 18.0469C13.262 17.8376 13.262 17.8376 13.5156 17.6562C13.8422 17.5969 14.1658 17.6034 14.4969 17.6063C14.5977 17.6057 14.6985 17.605 14.8024 17.6043C15.0821 17.6026 15.3618 17.6032 15.6415 17.6043C15.9432 17.605 16.2449 17.6035 16.5466 17.6022C17.0692 17.6004 17.5918 17.5999 18.1145 17.6005C18.8701 17.6012 19.6258 17.5999 20.3814 17.5979C21.6074 17.5949 22.8334 17.5936 24.0594 17.5934C25.2503 17.5932 26.4413 17.5922 27.6322 17.59C27.7056 17.5899 27.779 17.5898 27.8546 17.5896C28.2229 17.589 28.5912 17.5883 28.9594 17.5876C32.0146 17.582 35.0698 17.5792 38.125 17.5781C38.125 16.9078 38.125 16.2375 38.125 15.5469C37.896 15.5467 37.896 15.5467 37.6625 15.5465C34.0413 15.5438 30.4201 15.5393 26.7989 15.533C26.3535 15.5322 25.908 15.5314 25.4626 15.5307C25.3296 15.5304 25.3296 15.5304 25.1939 15.5302C23.7568 15.5278 22.3198 15.5264 20.8828 15.5255C19.4089 15.5246 17.9351 15.5224 16.4612 15.5192C15.5513 15.5172 14.6414 15.5162 13.7315 15.5163C13.1081 15.5163 12.4846 15.5152 11.8612 15.5131C11.5012 15.512 11.1412 15.5113 10.7812 15.512C10.4518 15.5127 10.1224 15.5119 9.793 15.51C9.67365 15.5095 9.5543 15.5096 9.43495 15.5103C9.273 15.5111 9.11116 15.51 8.94922 15.5084C8.81416 15.5082 8.81416 15.5082 8.67638 15.5081C8.38562 15.4602 8.25461 15.3615 8.04689 15.1562C7.99501 14.9829 7.99501 14.9829 7.99806 14.8047C7.99655 14.7165 7.99655 14.7165 7.99501 14.6265C8.0772 14.3518 8.18942 14.2863 8.43751 14.1406C8.74598 14.102 9.05011 14.1112 9.36036 14.1211C9.4443 14.1225 9.52824 14.1239 9.61473 14.1254C9.82135 14.129 10.0278 14.1342 10.2344 14.1406C10.2337 14.0647 10.233 13.9888 10.2323 13.9105C10.2259 13.1933 10.2213 12.4761 10.2182 11.7589C10.2166 11.3902 10.2144 11.0215 10.2108 10.6528C10.2074 10.2967 10.2055 9.94061 10.2047 9.58448C10.2042 9.44893 10.203 9.31338 10.2013 9.17784C10.1991 8.98728 10.1988 8.79682 10.1989 8.60626C10.1978 8.5508 10.1967 8.49533 10.1955 8.43819C10.1996 7.93695 10.3738 7.54132 10.7004 7.16858C11.1186 6.82241 11.3987 6.63235 11.9531 6.64062C11.9504 6.59329 11.9477 6.54596 11.9449 6.49719C11.9265 5.92734 11.9518 5.37005 12.323 4.91028C12.6881 4.56357 12.8175 4.53053 13.3594 4.45312C13.3594 3.75703 13.3594 3.06094 13.3594 2.34375C13.1722 2.34737 12.985 2.351 12.7921 2.35474C12.61 2.35717 12.428 2.35907 12.246 2.36092C12.1198 2.36248 11.9936 2.36461 11.8675 2.36732C11.6857 2.37113 11.5041 2.37289 11.3223 2.37427C11.2663 2.37588 11.2102 2.37749 11.1524 2.37915C10.8726 2.37928 10.714 2.35041 10.4737 2.20268C10.2538 1.96885 10.24 1.80102 10.2344 1.48437C10.3895 1.00603 10.7241 0.995593 11.1774 0.992927ZM14.6875 2.34375C14.6875 3.01406 14.6875 3.68437 14.6875 4.375C14.9453 4.375 15.2031 4.375 15.4688 4.375C15.4688 3.70469 15.4688 3.03437 15.4688 2.34375C15.2109 2.34375 14.9531 2.34375 14.6875 2.34375ZM20.8134 4.26376C18.9207 7.16843 18.75 10.79 18.75 14.1406C21.4055 14.1406 24.0609 14.1406 26.7969 14.1406C26.7969 10.8047 26.6858 6.79727 24.5313 3.98437C24.4618 3.89298 24.4618 3.89298 24.3909 3.79974C23.9961 3.31735 23.5665 2.97263 22.941 2.85644C21.9819 2.80362 21.3099 3.53033 20.8134 4.26376ZM28.4375 3.125C28.4375 3.64062 28.4375 4.15625 28.4375 4.6875C30.5516 4.6875 32.6656 4.6875 34.8438 4.6875C34.8438 4.17187 34.8438 3.65625 34.8438 3.125C32.7297 3.125 30.6156 3.125 28.4375 3.125ZM13.3594 5.78125C13.3594 6.03906 13.3594 6.29687 13.3594 6.5625C14.5195 6.5625 15.6797 6.5625 16.875 6.5625C16.875 6.33047 16.875 6.09844 16.875 5.85937C16.5655 5.65305 16.2986 5.68209 15.9396 5.68512C15.871 5.68515 15.8023 5.68519 15.7316 5.68523C15.5865 5.68546 15.4415 5.68608 15.2964 5.68704C15.0738 5.68847 14.8513 5.68865 14.6288 5.68863C14.4879 5.68901 14.3471 5.68947 14.2062 5.69C14.1394 5.69009 14.0726 5.69017 14.0038 5.69026C13.671 5.68354 13.671 5.68354 13.3594 5.78125ZM28.7702 6.59675C28.7378 6.66279 28.7053 6.72883 28.6719 6.79687C28.6113 6.90614 28.5507 7.0154 28.49 7.12463C28.4393 7.22664 28.3892 7.32898 28.3399 7.43164C28.3145 7.4825 28.2891 7.53335 28.2629 7.58575C27.803 8.52053 27.803 8.52053 27.8906 9.53125C30.4688 9.53125 33.0469 9.53125 35.7031 9.53125C35.4939 8.69129 35.4939 8.69129 35.1856 7.90039C35.1457 7.8118 35.1457 7.8118 35.1051 7.72142C34.8394 7.14785 34.5148 6.46796 34.0625 6.01562C33.9145 6.00419 33.7661 5.9982 33.6177 5.99436C33.5225 5.99184 33.4273 5.98933 33.3292 5.98673C32.9494 5.97879 32.5696 5.97291 32.1898 5.96873C31.9015 5.96553 31.6134 5.96083 31.3252 5.95239C31.0465 5.94427 30.7679 5.94002 30.4891 5.93846C30.3318 5.93662 30.1745 5.9309 30.0172 5.92511C29.3691 5.9264 29.0962 6.02305 28.7702 6.59675ZM11.7188 8.04687C11.5324 8.32647 11.5414 8.52328 11.5448 8.84573C11.5448 8.90384 11.5447 8.96194 11.5447 9.02181C11.5448 9.20984 11.546 9.39785 11.5473 9.58587C11.5475 9.70198 11.5476 9.81809 11.5477 9.9342C11.5485 10.3647 11.5507 10.7951 11.5527 11.2256C11.556 12.1875 11.5592 13.1495 11.5625 14.1406C13.4961 14.1406 15.4297 14.1406 17.4219 14.1406C17.4477 13.3414 17.4734 12.5422 17.5 11.7187C17.53 11.3008 17.5613 10.8892 17.6074 10.4736C17.6225 10.3295 17.6225 10.3295 17.6379 10.1824C17.7057 9.56131 17.7955 8.94993 17.9257 8.33893C17.9765 8.12307 17.9765 8.12307 17.9688 7.89062C17.2115 7.887 16.4543 7.88423 15.6971 7.88253C15.3455 7.88171 14.9939 7.88061 14.6422 7.87884C14.3029 7.87714 13.9635 7.8762 13.6241 7.8758C13.4947 7.87551 13.3652 7.87495 13.2358 7.8741C13.0544 7.87297 12.873 7.87281 12.6916 7.87289C12.6382 7.87232 12.5848 7.87176 12.5298 7.87118C12.2259 7.87249 11.9875 7.90082 11.7188 8.04687ZM28.0469 10.8594C28.0727 11.9422 28.0984 13.025 28.125 14.1406C30.832 14.1406 33.5391 14.1406 36.3281 14.1406C36.3338 12.9558 36.3338 12.9558 36.2158 11.7969C36.2053 11.7226 36.1948 11.6482 36.1839 11.5717C36.1385 11.204 36.1385 11.204 36.0156 10.8594C33.3859 10.8594 30.7563 10.8594 28.0469 10.8594ZM7.42189 17.8906C6.97019 18.448 6.79689 18.8827 6.79689 19.6094C8.39532 19.6094 9.99376 19.6094 11.6406 19.6094C11.57 18.9032 11.5294 18.6623 11.1719 18.125C11.1284 18.0557 11.0849 17.9864 11.04 17.915C10.5351 17.4101 9.9339 17.1628 9.23341 17.085C8.50702 17.1562 7.94076 17.3667 7.42189 17.8906ZM3.35939 20.9375C3.20647 22.6447 3.05367 24.352 2.90101 26.0592C2.83012 26.8519 2.7592 27.6446 2.68819 28.4372C2.62631 29.1279 2.5645 29.8187 2.50278 30.5094C2.47009 30.8753 2.43736 31.2411 2.40454 31.607C2.37367 31.9512 2.3429 32.2953 2.3122 32.6395C2.3009 32.766 2.28956 32.8925 2.27819 33.019C2.26269 33.1913 2.24733 33.3637 2.232 33.536C2.22336 33.6326 2.21472 33.7292 2.20581 33.8287C2.18446 34.0624 2.18446 34.0624 2.18751 34.2969C7.03439 34.2969 11.8813 34.2969 16.875 34.2969C16.7372 32.4599 16.5989 30.6238 16.4433 28.7884C16.4198 28.5099 16.3964 28.2314 16.373 27.953C16.3291 27.4315 16.2851 26.91 16.241 26.3886C16.1906 25.7925 16.1404 25.1963 16.0902 24.6001C15.9874 23.3792 15.8844 22.1584 15.7813 20.9375C14.8531 20.9375 13.925 20.9375 12.9688 20.9375C12.8559 22.0147 12.8559 22.0147 13.1934 22.4268C13.236 22.4664 13.2786 22.5061 13.3225 22.547C13.5042 22.7196 13.5491 22.8821 13.5938 23.125C13.6 23.5715 13.4891 23.8674 13.2031 24.2187C12.8475 24.5313 12.5232 24.5522 12.0661 24.5496C11.825 24.5265 11.6765 24.441 11.4844 24.2969C11.4328 24.2969 11.3813 24.2969 11.3281 24.2969C11.0456 23.7722 10.9498 23.3197 11.0938 22.7344C11.1692 22.6283 11.247 22.5237 11.3281 22.4219C11.3281 22.3703 11.3281 22.3187 11.3281 22.2656C11.4313 22.2141 11.5344 22.1625 11.6406 22.1094C11.6406 21.7227 11.6406 21.3359 11.6406 20.9375C10.0422 20.9375 8.44376 20.9375 6.79689 20.9375C6.68693 22.0159 6.68693 22.0159 7.02638 22.4463C7.10522 22.5173 7.18481 22.5875 7.26564 22.6562C7.42897 22.9829 7.37771 23.3943 7.34376 23.75C7.18885 24.0654 7.01831 24.2695 6.71876 24.4531C6.29289 24.5951 5.81095 24.6158 5.4004 24.4141C5.09632 24.2099 4.95015 23.9387 4.84376 23.5937C4.76437 23.1714 4.86495 22.8579 5.05738 22.4814C5.15626 22.3437 5.15626 22.3437 5.32228 22.2461C5.49936 22.1106 5.49936 22.1106 5.49928 21.8301C5.4975 21.723 5.49345 21.6158 5.48829 21.5088C5.48185 21.3203 5.4754 21.1317 5.46876 20.9375C4.77267 20.9375 4.07657 20.9375 3.35939 20.9375ZM17.1094 21.4844C17.1875 21.6406 17.1875 21.6406 17.1875 21.6406L17.1094 21.4844ZM17.1875 22.1094C17.1875 22.2641 17.1875 22.4187 17.1875 22.5781C17.2133 22.5781 17.2391 22.5781 17.2656 22.5781C17.2656 22.4234 17.2656 22.2687 17.2656 22.1094C17.2399 22.1094 17.2141 22.1094 17.1875 22.1094ZM17.2656 22.7344C17.249 23.397 17.3013 24.0509 17.3576 24.7107C17.3675 24.8296 17.3774 24.9485 17.3873 25.0674C17.4139 25.3884 17.441 25.7092 17.4681 26.0301C17.4966 26.3671 17.5247 26.7042 17.5528 27.0412C17.6001 27.6071 17.6476 28.1729 17.6953 28.7387C17.7623 29.5348 17.829 30.3309 17.8955 31.127C17.9418 31.6805 17.9882 32.2341 18.0346 32.7877C18.0458 32.9213 18.0571 33.055 18.0683 33.1886C18.1002 33.5698 18.1322 33.9511 18.1644 34.3323C18.174 34.4473 18.1837 34.5624 18.1934 34.6775C18.2439 35.2803 18.2964 35.8827 18.3594 36.4844C18.759 36.1352 18.759 36.1351 18.9095 35.6574C18.9018 35.577 18.894 35.4965 18.886 35.4136C18.8774 35.3224 18.8688 35.2312 18.8599 35.1372C18.805 34.6299 18.7459 34.1232 18.683 33.6168C18.6683 33.4974 18.6537 33.3779 18.6391 33.2585C18.5998 32.9375 18.5601 32.6165 18.5205 32.2955C18.4789 31.9589 18.4376 31.6222 18.3963 31.2855C18.3182 30.6494 18.2398 30.0134 18.1614 29.3773C18.072 28.6526 17.9829 27.9278 17.8939 27.203C17.7108 25.7134 17.5274 24.2239 17.3438 22.7344C17.318 22.7344 17.2922 22.7344 17.2656 22.7344ZM2.10939 35.625C1.89385 36.2716 1.93406 36.9772 1.87501 37.6562C6.90235 37.6562 11.9297 37.6562 17.1094 37.6562C17.1156 36.9459 17.1156 36.9459 17.0752 36.2451C17.0689 36.1765 17.0625 36.1079 17.056 36.0373C17.0351 35.847 17.0351 35.847 16.9531 35.625C12.0547 35.625 7.15626 35.625 2.10939 35.625Z" fill="white"/>
<path d="M31.6547 20.5994C32.102 20.9257 32.2963 21.258 32.4219 21.7969C32.4164 22.0555 32.4164 22.0555 32.3773 22.3435C32.37 22.3988 32.3626 22.4542 32.3551 22.5112C32.327 22.7161 32.2965 22.9205 32.2656 23.125C32.2528 23.2111 32.2399 23.2973 32.2266 23.386C32.134 24.0003 32.0368 24.6138 31.9372 25.227C31.8931 25.4992 31.8502 25.7716 31.8075 26.044C31.766 26.3074 31.7231 26.5706 31.6803 26.8338C31.6653 26.9307 31.6503 27.0275 31.6349 27.1273C31.5335 27.7385 31.4259 28.3108 30.9424 28.7402C30.459 29.0756 30.0309 29.1273 29.4531 29.0625C28.9902 28.9251 28.7056 28.6755 28.4375 28.2813C28.1904 27.74 28.2709 27.1744 28.3611 26.6029C28.3696 26.5482 28.3782 26.4935 28.3869 26.4371C28.4149 26.2583 28.4437 26.0796 28.4726 25.9009C28.4927 25.7754 28.5128 25.6499 28.5329 25.5245C28.575 25.2623 28.6175 25.0001 28.6603 24.7381C28.7149 24.4036 28.7676 24.0689 28.82 23.7341C28.8608 23.4751 28.9029 23.2163 28.9453 22.9576C28.9653 22.8343 28.9848 22.711 29.0038 22.5876C29.1204 21.8354 29.2272 21.2224 29.8047 20.6738C30.3852 20.2965 31.0442 20.2484 31.6547 20.5994ZM30.7031 21.7188C30.4828 22.0054 30.4199 22.2769 30.362 22.6293C30.3535 22.6799 30.3449 22.7305 30.3361 22.7826C30.3083 22.9488 30.2817 23.1152 30.2551 23.2816C30.2361 23.3976 30.217 23.5137 30.1978 23.6297C30.1579 23.8724 30.1185 24.1152 30.0796 24.358C30.0297 24.6692 29.9786 24.9801 29.927 25.2909C29.8874 25.5303 29.8484 25.7698 29.8096 26.0093C29.7909 26.124 29.7721 26.2386 29.7531 26.3533C29.7267 26.5134 29.7011 26.6737 29.6757 26.834C29.661 26.9251 29.6462 27.0162 29.631 27.1101C29.6114 27.3223 29.6184 27.4572 29.6875 27.6563C29.8353 27.7095 29.8353 27.7095 30 27.7344C30.2119 27.5225 30.2086 27.3613 30.2576 27.0664C30.2665 27.0137 30.2754 26.961 30.2846 26.9067C30.3141 26.7319 30.3426 26.5569 30.3711 26.3818C30.3913 26.2602 30.4115 26.1385 30.4317 26.0169C30.4743 25.7598 30.5166 25.5026 30.5586 25.2455C30.6143 24.9069 30.672 24.5687 30.7304 24.2305C30.7761 23.9653 30.821 23.7 30.8658 23.4346C30.8875 23.3065 30.9096 23.1784 30.932 23.0504C30.9632 22.8711 30.9932 22.6917 31.023 22.5122C31.0373 22.4322 31.0373 22.4322 31.052 22.3506C31.0995 22.0549 31.1107 21.9785 30.9375 21.7188C30.8602 21.7188 30.7828 21.7188 30.7031 21.7188Z" fill="white"/>
<path d="M26.9287 20.6787C27.254 21.004 27.4064 21.2749 27.44 21.7319C27.4383 22.7499 27.3672 23.7617 27.2926 24.7766C27.2704 25.0796 27.2488 25.3826 27.2273 25.6857C27.2133 25.8803 27.1993 26.0749 27.1853 26.2695C27.1757 26.4039 27.1757 26.4039 27.1658 26.541C27.042 28.2217 27.042 28.2217 26.4404 28.7792C25.9621 29.0981 25.5704 29.1189 25 29.0624C24.5205 28.9438 24.2688 28.6623 23.9944 28.2659C23.7101 27.5596 23.8445 26.7421 23.8977 26.0006C23.906 25.8791 23.9143 25.7575 23.9226 25.6359C23.94 25.3824 23.9579 25.1289 23.9762 24.8754C23.9994 24.5522 24.0212 24.2289 24.0426 23.9056C24.0594 23.655 24.077 23.4044 24.0949 23.1538C24.1033 23.0347 24.1114 22.9156 24.1192 22.7964C24.217 21.3171 24.217 21.3171 24.5962 20.8328C25.3726 20.2065 26.0727 20.1412 26.9287 20.6787ZM25.7812 21.6406C25.583 21.7868 25.548 21.8685 25.5028 22.1151C25.4959 22.2138 25.489 22.3125 25.4819 22.4142C25.4778 22.4687 25.4737 22.5232 25.4695 22.5794C25.4562 22.7596 25.4446 22.9398 25.433 23.1201C25.4243 23.2453 25.4155 23.3705 25.4066 23.4957C25.3883 23.7581 25.3707 24.0205 25.3537 24.283C25.3318 24.6197 25.3082 24.9561 25.284 25.2926C25.2656 25.5511 25.2481 25.8097 25.2308 26.0683C25.2224 26.1924 25.2137 26.3165 25.2049 26.4406C25.1926 26.6139 25.1815 26.7873 25.1706 26.9607C25.1607 27.1088 25.1607 27.1088 25.1507 27.2598C25.1351 27.5136 25.1351 27.5136 25.3125 27.7343C25.4156 27.7343 25.5187 27.7343 25.625 27.7343C25.7829 27.1933 25.8278 26.6655 25.8648 26.1044C25.8715 26.0085 25.8783 25.9125 25.8852 25.8137C25.8992 25.6114 25.913 25.4091 25.9265 25.2068C25.9471 24.8992 25.9686 24.5917 25.9902 24.2842C26.0038 24.0869 26.0174 23.8896 26.0308 23.6923C26.0404 23.5558 26.0404 23.5558 26.0501 23.4165C26.0858 22.8756 26.1016 22.3388 26.0937 21.7968C25.9906 21.7453 25.8875 21.6937 25.7812 21.6406Z" fill="white"/>
<path d="M21.5624 20.5469C21.9516 20.8239 22.2054 21.0885 22.2966 21.5708C22.3196 21.764 22.3361 21.9567 22.3504 22.1506C22.3564 22.2224 22.3624 22.2943 22.3686 22.3683C22.3873 22.5944 22.4046 22.8206 22.4218 23.0469C22.433 23.188 22.4444 23.3291 22.4557 23.4702C22.4834 23.8201 22.509 24.1701 22.5337 24.5201C22.5487 24.7318 22.5646 24.9434 22.5805 25.1549C22.6315 25.8572 22.6685 26.5588 22.6775 27.2629C22.6791 27.3271 22.6806 27.3912 22.6822 27.4573C22.6837 27.921 22.596 28.2503 22.2704 28.6002C22.2172 28.6448 22.1641 28.6894 22.1093 28.7354C22.0561 28.781 22.0029 28.8266 21.9481 28.8736C21.5642 29.1546 21.0783 29.0939 20.6249 29.0626C20.1832 28.9292 19.845 28.5957 19.6093 28.2032C19.4396 27.6546 19.4081 27.0844 19.3694 26.5149C19.3627 26.421 19.356 26.327 19.3491 26.2302C19.335 26.0317 19.3212 25.8331 19.3077 25.6346C19.2873 25.3362 19.2657 25.038 19.244 24.7397C19.182 23.8685 19.1257 22.9962 19.107 22.1229C19.1042 22.0586 19.1015 21.9944 19.0987 21.9283C19.0949 21.4551 19.2383 21.1503 19.5311 20.7813C20.12 20.2075 20.8585 20.1689 21.5624 20.5469ZM20.6249 21.6407C20.4459 21.7859 20.4459 21.7859 20.4512 22.0139C20.4602 22.6636 20.4861 23.3097 20.5315 23.9579C20.5381 24.0542 20.5446 24.1506 20.5514 24.2499C20.5653 24.4514 20.5793 24.6529 20.5936 24.8543C20.6152 25.1628 20.6358 25.4714 20.6563 25.7799C20.67 25.9766 20.6837 26.1733 20.6975 26.37C20.7036 26.4619 20.7096 26.5539 20.7158 26.6487C20.722 26.7342 20.7283 26.8198 20.7347 26.908C20.7399 26.983 20.7451 27.0579 20.7505 27.1351C20.7827 27.3545 20.8471 27.5326 20.9374 27.7344C21.1308 27.6958 21.1308 27.6958 21.328 27.6563C21.3581 26.617 21.278 25.5843 21.2031 24.5483C21.1814 24.2461 21.1608 23.9439 21.1403 23.6417C21.1267 23.4489 21.1129 23.2562 21.0991 23.0634C21.0931 22.9734 21.0871 22.8834 21.0809 22.7907C21.0746 22.7069 21.0684 22.6231 21.0619 22.5368C21.0567 22.4635 21.0515 22.3901 21.0462 22.3146C21.013 22.0926 20.9626 21.9183 20.8593 21.7188C20.7819 21.693 20.7046 21.6672 20.6249 21.6407Z" fill="white"/>
<path d="M20.9189 9.09125C21.4661 9.14304 22.0091 9.15262 22.5583 9.15094C22.7231 9.15044 22.8879 9.15064 23.0528 9.15085C23.7101 9.15024 24.3584 9.12794 25.0107 9.0415C25.2344 9.06256 25.2344 9.06256 25.4575 9.23987C25.625 9.45319 25.625 9.45319 25.6738 9.72662C25.612 10.0731 25.5025 10.1683 25.2344 10.3907C24.5091 10.6188 23.6671 10.5714 22.9123 10.5673C22.7294 10.5665 22.5466 10.5673 22.3637 10.5683C20.5303 10.5705 20.5303 10.5705 20.1333 10.2428C19.9586 10.027 19.9275 9.88604 19.9219 9.60944C20.0168 9.38962 20.093 9.2608 20.2932 9.12791C20.5202 9.04339 20.6785 9.06411 20.9189 9.09125Z" fill="white"/>
<path d="M25.503 12.5489C25.6766 12.8127 25.674 12.9715 25.6251 13.2813C25.4713 13.5285 25.3368 13.6396 25.0575 13.7277C23.6482 14.0036 21.6131 14.1521 20.2345 13.6719C20.0267 13.5079 20.0011 13.4413 19.9317 13.1739C19.9209 12.8593 19.9633 12.7431 20.1564 12.5C20.5608 12.2978 21.1495 12.4132 21.591 12.4451C22.4402 12.5042 23.2548 12.4828 24.1025 12.3965C25.1236 12.2959 25.1236 12.2959 25.503 12.5489Z" fill="white"/>
</svg>
