<svg width="40" height="40" viewBox="0 0 40 40" fill="none" xmlns="http://www.w3.org/2000/svg">
<g clip-path="url(#clip0_2397_1156)">
<path d="M17.9113 5.2515C18.4282 5.68919 18.9069 6.16147 19.3703 6.65538C19.4162 6.7032 19.4622 6.75102 19.5096 6.80028C19.5497 6.843 19.5897 6.88572 19.631 6.92973C19.8114 7.06585 19.93 7.10308 20.1562 7.10943C20.3369 6.98978 20.3369 6.98978 20.4977 6.80547C20.5931 6.7059 20.5931 6.7059 20.6905 6.60432C20.7575 6.53253 20.8245 6.46074 20.8935 6.38677C22.5871 4.63682 24.5435 3.45327 26.9531 2.9688C27.0362 2.95128 27.1193 2.93375 27.2049 2.9157C29.6276 2.48591 32.1594 2.95534 34.2969 4.14068C34.3811 4.18579 34.4654 4.23091 34.5523 4.27739C35.1185 4.59141 35.6065 4.96577 36.0937 5.39068C36.1606 5.44798 36.2275 5.50528 36.2964 5.56432C38.3685 7.37745 39.719 9.99059 40 12.7344C40.1197 15.2752 39.9638 18.6855 38.2812 20.7813C37.9433 21.0438 37.6452 21.0407 37.235 21.0209C37.1001 21.0166 36.9651 21.0123 36.8302 21.0081C36.759 21.0054 36.6877 21.0027 36.6143 21C36.2341 20.9871 35.8538 20.9823 35.4735 20.9763C34.9906 20.9684 34.5083 20.9581 34.0258 20.9377C32.3187 20.7751 32.3187 20.7751 30.7513 21.2656C30.3408 21.6752 30.0954 22.138 29.8704 22.6673C29.6531 23.1303 29.3349 23.5445 28.9062 23.8282C28.7213 23.8621 28.7213 23.8621 28.5254 23.8624C28.429 23.8646 28.429 23.8646 28.3307 23.8669C27.9651 23.7981 27.7186 23.605 27.5078 23.3029C27.4662 23.2224 27.4245 23.1418 27.3816 23.0588C27.3341 22.9686 27.2867 22.8784 27.2379 22.7855C27.1885 22.6887 27.1391 22.592 27.0898 22.4952C27.0385 22.3965 26.9871 22.2979 26.9355 22.1993C26.8327 22.0023 26.7305 21.805 26.6288 21.6075C26.4996 21.3568 26.3676 21.1077 26.2344 20.8591C26.1978 20.7907 26.1613 20.7223 26.1236 20.6518C26.0563 20.5259 25.9889 20.4001 25.9214 20.2744C25.7031 19.8616 25.7031 19.8616 25.7031 19.6876C25.6515 19.6876 25.6 19.6876 25.5469 19.6876C25.5263 19.7536 25.5057 19.8196 25.4845 19.8876C25.3859 20.1698 25.2664 20.4369 25.1376 20.7062C25.1128 20.7586 25.0881 20.8109 25.0626 20.8649C25.0094 20.9773 24.9561 21.0896 24.9027 21.2018C24.7894 21.44 24.6767 21.6784 24.564 21.9168C24.5064 22.0386 24.4488 22.1604 24.3912 22.2821C24.1263 22.842 23.8643 23.4031 23.6035 23.9649C23.5623 24.0531 23.5211 24.1414 23.4787 24.2323C23.2829 24.6531 23.0913 25.0749 22.9077 25.5011C22.8733 25.5799 22.839 25.6587 22.8036 25.7399C22.7404 25.8854 22.6784 26.0314 22.6178 26.178C22.4274 26.6146 22.2094 26.9348 21.7969 27.1876C21.4567 27.2981 21.2255 27.28 20.8789 27.1876C20.4544 26.9263 20.3185 26.5526 20.2013 26.0861C20.1662 25.9303 20.1322 25.7743 20.099 25.6181C20.08 25.5326 20.061 25.447 20.0415 25.3589C19.9793 25.0773 19.9184 24.7955 19.8575 24.5136C19.8144 24.3174 19.7712 24.1212 19.728 23.925C19.6262 23.4619 19.5251 22.9986 19.4245 22.5352C19.3102 22.009 19.1948 21.4831 19.0793 20.9571C18.8997 20.139 18.7207 19.3208 18.5426 18.5024C18.5251 18.4221 18.5076 18.3418 18.4896 18.2591C18.4654 18.148 18.4654 18.148 18.4408 18.0347C18.4269 17.9707 18.4129 17.9067 18.3986 17.8407C18.3579 17.6493 18.3192 17.4576 18.2812 17.2657C17.8489 18.1209 17.4298 18.9818 17.0192 19.8477C16.9218 20.0532 16.824 20.2586 16.7263 20.464C16.3476 21.2614 15.972 22.0599 15.6273 22.8727C15.4689 23.2348 15.3113 23.4923 15 23.7501C14.7902 23.82 14.6462 23.8455 14.4287 23.8526C14.371 23.8555 14.3133 23.8584 14.2538 23.8614C13.9766 23.8133 13.7897 23.7122 13.5937 23.5157C13.4197 23.2524 13.2829 22.9738 13.1445 22.6905C13.0626 22.528 12.9806 22.3656 12.8985 22.2031C12.858 22.1218 12.8174 22.0404 12.7756 21.9566C12.6006 21.6079 12.4188 21.2629 12.2363 20.918C12.2045 20.8576 12.1726 20.7971 12.1398 20.7348C11.8997 20.2791 11.6554 19.8259 11.4062 19.3751C11.082 19.6738 10.8525 20.0229 10.6093 20.3872C10.5767 20.4343 10.5441 20.4815 10.5105 20.5301C10.4818 20.5727 10.4532 20.6154 10.4236 20.6592C10.2025 20.9021 9.99019 21.0074 9.6643 21.0468C9.56663 21.0477 9.46896 21.0486 9.36833 21.0495C9.28709 21.0506 9.28709 21.0506 9.20421 21.0519C9.02624 21.0542 8.84831 21.0549 8.67033 21.0557C8.54653 21.057 8.42272 21.0584 8.29892 21.0599C7.97385 21.0636 7.64879 21.0659 7.32371 21.068C6.99168 21.0703 6.65967 21.074 6.32765 21.0775C5.67677 21.0842 5.02588 21.0895 4.37498 21.0938C4.53495 21.3164 4.69512 21.5388 4.85533 21.7612C4.92247 21.8546 4.92247 21.8546 4.99096 21.95C5.86026 23.156 6.80891 24.2942 7.81248 25.3907C7.84719 25.4289 7.8819 25.4671 7.91765 25.5065C8.65084 26.3142 9.39551 27.1216 10.2283 27.8284C10.3969 27.9743 10.5605 28.1249 10.7239 28.2766C11.1965 28.7151 11.6849 29.1273 12.1875 29.5313C12.2835 29.61 12.3794 29.6889 12.4753 29.7678C14.4203 31.3664 16.4857 32.7942 18.6362 34.1014C18.8117 34.2087 18.9857 34.318 19.1595 34.4278C19.2557 34.4868 19.3519 34.5458 19.4482 34.6045C19.5295 34.6552 19.6108 34.7059 19.6945 34.758C19.9174 34.8643 19.9174 34.8643 20.1452 34.8038C20.4547 34.6572 20.7473 34.494 21.04 34.3165C21.1057 34.2768 21.1713 34.2372 21.239 34.1964C23.2444 32.9684 25.1999 31.6319 27.0312 30.1563C27.1038 30.098 27.1765 30.0397 27.2513 29.9796C28.0921 29.2979 28.911 28.592 29.7049 27.8562C29.897 27.6792 30.0919 27.5064 30.2881 27.334C30.6646 26.996 31.0235 26.6413 31.3818 26.2842C31.4375 26.2289 31.4932 26.1735 31.5506 26.1165C31.8655 25.8007 32.1667 25.4772 32.4579 25.1394C32.6087 24.9646 32.7642 24.7944 32.9199 24.6241C33.2339 24.2774 33.5279 23.9179 33.8171 23.5505C34.1205 23.2039 34.3658 22.9972 34.8395 22.9615C35.2295 22.9793 35.4772 23.1282 35.7373 23.4083C35.896 23.7512 35.937 24.004 35.8594 24.3751C35.5525 25.0786 34.8819 25.683 34.375 26.2501C34.3369 26.2927 34.2989 26.3354 34.2597 26.3794C33.72 26.9827 33.154 27.5565 32.5781 28.1251C32.3619 28.3405 32.1467 28.5568 31.932 28.7739C31.4578 29.2525 30.9834 29.721 30.4687 30.1563C30.382 30.2322 30.2955 30.3082 30.209 30.3843C29.6045 30.9152 28.9885 31.4251 28.3513 31.9163C28.1923 32.0397 28.0345 32.1645 27.8769 32.2895C27.0192 32.9673 26.1373 33.6029 25.2344 34.2188C25.1752 34.2593 25.1159 34.2997 25.055 34.3414C20.7625 37.266 20.7625 37.266 19.8672 37.2239C19.4598 37.1415 19.1081 36.9218 18.75 36.7188C18.7011 36.6912 18.6522 36.6635 18.6019 36.635C16.0448 35.1799 13.6136 33.4917 11.3281 31.6407C11.2618 31.5872 11.1956 31.5337 11.1273 31.4786C9.68588 30.3083 8.34515 29.055 7.03123 27.7442C6.95642 27.6697 6.95642 27.6697 6.88009 27.5937C6.36658 27.0818 5.85638 26.5721 5.39061 26.0157C5.31936 25.9331 5.24806 25.8506 5.17668 25.7682C4.68186 25.1878 4.20635 24.5956 3.74998 23.9844C3.71111 23.9328 3.67224 23.8811 3.63218 23.8279C1.40772 20.8625 1.40772 20.8625 1.45384 19.7919C1.50015 19.515 1.61096 19.3472 1.79686 19.1407C2.09243 18.9302 2.41552 18.9693 2.7623 18.9794C2.89851 18.9819 3.03471 18.9844 3.17092 18.9869C3.243 18.9884 3.31509 18.99 3.38935 18.9916C3.77244 18.9991 4.15557 19.0011 4.53871 19.004C5.02572 19.0077 5.5125 19.0131 5.99938 19.0254C6.39341 19.0352 6.78709 19.0389 7.18124 19.0385C7.3308 19.0395 7.48036 19.0427 7.62982 19.0482C8.42583 19.0966 8.42583 19.0966 9.12837 18.7869C9.38856 18.4933 9.57609 18.1673 9.75503 17.8199C9.90124 17.5503 10.0804 17.3047 10.2588 17.0557C10.3036 16.9901 10.3036 16.9901 10.3493 16.9232C10.5934 16.5752 10.8659 16.2278 11.2939 16.1228C11.3568 16.1245 11.4196 16.1262 11.4844 16.128C11.5472 16.1279 11.61 16.1278 11.6748 16.1277C12.0164 16.2032 12.2497 16.3501 12.4524 16.6397C12.5676 16.8373 12.6739 17.0378 12.7783 17.2413C12.8176 17.3157 12.8569 17.3901 12.8974 17.4667C12.9817 17.6268 13.0654 17.7871 13.1487 17.9477C13.287 18.2144 13.4273 18.48 13.5678 18.7455C13.6612 18.9227 13.7544 19.1 13.8476 19.2774C13.8924 19.3625 13.9372 19.4475 13.9833 19.5352C14.0243 19.6141 14.0654 19.6929 14.1076 19.7742C14.1442 19.8443 14.1808 19.9144 14.2185 19.9865C14.2969 20.1563 14.2969 20.1563 14.2969 20.3126C14.3484 20.3126 14.4 20.3126 14.4531 20.3126C14.4737 20.2465 14.4942 20.1805 14.5154 20.1125C14.6141 19.8303 14.7335 19.5632 14.8623 19.2939C14.8871 19.2415 14.9119 19.1892 14.9374 19.1352C14.9906 19.0229 15.0439 18.9105 15.0973 18.7983C15.2106 18.5601 15.3233 18.3217 15.436 18.0833C15.4936 17.9615 15.5512 17.8397 15.6088 17.718C15.8737 17.1581 16.1357 16.597 16.3965 16.0352C16.4375 15.947 16.4786 15.8588 16.5209 15.768C16.7171 15.3457 16.9102 14.9224 17.0978 14.4962C17.1328 14.4171 17.1679 14.3379 17.204 14.2564C17.2688 14.1097 17.3328 13.9627 17.3959 13.8153C17.5935 13.3684 17.7877 13.0721 18.1933 12.7881C18.5524 12.672 18.8651 12.6919 19.1992 12.8614C19.4715 13.0102 19.5789 13.2354 19.6875 13.5157C19.7768 13.8367 19.8465 14.1614 19.9167 14.4871C19.9381 14.5841 19.9595 14.6812 19.9816 14.7812C20.0399 15.045 20.0973 15.309 20.1547 15.573C20.2145 15.8481 20.2751 16.123 20.3356 16.3979C20.4477 16.9084 20.5593 17.419 20.6705 17.9297C20.7548 18.3166 20.8393 18.7035 20.924 19.0903C20.9355 19.143 20.9471 19.1957 20.959 19.25C20.9819 19.3548 21.0049 19.4597 21.0278 19.5646C21.259 20.621 21.4892 21.6776 21.7187 22.7344C22.151 21.8792 22.5702 21.0183 22.9807 20.1524C23.0782 19.9468 23.1761 19.7414 23.274 19.5359C23.5492 18.9571 23.8231 18.3783 24.079 17.7906C24.1136 17.7114 24.1482 17.6322 24.1838 17.5506C24.2435 17.4124 24.302 17.2736 24.3589 17.1343C24.5409 16.712 24.7604 16.4168 25.1562 16.1719C25.3641 16.1152 25.3641 16.1152 25.5517 16.1231C25.6139 16.1237 25.676 16.1243 25.74 16.1249C26.093 16.2089 26.343 16.3948 26.5509 16.6897C26.5911 16.7673 26.6313 16.8449 26.6726 16.9248C26.742 17.0565 26.742 17.0565 26.8127 17.1908C26.8612 17.2858 26.9096 17.3807 26.958 17.4756C27.0087 17.573 27.0595 17.6702 27.1104 17.7675C27.2152 17.9679 27.3192 18.1687 27.4225 18.3698C27.5739 18.6641 27.7268 18.9576 27.8802 19.2508C28.1192 19.7083 28.357 20.1664 28.5937 20.6251C28.7811 20.4435 28.9497 20.2666 29.0967 20.051C29.1295 20.0037 29.1623 19.9565 29.1961 19.9077C29.2634 19.8096 29.3306 19.7113 29.3976 19.6129C29.4304 19.5658 29.4632 19.5186 29.4971 19.47C29.5262 19.4274 29.5553 19.3847 29.5852 19.3409C29.8066 19.0765 29.942 18.9905 30.2956 18.9533C30.4168 18.9512 30.5381 18.9504 30.6594 18.9506C30.7257 18.9499 30.7921 18.9491 30.8604 18.9482C31.0794 18.9459 31.2983 18.9452 31.5173 18.9444C31.6693 18.9431 31.8212 18.9417 31.9731 18.9402C32.3728 18.9365 32.7725 18.9342 33.1722 18.9321C33.5802 18.9298 33.9881 18.9262 34.396 18.9226C35.1963 18.9159 35.9966 18.9106 36.7969 18.9063C36.8855 18.6813 36.9738 18.4561 37.062 18.2309C37.0869 18.1676 37.1119 18.1042 37.1376 18.039C37.3117 17.5936 37.4602 17.1521 37.5635 16.6846C37.5789 16.6166 37.5943 16.5486 37.6102 16.4785C38.176 13.8717 37.8218 11.2712 36.4062 8.98443C35.0245 6.92412 32.9963 5.62627 30.5859 5.09282C28.3074 4.67458 25.9859 5.22968 24.0625 6.48443C23.5034 6.88448 23.0226 7.3576 22.543 7.84734C22.3315 8.05914 22.1107 8.25299 21.8826 8.4464C21.7136 8.59845 21.5552 8.75887 21.397 8.92207C20.573 9.76947 20.573 9.76947 19.9902 9.79986C19.127 9.7024 18.436 8.7521 17.8586 8.169C17.6424 7.95511 17.4196 7.75408 17.1878 7.55742C17.0753 7.46006 16.9655 7.35954 16.8576 7.25713C15.7124 6.17712 14.3366 5.51953 12.8125 5.1563C12.7069 5.12986 12.7069 5.12986 12.5992 5.10289C10.3961 4.64193 8.04495 5.20142 6.16316 6.38536C5.74329 6.66726 5.37039 7.00092 4.99998 7.3438C4.93674 7.4007 4.87349 7.4576 4.80833 7.51622C3.37449 8.86735 2.36714 10.9324 2.18748 12.8907C2.17721 12.9877 2.16694 13.0846 2.15635 13.1846C2.08543 13.966 2.1398 14.7156 2.22868 15.4938C2.28512 16.0098 2.32997 16.4269 2.03123 16.8751C1.71071 17.165 1.44992 17.2383 1.02965 17.2178C0.758076 17.1696 0.595319 17.0554 0.390607 16.8751C-0.137538 16.1163 -0.0290068 15.0175 -0.024432 14.126C-0.0242377 14.0655 -0.0240434 14.0051 -0.0238431 13.9427C-0.0139049 11.9436 0.438747 10.1952 1.40623 8.43755C1.45125 8.35336 1.49626 8.26917 1.54265 8.18242C1.85698 7.61618 2.23121 7.12805 2.65623 6.64068C2.71353 6.57381 2.77084 6.50694 2.82988 6.43804C6.63501 2.08931 13.4688 1.58377 17.9113 5.2515Z" fill="white"/>
</g>
<defs>
<clipPath id="clip0_2397_1156">
<rect width="40" height="40" fill="white"/>
</clipPath>
</defs>
</svg>
