<svg width="40" height="40" viewBox="0 0 40 40" fill="none" xmlns="http://www.w3.org/2000/svg">
<g clip-path="url(#clip0_2397_1082)">
<path d="M7.73428 0.859273C8.04754 1.13571 8.26735 1.38652 8.35928 1.79677C8.41795 1.79514 8.47662 1.7935 8.53707 1.79181C8.80494 1.78529 9.0728 1.78124 9.34073 1.77724C9.47918 1.77331 9.47918 1.77331 9.62042 1.76931C9.71031 1.7683 9.80019 1.76729 9.89279 1.76626C9.97503 1.76462 10.0573 1.76298 10.142 1.7613C10.7065 1.84187 11.0707 2.20903 11.4522 2.60122C11.4983 2.64759 11.5443 2.69397 11.5918 2.74175C11.7372 2.88845 11.8817 3.03595 12.0263 3.18349C12.1254 3.28375 12.2245 3.38395 12.3237 3.48409C12.5653 3.72833 12.8063 3.97328 13.0468 4.21865C13.2423 4.12606 13.3889 4.03858 13.5595 3.90127C13.868 3.65607 14.1437 3.64222 14.5238 3.64278C14.8732 3.68469 15.1933 3.80198 15.5191 3.9303C15.8534 4.05663 16.063 4.08386 16.4062 3.98427C16.4626 3.96796 16.5191 3.95166 16.5772 3.93485C17.0373 3.77167 17.2195 3.56665 17.4297 3.13192C17.4593 3.06515 17.4889 2.99838 17.5194 2.92959C17.8974 2.11067 17.8974 2.11067 18.2812 1.8749C18.578 1.77596 18.8591 1.78104 19.1686 1.77816C19.2329 1.77753 19.2971 1.7769 19.3634 1.77625C19.4994 1.77517 19.6355 1.77433 19.7716 1.77371C19.9102 1.77281 20.0489 1.77122 20.1875 1.76891C20.3883 1.76556 20.5889 1.76431 20.7897 1.76351C20.8818 1.76146 20.8818 1.76146 20.9757 1.75936C21.4154 1.76108 21.6684 1.85873 22.0312 2.10927C22.1706 2.28048 22.1706 2.28048 22.2704 2.46572C22.3088 2.5337 22.3472 2.60167 22.3867 2.67171C22.4633 2.81984 22.5363 2.96992 22.6058 3.12154C22.7976 3.52278 22.9366 3.78142 23.3544 3.96474C23.8781 4.12348 24.2493 4.00141 24.7509 3.82314C25.2271 3.66064 25.6918 3.54656 26.1773 3.73433C26.4136 3.8624 26.6224 4.01346 26.7968 4.21865C27.1204 4.09207 27.3315 3.85597 27.5677 3.61104C27.6571 3.52004 27.7465 3.42905 27.8359 3.33806C27.9756 3.19494 28.1152 3.05162 28.2545 2.90809C28.3896 2.76917 28.5255 2.631 28.6614 2.49288C28.723 2.42878 28.723 2.42878 28.7857 2.36339C29.0996 2.04536 29.3896 1.82116 29.849 1.77017C29.9729 1.77201 29.9729 1.77201 30.0994 1.77388C30.2346 1.77502 30.2346 1.77502 30.3725 1.77617C30.4655 1.77814 30.5584 1.7801 30.6542 1.78212C30.7964 1.78371 30.7964 1.78371 30.9414 1.78533C31.1745 1.78808 31.4075 1.79193 31.6405 1.79677C31.6605 1.72537 31.6804 1.65397 31.701 1.5804C31.8613 1.15811 32.1898 0.906154 32.5826 0.694478C33.1125 0.475488 33.5912 0.505005 34.1244 0.700277C34.5694 0.909005 34.9057 1.23625 35.1043 1.68783C35.2559 2.23455 35.2309 2.79481 35.0048 3.31533C34.7407 3.78002 34.3288 4.05174 33.828 4.21865C33.2276 4.27364 32.6971 4.25164 32.1874 3.90615C31.9009 3.64565 31.727 3.42513 31.6405 3.04677C31.0223 2.93651 30.3341 2.85179 29.7827 3.21702C29.0738 3.7721 28.4754 4.47558 27.8905 5.15615C27.9831 5.35171 28.0706 5.49825 28.2079 5.66884C28.5119 6.05124 28.4639 6.40409 28.4374 6.8749C28.2827 7.33896 28.2827 7.33896 28.1249 7.8124C29.6976 7.8124 31.2702 7.8124 32.8905 7.8124C32.9163 7.70927 32.9421 7.60615 32.9687 7.4999C33.2492 7.04295 33.6258 6.77811 34.1405 6.64052C34.7615 6.54429 35.2715 6.6607 35.7812 7.03115C36.1903 7.44364 36.4057 7.88406 36.4306 8.4667C36.4146 9.06039 36.202 9.50089 35.7812 9.92177C35.2861 10.27 34.8143 10.3766 34.2187 10.3124C33.6206 10.1693 33.2328 9.88465 32.8905 9.3749C32.8648 9.29755 32.839 9.22021 32.8124 9.14052C31.3429 9.14052 29.8733 9.14052 28.3593 9.14052C28.3593 9.19209 28.3593 9.24365 28.3593 9.29677C28.5067 9.34028 28.5067 9.34028 28.6571 9.38466C29.2424 9.581 29.9068 9.83969 30.2343 10.3905C30.3163 10.6366 30.3203 10.8115 30.3173 11.0692C30.3166 11.1469 30.3159 11.2245 30.3152 11.3045C30.3138 11.3935 30.3138 11.3935 30.3124 11.4843C30.3751 11.4836 30.4378 11.4829 30.5024 11.4822C31.0965 11.4759 31.6906 11.4711 32.2848 11.4681C32.5901 11.4665 32.8955 11.4643 33.2008 11.4607C33.4962 11.4573 33.7915 11.4554 34.0868 11.4546C34.1988 11.4541 34.3109 11.4529 34.4229 11.4512C35.3159 11.4382 36.1002 11.5487 36.8136 12.1273C37.2899 12.5994 37.5808 13.1498 37.5973 13.8245C37.5979 13.9812 37.5977 14.1379 37.5968 14.2946C37.597 14.4244 37.597 14.4244 37.5972 14.5568C37.5975 14.8469 37.5966 15.1369 37.5958 15.427C37.5957 15.6348 37.5957 15.8427 37.5958 16.0506C37.5959 16.4982 37.5954 16.9458 37.5946 17.3934C37.5933 18.0406 37.5929 18.6878 37.5927 19.3349C37.5923 20.3849 37.5913 21.435 37.5898 22.485C37.5884 23.5049 37.5873 24.5248 37.5866 25.5447C37.5866 25.6076 37.5865 25.6704 37.5865 25.7352C37.5863 26.0507 37.5861 26.3662 37.5859 26.6817C37.5843 29.2982 37.5815 31.9147 37.578 34.5311C37.6225 34.5295 37.667 34.5279 37.7128 34.5262C37.9169 34.5196 38.1209 34.5156 38.3251 34.5116C38.395 34.509 38.465 34.5064 38.537 34.5037C39.0193 34.4966 39.2928 34.5628 39.6874 34.8436C40.0583 35.2116 40.0405 35.6015 40.0426 36.0969C40.0414 36.1941 40.0402 36.2913 40.039 36.3915C40.0402 36.4878 40.0414 36.5842 40.0426 36.6834C40.0402 37.2603 39.9804 37.7024 39.6874 38.203C39.6579 38.254 39.6283 38.3051 39.5978 38.3576C39.2882 38.8659 38.7564 39.1841 38.203 39.3749C37.8421 39.4488 37.4916 39.4641 37.1246 39.4631C37.0343 39.4633 37.0343 39.4633 36.9422 39.4635C36.7402 39.4639 36.5381 39.4637 36.3361 39.4635C36.1899 39.4636 36.0437 39.4638 35.8975 39.464C35.4955 39.4645 35.0935 39.4645 34.6916 39.4644C34.2581 39.4644 33.8246 39.4648 33.3912 39.4652C32.5419 39.4658 31.6926 39.466 30.8433 39.4661C30.1531 39.4661 29.4629 39.4663 28.7726 39.4665C27.1346 39.4671 25.4966 39.4676 23.8586 39.4675C23.8062 39.4675 23.7538 39.4675 23.6998 39.4675C23.4343 39.4675 23.1688 39.4675 22.9033 39.4675C22.8243 39.4675 22.8243 39.4675 22.7436 39.4675C22.6369 39.4675 22.5303 39.4675 22.4237 39.4675C20.7647 39.4674 19.1057 39.468 17.4467 39.4691C15.5828 39.4703 13.7188 39.471 11.8549 39.4709C10.868 39.4709 9.88111 39.4711 8.89422 39.4719C8.05401 39.4726 7.21381 39.4728 6.37361 39.4723C5.94489 39.472 5.51617 39.472 5.08745 39.4727C4.69494 39.4733 4.30243 39.4732 3.90992 39.4725C3.76797 39.4724 3.62603 39.4725 3.48408 39.473C2.41952 39.476 1.55918 39.4556 0.727448 38.7206C0.0760566 37.9812 -0.0283819 37.3877 -0.0293876 36.4061C-0.0313011 36.3079 -0.0332145 36.2096 -0.0351859 36.1083C-0.0364536 35.7094 -0.0372744 35.3974 0.123811 35.0292C0.472527 34.6861 0.766662 34.5137 1.25449 34.5006C1.3946 34.5027 1.53469 34.5064 1.67471 34.5116C1.74677 34.513 1.81883 34.5144 1.89307 34.5159C2.06939 34.5195 2.24554 34.5247 2.42178 34.5311C2.42167 34.4868 2.42155 34.4425 2.42142 34.3968C2.41443 31.7677 2.40907 29.1385 2.40583 26.5094C2.40544 26.1935 2.40503 25.8777 2.40462 25.5618C2.40454 25.499 2.40445 25.4361 2.40437 25.3713C2.40301 24.3539 2.40055 23.3364 2.39767 22.319C2.39475 21.2746 2.39302 20.2302 2.39238 19.1858C2.39195 18.5416 2.3906 17.8975 2.38806 17.2533C2.38641 16.8112 2.38591 16.3692 2.38632 15.9272C2.38652 15.6723 2.38604 15.4175 2.38453 15.1627C2.38297 14.8858 2.38335 14.609 2.3842 14.3321C2.38329 14.2523 2.38238 14.1725 2.38145 14.0903C2.38758 13.3509 2.59849 12.72 3.10935 12.1737C3.67668 11.7031 4.31365 11.474 5.03996 11.4754C5.11547 11.4754 5.11547 11.4754 5.1925 11.4754C5.35821 11.4754 5.5239 11.476 5.68961 11.4766C5.80476 11.4768 5.91992 11.4769 6.03508 11.477C6.33767 11.4773 6.64027 11.478 6.94286 11.4789C7.25183 11.4797 7.56081 11.4801 7.86978 11.4805C8.47566 11.4813 9.08153 11.4826 9.68741 11.4843C9.68616 11.4257 9.68492 11.3671 9.68363 11.3068C9.68266 11.2297 9.68169 11.1526 9.6807 11.0732C9.67945 10.9969 9.6782 10.9206 9.67692 10.842C9.69256 10.5183 9.7736 10.3096 9.99991 10.078C10.251 9.89353 10.5042 9.75892 10.7812 9.60927C11.0648 9.45459 11.3483 9.2999 11.6405 9.14052C10.171 9.14052 8.70147 9.14052 7.18741 9.14052C7.08428 9.32099 6.98116 9.50146 6.87491 9.6874C6.45826 10.104 6.01738 10.3184 5.4296 10.3417C4.84181 10.3184 4.40093 10.104 3.98428 9.6874C3.63277 9.18764 3.54023 8.72447 3.59366 8.1249C3.70992 7.5909 3.99577 7.15194 4.45334 6.84957C4.9678 6.58728 5.4925 6.54707 6.05093 6.68935C6.51048 6.86442 6.84465 7.16364 7.10928 7.57802C7.10928 7.65537 7.10928 7.73271 7.10928 7.8124C8.68194 7.8124 10.2546 7.8124 11.8749 7.8124C11.7202 7.34834 11.7202 7.34834 11.5624 6.8749C11.5087 6.30442 11.5433 6.011 11.8749 5.54677C12.0116 5.39541 12.0116 5.39541 12.1093 5.3124C11.8969 4.81762 11.4794 4.43392 11.1132 4.04775C11.072 4.00426 11.0307 3.96078 10.9882 3.91597C10.4879 3.40041 10.0792 3.02321 9.3318 2.96581C9.00306 2.96986 8.68325 2.98963 8.35928 3.04677C8.33683 3.10629 8.31437 3.16581 8.29123 3.22713C8.11956 3.63641 7.8855 3.8915 7.49503 4.09169C6.91608 4.31962 6.32302 4.31464 5.75186 4.06728C5.28339 3.804 5.0115 3.39404 4.84366 2.89052C4.79349 2.2893 4.77531 1.74342 5.15616 1.2499C5.84411 0.469275 6.84148 0.345017 7.73428 0.859273ZM6.17178 2.03115C6.06081 2.25309 6.06909 2.41043 6.09366 2.65615C6.21085 2.85146 6.21085 2.85146 6.40616 2.96865C6.66808 3.00684 6.8174 2.99663 7.05557 2.88076C7.24065 2.67511 7.26553 2.54083 7.26553 2.26552C7.12438 2.02122 7.02455 1.90424 6.7626 1.79677C6.50252 1.79677 6.37761 1.87678 6.17178 2.03115ZM32.9833 1.92373C32.793 2.13036 32.7343 2.22017 32.7343 2.4999C32.8711 2.78995 32.8711 2.78995 33.1249 2.96865C33.4047 2.99906 33.5439 3.00271 33.7792 2.8417C33.9433 2.60187 33.9478 2.4729 33.9062 2.1874C33.786 1.94033 33.708 1.88748 33.4472 1.79677C33.196 1.77642 33.196 1.77642 32.9833 1.92373ZM18.9062 3.04677C18.7837 3.29492 18.6612 3.54306 18.5351 3.79873C18.2161 4.4057 17.9802 4.77345 17.3208 5.01302C17.251 5.03447 17.1812 5.05592 17.1093 5.07802C17.016 5.12589 16.9231 5.17457 16.831 5.22451C16.1536 5.44618 15.5756 5.30211 14.9317 5.05391C14.6564 4.94999 14.4952 4.8937 14.2187 4.9999C13.9551 5.19994 13.7234 5.43372 13.4862 5.66396C13.3858 5.7552 13.3858 5.7552 13.2833 5.84829C12.9346 6.16674 12.9346 6.16674 12.8009 6.59738C12.8399 6.78001 12.8938 6.93846 12.9687 7.10927C12.9906 7.17272 13.0126 7.23617 13.0352 7.30153C13.0551 7.35088 13.0751 7.40023 13.0956 7.45107C13.3746 8.30279 13.1526 8.98771 12.7657 9.76583C12.5296 10.1915 12.239 10.3647 11.7968 10.5468C11.6365 10.6333 11.477 10.7212 11.3183 10.8104C11.1914 10.879 11.0645 10.9474 10.9374 11.0155C10.9374 11.1702 10.9374 11.3249 10.9374 11.4843C12.5358 11.4843 14.1343 11.4843 15.7812 11.4843C15.9101 11.0976 16.039 10.7108 16.1718 10.3124C16.4257 9.86318 16.4257 9.86318 16.5441 9.68374C16.653 9.52488 16.653 9.52488 16.7187 9.29677C17.2916 9.20129 17.2916 9.20129 17.5341 9.28212C17.7204 9.4237 17.734 9.52962 17.7733 9.76064C17.7717 10.1444 17.5377 10.4139 17.3223 10.7152C17.1501 10.9768 17.1501 10.9768 17.0312 11.4843C18.9905 11.4843 20.9499 11.4843 22.9687 11.4843C22.5713 10.3916 22.1676 9.84671 21.1803 9.29189C20.7431 9.09417 20.268 9.10227 19.7961 9.08651C19.554 9.06448 19.417 9.0414 19.2187 8.90615C19.0995 8.66788 19.1221 8.46534 19.1405 8.20302C19.3118 7.97889 19.3809 7.96737 19.6728 7.90517C20.8198 7.81765 21.8695 8.19537 22.7703 8.88845C23.5927 9.60966 23.9102 10.4562 24.2187 11.4843C25.8171 11.4843 27.4155 11.4843 29.0624 11.4843C29.0624 11.3296 29.0624 11.1749 29.0624 11.0155C29.0175 10.9944 28.9727 10.9733 28.9264 10.9515C27.3785 10.2073 27.3785 10.2073 27.0962 9.43014C27.0747 9.36034 27.0533 9.29055 27.0312 9.21865C26.9833 9.12538 26.9346 9.03251 26.8847 8.94033C26.663 8.263 26.8071 7.68495 27.0553 7.04107C27.1592 6.76584 27.2157 6.60448 27.1093 6.32802C26.9074 6.06463 26.6719 5.83289 26.4403 5.5956C26.3789 5.52863 26.3174 5.46166 26.254 5.39266C25.9458 5.05111 25.9458 5.05111 25.5307 4.91021C25.3673 4.95002 25.2291 5.00452 25.078 5.07802C25.0115 5.09998 24.9449 5.12193 24.8763 5.14455C24.7901 5.17446 24.7901 5.17446 24.7021 5.20498C23.8182 5.46037 23.1509 5.27664 22.3434 4.87508C21.9057 4.63235 21.7618 4.36591 21.5624 3.90615C21.4077 3.62255 21.253 3.33896 21.0937 3.04677C20.3718 3.04677 19.6499 3.04677 18.9062 3.04677ZM4.84366 8.28115C4.83848 8.58136 4.8578 8.74927 5.04874 8.98427C5.32146 9.0991 5.49924 9.06116 5.78116 8.98427C5.95043 8.86709 5.95043 8.86709 6.01553 8.67177C6.01034 8.37571 6.00243 8.19688 5.80069 7.97353C5.36123 7.76601 5.12256 7.89561 4.84366 8.28115ZM33.9843 8.28115C33.9791 8.58136 33.9984 8.74927 34.1894 8.98427C34.4647 9.10022 34.638 9.06682 34.9218 8.98427C35.1234 8.76373 35.1572 8.64793 35.1513 8.34951C35.0945 8.12193 35.0945 8.12193 34.9413 7.97841C34.5052 7.76035 34.2621 7.89712 33.9843 8.28115ZM3.87198 13.247C3.70055 13.5144 3.66203 13.7157 3.66217 14.0264C3.66202 14.0995 3.66186 14.1726 3.6617 14.248C3.66193 14.3285 3.66216 14.4089 3.66239 14.4919C3.66229 14.6199 3.66229 14.6199 3.66219 14.7506C3.66206 15.0381 3.66249 15.3257 3.66292 15.6132C3.66294 15.8187 3.66292 16.0243 3.66288 16.2298C3.66284 16.6731 3.66309 17.1164 3.66352 17.5596C3.66416 18.2005 3.66436 18.8414 3.66446 19.4823C3.66463 20.522 3.66515 21.5618 3.66589 22.6015C3.66661 23.6117 3.66716 24.6218 3.66749 25.6319C3.66751 25.6942 3.66753 25.7564 3.66756 25.8206C3.66766 26.1328 3.66776 26.4451 3.66785 26.7573C3.66866 29.3486 3.67004 31.9399 3.67178 34.5311C3.74588 34.5327 3.81998 34.5342 3.89632 34.5358C4.17181 34.542 4.44727 34.5487 4.72273 34.5559C4.84185 34.5589 4.96097 34.5617 5.08009 34.5641C5.25155 34.5677 5.42296 34.5722 5.59439 34.5769C5.64746 34.5778 5.70053 34.5787 5.75521 34.5797C6.03365 34.5883 6.25114 34.6056 6.48428 34.7655C6.54288 34.9065 6.54288 34.9065 6.56241 35.0683C6.57047 35.1212 6.57852 35.1742 6.58682 35.2288C6.5501 35.4721 6.43959 35.5513 6.24991 35.703C6.01954 35.7436 6.01954 35.7436 5.74828 35.7457C5.64663 35.7472 5.54499 35.7488 5.44026 35.7503C5.32969 35.7505 5.21912 35.7506 5.10855 35.7506C4.99514 35.7518 4.88174 35.7531 4.76833 35.7545C4.47036 35.758 4.17241 35.7595 3.87443 35.7607C3.57015 35.7622 3.2659 35.7655 2.96164 35.7686C2.36503 35.7745 1.76842 35.7784 1.17178 35.7811C1.16927 35.9552 1.16747 36.1292 1.16599 36.3033C1.16491 36.4002 1.16383 36.4972 1.16272 36.597C1.17839 37.0776 1.28628 37.4248 1.58194 37.8026C2.0218 38.1425 2.41292 38.238 2.96091 38.2325C3.05104 38.233 3.05104 38.233 3.143 38.2336C3.34413 38.2344 3.54521 38.2336 3.74634 38.2328C3.89208 38.2331 4.03782 38.2334 4.18356 38.2339C4.58389 38.2349 4.98421 38.2344 5.38454 38.2337C5.81634 38.2331 6.24813 38.234 6.67993 38.2346C7.52576 38.2356 8.37158 38.2354 9.21741 38.2347C9.90475 38.2342 10.5921 38.2341 11.2794 38.2344C11.3772 38.2344 11.475 38.2345 11.5757 38.2345C11.7743 38.2346 11.9729 38.2346 12.1716 38.2347C13.9815 38.2354 15.7914 38.2347 17.6013 38.2335C19.2535 38.2324 20.9056 38.2325 22.5578 38.2336C24.4141 38.2348 26.2704 38.2353 28.1267 38.2346C28.3246 38.2345 28.5225 38.2345 28.7204 38.2344C28.8178 38.2344 28.9151 38.2343 29.0155 38.2343C29.7021 38.2341 30.3887 38.2344 31.0753 38.235C31.9119 38.2356 32.7485 38.2354 33.5851 38.2342C34.0121 38.2336 34.439 38.2333 34.866 38.2341C35.2567 38.2348 35.6474 38.2344 36.0382 38.2332C36.1796 38.2329 36.3211 38.2331 36.4626 38.2336C36.6547 38.2343 36.8468 38.2336 37.0389 38.2325C37.1215 38.2333 37.1215 38.2333 37.2058 38.2342C37.6897 38.2287 38.0346 38.0988 38.4179 37.8026C38.7856 37.3328 38.8404 36.8931 38.8338 36.3033C38.833 36.2054 38.8322 36.1074 38.8313 36.0065C38.8302 35.9321 38.8291 35.8578 38.828 35.7811C37.0474 35.7647 35.2668 35.7523 33.4861 35.7447C32.6593 35.7411 31.8325 35.7362 31.0057 35.7281C30.2849 35.7211 29.5642 35.7166 28.8434 35.715C28.4618 35.7141 28.0804 35.7119 27.6988 35.7068C27.3394 35.702 26.9801 35.7006 26.6206 35.7016C26.489 35.7014 26.3573 35.7 26.2258 35.6973C25.5028 35.6696 25.5028 35.6696 24.8501 35.9364C24.6615 36.1195 24.6615 36.1195 24.5121 36.3147C24.1609 36.7489 23.5791 36.8787 23.0468 36.953C22.5858 36.9775 22.1253 36.9789 21.6637 36.9793C21.5288 36.9798 21.3939 36.9803 21.2589 36.9808C20.9768 36.9818 20.6947 36.9821 20.4126 36.982C20.0537 36.982 19.6949 36.9841 19.336 36.9868C19.0575 36.9885 18.7789 36.9888 18.5003 36.9888C18.3682 36.9889 18.236 36.9896 18.1038 36.9908C16.2943 37.006 16.2943 37.006 15.5947 36.4617C15.5354 36.4015 15.4761 36.3412 15.4149 36.2792C15.3534 36.2186 15.2919 36.1579 15.2285 36.0955C15.1788 36.0433 15.1292 35.9911 15.078 35.9374C14.8817 35.7411 14.7613 35.762 14.4934 35.7594C14.4337 35.7596 14.374 35.7598 14.3125 35.76C14.2496 35.7595 14.1867 35.7591 14.1219 35.7587C13.9851 35.7579 13.8483 35.7575 13.7115 35.7573C13.4952 35.757 13.2789 35.7557 13.0625 35.7541C12.4473 35.7498 11.8321 35.7474 11.2169 35.7455C10.8409 35.7443 10.4648 35.7419 10.0888 35.7389C9.9453 35.738 9.8018 35.7375 9.65829 35.7375C9.45777 35.7375 9.2573 35.7361 9.05678 35.7343C8.99724 35.7347 8.93769 35.735 8.87634 35.7354C8.4778 35.7299 8.4778 35.7299 8.28365 35.6007C8.14386 35.3717 8.17115 35.1814 8.20303 34.9218C8.3206 34.7506 8.3206 34.7506 8.51553 34.6093C8.74321 34.5788 8.94121 34.5673 9.16874 34.5701C9.23446 34.5697 9.30017 34.5692 9.36787 34.5688C9.58499 34.5678 9.80202 34.5691 10.0191 34.5705C10.1701 34.5705 10.3211 34.5704 10.4722 34.5702C10.7886 34.5701 11.1051 34.571 11.4216 34.5728C11.827 34.575 12.2325 34.5748 12.6379 34.5738C12.9498 34.5733 13.2616 34.5739 13.5735 34.5749C13.7229 34.5752 13.8724 34.5752 14.0219 34.5749C14.231 34.5747 14.44 34.576 14.6491 34.5777C14.7416 34.5772 14.7416 34.5772 14.8359 34.5766C15.2997 34.5829 15.5477 34.6897 15.873 35.0121C15.984 35.1339 16.0947 35.2559 16.205 35.3783C16.6286 35.7331 17.0921 35.8105 17.6372 35.8115C17.7227 35.8121 17.7227 35.8121 17.81 35.8127C17.9963 35.8137 18.1827 35.8131 18.3691 35.8123C18.4998 35.8124 18.6305 35.8127 18.7612 35.813C19.0344 35.8133 19.3076 35.8128 19.5808 35.8117C19.9296 35.8104 20.2784 35.8111 20.6272 35.8125C20.897 35.8134 21.1667 35.8131 21.4364 35.8125C21.5649 35.8124 21.6935 35.8125 21.8221 35.8131C22.0023 35.8137 22.1824 35.8128 22.3626 35.8115C22.4648 35.8113 22.567 35.8111 22.6723 35.8109C23.2683 35.7511 23.6523 35.5481 24.0478 35.1073C24.4979 34.619 24.4979 34.619 24.898 34.5984C25.0265 34.5977 25.0265 34.5977 25.1575 34.5969C25.2558 34.5961 25.3541 34.5954 25.4553 34.5946C25.5644 34.5941 25.6735 34.5937 25.7826 34.5932C25.8973 34.5925 26.012 34.5917 26.1267 34.5909C26.4384 34.5888 26.7501 34.5871 27.0618 34.5856C27.3874 34.5839 27.713 34.5817 28.0386 34.5796C28.6554 34.5757 29.2721 34.5722 29.8888 34.5689C30.5909 34.565 31.293 34.5607 31.9951 34.5564C33.4394 34.5475 34.8837 34.5391 36.328 34.5311C36.3352 31.8831 36.3407 29.2351 36.344 26.587C36.3444 26.2744 36.3448 25.9617 36.3452 25.6491C36.3453 25.5869 36.3454 25.5246 36.3454 25.4605C36.3468 24.4527 36.3493 23.445 36.3521 22.4372C36.3551 21.4032 36.3568 20.3691 36.3574 19.3351C36.3579 18.697 36.3592 18.059 36.3618 17.4209C36.3636 16.9316 36.3638 16.4424 36.3634 15.9531C36.3635 15.7524 36.3641 15.5517 36.3653 15.351C36.3668 15.0771 36.3665 14.8033 36.3656 14.5294C36.3665 14.4499 36.3674 14.3703 36.3684 14.2883C36.3643 13.8061 36.302 13.5175 36.0155 13.1249C35.6059 12.8072 35.3181 12.7246 34.807 12.7238C34.7552 12.7236 34.7035 12.7234 34.6501 12.7232C34.4753 12.7227 34.3006 12.7227 34.1258 12.7228C33.9997 12.7225 33.8736 12.7222 33.7476 12.7219C33.4001 12.7211 33.0527 12.7208 32.7052 12.7206C32.3309 12.7203 31.9566 12.7196 31.5822 12.7189C30.6777 12.7173 29.7732 12.7166 28.8687 12.7159C28.4429 12.7155 28.0172 12.7151 27.5914 12.7147C26.1765 12.7134 24.7615 12.7122 23.3465 12.7117C22.9792 12.7115 22.6119 12.7114 22.2446 12.7112C22.1534 12.7112 22.0621 12.7111 21.968 12.7111C20.4887 12.7104 19.0094 12.7085 17.5302 12.7059C16.012 12.7034 14.4939 12.7019 12.9758 12.7017C12.1232 12.7015 11.2706 12.7008 10.418 12.6988C9.69191 12.6971 8.96587 12.6965 8.23982 12.6973C7.86934 12.6976 7.49887 12.6975 7.12838 12.696C6.78915 12.6946 6.44995 12.6947 6.11072 12.6959C5.98806 12.6961 5.8654 12.6957 5.74275 12.6948C4.70922 12.6856 4.70922 12.6856 3.87198 13.247Z" fill="white"/>
<path d="M5.74243 13.8668C5.79262 13.8663 5.84281 13.8659 5.89453 13.8654C6.06296 13.8643 6.23129 13.8654 6.39972 13.8664C6.52159 13.8661 6.64346 13.8656 6.76533 13.865C7.1004 13.8637 7.43545 13.8643 7.77052 13.8653C8.13181 13.866 8.49309 13.8649 8.85438 13.864C9.56221 13.8626 10.27 13.8629 10.9779 13.8639C11.553 13.8646 12.1282 13.8647 12.7034 13.8643C12.826 13.8642 12.826 13.8642 12.9512 13.8642C13.1174 13.8641 13.2835 13.864 13.4497 13.8639C15.0085 13.863 16.5672 13.864 18.126 13.8657C19.4641 13.8671 20.8023 13.8668 22.1404 13.8654C23.6935 13.8637 25.2466 13.8631 26.7998 13.864C26.9653 13.8641 27.1309 13.8642 27.2964 13.8643C27.4186 13.8644 27.4186 13.8644 27.5432 13.8645C28.1179 13.8647 28.6925 13.8643 29.2671 13.8635C29.9671 13.8627 30.6672 13.8629 31.3672 13.8646C31.7246 13.8654 32.0819 13.8657 32.4392 13.8647C32.7661 13.8637 33.093 13.8642 33.4199 13.8659C33.5384 13.8663 33.6568 13.8661 33.7753 13.8653C33.936 13.8644 34.0966 13.8653 34.2573 13.8668C34.3467 13.8669 34.436 13.8669 34.5281 13.867C34.8216 13.9154 34.9518 14.0046 35.1561 14.2186C35.205 14.3778 35.205 14.3778 35.2051 14.5503C35.206 14.6163 35.207 14.6823 35.208 14.7503C35.2071 14.8224 35.2062 14.8946 35.2052 14.9689C35.2058 15.0458 35.2063 15.1228 35.2069 15.202C35.2083 15.4605 35.2068 15.719 35.2054 15.9775C35.2058 16.1625 35.2064 16.3476 35.2071 16.5326C35.2084 16.9835 35.2079 17.4343 35.2065 17.8851C35.2054 18.2515 35.2051 18.6179 35.2054 18.9842C35.2054 19.0363 35.2054 19.0885 35.2055 19.1422C35.2056 19.2481 35.2056 19.3539 35.2057 19.4598C35.2064 20.3963 35.2051 21.3328 35.2028 22.2693C35.2005 23.1782 35.2 24.0872 35.2012 24.9961C35.2025 25.9856 35.2028 26.9751 35.2014 27.9647C35.2013 28.0702 35.2011 28.1757 35.201 28.2812C35.2009 28.3331 35.2008 28.385 35.2008 28.4385C35.2003 28.8044 35.2006 29.1704 35.2011 29.5364C35.2017 30.0289 35.2008 30.5213 35.1986 31.0138C35.1981 31.1948 35.1981 31.3758 35.1986 31.5569C35.1993 31.8034 35.1981 32.0499 35.1963 32.2965C35.197 32.3686 35.1976 32.4408 35.1983 32.5151C35.1974 32.5811 35.1966 32.6471 35.1957 32.7151C35.1956 32.772 35.1955 32.8289 35.1954 32.8876C35.137 33.1242 35.0376 33.2146 34.8436 33.3593C34.6148 33.3984 34.6148 33.3984 34.3424 33.3986C34.292 33.399 34.2416 33.3995 34.1897 33.4C34.0201 33.4011 33.8507 33.4 33.6811 33.3989C33.5586 33.3993 33.4361 33.3998 33.3136 33.4004C32.9764 33.4017 32.6393 33.4011 32.3021 33.4001C31.9387 33.3994 31.5752 33.4005 31.2118 33.4013C30.4997 33.4027 29.7875 33.4024 29.0754 33.4015C28.4967 33.4008 27.9181 33.4007 27.3395 33.4011C27.2161 33.4011 27.2161 33.4011 27.0902 33.4012C26.9231 33.4013 26.756 33.4014 26.5889 33.4015C25.021 33.4024 23.453 33.4014 21.8851 33.3997C20.5389 33.3983 19.1926 33.3986 17.8464 33.4C16.2842 33.4017 14.722 33.4023 13.1597 33.4014C12.9932 33.4013 12.8268 33.4012 12.6603 33.4011C12.5374 33.401 12.5374 33.401 12.412 33.4009C11.8339 33.4007 11.2558 33.4011 10.6776 33.4018C9.97335 33.4027 9.2691 33.4025 8.56483 33.4008C8.2053 33.4 7.84579 33.3997 7.48626 33.4007C7.1574 33.4016 6.82859 33.4011 6.49974 33.3995C6.3805 33.3991 6.26127 33.3993 6.14204 33.4001C5.98043 33.401 5.81895 33.4 5.65735 33.3986C5.56745 33.3985 5.47756 33.3985 5.38494 33.3984C5.10323 33.3502 5.01082 33.2758 4.84363 33.0468C4.80437 32.8876 4.80437 32.8876 4.80408 32.7151C4.80322 32.6491 4.80236 32.5831 4.80147 32.5151C4.80211 32.4429 4.80276 32.3708 4.80342 32.2965C4.80288 32.2196 4.80233 32.1426 4.80177 32.0634C4.80034 31.8048 4.80115 31.5464 4.80195 31.2879C4.8014 31.1028 4.80072 30.9178 4.79991 30.7328C4.79833 30.2819 4.79823 29.8311 4.79887 29.3803C4.79936 29.0139 4.79927 28.6475 4.79877 28.2812C4.7987 28.229 4.79863 28.1769 4.79855 28.1232C4.79841 28.0173 4.79826 27.9114 4.79812 27.8056C4.79682 26.8125 4.7975 25.8194 4.79882 24.8263C4.79997 23.9174 4.79882 23.0085 4.79657 22.0996C4.79428 21.1667 4.79342 20.2337 4.79416 19.3007C4.79424 19.1952 4.79432 19.0897 4.7944 18.9842C4.79443 18.9323 4.79447 18.8804 4.79451 18.8269C4.79468 18.461 4.79391 18.095 4.79277 17.729C4.79135 17.2365 4.7918 16.7441 4.79373 16.2516C4.79412 16.0706 4.79384 15.8895 4.79286 15.7085C4.79162 15.4619 4.79277 15.2155 4.79455 14.9689C4.79363 14.8968 4.7927 14.8246 4.79175 14.7503C4.79272 14.6843 4.79369 14.6183 4.79469 14.5503C4.79471 14.4933 4.79473 14.4364 4.79475 14.3778C4.93265 13.9287 5.32735 13.867 5.74243 13.8668ZM6.09363 15.1561C6.09363 20.7507 6.09363 26.3452 6.09363 32.1093C15.2718 32.1093 24.4499 32.1093 33.9061 32.1093C33.9061 26.5147 33.9061 20.9202 33.9061 15.1561C24.728 15.1561 15.5499 15.1561 6.09363 15.1561Z" fill="white"/>
<path d="M20.3653 16.2977C20.4622 16.2971 20.4622 16.2971 20.5611 16.2965C20.7729 16.2954 20.9845 16.2961 21.1963 16.2969C21.3445 16.2967 21.4928 16.2965 21.641 16.2962C21.951 16.2959 22.2609 16.2964 22.5709 16.2975C22.967 16.2988 23.3631 16.298 23.7593 16.2966C24.0652 16.2958 24.371 16.2961 24.6769 16.2967C24.823 16.2968 24.969 16.2966 25.115 16.2961C25.3195 16.2955 25.5239 16.2964 25.7285 16.2977C25.7881 16.2972 25.8476 16.2968 25.909 16.2963C26.5048 16.3032 27.0171 16.4808 27.4576 16.892C27.8555 17.3514 27.9441 17.8523 27.9199 18.4484C27.8436 19.0302 27.5531 19.3579 27.117 19.7307C26.8029 19.9472 26.5275 20.0196 26.1484 20.0152C26.0721 20.0147 25.9958 20.0142 25.9172 20.0136C25.8385 20.0123 25.7598 20.011 25.6787 20.0097C25.5985 20.009 25.5183 20.0083 25.4356 20.0075C25.2383 20.0057 25.041 20.0031 24.8438 19.9999C24.8478 20.1214 24.8478 20.1214 24.852 20.2453C24.8542 20.3523 24.8563 20.4593 24.8584 20.5663C24.8604 20.6196 24.8623 20.6729 24.8643 20.7277C24.8679 20.9734 24.859 21.144 24.7397 21.3613C24.5469 21.5432 24.4024 21.5572 24.1406 21.5624C23.8416 21.4333 23.7127 21.3147 23.5938 21.0155C23.559 20.7185 23.5648 20.4208 23.5645 20.122C23.5625 20.041 23.5606 19.9599 23.5587 19.8765C23.5564 19.2809 23.5564 19.2809 23.7421 18.9718C24.0202 18.7283 24.2 18.7388 24.5651 18.7334C24.6658 18.7312 24.7664 18.729 24.8701 18.7267C25.0304 18.7235 25.1907 18.7206 25.351 18.7185C25.5058 18.7164 25.6604 18.7127 25.8151 18.709C25.9078 18.7075 26.0005 18.7059 26.096 18.7043C26.3262 18.6902 26.3262 18.6902 26.4758 18.5669C26.6103 18.366 26.587 18.2038 26.5625 17.9687C26.4279 17.7149 26.4279 17.7149 26.1719 17.6562C25.9703 17.6479 25.7709 17.6439 25.5693 17.6436C25.5081 17.6432 25.4468 17.6428 25.3837 17.6424C25.181 17.6412 24.9784 17.6407 24.7757 17.6403C24.6349 17.6398 24.4941 17.6394 24.3533 17.6389C24.0581 17.6381 23.7629 17.6377 23.4677 17.6374C23.0893 17.637 22.7109 17.6351 22.3325 17.6329C22.0417 17.6314 21.7509 17.631 21.4601 17.6309C21.3206 17.6306 21.1811 17.63 21.0416 17.629C20.8465 17.6277 20.6515 17.6278 20.4564 17.6283C20.3987 17.6276 20.341 17.6269 20.2816 17.6261C20.0357 17.6281 19.8677 17.6427 19.6511 17.764C19.5156 17.8836 19.5156 17.8836 19.5007 18.0672C19.5044 18.1298 19.508 18.1923 19.5117 18.2567C19.5159 18.3515 19.5159 18.3515 19.5203 18.4481C19.5239 18.4961 19.5275 18.5442 19.5312 18.5937C19.7935 18.6811 19.9941 18.6816 20.2704 18.6828C20.3701 18.6843 20.4698 18.6858 20.5725 18.6873C20.7306 18.6896 20.8886 18.6913 21.0467 18.6913C21.1997 18.6916 21.3527 18.6945 21.5057 18.6974C21.5971 18.6981 21.6885 18.6989 21.7826 18.6996C22.1249 18.7688 22.2159 18.8562 22.4219 19.1405C22.481 19.4615 22.475 19.7794 22.4722 20.1051C22.4728 20.2029 22.4735 20.3008 22.4743 20.4016C22.4758 20.6694 22.4756 20.9371 22.4747 21.2049C22.4741 21.4854 22.4759 21.7658 22.4774 22.0462C22.4799 22.5774 22.4805 23.1085 22.4804 23.6396C22.4803 24.4192 22.4829 25.1988 22.4857 25.9784C22.4861 26.0935 22.4865 26.2085 22.4869 26.3236C22.4872 26.4078 22.4872 26.4078 22.4875 26.4938C22.4887 26.8276 22.4892 27.1615 22.4892 27.4953C22.4893 27.7516 22.4898 28.0079 22.4902 28.2642C22.49 28.3567 22.4898 28.4492 22.4897 28.5445C22.4899 28.6292 22.4901 28.7139 22.4903 28.8011C22.4903 28.8746 22.4903 28.9481 22.4903 29.0239C22.4993 29.2044 22.5271 29.3583 22.5781 29.5312C22.6748 29.5489 22.7715 29.5666 22.8711 29.5849C22.9255 29.5948 22.9799 29.6048 23.0359 29.6151C23.2721 29.6069 23.3508 29.5436 23.5156 29.3749C23.5626 29.1177 23.5626 29.1177 23.5546 28.8166C23.555 28.7601 23.5554 28.7035 23.5559 28.6452C23.5566 28.5225 23.5566 28.3997 23.556 28.2769C23.555 28.0825 23.5559 27.8881 23.5572 27.6937C23.5593 27.3509 23.5597 27.0082 23.5596 26.6654C23.5595 26.1173 23.5606 25.5692 23.564 25.0211C23.5647 24.8298 23.5641 24.6385 23.5633 24.4471C23.5638 24.3294 23.5643 24.2117 23.5649 24.094C23.5649 23.9915 23.5648 23.889 23.5647 23.7834C23.5981 23.4755 23.6858 23.2672 23.9062 23.0468C24.4687 23.0007 24.4687 23.0007 24.6953 23.1677C24.8948 23.4252 24.8877 23.6458 24.8842 23.9586C24.8847 24.0186 24.8853 24.0786 24.8858 24.1404C24.8872 24.3386 24.8863 24.5368 24.8853 24.735C24.8855 24.8732 24.8858 25.0114 24.8862 25.1496C24.8866 25.4393 24.886 25.7291 24.8845 26.0188C24.8827 26.389 24.8837 26.7592 24.8856 27.1294C24.8867 27.415 24.8864 27.7005 24.8856 27.986C24.8854 28.1224 24.8856 28.2589 24.8863 28.3953C24.8871 28.5867 24.8859 28.7781 24.8842 28.9696C24.8848 29.0253 24.8855 29.081 24.8861 29.1384C24.8778 29.6349 24.7041 30.0334 24.3805 30.4095C23.887 30.8236 23.5011 30.9718 22.8537 30.9572C22.3759 30.9092 21.9856 30.7259 21.6406 30.3905C21.1616 29.7746 21.1492 29.2028 21.1541 28.4522C21.1541 28.3607 21.1541 28.2692 21.1541 28.1749C21.1542 27.8735 21.1554 27.5721 21.1566 27.2707C21.1569 27.0613 21.1571 26.8519 21.1573 26.6425C21.1578 26.1483 21.1591 25.6542 21.1606 25.1601C21.1624 24.5972 21.1632 24.0344 21.164 23.4715C21.1656 22.3143 21.1684 21.1571 21.1719 19.9999C21.101 20.0011 21.101 20.0011 21.0286 20.0024C20.8126 20.0057 20.5966 20.0077 20.3806 20.0097C20.3062 20.011 20.2318 20.0123 20.1552 20.0136C19.5125 20.0181 19.0828 19.9203 18.6057 19.4744C18.2616 19.0791 18.1471 18.6423 18.125 18.1249C18.1704 17.5451 18.3924 17.1498 18.8086 16.7431C19.3034 16.391 19.7659 16.2929 20.3653 16.2977Z" fill="white"/>
<path d="M16.25 16.6407C16.6419 16.9864 16.9272 17.356 16.9732 17.8893C16.9735 17.9763 16.9737 18.0632 16.974 18.1528C16.9747 18.2531 16.9754 18.3533 16.976 18.4565C16.976 18.567 16.9759 18.6775 16.9758 18.788C16.9763 18.9048 16.9768 19.0216 16.9774 19.1384C16.9788 19.4553 16.9792 19.7721 16.9793 20.089C16.9794 20.2871 16.9797 20.4853 16.9801 20.6834C16.9816 21.375 16.9822 22.0667 16.9821 22.7584C16.982 23.4023 16.9836 24.0463 16.9861 24.6902C16.9881 25.2437 16.989 25.7972 16.9889 26.3507C16.9888 26.681 16.9893 27.0113 16.9909 27.3416C16.9925 27.6524 16.9925 27.9632 16.9913 28.274C16.9912 28.3878 16.9915 28.5015 16.9925 28.6153C16.9981 29.334 16.9735 29.8476 16.4899 30.4096C15.9964 30.8238 15.6104 30.972 14.9631 30.9574C14.4922 30.9101 14.0816 30.7312 13.75 30.3907C13.4067 29.8724 13.272 29.4475 13.2703 28.8246C13.2698 28.7298 13.2694 28.6349 13.2689 28.5372C13.2688 28.4328 13.2687 28.3283 13.2687 28.2238C13.2683 28.1133 13.2679 28.0028 13.2675 27.8923C13.2665 27.5925 13.266 27.2927 13.2656 26.993C13.2654 26.8055 13.2651 26.618 13.2647 26.4305C13.2636 25.8432 13.2629 25.2559 13.2626 24.6686C13.2622 23.9919 13.2609 23.3151 13.2586 22.6384C13.2569 22.1145 13.2561 21.5906 13.256 21.0667C13.2559 20.7542 13.2555 20.4416 13.2541 20.1291C13.2528 19.8349 13.2526 19.5407 13.2533 19.2465C13.2534 19.0879 13.2523 18.9294 13.2512 18.7708C13.2549 17.9614 13.3547 17.3692 13.9191 16.7704C14.5918 16.162 15.5011 16.2035 16.25 16.6407ZM14.6094 17.8907C14.5057 18.098 14.5207 18.2549 14.5198 18.4872C14.5192 18.5809 14.5186 18.6745 14.5181 18.771C14.5178 18.8753 14.5176 18.9797 14.5174 19.084C14.5169 19.1935 14.5164 19.3029 14.5159 19.4124C14.5145 19.7102 14.5137 20.008 14.513 20.3058C14.5126 20.4918 14.5122 20.6779 14.5117 20.8639C14.5102 21.4457 14.5091 22.0276 14.5084 22.6095C14.5077 23.2814 14.5056 23.9533 14.5024 24.6253C14.5001 25.1444 14.4989 25.6636 14.4987 26.1828C14.4985 26.493 14.4978 26.8031 14.4958 27.1133C14.494 27.4051 14.4937 27.6969 14.4945 27.9888C14.4945 28.1468 14.493 28.3049 14.4915 28.4629C14.492 28.5573 14.4926 28.6516 14.4931 28.7487C14.493 28.8306 14.4928 28.9124 14.4926 28.9967C14.5415 29.2776 14.6456 29.4078 14.8437 29.6094C15.0701 29.7068 15.0701 29.7068 15.3125 29.6875C15.5282 29.5665 15.5282 29.5665 15.7031 29.375C15.7616 29.1538 15.7616 29.1538 15.7527 28.9036C15.7538 28.807 15.7549 28.7104 15.7561 28.6108C15.7553 28.504 15.7545 28.3971 15.7537 28.2903C15.7542 28.1776 15.7549 28.0649 15.7557 27.9522C15.7575 27.6463 15.7568 27.3405 15.7556 27.0346C15.7546 26.7146 15.7555 26.3945 15.7561 26.0744C15.7568 25.5369 15.7559 24.9995 15.7541 24.462C15.7519 23.8405 15.7526 23.2191 15.7548 22.5976C15.7565 22.0641 15.7568 21.5306 15.7558 20.997C15.7552 20.6784 15.7551 20.3597 15.7564 20.041C15.7575 19.7414 15.7567 19.4419 15.7545 19.1422C15.7539 19.0323 15.7541 18.9223 15.7549 18.8123C15.756 18.6623 15.7544 18.5122 15.7527 18.3621C15.7526 18.2781 15.7524 18.1941 15.7523 18.1076C15.7193 17.8755 15.7193 17.8755 15.5242 17.7049C15.1217 17.4639 14.9248 17.6008 14.6094 17.8907Z" fill="white"/>
</g>
<defs>
<clipPath id="clip0_2397_1082">
<rect width="40" height="40" fill="white"/>
</clipPath>
</defs>
</svg>
