<svg width="40" height="40" viewBox="0 0 40 40" fill="none" xmlns="http://www.w3.org/2000/svg">
<path d="M14.9171 5.6042C15.0101 5.60353 15.1031 5.60286 15.1989 5.60218C15.3509 5.60228 15.3509 5.60228 15.506 5.60239C15.6144 5.60192 15.7227 5.60139 15.831 5.6008C16.1248 5.59942 16.4186 5.59906 16.7124 5.59896C16.8961 5.59884 17.0799 5.59851 17.2636 5.5981C17.9051 5.59665 18.5466 5.59601 19.1881 5.59614C19.7852 5.59623 20.3823 5.59458 20.9794 5.59211C21.4928 5.59007 22.0061 5.58923 22.5195 5.58933C22.8257 5.58937 23.132 5.58893 23.4383 5.58727C23.7266 5.58576 24.0148 5.58575 24.303 5.58689C24.4585 5.58713 24.614 5.58583 24.7695 5.58447C25.4121 5.58897 25.8502 5.65565 26.3471 6.09109C26.3892 6.14195 26.4313 6.19281 26.4747 6.24521C26.518 6.29586 26.5613 6.34652 26.6059 6.39871C27.0078 6.98198 26.8751 7.33942 26.8751 8.12509C28.1384 8.12509 29.4016 8.12509 30.7032 8.12509C30.7548 7.9704 30.8063 7.81571 30.8595 7.65634C31.1314 7.28676 31.495 6.96577 31.9532 6.87509C32.5696 6.81625 33.1693 6.78385 33.672 7.18759C34.0661 7.56294 34.3443 7.90335 34.4013 8.45865C34.4087 9.12398 34.3843 9.58415 33.9164 10.0755C33.377 10.574 32.9531 10.6626 32.2224 10.6489C31.6038 10.5942 31.2809 10.3037 30.8866 9.84384C30.7813 9.68759 30.7813 9.68759 30.7032 9.37509C29.4399 9.37509 28.1766 9.37509 26.8751 9.37509C26.8751 10.2001 26.8751 11.0251 26.8751 11.8751C29.3759 11.8751 31.8766 11.8751 34.4532 11.8751C34.5048 11.7204 34.5563 11.5657 34.6095 11.4063C34.8814 11.0368 35.245 10.7158 35.7032 10.6251C36.3196 10.5662 36.9193 10.5339 37.422 10.9376C37.8161 11.3129 38.0943 11.6534 38.1513 12.2086C38.1587 12.874 38.1343 13.3341 37.6664 13.8255C37.127 14.324 36.7031 14.4126 35.9724 14.3989C35.3538 14.3442 35.0309 14.0537 34.6366 13.5938C34.5313 13.4376 34.5313 13.4376 34.4532 13.1251C31.9524 13.1251 29.4516 13.1251 26.8751 13.1251C26.8751 13.9501 26.8751 14.7751 26.8751 15.6251C28.1384 15.6251 29.4016 15.6251 30.7032 15.6251C30.7548 15.4704 30.8063 15.3157 30.8595 15.1563C31.1314 14.7868 31.495 14.4658 31.9532 14.3751C32.5696 14.3162 33.1693 14.2839 33.672 14.6876C34.0661 15.0629 34.3443 15.4034 34.4013 15.9586C34.4087 16.624 34.3843 17.0841 33.9164 17.5755C33.377 18.074 32.9531 18.1626 32.2224 18.1489C31.6038 18.0942 31.2809 17.8037 30.8866 17.3438C30.7813 17.1876 30.7813 17.1876 30.7032 16.8751C29.4399 16.8751 28.1766 16.8751 26.8751 16.8751C26.8751 17.7001 26.8751 18.5251 26.8751 19.3751C29.3759 19.3751 31.8766 19.3751 34.4532 19.3751C34.5048 19.2204 34.5563 19.0657 34.6095 18.9063C34.8814 18.5368 35.245 18.2158 35.7032 18.1251C36.3196 18.0662 36.9193 18.0339 37.422 18.4376C37.8161 18.8129 38.0943 19.1534 38.1513 19.7086C38.1587 20.374 38.1343 20.8341 37.6664 21.3255C37.127 21.824 36.7031 21.9126 35.9724 21.8989C35.3538 21.8442 35.0309 21.5537 34.6366 21.0938C34.5313 20.9376 34.5313 20.9376 34.4532 20.6251C31.9524 20.6251 29.4516 20.6251 26.8751 20.6251C26.8751 21.4501 26.8751 22.2751 26.8751 23.1251C28.1384 23.1251 29.4016 23.1251 30.7032 23.1251C30.7548 22.9704 30.8063 22.8157 30.8595 22.6563C31.1314 22.2868 31.495 21.9658 31.9532 21.8751C32.5696 21.8162 33.1693 21.7839 33.672 22.1876C34.0661 22.5629 34.3443 22.9034 34.4013 23.4586C34.4087 24.124 34.3843 24.5841 33.9164 25.0755C33.377 25.574 32.9531 25.6626 32.2224 25.6489C31.6038 25.5942 31.2809 25.3037 30.8866 24.8438C30.7813 24.6876 30.7813 24.6876 30.7032 24.3751C29.4399 24.3751 28.1766 24.3751 26.8751 24.3751C26.8751 25.2001 26.8751 26.0251 26.8751 26.8751C29.3759 26.8751 31.8766 26.8751 34.4532 26.8751C34.5048 26.7204 34.5563 26.5657 34.6095 26.4063C34.8814 26.0368 35.245 25.7158 35.7032 25.6251C36.3196 25.5662 36.9193 25.5339 37.422 25.9376C37.8161 26.3129 38.0943 26.6534 38.1513 27.2086C38.1587 27.874 38.1343 28.3341 37.6664 28.8255C37.127 29.324 36.7031 29.4126 35.9724 29.3989C35.3538 29.3442 35.0309 29.0537 34.6366 28.5938C34.5313 28.4376 34.5313 28.4376 34.4532 28.1251C31.9524 28.1251 29.4516 28.1251 26.8751 28.1251C26.8751 28.9501 26.8751 29.7751 26.8751 30.6251C28.1384 30.6251 29.4016 30.6251 30.7032 30.6251C30.7548 30.4704 30.8063 30.3157 30.8595 30.1563C31.1314 29.7868 31.495 29.4658 31.9532 29.3751C32.5696 29.3162 33.1693 29.2839 33.672 29.6876C34.0661 30.0629 34.3443 30.4034 34.4013 30.9586C34.4087 31.624 34.3843 32.0841 33.9164 32.5755C33.377 33.074 32.9531 33.1626 32.2224 33.1489C31.6038 33.0942 31.2809 32.8037 30.8866 32.3438C30.7813 32.1876 30.7813 32.1876 30.7032 31.8751C29.4399 31.8751 28.1766 31.8751 26.8751 31.8751C26.8751 32.2618 26.8751 32.6485 26.8751 33.047C26.6992 33.5746 26.3952 33.9035 25.9376 34.2188C25.6425 34.359 25.4086 34.3949 25.083 34.396C24.9901 34.3966 24.8971 34.3973 24.8013 34.398C24.6999 34.3979 24.5986 34.3979 24.4942 34.3978C24.3858 34.3983 24.2775 34.3988 24.1691 34.3994C23.8754 34.4008 23.5816 34.4011 23.2878 34.4012C23.1041 34.4013 22.9203 34.4017 22.7366 34.4021C22.0951 34.4035 21.4536 34.4042 20.8121 34.404C20.215 34.4039 19.6179 34.4056 19.0208 34.4081C18.5074 34.4101 17.9941 34.4109 17.4807 34.4108C17.1744 34.4108 16.8682 34.4112 16.5619 34.4129C16.2736 34.4144 15.9854 34.4144 15.6972 34.4133C15.5417 34.4131 15.3862 34.4144 15.2307 34.4157C14.5881 34.4112 14.1499 34.3445 13.653 33.9091C13.6109 33.8582 13.5688 33.8074 13.5255 33.755C13.4822 33.7043 13.4389 33.6537 13.3943 33.6015C12.9924 33.0182 13.1251 32.6608 13.1251 31.8751C11.8618 31.8751 10.5985 31.8751 9.29696 31.8751C9.2454 32.0298 9.19384 32.1845 9.14071 32.3438C8.86873 32.7134 8.50522 33.0344 8.04696 33.1251C7.43057 33.1839 6.83092 33.2163 6.32821 32.8126C5.93406 32.4372 5.6559 32.0968 5.59884 31.5415C5.59151 30.8762 5.61589 30.416 6.08377 29.9247C6.62313 29.4261 7.04709 29.3376 7.7778 29.3513C8.39635 29.406 8.71929 29.6965 9.11355 30.1563C9.21884 30.3126 9.21884 30.3126 9.29696 30.6251C10.5602 30.6251 11.8235 30.6251 13.1251 30.6251C13.1251 29.8001 13.1251 28.9751 13.1251 28.1251C10.6243 28.1251 8.12353 28.1251 5.54696 28.1251C5.4954 28.2798 5.44384 28.4345 5.39071 28.5938C5.11873 28.9634 4.75522 29.2844 4.29696 29.3751C3.68057 29.4339 3.08092 29.4663 2.57821 29.0626C2.18406 28.6872 1.9059 28.3468 1.84884 27.7915C1.84151 27.1262 1.86589 26.666 2.33377 26.1747C2.87313 25.6761 3.29709 25.5876 4.0278 25.6013C4.64635 25.656 4.96929 25.9465 5.36355 26.4063C5.46884 26.5626 5.46884 26.5626 5.54696 26.8751C8.04774 26.8751 10.5485 26.8751 13.1251 26.8751C13.1251 26.0501 13.1251 25.2251 13.1251 24.3751C11.8618 24.3751 10.5985 24.3751 9.29696 24.3751C9.21962 24.6071 9.21962 24.6071 9.14071 24.8438C8.86873 25.2134 8.50522 25.5344 8.04696 25.6251C7.43057 25.6839 6.83092 25.7163 6.32821 25.3126C5.93406 24.9372 5.6559 24.5968 5.59884 24.0415C5.59151 23.3762 5.61589 22.916 6.08377 22.4247C6.62313 21.9261 7.04709 21.8376 7.7778 21.8513C8.39635 21.906 8.71929 22.1965 9.11355 22.6563C9.21884 22.8126 9.21884 22.8126 9.29696 23.1251C10.5602 23.1251 11.8235 23.1251 13.1251 23.1251C13.1251 22.3001 13.1251 21.4751 13.1251 20.6251C10.6243 20.6251 8.12353 20.6251 5.54696 20.6251C5.4954 20.7798 5.44384 20.9345 5.39071 21.0938C5.11873 21.4634 4.75522 21.7844 4.29696 21.8751C3.68057 21.9339 3.08092 21.9663 2.57821 21.5626C2.18406 21.1872 1.9059 20.8468 1.84884 20.2915C1.84151 19.6262 1.86589 19.166 2.33377 18.6747C2.87313 18.1761 3.29709 18.0876 4.0278 18.1013C4.64635 18.156 4.96929 18.4465 5.36355 18.9063C5.46884 19.0626 5.46884 19.0626 5.54696 19.3751C8.04774 19.3751 10.5485 19.3751 13.1251 19.3751C13.1251 18.5501 13.1251 17.7251 13.1251 16.8751C11.8618 16.8751 10.5985 16.8751 9.29696 16.8751C9.21962 17.1071 9.21962 17.1071 9.14071 17.3438C8.86873 17.7134 8.50522 18.0344 8.04696 18.1251C7.43057 18.1839 6.83092 18.2163 6.32821 17.8126C5.93406 17.4372 5.6559 17.0968 5.59884 16.5415C5.59151 15.8762 5.61589 15.416 6.08377 14.9247C6.62313 14.4261 7.04709 14.3376 7.7778 14.3513C8.39635 14.406 8.71929 14.6965 9.11355 15.1563C9.21884 15.3126 9.21884 15.3126 9.29696 15.6251C10.5602 15.6251 11.8235 15.6251 13.1251 15.6251C13.1251 14.8001 13.1251 13.9751 13.1251 13.1251C10.6243 13.1251 8.12353 13.1251 5.54696 13.1251C5.4954 13.2798 5.44384 13.4345 5.39071 13.5938C5.11873 13.9634 4.75522 14.2844 4.29696 14.3751C3.68057 14.4339 3.08092 14.4663 2.57821 14.0626C2.18406 13.6872 1.9059 13.3468 1.84884 12.7915C1.84151 12.1262 1.86589 11.666 2.33377 11.1747C2.87313 10.6761 3.29709 10.5876 4.0278 10.6013C4.64635 10.656 4.96929 10.9465 5.36355 11.4063C5.46884 11.5626 5.46884 11.5626 5.54696 11.8751C8.04774 11.8751 10.5485 11.8751 13.1251 11.8751C13.1251 11.0501 13.1251 10.2251 13.1251 9.37509C11.8618 9.37509 10.5985 9.37509 9.29696 9.37509C9.21962 9.60712 9.21962 9.60712 9.14071 9.84384C8.86873 10.2134 8.50522 10.5344 8.04696 10.6251C7.43057 10.6839 6.83092 10.7163 6.32821 10.3126C5.93406 9.93724 5.6559 9.59683 5.59884 9.04153C5.59151 8.3762 5.61589 7.91603 6.08377 7.42471C6.62313 6.92613 7.04709 6.83756 7.7778 6.85129C8.39635 6.90599 8.71929 7.19651 9.11355 7.65634C9.21884 7.81259 9.21884 7.81259 9.29696 8.12509C10.5602 8.12509 11.8235 8.12509 13.1251 8.12509C13.1251 7.73837 13.1251 7.35165 13.1251 6.95321C13.301 6.42557 13.6049 6.09667 14.0626 5.78134C14.3577 5.64115 14.5916 5.60525 14.9171 5.6042ZM14.5313 7.10946C14.3898 7.3925 14.3555 7.62295 14.3552 7.93728C14.3548 8.02485 14.3543 8.11243 14.3538 8.20265C14.3541 8.29847 14.3544 8.39429 14.3547 8.49301C14.3544 8.5951 14.3541 8.69719 14.3538 8.80238C14.353 9.08563 14.3532 9.36888 14.3535 9.65213C14.3537 9.95766 14.353 10.2632 14.3524 10.5687C14.3514 11.1672 14.3513 11.7657 14.3515 12.3642C14.3516 12.8506 14.3515 13.337 14.3511 13.8234C14.3511 13.8926 14.351 13.9618 14.351 14.0331C14.3509 14.1737 14.3508 14.3143 14.3507 14.4548C14.3499 15.7734 14.35 17.0919 14.3505 18.4105C14.3509 19.6171 14.35 20.8236 14.3485 22.0302C14.347 23.2688 14.3464 24.5074 14.3467 25.746C14.3468 26.4416 14.3466 27.1371 14.3455 27.8326C14.3446 28.4246 14.3445 29.0167 14.3454 29.6088C14.3459 29.9109 14.346 30.213 14.345 30.5151C14.344 30.8425 14.3449 31.1699 14.3459 31.4973C14.3453 31.5929 14.3447 31.6885 14.3441 31.7871C14.3384 32.4161 14.3384 32.4162 14.6095 32.9688C14.8792 33.1249 15.1156 33.1448 15.4235 33.1455C15.5075 33.146 15.5915 33.1466 15.6781 33.1471C15.7695 33.1469 15.8608 33.1467 15.955 33.1465C16.0518 33.1469 16.1486 33.1473 16.2484 33.1478C16.5135 33.1487 16.7785 33.1488 17.0435 33.1487C17.2651 33.1486 17.4866 33.1489 17.7081 33.1493C18.2308 33.1502 18.7535 33.1502 19.2763 33.1498C19.815 33.1493 20.3537 33.1502 20.8924 33.1519C21.3554 33.1533 21.8185 33.1538 22.2815 33.1535C22.5579 33.1534 22.8342 33.1536 23.1105 33.1546C23.4187 33.1558 23.7269 33.1551 24.0351 33.1542C24.1263 33.1548 24.2175 33.1554 24.3115 33.156C24.9272 33.1585 24.9272 33.1585 25.4688 32.8907C25.6104 32.6077 25.6447 32.3772 25.645 32.0629C25.6454 31.9753 25.6459 31.8878 25.6463 31.7975C25.6461 31.7017 25.6458 31.6059 25.6455 31.5072C25.6458 31.4051 25.6461 31.303 25.6464 31.1978C25.6472 30.9146 25.647 30.6313 25.6467 30.348C25.6465 30.0425 25.6472 29.737 25.6478 29.4315C25.6488 28.833 25.6489 28.2345 25.6487 27.6359C25.6486 27.1495 25.6487 26.6631 25.649 26.1767C25.6491 26.0729 25.6491 26.0729 25.6492 25.967C25.6493 25.8265 25.6494 25.6859 25.6495 25.5453C25.6503 24.2268 25.6501 22.9082 25.6497 21.5897C25.6493 20.3831 25.6501 19.1765 25.6516 17.97C25.6531 16.7314 25.6538 15.4927 25.6535 14.2541C25.6533 13.5586 25.6535 12.8631 25.6546 12.1676C25.6556 11.5755 25.6557 10.9835 25.6547 10.3914C25.6543 10.0893 25.6542 9.78721 25.6551 9.4851C25.6561 9.1577 25.6553 8.83033 25.6543 8.50293C25.6549 8.40729 25.6555 8.31164 25.6561 8.2131C25.6618 7.58403 25.6618 7.58403 25.3907 7.03134C25.1209 6.87528 24.8845 6.8554 24.5766 6.85472C24.4926 6.85417 24.4086 6.85362 24.3221 6.85305C24.185 6.85334 24.185 6.85334 24.0452 6.85363C23.9484 6.85323 23.8515 6.85283 23.7518 6.85242C23.4867 6.85152 23.2217 6.85133 22.9566 6.85153C22.7351 6.85161 22.5136 6.85123 22.2921 6.85086C21.7693 6.84999 21.2466 6.84995 20.7239 6.85043C20.1852 6.8509 19.6465 6.84994 19.1078 6.84827C18.6447 6.8469 18.1817 6.84643 17.7186 6.84668C17.4423 6.84682 17.166 6.84662 16.8897 6.84553C16.5815 6.84437 16.2733 6.8451 15.9651 6.846C15.8739 6.84541 15.7827 6.84481 15.6887 6.84419C15.0729 6.84166 15.0729 6.84166 14.5313 7.10946ZM7.08017 8.33017C6.91516 8.57133 6.9054 8.69761 6.95321 8.98446C7.0704 9.17978 7.0704 9.17978 7.26571 9.29696C7.55257 9.34477 7.67885 9.33502 7.92001 9.17001C8.08501 8.92885 8.09477 8.80257 8.04696 8.51571C7.92978 8.3204 7.92978 8.3204 7.73446 8.20321C7.44761 8.15541 7.32133 8.16516 7.08017 8.33017ZM32.0802 8.33017C31.9152 8.57133 31.9054 8.69761 31.9532 8.98446C32.0704 9.17978 32.0704 9.17978 32.2657 9.29696C32.5526 9.34477 32.6788 9.33502 32.92 9.17001C33.085 8.92885 33.0948 8.80257 33.047 8.51571C32.9298 8.3204 32.9298 8.3204 32.7345 8.20321C32.4476 8.15541 32.3213 8.16516 32.0802 8.33017ZM3.33017 12.0802C3.16516 12.3213 3.1554 12.4476 3.20321 12.7345C3.3204 12.9298 3.3204 12.9298 3.51571 13.047C3.80257 13.0948 3.92885 13.085 4.17001 12.92C4.33501 12.6789 4.34477 12.5526 4.29696 12.2657C4.17978 12.0704 4.17978 12.0704 3.98446 11.9532C3.69761 11.9054 3.57133 11.9152 3.33017 12.0802ZM35.8302 12.0802C35.6652 12.3213 35.6554 12.4476 35.7032 12.7345C35.8204 12.9298 35.8204 12.9298 36.0157 13.047C36.3026 13.0948 36.4288 13.085 36.67 12.92C36.835 12.6789 36.8448 12.5526 36.797 12.2657C36.6798 12.0704 36.6798 12.0704 36.4845 11.9532C36.1976 11.9054 36.0713 11.9152 35.8302 12.0802ZM7.08017 15.8302C6.91516 16.0713 6.9054 16.1976 6.95321 16.4845C7.0704 16.6798 7.0704 16.6798 7.26571 16.797C7.55257 16.8448 7.67885 16.835 7.92001 16.67C8.08501 16.4289 8.09477 16.3026 8.04696 16.0157C7.92978 15.8204 7.92978 15.8204 7.73446 15.7032C7.44761 15.6554 7.32133 15.6652 7.08017 15.8302ZM32.0802 15.8302C31.9152 16.0713 31.9054 16.1976 31.9532 16.4845C32.0704 16.6798 32.0704 16.6798 32.2657 16.797C32.5526 16.8448 32.6788 16.835 32.92 16.67C33.085 16.4289 33.0948 16.3026 33.047 16.0157C32.9298 15.8204 32.9298 15.8204 32.7345 15.7032C32.4476 15.6554 32.3213 15.6652 32.0802 15.8302ZM3.33017 19.5802C3.16516 19.8213 3.1554 19.9476 3.20321 20.2345C3.3204 20.4298 3.3204 20.4298 3.51571 20.547C3.80257 20.5948 3.92885 20.585 4.17001 20.42C4.33501 20.1789 4.34477 20.0526 4.29696 19.7657C4.17978 19.5704 4.17978 19.5704 3.98446 19.4532C3.69761 19.4054 3.57133 19.4152 3.33017 19.5802ZM35.8302 19.5802C35.6652 19.8213 35.6554 19.9476 35.7032 20.2345C35.8204 20.4298 35.8204 20.4298 36.0157 20.547C36.3026 20.5948 36.4288 20.585 36.67 20.42C36.835 20.1789 36.8448 20.0526 36.797 19.7657C36.6798 19.5704 36.6798 19.5704 36.4845 19.4532C36.1976 19.4054 36.0713 19.4152 35.8302 19.5802ZM7.08017 23.3302C6.91516 23.5713 6.9054 23.6976 6.95321 23.9845C7.0704 24.1798 7.0704 24.1798 7.26571 24.297C7.55257 24.3448 7.67885 24.335 7.92001 24.17C8.08501 23.9289 8.09477 23.8026 8.04696 23.5157C7.92978 23.3204 7.92978 23.3204 7.73446 23.2032C7.44761 23.1554 7.32133 23.1652 7.08017 23.3302ZM32.0802 23.3302C31.9152 23.5713 31.9054 23.6976 31.9532 23.9845C32.0704 24.1798 32.0704 24.1798 32.2657 24.297C32.5526 24.3448 32.6788 24.335 32.92 24.17C33.085 23.9289 33.0948 23.8026 33.047 23.5157C32.9298 23.3204 32.9298 23.3204 32.7345 23.2032C32.4476 23.1554 32.3213 23.1652 32.0802 23.3302ZM3.33017 27.0802C3.16516 27.3213 3.1554 27.4476 3.20321 27.7345C3.3204 27.9298 3.3204 27.9298 3.51571 28.047C3.80257 28.0948 3.92885 28.085 4.17001 27.92C4.33501 27.6789 4.34477 27.5526 4.29696 27.2657C4.17978 27.0704 4.17978 27.0704 3.98446 26.9532C3.69761 26.9054 3.57133 26.9152 3.33017 27.0802ZM35.8302 27.0802C35.6652 27.3213 35.6554 27.4476 35.7032 27.7345C35.8204 27.9298 35.8204 27.9298 36.0157 28.047C36.3026 28.0948 36.4288 28.085 36.67 27.92C36.835 27.6789 36.8448 27.5526 36.797 27.2657C36.6798 27.0704 36.6798 27.0704 36.4845 26.9532C36.1976 26.9054 36.0713 26.9152 35.8302 27.0802ZM7.08017 30.8302C6.91516 31.0713 6.9054 31.1976 6.95321 31.4845C7.0704 31.6798 7.0704 31.6798 7.26571 31.797C7.55257 31.8448 7.67885 31.835 7.92001 31.67C8.08501 31.4289 8.09477 31.3026 8.04696 31.0157C7.92978 30.8204 7.92978 30.8204 7.73446 30.7032C7.44761 30.6554 7.32133 30.6652 7.08017 30.8302ZM32.0802 30.8302C31.9152 31.0713 31.9054 31.1976 31.9532 31.4845C32.0704 31.6798 32.0704 31.6798 32.2657 31.797C32.5526 31.8448 32.6788 31.835 32.92 31.67C33.085 31.4289 33.0948 31.3026 33.047 31.0157C32.9298 30.8204 32.9298 30.8204 32.7345 30.7032C32.4476 30.6554 32.3213 30.6652 32.0802 30.8302Z" fill="white"/>
</svg>
