<svg width="40" height="40" viewBox="0 0 40 40" fill="none" xmlns="http://www.w3.org/2000/svg">
<g clip-path="url(#clip0_2397_1284)">
<path d="M7.9055 -0.0120406C7.97059 -0.0127262 8.03567 -0.0134117 8.10273 -0.014118C8.17383 -0.0144766 8.24493 -0.0148352 8.31819 -0.0152047C8.39404 -0.0158778 8.46989 -0.0165509 8.54805 -0.0172444C8.80292 -0.01939 9.0578 -0.0209692 9.31268 -0.0225337C9.49516 -0.0239182 9.67764 -0.0253246 9.86013 -0.0267514C11.5263 -0.0391753 13.1925 -0.0457798 14.8587 -0.0509696C15.0817 -0.0516765 15.3046 -0.052396 15.5276 -0.0531276C15.583 -0.0533088 15.6385 -0.0534901 15.6956 -0.0536768C16.5924 -0.0567032 17.4892 -0.0629934 18.386 -0.0705595C19.3077 -0.0782706 20.2294 -0.0827042 21.1511 -0.0840617C21.6682 -0.0849118 22.1853 -0.0873237 22.7024 -0.0932767C23.1893 -0.0988214 23.676 -0.10028 24.1629 -0.0986581C24.3412 -0.0987694 24.5194 -0.100343 24.6976 -0.103521C26.1824 -0.128626 26.1824 -0.128626 26.6672 0.274267C26.8558 0.458378 27.02 0.65551 27.1874 0.859348C27.319 0.990419 27.4519 1.12012 27.5863 1.24828C27.7197 1.38119 27.8528 1.51431 27.9858 1.6476C28.0602 1.72189 28.1346 1.79617 28.2091 1.87044C28.4079 2.06892 28.6065 2.26765 28.805 2.46644C29.0141 2.67567 29.2233 2.88471 29.4325 3.09378C29.7828 3.44396 30.1329 3.7943 30.483 4.14474C30.8872 4.5494 31.2918 4.95378 31.6964 5.35802C32.0454 5.70662 32.3942 6.05538 32.7429 6.40426C32.9505 6.61201 33.1582 6.8197 33.366 7.02726C33.597 7.25795 33.8276 7.48895 34.0582 7.71999C34.1267 7.78837 34.1953 7.85676 34.2659 7.92722C34.3286 7.99017 34.3914 8.05312 34.456 8.11798C34.5377 8.1997 34.5377 8.1997 34.621 8.28307C34.9248 8.6075 35.0292 8.77752 35.0296 9.23381C35.0303 9.33377 35.031 9.43374 35.0316 9.53674C35.0312 9.64791 35.0307 9.75909 35.0302 9.87027C35.0306 9.98819 35.031 10.1061 35.0315 10.224C35.0326 10.5486 35.0323 10.8731 35.0317 11.1977C35.0314 11.5475 35.0323 11.8973 35.0331 12.2472C35.0345 12.9329 35.0345 13.6186 35.0341 14.3043C35.0338 14.8618 35.0339 15.4192 35.0343 15.9767C35.0344 16.056 35.0345 16.1353 35.0345 16.2169C35.0346 16.378 35.0348 16.5391 35.0349 16.7001C35.036 18.2117 35.0355 19.7233 35.0346 21.2349C35.0339 22.6173 35.0349 23.9997 35.0367 25.382C35.0386 26.8014 35.0394 28.2207 35.0389 29.64C35.0386 30.4369 35.0388 31.2338 35.0401 32.0306C35.0413 32.7093 35.0413 33.388 35.04 34.0667C35.0393 34.4128 35.0391 34.759 35.0403 35.1051C35.0414 35.4224 35.0411 35.7396 35.0395 36.0569C35.0393 36.1713 35.0395 36.2857 35.0403 36.4001C35.0469 37.3882 34.8792 38.1545 34.2187 38.9062C34.1795 38.9536 34.1403 39.0009 34.1 39.0497C33.6704 39.5283 33.0543 39.8728 32.4218 40C32.2806 40.0072 32.1392 40.0102 31.9978 40.0105C31.9111 40.0108 31.8245 40.0112 31.7352 40.0115C31.6401 40.0115 31.5449 40.0115 31.4469 40.0115C31.3457 40.0118 31.2446 40.012 31.1405 40.0123C30.8596 40.0131 30.5787 40.0134 30.2978 40.0136C29.9949 40.0139 29.692 40.0147 29.3892 40.0154C28.6576 40.0169 27.926 40.0177 27.1944 40.0184C26.8497 40.0187 26.5051 40.0191 26.1605 40.0196C25.0147 40.0209 23.8688 40.022 22.723 40.0226C22.4257 40.0227 22.1284 40.0229 21.831 40.023C21.7202 40.0231 21.7202 40.0231 21.6071 40.0231C20.4104 40.0238 19.2137 40.0258 18.017 40.0283C16.788 40.0309 15.559 40.0323 14.33 40.0326C13.6401 40.0327 12.9502 40.0334 12.2603 40.0354C11.6727 40.0371 11.0851 40.0377 10.4975 40.037C10.1978 40.0366 9.89823 40.0368 9.59859 40.0383C9.2732 40.0399 8.94786 40.0391 8.62247 40.0381C8.48154 40.0394 8.48154 40.0394 8.33777 40.0407C7.45539 40.034 6.75851 39.8029 6.09369 39.2187C6.04635 39.1796 5.99902 39.1404 5.95025 39.1C5.4747 38.6733 5.1199 38.0528 4.99994 37.4219C4.99246 37.2277 4.98904 37.0358 4.98945 36.8416C4.98927 36.7827 4.98908 36.7238 4.98889 36.663C4.98837 36.4644 4.98841 36.2659 4.98844 36.0672C4.98818 35.9239 4.98789 35.7805 4.98757 35.6371C4.98678 35.2422 4.98649 34.8473 4.98629 34.4524C4.98598 34.0268 4.98523 33.6012 4.98455 33.1757C4.98301 32.1474 4.98222 31.1192 4.98153 30.091C4.98118 29.6069 4.98076 29.1228 4.98035 28.6387C4.97903 27.0296 4.97789 25.4206 4.97733 23.8115C4.97718 23.3939 4.97703 22.9763 4.97688 22.5586C4.97686 22.5067 4.97684 22.4549 4.97682 22.4014C4.9762 20.7195 4.97437 19.0376 4.97183 17.3557C4.96915 15.5773 4.96761 13.7988 4.96736 12.0204C4.96719 11.051 4.9665 10.0817 4.96451 9.11233C4.96281 8.28682 4.96218 7.46132 4.96294 6.63581C4.9633 6.21466 4.96315 5.79353 4.96163 5.37238C4.96026 4.9866 4.96033 4.60084 4.96155 4.21505C4.96173 4.07572 4.96139 3.93639 4.96047 3.79707C4.95392 2.74745 5.0664 1.90716 5.78119 1.09372C5.82036 1.04639 5.85954 0.999058 5.8999 0.95029C6.39797 0.395263 7.15143 -0.00617706 7.9055 -0.0120406ZM7.08001 2.29978C7.04396 2.34318 7.00791 2.38659 6.97076 2.43131C6.7313 2.79812 6.69905 3.11278 6.69859 3.54701C6.69831 3.60478 6.69804 3.66256 6.69776 3.72208C6.69703 3.91627 6.69741 4.11044 6.69779 4.30464C6.6975 4.44503 6.69714 4.58542 6.69672 4.72581C6.69576 5.11209 6.69579 5.49837 6.69597 5.88465C6.696 6.30106 6.69514 6.71746 6.6944 7.13387C6.6931 7.94988 6.69267 8.76588 6.69258 9.58189C6.69251 10.2451 6.69219 10.9082 6.69169 11.5714C6.69032 13.4509 6.6896 15.3303 6.68971 17.2098C6.68972 17.3111 6.68973 17.4125 6.68973 17.5169C6.68974 17.6184 6.68975 17.7199 6.68975 17.8245C6.68982 19.4694 6.68832 21.1144 6.68612 22.7594C6.68387 24.4477 6.68279 26.136 6.68293 27.8244C6.68298 28.7725 6.68255 29.7207 6.68087 30.6688C6.67945 31.4761 6.67911 32.2833 6.68017 33.0906C6.68068 33.5025 6.68068 33.9144 6.67933 34.3264C6.67811 34.7035 6.67832 35.0805 6.67969 35.4576C6.67993 35.5941 6.67964 35.7305 6.67877 35.8669C6.66473 36.9152 6.66473 36.9152 7.1676 37.8143C7.21121 37.8492 7.25481 37.884 7.29974 37.9199C7.34315 37.956 7.38655 37.992 7.43127 38.0292C7.74337 38.2329 8.02065 38.3008 8.3908 38.3013C8.51712 38.3021 8.51712 38.3021 8.64599 38.3029C8.73805 38.3026 8.83011 38.3024 8.92496 38.3021C9.02311 38.3025 9.12127 38.3028 9.22239 38.3032C9.49466 38.3041 9.76691 38.3041 10.0392 38.3039C10.3329 38.3039 10.6266 38.3048 10.9203 38.3055C11.4957 38.3068 12.071 38.3072 12.6464 38.3073C13.1141 38.3074 13.5818 38.3077 14.0495 38.3082C15.3756 38.3096 16.7017 38.3103 18.0278 38.3102C18.135 38.3102 18.135 38.3102 18.2444 38.3102C18.3518 38.3102 18.3518 38.3102 18.4613 38.3102C19.6213 38.3101 20.7813 38.3116 21.9413 38.3138C23.1324 38.316 24.3235 38.3171 25.5147 38.317C26.1834 38.3169 26.8521 38.3174 27.5208 38.319C28.0901 38.3205 28.6595 38.3208 29.2288 38.3197C29.5193 38.3192 29.8097 38.3192 30.1001 38.3206C30.4151 38.322 30.7301 38.3211 31.0452 38.3199C31.1825 38.3211 31.1825 38.3211 31.3225 38.3223C31.9227 38.3172 32.3468 38.2357 32.8143 37.8323C32.8491 37.7887 32.884 37.7451 32.9199 37.7002C32.9559 37.6568 32.992 37.6134 33.0291 37.5686C33.2446 37.2386 33.3007 36.9519 33.3004 36.561C33.3007 36.4661 33.301 36.3711 33.3014 36.2733C33.3009 36.1682 33.3005 36.0631 33.3 35.958C33.3 35.8462 33.3002 35.7344 33.3004 35.6225C33.3007 35.3152 33.3001 35.0079 33.2993 34.7006C33.2986 34.3692 33.2989 34.0378 33.299 33.7064C33.2991 33.1322 33.2986 32.558 33.2977 31.9838C33.2964 31.1537 33.296 30.3235 33.2958 29.4933C33.2955 28.1465 33.2945 26.7996 33.293 25.4528C33.2915 24.1443 33.2904 22.8359 33.2898 21.5275C33.2897 21.4469 33.2897 21.3662 33.2896 21.2832C33.2894 20.8786 33.2892 20.4741 33.2891 20.0695C33.2874 16.713 33.2847 13.3565 33.2812 9.99997C33.2116 9.99969 33.1421 9.9994 33.0705 9.99911C32.4119 9.99614 31.7534 9.99169 31.0949 9.98561C30.7565 9.98253 30.418 9.98001 30.0795 9.9788C29.7523 9.97761 29.4251 9.97491 29.0978 9.9712C28.9736 9.97005 28.8494 9.96942 28.7251 9.96936C27.6185 9.96817 26.7629 9.78882 25.9475 8.999C25.3622 8.37469 25.0723 7.7126 25.062 6.86284C25.0612 6.80717 25.0605 6.7515 25.0597 6.69414C25.0572 6.51069 25.0553 6.32723 25.0533 6.14377C25.0517 6.01635 25.0501 5.88893 25.0484 5.76152C25.0441 5.42656 25.0403 5.0916 25.0365 4.75664C25.0326 4.41467 25.0282 4.07271 25.0239 3.73075C25.0155 3.06008 25.0076 2.3894 24.9999 1.71872C22.7901 1.71142 20.5803 1.70591 18.3705 1.70253C17.3445 1.70092 16.3184 1.69872 15.2924 1.69515C14.3981 1.69203 13.5038 1.69002 12.6095 1.68932C12.1359 1.68891 11.6624 1.68796 11.1889 1.68568C10.7431 1.68356 10.2973 1.68291 9.85153 1.68338C9.68801 1.68329 9.5245 1.68267 9.36099 1.68147C9.13744 1.67991 8.91397 1.68029 8.69042 1.68114C8.59375 1.67978 8.59375 1.67978 8.49512 1.67839C7.94316 1.68406 7.43498 1.85556 7.08001 2.29978ZM26.7187 3.04685C26.7107 3.60283 26.7053 4.1588 26.7015 4.71482C26.7 4.90381 26.6978 5.09279 26.6951 5.28177C26.6913 5.55406 26.6895 5.82629 26.6882 6.09861C26.6866 6.18253 26.6849 6.26646 26.6833 6.35293C26.6831 6.94144 26.7722 7.35615 27.1676 7.8143C27.233 7.86657 27.233 7.86657 27.2997 7.9199C27.3431 7.95595 27.3866 7.992 27.4313 8.02915C27.7394 8.23027 28.0131 8.30078 28.3788 8.29896C28.4984 8.29894 28.4984 8.29894 28.6204 8.29893C28.7056 8.29812 28.7907 8.29731 28.8784 8.29648C28.9663 8.29626 29.0542 8.29604 29.1447 8.29581C29.4249 8.29494 29.7051 8.29298 29.9853 8.29099C30.1755 8.29021 30.3656 8.28949 30.5558 8.28885C31.0216 8.28713 31.4873 8.28446 31.9531 8.28122C31.6502 7.9192 31.3363 7.57501 31.002 7.24197C30.9564 7.19617 30.9107 7.15037 30.8637 7.10318C30.7146 6.95378 30.5653 6.80465 30.4159 6.65555C30.3116 6.55125 30.2074 6.44694 30.1032 6.34261C29.8858 6.12507 29.6682 5.90767 29.4505 5.69038C29.1709 5.4112 28.8916 5.13167 28.6125 4.85204C28.3978 4.6371 28.183 4.42235 27.9681 4.20766C27.8649 4.10458 27.7619 4.00144 27.6589 3.89824C27.5156 3.75479 27.3721 3.6116 27.2285 3.46847C27.1857 3.4255 27.1429 3.38252 27.0988 3.33825C26.9361 3.13724 26.9361 3.13724 26.7187 3.04685Z" fill="white"/>
<path d="M10.9456 28.2708C11.0111 28.2705 11.0767 28.2702 11.1442 28.2699C11.2522 28.27 11.2522 28.27 11.3624 28.2701C11.4389 28.2699 11.5154 28.2697 11.5942 28.2694C11.8517 28.2688 12.1091 28.2686 12.3666 28.2685C12.5507 28.2682 12.7349 28.2678 12.919 28.2673C13.4723 28.2662 14.0256 28.2657 14.5789 28.2654C14.8394 28.2652 15.0999 28.2649 15.3605 28.2646C16.2263 28.2636 17.0922 28.2628 17.9581 28.2625C18.0135 28.2625 18.069 28.2625 18.1261 28.2625C18.1816 28.2625 18.2372 28.2625 18.2944 28.2624C18.407 28.2624 18.5195 28.2624 18.6321 28.2623C18.6879 28.2623 18.7438 28.2623 18.8013 28.2623C19.7064 28.262 20.6114 28.2606 21.5164 28.2588C22.4454 28.2569 23.3744 28.256 24.3034 28.2559C24.8251 28.2558 25.3468 28.2553 25.8685 28.2539C26.359 28.2527 26.8495 28.2525 27.3401 28.2532C27.5203 28.2532 27.7006 28.2529 27.8808 28.2521C28.1265 28.2511 28.3721 28.2516 28.6178 28.2524C28.6895 28.2518 28.7611 28.2511 28.8349 28.2505C29.2121 28.2534 29.4568 28.2748 29.7656 28.5155C29.8117 28.5511 29.8577 28.5868 29.9051 28.6235C30.0714 28.8449 30.0358 29.0728 30.0284 29.3398C29.989 29.6057 29.8839 29.7427 29.6875 29.9217C29.5099 30.0106 29.4127 30.0099 29.2154 30.0103C29.1157 30.0109 29.1157 30.0109 29.014 30.0114C28.9405 30.0114 28.8671 30.0114 28.7914 30.0114C28.7137 30.0116 28.636 30.0119 28.556 30.0122C28.2939 30.0131 28.0319 30.0134 27.7699 30.0137C27.5827 30.0142 27.3955 30.0147 27.2083 30.0152C26.6453 30.0167 26.0824 30.0176 25.5194 30.0183C25.2544 30.0186 24.9894 30.019 24.7244 30.0194C23.8437 30.0208 22.963 30.0219 22.0824 30.0225C21.8538 30.0226 21.6252 30.0228 21.3966 30.0229C21.3397 30.023 21.2829 30.023 21.2244 30.023C20.3037 30.0237 19.383 30.0257 18.4623 30.0282C17.5174 30.0308 16.5725 30.0322 15.6276 30.0324C15.0969 30.0326 14.5663 30.0333 14.0356 30.0353C13.5365 30.0372 13.0375 30.0374 12.5384 30.0366C12.355 30.0366 12.1716 30.0371 11.9882 30.0382C11.7382 30.0395 11.4883 30.039 11.2384 30.038C11.1655 30.0388 11.0925 30.0397 11.0174 30.0406C10.6885 30.0373 10.5149 30.0286 10.2302 29.851C9.96255 29.563 9.9695 29.3252 9.97225 28.9439C10 28.7499 10 28.7499 10.1807 28.5106C10.4429 28.3216 10.6304 28.2714 10.9456 28.2708Z" fill="white"/>
<path d="M10.9456 23.2708C11.0111 23.2705 11.0767 23.2702 11.1442 23.2699C11.2522 23.27 11.2522 23.27 11.3624 23.2701C11.4389 23.2699 11.5154 23.2697 11.5942 23.2694C11.8517 23.2688 12.1091 23.2686 12.3666 23.2685C12.5507 23.2682 12.7349 23.2678 12.919 23.2673C13.4723 23.2662 14.0256 23.2657 14.5789 23.2654C14.8394 23.2652 15.0999 23.2649 15.3605 23.2646C16.2263 23.2636 17.0922 23.2628 17.9581 23.2625C18.0135 23.2625 18.069 23.2625 18.1261 23.2625C18.1816 23.2625 18.2372 23.2625 18.2944 23.2624C18.407 23.2624 18.5195 23.2624 18.6321 23.2623C18.6879 23.2623 18.7438 23.2623 18.8013 23.2623C19.7064 23.262 20.6114 23.2606 21.5164 23.2588C22.4454 23.2569 23.3744 23.256 24.3034 23.2559C24.8251 23.2558 25.3468 23.2553 25.8685 23.2539C26.359 23.2527 26.8495 23.2525 27.3401 23.2532C27.5203 23.2532 27.7006 23.2529 27.8808 23.2521C28.1265 23.2511 28.3721 23.2516 28.6178 23.2524C28.6895 23.2518 28.7611 23.2511 28.8349 23.2505C29.2121 23.2534 29.4568 23.2748 29.7656 23.5155C29.8117 23.5511 29.8577 23.5868 29.9051 23.6235C30.0714 23.8449 30.0358 24.0728 30.0284 24.3398C29.989 24.6057 29.8839 24.7427 29.6875 24.9217C29.5099 25.0106 29.4127 25.0099 29.2154 25.0103C29.1157 25.0109 29.1157 25.0109 29.014 25.0114C28.9405 25.0114 28.8671 25.0114 28.7914 25.0114C28.7137 25.0116 28.636 25.0119 28.556 25.0122C28.2939 25.0131 28.0319 25.0134 27.7699 25.0137C27.5827 25.0142 27.3955 25.0147 27.2083 25.0152C26.6453 25.0167 26.0824 25.0176 25.5194 25.0183C25.2544 25.0186 24.9894 25.019 24.7244 25.0194C23.8437 25.0208 22.963 25.0219 22.0824 25.0225C21.8538 25.0226 21.6252 25.0228 21.3966 25.0229C21.3397 25.023 21.2829 25.023 21.2244 25.023C20.3037 25.0237 19.383 25.0257 18.4623 25.0282C17.5174 25.0308 16.5725 25.0322 15.6276 25.0324C15.0969 25.0326 14.5663 25.0333 14.0356 25.0353C13.5365 25.0372 13.0375 25.0374 12.5384 25.0366C12.355 25.0366 12.1716 25.0371 11.9882 25.0382C11.7382 25.0395 11.4883 25.039 11.2384 25.038C11.1655 25.0388 11.0925 25.0397 11.0174 25.0406C10.6885 25.0373 10.5149 25.0286 10.2302 24.851C9.96255 24.563 9.9695 24.3252 9.97225 23.9439C10 23.7499 10 23.7499 10.1807 23.5106C10.4429 23.3216 10.6304 23.2714 10.9456 23.2708Z" fill="white"/>
<path d="M10.9456 18.2708C11.0111 18.2705 11.0767 18.2702 11.1442 18.2699C11.2522 18.27 11.2522 18.27 11.3624 18.2701C11.4389 18.2699 11.5154 18.2697 11.5942 18.2694C11.8517 18.2688 12.1091 18.2686 12.3666 18.2685C12.5507 18.2682 12.7349 18.2678 12.919 18.2673C13.4723 18.2662 14.0256 18.2657 14.5789 18.2654C14.8394 18.2652 15.0999 18.2649 15.3605 18.2646C16.2263 18.2636 17.0922 18.2628 17.9581 18.2625C18.0135 18.2625 18.069 18.2625 18.1261 18.2625C18.1816 18.2625 18.2372 18.2625 18.2944 18.2624C18.407 18.2624 18.5195 18.2624 18.6321 18.2623C18.6879 18.2623 18.7438 18.2623 18.8013 18.2623C19.7064 18.262 20.6114 18.2606 21.5164 18.2588C22.4454 18.2569 23.3744 18.256 24.3034 18.2559C24.8251 18.2558 25.3468 18.2553 25.8685 18.2539C26.359 18.2527 26.8495 18.2525 27.3401 18.2532C27.5203 18.2532 27.7006 18.2529 27.8808 18.2521C28.1265 18.2511 28.3721 18.2516 28.6178 18.2524C28.6895 18.2518 28.7611 18.2511 28.8349 18.2505C29.2121 18.2534 29.4568 18.2748 29.7656 18.5155C29.8117 18.5511 29.8577 18.5868 29.9051 18.6235C30.0714 18.8449 30.0358 19.0728 30.0284 19.3398C29.989 19.6057 29.8839 19.7427 29.6875 19.9217C29.5099 20.0106 29.4127 20.0099 29.2154 20.0103C29.1157 20.0109 29.1157 20.0109 29.014 20.0114C28.9405 20.0114 28.8671 20.0114 28.7914 20.0114C28.7137 20.0116 28.636 20.0119 28.556 20.0122C28.2939 20.0131 28.0319 20.0134 27.7699 20.0137C27.5827 20.0142 27.3955 20.0147 27.2083 20.0152C26.6453 20.0167 26.0824 20.0176 25.5194 20.0183C25.2544 20.0186 24.9894 20.019 24.7244 20.0194C23.8437 20.0208 22.963 20.0219 22.0824 20.0225C21.8538 20.0226 21.6252 20.0228 21.3966 20.0229C21.3397 20.023 21.2829 20.023 21.2244 20.023C20.3037 20.0237 19.383 20.0257 18.4623 20.0282C17.5174 20.0308 16.5725 20.0322 15.6276 20.0324C15.0969 20.0326 14.5663 20.0333 14.0356 20.0353C13.5365 20.0372 13.0375 20.0374 12.5384 20.0366C12.355 20.0366 12.1716 20.0371 11.9882 20.0382C11.7382 20.0395 11.4883 20.039 11.2384 20.038C11.1655 20.0388 11.0925 20.0397 11.0174 20.0406C10.6885 20.0373 10.5149 20.0286 10.2302 19.851C9.96255 19.563 9.9695 19.3252 9.97225 18.9439C10 18.7499 10 18.7499 10.1807 18.5106C10.4429 18.3216 10.6304 18.2714 10.9456 18.2708Z" fill="white"/>
<path d="M12.7344 5.78133C13.0202 5.9407 13.1773 6.05509 13.3594 6.3282C13.3594 6.43133 13.3594 6.53445 13.3594 6.6407C13.4329 6.63708 13.5064 6.63345 13.5822 6.62972C14.4759 6.60381 14.4759 6.60381 14.751 6.78719C14.991 7.02033 15.0166 7.15884 15.0293 7.48543C15.0275 7.80107 15.0165 7.86948 14.8145 8.12996C14.5137 8.35197 14.3616 8.36994 13.9902 8.37593C13.8508 8.37926 13.8508 8.37926 13.7087 8.38265C13.5126 8.3867 13.3164 8.39016 13.1203 8.39302C12.9805 8.39665 12.9805 8.39665 12.8378 8.40035C12.7099 8.40267 12.7099 8.40267 12.5793 8.40504C12.3138 8.44172 12.1672 8.51281 11.9531 8.67195C11.7578 8.96496 11.755 9.10622 11.7969 9.4532C12.0828 9.81619 12.3085 9.90012 12.7588 9.9659C13.4831 10.0874 14.1054 10.3161 14.5633 10.9287C14.8898 11.4285 15.0307 11.8848 15.0293 12.4854C15.0292 12.5406 15.0291 12.5957 15.0289 12.6525C15.0182 13.1108 14.9258 13.4416 14.6875 13.8282C14.6456 13.9088 14.6037 13.9893 14.5606 14.0723C14.2912 14.3984 13.9616 14.6363 13.5938 14.8438C13.5164 14.8438 13.4391 14.8438 13.3594 14.8438C13.3715 14.9453 13.3715 14.9453 13.3838 15.0489C13.3501 15.4128 13.2215 15.5226 12.9688 15.7813C12.7158 15.9078 12.4609 15.9041 12.1875 15.8595C11.9737 15.7532 11.884 15.6542 11.7188 15.4688C11.6672 15.2204 11.6672 15.2204 11.6406 15.0001C11.5606 15.0037 11.4805 15.0073 11.398 15.0111C11.2917 15.014 11.1854 15.0168 11.0791 15.0196C11.0265 15.0222 10.9739 15.0248 10.9197 15.0275C10.6336 15.0331 10.4827 15.0091 10.2402 14.8524C9.96005 14.5675 9.96946 14.3304 9.97225 13.9442C10 13.7501 10 13.7501 10.1807 13.5108C10.4922 13.2863 10.7235 13.2703 11.0983 13.2621C11.1913 13.2595 11.2844 13.257 11.3802 13.2543C11.5763 13.2495 11.7724 13.2451 11.9686 13.2409C12.1082 13.2369 12.1082 13.2369 12.2507 13.2328C12.3359 13.2308 12.4212 13.2289 12.509 13.2269C12.7303 13.2036 12.8611 13.1662 13.0469 13.047C13.227 12.7948 13.2284 12.5692 13.2031 12.2657C13.1365 12.0658 13.0924 11.9811 12.9123 11.8708C12.7035 11.7841 12.5142 11.7573 12.2901 11.7286C11.4615 11.5967 10.8256 11.2728 10.3256 10.5842C9.91074 9.87487 9.86326 9.08995 10.0522 8.29659C10.3143 7.63498 10.8463 7.10208 11.4844 6.79695C11.536 6.79695 11.5875 6.79695 11.6406 6.79695C11.631 6.69302 11.631 6.69302 11.6211 6.58699C11.6452 6.26812 11.7297 6.16106 11.9531 5.93758C12.2086 5.75879 12.4273 5.74448 12.7344 5.78133Z" fill="white"/>
<path d="M11.0475 33.27C11.1352 33.2694 11.223 33.2688 11.3134 33.2683C11.4097 33.268 11.506 33.2678 11.6052 33.2676C11.7066 33.2671 11.808 33.2666 11.9124 33.2661C12.2488 33.2644 12.5851 33.2636 12.9215 33.2628C13.0373 33.2625 13.1532 33.2622 13.2691 33.2619C13.8133 33.2604 14.3576 33.2593 14.9019 33.2586C15.5299 33.2579 16.1579 33.2558 16.7859 33.2526C17.2716 33.2503 17.7572 33.2491 18.2428 33.2489C18.5327 33.2487 18.8227 33.248 19.1126 33.246C19.4362 33.2439 19.7597 33.2442 20.0833 33.2447C20.2271 33.2432 20.2271 33.2432 20.3737 33.2417C20.8691 33.2447 21.1901 33.2516 21.5625 33.5939C21.7192 33.8181 21.7396 33.9836 21.7139 34.2531C21.7098 34.311 21.7056 34.3689 21.7014 34.4286C21.6114 34.6968 21.4942 34.8616 21.25 35.0002C20.9081 35.06 20.5686 35.0527 20.2222 35.0495C20.1166 35.0499 20.0109 35.0505 19.9053 35.0512C19.6189 35.0526 19.3326 35.0516 19.0462 35.0501C18.7463 35.0488 18.4465 35.0495 18.1466 35.0499C17.643 35.0503 17.1394 35.049 16.6358 35.0468C16.0538 35.0443 15.4719 35.0443 14.89 35.0457C14.3298 35.0469 13.7697 35.0464 13.2095 35.0451C12.9712 35.0445 12.733 35.0446 12.4948 35.0452C12.2142 35.0458 11.9336 35.0448 11.653 35.0427C11.5011 35.0419 11.3492 35.0426 11.1972 35.0434C11.1066 35.0424 11.0159 35.0414 10.9224 35.0404C10.8438 35.0402 10.7652 35.04 10.6841 35.0397C10.4101 34.9894 10.278 34.8778 10.0782 34.6877C9.93297 34.3973 9.9548 34.0664 10 33.7502C10.3039 33.3478 10.561 33.2721 11.0475 33.27Z" fill="white"/>
<path d="M19.3386 13.2608C19.4265 13.2602 19.5145 13.2597 19.6051 13.2591C19.7493 13.2594 19.7493 13.2594 19.8965 13.2597C19.998 13.2593 20.0995 13.2589 20.2041 13.2585C20.4824 13.2574 20.7607 13.2574 21.039 13.2576C21.2714 13.2577 21.5038 13.2573 21.7362 13.2569C22.2845 13.256 22.8328 13.256 23.3811 13.2565C23.9465 13.257 24.512 13.256 25.0774 13.2543C25.5631 13.2529 26.0488 13.2525 26.5345 13.2527C26.8245 13.2529 27.1144 13.2527 27.4044 13.2516C27.7278 13.2504 28.0512 13.2511 28.3746 13.2521C28.4706 13.2515 28.5666 13.2509 28.6655 13.2502C28.7536 13.2508 28.8418 13.2513 28.9326 13.2519C29.0091 13.2519 29.0855 13.2519 29.1643 13.2519C29.4678 13.294 29.6669 13.4391 29.905 13.6235C30.0714 13.8449 30.0357 14.0728 30.0283 14.3398C29.9889 14.6057 29.8838 14.7427 29.6875 14.9218C29.4838 15.0236 29.3339 15.0107 29.1057 15.0119C29.0154 15.0126 28.925 15.0133 28.8319 15.014C28.7323 15.0143 28.6326 15.0146 28.53 15.015C28.4244 15.0156 28.3188 15.0162 28.2132 15.0169C27.8659 15.0189 27.5186 15.0201 27.1713 15.0213C27.0518 15.0217 26.9323 15.0221 26.8127 15.0225C26.3157 15.0242 25.8186 15.0257 25.3215 15.0265C24.6089 15.0278 23.8963 15.0304 23.1837 15.0349C22.6827 15.0379 22.1818 15.0394 21.6809 15.0398C21.3816 15.0401 21.0824 15.041 20.7831 15.0436C20.5015 15.0459 20.22 15.0464 19.9384 15.0455C19.7859 15.0455 19.6335 15.0474 19.481 15.0494C18.7356 15.044 18.7356 15.044 18.4943 14.8127C18.294 14.5107 18.2483 14.2653 18.2812 13.9061C18.5297 13.3999 18.7906 13.2619 19.3386 13.2608Z" fill="white"/>
</g>
<defs>
<clipPath id="clip0_2397_1284">
<rect width="40" height="40" fill="white"/>
</clipPath>
</defs>
</svg>
