<svg width="40" height="40" viewBox="0 0 40 40" fill="none" xmlns="http://www.w3.org/2000/svg">
<g clip-path="url(#clip0_2397_1022)">
<path d="M3.59768 -0.0214039C3.65874 -0.0218131 3.71979 -0.0222222 3.7827 -0.0226437C3.98611 -0.0238102 4.18951 -0.0238705 4.39292 -0.0239228C4.53926 -0.0245186 4.6856 -0.0251771 4.83195 -0.0258934C5.22872 -0.027605 5.62549 -0.0282949 6.02228 -0.0286923C6.27048 -0.0289773 6.51867 -0.029465 6.76687 -0.0300205C7.63365 -0.0319333 8.50043 -0.0329536 9.36721 -0.0332307C10.1737 -0.0335145 10.9802 -0.035849 11.7866 -0.0391217C12.4802 -0.0418369 13.1737 -0.0430392 13.8673 -0.0430937C14.281 -0.0431555 14.6947 -0.0438322 15.1084 -0.0460622C15.4979 -0.0481146 15.8873 -0.048276 16.2767 -0.0470266C16.4191 -0.0468854 16.5614 -0.0474026 16.7037 -0.0486531C17.6641 -0.0565707 18.5721 -0.00447531 19.3012 0.712295C19.3642 0.773097 19.4272 0.8339 19.4921 0.896544C19.5566 0.961627 19.6211 1.02671 19.6875 1.09376C19.7574 1.16267 19.8273 1.23158 19.8994 1.30258C20.1199 1.52128 20.3386 1.74171 20.5567 1.9629C20.7031 2.11146 20.8498 2.25973 20.9967 2.40785C21.0605 2.47252 21.1242 2.53719 21.1899 2.60381C21.3533 2.76146 21.5176 2.90977 21.6897 3.05734C22.0444 3.36683 22.3791 3.69398 22.7128 4.02584C22.8103 4.12237 22.8103 4.12237 22.9097 4.22086C23.1228 4.43202 23.3356 4.64349 23.5483 4.85506C23.6214 4.9277 23.6944 5.00035 23.7697 5.0752C24.0768 5.38059 24.3837 5.68609 24.6904 5.99187C25.1274 6.42757 25.565 6.86258 26.0035 7.29667C26.3134 7.60353 26.6225 7.91114 26.9311 8.21931C27.1148 8.40269 27.2988 8.58563 27.4835 8.76797C27.6896 8.97152 27.8943 9.17628 28.0988 9.38136C28.1593 9.44052 28.2197 9.49968 28.282 9.56063C28.9087 10.1946 29.2239 10.833 29.2348 11.7237C29.2356 11.7786 29.2363 11.8335 29.2371 11.8901C29.2396 12.071 29.2415 12.252 29.2435 12.4329C29.2451 12.5585 29.2467 12.6842 29.2484 12.8099C29.2527 13.1402 29.2566 13.4705 29.2603 13.8009C29.2643 14.1381 29.2686 14.4754 29.2729 14.8126C29.2813 15.474 29.2893 16.1355 29.2969 16.7969C29.3706 16.7716 29.4442 16.7463 29.5202 16.7202C29.9957 16.566 30.4712 16.5861 30.9312 16.787C31.4577 17.0721 31.8876 17.5789 32.3083 17.9988C32.3635 18.0537 32.4187 18.1085 32.4756 18.165C32.6561 18.3443 32.8362 18.5239 33.0164 18.7036C33.0783 18.7654 33.1403 18.8271 33.2041 18.8907C33.5314 19.2168 33.8585 19.5432 34.1854 19.8697C34.5223 20.2063 34.86 20.542 35.1978 20.8776C35.4584 21.1368 35.7184 21.3964 35.9784 21.6562C36.1026 21.7802 36.2271 21.9041 36.3518 22.0277C36.526 22.2006 36.6995 22.3743 36.8728 22.5481C36.924 22.5986 36.9752 22.6491 37.028 22.7011C37.4902 23.1675 37.8173 23.6368 37.832 24.3115C37.8169 25.0258 37.5673 25.4859 37.07 25.9967C36.6655 26.3601 36.3401 26.5705 35.7819 26.5524C35.6677 26.5445 35.5536 26.5365 35.4395 26.5283C35.0468 26.5017 34.7841 26.5133 34.4718 26.7697C34.2351 26.996 34.0281 27.2411 33.8281 27.5C34.1288 27.8121 34.4478 28.0877 34.7852 28.3594C34.8396 28.4034 34.894 28.4475 34.9501 28.4929C35.3937 28.85 35.8452 29.196 36.2989 29.54C36.8466 29.9566 37.3792 30.3908 37.9114 30.827C38.0984 30.9795 38.2874 31.1294 38.4766 31.2793C38.5939 31.3736 38.7111 31.4679 38.8281 31.5625C38.9135 31.6305 38.9135 31.6305 39.0006 31.6998C39.5063 32.1183 39.8247 32.5657 40 33.2031C40.0844 34.1412 39.9776 34.8645 39.4092 35.6348C38.828 36.3206 38.0662 36.8666 37.1628 36.9879C36.3562 37.0287 35.7559 36.8147 35.1514 36.2802C34.6297 35.7908 34.1948 35.2362 33.7704 34.6628C33.6 34.4352 33.4233 34.2124 33.2471 33.9893C33.1748 33.8974 33.1024 33.8056 33.0301 33.7137C32.9942 33.6681 32.9582 33.6225 32.9212 33.5755C32.7773 33.3928 32.6336 33.2099 32.49 33.027C32.4188 32.9364 32.3475 32.8458 32.2763 32.7551C32.092 32.5207 31.908 32.2861 31.7246 32.0511C31.3671 31.5937 31.0089 31.1389 30.625 30.7031C29.9822 31.1956 29.9822 31.1956 29.6481 31.8897C29.6747 32.129 29.6747 32.129 29.7247 32.3627C29.8151 32.8389 29.6059 33.2603 29.375 33.6719C29.3492 33.6977 29.3235 33.7234 29.2969 33.75C29.2893 33.8829 29.2866 34.0161 29.2859 34.1492C29.2653 35.5405 29.1305 36.4915 28.1738 37.5488C27.2689 38.3676 26.2825 38.7034 25.0586 38.6636C24.8811 38.6462 24.7068 38.625 24.5313 38.5938C24.5349 38.6391 24.5385 38.6844 24.5423 38.7311C24.5627 39.1734 24.5178 39.4167 24.2188 39.7656C24.0165 39.9828 23.851 40.0171 23.5653 40.0308C23.4226 40.0327 23.2798 40.0333 23.1371 40.0328C23.059 40.0335 22.981 40.0341 22.9006 40.0348C22.6426 40.0367 22.3845 40.0367 22.1265 40.0366C21.9473 40.0372 21.768 40.0378 21.5888 40.0384C21.2132 40.0395 20.8375 40.0396 20.4619 40.0392C19.98 40.0387 19.4982 40.0411 19.0164 40.0442C18.6463 40.0463 18.2762 40.0465 17.9061 40.0462C17.7285 40.0463 17.5508 40.0471 17.3731 40.0485C17.1249 40.0502 16.8768 40.0495 16.6286 40.0481C16.5181 40.0496 16.5181 40.0496 16.4055 40.0512C15.9087 40.0448 15.9087 40.0448 15.6575 39.8166C15.5223 39.5633 15.4987 39.4238 15.5469 39.1406C15.7213 38.9181 15.8242 38.8399 16.0938 38.75C16.3232 38.7428 16.5507 38.7402 16.7802 38.7411C16.8854 38.7411 16.8854 38.7411 16.9927 38.7411C17.2248 38.7412 17.4568 38.7418 17.6889 38.7424C17.8497 38.7425 18.0105 38.7426 18.1713 38.7427C18.5948 38.743 19.0183 38.7438 19.4417 38.7446C19.8737 38.7454 20.3058 38.7458 20.7378 38.7462C21.5856 38.747 22.4334 38.7484 23.2813 38.75C23.2601 38.6246 23.2378 38.4994 23.215 38.3743C23.2027 38.3046 23.1905 38.2349 23.1778 38.163C23.1021 37.8844 22.9612 37.7496 22.7344 37.5781C22.4916 37.4972 22.3233 37.4898 22.0687 37.489C21.9789 37.4886 21.8892 37.4881 21.7968 37.4877C21.6491 37.4876 21.6491 37.4876 21.4983 37.4874C21.3936 37.4871 21.2889 37.4867 21.1842 37.4862C20.8996 37.4852 20.615 37.4847 20.3304 37.4844C20.1526 37.4841 19.9747 37.4838 19.7969 37.4835C19.2403 37.4824 18.6838 37.4816 18.1273 37.4813C17.485 37.481 16.8428 37.4796 16.2006 37.4774C15.7041 37.4757 15.2075 37.4749 14.711 37.4748C14.4144 37.4747 14.118 37.4742 13.8215 37.4728C13.5424 37.4716 13.2635 37.4714 12.9844 37.4721C12.8336 37.4722 12.6827 37.4711 12.5318 37.47C11.8956 37.4674 11.8956 37.4674 11.3281 37.7344C11.1357 37.9666 11.0815 38.1586 11.0489 38.4512C11.0324 38.5991 11.0324 38.5991 11.0156 38.75C11.0893 38.7492 11.163 38.7484 11.2389 38.7475C11.5134 38.7449 11.7878 38.7429 12.0623 38.7414C12.1809 38.7406 12.2995 38.7396 12.4181 38.7382C12.5889 38.7363 12.7597 38.7354 12.9306 38.7347C13.0333 38.7339 13.136 38.7331 13.2418 38.7323C13.5051 38.7493 13.6758 38.7807 13.9063 38.9063C14.0892 39.1807 14.1013 39.2863 14.0625 39.6094C13.9512 39.8169 13.9512 39.8169 13.75 40C13.5007 40.0581 13.2562 40.0529 13.0011 40.0491C12.8916 40.0494 12.8916 40.0494 12.7799 40.0497C12.6255 40.0496 12.4712 40.0486 12.3169 40.0466C12.0814 40.044 11.8462 40.045 11.6107 40.0466C11.4606 40.046 11.3104 40.0453 11.1603 40.0443C11.0902 40.0447 11.0201 40.045 10.9479 40.0454C10.5187 40.0374 10.2564 39.9828 9.92189 39.6875C9.75636 39.4312 9.7487 39.2272 9.75587 38.9258C9.75728 38.8488 9.75869 38.7719 9.76014 38.6926C9.76196 38.6342 9.76377 38.5758 9.76564 38.5156C9.68355 38.5163 9.60146 38.517 9.51688 38.5177C8.73998 38.5241 7.96308 38.5288 7.18616 38.5318C6.78682 38.5335 6.3875 38.5357 5.98817 38.5392C5.60217 38.5426 5.2162 38.5445 4.83018 38.5453C4.68355 38.5459 4.53692 38.547 4.39029 38.5487C3.08545 38.5632 1.98465 38.37 0.996106 37.4414C0.157331 36.5501 -0.0358279 35.6116 -0.0308008 34.4199C-0.0311833 34.307 -0.0316673 34.1941 -0.0322429 34.0812C-0.0335186 33.7727 -0.0333442 33.4642 -0.0329168 33.1557C-0.0327075 32.8223 -0.0338445 32.4889 -0.0347991 32.1556C-0.0364409 31.5033 -0.0367988 30.8511 -0.0366593 30.1988C-0.0365571 29.6689 -0.0368549 29.139 -0.0374348 28.609C-0.0375988 28.4563 -0.0377628 28.3035 -0.0379265 28.1507C-0.0380081 28.0747 -0.0380896 27.9987 -0.0381736 27.9203C-0.0396489 26.4837 -0.0395685 25.0471 -0.0390352 23.6105C-0.038599 22.2955 -0.0402295 20.9804 -0.0428135 19.6654C-0.0454465 18.315 -0.0466345 16.9646 -0.046273 15.6142C-0.0460974 14.8561 -0.0465101 14.098 -0.0484521 13.3399C-0.0500902 12.695 -0.0503778 12.0501 -0.0488974 11.4051C-0.0481799 11.076 -0.0480989 10.7468 -0.0497065 10.4177C-0.0511607 10.1166 -0.050825 9.81558 -0.0490389 9.5145C-0.04871 9.40537 -0.0490462 9.29624 -0.0501011 9.18712C-0.051434 9.0392 -0.0501421 8.89127 -0.0487078 8.74335C-0.0487291 8.66107 -0.0487503 8.57878 -0.0487722 8.494C1.25355e-05 8.28126 1.23121e-05 8.28126 0.18067 8.09583C0.390637 7.96876 0.390637 7.96876 0.673841 7.97365C1.01636 8.06879 1.01636 8.06879 1.17189 8.28126C1.20132 8.4792 1.20132 8.4792 1.20151 8.72132C1.20215 8.81351 1.2028 8.9057 1.20346 9.00069C1.20297 9.10247 1.20249 9.20425 1.20199 9.30911C1.2023 9.41795 1.20272 9.52678 1.20323 9.63561C1.20434 9.93539 1.20398 10.2352 1.2034 10.5349C1.20304 10.858 1.20402 11.1811 1.20484 11.5041C1.20609 12.0643 1.2065 12.6244 1.20636 13.1846C1.20617 13.9954 1.20742 14.8062 1.20905 15.6171C1.21167 16.9337 1.21336 18.2504 1.21436 19.5671C1.21442 19.6459 1.21448 19.7248 1.21455 19.806C1.21479 20.1254 1.21503 20.4449 1.21527 20.7643C1.21593 21.6423 1.21679 22.5203 1.21772 23.3983C1.21785 23.5162 1.21785 23.5162 1.21797 23.6364C1.21939 24.9473 1.22142 26.2582 1.22382 27.5691C1.22527 28.3776 1.22613 29.1861 1.22621 29.9946C1.2263 30.549 1.22692 31.1035 1.22796 31.6579C1.22854 31.9777 1.22886 32.2974 1.2285 32.6171C1.22817 32.9102 1.22856 33.2033 1.2295 33.4965C1.22982 33.6518 1.22937 33.8072 1.22889 33.9626C1.23324 34.8936 1.29148 35.7597 1.93391 36.4822C2.75906 37.2674 3.69187 37.2383 4.76411 37.24C4.91582 37.241 5.06754 37.2421 5.21925 37.2432C5.53596 37.245 5.85264 37.2456 6.16935 37.2454C6.57448 37.2454 6.97944 37.2497 7.38453 37.255C7.69734 37.2585 8.0101 37.2591 8.32292 37.259C8.47228 37.2593 8.62164 37.2607 8.77097 37.2631C9.56361 37.3077 9.56361 37.3077 10.2823 37.0478C10.4285 36.885 10.4285 36.885 10.5263 36.7086C10.6508 36.5244 10.7513 36.4983 10.9619 36.4404C11.1278 36.3807 11.1278 36.3807 11.25 36.25C11.3047 36.0111 11.331 35.7794 11.3506 35.5354C11.4026 34.9566 11.6112 34.563 12.0172 34.1535C12.6096 33.6618 13.3138 33.5581 14.0616 33.5647C14.1721 33.5642 14.1721 33.5642 14.2848 33.5638C14.5258 33.5632 14.7667 33.5642 15.0076 33.5654C15.1765 33.5654 15.3453 33.5654 15.5142 33.5653C15.867 33.5653 16.2199 33.5661 16.5727 33.5675C17.0236 33.5693 17.4745 33.5693 17.9255 33.5688C18.2738 33.5685 18.6221 33.569 18.9705 33.5698C19.1367 33.5701 19.3029 33.5702 19.4691 33.5701C19.7019 33.57 19.9346 33.571 20.1673 33.5723C20.269 33.572 20.269 33.572 20.3728 33.5717C21.2092 33.5789 21.7814 33.742 22.3831 34.3344C22.7954 34.7935 22.8935 35.155 22.8955 35.752C22.9005 36.0157 22.9005 36.0157 22.9688 36.25C23.1534 36.4019 23.3243 36.4706 23.5477 36.5537C23.8534 36.6851 24.045 36.9072 24.2188 37.1875C24.2188 37.2391 24.2188 37.2906 24.2188 37.3438C25.8533 37.3922 25.8533 37.3922 27.2461 36.6211C27.7871 36.0371 27.9044 35.3781 28.0469 34.6094C27.9953 34.6352 27.9438 34.6609 27.8906 34.6875C27.7094 34.7061 27.7094 34.7061 27.4902 34.7119C27.4191 34.7148 27.348 34.7178 27.2748 34.7208C26.6171 34.6309 26.1962 34.21 25.7497 33.7577C25.6562 33.6648 25.6562 33.6648 25.5609 33.5701C25.3562 33.3664 25.1528 33.1617 24.9494 32.9569C24.807 32.8146 24.6647 32.6723 24.5223 32.5301C24.2246 32.2325 23.9274 31.9344 23.6307 31.6358C23.288 31.2911 22.9443 30.9473 22.6002 30.6041C22.2682 30.273 21.937 29.9412 21.606 29.6092C21.4655 29.4683 21.3247 29.3275 21.1838 29.1869C20.9873 28.9906 20.7915 28.7935 20.5959 28.5962C20.5084 28.5092 20.5084 28.5092 20.4191 28.4204C20.3658 28.3665 20.3126 28.3125 20.2578 28.2568C20.1884 28.1871 20.1884 28.1871 20.1175 28.116C19.7962 27.7134 19.8011 27.2696 19.8099 26.7743C19.8836 26.1436 20.1637 25.6368 20.6494 25.2295C21.2325 24.8297 21.7977 24.7026 22.5 24.7656C22.5504 24.7826 22.6008 24.7996 22.6527 24.8171C22.7054 24.8259 22.7582 24.8347 22.8125 24.8438C22.999 24.6977 23.157 24.5543 23.3226 24.3867C23.373 24.3372 23.4235 24.2877 23.4755 24.2367C23.6426 24.0721 23.8082 23.9061 23.9737 23.7399C24.089 23.6253 24.2044 23.5107 24.3197 23.3962C24.5616 23.1556 24.8027 22.9142 25.0434 22.6724C25.3521 22.3623 25.663 22.0543 25.9745 21.7469C26.2133 21.5107 26.4508 21.2732 26.688 21.0353C26.8021 20.9213 26.9167 20.8076 27.0317 20.6944C27.1922 20.536 27.3509 20.3759 27.5093 20.2153C27.5573 20.1686 27.6053 20.122 27.6547 20.0739C27.7753 19.9497 27.8792 19.8357 27.9688 19.6875C27.9662 19.4602 27.9662 19.4602 27.8906 19.2188C27.8787 18.9644 27.8853 18.7101 27.8889 18.4556C27.8901 18.3423 27.8901 18.3423 27.8912 18.2267C27.8938 17.9782 27.8969 17.7296 27.9001 17.4811C27.902 17.3084 27.9039 17.1356 27.9057 16.9629C27.9106 16.509 27.916 16.0551 27.9215 15.6012C27.927 15.1378 27.9321 14.6743 27.9372 14.2108C27.9472 13.302 27.9578 12.3932 27.9688 11.4844C27.8689 11.4851 27.769 11.4858 27.6661 11.4865C26.7225 11.4928 25.7788 11.4975 24.8352 11.5006C24.3501 11.5022 23.865 11.5044 23.38 11.508C22.9114 11.5114 22.4429 11.5132 21.9743 11.514C21.796 11.5146 21.6176 11.5157 21.4393 11.5174C21.1886 11.5197 20.9379 11.52 20.6872 11.5199C20.5778 11.5216 20.5778 11.5216 20.4663 11.5233C19.621 11.518 18.9762 11.2378 18.3722 10.654C17.7953 10.0219 17.6322 9.41829 17.6385 8.57595C17.6385 8.49663 17.6385 8.41732 17.6385 8.3356C17.6386 8.07436 17.6398 7.81313 17.641 7.55189C17.6413 7.3704 17.6415 7.1889 17.6417 7.00741C17.6423 6.5304 17.6438 6.05339 17.6455 5.57639C17.6471 5.08936 17.6478 4.60234 17.6486 4.11531C17.6503 3.16021 17.653 2.20511 17.6563 1.25001C15.7778 1.24927 13.8994 1.2512 12.0209 1.25629C11.1487 1.25859 10.2764 1.26002 9.40416 1.2594C8.64363 1.25886 7.88313 1.25996 7.12261 1.26302C6.72015 1.26458 6.31772 1.26533 5.91526 1.26411C5.53588 1.26299 5.15657 1.26407 4.7772 1.26681C4.63851 1.26743 4.49981 1.26726 4.36113 1.26622C3.45021 1.25995 2.70453 1.33004 1.99342 1.97215C1.32141 2.66148 1.25234 3.40212 1.23628 4.32985C1.23487 4.40854 1.23487 4.40854 1.23344 4.48881C1.22963 4.70851 1.22593 4.92818 1.22455 5.14791C1.22334 5.30985 1.2202 5.47166 1.21675 5.63356C1.21561 5.72941 1.21447 5.82526 1.2133 5.92401C1.16441 6.21665 1.09637 6.31062 0.859387 6.48439C0.564249 6.52655 0.393199 6.53839 0.141938 6.37023C-0.0687067 6.07585 -0.0462858 5.81324 -0.0442381 5.4593C-0.0447223 5.38932 -0.0452066 5.31934 -0.0457055 5.24724C-0.0462603 5.0989 -0.0460116 4.95055 -0.0450201 4.8022C-0.0439481 4.57838 -0.0465844 4.35482 -0.0495786 4.13103C-0.0549887 2.85555 0.188809 1.94011 1.10139 1.00374C1.80829 0.334237 2.61785 -0.0246975 3.59768 -0.0214039ZM18.9063 2.18751C18.9008 3.08599 18.8967 3.98446 18.8941 4.88295C18.8929 5.30017 18.8912 5.71737 18.8886 6.13458C18.886 6.53729 18.8846 6.93999 18.884 7.34271C18.8836 7.49627 18.8827 7.64983 18.8815 7.80339C18.8798 8.01865 18.8795 8.23388 18.8797 8.44915C18.8788 8.51248 18.878 8.57581 18.8771 8.64106C18.8795 9.08439 18.9629 9.41231 19.2694 9.75221C19.3139 9.78887 19.3584 9.82553 19.4043 9.86329C19.4484 9.90076 19.4925 9.93822 19.538 9.97682C19.9298 10.2423 20.299 10.2562 20.7608 10.2521C20.8286 10.2521 20.8965 10.2522 20.9664 10.2522C21.1901 10.2521 21.4137 10.2509 21.6373 10.2496C21.7926 10.2494 21.9479 10.2491 22.1033 10.249C22.5116 10.2484 22.9199 10.2468 23.3282 10.2451C23.745 10.2435 24.1619 10.2428 24.5787 10.242C25.3962 10.2403 26.2138 10.2377 27.0313 10.2344C26.7163 9.85678 26.3869 9.50062 26.0387 9.15361C25.9886 9.10335 25.9385 9.0531 25.8868 9.00132C25.7227 8.83679 25.5582 8.67254 25.3937 8.50831C25.2785 8.39306 25.1633 8.2778 25.0481 8.16252C24.8072 7.92153 24.5662 7.68068 24.3251 7.43993C24.0173 7.13261 23.7099 6.82493 23.4026 6.51715C23.165 6.27921 22.9271 6.04145 22.6892 5.80375C22.5758 5.69043 22.4625 5.57706 22.3493 5.46363C22.1904 5.30458 22.0313 5.14578 21.8722 4.98704C21.8262 4.94092 21.7802 4.8948 21.7329 4.84729C21.4462 4.56205 21.1496 4.29226 20.8429 4.02859C20.6422 3.85298 20.4562 3.66673 20.2689 3.47688C20.2318 3.43951 20.1947 3.40213 20.1565 3.36362C20.0407 3.24684 19.9251 3.12981 19.8096 3.01271C19.6553 2.85634 19.5007 2.70023 19.346 2.54426C19.2784 2.47574 19.2108 2.40721 19.1411 2.33661C19.011 2.17854 19.011 2.17854 18.9063 2.18751ZM29.4934 18.1622C29.3124 18.3442 29.2202 18.5064 29.1406 18.75C29.1541 19.113 29.2517 19.2952 29.5115 19.5477C29.5519 19.5851 29.5922 19.6225 29.6338 19.661C29.6958 19.721 29.6958 19.721 29.759 19.7823C29.8905 19.9095 30.0232 20.0354 30.1563 20.1611C30.2892 20.2872 30.4218 20.4135 30.5535 20.5409C30.6353 20.6199 30.7178 20.6982 30.801 20.7757C31.0334 21 31.1543 21.1576 31.1719 21.4844C31.113 21.7145 31.0666 21.8349 30.8789 21.9824C30.62 22.0544 30.4954 22.0336 30.2344 21.9531C29.9958 21.7627 29.7895 21.5449 29.5801 21.3233C29.5226 21.264 29.4651 21.2047 29.4058 21.1437C29.2644 20.9977 29.124 20.8508 28.9844 20.7031C28.655 20.8316 28.4352 21.0753 28.1918 21.3218C28.1445 21.369 28.0972 21.4163 28.0485 21.465C27.8925 21.621 27.7372 21.7776 27.5818 21.9342C27.4737 22.0426 27.3655 22.151 27.2573 22.2593C26.9729 22.5444 26.6889 22.8299 26.4051 23.1155C26.1152 23.4069 25.8249 23.6979 25.5347 23.989C24.9654 24.5599 24.3966 25.1314 23.8281 25.7031C24.1248 26.0574 24.431 26.3953 24.7589 26.7209C24.8024 26.7644 24.8459 26.8079 24.8907 26.8527C25.0326 26.9945 25.1747 27.136 25.3168 27.2775C25.416 27.3766 25.5151 27.4756 25.6143 27.5747C25.8738 27.8339 26.1336 28.0929 26.3934 28.3519C26.659 28.6167 26.9245 28.8818 27.19 29.1469C27.7098 29.6659 28.2298 30.1846 28.75 30.7031C29.107 30.4044 29.447 30.0955 29.7749 29.7652C29.8413 29.6988 29.8413 29.6988 29.9091 29.6311C30.0534 29.4867 30.1975 29.3421 30.3415 29.1974C30.4423 29.0965 30.5431 28.9955 30.6439 28.8946C30.9078 28.6305 31.1714 28.3661 31.435 28.1017C31.7045 27.8313 31.9743 27.5611 32.2441 27.291C32.7723 26.7619 33.3003 26.2326 33.8281 25.7031C33.6935 25.4145 33.5324 25.2383 33.3005 25.0177C33.2273 24.9468 33.1542 24.8759 33.0788 24.8029C32.9628 24.6912 32.8465 24.5799 32.7295 24.4692C32.6162 24.3616 32.5043 24.2526 32.3923 24.1437C32.325 24.0794 32.2576 24.0151 32.1883 23.9489C32.0066 23.7188 31.9696 23.5713 31.9531 23.2813C32.0286 23.0665 32.061 22.993 32.2656 22.8906C32.5239 22.8493 32.7208 22.8291 32.9457 22.9799C33.2728 23.2753 33.5836 23.5838 33.8895 23.9011C33.9293 23.9422 33.9691 23.9833 34.01 24.0257C34.3449 24.372 34.3449 24.372 34.5045 24.5415C34.6254 24.6695 34.7479 24.7956 34.8709 24.9216C34.9072 24.9609 34.9434 25.0002 34.9807 25.0407C35.192 25.2537 35.3005 25.3113 35.6031 25.3427C35.8699 25.3113 35.9658 25.2788 36.1572 25.0977C36.2013 25.0578 36.2453 25.0179 36.2906 24.9768C36.4966 24.7398 36.5628 24.606 36.5616 24.2852C36.4548 23.8692 36.233 23.6672 35.932 23.3713C35.8742 23.3127 35.8164 23.2541 35.7568 23.1937C35.5657 23.0005 35.373 22.8091 35.1801 22.6178C35.0465 22.484 34.9131 22.3501 34.7797 22.2161C34.5 21.9357 34.2195 21.6562 33.9384 21.3773C33.5782 21.0197 33.2201 20.6601 32.8627 20.2999C32.5875 20.023 32.3112 19.7473 32.0346 19.4719C31.9022 19.3398 31.77 19.2072 31.6383 19.0744C31.4539 18.8888 31.2681 18.7048 31.0818 18.5212C31.0277 18.4661 30.9735 18.4109 30.9177 18.3542C30.4566 17.9049 30.0269 17.7273 29.4934 18.1622ZM21.2695 26.4795C21.0684 26.7329 21.0684 26.7329 21.0156 27.0313C21.208 27.4258 21.5139 27.7116 21.8189 28.0197C21.9055 28.108 21.9055 28.108 21.9938 28.198C22.1843 28.3921 22.3755 28.5854 22.5668 28.7787C22.6649 28.8779 22.6649 28.8779 22.7649 28.979C23.1106 29.3284 23.4569 29.6773 23.8035 30.0258C24.1617 30.3861 24.5177 30.7484 24.8734 31.1111C25.1473 31.3896 25.4226 31.6666 25.6984 31.9431C25.8304 32.076 25.9619 32.2095 26.0927 32.3436C26.2756 32.5309 26.4605 32.7158 26.6462 32.9004C26.7266 32.9842 26.7266 32.9842 26.8087 33.0698C27.0801 33.3434 27.0801 33.3434 27.4353 33.4588C27.7203 33.4314 27.8844 33.3642 28.1104 33.1885C28.2872 32.9612 28.4193 32.772 28.5156 32.5C28.4233 32.073 28.0865 31.8025 27.7885 31.5057C27.7296 31.4462 27.6708 31.3867 27.6102 31.3254C27.4157 31.129 27.2203 30.9336 27.0249 30.7382C26.8894 30.6022 26.7539 30.4661 26.6185 30.33C26.3346 30.0451 26.0502 29.7606 25.7655 29.4764C25.4003 29.1117 25.0366 28.7455 24.6732 28.379C24.3939 28.0977 24.1138 27.8173 23.8333 27.5372C23.6988 27.4025 23.5646 27.2675 23.4307 27.1322C23.2437 26.9435 23.0555 26.756 22.8669 26.5688C22.8116 26.5125 22.7562 26.4561 22.6992 26.398C22.6476 26.3473 22.5961 26.2966 22.5429 26.2443C22.4985 26.1999 22.4542 26.1555 22.4084 26.1097C21.9694 25.8205 21.5653 26.1438 21.2695 26.4795ZM32.6002 28.6232C32.5284 28.6969 32.5284 28.6969 32.4552 28.772C32.377 28.8513 32.377 28.8513 32.2972 28.9322C32.2163 29.016 32.2163 29.016 32.1338 29.1016C32.079 29.1575 32.0241 29.2134 31.9676 29.2709C31.8321 29.4093 31.6971 29.5482 31.5625 29.6875C31.7827 30.0267 32.0186 30.3477 32.2705 30.6641C32.3471 30.7609 32.4237 30.8578 32.5003 30.9546C32.5392 31.0036 32.5781 31.0527 32.6182 31.1032C32.8008 31.3339 32.9824 31.5654 33.1641 31.7969C33.2357 31.888 33.3073 31.9792 33.3789 32.0703C33.8086 32.6172 33.8086 32.6172 33.9161 32.754C33.9875 32.8449 34.0589 32.9358 34.1304 33.0267C34.3495 33.3056 34.5685 33.5846 34.7874 33.8637C34.8953 34.0012 35.0035 34.1383 35.1117 34.2755C35.2389 34.4369 35.3643 34.5992 35.4889 34.7626C35.8284 35.2028 36.1014 35.5234 36.6406 35.7031C37.2379 35.7617 37.6414 35.5383 38.1006 35.1807C38.5069 34.8088 38.7672 34.3802 38.7988 33.8233C38.8057 33.4198 38.6 33.1211 38.3594 32.8125C38.1634 32.6168 37.9524 32.4459 37.7344 32.2754C37.6461 32.2046 37.6461 32.2046 37.556 32.1323C37.1314 31.793 36.7011 31.461 36.2686 31.1319C35.9368 30.8784 35.612 30.6162 35.2865 30.3547C34.9051 30.0485 34.5216 29.7453 34.1361 29.4444C33.7935 29.1765 33.4573 28.9016 33.1241 28.6221C32.917 28.4801 32.8003 28.4628 32.6002 28.6232ZM12.7689 35.2014C12.7462 35.2445 12.7236 35.2876 12.7002 35.332C12.6641 35.3955 12.6641 35.3955 12.6273 35.4602C12.5521 35.6837 12.5521 35.6837 12.5781 36.1719C15.5945 36.1719 18.6109 36.1719 21.7188 36.1719C21.6632 35.4641 21.6632 35.4641 21.25 35C20.8912 34.8046 20.5402 34.8212 20.1424 34.8223C20.0708 34.8219 19.9993 34.8215 19.9255 34.8211C19.6893 34.82 19.4531 34.8201 19.2169 34.8203C19.0524 34.82 18.8879 34.8196 18.7233 34.8192C18.3786 34.8187 18.0338 34.8187 17.689 34.8191C17.2477 34.8195 16.8065 34.8182 16.3653 34.8164C16.0255 34.8153 15.6857 34.8152 15.3459 34.8154C15.1832 34.8154 15.0205 34.815 14.8579 34.8142C14.6301 34.8132 14.4024 34.8138 14.1747 34.8147C14.0745 34.8138 14.0745 34.8138 13.9722 34.8129C13.5245 34.8168 13.1 34.8661 12.7689 35.2014Z" fill="white"/>
<path d="M6.04703 19.6484C6.13467 19.6478 6.13467 19.6478 6.22408 19.6471C6.41999 19.646 6.61581 19.6472 6.81171 19.6484C6.9521 19.6481 7.0925 19.6477 7.23289 19.6471C7.61432 19.646 7.99571 19.6469 8.37713 19.6482C8.77602 19.6493 9.1749 19.6488 9.57379 19.6485C10.2437 19.6483 10.9136 19.6493 11.5835 19.6511C12.3583 19.6532 13.1331 19.6533 13.908 19.6524C14.6529 19.6516 15.3978 19.6521 16.1428 19.6532C16.46 19.6536 16.7772 19.6536 17.0944 19.6532C17.4679 19.6529 17.8414 19.6537 18.2148 19.6554C18.352 19.6558 18.4892 19.6558 18.6264 19.6554C18.8134 19.655 19.0004 19.6559 19.1874 19.6573C19.2419 19.6568 19.2964 19.6563 19.3526 19.6559C19.5862 19.6589 19.747 19.6774 19.9538 19.7899C20.1495 19.9977 20.1465 20.1907 20.1563 20.4688C20.0961 20.6714 20.0478 20.7493 19.8731 20.8664C19.6209 20.9631 19.3819 20.9597 19.1158 20.9585C19.058 20.9588 19.0003 20.9592 18.9408 20.9595C18.7473 20.9605 18.5537 20.9604 18.3602 20.9603C18.2215 20.9607 18.0827 20.9613 17.944 20.9619C17.5671 20.9632 17.1902 20.9636 16.8133 20.9637C16.4988 20.9639 16.1843 20.9644 15.8697 20.965C15.1278 20.9663 14.3858 20.9666 13.6439 20.9665C12.8782 20.9664 12.1125 20.9681 11.3468 20.9706C10.6896 20.9726 10.0324 20.9734 9.37525 20.9733C8.98264 20.9733 8.59005 20.9737 8.19745 20.9754C7.82827 20.9769 7.45913 20.9769 7.08996 20.9758C6.95444 20.9756 6.81892 20.976 6.68341 20.9769C6.49844 20.9781 6.31358 20.9774 6.12861 20.9762C6.04811 20.9774 6.04811 20.9774 5.96598 20.9786C5.59958 20.9734 5.41307 20.8844 5.15629 20.6251C5.10715 20.4688 5.10715 20.4688 5.11234 20.3126C5.11224 20.261 5.11214 20.2095 5.11203 20.1563C5.24702 19.6797 5.61311 19.6424 6.04703 19.6484Z" fill="white"/>
<path d="M5.95805 29.0233C6.0586 29.0226 6.15916 29.0218 6.26276 29.021C6.37403 29.0217 6.48529 29.0225 6.59656 29.0233C6.71387 29.023 6.83117 29.0226 6.94847 29.022C7.26695 29.0209 7.58539 29.0218 7.90386 29.0231C8.23706 29.0242 8.57026 29.0237 8.90345 29.0234C9.46301 29.0232 10.0226 29.0242 10.5821 29.026C11.2292 29.0281 11.8762 29.0282 12.5232 29.0273C13.1455 29.0265 13.7678 29.027 14.3901 29.0281C14.655 29.0285 14.9199 29.0285 15.1848 29.0281C15.4967 29.0278 15.8085 29.0286 16.1205 29.0303C16.235 29.0307 16.3495 29.0307 16.464 29.0303C16.6202 29.0299 16.7764 29.031 16.9326 29.0322C17.0201 29.0324 17.1076 29.0326 17.1977 29.0328C17.4498 29.0662 17.557 29.1166 17.7344 29.2969C17.8026 29.5647 17.8383 29.7572 17.7588 30.0244C17.631 30.1887 17.5377 30.2358 17.3438 30.3125C17.1222 30.3326 17.1222 30.3326 16.861 30.3334C16.7123 30.3344 16.7123 30.3344 16.5606 30.3354C16.4509 30.3353 16.3413 30.3353 16.2316 30.3352C16.116 30.3356 16.0003 30.3362 15.8847 30.3368C15.5707 30.3381 15.2568 30.3385 14.9428 30.3386C14.6807 30.3388 14.4186 30.3393 14.1565 30.3399C13.5382 30.3412 12.9198 30.3415 12.3015 30.3414C11.6636 30.3413 11.0257 30.343 10.3878 30.3455C9.84013 30.3475 9.29242 30.3483 8.7447 30.3482C8.41759 30.3482 8.0905 30.3486 7.76339 30.3503C7.45578 30.3518 7.1482 30.3518 6.84058 30.3507C6.72774 30.3505 6.6149 30.3509 6.50206 30.3518C6.34792 30.353 6.19377 30.3521 6.03964 30.3511C5.95341 30.3512 5.86718 30.3513 5.77834 30.3514C5.49279 30.3034 5.36151 30.2003 5.15629 30C5.10715 29.8437 5.10715 29.8437 5.11234 29.6875C5.11224 29.6359 5.11214 29.5844 5.11203 29.5312C5.23601 29.0935 5.54558 29.0234 5.95805 29.0233Z" fill="white"/>
<path d="M6.05144 24.3347C6.13807 24.3337 6.22471 24.3328 6.31397 24.3317C6.40866 24.3322 6.50335 24.3327 6.60092 24.3333C6.75092 24.3323 6.75092 24.3323 6.90395 24.3312C7.17804 24.3295 7.4521 24.3297 7.7262 24.3304C7.9551 24.3308 8.184 24.3302 8.4129 24.3297C8.95296 24.3283 9.49301 24.3286 10.0331 24.3299C10.59 24.3312 11.1469 24.33 11.7039 24.3275C12.1823 24.3254 12.6606 24.3248 13.139 24.3255C13.4247 24.3259 13.7103 24.3257 13.9959 24.3241C14.3144 24.3224 14.6329 24.3239 14.9514 24.3256C15.046 24.3247 15.1405 24.3238 15.2379 24.3229C15.9491 24.331 15.9491 24.331 16.1924 24.5629C16.3322 24.7717 16.3754 24.8448 16.333 25.0878C16.3223 25.1655 16.3223 25.1655 16.3113 25.2447C16.2264 25.4466 16.1233 25.5107 15.9375 25.6249C15.7403 25.6549 15.7403 25.6549 15.514 25.6558C15.428 25.6566 15.342 25.6575 15.2535 25.6584C15.1595 25.6582 15.0655 25.658 14.9687 25.6578C14.8199 25.6587 14.8199 25.6587 14.668 25.6598C14.396 25.6615 14.124 25.6617 13.852 25.6616C13.6249 25.6616 13.3977 25.6622 13.1706 25.6629C12.6346 25.6644 12.0987 25.6646 11.5628 25.6641C11.0101 25.6636 10.4574 25.6654 9.90473 25.6683C9.42999 25.6707 8.95527 25.6715 8.48054 25.6712C8.19709 25.6711 7.91367 25.6715 7.63022 25.6734C7.31411 25.6755 6.99809 25.6744 6.68198 25.673C6.58817 25.6741 6.49437 25.6751 6.39772 25.6762C5.76592 25.6697 5.76592 25.6697 5.44936 25.444C5.26926 25.1681 5.25956 25.0108 5.31248 24.6874C5.53835 24.3964 5.68762 24.3358 6.05144 24.3347Z" fill="white"/>
<path d="M6.02181 10.2722C6.10187 10.2712 6.18193 10.2703 6.26442 10.2692C6.35181 10.2697 6.4392 10.2702 6.52923 10.2708C6.6678 10.2698 6.6678 10.2698 6.80918 10.2687C7.06229 10.2673 7.31536 10.2672 7.56847 10.2679C7.7799 10.2683 7.99132 10.2677 8.20275 10.2672C8.70161 10.2658 9.20046 10.2661 9.69932 10.2674C10.2137 10.2687 10.728 10.2675 11.2423 10.265C11.6842 10.2629 12.1261 10.2623 12.568 10.263C12.8318 10.2634 13.0956 10.2632 13.3594 10.2616C13.6536 10.2602 13.9477 10.2614 14.2419 10.2631C14.3292 10.2622 14.4164 10.2613 14.5063 10.2604C15.1636 10.2685 15.1636 10.2685 15.4067 10.5004C15.5513 10.7094 15.5946 10.7798 15.5518 11.0253C15.541 11.103 15.541 11.103 15.5301 11.1822C15.4456 11.3832 15.3405 11.448 15.1563 11.5624C14.9713 11.5924 14.9713 11.5924 14.7624 11.5933C14.6433 11.5946 14.6433 11.5946 14.5218 11.5959C14.4352 11.5957 14.3485 11.5955 14.2592 11.5953C14.1218 11.5962 14.1218 11.5962 13.9816 11.5973C13.7306 11.5988 13.4796 11.5992 13.2286 11.5991C13.0189 11.5991 12.8092 11.5997 12.5995 11.6004C12.1048 11.6019 11.6101 11.6021 11.1153 11.6016C10.6052 11.6011 10.0952 11.6029 9.5851 11.6058C9.14686 11.6082 8.70863 11.609 8.27039 11.6087C8.00877 11.6086 7.74718 11.609 7.48557 11.6109C7.19377 11.6126 6.90209 11.6119 6.61029 11.6105C6.5238 11.6116 6.4373 11.6126 6.34818 11.6137C5.76485 11.6072 5.76485 11.6072 5.45388 11.3815C5.26814 11.106 5.25918 10.9509 5.31251 10.6249C5.53119 10.3471 5.67094 10.2733 6.02181 10.2722Z" fill="white"/>
<path d="M6.32986 14.9583C6.46157 14.9573 6.46157 14.9573 6.59595 14.9562C6.88661 14.9545 7.17721 14.955 7.46788 14.9557C7.66968 14.9553 7.87148 14.9548 8.07328 14.9542C8.49643 14.9534 8.91956 14.9538 9.34271 14.9549C9.8315 14.9562 10.3202 14.955 10.809 14.9525C11.2797 14.9501 11.7503 14.95 12.2209 14.9507C12.4209 14.9508 12.621 14.9502 12.8211 14.9491C13.1007 14.9477 13.3802 14.9489 13.6599 14.9506C13.7427 14.9497 13.8256 14.9488 13.9109 14.9479C14.471 14.9551 14.471 14.9551 14.7779 15.1837C14.9218 15.3906 14.9218 15.3906 14.9706 15.6249C14.9022 15.9534 14.8006 16.0488 14.5312 16.2499C14.2438 16.308 13.9606 16.3025 13.6683 16.2993C13.5377 16.3001 13.5377 16.3001 13.4045 16.3009C13.1168 16.3023 12.8291 16.3008 12.5414 16.2991C12.3415 16.2991 12.1416 16.2993 11.9416 16.2997C11.5226 16.2999 11.1036 16.2988 10.6846 16.2966C10.2007 16.2941 9.71676 16.2941 9.2328 16.2954C8.76664 16.2967 8.3005 16.2961 7.83435 16.2948C7.63624 16.2944 7.43813 16.2944 7.24003 16.2949C6.96322 16.2954 6.68649 16.2938 6.40968 16.2916C6.28669 16.2924 6.28669 16.2924 6.16122 16.2932C5.81112 16.2886 5.60488 16.2851 5.30063 16.1009C5.14459 15.9243 5.10452 15.857 5.11223 15.6249C5.11213 15.5734 5.11203 15.5218 5.11192 15.4687C5.28043 14.8737 5.8216 14.9552 6.32986 14.9583Z" fill="white"/>
<path d="M17.4745 14.9507C17.5756 14.9498 17.5756 14.9498 17.6787 14.949C17.9009 14.9477 18.1229 14.9492 18.345 14.9509C18.4996 14.9508 18.6542 14.9506 18.8088 14.9503C19.1325 14.9501 19.4562 14.9512 19.7799 14.9534C20.1949 14.956 20.6098 14.9555 21.0248 14.9541C21.3439 14.9533 21.663 14.954 21.9821 14.9551C22.1351 14.9555 22.2882 14.9555 22.4412 14.955C22.655 14.9546 22.8687 14.9562 23.0824 14.9583C23.1457 14.9578 23.209 14.9573 23.2742 14.9568C23.5566 14.9616 23.7175 14.9751 23.9452 15.1491C24.0715 15.3251 24.1069 15.4106 24.1064 15.625C24.1082 15.6765 24.1099 15.7281 24.1116 15.7812C24.0326 16.0327 23.8917 16.11 23.6719 16.25C23.439 16.2806 23.2352 16.2936 23.0026 16.2917C22.9361 16.2923 22.8697 16.293 22.8012 16.2937C22.5819 16.2955 22.3628 16.2949 22.1436 16.2942C21.9909 16.2946 21.8383 16.2951 21.6856 16.2957C21.3659 16.2965 21.0462 16.2962 20.7265 16.295C20.317 16.2937 19.9075 16.2955 19.4979 16.2983C19.1827 16.3 18.8676 16.2999 18.5525 16.2992C18.4015 16.2992 18.2505 16.2997 18.0995 16.3008C17.8883 16.3022 17.6773 16.3011 17.4661 16.2993C17.4039 16.3002 17.3416 16.3011 17.2774 16.3021C16.9616 16.2967 16.8142 16.2636 16.5628 16.0662C16.4062 15.8594 16.4062 15.8594 16.3574 15.625C16.4868 15.0037 16.9328 14.9428 17.4745 14.9507Z" fill="white"/>
</g>
<defs>
<clipPath id="clip0_2397_1022">
<rect width="40" height="40" fill="white"/>
</clipPath>
</defs>
</svg>
