<svg width="40" height="40" viewBox="0 0 40 40" fill="none" xmlns="http://www.w3.org/2000/svg">
<g clip-path="url(#clip0_2397_1272)">
<path d="M14.2969 0.0468369C10.2812 0.539024 7.25 1.96871 4.60937 4.60934C2.23437 6.98434 0.773437 9.8359 0.179687 13.2421C-0.00781249 14.3281 -0.00781249 16.9218 0.179687 18.0078C0.773437 21.414 2.23437 24.2656 4.60937 26.6406C6.98437 29.0156 9.83594 30.4765 13.2422 31.0703C14.3281 31.2578 16.9219 31.2578 18.0078 31.0703C20.1562 30.6953 22.1484 29.9609 23.7344 28.9609L24.2344 28.6484L29.6328 34.0468C35.4609 39.8593 35.3281 39.7421 36.3594 39.9296C38.4297 40.3125 40.3125 38.4296 39.9297 36.3593C39.7422 35.3281 39.8594 35.4609 34.0469 29.6328L28.6484 24.2343L28.9609 23.7343C29.9609 22.1484 30.6953 20.1562 31.0703 18.0078C31.2578 16.9218 31.2578 14.3281 31.0703 13.2421C30.4766 9.8359 29.0156 6.98434 26.6406 4.60934C24.2812 2.24215 21.375 0.749962 18.0469 0.195274C17.3359 0.0702744 14.8672 -0.0234756 14.2969 0.0468369ZM17.6641 1.71871C23.3047 2.57027 27.8906 6.72652 29.25 12.2265C29.5156 13.3046 29.6016 13.9765 29.6562 15.2187C29.8281 19.25 28.0469 23.3906 24.9609 26.1093C21.4297 29.2265 16.7812 30.375 12.2266 29.25C9.73437 28.6328 7.53906 27.3828 5.70312 25.5468C3.53906 23.3828 2.20312 20.7265 1.71094 17.6171C1.58594 16.8125 1.58594 14.4375 1.71094 13.6328C2.20312 10.5234 3.53906 7.86715 5.70312 5.70309C8.10937 3.29684 10.9844 1.96871 14.5703 1.60934C15.0859 1.55465 17.0391 1.62496 17.6641 1.71871ZM28.8594 26.6328L29.9453 27.7265L29.4062 28.2968C29.1094 28.6171 28.6094 29.1171 28.2969 29.414L27.7266 29.9531L26.625 28.8515L25.5312 27.75L26.6094 26.6562C27.2109 26.0546 27.7109 25.5546 27.7344 25.5546C27.7578 25.5468 28.2656 26.039 28.8594 26.6328ZM38.1875 36.0468C38.3672 36.3046 38.3984 36.4375 38.3984 36.875C38.3984 37.2968 38.3594 37.4453 38.2031 37.6796C37.7891 38.289 37.1094 38.5468 36.4062 38.3593C36.0859 38.2734 35.7031 37.914 32.4453 34.6718L28.8437 31.0781L29.9453 29.9609L31.0547 28.8437L34.5156 32.2968C36.4141 34.1875 38.0703 35.8828 38.1875 36.0468Z" fill="white"/>
<path d="M14.3282 3.20326C11.5079 3.50013 8.82824 4.78138 6.8048 6.80482C3.43762 10.172 2.28137 15.1095 3.8048 19.6095C4.4298 21.4611 5.4298 23.0626 6.8048 24.4454C10.172 27.8126 15.1095 28.9689 19.6095 27.4454C21.4611 26.8204 23.0626 25.8204 24.4454 24.4454C27.8126 21.0783 28.9689 16.1408 27.4454 11.6408C26.1954 7.93763 23.3126 5.05482 19.6095 3.80482C17.8907 3.21888 16.0939 3.01576 14.3282 3.20326ZM17.0626 4.80482C19.4767 5.12513 21.5704 6.16419 23.3282 7.92201C27.6251 12.2189 27.6251 19.0314 23.3282 23.3283C19.0314 27.6251 12.2189 27.6251 7.92199 23.3283C3.62512 19.0314 3.62512 12.2189 7.92199 7.92201C10.3829 5.46888 13.6564 4.35169 17.0626 4.80482Z" fill="white"/>
<path d="M15.3438 6.32039C15.0938 6.42976 14.8438 6.78914 14.8438 7.03914C14.8438 7.33601 15.1875 7.71882 15.4922 7.7657C15.6328 7.78914 16.0859 7.84382 16.5 7.88289C18.7734 8.13289 20.8047 9.38289 22.1641 11.3673C22.2578 11.5001 22.4844 11.9219 22.6797 12.3048C22.875 12.6954 23.1016 13.0704 23.1797 13.1329C23.5469 13.4532 24.1484 13.3204 24.3359 12.8673C24.4688 12.5391 24.3984 12.2344 24 11.4454C22.5078 8.46882 19.4688 6.4532 16.2109 6.28914C15.8281 6.2657 15.4297 6.28132 15.3438 6.32039Z" fill="white"/>
<path d="M23.9375 14.9218C23.6875 15.0234 23.4375 15.3828 23.4375 15.6328C23.4375 15.9453 23.7969 16.3203 24.1484 16.375C24.3906 16.414 24.4766 16.3828 24.6953 16.1875C24.9141 15.9922 24.9609 15.8984 24.9609 15.625C24.9609 15.3515 24.9141 15.2578 24.7031 15.0703C24.4453 14.8437 24.2344 14.7968 23.9375 14.9218Z" fill="white"/>
</g>
<defs>
<clipPath id="clip0_2397_1272">
<rect width="40" height="40" fill="white"/>
</clipPath>
</defs>
</svg>
