<svg width="40" height="40" viewBox="0 0 40 40" fill="none" xmlns="http://www.w3.org/2000/svg">
<path d="M25.2066 0.917917C25.9585 1.31694 26.4783 1.92295 26.7559 2.73463C26.7968 2.89057 26.7968 2.89057 26.8231 3.06361C26.8935 3.52107 27.047 3.73944 27.3935 4.04566C27.6048 4.24369 27.7892 4.4573 27.9784 4.67625C28.217 4.94882 28.4666 5.21077 28.7158 5.47358C28.8263 5.59055 28.9368 5.70753 29.0472 5.82453C29.1297 5.91181 29.1297 5.91181 29.2138 6.00085C29.4102 6.20922 29.606 6.41822 29.8013 6.62766C29.8911 6.72384 29.9812 6.81978 30.0715 6.91548C30.2976 7.1558 30.5173 7.39904 30.7296 7.65162C31.183 8.18251 31.4845 8.519 32.2039 8.6291C32.7882 8.74367 33.2692 9.20557 33.5937 9.68745C33.9908 10.3581 34.0659 11.0855 33.8916 11.8408C33.7841 12.1633 33.6187 12.448 33.4375 12.7343C33.4904 12.7656 33.5434 12.797 33.598 12.8292C34.8219 13.5768 35.7926 14.5714 36.1694 15.9875C36.4962 17.4822 36.2929 18.8618 35.4687 20.1562C35.0627 20.6966 34.3126 21.6383 33.5983 21.7404C33.3448 21.752 33.1592 21.7371 32.9345 21.6162C32.7818 21.4512 32.7357 21.315 32.7309 21.0906C32.7337 21.0296 32.7365 20.9687 32.7394 20.9058C32.7547 20.5171 32.7626 20.1288 32.768 19.7398C32.7716 19.5723 32.7774 19.4049 32.7855 19.2377C32.8636 18.3143 32.8636 18.3143 32.5201 17.5005C32.1578 17.213 31.7593 17.0353 31.3281 16.8749C31.2472 16.9214 31.1663 16.9678 31.083 17.0157C31.0106 17.0572 31.0106 17.0572 30.9368 17.0996C30.8366 17.1571 30.7365 17.2147 30.6363 17.2722C30.401 17.407 30.1651 17.5365 29.9218 17.6562C29.9216 17.7015 29.9213 17.7468 29.921 17.7935C29.9177 18.265 29.9123 18.7364 29.9056 19.2078C29.9034 19.3838 29.9018 19.5597 29.9007 19.7357C29.899 19.9886 29.8954 20.2414 29.8913 20.4943C29.8912 20.573 29.8911 20.6517 29.891 20.7328C29.8796 21.2782 29.8796 21.2782 29.6976 21.5312C29.4659 21.6835 29.3432 21.724 29.0625 21.7187C27.9724 21.3191 27.2593 20.3129 26.7672 19.3121C26.6889 19.1265 26.6225 18.9421 26.5625 18.7499C26.5363 18.6734 26.5363 18.6734 26.5097 18.5952C26.1497 17.3292 26.4301 15.924 27.03 14.7885C27.2719 14.3933 27.5587 14.0713 27.8906 13.7499C27.9488 13.6928 28.007 13.6357 28.067 13.5769C28.4442 13.224 28.8336 12.9621 29.2968 12.7343C29.2372 12.6505 29.1776 12.5667 29.1162 12.4804C28.9376 12.2033 28.8799 11.9844 28.833 11.6601C28.6921 11.0211 28.2125 10.7246 27.7186 10.3451C27.5138 10.1836 27.3244 10.007 27.1338 9.82905C26.8624 9.57984 26.586 9.3421 26.2988 9.11128C25.9704 8.84652 25.6592 8.56928 25.3515 8.2812C24.8167 7.78064 24.2607 7.31152 23.6718 6.87495C23.6085 6.92883 23.5452 6.98271 23.4799 7.03822C23.0647 7.39074 22.649 7.74208 22.2265 8.08589C21.7391 8.4829 21.2602 8.88971 20.7812 9.29682C20.6088 9.4434 20.4362 9.58987 20.2636 9.73628C20.222 9.77166 20.1804 9.80705 20.1376 9.84351C19.9318 10.018 19.7246 10.1901 19.5135 10.3582C19.3966 10.4516 19.3966 10.4516 19.2773 10.5468C19.2076 10.6016 19.1379 10.6564 19.0661 10.7128C18.8873 10.8528 18.8873 10.8528 18.8281 11.0937C18.8697 11.2666 18.8697 11.2666 18.9404 11.4453C19.0215 11.6635 19.0625 11.7952 19.0625 12.0312C19.1107 12.0445 19.1589 12.0578 19.2086 12.0715C20.445 12.4253 20.445 12.4253 20.7031 12.8124C20.7203 13.0467 20.7287 13.2735 20.7293 13.5079C20.7299 13.5762 20.7304 13.6445 20.7309 13.7149C20.7317 13.8593 20.7321 14.0037 20.732 14.1481C20.7324 14.369 20.7352 14.5897 20.7382 14.8106C20.7386 14.9509 20.739 15.0912 20.7391 15.2316C20.7402 15.2976 20.7413 15.3636 20.7425 15.4316C20.739 15.8877 20.739 15.8877 20.5626 16.1322C20.3656 16.2671 20.1721 16.3213 19.9423 16.3806C19.4295 16.5161 19.4295 16.5161 19.0405 16.8547C18.8861 17.1636 18.7968 17.4875 18.7153 17.8219C18.6718 17.9687 18.6718 17.9687 18.5391 18.2177C18.4195 18.4764 18.4253 18.5623 18.5156 18.8281C18.6126 19.0644 18.7176 19.296 18.8235 19.5285C18.9191 19.8024 18.9605 19.9473 18.9062 20.2343C18.7488 20.4669 18.5565 20.6603 18.3593 20.8593C18.2994 20.9212 18.2394 20.9832 18.1776 21.047C17.9842 21.2449 17.7888 21.4405 17.5927 21.6357C17.5257 21.703 17.4587 21.7703 17.3896 21.8397C17.3256 21.9036 17.2616 21.9675 17.1957 22.0333C17.1378 22.0911 17.0799 22.1489 17.0203 22.2085C16.8213 22.3937 16.744 22.4198 16.4679 22.4417C16.1382 22.4196 15.9452 22.335 15.6543 22.1826C15.3256 22.0016 15.3256 22.0016 14.9636 21.9634C14.7105 22.05 14.4681 22.1521 14.2236 22.2607C13.887 22.4098 13.5543 22.5452 13.2031 22.6562C13.3103 23.3219 13.4708 23.9664 13.648 24.6166C13.6759 24.7199 13.7037 24.8232 13.7314 24.9266C13.8186 25.2506 13.9063 25.5745 13.9941 25.8984C14.0964 26.2762 14.1986 26.6542 14.3002 27.0322C14.3408 27.1828 14.3818 27.3334 14.4228 27.4839C14.4473 27.5749 14.4718 27.666 14.4971 27.7598C14.5188 27.84 14.5405 27.9201 14.5629 28.0027C14.6093 28.2031 14.6093 28.2031 14.6093 28.4374C14.6641 28.4338 14.7189 28.4302 14.7754 28.4265C15.2887 28.4069 15.6751 28.4358 16.0937 28.7499C16.3685 29.0138 16.5479 29.2676 16.7187 29.6093C16.7187 29.9187 16.7187 30.2281 16.7187 30.5468C17.5953 30.5468 18.4718 30.5468 19.375 30.5468C19.3722 30.1115 19.3695 29.6761 19.3667 29.2275C19.3655 28.9516 19.3644 28.6757 19.3635 28.3998C19.3621 27.9619 19.3605 27.524 19.3573 27.0861C19.3547 26.733 19.3533 26.3799 19.3527 26.0269C19.3523 25.8922 19.3515 25.7576 19.3502 25.6229C19.3485 25.4342 19.3482 25.2455 19.3484 25.0568C19.3475 25.0012 19.3467 24.9457 19.3458 24.8884C19.3479 24.5482 19.389 24.3259 19.6093 24.0624C19.938 23.8651 20.2894 23.8836 20.662 23.8847C20.7606 23.8841 20.7606 23.8841 20.8612 23.8835C21.0779 23.8824 21.2945 23.8825 21.5112 23.8827C21.6621 23.8824 21.813 23.8821 21.9639 23.8817C22.2799 23.8811 22.5959 23.8811 22.9119 23.8815C23.3168 23.882 23.7216 23.8807 24.1264 23.8789C24.4379 23.8777 24.7494 23.8776 25.0609 23.8779C25.2102 23.8778 25.3595 23.8774 25.5087 23.8766C25.7174 23.8757 25.9261 23.8762 26.1348 23.8771C26.1963 23.8765 26.2578 23.8759 26.3212 23.8753C26.676 23.8787 26.9071 23.9179 27.1875 24.1406C27.3781 24.4265 27.3647 24.6377 27.3615 24.9681C27.3615 25.0283 27.3615 25.0886 27.3615 25.1506C27.3614 25.3497 27.3602 25.5488 27.359 25.7479C27.3587 25.886 27.3585 26.024 27.3583 26.1621C27.3577 26.5254 27.3562 26.8887 27.3544 27.2521C27.3528 27.6228 27.3521 27.9936 27.3513 28.3644C27.3497 29.0919 27.3469 29.8193 27.3437 30.5468C27.782 30.5468 28.2203 30.5468 28.6718 30.5468C28.6706 30.3643 28.6694 30.1817 28.6681 29.9936C28.6642 29.3903 28.6616 28.7869 28.6597 28.1835C28.6585 27.8177 28.6568 27.4519 28.6542 27.0861C28.6516 26.733 28.6502 26.3799 28.6496 26.0269C28.6492 25.8922 28.6483 25.7576 28.6471 25.6229C28.6454 25.4342 28.6451 25.2455 28.6452 25.0568C28.644 24.9734 28.644 24.9734 28.6427 24.8884C28.6448 24.5482 28.6859 24.3259 28.9062 24.0624C29.2349 23.8651 29.5863 23.8836 29.9589 23.8847C30.0575 23.8841 30.0575 23.8841 30.1581 23.8835C30.3748 23.8824 30.5914 23.8825 30.8081 23.8827C30.959 23.8824 31.1099 23.8821 31.2608 23.8817C31.5768 23.8811 31.8928 23.8811 32.2088 23.8815C32.6136 23.882 33.0184 23.8807 33.4233 23.8789C33.7348 23.8777 34.0463 23.8776 34.3578 23.8779C34.5071 23.8778 34.6563 23.8774 34.8056 23.8766C35.0143 23.8757 35.2229 23.8762 35.4316 23.8771C35.4932 23.8765 35.5547 23.8759 35.6181 23.8753C35.9729 23.8787 36.204 23.9179 36.4843 24.1406C36.6782 24.4313 36.6615 24.6534 36.6583 24.9896C36.6584 25.0521 36.6584 25.1147 36.6584 25.1791C36.6583 25.3858 36.6571 25.5925 36.6559 25.7992C36.6556 25.9425 36.6553 26.0858 36.6552 26.2291C36.6546 26.6063 36.653 26.9835 36.6513 27.3607C36.6497 27.7456 36.649 28.1305 36.6482 28.5154C36.6465 29.2707 36.6439 30.0259 36.6406 30.7812C36.6999 30.813 36.7592 30.8448 36.8203 30.8776C36.9368 30.9405 36.9368 30.9405 37.0556 31.0046C37.1711 31.0669 37.1711 31.0669 37.289 31.1303C38.3065 31.7072 38.9297 32.6872 39.3054 33.764C39.5719 34.9074 39.4457 36.166 38.8504 37.1816C38.72 37.3742 38.5849 37.5547 38.4375 37.7343C38.3772 37.8114 38.317 37.8884 38.255 37.9678C37.6431 38.6969 36.7069 39.1411 35.7812 39.2968C35.6019 39.304 35.4225 39.307 35.2431 39.3073C35.1896 39.3075 35.1362 39.3077 35.0811 39.3079C34.9017 39.3084 34.7223 39.3084 34.5428 39.3083C34.413 39.3086 34.2832 39.3089 34.1534 39.3092C33.7964 39.31 33.4394 39.3103 33.0824 39.3105C32.6974 39.3108 32.3125 39.3115 31.9276 39.3122C30.9977 39.3137 30.0679 39.3145 29.1381 39.3152C28.7001 39.3156 28.2622 39.316 27.8242 39.3164C26.3682 39.3177 24.9121 39.3189 23.456 39.3194C23.0782 39.3196 22.7004 39.3197 22.3226 39.3199C22.2287 39.3199 22.1348 39.32 22.038 39.32C20.5171 39.3206 18.9961 39.3226 17.4752 39.3252C15.9134 39.3277 14.3516 39.3292 12.7897 39.3294C11.913 39.3296 11.0362 39.3303 10.1594 39.3323C9.41265 39.3339 8.6659 39.3346 7.91913 39.3338C7.53831 39.3335 7.15751 39.3336 6.77669 39.3351C6.42757 39.3365 6.07847 39.3364 5.72935 39.3352C5.60354 39.335 5.47772 39.3354 5.35191 39.3363C3.92961 39.3462 2.75086 38.9715 1.71872 37.9687C0.767725 36.859 0.513215 35.6812 0.605587 34.2536C0.646973 33.8454 0.759847 33.4925 0.937466 33.1249C0.964859 33.064 0.992251 33.0031 1.02047 32.9403C1.45976 32.0572 2.28753 31.2389 3.20309 30.8593C3.25465 30.8593 3.30622 30.8593 3.35934 30.8593C3.35662 30.7933 3.3539 30.7272 3.3511 30.6591C3.33527 29.9956 3.36141 29.5003 3.77926 28.9599C4.09414 28.6375 4.39137 28.4454 4.84585 28.4332C5.0014 28.4326 5.15694 28.4349 5.31247 28.4374C5.27379 28.3214 5.27379 28.3214 5.23434 28.2031C5.21855 28.0376 5.20664 27.8718 5.19679 27.7059C5.19053 27.6031 5.18429 27.5004 5.17785 27.3945C5.17134 27.282 5.16484 27.1696 5.15835 27.0571C5.15148 26.9416 5.14458 26.8261 5.13767 26.7106C5.12322 26.4682 5.109 26.2258 5.09493 25.9834C5.07698 25.674 5.05858 25.3647 5.04003 25.0553C5.02574 24.8165 5.01164 24.5777 4.99761 24.3389C4.99089 24.2249 4.98413 24.111 4.97733 23.997C4.94452 23.4456 4.91231 22.8963 4.92184 22.3437C4.87896 22.3259 4.83608 22.3082 4.79189 22.2899C4.41645 22.0792 4.12639 21.7398 3.82235 21.438C3.69692 21.3141 3.56992 21.1919 3.44281 21.0697C3.36249 20.9904 3.28228 20.9111 3.20218 20.8316C3.12929 20.7601 3.05641 20.6887 2.98132 20.6151C2.77991 20.3473 2.74251 20.1764 2.73434 19.8437C2.78435 19.6783 2.78435 19.6783 2.86557 19.541C3.19004 18.977 3.19004 18.977 3.25756 18.3501C3.15267 18.0358 2.98993 17.7601 2.81117 17.4826C2.72658 17.3297 2.68562 17.1836 2.63852 17.0156C2.57056 16.8241 2.52984 16.7393 2.36115 16.623C2.18824 16.5461 2.016 16.4838 1.8359 16.4257C1.71597 16.3847 1.59633 16.3428 1.47702 16.3C1.42409 16.2827 1.37117 16.2654 1.31665 16.2476C1.11494 16.1421 1.04426 16.0629 0.937466 15.8593C0.91363 15.6251 0.902753 15.4075 0.903591 15.1733C0.903182 15.1068 0.902771 15.0404 0.902349 14.9719C0.901848 14.8317 0.901953 14.6914 0.902619 14.5512C0.903284 14.3366 0.901035 14.1222 0.898556 13.9077C0.89843 13.7713 0.898475 13.6349 0.898709 13.4985C0.897831 13.4344 0.896952 13.3704 0.896048 13.3044C0.901465 12.8611 0.901466 12.8611 1.07855 12.6216C1.31725 12.4522 1.57354 12.3482 1.84567 12.246C1.92543 12.2146 1.92543 12.2146 2.0068 12.1826C2.39758 12.0312 2.39758 12.0312 2.57809 12.0312C2.59582 11.9474 2.61354 11.8636 2.6318 11.7773C2.72474 11.3988 2.8787 11.0526 3.03738 10.6976C3.1776 10.3312 3.24398 10.1112 3.10543 9.73414C3.01437 9.55018 2.92322 9.36626 2.832 9.18238C2.71397 8.84858 2.70562 8.69731 2.81247 8.35932C2.97321 8.12913 3.16232 7.93372 3.35934 7.73432C3.41356 7.67775 3.46778 7.62118 3.52364 7.56289C3.69338 7.38712 3.86535 7.21382 4.03805 7.04096C4.12544 6.95214 4.12544 6.95214 4.2146 6.86152C4.29927 6.77662 4.29927 6.77662 4.38565 6.69001C4.46143 6.61374 4.46143 6.61374 4.53875 6.53594C4.77381 6.33087 4.92487 6.24842 5.23922 6.25483C5.58324 6.31328 5.87863 6.48104 6.18405 6.64363C6.66537 6.80627 7.10645 6.5968 7.54879 6.4062C7.86727 6.27062 8.17114 6.14649 8.51559 6.0937C8.52888 6.04546 8.54218 5.99722 8.55587 5.94752C8.90737 4.71914 8.90737 4.71914 9.18274 4.52416C9.46473 4.41988 9.7442 4.42609 10.0412 4.42408C10.1057 4.42338 10.1702 4.42267 10.2367 4.42194C10.373 4.42081 10.5092 4.42012 10.6455 4.41983C10.8535 4.4189 11.0614 4.41505 11.2693 4.41111C11.4019 4.41037 11.5345 4.40981 11.6671 4.40943C11.7291 4.40791 11.791 4.40638 11.8548 4.40481C12.1824 4.40747 12.3075 4.42475 12.5744 4.63339C12.7957 4.92441 12.8892 5.24148 12.98 5.59062C13.0656 5.84856 13.1532 5.98043 13.3778 6.13877C13.7036 6.29257 13.9394 6.36434 14.2913 6.26061C14.5426 6.13301 14.7742 5.98971 15.0097 5.83491C15.0987 5.77955 15.188 5.7245 15.2773 5.66973C15.4614 5.55638 15.6444 5.44151 15.8267 5.32523C16.1494 5.1199 16.4778 4.92456 16.8065 4.7292C17.0452 4.58728 17.283 4.44401 17.5207 4.30049C17.9112 4.06526 18.3028 3.83204 18.695 3.5998C18.7506 3.56688 18.8062 3.53396 18.8635 3.50004C19.084 3.36943 19.3046 3.23885 19.5253 3.10854C19.8667 2.90704 20.2073 2.70445 20.5468 2.49995C20.6306 2.4495 20.7144 2.39905 20.8007 2.34707C20.8767 2.30014 20.9528 2.2532 21.0312 2.20484C21.0967 2.16457 21.1622 2.12429 21.2297 2.08279C21.4242 1.93984 21.563 1.78435 21.7138 1.59663C22.5246 0.612656 24.0732 0.424115 25.2066 0.917917ZM22.5781 2.6562C22.293 3.08051 22.1792 3.47562 22.2656 3.98432C22.4391 4.54604 22.8106 4.89113 23.3056 5.1855C23.8219 5.30556 24.3137 5.29958 24.7796 5.02986C25.2253 4.69126 25.4604 4.26265 25.5423 3.71211C25.5547 3.17952 25.3288 2.75721 24.9673 2.37818C24.5662 2.01274 24.1822 1.99405 23.6593 2.00892C23.1761 2.05744 22.8843 2.29354 22.5781 2.6562ZM20.4074 4.12135C20.2908 4.19173 20.2908 4.19173 20.1719 4.26354C20.0878 4.31481 20.0036 4.36607 19.917 4.41889C19.7856 4.49836 19.6542 4.57783 19.5228 4.65727C19.3851 4.7406 19.2474 4.82407 19.1098 4.90756C18.6507 5.18577 18.1899 5.46132 17.7295 5.73725C17.5641 5.83642 17.3988 5.93561 17.2335 6.0348C17.114 6.10652 16.9945 6.17823 16.875 6.24995C16.9968 6.54856 17.1836 6.72516 17.417 6.94422C17.4941 7.01827 17.5712 7.09238 17.6483 7.16654C17.7691 7.28203 17.8902 7.39704 18.0124 7.51099C18.4945 7.96197 18.8498 8.29946 18.9062 8.98432C19.124 8.8836 19.2961 8.77446 19.4754 8.61537C19.5228 8.57366 19.5703 8.53195 19.6191 8.48899C19.6691 8.44459 19.719 8.40019 19.7705 8.35444C19.8761 8.26168 19.9818 8.16901 20.0876 8.07643C20.1393 8.03112 20.1911 7.98581 20.2444 7.93913C20.4365 7.77263 20.6326 7.61134 20.83 7.45112C21.1577 7.18511 21.4833 6.91675 21.8066 6.64546C21.8511 6.60848 21.8956 6.57151 21.9414 6.53342C22.1761 6.3416 22.1761 6.3416 22.3437 6.0937C22.304 6.06802 22.2644 6.04234 22.2235 6.01588C21.4403 5.4747 21.1746 4.80886 20.9375 3.9062C20.7148 3.9062 20.5974 4.00595 20.4074 4.12135ZM26.4062 5.07807C26.3659 5.14414 26.3257 5.2102 26.2841 5.27827C26.0021 5.71422 25.5692 6.02293 25.1562 6.32807C25.5464 6.68605 25.9396 7.03654 26.3525 7.36811C26.6823 7.63465 26.9953 7.91347 27.3047 8.20307C27.7448 8.61508 28.2011 8.99801 28.6718 9.37495C28.8287 9.50445 28.9847 9.63494 29.1406 9.76557C29.3732 9.52391 29.3732 9.52391 29.4531 9.2187C29.4998 9.19775 29.5465 9.1768 29.5947 9.15522C29.7643 9.06316 29.8678 8.96631 30 8.82807C29.9556 8.78457 29.9111 8.74106 29.8654 8.69624C29.8051 8.63662 29.7447 8.577 29.6826 8.51557C29.6237 8.45757 29.5648 8.39956 29.5041 8.33979C29.293 8.12096 29.0944 7.89437 28.8952 7.66482C28.6549 7.39198 28.4045 7.12891 28.1543 6.86518C27.8331 6.52576 27.5123 6.1862 27.1957 5.84254C27.1489 5.79174 27.1021 5.74095 27.0538 5.68862C26.9653 5.59241 26.877 5.49606 26.7889 5.39954C26.6889 5.29095 26.5868 5.18428 26.4843 5.07807C26.4586 5.07807 26.4328 5.07807 26.4062 5.07807ZM9.99997 5.7812C9.85557 6.15604 9.85557 6.15604 9.71255 6.53142C9.51102 7.04482 9.51102 7.04482 9.29684 7.18745C9.09368 7.26592 8.89356 7.33616 8.68649 7.40229C8.22563 7.55466 7.80396 7.73186 7.3779 7.96382C6.7681 8.27669 6.7681 8.27669 6.41293 8.18751C6.35915 8.16686 6.30537 8.14622 6.24997 8.12495C6.1688 8.09383 6.08762 8.06271 6.00399 8.03065C5.77151 7.93662 5.54174 7.83593 5.31247 7.73432C4.95153 8.09526 4.59059 8.4562 4.21872 8.82807C4.28156 8.98437 4.3444 9.14067 4.40915 9.30171C4.75941 10.1729 4.75941 10.1729 4.63225 10.5576C4.54803 10.7452 4.45617 10.9265 4.36032 11.1083C4.10709 11.612 3.88999 12.0951 3.73074 12.6367C3.65923 12.8501 3.58841 13.0085 3.38311 13.1165C3.33156 13.1349 3.28001 13.1533 3.22689 13.1723C3.17653 13.1907 3.12616 13.2091 3.07427 13.2282C3.01043 13.2505 2.9466 13.2728 2.88083 13.2958C2.6778 13.3684 2.47477 13.4409 2.26559 13.5156C2.26559 14.057 2.26559 14.5984 2.26559 15.1562C2.64044 15.3006 2.64044 15.3006 3.01581 15.4436C3.52678 15.6442 3.52678 15.6442 3.67184 15.8593C3.7351 16.0296 3.79108 16.2027 3.84274 16.3769C4.007 16.9127 4.22793 17.4042 4.49191 17.8984C4.67818 18.2658 4.71935 18.4936 4.60934 18.9062C4.51219 19.1333 4.40088 19.3477 4.28616 19.5663C4.20114 19.7568 4.20114 19.7568 4.25991 19.9194C4.41949 20.1395 4.59624 20.3375 4.78512 20.5322C4.83966 20.5925 4.83966 20.5925 4.89529 20.6541C5.01781 20.7863 5.01781 20.7863 5.23434 20.9374C5.60789 20.9318 5.89008 20.7808 6.21548 20.6124C6.58817 20.4842 6.90401 20.5093 7.25857 20.6698C7.36717 20.7239 7.47529 20.779 7.58297 20.8349C8.10002 21.0929 8.60686 21.2966 9.15951 21.4685C9.49562 21.6151 9.57499 21.7936 9.71493 22.1249C9.74776 22.2148 9.78059 22.3048 9.81442 22.3974C9.9076 22.7055 9.9076 22.7055 10.0781 22.9687C10.1944 22.9755 10.311 22.9771 10.4275 22.9763C10.4978 22.9761 10.568 22.9758 10.6404 22.9756C10.7142 22.9749 10.7881 22.9743 10.8642 22.9736C10.9384 22.9732 11.0126 22.9729 11.089 22.9725C11.2729 22.9716 11.4567 22.9703 11.6406 22.9687C11.6916 22.829 11.6916 22.829 11.7437 22.6864C11.7907 22.564 11.8377 22.4416 11.8847 22.3193C11.9069 22.2579 11.929 22.1965 11.9519 22.1333C12.0691 21.8337 12.1357 21.6753 12.4084 21.4923C12.4902 21.4639 12.572 21.4355 12.6562 21.4062C12.7394 21.3759 12.8226 21.3456 12.9083 21.3143C13.0397 21.2704 13.0397 21.2704 13.1738 21.2255C13.5512 21.095 13.8965 20.9459 14.248 20.7568C14.6473 20.5532 14.8676 20.4691 15.3125 20.5468C15.5394 20.642 15.7576 20.7449 15.9753 20.8596C16.2006 20.9488 16.2617 20.9383 16.4843 20.8593C16.6587 20.7138 16.8174 20.5697 16.9775 20.4101C17.0215 20.369 17.0654 20.3279 17.1107 20.2856C17.2535 20.1497 17.2535 20.1497 17.4218 19.9218C17.4199 19.5901 17.2474 19.319 17.0968 19.0292C16.9273 18.5097 17.0301 18.1381 17.2653 17.6678C17.2976 17.606 17.3299 17.5441 17.3632 17.4804C17.5807 17.0509 17.7664 16.6506 17.8857 16.1816C17.9636 15.9254 18.0074 15.8121 18.2196 15.646C18.4199 15.5435 18.616 15.4655 18.8281 15.3906C19.0086 15.3132 19.189 15.2359 19.375 15.1562C19.375 14.6148 19.375 14.0734 19.375 13.5156C19.1848 13.4382 18.9947 13.3609 18.7988 13.2812C18.739 13.2567 18.6793 13.2323 18.6177 13.207C18.3412 13.088 18.3412 13.088 18.0468 13.0468C18.0345 13.0022 18.0221 12.9576 18.0093 12.9116C17.8073 12.2098 17.5869 11.5035 17.2021 10.8789C17.0012 10.5281 16.9458 10.2416 17.0312 9.8437C17.1273 9.61434 17.2326 9.39642 17.3517 9.17811C17.4388 8.99335 17.4388 8.99335 17.3852 8.83326C17.2078 8.59381 17.0007 8.39071 16.7871 8.18354C16.7211 8.11859 16.7211 8.11859 16.6537 8.05232C16.5455 7.94596 16.4369 7.84009 16.3281 7.73432C16.2498 7.76907 16.1716 7.80381 16.091 7.83961C15.9861 7.88434 15.8812 7.92899 15.7763 7.97358C15.725 7.99659 15.6737 8.0196 15.6208 8.04331C15.2536 8.1971 15.0061 8.22789 14.6093 8.12495C14.3634 8.01417 14.3634 8.01417 14.1113 7.87593C13.8023 7.70695 13.5117 7.56922 13.1686 7.48438C12.3024 7.26368 12.3024 7.26368 12.0757 6.95918C11.8692 6.57545 11.7682 6.20641 11.6406 5.7812C11.0992 5.7812 10.5578 5.7812 9.99997 5.7812ZM30.2881 10.3564C30.0637 10.6804 30.0463 10.9407 30.0781 11.3281C30.2195 11.74 30.4089 12.0269 30.7812 12.2656C31.099 12.3715 31.3865 12.3852 31.7187 12.3437C31.9805 12.217 31.9805 12.217 32.1875 12.0312C32.2455 11.9893 32.3035 11.9474 32.3632 11.9042C32.58 11.6101 32.6383 11.2993 32.6562 10.9374C32.5296 10.483 32.2945 10.1579 31.8863 9.91297C31.255 9.65197 30.7239 9.87342 30.2881 10.3564ZM28.6343 14.8495C27.9261 15.7471 27.6244 16.7503 27.7343 17.8906C27.8396 18.4961 28.129 19.006 28.4375 19.5312C28.4632 19.5312 28.489 19.5312 28.5156 19.5312C28.5167 19.4599 28.5179 19.3886 28.519 19.3151C28.5238 19.0493 28.5296 18.7836 28.5361 18.5179C28.5387 18.4031 28.5409 18.2883 28.5427 18.1735C28.5453 18.0081 28.5494 17.8427 28.5537 17.6773C28.5558 17.5778 28.5578 17.4784 28.5599 17.376C28.5966 17.0863 28.6458 16.9452 28.8281 16.7187C29.0303 16.5764 29.0303 16.5764 29.27 16.4468C29.3563 16.3994 29.4426 16.352 29.5315 16.3032C29.6217 16.255 29.7118 16.2068 29.8047 16.1572C29.9829 16.0601 30.1611 15.9629 30.3393 15.8657C30.4184 15.8232 30.4975 15.7807 30.579 15.7369C30.7902 15.6236 30.7902 15.6236 31.0156 15.4687C31.447 15.4256 31.6974 15.5073 32.0691 15.7223C32.1145 15.7481 32.16 15.774 32.2069 15.8006C32.3508 15.8825 32.4938 15.9661 32.6367 16.0498C32.7809 16.1328 32.9253 16.2155 33.0698 16.2981C33.2003 16.3729 33.3303 16.4485 33.4603 16.5241C33.6697 16.6477 33.6697 16.6477 33.9062 16.7187C34.0018 17.0054 34.0024 17.2752 34.0091 17.5741C34.0107 17.6345 34.0123 17.6948 34.014 17.757C34.0191 17.9496 34.0237 18.1423 34.0283 18.3349C34.0317 18.4656 34.0351 18.5962 34.0385 18.7269C34.0469 19.0471 34.0548 19.3673 34.0625 19.6874C34.7162 19.0559 34.9843 18.2065 35.0244 17.3144C34.9951 16.3371 34.5886 15.3861 33.9062 14.6874C33.1269 14.0192 32.1798 13.6085 31.1371 13.6502C30.1852 13.7535 29.2885 14.1317 28.6343 14.8495ZM6.24997 22.0312C6.21866 22.198 6.21866 22.198 6.23122 22.3945C6.23336 22.472 6.2355 22.5496 6.2377 22.6294C6.24175 22.7156 6.2458 22.8018 6.24997 22.8906C6.25409 22.9821 6.25822 23.0736 6.26248 23.1678C6.27831 23.4815 6.2966 23.795 6.31558 24.1085C6.32241 24.2239 6.32923 24.3393 6.33604 24.4547C6.35025 24.6947 6.36465 24.9346 6.37919 25.1746C6.39778 25.4818 6.41587 25.7891 6.43381 26.0964C6.44774 26.3338 6.46195 26.5713 6.47625 26.8087C6.48303 26.9221 6.48973 27.0354 6.49633 27.1488C6.50557 27.3067 6.51523 27.4647 6.52491 27.6226C6.53029 27.7123 6.53567 27.802 6.54121 27.8944C6.55804 28.141 6.55804 28.141 6.64059 28.4374C8.80622 28.4374 10.9718 28.4374 13.2031 28.4374C13.1404 27.9186 13.1404 27.9186 13.0313 27.42C13.0128 27.3499 12.9943 27.2798 12.9752 27.2076C12.9553 27.1342 12.9355 27.0608 12.915 26.9851C12.8945 26.9082 12.874 26.8312 12.8528 26.7519C12.8097 26.5904 12.7664 26.4289 12.7228 26.2676C12.6559 26.0195 12.5898 25.7712 12.5238 25.5229C12.4817 25.3657 12.4396 25.2086 12.3974 25.0515C12.3776 24.977 12.3577 24.9025 12.3372 24.8257C12.3187 24.7573 12.3002 24.6889 12.2812 24.6185C12.2649 24.5581 12.2487 24.4977 12.2319 24.4355C12.199 24.2964 12.199 24.2964 12.1093 24.2187C11.8982 24.21 11.6888 24.2061 11.4776 24.205C11.3472 24.2032 11.2168 24.2013 11.0864 24.1993C10.88 24.1966 10.6736 24.1943 10.4671 24.1932C10.2684 24.192 10.0698 24.1889 9.87118 24.1854C9.80941 24.1856 9.74763 24.1857 9.68399 24.1859C9.25705 24.1763 9.25705 24.1763 9.06653 23.9986C8.97351 23.8056 8.90839 23.608 8.84482 23.4037C8.67697 22.8863 8.67697 22.8863 8.30685 22.5064C8.06666 22.4102 7.82656 22.3373 7.57809 22.2656C7.41908 22.1948 7.26111 22.1217 7.10446 22.0458C6.67397 21.8385 6.67397 21.8385 6.24997 22.0312ZM20.7031 25.2343C20.7031 26.9874 20.7031 28.7406 20.7031 30.5468C22.4562 30.5468 24.2093 30.5468 26.0156 30.5468C26.0156 28.7937 26.0156 27.0406 26.0156 25.2343C25.732 25.2343 25.4484 25.2343 25.1562 25.2343C25.1559 25.3009 25.1556 25.3675 25.1552 25.4361C25.1531 25.6844 25.1493 25.9326 25.1443 26.1808C25.1425 26.2881 25.1414 26.3953 25.1409 26.5025C25.1402 26.6571 25.1368 26.8116 25.1333 26.9662C25.1315 27.1055 25.1315 27.1055 25.1296 27.2476C25.0617 27.5801 24.9622 27.6936 24.6875 27.8906C24.4681 27.9278 24.2975 27.942 24.0793 27.937C24.0216 27.937 23.9639 27.937 23.9045 27.937C23.7831 27.9366 23.6617 27.9352 23.5403 27.9329C23.3547 27.9296 23.1694 27.9297 22.9838 27.9302C22.8656 27.9294 22.7473 27.9284 22.6291 27.9272C22.5738 27.9272 22.5185 27.9272 22.4616 27.9271C22.225 27.9215 22.053 27.9021 21.8425 27.7906C21.5943 27.5211 21.6275 27.2042 21.6159 26.8518C21.611 26.7105 21.611 26.7105 21.606 26.5664C21.6029 26.4684 21.5998 26.3704 21.5966 26.2695C21.5933 26.1703 21.5899 26.0711 21.5864 25.9689C21.5781 25.724 21.5702 25.4792 21.5625 25.2343C21.2789 25.2343 20.9953 25.2343 20.7031 25.2343ZM22.8906 25.2343C22.8906 25.6984 22.8906 26.1624 22.8906 26.6406C23.2 26.6406 23.5093 26.6406 23.8281 26.6406C23.8281 26.1765 23.8281 25.7124 23.8281 25.2343C23.5187 25.2343 23.2093 25.2343 22.8906 25.2343ZM30 25.2343C30 26.9874 30 28.7406 30 30.5468C31.7531 30.5468 33.5062 30.5468 35.3125 30.5468C35.3125 28.7937 35.3125 27.0406 35.3125 25.2343C35.0289 25.2343 34.7453 25.2343 34.4531 25.2343C34.4528 25.3009 34.4525 25.3675 34.4521 25.4361C34.45 25.6844 34.4462 25.9326 34.4412 26.1808C34.4394 26.2881 34.4382 26.3953 34.4378 26.5025C34.4371 26.6571 34.4337 26.8116 34.4302 26.9662C34.4284 27.1055 34.4284 27.1055 34.4265 27.2476C34.3586 27.5801 34.2591 27.6936 33.9843 27.8906C33.765 27.9278 33.5944 27.942 33.3761 27.937C33.3185 27.937 33.2608 27.937 33.2014 27.937C33.08 27.9366 32.9586 27.9352 32.8372 27.9329C32.6516 27.9296 32.4663 27.9297 32.2807 27.9302C32.1624 27.9294 32.0442 27.9284 31.9259 27.9272C31.8707 27.9272 31.8154 27.9272 31.7585 27.9271C31.4397 27.9195 31.24 27.8911 31.0156 27.6562C30.9296 27.3982 30.9214 27.1921 30.9127 26.9204C30.9095 26.8225 30.9062 26.7245 30.9028 26.6236C30.8998 26.5213 30.8967 26.4189 30.8935 26.3134C30.8901 26.2091 30.8867 26.1048 30.8833 26.0005C30.875 25.7451 30.867 25.4897 30.8593 25.2343C30.5757 25.2343 30.2922 25.2343 30 25.2343ZM32.1875 25.2343C32.1875 25.6984 32.1875 26.1624 32.1875 26.6406C32.4968 26.6406 32.8062 26.6406 33.125 26.6406C33.125 26.1765 33.125 25.7124 33.125 25.2343C32.8156 25.2343 32.5062 25.2343 32.1875 25.2343ZM4.77849 29.8504C4.64008 30.0486 4.64008 30.0486 4.68747 30.5468C8.2195 30.5468 11.7515 30.5468 15.3906 30.5468C15.3906 30.3406 15.3906 30.1343 15.3906 29.9218C15.1881 29.7194 15.1074 29.7458 14.8256 29.7452C14.739 29.7447 14.6523 29.7441 14.5631 29.7435C14.4198 29.7438 14.4198 29.7438 14.2737 29.7441C14.1734 29.7437 14.0732 29.7433 13.9699 29.7429C13.6946 29.7419 13.4192 29.7418 13.1438 29.742C12.9141 29.7421 12.6845 29.7417 12.4548 29.7413C11.913 29.7405 11.3712 29.7404 10.8295 29.7409C10.2701 29.7414 9.71078 29.7404 9.15144 29.7388C8.6716 29.7374 8.19178 29.7369 7.71194 29.7372C7.42518 29.7373 7.13843 29.7371 6.85168 29.736C6.53198 29.7349 6.21232 29.7356 5.89262 29.7365C5.79728 29.7359 5.70194 29.7353 5.60371 29.7347C5.51684 29.7352 5.42998 29.7358 5.34048 29.7363C5.26485 29.7363 5.18922 29.7363 5.1113 29.7363C4.9219 29.7535 4.9219 29.7535 4.77849 29.8504ZM2.63668 32.9101C1.98402 33.7264 1.85137 34.6103 1.95309 35.6249C2.15359 36.4847 2.70817 37.1514 3.44723 37.6171C3.91956 37.8907 4.38506 37.9882 4.9279 37.9888C5.0076 37.9892 5.0076 37.9892 5.08892 37.9896C5.26639 37.9904 5.44384 37.99 5.62132 37.9896C5.75008 37.9899 5.87884 37.9902 6.0076 37.9907C6.361 37.9916 6.7144 37.9916 7.06781 37.9914C7.44913 37.9914 7.83044 37.9922 8.21176 37.993C8.95868 37.9943 9.7056 37.9947 10.4525 37.9948C11.0597 37.9949 11.6669 37.9952 12.2741 37.9957C13.9958 37.9971 15.7175 37.9978 17.4392 37.9977C17.532 37.9977 17.6248 37.9977 17.7205 37.9977C17.8134 37.9976 17.9063 37.9976 18.002 37.9976C19.5079 37.9976 21.0138 37.9991 22.5197 38.0013C24.0661 38.0035 25.6126 38.0046 27.1591 38.0045C28.0272 38.0044 28.8953 38.0048 29.7634 38.0065C30.5026 38.0079 31.2417 38.0083 31.9809 38.0072C32.3579 38.0067 32.7349 38.0067 33.1119 38.0081C33.4573 38.0093 33.8028 38.0091 34.1482 38.0077C34.2729 38.0075 34.3975 38.0077 34.5222 38.0086C35.6318 38.0159 36.4354 37.8149 37.2555 37.0513C37.8299 36.456 38.0828 35.7748 38.0908 34.956C38.0744 34.0704 37.8049 33.3794 37.1875 32.7343C36.5684 32.1684 35.8608 31.8657 35.0252 31.8645C34.9726 31.8643 34.92 31.8641 34.8658 31.8639C34.6887 31.8634 34.5117 31.8634 34.3346 31.8635C34.2067 31.8632 34.0788 31.8629 33.9509 31.8626C33.5987 31.8618 33.2466 31.8615 32.8944 31.8613C32.5148 31.861 32.1353 31.8602 31.7557 31.8596C30.8387 31.858 29.9217 31.8572 29.0048 31.8565C28.573 31.8562 28.1412 31.8558 27.7094 31.8554C26.274 31.854 24.8387 31.8529 23.4033 31.8523C23.0308 31.8522 22.6583 31.852 22.2858 31.8519C22.1932 31.8519 22.1006 31.8518 22.0052 31.8518C20.5054 31.8511 19.0056 31.8491 17.5057 31.8466C15.966 31.844 14.4262 31.8426 12.8865 31.8424C12.0219 31.8422 11.1574 31.8415 10.2928 31.8395C9.55654 31.8378 8.82024 31.8372 8.08394 31.838C7.70836 31.8383 7.3328 31.8382 6.95722 31.8366C6.61307 31.8353 6.26894 31.8353 5.92479 31.8366C5.8006 31.8367 5.67641 31.8364 5.55223 31.8355C4.42445 31.8276 3.42985 32.0524 2.63668 32.9101Z" fill="white"/>
<path d="M14.2643 10.5994C15.3115 11.6076 15.8575 12.9352 15.8985 14.375C15.8522 15.8561 15.2952 17.0945 14.2189 18.125C13.1891 19.0681 11.848 19.4423 10.4795 19.3967C9.22261 19.327 8.07979 18.7732 7.1876 17.8906C6.27703 16.8634 5.70093 15.5485 5.76426 14.1553C5.91518 12.6461 6.49579 11.3876 7.65635 10.3906C9.66977 8.85589 12.3434 8.99911 14.2643 10.5994ZM8.17759 11.7285C7.44307 12.5523 7.06915 13.5351 7.11436 14.6387C7.23196 15.7768 7.78165 16.6294 8.63627 17.3602C8.96241 17.5977 9.31053 17.7514 9.6876 17.8906C9.73967 17.9099 9.79174 17.9291 9.84538 17.9489C10.7303 18.219 11.675 18.0474 12.505 17.6856C13.4885 17.1565 14.097 16.2635 14.4532 15.2344C14.6881 14.2829 14.5126 13.3229 14.0431 12.4756C13.5141 11.6293 12.7422 10.9914 11.7597 10.7419C10.4449 10.4834 9.16229 10.7859 8.17759 11.7285Z" fill="white"/>
<path d="M36.7255 32.8662C37.2433 33.3436 37.6105 33.9483 37.6749 34.6585C37.6948 35.4456 37.5161 36.1183 37.0124 36.7359C36.4741 37.2813 35.807 37.5817 35.044 37.6075C34.2303 37.5802 33.6518 37.3081 33.0713 36.7478C32.5224 36.1563 32.3742 35.5806 32.3853 34.7898C32.4171 34.0356 32.6646 33.5134 33.1879 32.967C34.1685 32.0841 35.6938 32.0316 36.7255 32.8662ZM34.0723 34.0186C33.7605 34.3946 33.7059 34.6859 33.7156 35.1697C33.7729 35.5373 33.9456 35.7702 34.2188 36.0157C34.5895 36.2313 34.8863 36.2965 35.3125 36.25C35.7372 36.1027 35.9976 35.8307 36.25 35.4688C36.3829 35.0701 36.3723 34.7408 36.1963 34.3604C35.9747 33.9625 35.7264 33.7635 35.2881 33.6377C34.789 33.5447 34.4511 33.6975 34.0723 34.0186Z" fill="white"/>
<path d="M26.9386 33.0712C27.463 33.6308 27.6952 34.3473 27.6756 35.1085C27.6091 35.8133 27.3247 36.451 26.8031 36.9365C26.1391 37.4589 25.4482 37.6439 24.6095 37.578C24.0444 37.4774 23.6257 37.2596 23.2032 36.8749C23.154 36.8308 23.1048 36.7867 23.054 36.7412C22.5686 36.2527 22.3728 35.6564 22.3262 34.9761C22.3513 34.1702 22.6401 33.4863 23.2277 32.9296C24.3648 32.0118 25.8656 32.0775 26.9386 33.0712ZM24.0773 34.0038C23.8098 34.34 23.6428 34.6471 23.6769 35.0829C23.7528 35.5003 23.9534 35.7652 24.2726 36.0399C24.7052 36.2603 25.0598 36.2994 25.5275 36.1669C25.8834 35.9547 26.0666 35.7241 26.2794 35.3661C26.3776 34.944 26.3135 34.5774 26.1183 34.1942C25.8479 33.88 25.6059 33.7098 25.2052 33.5985C24.747 33.5906 24.4335 33.7188 24.0773 34.0038Z" fill="white"/>
<path d="M6.87753 33.0328C7.46101 33.6435 7.63105 34.2995 7.62597 35.1247C7.59483 35.8126 7.31414 36.3614 6.85556 36.8701C6.25549 37.4155 5.55776 37.6094 4.76358 37.5998C4.04081 37.5323 3.37619 37.1934 2.91269 36.6351C2.42913 35.9548 2.25007 35.2864 2.34384 34.4531C2.5297 33.6233 2.9968 33.076 3.67959 32.5924C4.69746 31.9592 6.03211 32.2752 6.87753 33.0328ZM4.09799 33.9346C3.81601 34.2556 3.68584 34.5349 3.64755 34.956C3.68719 35.4079 3.84637 35.6658 4.17978 35.9619C4.51656 36.2433 4.79768 36.2858 5.23446 36.25C5.63837 36.1228 5.95523 35.9167 6.18386 35.5563C6.33737 35.1722 6.32073 34.7569 6.19821 34.3655C6.01806 34.0013 5.75735 33.8149 5.39071 33.6719C4.91067 33.5409 4.47763 33.6 4.09799 33.9346Z" fill="white"/>
<path d="M17.0214 33.1885C17.5161 33.8069 17.6907 34.4422 17.6562 35.2344C17.5256 36.075 17.137 36.6363 16.4779 37.1607C15.8559 37.5827 15.1442 37.6759 14.4106 37.5418C13.6416 37.3403 13.0671 36.9318 12.6562 36.25C12.287 35.5493 12.2414 34.8202 12.456 34.0625C12.7168 33.3555 13.172 32.8859 13.8329 32.5342C14.9637 32.0315 16.1663 32.2809 17.0214 33.1885ZM14.121 33.9209C13.8423 34.206 13.6815 34.4546 13.6645 34.8624C13.6985 35.3684 13.8867 35.6682 14.2284 36.0401C14.5563 36.2325 14.8563 36.2742 15.2343 36.25C15.65 36.1292 15.9423 35.9176 16.1718 35.5469C16.3443 35.1771 16.3659 34.8435 16.2499 34.4531C16.0513 34.0544 15.8143 33.8276 15.3905 33.6719C14.897 33.5354 14.5416 33.6378 14.121 33.9209Z" fill="white"/>
<path d="M29.0576 36.2009C29.1698 36.2006 29.1698 36.2006 29.2843 36.2003C29.4422 36.2004 29.6 36.2014 29.7579 36.2034C29.9992 36.206 30.2402 36.205 30.4815 36.2035C30.6351 36.204 30.7887 36.2048 30.9423 36.2057C31.0143 36.2054 31.0862 36.205 31.1604 36.2046C31.4907 36.2106 31.6726 36.2216 31.9593 36.3982C32.1303 36.5855 32.1624 36.6635 32.1581 36.9141C32.1592 36.9729 32.1602 37.0317 32.1612 37.0923C32.0811 37.3601 31.9556 37.4319 31.7187 37.5781C31.4654 37.6231 31.2161 37.6201 30.9594 37.6169C30.8863 37.617 30.8132 37.6171 30.7379 37.6172C30.5838 37.6171 30.4296 37.6162 30.2754 37.6146C30.0398 37.6123 29.8043 37.613 29.5687 37.614C29.4187 37.6135 29.2686 37.6128 29.1186 37.612C29.0484 37.6122 28.9781 37.6125 28.9057 37.6127C28.5313 37.6071 28.2708 37.5907 27.9687 37.3437C27.8461 37.0985 27.8631 36.911 27.8906 36.6406C28.2156 36.1808 28.538 36.1934 29.0576 36.2009Z" fill="white"/>
<path d="M19.0576 36.2058C19.1325 36.2053 19.2073 36.2048 19.2844 36.2043C19.4422 36.2038 19.6001 36.204 19.7579 36.205C19.9992 36.2061 20.2403 36.2034 20.4816 36.2004C20.6352 36.2004 20.7888 36.2005 20.9424 36.2009C21.0503 36.1993 21.0503 36.1993 21.1604 36.1978C21.5127 36.2029 21.6706 36.2138 21.9596 36.4313C22.1094 36.6407 22.1094 36.6407 22.1582 36.9141C22.0949 37.2687 22.0057 37.3619 21.7188 37.5782C21.4598 37.6353 21.2068 37.6329 20.9424 37.63C20.8676 37.6304 20.7928 37.6308 20.7157 37.6312C20.5578 37.6314 20.4 37.6307 20.2421 37.6291C20.0008 37.627 19.7598 37.6291 19.5185 37.6316C19.3649 37.6313 19.2112 37.6308 19.0576 37.63C18.9857 37.6308 18.9137 37.6316 18.8396 37.6324C18.4829 37.6259 18.3297 37.6161 18.0407 37.3898C17.8947 37.193 17.837 37.1104 17.8418 36.8701C17.8907 36.5625 17.8907 36.5625 18.0405 36.3898C18.3809 36.1922 18.6704 36.2037 19.0576 36.2058Z" fill="white"/>
<path d="M9.05774 36.2058C9.13256 36.2053 9.20738 36.2048 9.28447 36.2043C9.44232 36.2038 9.60019 36.204 9.75804 36.205C9.99934 36.2061 10.2404 36.2034 10.4817 36.2004C10.6353 36.2004 10.7889 36.2005 10.9425 36.2009C11.0504 36.1993 11.0504 36.1993 11.1605 36.1978C11.5128 36.2029 11.6709 36.2141 11.9603 36.431C12.155 36.7046 12.1574 36.8584 12.1095 37.1875C11.972 37.4364 11.9143 37.487 11.6407 37.5782C11.5314 37.5864 11.4216 37.5905 11.312 37.592C11.213 37.5935 11.213 37.5935 11.112 37.595C11.0055 37.5959 11.0055 37.5959 10.8967 37.5968C10.8234 37.5974 10.7501 37.598 10.6746 37.5987C10.5195 37.5998 10.3644 37.6006 10.2092 37.6012C9.97226 37.6026 9.73537 37.606 9.49841 37.6094C9.34766 37.6102 9.1969 37.6109 9.04614 37.6114C8.97541 37.6128 8.90468 37.6142 8.83181 37.6156C8.50287 37.6144 8.32739 37.6064 8.0415 37.4307C7.86998 37.2429 7.83762 37.1652 7.84192 36.9141C7.84091 36.8553 7.8399 36.7965 7.83887 36.7359C8.00931 36.1664 8.56884 36.2031 9.05774 36.2058Z" fill="white"/>
<path d="M29.1274 32.2497C29.1953 32.2493 29.2633 32.2489 29.3332 32.2484C29.477 32.2477 29.6207 32.2472 29.7645 32.2469C29.9836 32.2461 30.2027 32.2437 30.4218 32.2412C30.5616 32.2407 30.7015 32.2403 30.8413 32.24C30.9391 32.2385 30.9391 32.2385 31.0389 32.2371C31.4271 32.2385 31.6952 32.2831 32.0312 32.5C32.1534 32.7445 32.1638 33.0165 32.1093 33.2812C32.0013 33.445 32.0013 33.445 31.7968 33.5937C31.5286 33.6416 31.2629 33.6375 30.9911 33.6352C30.9125 33.6355 30.834 33.6358 30.753 33.6362C30.587 33.6364 30.421 33.6358 30.255 33.6345C30.0008 33.6328 29.7469 33.6345 29.4927 33.6365C29.3314 33.6363 29.17 33.6359 29.0087 33.6352C28.9327 33.6359 28.8567 33.6365 28.7784 33.6372C28.2525 33.6299 28.2525 33.6299 27.999 33.4447C27.8479 33.217 27.8463 33.071 27.8597 32.8049C27.9073 32.5757 28.0164 32.477 28.203 32.3437C28.5109 32.2411 28.8064 32.2514 29.1274 32.2497Z" fill="white"/>
<path d="M19.1274 32.2497C19.1953 32.2493 19.2633 32.2489 19.3332 32.2484C19.477 32.2477 19.6207 32.2472 19.7645 32.2469C19.9836 32.2461 20.2027 32.2437 20.4218 32.2412C20.5616 32.2407 20.7015 32.2403 20.8413 32.24C20.9391 32.2385 20.9391 32.2385 21.0389 32.2371C21.4271 32.2385 21.6952 32.2831 22.0312 32.5C22.1534 32.7445 22.1638 33.0165 22.1093 33.2812C22.0013 33.445 22.0013 33.445 21.7968 33.5937C21.5286 33.6416 21.2629 33.6375 20.9911 33.6352C20.9125 33.6355 20.834 33.6358 20.753 33.6362C20.587 33.6364 20.421 33.6358 20.255 33.6345C20.0008 33.6328 19.7469 33.6345 19.4927 33.6365C19.3314 33.6363 19.17 33.6359 19.0087 33.6352C18.9327 33.6359 18.8567 33.6365 18.7784 33.6372C18.2525 33.6299 18.2525 33.6299 17.999 33.4447C17.8479 33.217 17.8463 33.071 17.8597 32.8049C17.9073 32.5757 18.0164 32.477 18.203 32.3437C18.5109 32.2411 18.8064 32.2514 19.1274 32.2497Z" fill="white"/>
<path d="M9.13017 32.2497C9.19828 32.2493 9.26638 32.2489 9.33655 32.2484C9.48063 32.2477 9.62471 32.2472 9.76879 32.2469C9.98878 32.2461 10.2087 32.2437 10.4287 32.2412C10.5688 32.2407 10.7088 32.2403 10.8489 32.24C10.9473 32.2385 10.9473 32.2385 11.0477 32.2371C11.5094 32.2388 11.7745 32.3214 12.1093 32.6562C12.162 33.2014 12.162 33.2014 12.0011 33.445C11.6838 33.676 11.3741 33.6384 10.9911 33.6352C10.9125 33.6355 10.834 33.6358 10.753 33.6362C10.587 33.6364 10.421 33.6358 10.255 33.6345C10.0008 33.6328 9.74686 33.6345 9.49272 33.6365C9.33138 33.6363 9.17005 33.6359 9.00871 33.6352C8.93269 33.6359 8.85668 33.6365 8.77836 33.6372C8.25247 33.6299 8.25247 33.6299 7.99904 33.4447C7.8479 33.217 7.84634 33.071 7.85972 32.8049C7.90726 32.5757 8.01644 32.477 8.20305 32.3437C8.5117 32.2409 8.80828 32.2514 9.13017 32.2497Z" fill="white"/>
<path d="M24.2187 2.73444C24.4545 2.87163 24.6417 3.03361 24.7656 3.28132C24.8081 3.63594 24.8142 3.90275 24.6289 4.21393C24.4192 4.40616 24.2582 4.52311 23.97 4.54322C23.6529 4.513 23.4706 4.47594 23.2031 4.29206C23.0073 4.00451 22.9456 3.78396 22.9687 3.43757C23.0635 3.15861 23.151 3.01347 23.374 2.82233C23.6613 2.70742 23.9171 2.66963 24.2187 2.73444Z" fill="white"/>
</svg>
