<svg width="40" height="40" viewBox="0 0 40 40" fill="none" xmlns="http://www.w3.org/2000/svg">
<g clip-path="url(#clip0_2397_1264)">
<path d="M13.5269 9.3548C13.6846 9.35459 13.8422 9.35431 13.9999 9.35397C14.4228 9.35327 14.8457 9.35353 15.2686 9.35403C15.7145 9.35443 16.1605 9.35406 16.6064 9.35381C17.3547 9.35353 18.103 9.3539 18.8514 9.35465C19.7123 9.3555 20.5733 9.35522 21.4343 9.35436C22.178 9.35365 22.9218 9.35355 23.6655 9.35396C24.1078 9.3542 24.55 9.35424 24.9922 9.35372C25.4083 9.35326 25.8243 9.35359 26.2404 9.35449C26.3916 9.35469 26.5429 9.35464 26.6941 9.35429C27.9984 9.35156 29.3351 9.38765 30.6103 9.68752C30.6798 9.70371 30.7492 9.71991 30.8208 9.73659C34.0527 10.5473 36.6082 12.6606 38.3789 15.4248C39.4271 17.1762 40.0244 19.2661 40.0227 21.3025C40.0235 21.4422 40.0235 21.4422 40.0243 21.5847C40.0257 21.8889 40.026 22.1931 40.0262 22.4973C40.0264 22.6028 40.0267 22.7084 40.027 22.8139C40.0284 23.3656 40.029 23.9173 40.0289 24.469C40.0288 24.9818 40.0305 25.4945 40.0329 26.0074C40.035 26.4495 40.0358 26.8917 40.0357 27.3339C40.0357 27.5972 40.0361 27.8605 40.0378 28.1238C40.0393 28.4168 40.0389 28.7097 40.0379 29.0027C40.0388 29.0893 40.0397 29.1758 40.0406 29.265C40.0367 29.7413 40.0137 30.0324 39.6875 30.3906C39.3529 30.5901 39.0685 30.6766 38.6779 30.6058C38.3398 30.4831 38.085 30.228 37.8125 30C33.5043 26.5739 26.8164 25.6273 21.4785 25.6091C21.3688 25.6086 21.259 25.608 21.1492 25.6075C20.8003 25.606 20.4514 25.6056 20.1025 25.6055C20.0431 25.6055 19.9836 25.6054 19.9224 25.6054C18.1161 25.6048 16.325 25.6256 14.5312 25.8594C14.4514 25.8696 14.4514 25.8696 14.37 25.88C10.1446 26.4234 5.45131 27.3492 2.07028 30.1123C1.68618 30.4254 1.36604 30.6549 0.849578 30.625C0.523232 30.5681 0.364419 30.4135 0.156219 30.1563C-0.0132469 29.9021 -0.0197147 29.8316 -0.0203983 29.5378C-0.0209518 29.4586 -0.0215053 29.3793 -0.0220756 29.2977C-0.0217853 29.1673 -0.0217853 29.1673 -0.0214891 29.0343C-0.0218884 28.9426 -0.0222877 28.851 -0.022699 28.7566C-0.0236004 28.5049 -0.0237906 28.2532 -0.0235931 28.0015C-0.0235094 27.7905 -0.0238903 27.5796 -0.0242643 27.3686C-0.0251321 26.8696 -0.0251656 26.3706 -0.0246934 25.8716C-0.0242244 25.3599 -0.025176 24.8482 -0.0268475 24.3365C-0.0282345 23.8954 -0.0286903 23.4543 -0.0284378 23.0132C-0.0282975 22.7506 -0.0285949 22.488 -0.0295881 22.2254C-0.0332539 21.1195 -0.0197316 20.0648 0.234344 18.9844C0.250665 18.9114 0.266986 18.8385 0.283801 18.7633C0.321523 18.5994 0.364016 18.4381 0.410125 18.2764C0.426345 18.2189 0.442565 18.1614 0.459277 18.1021C0.640915 17.4853 0.896436 16.9079 1.17184 16.3281C1.20961 16.2455 1.24737 16.1628 1.28628 16.0776C1.96247 14.6484 3.06337 13.252 4.29684 12.2656C4.3386 12.232 4.38036 12.1984 4.42338 12.1638C5.89359 10.99 7.53275 10.131 9.37009 9.69728C9.43225 9.68235 9.49441 9.66741 9.55846 9.65202C10.8584 9.37138 12.2029 9.35174 13.5269 9.3548ZM18.5156 12.5C18.2396 12.8981 18.1646 13.1534 18.1726 13.6472C18.1732 13.7292 18.1732 13.7292 18.1739 13.813C18.1756 13.9857 18.1796 14.1584 18.1836 14.3311C18.1851 14.449 18.1866 14.567 18.1878 14.6849C18.1913 14.9723 18.1966 15.2596 18.2031 15.5469C18.0967 15.5451 18.0967 15.5451 17.9882 15.5432C17.7235 15.5392 17.4588 15.5362 17.1941 15.534C17.0798 15.5328 16.9656 15.5312 16.8513 15.5292C16.6865 15.5263 16.5217 15.525 16.3568 15.524C16.2083 15.5222 16.2083 15.5222 16.0568 15.5203C15.638 15.5607 15.3925 15.7013 15.0976 15.9961C14.6583 16.6307 14.6841 17.4449 14.7992 18.1845C14.9209 18.627 15.1617 18.8956 15.5468 19.1406C15.8233 19.2328 16.0423 19.2276 16.3339 19.2264C16.3873 19.2263 16.4407 19.2262 16.4958 19.2261C16.6661 19.2256 16.8365 19.2246 17.0068 19.2236C17.1224 19.2233 17.238 19.2229 17.3536 19.2226C17.6368 19.2217 17.9199 19.2204 18.2031 19.2188C18.2015 19.292 18.1998 19.3653 18.1981 19.4408C18.1928 19.7143 18.1889 19.9877 18.1859 20.2611C18.1844 20.3792 18.1822 20.4972 18.1795 20.6153C18.1757 20.7856 18.1739 20.9558 18.1726 21.1261C18.1709 21.2284 18.1693 21.3307 18.1676 21.4361C18.2202 21.8552 18.4077 22.0902 18.7158 22.3682C19.1127 22.643 19.5206 22.5953 19.9853 22.5977C20.0623 22.5993 20.1393 22.6009 20.2186 22.6026C20.7111 22.6052 21.0798 22.5755 21.4566 22.2238C21.7516 21.838 21.808 21.6329 21.8045 21.1566C21.8044 21.1014 21.8043 21.0461 21.8041 20.9892C21.8037 20.8124 21.8027 20.6357 21.8017 20.459C21.8013 20.3393 21.801 20.2195 21.8007 20.0998C21.7998 19.8061 21.7984 19.5124 21.7968 19.2188C21.865 19.22 21.9331 19.2212 22.0033 19.2225C22.2583 19.2265 22.5132 19.2294 22.7682 19.2316C22.8781 19.2328 22.988 19.2344 23.098 19.2364C23.2568 19.2393 23.4156 19.2406 23.5745 19.2417C23.6698 19.2429 23.7651 19.2441 23.8634 19.2454C24.2961 19.2038 24.591 19.0788 24.9072 18.7695C25.3349 18.1341 25.3267 17.3135 25.1953 16.5784C25.0831 16.1986 24.9265 15.9524 24.6093 15.7031C24.2843 15.5389 24.0124 15.5287 23.6508 15.5316C23.5976 15.5319 23.5444 15.5321 23.4896 15.5323C23.3208 15.5332 23.1521 15.5351 22.9834 15.5371C22.8685 15.5379 22.7536 15.5386 22.6387 15.5393C22.3581 15.541 22.0775 15.5437 21.7968 15.5469C21.7985 15.474 21.8001 15.4012 21.8018 15.3261C21.8072 15.0536 21.8111 14.7813 21.814 14.5088C21.8156 14.3913 21.8177 14.2738 21.8204 14.1563C21.8242 13.9866 21.826 13.8169 21.8274 13.6472C21.829 13.5453 21.8306 13.4434 21.8323 13.3385C21.7842 12.9426 21.655 12.65 21.3473 12.3796C20.8987 12.165 20.4929 12.1404 20 12.1485C19.8891 12.1466 19.8891 12.1466 19.776 12.1448C19.3155 12.1473 18.8741 12.185 18.5156 12.5Z" fill="white"/>
</g>
<defs>
<clipPath id="clip0_2397_1264">
<rect width="40" height="40" fill="white"/>
</clipPath>
</defs>
</svg>
