<svg width="40" height="40" viewBox="0 0 40 40" fill="none" xmlns="http://www.w3.org/2000/svg">
<path d="M7.6475 1.20585C8.28176 1.37553 8.8406 2.18929 9.29751 2.64788C9.38225 2.73264 9.46701 2.81739 9.55179 2.90212C9.78016 3.13047 10.0083 3.35906 10.2364 3.58769C10.4754 3.82723 10.7147 4.06654 10.9539 4.30588C11.4062 4.75836 11.8582 5.21105 12.3102 5.66381C12.8251 6.17957 13.3402 6.69511 13.8553 7.21063C14.9143 8.27039 15.9729 9.33044 17.0314 10.3907C17.2707 9.92015 17.2707 9.92015 17.4872 9.43893C17.5111 9.38206 17.5351 9.32518 17.5598 9.26658C17.5849 9.2063 17.6101 9.14601 17.636 9.0839C17.6636 9.01816 17.6913 8.95241 17.7198 8.88467C17.7797 8.74205 17.8396 8.59939 17.8994 8.4567C18.0626 8.06711 18.2267 7.67785 18.3907 7.28855C18.4254 7.20598 18.4602 7.12341 18.496 7.03834C18.8889 6.10524 19.2841 5.17312 19.6804 4.24141C19.7597 4.05465 19.8391 3.86786 19.9183 3.68103C20.0299 3.4178 20.1418 3.15467 20.2538 2.89158C20.2868 2.81368 20.3197 2.73578 20.3537 2.65551C20.8484 1.4956 20.8484 1.4956 21.0939 1.25004C21.252 1.22105 21.252 1.22105 21.4357 1.21586C21.5261 1.21118 21.5261 1.21118 21.6182 1.2064C21.882 1.27076 21.954 1.42296 22.1096 1.64066C22.2154 1.85401 22.2154 1.85401 22.3103 2.08807C22.3465 2.17636 22.3827 2.26464 22.4199 2.3556C22.4773 2.49855 22.4773 2.49855 22.5359 2.64439C22.577 2.74547 22.6182 2.84654 22.6594 2.94758C22.7677 3.21355 22.8753 3.47985 22.9825 3.74624C23.0659 3.95312 23.1497 4.15984 23.2335 4.36655C23.482 4.97962 23.7291 5.59326 23.9758 6.20705C24.1425 6.62158 24.3093 7.03605 24.4761 7.4505C24.5365 7.60044 24.5968 7.75042 24.657 7.9004C24.8414 8.35899 25.0272 8.81693 25.2167 9.27345C25.2499 9.35343 25.283 9.43342 25.3171 9.51582C25.3785 9.66359 25.4402 9.81121 25.5023 9.95866C25.5424 10.0553 25.5424 10.0553 25.5833 10.1539C25.6066 10.2094 25.63 10.265 25.654 10.3223C25.7033 10.4688 25.7033 10.4688 25.7033 10.7032C26.137 10.3333 26.5473 9.9471 26.9478 9.54166C27.0038 9.4854 27.0597 9.42913 27.1174 9.37116C27.294 9.19361 27.4704 9.0158 27.6467 8.83793C27.8806 8.60191 28.1148 8.36614 28.3492 8.13053C28.4028 8.07626 28.4564 8.02198 28.5117 7.96606C28.5613 7.91622 28.6109 7.86637 28.6619 7.81502C28.7055 7.77104 28.7491 7.72706 28.794 7.68175C29.0082 7.48438 29.2074 7.46933 29.4941 7.47369C29.9062 7.52979 30.2798 7.71887 30.6578 7.88486C30.7497 7.92419 30.8415 7.96352 30.9361 8.00404C31.1296 8.08714 31.3228 8.17062 31.5158 8.25487C31.7623 8.36249 32.0093 8.46888 32.2566 8.57481C32.4937 8.67646 32.7305 8.77869 32.9674 8.88096C33.0999 8.9381 33.0999 8.9381 33.235 8.9964C33.3174 9.03235 33.3998 9.06831 33.4847 9.10536C33.593 9.15246 33.593 9.15246 33.7035 9.20051C34.263 9.46631 34.263 9.46631 34.4106 9.74813C34.4426 9.84103 34.4746 9.93393 34.5076 10.0296C34.5358 10.1098 34.5358 10.1098 34.5645 10.1915C34.6079 10.3158 34.6506 10.4403 34.6927 10.5649C34.7745 10.807 34.8583 11.0483 34.9421 11.2897C35.0918 11.7222 35.2391 12.1554 35.3849 12.5892C35.4698 12.8422 35.5552 13.095 35.6417 13.3475C35.743 13.6431 35.8425 13.9393 35.942 14.2356C35.9729 14.3254 36.0039 14.4153 36.0359 14.5079C36.2007 15.005 36.2953 15.4133 36.2502 15.9375C36.1428 16.1377 36.1428 16.1377 35.9377 16.25C35.2745 16.3335 34.6148 16.1619 33.9693 16.0279C33.8566 16.005 33.7438 15.9823 33.6311 15.9596C33.3368 15.9001 33.0428 15.8398 32.7488 15.7792C32.4477 15.7174 32.1465 15.6565 31.8453 15.5954C31.2561 15.4759 30.6671 15.3555 30.0783 15.2344C30.0784 15.2793 30.0785 15.3243 30.0786 15.3705C30.0809 16.4654 30.0802 17.5603 30.0761 18.6552C30.0742 19.1847 30.0733 19.7141 30.0748 20.2436C30.0763 20.7547 30.0749 21.2658 30.0718 21.7769C30.071 21.9718 30.0713 22.1667 30.0725 22.3615C30.074 22.6348 30.0721 22.9079 30.0694 23.1812C30.0707 23.2615 30.0719 23.3418 30.0732 23.4245C30.064 23.9167 29.9754 24.1766 29.6259 24.5248C29.5689 24.5785 29.512 24.6322 29.4533 24.6875C29.3202 24.825 29.1875 24.9627 29.0549 25.1006C28.8991 25.2595 28.7427 25.4176 28.5863 25.5758C28.4997 25.6636 28.4132 25.7515 28.3266 25.8393C27.5394 26.6378 26.7495 27.4336 25.9589 28.2288C25.376 28.8153 24.7943 29.4029 24.2144 29.9923C23.8047 30.4083 23.3936 30.8227 22.9814 31.2361C22.736 31.4823 22.4913 31.7291 22.2482 31.9776C22.0193 32.2116 21.7885 32.4436 21.5563 32.6744C21.4721 32.7587 21.3885 32.8436 21.3057 32.9293C20.7281 33.526 20.1673 33.8463 19.3778 34.091C19.2235 34.1392 19.071 34.1909 18.9184 34.2442C18.6101 34.3519 18.3006 34.4559 17.9909 34.5596C17.8741 34.5989 17.7573 34.6383 17.6405 34.6776C17.2627 34.8047 16.8848 34.9314 16.5068 35.058C16.3757 35.102 16.2445 35.146 16.1133 35.1899C15.568 35.3727 15.0227 35.5553 14.4772 35.7377C13.6996 35.9975 12.9223 36.2582 12.1453 36.5198C11.5961 36.7047 11.0466 36.8887 10.4969 37.0722C10.1696 37.1814 9.84248 37.291 9.51561 37.4015C9.20881 37.5051 8.90169 37.6078 8.59429 37.7097C8.48196 37.7471 8.36975 37.7849 8.25767 37.8231C7.68668 38.0173 7.17236 38.1871 6.56268 38.125C6.36248 38.0078 6.36248 38.0078 6.25018 37.8125C6.1866 37.3184 6.27715 37.0812 6.5755 36.6883C6.62283 36.6291 6.67016 36.5698 6.71893 36.5088C6.76787 36.4451 6.81682 36.3813 6.86724 36.3156C6.9716 36.1799 7.0766 36.0447 7.18218 35.91C7.39479 35.6381 7.60356 35.3635 7.81237 35.0887C7.91736 34.9507 8.02255 34.8127 8.12792 34.675C8.47047 34.2269 8.80756 33.7753 9.1408 33.3203C9.57726 32.7245 10.0231 32.1363 10.472 31.5497C10.8594 31.0426 11.2392 30.5303 11.6163 30.0154C12.1208 29.3283 12.6389 28.6516 13.1574 27.9751C13.2778 27.8174 13.397 27.6589 13.5158 27.5C13.4074 27.2582 13.2805 27.0857 13.0983 26.894C13.0464 26.839 12.9945 26.7841 12.941 26.7275C12.8858 26.6698 12.8305 26.6122 12.7736 26.5528C12.7172 26.4934 12.6608 26.4339 12.6027 26.3727C12.2381 25.9898 11.8671 25.6144 11.4907 25.243C11.3433 25.0934 11.2056 24.9402 11.0695 24.7803C10.8187 24.4867 10.548 24.2166 10.2736 23.9454C9.95854 23.6338 9.65689 23.3192 9.3703 22.981C9.11724 22.6994 8.84485 22.437 8.57569 22.1708C8.30045 21.8975 8.03965 21.6176 7.78887 21.3214C7.56991 21.0742 7.33212 20.8461 7.09551 20.6159C6.80219 20.3125 6.8636 19.9829 6.86368 19.584C6.86339 19.5075 6.86311 19.4311 6.86281 19.3523C6.86195 19.0944 6.86165 18.8365 6.86135 18.5786C6.86086 18.3943 6.86034 18.2101 6.85979 18.0258C6.85829 17.4718 6.85746 16.9178 6.85677 16.3638C6.85643 16.103 6.85601 15.8422 6.8556 15.5815C6.85427 14.7149 6.85314 13.8484 6.85257 12.9818C6.85242 12.7569 6.85227 12.532 6.85212 12.3071C6.85208 12.2511 6.85204 12.1952 6.852 12.1376C6.85135 11.2315 6.84937 10.3254 6.84684 9.41934C6.84426 8.48954 6.84285 7.55975 6.8426 6.62995C6.84243 6.10771 6.84171 5.58547 6.83975 5.06323C6.83794 4.57216 6.8376 4.08112 6.8384 3.59005C6.83844 3.40953 6.83794 3.229 6.83687 3.04848C6.8355 2.80259 6.83604 2.55678 6.83707 2.31089C6.83622 2.23895 6.83536 2.16701 6.83448 2.09289C6.83936 1.61351 6.83936 1.61351 7.0155 1.36287C7.22432 1.22603 7.39828 1.19163 7.6475 1.20585ZM8.12518 3.51566C8.12518 8.67191 8.12518 13.8282 8.12518 19.1407C11.3353 18.224 11.3353 18.224 14.543 17.2987C14.7123 17.2495 14.8816 17.2005 15.0509 17.1514C16.7809 16.6498 18.5096 16.144 20.2346 15.625C19.9281 15.2583 19.6095 14.9106 19.271 14.5734C19.2234 14.5258 19.1759 14.4781 19.1269 14.4289C18.9689 14.2707 18.8107 14.1127 18.6524 13.9547C18.5386 13.8407 18.4247 13.7267 18.3109 13.6127C18.0028 13.3042 17.6944 12.996 17.386 12.6879C17.0634 12.3654 16.7409 12.0427 16.4183 11.7201C15.8773 11.1789 15.336 10.6378 14.7947 10.0969C14.168 9.47062 13.5416 8.84408 12.9154 8.21739C12.3778 7.67949 11.8401 7.14174 11.3023 6.60412C10.981 6.28292 10.6597 5.96166 10.3386 5.64028C10.0372 5.33865 9.73557 5.03721 9.43383 4.73593C9.32281 4.625 9.21185 4.51402 9.10096 4.40296C8.95032 4.2521 8.79944 4.10149 8.6485 3.95094C8.60406 3.90632 8.55962 3.86171 8.51383 3.81574C8.34722 3.60946 8.34722 3.60946 8.12518 3.51566ZM21.4064 3.67191C20.7895 5.04891 20.2007 6.43734 19.6164 7.82845C19.3335 8.50159 19.05 9.1742 18.756 9.84257C18.711 9.94528 18.666 10.048 18.6211 10.1507C18.5402 10.3347 18.4586 10.5183 18.3762 10.7016C18.3413 10.7812 18.3064 10.8607 18.2704 10.9427C18.2402 11.0104 18.21 11.078 18.1788 11.1477C18.1156 11.3605 18.1265 11.4342 18.2033 11.6407C18.3387 11.81 18.3387 11.81 18.5134 11.9773C18.5791 12.043 18.6448 12.1087 18.7124 12.1763C18.8195 12.2816 18.8195 12.2816 18.9287 12.389C19.0014 12.4613 19.0741 12.5337 19.1491 12.6083C19.3421 12.8005 19.5358 12.9919 19.7297 13.1832C19.9276 13.3786 20.1248 13.5747 20.322 13.7708C20.7089 14.1552 21.0965 14.5388 21.4846 14.9219C21.7334 14.8116 21.9046 14.6795 22.0991 14.49C22.1572 14.4337 22.2153 14.3773 22.2752 14.3193C22.337 14.2583 22.3989 14.1974 22.4626 14.1346C22.5265 14.0717 22.5904 14.0089 22.6563 13.9442C22.7911 13.8112 22.9256 13.678 23.0599 13.5446C23.2662 13.3405 23.4742 13.1383 23.6823 12.9361C23.813 12.8068 23.9435 12.6773 24.074 12.5476C24.1366 12.4873 24.1993 12.427 24.2638 12.3649C24.5946 12.0519 24.5946 12.0519 24.6991 11.6308C24.6696 11.5567 24.64 11.4826 24.6096 11.4063C24.5813 11.3251 24.553 11.244 24.5238 11.1603C24.4699 11.0272 24.4699 11.0272 24.4148 10.8915C24.3947 10.8414 24.3746 10.7914 24.3538 10.7398C24.2865 10.5728 24.2186 10.406 24.1506 10.2393C24.1025 10.1203 24.0544 10.0013 24.0064 9.88228C23.9011 9.62168 23.7955 9.3612 23.6898 9.1008C23.5032 8.64125 23.3177 8.18128 23.1322 7.72129C22.587 6.36985 22.0415 5.01858 21.4846 3.67191C21.4588 3.67191 21.433 3.67191 21.4064 3.67191ZM30.0002 9.14066C30.0002 10.6875 30.0002 12.2344 30.0002 13.8282C31.7653 14.2084 31.7653 14.2084 33.5353 14.5606C33.642 14.581 33.7488 14.6015 33.8555 14.6219C34.1068 14.6701 34.3581 14.718 34.6096 14.7657C34.4148 13.9822 34.1573 13.2181 33.9031 12.4524C33.8278 12.2252 33.7536 11.9976 33.6794 11.7701C33.6314 11.6252 33.5834 11.4803 33.5353 11.3355C33.5134 11.2676 33.4914 11.1998 33.4687 11.1298C33.4476 11.0669 33.4265 11.004 33.4047 10.9392C33.3865 10.884 33.3683 10.8289 33.3496 10.772C33.2206 10.4938 33.033 10.3679 32.7576 10.2493C32.7002 10.2243 32.6429 10.1993 32.5838 10.1735C32.5223 10.1474 32.4607 10.1213 32.3973 10.0943C32.3339 10.0669 32.2704 10.0395 32.205 10.0113C32.0711 9.95355 31.9371 9.89611 31.8029 9.83892C31.5971 9.75112 31.3916 9.66241 31.1862 9.57355C31.0561 9.5176 30.926 9.4617 30.7958 9.40586C30.7341 9.37925 30.6724 9.35265 30.6088 9.32523C30.315 9.18946 30.315 9.18946 30.0002 9.14066ZM28.5673 9.86083C28.5224 9.90577 28.4775 9.95071 28.4313 9.99701C28.3799 10.0483 28.3286 10.0996 28.2756 10.1524C28.2189 10.2094 28.1622 10.2663 28.1038 10.3251C28.0146 10.4142 28.0146 10.4142 27.9237 10.5052C27.7261 10.7028 27.5287 10.9007 27.3314 11.0987C27.1949 11.2353 27.0584 11.3719 26.9219 11.5085C26.5986 11.8321 26.2754 12.1559 25.9524 12.4797C25.5486 12.8844 25.1446 13.2888 24.7406 13.6933C24.0196 14.4151 23.2989 15.1372 22.5783 15.8594C22.683 16.092 22.7981 16.255 22.9782 16.4349C23.0533 16.5105 23.0533 16.5105 23.1299 16.5876C23.2122 16.6692 23.2122 16.6692 23.2961 16.7524C23.3539 16.8104 23.4117 16.8683 23.4713 16.9281C23.6624 17.1195 23.8542 17.3104 24.0459 17.5013C24.1786 17.6339 24.3113 17.7666 24.444 17.8993C24.722 18.1772 25.0003 18.4548 25.2788 18.7323C25.6367 19.0888 25.9941 19.4459 26.3513 19.8031C26.6252 20.077 26.8992 20.3507 27.1734 20.6242C27.3053 20.7559 27.4372 20.8876 27.569 21.0194C27.7527 21.2029 27.9366 21.3861 28.1206 21.5693C28.1756 21.6244 28.2306 21.6794 28.2873 21.7361C28.3371 21.7856 28.3869 21.8351 28.4383 21.8861C28.4818 21.9295 28.5253 21.9729 28.5701 22.0176C28.6589 22.1181 28.6589 22.1181 28.7502 22.1094C28.7502 18.036 28.7502 13.9625 28.7502 9.76566C28.6581 9.75691 28.6581 9.75691 28.5673 9.86083ZM20.7814 16.7969C20.7298 16.812 20.6781 16.8272 20.6249 16.8428C19.9431 17.0424 19.2612 17.242 18.5793 17.4414C18.5233 17.4578 18.4674 17.4742 18.4098 17.491C17.0139 17.8994 15.6177 18.3066 14.2208 18.7113C14.1604 18.7288 14.1 18.7463 14.0378 18.7643C13.4507 18.9343 12.8635 19.1043 12.2763 19.274C11.0991 19.6143 9.92277 19.9567 8.75018 20.3125C8.82483 20.4002 8.89957 20.4879 8.97435 20.5755C9.01596 20.6243 9.05757 20.6731 9.10044 20.7234C9.23582 20.8788 9.37833 21.0238 9.52655 21.167C9.72485 21.3624 9.91286 21.5603 10.093 21.7725C10.3474 22.0691 10.621 22.3427 10.8986 22.6172C11.2137 22.9288 11.5153 23.2434 11.8019 23.5816C12.0127 23.8161 12.2369 24.0362 12.4611 24.2579C12.7762 24.5694 13.0778 24.884 13.3644 25.2222C13.5752 25.4568 13.7994 25.6768 14.0236 25.8985C14.3387 26.21 14.6403 26.5246 14.9269 26.8628C15.1377 27.0974 15.3619 27.3174 15.5861 27.5391C15.9012 27.8506 16.2028 28.1653 16.4894 28.5035C16.7002 28.738 16.9244 28.9581 17.1486 29.1797C17.4181 29.4462 17.6846 29.7107 17.9299 30C18.2955 30.4312 18.7057 30.8215 19.1078 31.2182C19.2234 31.3326 19.3384 31.4475 19.4533 31.5625C19.5676 31.334 19.5691 31.0946 19.5918 30.8433C19.5973 30.7847 19.6029 30.726 19.6086 30.6656C19.6272 30.468 19.6453 30.2703 19.6635 30.0727C19.6767 29.9314 19.6899 29.7902 19.7031 29.6489C19.7391 29.2644 19.7746 28.8799 19.8101 28.4954C19.8397 28.1749 19.8695 27.8543 19.8993 27.5338C19.9695 26.7778 20.0394 26.0218 20.109 25.2657C20.181 24.4848 20.2536 23.7039 20.3265 22.9231C20.3889 22.2535 20.451 21.584 20.5128 20.9143C20.5497 20.514 20.5868 20.1137 20.6242 19.7135C20.6594 19.3372 20.6942 18.9608 20.7285 18.5845C20.7412 18.4461 20.7541 18.3077 20.7672 18.1694C20.7849 17.981 20.8021 17.7926 20.8191 17.6042C20.8244 17.549 20.8297 17.4939 20.8352 17.4371C20.8567 17.1928 20.86 17.0328 20.7814 16.7969ZM22.1096 17.5C21.9407 19.0312 21.7888 20.5635 21.6463 22.0974C21.6242 22.3351 21.6021 22.5728 21.5799 22.8105C21.5276 23.3707 21.4756 23.931 21.4236 24.4912C21.3702 25.0666 21.3165 25.6419 21.2626 26.2173C21.2159 26.7157 21.1695 27.2142 21.1233 27.7126C21.0958 28.0085 21.0683 28.3044 21.0405 28.6002C21.0145 28.877 20.9888 29.1538 20.9633 29.4306C20.9495 29.5796 20.9355 29.7285 20.9214 29.8775C20.8793 30.3372 20.8491 30.7883 20.8596 31.25C21.2986 30.8846 21.7039 30.4945 22.1068 30.0898C22.1747 30.0219 22.2426 29.954 22.3125 29.8841C22.4971 29.6994 22.6816 29.5146 22.8659 29.3297C23.0592 29.136 23.2527 28.9424 23.4462 28.7489C23.8118 28.383 24.1772 28.0169 24.5426 27.6507C24.9589 27.2336 25.3754 26.8167 25.7919 26.3998C26.648 25.5428 27.5039 24.6856 28.3596 23.8282C28.2544 23.594 28.1379 23.4308 27.9567 23.2497C27.9059 23.1987 27.8552 23.1476 27.803 23.095C27.7474 23.0399 27.6918 22.9848 27.6346 22.928C27.5467 22.8399 27.5467 22.8399 27.4571 22.75C27.2634 22.556 27.0692 22.3626 26.8749 22.1692C26.7404 22.0348 26.6059 21.9004 26.4715 21.766C26.1898 21.4844 25.9078 21.2031 25.6257 20.9219C25.263 20.5606 24.9009 20.1988 24.539 19.8369C24.2615 19.5594 23.9838 19.2821 23.706 19.0049C23.5724 18.8715 23.4388 18.7381 23.3052 18.6046C23.1191 18.4186 22.9327 18.2329 22.7463 18.0473C22.6906 17.9915 22.6348 17.9358 22.5774 17.8783C22.5269 17.8282 22.4764 17.778 22.4244 17.7263C22.3803 17.6824 22.3362 17.6384 22.2908 17.5931C22.2012 17.4913 22.2012 17.4913 22.1096 17.5ZM14.4533 28.4375C14.3479 28.5517 14.3479 28.5517 14.2427 28.7046C14.1791 28.7923 14.1791 28.7923 14.1143 28.8819C14.0682 28.9463 14.0222 29.0108 13.9748 29.0772C13.8754 29.2143 13.7759 29.3513 13.6763 29.4883C13.6243 29.5598 13.5723 29.6313 13.5188 29.705C13.2622 30.0545 12.9984 30.3983 12.7346 30.7422C12.3387 31.2593 11.9475 31.7793 11.5627 32.3047C11.1744 32.8348 10.7799 33.3597 10.381 33.8819C10.329 33.9501 10.2769 34.0183 10.2233 34.0886C10.0221 34.3521 9.82086 34.6156 9.61939 34.8789C9.48554 35.0541 9.35217 35.2296 9.21893 35.4053C9.17904 35.4573 9.13914 35.5093 9.09804 35.5628C8.89593 35.8018 8.89593 35.8018 8.8283 36.0938C9.38454 35.9812 9.91281 35.8211 10.4503 35.6401C10.5396 35.6104 10.6288 35.5806 10.7208 35.55C10.9634 35.4691 11.206 35.3878 11.4485 35.3064C11.7027 35.2212 11.9571 35.1364 12.2114 35.0515C12.6921 34.891 13.1726 34.7302 13.6531 34.5693C14.2006 34.3859 14.7482 34.2029 15.2958 34.02C16.4213 33.644 17.5468 33.2675 18.6721 32.8907C18.6983 32.6349 18.6983 32.6349 18.4691 32.4332C18.3794 32.3459 18.2891 32.2592 18.1984 32.1729C18.1038 32.0808 18.0093 31.9885 17.9149 31.8961C17.8696 31.8517 17.8242 31.8074 17.7775 31.7617C17.6387 31.6229 17.5094 31.4784 17.383 31.3282C17.0967 30.9904 16.7804 30.6845 16.4658 30.3734C16.2404 30.1496 16.0214 29.9249 15.8156 29.6827C15.5737 29.3987 15.316 29.1324 15.0539 28.8672C15.0126 28.8249 14.9713 28.7826 14.9287 28.739C14.8254 28.6354 14.7178 28.5361 14.6096 28.4375C14.558 28.4375 14.5064 28.4375 14.4533 28.4375Z" fill="white"/>
</svg>
