<svg width="40" height="40" viewBox="0 0 40 40" fill="none" xmlns="http://www.w3.org/2000/svg">
<g clip-path="url(#clip0_2397_1242)">
<path d="M14.1786 -0.0209586C14.2302 -0.0213126 14.2819 -0.0216666 14.3351 -0.0220313C14.5086 -0.023022 14.682 -0.0228924 14.8554 -0.0227635C14.9797 -0.0232309 15.1039 -0.0237625 15.2281 -0.0243537C15.5658 -0.0257357 15.9034 -0.0261003 16.2411 -0.0261999C16.5228 -0.0263482 16.8046 -0.0269228 17.0863 -0.0274768C17.7508 -0.0287497 18.4153 -0.0291306 19.0798 -0.0290196C19.7658 -0.0289257 20.4517 -0.030575 21.1377 -0.033042C21.7263 -0.0350835 22.3148 -0.0359234 22.9034 -0.0358234C23.2551 -0.0357835 23.6068 -0.0362314 23.9585 -0.0378825C24.2892 -0.0393926 24.6198 -0.0394093 24.9505 -0.0382705C25.072 -0.0381068 25.1934 -0.0384781 25.3149 -0.0394206C25.4805 -0.0406231 25.6461 -0.0399039 25.8118 -0.038697C25.9509 -0.0388247 25.9509 -0.0388247 26.0928 -0.0389549C26.3777 0.00810054 26.4674 0.0857447 26.6407 0.312434C26.7138 0.531604 26.7284 0.662563 26.7277 0.888968C26.7277 0.957772 26.7277 1.02658 26.7277 1.09746C26.7273 1.17145 26.7269 1.24543 26.7265 1.32165C26.7263 1.4356 26.7263 1.4356 26.7262 1.55185C26.7257 1.79464 26.7247 2.03742 26.7237 2.28021C26.7234 2.44475 26.723 2.60929 26.7227 2.77383C26.7218 3.17732 26.7205 3.58082 26.7189 3.98431C26.7781 3.98395 26.8373 3.98359 26.8984 3.98322C28.3393 3.97459 29.7803 3.96813 31.2213 3.96407C31.9182 3.96206 32.615 3.95931 33.3119 3.95484C33.9192 3.95095 34.5266 3.94843 35.1339 3.94756C35.4555 3.94705 35.7771 3.94585 36.0987 3.94301C36.4015 3.94036 36.7042 3.93954 37.0069 3.94013C37.118 3.94002 37.2291 3.93924 37.3401 3.93774C37.4919 3.9358 37.6437 3.9365 37.7954 3.93733C37.8803 3.93697 37.9652 3.93661 38.0527 3.93624C38.3618 4.00122 38.479 4.12971 38.672 4.37493C38.7201 4.54135 38.7201 4.54135 38.719 4.7096C38.7198 4.80605 38.7198 4.80605 38.7206 4.90445C38.7192 4.97391 38.7178 5.04337 38.7163 5.11493C38.7164 5.1889 38.7165 5.26287 38.7165 5.33908C38.7162 5.58303 38.7132 5.82687 38.7101 6.0708C38.7094 6.24014 38.7089 6.40949 38.7085 6.57883C38.707 7.02414 38.7031 7.4694 38.6988 7.91469C38.6948 8.36923 38.693 8.82379 38.6911 9.27835C38.6869 10.1699 38.6802 11.0615 38.672 11.9531C38.7312 11.9518 38.7904 11.9506 38.8514 11.9493C38.929 11.9483 39.0065 11.9473 39.0864 11.9463C39.1633 11.9451 39.2403 11.9439 39.3195 11.9426C39.5781 11.9554 39.7265 12.018 39.922 12.1874C40.0097 12.3628 40.0117 12.4618 40.0152 12.6564C40.0164 12.7209 40.0177 12.7853 40.019 12.8516C40.0225 13.1464 40.0257 13.4411 40.0275 13.7359C40.0288 13.8913 40.0309 14.0468 40.0339 14.2021C40.0382 14.4263 40.0399 14.6503 40.041 14.8745C40.0428 14.9438 40.0446 15.013 40.0464 15.0844C40.0453 15.4042 40.0226 15.5858 39.8608 15.8671C39.576 16.0354 39.4496 16.0315 39.125 16.0248C39.0403 16.0235 38.9555 16.0222 38.8682 16.0208C38.8035 16.0191 38.7387 16.0173 38.672 16.0156C38.6721 16.0655 38.6722 16.1155 38.6723 16.167C38.6793 19.1268 38.6847 22.0867 38.6879 25.0466C38.6883 25.4018 38.6887 25.7569 38.6892 26.1121C38.6892 26.1828 38.6893 26.2535 38.6894 26.3264C38.6908 27.4722 38.6932 28.618 38.6961 29.7639C38.699 30.9391 38.7008 32.1143 38.7014 33.2895C38.7018 34.015 38.7032 34.7405 38.7057 35.466C38.7074 35.9632 38.7079 36.4603 38.7075 36.9574C38.7073 37.2445 38.7076 37.5315 38.7092 37.8186C38.711 38.1294 38.7104 38.4403 38.7096 38.7512C38.7105 38.8424 38.7114 38.9336 38.7123 39.0275C38.7117 39.1106 38.7111 39.1937 38.7104 39.2793C38.7106 39.3511 38.7107 39.4229 38.7108 39.4968C38.6571 39.7606 38.5805 39.8466 38.3595 39.9999C38.1453 40.0306 37.9625 40.042 37.7485 40.0393C37.6862 40.0397 37.6239 40.0402 37.5598 40.0406C37.3498 40.0418 37.14 40.0407 36.93 40.0396C36.7785 40.04 36.627 40.0405 36.4755 40.0411C36.0582 40.0424 35.6408 40.0418 35.2235 40.0408C34.7738 40.0401 34.3241 40.0412 33.8744 40.042C32.9931 40.0434 32.1117 40.0431 31.2304 40.0422C30.5143 40.0415 29.7983 40.0414 29.0822 40.0417C28.9804 40.0418 28.8787 40.0418 28.7738 40.0419C28.5671 40.042 28.3603 40.0421 28.1536 40.0422C26.2688 40.0431 24.384 40.0422 22.4992 40.0405C20.7778 40.039 19.0565 40.0392 17.3351 40.0407C15.4021 40.0423 13.469 40.043 11.536 40.042C11.33 40.0419 11.124 40.0418 10.918 40.0417C10.8167 40.0417 10.7153 40.0417 10.6109 40.0416C9.89538 40.0413 9.17989 40.0418 8.46439 40.0425C7.59286 40.0434 6.72134 40.0432 5.84981 40.0415C5.40484 40.0407 4.95989 40.0404 4.51492 40.0414C4.108 40.0423 3.70111 40.0418 3.2942 40.0401C3.14658 40.0398 2.99895 40.04 2.85133 40.0407C2.65144 40.0417 2.45165 40.0407 2.25177 40.0393C2.19377 40.04 2.13577 40.0407 2.07602 40.0415C1.81651 40.0377 1.66409 40.0161 1.4487 39.8667C1.30421 39.6517 1.28936 39.537 1.28979 39.2793C1.28917 39.1962 1.28854 39.1131 1.2879 39.0275C1.28881 38.9363 1.28972 38.8451 1.29066 38.7512C1.29039 38.6542 1.29013 38.5573 1.28985 38.4574C1.28943 38.1882 1.2904 37.9191 1.29197 37.6499C1.29332 37.3596 1.29286 37.0694 1.29263 36.7792C1.29246 36.2763 1.29344 35.7734 1.2952 35.2705C1.29774 34.5433 1.29855 33.8162 1.29895 33.0891C1.29963 31.9095 1.30171 30.7298 1.30467 29.5501C1.30753 28.4041 1.30975 27.2581 1.31107 26.1121C1.31116 26.0415 1.31124 25.9709 1.31132 25.8981C1.31173 25.5438 1.31213 25.1895 1.31251 24.8352C1.31575 21.8953 1.32126 18.9554 1.32824 16.0156C1.26347 16.0173 1.19871 16.019 1.13198 16.0208C1.04723 16.0221 0.962484 16.0235 0.875168 16.0249C0.749015 16.0274 0.749015 16.0274 0.620314 16.0301C0.39074 16.0156 0.39074 16.0156 0.139905 15.8668C-0.0539867 15.5313 -0.0547635 15.2615 -0.0490179 14.88C-0.0492064 14.8085 -0.0493948 14.7369 -0.0495889 14.6632C-0.0495126 14.5124 -0.0484686 14.3616 -0.0465193 14.2107C-0.0438354 13.9799 -0.0449067 13.7493 -0.0464239 13.5185C-0.0458851 13.3717 -0.0451295 13.225 -0.0441351 13.0782C-0.0445226 13.0093 -0.0449101 12.9404 -0.0453093 12.8693C-0.0361323 12.3916 -0.0361323 12.3916 0.149365 12.1464C0.420999 11.9547 0.577492 11.9443 0.908318 11.9482C1.02584 11.9492 1.02584 11.9492 1.14575 11.9503C1.23608 11.9517 1.23608 11.9517 1.32824 11.9531C1.32737 11.859 1.32651 11.7649 1.32561 11.668C1.3177 10.7817 1.31184 9.89542 1.308 9.0091C1.30596 8.55343 1.3032 8.09778 1.29877 7.64213C1.29453 7.20244 1.29219 6.76277 1.29118 6.32306C1.29046 6.15526 1.28905 5.98746 1.28694 5.81967C1.28411 5.58472 1.28371 5.34989 1.28389 5.11493C1.28249 5.04547 1.28109 4.97601 1.27964 4.90445C1.28018 4.84015 1.28071 4.77585 1.28127 4.7096C1.28091 4.65408 1.28055 4.59856 1.28018 4.54135C1.35716 4.27482 1.50503 4.15455 1.71887 3.98431C1.94751 3.93624 1.94751 3.93624 2.2048 3.93733C2.35154 3.93653 2.35154 3.93653 2.50124 3.93571C2.60903 3.93709 2.71682 3.93851 2.82461 3.93996C2.93859 3.94007 3.05256 3.94001 3.16653 3.93979C3.47547 3.93968 3.78435 3.94197 4.09328 3.9447C4.41629 3.94715 4.73931 3.94737 5.06234 3.94784C5.67382 3.94905 6.28527 3.95226 6.89673 3.95618C7.59295 3.96054 8.28918 3.96269 8.98541 3.96465C10.4174 3.96873 11.8494 3.9756 13.2814 3.98431C13.2805 3.88222 13.2797 3.78014 13.2789 3.67496C13.2761 3.29568 13.2743 2.9164 13.2728 2.53711C13.272 2.37305 13.2709 2.20899 13.2696 2.04494C13.2677 1.80892 13.2668 1.57293 13.2661 1.33691C13.2653 1.26373 13.2645 1.19056 13.2637 1.11517C13.2635 0.451345 13.2635 0.451345 13.4376 0.156184C13.7187 -0.0311928 13.8443 -0.0200147 14.1786 -0.0209586ZM14.6876 1.40618C14.6876 4.88665 14.6876 8.36712 14.6876 11.9531C18.1939 11.9531 21.7001 11.9531 25.3126 11.9531C25.3126 8.47259 25.3126 4.99212 25.3126 1.40618C21.8064 1.40618 18.3001 1.40618 14.6876 1.40618ZM2.73449 5.39056C2.73449 7.55618 2.73449 9.72181 2.73449 11.9531C6.21496 11.9531 9.69543 11.9531 13.2814 11.9531C13.2814 9.78743 13.2814 7.62181 13.2814 5.39056C9.8009 5.39056 6.32043 5.39056 2.73449 5.39056ZM26.7189 5.39056C26.7189 7.55618 26.7189 9.72181 26.7189 11.9531C30.1993 11.9531 33.6798 11.9531 37.2657 11.9531C37.2657 9.78743 37.2657 7.62181 37.2657 5.39056C33.7853 5.39056 30.3048 5.39056 26.7189 5.39056ZM1.40637 13.3593C1.40637 13.7718 1.40637 14.1843 1.40637 14.6093C13.6782 14.6093 25.9501 14.6093 38.5939 14.6093C38.5939 14.1968 38.5939 13.7843 38.5939 13.3593C26.322 13.3593 14.0501 13.3593 1.40637 13.3593ZM2.73449 16.0156C2.73449 23.4663 2.73449 30.9171 2.73449 38.5937C9.30871 38.5937 15.8829 38.5937 22.6564 38.5937C22.679 32.3822 22.679 32.3822 22.7007 26.1706C22.7054 24.9716 22.7054 24.9716 22.7076 24.411C22.7092 24.0179 22.7105 23.6248 22.7117 23.2317C22.7132 22.7311 22.7151 22.2304 22.7173 21.7298C22.7181 21.5455 22.7187 21.3613 22.7191 21.1771C22.7198 20.9292 22.7209 20.6813 22.7221 20.4334C22.7222 20.3241 22.7222 20.3241 22.7224 20.2126C22.723 20.1131 22.723 20.1131 22.7237 20.0115C22.7239 19.9542 22.7241 19.8969 22.7243 19.8378C22.7345 19.6874 22.7345 19.6874 22.8126 19.4531C23.0549 19.3573 23.3001 19.3646 23.558 19.3634C23.6461 19.3629 23.7342 19.3623 23.8249 19.3617C23.9212 19.3615 24.0174 19.3613 24.1166 19.3611C24.2183 19.3606 24.3199 19.3601 24.4247 19.3596C24.7613 19.3579 25.098 19.3571 25.4347 19.3563C25.5507 19.356 25.6666 19.3557 25.7826 19.3554C26.3272 19.3539 26.8719 19.3528 27.4165 19.3521C28.0452 19.3513 28.6738 19.3493 29.3025 19.3461C29.7886 19.3438 30.2747 19.3426 30.7607 19.3424C31.051 19.3422 31.3413 19.3415 31.6316 19.3395C31.9552 19.3374 32.2787 19.3377 32.6023 19.3382C32.6986 19.3372 32.7949 19.3362 32.8941 19.3352C33.0262 19.336 33.0262 19.336 33.161 19.3368C33.2375 19.3366 33.314 19.3365 33.3928 19.3363C33.6526 19.3862 33.7436 19.4829 33.9064 19.6874C33.9772 19.9 33.9945 20.0238 33.9953 20.2423C33.9958 20.3078 33.9962 20.3733 33.9966 20.4408C33.9967 20.5487 33.9967 20.5487 33.9969 20.6588C33.9972 20.7353 33.9976 20.8117 33.998 20.8905C33.9992 21.1478 33.9999 21.4051 34.0005 21.6624C34.0013 21.8464 34.0021 22.0304 34.0029 22.2144C34.005 22.7149 34.0066 23.2154 34.0082 23.716C34.0097 24.1857 34.0116 24.6555 34.0135 25.1253C34.0172 26.0558 34.0206 26.9864 34.0238 27.917C34.0268 28.821 34.0301 29.725 34.0335 30.6291C34.0337 30.6848 34.034 30.7405 34.0342 30.7979C34.0352 31.0774 34.0363 31.3569 34.0374 31.6363C34.0463 33.9555 34.0546 36.2746 34.0626 38.5937C35.1196 38.5937 36.1767 38.5937 37.2657 38.5937C37.2657 31.1429 37.2657 23.6921 37.2657 16.0156C25.8704 16.0156 14.4751 16.0156 2.73449 16.0156ZM24.0626 20.7031C24.0626 21.7859 24.0626 22.8687 24.0626 23.9843C26.8986 23.9843 29.7345 23.9843 32.6564 23.9843C32.6564 22.9015 32.6564 21.8187 32.6564 20.7031C29.8204 20.7031 26.9845 20.7031 24.0626 20.7031ZM24.0626 25.3906C24.0626 27.5562 24.0626 29.7218 24.0626 31.9531C26.8986 31.9531 29.7345 31.9531 32.6564 31.9531C32.6564 29.7874 32.6564 27.6218 32.6564 25.3906C29.8204 25.3906 26.9845 25.3906 24.0626 25.3906ZM24.0626 33.3593C24.0626 35.0867 24.0626 36.814 24.0626 38.5937C26.8986 38.5937 29.7345 38.5937 32.6564 38.5937C32.6564 36.8663 32.6564 35.139 32.6564 33.3593C29.8204 33.3593 26.9845 33.3593 24.0626 33.3593Z" fill="white"/>
<path d="M8.13368 19.2761C8.21627 19.2754 8.29885 19.2747 8.38394 19.2741C8.47453 19.2741 8.56512 19.2742 8.65845 19.2743C8.75387 19.2737 8.84929 19.2732 8.9476 19.2727C9.20943 19.2714 9.47123 19.2709 9.73306 19.2708C9.95167 19.2707 10.1703 19.2701 10.3889 19.2696C10.9047 19.2683 11.4205 19.2679 11.9363 19.268C12.4683 19.2681 13.0003 19.2665 13.5322 19.264C13.989 19.2619 14.4458 19.2611 14.9027 19.2612C15.1754 19.2612 15.4482 19.2608 15.721 19.2591C16.0253 19.2574 16.3296 19.2581 16.6339 19.259C16.7242 19.2581 16.8145 19.2573 16.9075 19.2563C17.5161 19.2612 17.5161 19.2612 17.8276 19.4409C18.0434 19.6986 18.0566 19.9068 18.0563 20.2309C18.0565 20.3507 18.0565 20.3507 18.0566 20.4729C18.0564 20.5605 18.0561 20.648 18.0558 20.7382C18.0558 20.8305 18.0558 20.9227 18.0558 21.0177C18.0558 21.2706 18.0554 21.5235 18.0548 21.7765C18.0544 22.0408 18.0543 22.3051 18.0542 22.5694C18.054 23.0699 18.0533 23.5705 18.0525 24.071C18.0517 24.6408 18.0512 25.2106 18.0509 25.7805C18.05 26.9526 18.0487 28.1248 18.0469 29.297C18.1061 29.2953 18.1653 29.2936 18.2263 29.2918C18.3427 29.2898 18.3427 29.2898 18.4613 29.2878C18.5383 29.2861 18.6152 29.2844 18.6945 29.2827C18.9788 29.3019 19.1106 29.3982 19.2969 29.6095C19.3902 29.796 19.3859 29.9132 19.3876 30.1215C19.3884 30.1953 19.3891 30.2691 19.3899 30.3451C19.3904 30.4651 19.3904 30.4651 19.3909 30.5876C19.3914 30.6696 19.3918 30.7517 19.3923 30.8363C19.393 31.0103 19.3935 31.1842 19.3938 31.3582C19.3946 31.6242 19.397 31.8901 19.3995 32.156C19.4 32.3249 19.4004 32.4938 19.4007 32.6627C19.4016 32.7423 19.4026 32.8218 19.4036 32.9037C19.4013 33.6238 19.4013 33.6238 19.1407 33.9063C18.8351 34.0594 18.583 34.0823 18.2435 34.083C18.1411 34.0835 18.0387 34.0841 17.9332 34.0846C17.8203 34.0845 17.7073 34.0843 17.5944 34.084C17.475 34.0844 17.3556 34.0848 17.2363 34.0853C16.9125 34.0863 16.5887 34.0863 16.2649 34.0862C15.9944 34.0861 15.724 34.0864 15.4535 34.0868C14.8154 34.0877 14.1773 34.0877 13.5393 34.0873C12.8813 34.0868 12.2233 34.0877 11.5653 34.0894C11.0001 34.0908 10.4348 34.0913 9.8696 34.091C9.53214 34.0909 9.1947 34.0911 8.85724 34.0921C8.53988 34.0931 8.22254 34.093 7.90519 34.092C7.78885 34.0918 7.67251 34.092 7.55618 34.0926C7.39711 34.0934 7.23804 34.0927 7.07897 34.0918C6.99003 34.0918 6.9011 34.0919 6.80947 34.0919C6.52596 34.0583 6.33756 33.9747 6.09379 33.8282C5.86557 33.4824 5.91366 33.0472 5.91405 32.6469C5.91371 32.5705 5.91338 32.4941 5.91303 32.4155C5.91258 32.2543 5.91254 32.093 5.91288 31.9318C5.91313 31.6858 5.9113 31.4398 5.90932 31.1938C5.90914 31.0369 5.90908 30.88 5.90916 30.7231C5.90844 30.6498 5.90772 30.5765 5.90698 30.5011C5.90985 30.0945 5.9383 29.8018 6.17192 29.4532C6.43918 29.275 6.53769 29.2798 6.85063 29.2872C6.92828 29.2886 7.00592 29.29 7.08592 29.2915C7.14524 29.2933 7.20455 29.2951 7.26567 29.297C7.26545 29.2491 7.26524 29.2012 7.26501 29.1519C7.25984 27.986 7.25596 26.8201 7.25353 25.6542C7.25232 25.0904 7.25067 24.5266 7.24799 23.9628C7.24565 23.4713 7.24414 22.9798 7.24362 22.4883C7.24331 22.2281 7.24247 21.9679 7.24089 21.7077C7.23919 21.4171 7.23895 21.1264 7.23906 20.8358C7.23822 20.7498 7.23738 20.6638 7.23651 20.5752C7.23825 20.1456 7.24577 19.8185 7.50004 19.4532C7.75754 19.2815 7.83457 19.2772 8.13368 19.2761ZM8.67192 20.7032C8.67192 23.5392 8.67192 26.3751 8.67192 29.297C11.3016 29.297 13.9313 29.297 16.6407 29.297C16.6407 26.461 16.6407 23.6251 16.6407 20.7032C14.011 20.7032 11.3813 20.7032 8.67192 20.7032ZM7.34379 30.7032C7.34379 31.3477 7.34379 31.9923 7.34379 32.6563C10.85 32.6563 14.3563 32.6563 17.9688 32.6563C17.9688 32.0118 17.9688 31.3673 17.9688 30.7032C14.4625 30.7032 10.9563 30.7032 7.34379 30.7032Z" fill="white"/>
<path d="M19.1016 2.60445C19.1729 2.60407 19.2443 2.6037 19.3178 2.60331C19.4683 2.60305 19.6188 2.60377 19.7693 2.6054C19.9993 2.60749 20.229 2.60542 20.459 2.60292C20.6055 2.60318 20.7519 2.60368 20.8984 2.60445C20.967 2.60366 21.0355 2.60287 21.1061 2.60205C21.4456 2.60854 21.5985 2.62556 21.8799 2.83114C22.0403 3.05988 22.0782 3.15287 22.0694 3.4269C22.0681 3.49613 22.0669 3.56537 22.0656 3.6367C22.0623 3.70795 22.059 3.77921 22.0557 3.85262C22.0539 3.92538 22.0521 3.99814 22.0503 4.07311C22.0457 4.25202 22.0393 4.43067 22.0312 4.60945C22.1273 4.60673 22.2234 4.60401 22.3224 4.60121C22.4499 4.59901 22.5775 4.59688 22.7051 4.5948C22.7682 4.59284 22.8314 4.59088 22.8964 4.58885C23.2891 4.58406 23.5746 4.60865 23.9062 4.84383C24.0901 5.18039 24.0864 5.51701 24.086 5.89119C24.0863 5.95387 24.0867 6.01655 24.087 6.08113C24.0875 6.21325 24.0875 6.34536 24.0872 6.47747C24.0869 6.67911 24.0887 6.88066 24.0907 7.08229C24.0909 7.21097 24.091 7.33966 24.0909 7.46834C24.0916 7.52833 24.0923 7.58831 24.0931 7.65012C24.0892 8.10327 23.9892 8.35464 23.6719 8.67195C23.5035 8.68969 23.5035 8.68969 23.2977 8.68721C23.2242 8.68671 23.1507 8.6862 23.0749 8.68569C22.998 8.68438 22.9211 8.68307 22.8418 8.68172C22.7642 8.68101 22.6867 8.68031 22.6068 8.67958C22.4149 8.67774 22.2231 8.67516 22.0312 8.67195C22.0321 8.71765 22.0329 8.76334 22.0337 8.81043C22.037 9.01817 22.039 9.22591 22.041 9.43367C22.0423 9.50558 22.0436 9.57748 22.045 9.65157C22.0455 9.72106 22.046 9.79054 22.0465 9.86214C22.0473 9.92596 22.0481 9.98979 22.049 10.0555C22.0288 10.2593 21.9898 10.3774 21.875 10.547C21.6585 10.6773 21.4964 10.7228 21.2451 10.7234C21.1528 10.7242 21.1528 10.7242 21.0586 10.7249C20.96 10.7244 20.96 10.7244 20.8594 10.724C20.7912 10.7241 20.723 10.7243 20.6528 10.7244C20.5088 10.7245 20.3649 10.7242 20.2209 10.7236C20.0008 10.7227 19.7807 10.7236 19.5605 10.7246C19.4206 10.7245 19.2806 10.7243 19.1406 10.724C19.042 10.7244 19.042 10.7244 18.9413 10.7249C18.849 10.7242 18.849 10.7242 18.7549 10.7234C18.701 10.7233 18.6471 10.7232 18.5916 10.723C18.4078 10.6994 18.2832 10.6422 18.125 10.547C17.9701 10.3183 17.95 10.1345 17.9535 9.86214C17.954 9.79265 17.9545 9.72316 17.955 9.65157C17.9563 9.57966 17.9576 9.50776 17.959 9.43367C17.9597 9.36056 17.9604 9.28744 17.9611 9.21211C17.963 9.03204 17.9655 8.85201 17.9687 8.67195C17.8966 8.67441 17.8966 8.67441 17.8231 8.67691C17.6047 8.68342 17.3864 8.68748 17.168 8.69148C17.0923 8.6941 17.0167 8.69672 16.9388 8.69942C16.3784 8.70715 16.3784 8.70715 16.1243 8.52913C15.9095 8.19369 15.9237 7.87101 15.9216 7.48634C15.9212 7.42363 15.9207 7.36091 15.9203 7.29629C15.9195 7.16358 15.919 7.03086 15.9187 6.89814C15.918 6.69598 15.9155 6.49388 15.9131 6.29173C15.9126 6.16259 15.9122 6.03345 15.9119 5.90431C15.9109 5.84424 15.9099 5.78416 15.9089 5.72227C15.9105 5.34679 15.9658 5.09178 16.1719 4.7657C16.5084 4.54715 16.9026 4.59174 17.29 4.59969C17.3553 4.60039 17.4207 4.6011 17.4879 4.60182C17.6482 4.60365 17.8085 4.60646 17.9687 4.60945C17.9667 4.56416 17.9647 4.51888 17.9625 4.47222C17.9544 4.26571 17.9493 4.05923 17.9443 3.85262C17.9411 3.78137 17.9378 3.71011 17.9344 3.6367C17.9332 3.56747 17.9319 3.49823 17.9306 3.4269C17.9286 3.36348 17.9265 3.30007 17.9244 3.23473C18.0714 2.6121 18.5683 2.59829 19.1016 2.60445ZM19.375 4.06258C19.3679 4.21787 19.3679 4.21787 19.3607 4.3763C19.3541 4.51261 19.3474 4.64892 19.3408 4.78523C19.3377 4.85341 19.3347 4.92159 19.3315 4.99184C19.3282 5.0578 19.325 5.12376 19.3216 5.19173C19.3187 5.25228 19.3159 5.31283 19.3129 5.37521C19.2968 5.54784 19.2798 5.69683 19.2187 5.85945C18.9957 5.9338 18.8352 5.95243 18.6026 5.9623C18.5293 5.96557 18.4561 5.96884 18.3806 5.97221C18.3043 5.97529 18.228 5.97836 18.1494 5.98152C18.0722 5.9849 17.995 5.98827 17.9155 5.99175C17.7249 6.00003 17.5343 6.00791 17.3437 6.0157C17.3437 6.4282 17.3437 6.8407 17.3437 7.2657C17.4407 7.26953 17.5377 7.27336 17.6376 7.2773C17.7659 7.28316 17.8942 7.28907 18.0225 7.295C18.0863 7.29742 18.1501 7.29983 18.2158 7.30232C18.8598 7.33361 18.8598 7.33361 19.1406 7.50008C19.2791 7.72526 19.3186 7.9056 19.3292 8.1678C19.3322 8.23377 19.3353 8.29973 19.3384 8.36769C19.3408 8.43587 19.3432 8.50405 19.3457 8.5743C19.3487 8.64368 19.3517 8.71307 19.3549 8.78456C19.3622 8.95533 19.3687 9.12614 19.375 9.29695C19.7875 9.29695 20.2 9.29695 20.625 9.29695C20.6288 9.19342 20.6326 9.0899 20.6366 8.98323C20.6425 8.84692 20.6484 8.71061 20.6543 8.5743C20.6567 8.50612 20.6591 8.43794 20.6616 8.36769C20.6646 8.30173 20.6677 8.23576 20.6708 8.1678C20.6732 8.10725 20.6757 8.0467 20.6782 7.98431C20.7059 7.79318 20.7584 7.66421 20.8594 7.50008C21.2027 7.29657 21.589 7.30972 21.9775 7.295C22.0755 7.29047 22.0755 7.29047 22.1754 7.28584C22.3357 7.27852 22.496 7.27203 22.6562 7.2657C22.6562 6.8532 22.6562 6.4407 22.6562 6.0157C22.4827 6.0086 22.4827 6.0086 22.3056 6.00136C22.1539 5.99476 22.0023 5.98815 21.8506 5.98152C21.7743 5.97845 21.698 5.97538 21.6194 5.97221C21.5095 5.96731 21.5095 5.96731 21.3974 5.9623C21.3299 5.95943 21.2624 5.95657 21.1928 5.95362C21.0156 5.93758 21.0156 5.93758 20.7812 5.85945C20.6994 5.64156 20.6893 5.42284 20.6784 5.19173C20.6751 5.12576 20.6719 5.0598 20.6685 4.99184C20.6654 4.92366 20.6623 4.85548 20.6592 4.78523C20.6558 4.71585 20.6524 4.64646 20.6489 4.57497C20.6407 4.40418 20.6328 4.23338 20.625 4.06258C20.2125 4.06258 19.8 4.06258 19.375 4.06258Z" fill="white"/>
<path d="M15 23.3593C15.2044 23.514 15.2943 23.621 15.3808 23.8622C15.3965 24.1839 15.2886 24.3886 15.0832 24.633C15.0215 24.6943 14.9599 24.7557 14.8964 24.8189C14.8265 24.889 14.7566 24.9591 14.6847 25.0313C14.6083 25.1067 14.5319 25.1821 14.4555 25.2575C14.3773 25.3355 14.2991 25.4136 14.2209 25.4917C14.0573 25.6549 13.8934 25.8177 13.7291 25.9803C13.5184 26.1887 13.3084 26.3979 13.0986 26.6073C12.9373 26.7684 12.7757 26.9292 12.6141 27.0899C12.5365 27.167 12.459 27.2441 12.3816 27.3213C12.2735 27.4288 12.1651 27.536 12.0567 27.6433C11.9951 27.7044 11.9334 27.7655 11.8699 27.8284C11.6818 28.003 11.5993 28.0427 11.3428 28.0712C11.0366 28.0412 10.9208 27.9458 10.7031 27.7343C10.5912 27.5104 10.601 27.3583 10.625 27.1093C10.8834 26.645 11.2617 26.2925 11.6351 25.9194C11.7029 25.8513 11.7707 25.7831 11.8406 25.7129C11.9837 25.5694 12.127 25.4261 12.2705 25.2829C12.4896 25.064 12.7077 24.8441 12.9257 24.6241C13.0651 24.4845 13.2046 24.345 13.3441 24.2055C13.4091 24.1399 13.474 24.0742 13.5409 24.0065C14.3929 23.1613 14.3929 23.1613 15 23.3593Z" fill="white"/>
<path d="M13.0469 22.0313C13.2707 22.2322 13.348 22.355 13.3984 22.6514C13.3191 23.1373 12.9558 23.474 12.6172 23.8099C12.5768 23.8504 12.5363 23.891 12.4947 23.9328C12.4098 24.0178 12.3247 24.1027 12.2394 24.1873C12.1092 24.3166 11.9799 24.4468 11.8506 24.5771C11.7676 24.6599 11.6846 24.7427 11.6016 24.8255C11.5631 24.8642 11.5247 24.903 11.4851 24.9429C11.0419 25.3802 11.0419 25.3802 10.7004 25.3998C10.2747 25.349 10.2747 25.349 10.083 25.1758C9.95857 24.9123 9.89198 24.7215 9.96874 24.4337C10.1192 24.1381 10.3288 23.9361 10.5637 23.7049C10.6114 23.6571 10.6592 23.6092 10.7084 23.56C10.8092 23.4594 10.9103 23.3591 11.0116 23.259C11.1669 23.1056 11.321 22.9512 11.4751 22.7967C11.5732 22.699 11.6714 22.6013 11.7697 22.5037C11.8159 22.4575 11.862 22.4113 11.9096 22.3636C12.2967 21.9832 12.5119 21.8999 13.0469 22.0313Z" fill="white"/>
<path d="M31.2354 27.5292C31.4836 27.869 31.4416 28.3496 31.4062 28.7499C31.3139 29.0085 31.2464 29.1575 31.0352 29.331C30.7705 29.3972 30.5757 29.3626 30.3125 29.2968C30.1256 29.1667 30.017 29.0674 29.9702 28.8393C29.9579 28.6652 29.9574 28.4947 29.9609 28.3203C29.9597 28.2609 29.9585 28.2016 29.9573 28.1405C29.9593 27.8452 29.9646 27.702 30.1495 27.4627C30.5256 27.1881 30.8629 27.2467 31.2354 27.5292Z" fill="white"/>
</g>
<defs>
<clipPath id="clip0_2397_1242">
<rect width="40" height="40" fill="white"/>
</clipPath>
</defs>
</svg>
