<svg width="40" height="40" viewBox="0 0 40 40" fill="none" xmlns="http://www.w3.org/2000/svg">
<g clip-path="url(#clip0_2397_1255)">
<path d="M18.3061 -0.0137727C18.4279 -0.0152769 18.4279 -0.0152769 18.552 -0.0168114C18.6827 -0.017677 18.6827 -0.017677 18.8159 -0.0185602C18.9519 -0.0195061 18.9519 -0.0195061 19.0907 -0.0204711C19.2827 -0.0215508 19.4747 -0.0223892 19.6667 -0.0230043C19.8618 -0.023902 20.0568 -0.0254961 20.2518 -0.0278108C20.5349 -0.0311696 20.8179 -0.0324118 21.1011 -0.0332086C21.1869 -0.0345764 21.2727 -0.0359442 21.3611 -0.0373535C22.5874 -0.0339817 23.6379 0.427866 24.5312 1.25006C25.7044 2.48556 25.9005 3.86229 25.8899 5.49108C25.8887 5.72336 25.8899 5.95553 25.8914 6.1878C25.8913 6.33754 25.891 6.48728 25.8905 6.63702C25.891 6.70539 25.8915 6.77377 25.8919 6.84422C25.8845 7.5029 25.7447 8.06427 25.2875 8.55444C24.8246 8.96887 24.377 9.07351 23.7695 9.06744C23.6781 9.06673 23.5866 9.06603 23.4924 9.0653C23.3879 9.06394 23.3879 9.06394 23.2812 9.06256C23.278 9.15924 23.2748 9.25591 23.2715 9.35552C23.1865 10.0933 22.8141 10.7001 22.2449 11.1634C22.1094 11.2501 22.1094 11.2501 21.9531 11.2501C21.9531 11.3532 21.9531 11.4563 21.9531 11.5626C22.0119 11.5589 22.0708 11.5553 22.1313 11.5516C23.4784 11.5058 24.6332 11.9048 25.6365 12.8154C26.1223 13.2786 26.4733 13.8298 26.834 14.392C26.9612 14.59 27.0903 14.7868 27.2199 14.9834C27.5933 15.5506 27.9633 16.12 28.3309 16.691C28.5636 17.0524 28.7984 17.4122 29.0347 17.7713C29.124 17.9083 29.2125 18.0458 29.3 18.1839C29.8972 19.1702 29.8972 19.1702 30.8857 19.7007C31.4027 19.8621 31.7682 20.3061 32.0312 20.7618C32.3517 21.3805 32.3643 22.1331 32.215 22.8068C31.9278 23.5958 31.3699 24.0926 30.625 24.4532C29.9562 24.6875 29.0338 24.5948 28.3954 24.3226C27.5068 23.843 26.9987 23.1034 26.4844 22.2608C26.3816 22.0943 26.2788 21.9279 26.1758 21.7615C26.0977 21.6349 26.0977 21.6349 26.018 21.5056C25.7649 21.0977 25.5072 20.6928 25.249 20.2881C25.2027 20.2155 25.1565 20.1428 25.1088 20.0679C24.9441 19.8096 24.7793 19.5518 24.6094 19.2969C24.5032 21.2132 24.6333 23.0482 24.9512 24.9412C24.9597 24.9921 24.9683 25.0431 24.9771 25.0957C25.0829 25.7233 25.1932 26.3502 25.3053 26.9767C25.4114 27.5708 25.5139 28.1655 25.6165 28.7603C25.7212 29.3675 25.8263 29.9747 25.9336 30.5814C25.9497 30.6723 25.9657 30.7632 25.9823 30.8568C26.0122 31.0264 26.0424 31.196 26.0727 31.3655C26.0859 31.44 26.099 31.5144 26.1126 31.5912C26.1298 31.6881 26.1298 31.6881 26.1475 31.7871C26.1719 31.9532 26.1719 31.9532 26.1719 32.1876C26.2861 32.1696 26.2861 32.1696 26.4025 32.1513C27.1476 32.0383 27.891 31.9598 28.6429 31.9083C29.0298 31.8808 29.4096 31.8448 29.7924 31.7809C31.1636 31.5705 31.6941 31.8028 33.2031 32.1876C34.982 33.9665 36.7609 35.7454 38.5938 37.5782C38.6195 27.7297 38.6453 17.8813 38.6719 7.73443C39.1102 7.73443 39.5484 7.73443 40 7.73443C40 18.3821 40 29.0297 40 40.0001C26.8 40.0001 13.6 40.0001 0 40.0001C0 29.3524 0 18.7047 0 7.73443C0.438281 7.73443 0.876562 7.73443 1.32812 7.73443C1.35391 17.5829 1.37969 27.4313 1.40625 37.5782C4.07461 34.9098 4.07461 34.9098 6.79688 32.1876C9.11007 31.5977 9.11007 31.5977 10.4264 31.8174C10.8131 31.875 11.2022 31.8976 11.5919 31.9243C12.3429 31.9804 13.0844 32.0706 13.8281 32.1876C13.8489 32.037 13.8489 32.037 13.87 31.8835C14.039 30.6606 14.2393 29.443 14.4408 28.2251C14.4865 27.9485 14.532 27.6719 14.5775 27.3952C14.666 26.8572 14.7548 26.3193 14.8438 25.7813C14.7712 25.8001 14.7712 25.8001 14.6971 25.8192C14.0902 25.9664 13.5138 25.8348 12.9688 25.5469C12.6333 25.2922 12.3313 25.008 12.0538 24.6912C11.9289 24.5434 11.9289 24.5434 11.7188 24.3751C11.4649 24.3794 11.2746 24.4218 11.0339 24.4953C10.325 24.6415 9.52839 24.6049 8.90625 24.2188C8.31527 23.7822 7.87633 23.3192 7.73438 22.5782C7.69498 21.9206 7.70924 21.3906 7.96875 20.7813C7.95259 20.5551 7.89107 20.3918 7.81067 20.1801C7.72658 19.8956 7.70547 19.652 7.7002 19.3555C7.69551 19.2123 7.69551 19.2123 7.69073 19.0662C7.76608 18.1794 8.44928 17.5812 9.04615 16.9924C9.19419 16.8459 9.33978 16.6972 9.48532 16.5482C10.0679 15.9613 10.547 15.5285 11.3983 15.4355C11.4879 15.4385 11.5776 15.4414 11.6699 15.4444C11.7608 15.4463 11.8516 15.4482 11.9452 15.4502C12.1421 15.4653 12.3119 15.4899 12.5 15.5469C12.5207 15.4905 12.5414 15.434 12.5627 15.3758C13.1655 13.9617 14.3658 12.5131 15.7812 11.8897C16.5452 11.5939 17.2304 11.5395 18.0469 11.5626C18.0469 11.4594 18.0469 11.3563 18.0469 11.2501C17.9937 11.2372 17.9405 11.2243 17.8857 11.211C17.3784 10.9519 17.0634 10.4645 16.8524 9.94695C16.7623 9.65273 16.7382 9.36922 16.7188 9.06256C16.6527 9.06527 16.5866 9.06799 16.5186 9.0708C15.7538 9.08905 15.226 9.02183 14.6515 8.49584C14.3012 8.09842 14.1329 7.61194 14.128 7.08702C14.1273 7.0215 14.1265 6.95598 14.1258 6.88847C14.1253 6.78289 14.1253 6.78289 14.1248 6.67517C14.1243 6.60172 14.1239 6.52827 14.1234 6.4526C14.1227 6.29689 14.1222 6.14119 14.1219 5.98549C14.1211 5.75042 14.1187 5.51541 14.1162 5.28036C14.1074 3.70463 14.3499 2.38136 15.495 1.20336C16.2575 0.515743 17.266 -0.00250854 18.3061 -0.0137727ZM16.2424 2.4497C15.5863 3.32589 15.5107 4.09685 15.5469 5.15631C15.9336 5.15631 16.3203 5.15631 16.7188 5.15631C16.7208 5.06859 16.7228 4.98087 16.7249 4.8905C16.773 3.45302 16.773 3.45302 17.3047 2.93463C17.8126 2.61716 18.2306 2.59919 18.8281 2.65631C19.266 2.7835 19.5428 3.13174 19.8511 3.45007C20.1277 3.71705 20.3632 3.81687 20.7422 3.85748C21.1498 3.81381 21.39 3.69833 21.665 3.39361C21.8958 3.0603 21.875 3.04169 21.875 2.57818C22.3391 2.57818 22.8031 2.57818 23.2812 2.57818C23.2812 3.42896 23.2812 4.27974 23.2812 5.15631C23.668 5.15631 24.0547 5.15631 24.4531 5.15631C24.4943 3.95076 24.3521 3.11974 23.5156 2.18756C22.5714 1.31758 21.4438 1.27687 20.2293 1.28744C20.0004 1.28912 19.7717 1.28745 19.5428 1.28546C18.2583 1.28343 17.1466 1.43439 16.2424 2.4497ZM18.2031 3.90631C18.0984 3.9933 18.0984 3.9933 18.1161 4.21562C18.1165 4.31667 18.1169 4.41773 18.1174 4.52185C18.1176 4.61999 18.1178 4.71814 18.118 4.81926C18.1187 4.94499 18.1194 5.07071 18.1201 5.20025C18.1217 5.59825 18.1233 5.99625 18.125 6.40631C19.3625 6.40631 20.6 6.40631 21.875 6.40631C21.875 5.91646 21.875 5.42662 21.875 4.92193C21.7203 4.97349 21.5656 5.02506 21.4062 5.07818C20.7192 5.23167 20.0524 5.14054 19.4385 4.79498C19.1028 4.57902 18.8355 4.32298 18.5696 4.02654C18.4384 3.88002 18.4384 3.88002 18.2031 3.90631ZM15.6934 6.65045C15.5208 6.91504 15.4876 7.03432 15.5469 7.34381C15.7213 7.56629 15.8242 7.64458 16.0938 7.73443C16.3 7.73443 16.5062 7.73443 16.7188 7.73443C16.7188 7.32193 16.7188 6.90943 16.7188 6.48443C16.1718 6.4329 16.1718 6.4329 15.6934 6.65045ZM23.2812 6.48443C23.2812 6.89693 23.2812 7.30943 23.2812 7.73443C23.8366 7.7576 23.8366 7.7576 24.2969 7.57818C24.4801 7.30332 24.4984 7.19867 24.4531 6.87506C24.3167 6.63436 24.3167 6.63436 24.0625 6.48443C23.7931 6.45194 23.5543 6.46623 23.2812 6.48443ZM18.125 7.81256C17.9958 9.25393 17.9958 9.25393 18.4375 9.92193C18.9442 10.323 19.3642 10.3285 19.9854 10.3321C20.0539 10.3337 20.1224 10.3353 20.193 10.337C20.7453 10.3403 21.1193 10.2591 21.5479 9.88775C22.1176 9.22028 21.875 8.90037 21.875 7.81256C20.6375 7.81256 19.4 7.81256 18.125 7.81256ZM19.375 11.6407C19.3319 12.2339 19.3319 12.2339 19.6094 12.7344C19.8288 12.864 19.8288 12.864 20.0781 12.8907C20.3045 12.7981 20.4275 12.7226 20.5573 12.5141C20.6343 12.3205 20.6409 12.1801 20.6348 11.9727C20.6315 11.8631 20.6283 11.7536 20.625 11.6407C20.2125 11.6407 19.8 11.6407 19.375 11.6407ZM18.125 12.9688C18.0594 13.6348 18.0594 13.6348 18.125 14.2969C18.2851 14.4882 18.4223 14.5611 18.6459 14.6674C19.0088 14.8631 19.1709 15.2471 19.2969 15.6251C19.3635 16.3033 19.3225 16.8646 18.9062 17.4219C18.5388 17.7987 18.1719 17.97 17.6562 18.0469C17.3727 18.0469 17.0891 18.0469 16.7969 18.0469C16.7969 19.3102 16.7969 20.5735 16.7969 21.8751C18.9109 21.8751 21.025 21.8751 23.2031 21.8751C23.2104 20.4369 23.2104 20.4369 23.2178 18.9698C23.2199 18.6674 23.222 18.3651 23.2242 18.0536C23.225 17.7818 23.225 17.7818 23.2255 17.5099C23.2259 17.3892 23.2267 17.2684 23.2279 17.1477C23.2296 16.9644 23.2298 16.7812 23.2297 16.5979C23.231 16.5177 23.231 16.5177 23.2323 16.4358C23.2301 16.1008 23.1728 15.8919 22.9688 15.6251C22.7468 15.5141 22.5895 15.5224 22.3438 15.5469C22.1638 15.6928 22.0564 15.8092 21.9531 16.0157C21.9465 16.1745 21.9448 16.3335 21.9455 16.4924C21.9457 16.587 21.946 16.6817 21.9463 16.7792C21.9469 16.8785 21.9476 16.9778 21.9482 17.0801C21.9486 17.18 21.9489 17.2799 21.9493 17.3829C21.9502 17.6303 21.9516 17.8777 21.9531 18.1251C21.5148 18.1251 21.0766 18.1251 20.625 18.1251C20.6272 17.7831 20.6306 17.4417 20.6369 17.0999C20.6387 16.9839 20.6399 16.868 20.6403 16.7521C20.6433 16.0588 20.6574 15.4213 21.0938 14.8438C21.335 14.6227 21.5823 14.4433 21.875 14.2969C21.875 13.8586 21.875 13.4204 21.875 12.9688C21.7062 13.1937 21.7062 13.1937 21.5399 13.4205C21.1887 13.8723 20.8106 14.0965 20.2399 14.1703C19.7147 14.191 19.2664 14.1313 18.8281 13.8282C18.5539 13.5671 18.3346 13.2832 18.125 12.9688ZM23.2812 13.0469C23.2403 13.4727 23.2188 13.8725 23.2812 14.2969C23.4414 14.4824 23.5833 14.5581 23.8022 14.6647C24.1636 14.865 24.3266 15.2455 24.4531 15.6251C24.4531 15.7634 24.4531 15.9017 24.4531 16.0401C24.4853 16.4935 24.6311 16.7945 24.873 17.168C24.9043 17.2165 24.9355 17.265 24.9677 17.3149C25.0683 17.4662 25.0683 17.4662 25.2344 17.6563C25.4986 17.6563 25.5443 17.6215 25.748 17.4683C25.8001 17.4295 25.8522 17.3908 25.9059 17.3508C25.9598 17.3098 26.0138 17.2688 26.0693 17.2266C26.1516 17.1651 26.1516 17.1651 26.2355 17.1024C26.3709 17.0011 26.5058 16.8991 26.6406 16.7969C26.5216 16.4552 26.3404 16.1708 26.1377 15.8741C26.1035 15.8236 26.0692 15.7732 26.034 15.7212C25.9612 15.614 25.8883 15.5069 25.8152 15.4C25.7028 15.2339 25.5925 15.0667 25.4825 14.899C24.8928 14.0075 24.384 13.4377 23.3594 13.0469C23.3336 13.0469 23.3078 13.0469 23.2812 13.0469ZM16.2061 13.2471C16.127 13.2843 16.0479 13.3214 15.9665 13.3597C15.2492 13.7845 14.8332 14.3678 14.3882 15.0546C14.2861 15.2116 14.1817 15.3668 14.0771 15.5221C14.0117 15.6217 13.9464 15.7214 13.8812 15.8213C13.8499 15.8675 13.8186 15.9137 13.7863 15.9614C13.6902 16.1061 13.6902 16.1061 13.5938 16.3282C13.6609 16.6257 13.9102 16.8198 14.1214 17.0301C14.1754 17.084 14.1754 17.084 14.2305 17.1391C14.3063 17.2147 14.3823 17.29 14.4584 17.3652C14.5755 17.4808 14.6919 17.597 14.8082 17.7134C15.1019 18.0699 15.1019 18.0699 15.4688 18.2813C15.4691 18.2049 15.4694 18.1286 15.4697 18.0499C15.4714 17.763 15.4757 17.4762 15.4807 17.1893C15.4825 17.0659 15.4836 16.9424 15.484 16.8189C15.4898 15.4257 15.4898 15.4257 15.9375 14.8438C16.179 14.623 16.426 14.4433 16.7188 14.2969C16.7188 13.8844 16.7188 13.4719 16.7188 13.0469C16.5441 13.0469 16.358 13.1743 16.2061 13.2471ZM16.875 15.7813C16.7818 16.0671 16.7714 16.1954 16.8994 16.4698C17.0169 16.6476 17.0169 16.6476 17.1875 16.7188C17.4686 16.7494 17.605 16.7562 17.8369 16.587C17.9865 16.382 18.0407 16.2694 18.0469 16.0157C17.9101 15.7256 17.9101 15.7256 17.6562 15.5469C17.3171 15.5174 17.1096 15.5206 16.875 15.7813ZM10.5212 17.5049C10.4841 17.5419 10.447 17.5789 10.4088 17.617C10.3311 17.6945 10.2537 17.7722 10.1764 17.8502C10.0584 17.969 9.93951 18.0871 9.82056 18.205C9.74482 18.2808 9.66914 18.3567 9.59351 18.4327C9.5253 18.5011 9.4571 18.5694 9.38683 18.6399C9.14418 18.9117 9.06675 19.0585 9.04785 19.4239C9.09739 19.7348 9.23222 19.8951 9.44435 20.1232C9.50805 20.1918 9.57174 20.2604 9.63737 20.331C9.98793 20.6978 10.3433 21.0594 10.7019 21.4182C10.7823 21.4988 10.8627 21.5795 10.9431 21.6601C11.1099 21.8275 11.277 21.9947 11.4441 22.1618C11.6577 22.3754 11.8708 22.5895 12.0837 22.8038C12.2489 22.9698 12.4144 23.1354 12.58 23.301C12.6587 23.3798 12.7373 23.4588 12.8158 23.5379C12.9253 23.6481 13.0353 23.7578 13.1454 23.8675C13.2387 23.9611 13.2387 23.9611 13.334 24.0565C13.6459 24.3353 13.9256 24.5219 14.36 24.498C14.7555 24.3944 15.0031 24.1567 15.2344 23.8282C15.3724 23.4843 15.414 23.1607 15.4471 22.7963C15.4624 22.6426 15.4807 22.4891 15.5013 22.336C15.6131 21.4516 15.7069 20.5697 15.1586 19.816C14.7823 19.3768 14.3636 18.9895 13.9297 18.6088C13.7258 18.4273 13.5289 18.2385 13.331 18.0504C12.5738 17.2355 12.5738 17.2355 11.6113 16.7676C11.1606 16.832 10.832 17.195 10.5212 17.5049ZM27.0627 18.0958C27.0065 18.1381 26.9504 18.1804 26.8925 18.2239C26.8041 18.291 26.8041 18.291 26.7139 18.3594C26.6546 18.4041 26.5953 18.4489 26.5343 18.4949C26.3873 18.6058 26.2405 18.7169 26.0938 18.8282C26.1418 19.0634 26.2166 19.234 26.3461 19.4355C26.4008 19.5213 26.4008 19.5213 26.4566 19.6088C26.4964 19.6702 26.5362 19.7317 26.5771 19.795C26.6622 19.9277 26.7472 20.0605 26.8323 20.1932C26.8772 20.2631 26.9222 20.333 26.9685 20.4051C27.1139 20.6322 27.2577 20.8602 27.4011 21.0886C27.4493 21.1652 27.4976 21.2417 27.5472 21.3206C27.6408 21.4692 27.7342 21.6178 27.8274 21.7667C28.3975 22.683 28.3975 22.683 29.3274 23.1724C29.8125 23.2475 30.1482 23.1789 30.5469 22.8907C30.8441 22.6239 30.9235 22.368 30.95 21.98C30.9215 21.5623 30.7356 21.2714 30.4297 20.9961C30.1717 20.8555 30.1717 20.8555 29.9368 20.8018C29.4748 20.68 29.1944 20.5867 28.9355 20.171C28.8473 20.01 28.7595 19.8489 28.6719 19.6876C28.544 19.4847 28.4105 19.2858 28.2764 19.087C28.2429 19.0369 28.2095 18.9869 28.175 18.9353C27.9353 18.5778 27.6901 18.2277 27.4219 17.8907C27.2786 17.8907 27.1728 18.0125 27.0627 18.0958ZM9.0625 21.7969C9.07177 22.176 9.10123 22.4375 9.30664 22.7637C9.61181 23.0424 9.89193 23.1913 10.3076 23.2178C10.3608 23.213 10.414 23.2082 10.4688 23.2032C10.3632 22.968 10.2451 22.8032 10.0635 22.6209C10.0153 22.5726 9.9672 22.5242 9.9176 22.4744C9.86745 22.4249 9.8173 22.3753 9.76562 22.3243C9.71547 22.2735 9.66532 22.2228 9.61365 22.1705C9.56551 22.1225 9.51737 22.0746 9.46777 22.0252C9.42376 21.9814 9.37975 21.9375 9.33441 21.8924C9.22366 21.7804 9.22366 21.7804 9.0625 21.7969ZM16.7188 23.2813C16.6264 23.6505 16.5412 23.9951 16.4811 24.3667C16.467 24.4529 16.4529 24.5392 16.4383 24.6281C16.416 24.7672 16.416 24.7672 16.3932 24.909C16.3684 25.0613 16.3436 25.2135 16.3188 25.3657C16.2923 25.5283 16.2659 25.6909 16.2396 25.8536C16.1845 26.1939 16.1287 26.5342 16.0729 26.8744C16.0537 26.9914 16.0345 27.1083 16.0153 27.2252C16.0057 27.2837 15.9961 27.3422 15.9862 27.4025C15.8564 28.1937 15.727 28.985 15.599 29.7764C15.5124 30.3116 15.4249 30.8467 15.3365 31.3816C15.2899 31.664 15.2438 31.9464 15.1986 32.229C15.1481 32.5447 15.0958 32.8602 15.0434 33.1756C15.029 33.2677 15.0145 33.3598 14.9997 33.4547C14.886 34.1252 14.6664 34.7061 14.3761 35.3188C14.2389 35.6166 14.1882 35.8439 14.2188 36.1719C14.2445 36.2235 14.2703 36.2751 14.2969 36.3282C14.3894 36.3028 14.482 36.2774 14.5773 36.2513C15.0943 36.1368 15.6106 36.1492 16.1377 36.1524C16.2373 36.1518 16.337 36.1512 16.4397 36.1506C16.9504 36.1516 17.4028 36.1732 17.8906 36.3282C18.052 36.086 18.0665 36.03 18.0705 35.7551C18.0723 35.6872 18.074 35.6192 18.0758 35.5492C18.0773 35.4758 18.0787 35.4024 18.0803 35.3268C18.1103 34.4251 18.2282 33.5526 18.3719 32.663C18.3964 32.5068 18.4208 32.3507 18.4451 32.1945C18.5084 31.7894 18.5728 31.3845 18.6374 30.9796C18.7414 30.327 18.8436 29.6741 18.946 29.0213C18.9817 28.7944 19.0178 28.5677 19.054 28.3409C19.0759 28.2028 19.0977 28.0646 19.1196 27.9265C19.1347 27.8325 19.1347 27.8325 19.1502 27.7366C19.1921 27.4706 19.2188 27.2233 19.2188 26.9532C19.1092 26.8775 18.9989 26.8026 18.8849 26.7338C18.4799 26.4543 18.25 26.0959 18.125 25.6251C18.1028 25.4178 18.0859 25.2174 18.0762 25.0098C18.0665 24.8261 18.0568 24.6424 18.0469 24.4532C18.4852 24.4532 18.9234 24.4532 19.375 24.4532C19.3686 24.5869 19.3621 24.7207 19.3555 24.8585C19.3562 25.1527 19.3641 25.2916 19.502 25.5567C19.7328 25.7389 19.8617 25.7873 20.1562 25.7813C20.3709 25.643 20.5103 25.542 20.625 25.3126C20.6305 25.1662 20.6316 25.0196 20.6299 24.8731C20.6283 24.7345 20.6267 24.596 20.625 24.4532C21.0633 24.4532 21.5016 24.4532 21.9531 24.4532C21.8982 25.9772 21.8982 25.9772 21.4084 26.4893C21.2098 26.6681 21.0209 26.8333 20.7812 26.9532C20.875 27.8052 20.9891 28.6515 21.1253 29.4977C21.1562 29.6902 21.1866 29.8828 21.2169 30.0754C21.303 30.622 21.3893 31.1685 21.4771 31.7148C21.5417 32.1167 21.6052 32.5187 21.6678 32.9209C21.6779 32.9854 21.6879 33.0499 21.6983 33.1164C21.827 33.9499 21.9284 34.7731 21.9284 35.6185C21.9171 35.9509 21.9171 35.9509 22.0718 36.2292C22.1291 36.2782 22.1291 36.2782 22.1875 36.3282C22.2546 36.3028 22.3216 36.2774 22.3907 36.2513C22.8674 36.1156 23.3663 36.1494 23.8574 36.1524C23.9571 36.1518 24.0568 36.1512 24.1595 36.1506C24.6992 36.1517 25.1823 36.1852 25.7031 36.3282C25.8422 36.05 25.772 35.7606 25.7031 35.4688C25.6334 35.3174 25.5597 35.1678 25.4834 35.0196C25.277 34.5942 25.1671 34.1998 25.0857 33.7353C25.0727 33.6646 25.0598 33.5939 25.0465 33.5211C24.8895 32.6515 24.7455 31.7795 24.6019 30.9077C24.5511 30.6 24.5002 30.2923 24.4491 29.9846C24.3227 29.2227 24.1967 28.4606 24.0708 27.6985C23.9722 27.1016 23.8735 26.5046 23.7744 25.9077C23.7155 25.5527 23.6569 25.1976 23.5984 24.8425C23.5679 24.6583 23.5373 24.4741 23.5067 24.2899C23.4929 24.2053 23.479 24.1208 23.4648 24.0337C23.452 23.957 23.4392 23.8803 23.426 23.8012C23.4149 23.7344 23.4039 23.6675 23.3925 23.5986C23.3658 23.4335 23.3658 23.4335 23.2812 23.2813C21.1156 23.2813 18.95 23.2813 16.7188 23.2813ZM19.9219 31.2501C19.8442 31.7191 19.7678 32.1883 19.6925 32.6577C19.6669 32.8165 19.6409 32.9753 19.6145 33.134C19.4611 34.0596 19.3386 34.9662 19.3379 35.9064C19.3309 36.341 19.2524 36.6448 19.0427 37.0276C18.9491 37.2842 19.043 37.4648 19.1452 37.707C19.2698 38.0182 19.3148 38.3429 19.375 38.6719C19.7875 38.6719 20.2 38.6719 20.625 38.6719C20.6459 38.5575 20.6669 38.4431 20.6885 38.3252C20.7421 38.0433 20.8163 37.798 20.9277 37.5342C20.9987 37.333 21.0314 37.2309 20.9573 37.0276C20.9276 36.9734 20.898 36.9193 20.8674 36.8635C20.6779 36.4675 20.6622 36.1313 20.6619 35.6977C20.6397 34.7497 20.5018 33.8345 20.3467 32.9004C20.3206 32.7389 20.2946 32.5774 20.2687 32.4158C20.2062 32.0271 20.1425 31.6385 20.0781 31.2501C20.0266 31.2501 19.975 31.2501 19.9219 31.2501ZM4.45312 36.0889C4.37147 36.1784 4.37147 36.1784 4.28816 36.2696C3.10598 37.3797 3.10598 37.3797 2.34375 38.6719C5.82422 38.6719 9.30469 38.6719 12.8906 38.6719C12.9422 38.3883 12.9937 38.1047 13.0469 37.8126C13.0984 37.7094 13.15 37.6063 13.2031 37.5001C13.1818 37.2543 13.1319 37.0497 13.0453 36.8189C12.7847 35.9467 12.9656 35.1649 13.3594 34.3751C13.5281 33.9959 13.5281 33.9959 13.5938 33.5938C12.6598 33.4395 11.7261 33.3386 10.7812 33.2813C10.7113 33.277 10.6413 33.2728 10.5693 33.2684C7.80078 33.1195 6.28495 34.0794 4.45312 36.0889ZM26.4062 33.5938C26.43 33.692 26.4538 33.7902 26.4783 33.8914C26.4916 33.9467 26.505 34.0019 26.5188 34.0588C26.5776 34.2739 26.6657 34.4676 26.7627 34.668C27.0711 35.3087 27.1691 36.0652 26.976 36.7618C26.954 36.8137 26.9319 36.8656 26.9092 36.919C26.7516 37.2958 26.8256 37.5111 26.9531 37.8858C27.0312 38.1251 27.0312 38.1251 27.1094 38.6719C30.5898 38.6719 34.0703 38.6719 37.6562 38.6719C37.5016 38.4915 37.3469 38.311 37.1875 38.1251C37.0632 37.9665 36.9399 37.8071 36.8175 37.647C36.3299 37.0188 35.8159 36.4156 35.2832 35.8252C35.2354 35.7722 35.1876 35.7191 35.1383 35.6645C33.8522 34.2548 32.7002 33.3775 30.7494 33.2848C29.3001 33.2404 27.8388 33.3826 26.4062 33.5938ZM14.4971 37.9151C14.4601 37.9583 14.4232 38.0015 14.3851 38.046C14.2631 38.2426 14.2631 38.2426 14.2188 38.6719C15.482 38.6719 16.7453 38.6719 18.0469 38.6719C17.8405 37.9718 17.8405 37.9718 17.3438 37.5782C16.9402 37.4069 16.5735 37.3958 16.1426 37.3975C16.0474 37.3956 16.0474 37.3956 15.9503 37.3937C15.4106 37.3933 14.8587 37.4695 14.4971 37.9151ZM22.2754 37.8711C22.0714 38.1558 22.0714 38.1558 21.9531 38.6719C23.2164 38.6719 24.4797 38.6719 25.7812 38.6719C25.6144 38.0852 25.6144 38.0852 25.2344 37.6563C24.7659 37.441 24.3792 37.3852 23.8672 37.3926C23.7731 37.3913 23.7731 37.3913 23.6771 37.3899C23.1316 37.3925 22.6821 37.4821 22.2754 37.8711Z" fill="white"/>
</g>
<defs>
<clipPath id="clip0_2397_1255">
<rect width="40" height="40" fill="white"/>
</clipPath>
</defs>
</svg>
