<svg width="40" height="40" viewBox="0 0 40 40" fill="none" xmlns="http://www.w3.org/2000/svg">
<g clip-path="url(#clip0_2397_1006)">
<path d="M23.2717 -0.0244751C23.3375 -0.0257843 23.4034 -0.0270935 23.4712 -0.0284424C23.7328 0.00853219 23.8548 0.0679524 24.0627 0.234314C24.2176 0.441595 24.3425 0.662537 24.4679 0.888611C24.5049 0.954178 24.5419 1.01975 24.58 1.0873C26.3387 4.25094 27.5218 7.98773 26.5029 11.5877C26.3105 12.216 26.0257 12.7887 25.7033 13.3593C25.6599 13.4372 25.6165 13.515 25.5718 13.5952C25.195 14.2267 24.694 14.8214 24.1306 15.2966C23.9417 15.5192 23.9466 15.6381 23.9491 15.9273C23.9491 16.0196 23.9491 16.1118 23.9491 16.2069C23.9508 16.3061 23.9524 16.4053 23.954 16.5075C23.9545 16.6094 23.9549 16.7112 23.9554 16.8162C23.9566 17.0864 23.9596 17.3566 23.9631 17.6269C23.9663 17.9029 23.9677 18.1788 23.9693 18.4548C23.9726 18.9959 23.978 19.537 23.9845 20.0781C24.0999 19.9566 24.2142 19.8342 24.3282 19.7115C24.392 19.6435 24.4558 19.5754 24.5216 19.5053C24.768 19.1959 24.8215 18.91 24.8683 18.5253C24.8908 18.3875 24.9137 18.2498 24.937 18.1121C24.9527 18.014 24.9527 18.014 24.9688 17.914C25.3076 15.9748 26.7072 14.2294 28.2668 13.1005C29.7359 12.0811 31.3924 11.4898 33.1252 11.0937C33.1772 11.0816 33.2292 11.0695 33.2828 11.0571C34.059 10.883 34.8429 10.817 35.6349 10.7568C35.7332 10.7489 35.8315 10.741 35.9327 10.7329C36.5265 10.6928 36.9769 10.6667 37.4855 11.0058C37.731 11.2443 37.8054 11.3764 37.8285 11.7199C37.809 12.1038 37.7206 12.4402 37.6125 12.8076C37.5914 12.8797 37.5704 12.9519 37.5487 13.0262C37.0695 14.6171 36.1966 16.6242 34.7658 17.5781C34.5217 17.6318 34.5217 17.6318 34.297 17.5781C34.0724 17.412 34.0724 17.412 33.9064 17.1874C33.8676 16.8978 33.878 16.7626 34.0383 16.5151C34.0979 16.4486 34.1575 16.382 34.2189 16.3134C34.2833 16.2385 34.3476 16.1636 34.4139 16.0864C34.4785 16.0114 34.543 15.9365 34.6095 15.8593C35.1889 15.143 36.172 13.7819 36.172 12.8124C32.9279 14.5533 29.9145 16.7043 27.0314 18.9843C28.7273 19.0429 30.2878 18.7385 31.8459 18.0602C32.1754 17.9458 32.437 17.9037 32.759 18.0517C32.9555 18.2773 32.9638 18.4549 32.9689 18.7499C32.8546 19.0423 32.7162 19.1679 32.4419 19.3017C32.3204 19.3538 32.1982 19.4042 32.0754 19.4531C31.977 19.4931 31.977 19.4931 31.8766 19.534C31.4118 19.7167 30.9429 19.8664 30.4592 19.9902C30.3728 20.0125 30.3728 20.0125 30.2848 20.0353C29.4135 20.2417 28.5275 20.3313 27.6338 20.3057C27.5738 20.3041 27.5137 20.3026 27.4519 20.3009C27.2068 20.2938 26.9619 20.286 26.717 20.2739C26.0044 20.2171 26.0044 20.2171 25.3508 20.4382C25.2083 20.5973 25.1037 20.7511 25.0002 20.9374C24.9476 21.0126 24.895 21.0877 24.8409 21.1651C24.5 21.7478 24.2683 22.328 24.0627 22.9687C24.1339 22.9707 24.2051 22.9727 24.2784 22.9748C26.3865 23.0671 28.4703 23.6557 30.3127 24.6874C30.4485 24.7592 30.4485 24.7592 30.587 24.8324C31.3312 25.2366 31.9907 25.7295 32.6564 26.2499C32.704 26.2869 32.7515 26.324 32.8005 26.3621C32.9382 26.4693 33.0757 26.5768 33.2131 26.6845C33.2571 26.719 33.3011 26.7534 33.3464 26.7889C33.583 26.975 33.8166 27.164 34.0477 27.3568C34.0968 27.3971 34.1459 27.4374 34.1965 27.4789C34.2906 27.5562 34.3839 27.6344 34.4764 27.7137C34.7322 27.9226 34.7322 27.9226 35.0508 27.9626C35.2245 27.8945 35.3879 27.823 35.5519 27.7343C35.9989 27.4936 36.4541 27.4215 36.9545 27.5359C37.528 27.7279 37.9835 28.0379 38.2765 28.5742C38.5536 29.1986 38.5933 29.8247 38.3595 30.4687C38.0701 31.0211 37.7037 31.3526 37.1877 31.6894C37.1199 31.7352 37.0522 31.781 36.9824 31.8282C36.8386 31.9253 36.6945 32.0218 36.55 32.1178C36.2543 32.3149 35.9613 32.5157 35.6681 32.7165C35.4508 32.8652 35.2332 33.0133 35.0154 33.1613C34.6613 33.402 34.308 33.6439 33.9552 33.8867C33.9055 33.9209 33.8558 33.9551 33.8046 33.9903C33.5516 34.1644 33.2988 34.3387 33.0461 34.5132C32.7857 34.6929 32.5247 34.8718 32.2635 35.0504C32.1096 35.1562 31.9565 35.2631 31.8035 35.3701C30.6894 36.1416 29.6543 36.4515 28.3122 36.5881C28.2251 36.5973 28.138 36.6064 28.0482 36.6159C27.7621 36.6459 27.476 36.6753 27.1898 36.7047C26.9892 36.7254 26.7885 36.7462 26.5879 36.767C26.1678 36.8105 25.7478 36.8537 25.3276 36.8966C24.8455 36.946 24.3634 36.9961 23.8813 37.0466C23.4139 37.0955 22.9465 37.1436 22.479 37.1915C22.2818 37.2118 22.0847 37.2322 21.8876 37.253C18.952 37.5608 18.952 37.5608 17.813 37.1645C17.5132 37.062 17.2128 36.9624 16.9115 36.8646C16.8192 36.8346 16.727 36.8046 16.6319 36.7738C16.5366 36.7428 16.4412 36.7118 16.3429 36.6799C16.1475 36.6164 15.9521 36.5529 15.7567 36.4893C15.7075 36.4734 15.6584 36.4574 15.6077 36.441C15.3554 36.359 15.1033 36.2764 14.8516 36.1925C14.5567 36.0943 14.2609 35.9989 13.965 35.9036C13.8754 35.8732 13.7858 35.8429 13.6935 35.8116C13.1785 35.6483 12.7765 35.5662 12.2658 35.7812C12.0343 35.9316 12.0343 35.9316 11.8508 36.123C11.7569 36.2133 11.7569 36.2133 11.6612 36.3055C11.6029 36.3645 11.5446 36.4235 11.4845 36.4843C11.4241 36.5373 11.3637 36.5903 11.3014 36.6448C11.2374 36.7201 11.2374 36.7201 11.172 36.7968C11.2054 36.9505 11.24 37.1043 11.2865 37.2546C11.3973 37.698 11.2572 38.1361 11.0408 38.5266C10.5884 39.1637 9.48442 39.7552 8.75017 39.9999C7.62607 40.0999 7.62607 40.0999 7.17192 39.7376C6.66901 39.2783 6.35198 38.6418 6.02068 38.0566C5.94315 37.9209 5.86563 37.7852 5.78806 37.6496C5.70812 37.5097 5.62835 37.3697 5.54861 37.2296C5.30251 36.7979 5.05352 36.3677 4.80486 35.9374C4.70719 35.7682 4.60953 35.5989 4.51189 35.4296C4.46355 35.3458 4.41521 35.262 4.36541 35.1757C4.14568 34.7949 4.14568 34.7949 3.92595 34.414C3.87754 34.3301 3.82914 34.2462 3.77926 34.1598C3.68228 33.9916 3.58532 33.8235 3.48839 33.6554C3.26113 33.2612 3.03364 32.8672 2.8053 32.4737C2.72459 32.3346 2.64396 32.1954 2.56334 32.0562C2.46228 31.8818 2.36107 31.7074 2.25969 31.5331C1.40059 30.0491 1.40059 30.0491 1.51354 29.3524C1.70769 28.6505 2.20268 28.2022 2.81862 27.8503C2.91477 27.7977 2.91477 27.7977 3.01287 27.7441C3.10947 27.6888 3.10947 27.6888 3.20803 27.6324C3.79606 27.3015 4.31748 27.0905 5.00017 27.1874C5.13546 27.2586 5.2688 27.3335 5.40026 27.4114C5.66082 27.5338 5.79453 27.5923 6.07819 27.5301C6.31332 27.4188 6.52849 27.2925 6.74822 27.1533C6.86961 27.0819 6.86961 27.0819 6.99345 27.0091C7.16059 26.9107 7.32695 26.8109 7.4925 26.7097C7.85358 26.49 8.22137 26.2826 8.58904 26.0742C8.72365 25.9972 8.85823 25.9202 8.99279 25.8431C9.05698 25.8065 9.12116 25.7699 9.1873 25.7322C9.30951 25.6624 9.43161 25.5925 9.55359 25.5223C11.3189 24.5132 13.299 24.1151 15.2987 24.6475C15.4907 24.7015 15.679 24.7556 15.8635 24.8315C16.1182 24.8519 16.3071 24.7014 16.5187 24.5751C18.3827 23.5321 20.4736 23.1117 22.5783 22.8906C22.3595 22.1434 22.1171 21.488 21.6408 20.8593C21.617 20.8114 21.5933 20.7635 21.5688 20.7141C21.4526 20.5213 21.3668 20.4292 21.172 20.3124C20.7645 20.2566 20.3673 20.2674 19.9571 20.2847C19.6202 20.2985 19.2832 20.3026 18.9461 20.3073C18.8805 20.3083 18.8149 20.3094 18.7473 20.3105C18.0268 20.3198 17.342 20.2418 16.6408 20.0781C16.5826 20.0651 16.5244 20.0521 16.4645 20.0387C14.7119 19.6365 13.1653 18.8354 11.8752 17.5781C11.8091 17.5152 11.743 17.4524 11.675 17.3876C11.6121 17.3216 11.5493 17.2555 11.4845 17.1874C11.4344 17.1369 11.3842 17.0863 11.3326 17.0342C10.0718 15.712 8.84398 13.4603 8.87529 11.5847C8.92085 11.3234 9.03725 11.1704 9.20397 10.9695C9.76186 10.6105 10.4391 10.6976 11.0695 10.7519C11.1622 10.7595 11.2548 10.767 11.3503 10.7749C14.2788 11.0346 17.1733 11.8925 19.3752 13.9062C19.4385 13.9631 19.5019 14.02 19.5671 14.0786C20.9087 15.345 21.7028 17.1004 21.9435 18.916C21.9928 19.2346 22.0918 19.3976 22.3104 19.6331C22.3603 19.6877 22.4103 19.7423 22.4618 19.7985C22.5002 19.8392 22.5387 19.8799 22.5783 19.9218C22.5983 19.3459 22.6135 18.7701 22.6228 18.1939C22.6273 17.9263 22.6333 17.6589 22.6431 17.3914C22.7623 16.0907 22.7623 16.0907 22.2849 14.9486C22.1078 14.7932 21.9124 14.6652 21.7189 14.5312C20.7257 13.408 20.0596 11.7822 19.8439 10.3124C19.8353 10.2566 19.8266 10.2009 19.8177 10.1434C19.3896 6.77687 20.6256 2.84707 22.6564 0.156189C22.906 -0.0101754 22.9831 -0.0231595 23.2717 -0.0244751ZM23.9064 2.65619C23.9064 6.26556 23.9064 9.87494 23.9064 13.5937C24.9958 12.5043 25.5428 10.903 25.6252 9.37494C25.6293 9.30042 25.6334 9.22589 25.6377 9.14911C25.6995 6.88074 24.9598 4.67579 23.9845 2.65619C23.9588 2.65619 23.933 2.65619 23.9064 2.65619ZM22.5783 2.81244C21.3265 5.62448 20.4106 8.61711 21.503 11.6427C21.7614 12.3102 22.0887 12.9865 22.5783 13.5156C22.6041 13.5156 22.6299 13.5156 22.6564 13.5156C22.6564 9.98353 22.6564 6.4515 22.6564 2.81244C22.6306 2.81244 22.6049 2.81244 22.5783 2.81244ZM12.1877 12.1874C12.3565 12.3694 12.5249 12.4934 12.7391 12.618C12.805 12.657 12.8708 12.6959 12.9387 12.736C13.0115 12.779 13.0843 12.8219 13.1594 12.8661C15.3721 14.1924 17.5063 15.6623 19.5323 17.2582C19.8126 17.4779 20.0994 17.6859 20.3908 17.8906C20.1121 16.6662 19.4013 15.7039 18.5158 14.8437C18.4563 14.7844 18.3968 14.7251 18.3354 14.6639C16.8623 13.2719 14.2243 12.1874 12.1877 12.1874ZM27.9689 15.0781C27.9166 15.1246 27.8642 15.1711 27.8102 15.2191C27.1166 15.8528 26.6728 16.7935 26.3283 17.6562C26.3283 17.7078 26.3283 17.7593 26.3283 17.8124C26.5514 17.7084 26.7372 17.5907 26.9295 17.4374C26.9847 17.3938 27.0399 17.3501 27.0968 17.3052C27.1853 17.2348 27.1853 17.2348 27.2756 17.163C29.2881 15.5811 31.4271 14.1568 33.6144 12.829C33.9373 12.6319 34.243 12.4341 34.5314 12.1874C32.1902 12.1289 29.6036 13.5044 27.9689 15.0781ZM10.3908 12.7343C11.2653 15.2552 12.715 17.0949 15.1446 18.2816C15.9431 18.6506 16.7933 18.84 17.6564 18.9843C17.7159 18.9947 17.7755 19.0051 17.8368 19.0157C18.1286 19.0573 18.4203 19.0656 18.7148 19.0667C18.779 19.0669 18.8432 19.0672 18.9094 19.0674C19.1949 19.0673 19.4803 19.0652 19.7658 19.0624C19.2877 18.5673 18.7461 18.1558 18.2033 17.7343C18.1537 17.6956 18.104 17.6569 18.0529 17.617C16.1529 16.1466 14.097 14.8186 12.0314 13.5937C11.963 13.5529 11.8945 13.5122 11.8239 13.4702C11.6152 13.3463 11.406 13.2232 11.1965 13.1005C11.1332 13.0634 11.0699 13.0262 11.0047 12.9879C10.9469 12.9545 10.889 12.9211 10.8293 12.8866C10.7784 12.8571 10.7275 12.8275 10.675 12.7971C10.5474 12.7228 10.5474 12.7228 10.3908 12.7343ZM17.5783 25.5468C17.6365 25.5768 17.6365 25.5768 17.696 25.6074C18.4624 26.0031 19.2139 26.4061 19.9388 26.8743C20.6751 27.2961 21.4942 27.4094 22.3244 27.4999C22.4329 27.5126 22.5414 27.5255 22.6499 27.5384C22.9905 27.5788 23.3313 27.6176 23.672 27.6562C24.0677 27.701 24.4633 27.7465 24.8587 27.7936C25.0149 27.8119 25.1712 27.829 25.3275 27.846C26.2546 27.9557 27.143 28.1332 27.8127 28.8281C28.2741 29.4301 28.4957 30.1129 28.5939 30.8593C29.0692 30.8178 29.4951 30.7439 29.9465 30.5908C30.0063 30.5705 30.0662 30.5503 30.1279 30.5295C31.3736 30.0899 32.527 29.3999 33.672 28.7499C32.5043 27.5399 31.0216 26.4745 29.5314 25.7031C29.4812 25.677 29.4311 25.651 29.3794 25.6241C26.5356 24.1667 20.1937 22.9314 17.5783 25.5468ZM10.1564 26.6406C10.0782 26.6833 9.9999 26.726 9.91926 26.77C8.79096 27.3874 7.67245 28.0216 6.56267 28.6718C6.60685 29.0122 6.73359 29.2306 6.91912 29.5165C7.16124 29.9202 7.27237 30.1591 7.18767 30.6249C7.10466 30.7812 7.10466 30.7812 6.9533 30.8593C6.48369 30.9191 6.48369 30.9191 6.25689 30.7437C6.03156 30.4715 5.87408 30.1742 5.70818 29.8632C5.57784 29.6215 5.44572 29.3808 5.31267 29.1406C5.28124 29.0806 5.24981 29.0206 5.21742 28.9588C5.07153 28.6975 4.98364 28.5457 4.71056 28.4121C4.31575 28.451 4.03077 28.6383 3.69646 28.8427C3.62974 28.8814 3.56302 28.9202 3.49428 28.9601C3.04469 29.2125 3.04469 29.2125 2.73455 29.6093C2.80696 29.9496 2.96518 30.2315 3.1383 30.5309C3.18816 30.6177 3.23802 30.7044 3.2894 30.7938C3.34369 30.8872 3.398 30.9807 3.45232 31.0742C3.5087 31.1719 3.56504 31.2696 3.62135 31.3674C3.73731 31.5685 3.85352 31.7696 3.96994 31.9705C4.12906 32.2451 4.28746 32.5202 4.44567 32.7953C4.95615 33.6828 5.47017 34.5681 5.98757 35.4515C6.24188 35.8866 6.49324 36.3233 6.74181 36.7617C6.77006 36.8115 6.7983 36.8612 6.82741 36.9125C6.96542 37.1556 7.10309 37.3989 7.24014 37.6426C7.2899 37.7304 7.33966 37.8181 7.39092 37.9086C7.43469 37.9862 7.47846 38.0639 7.52356 38.1439C7.76736 38.5749 7.76736 38.5749 8.17522 38.7997C8.56243 38.7263 8.86285 38.5442 9.19939 38.3447C9.30045 38.2881 9.30045 38.2881 9.40355 38.2304C9.46791 38.1929 9.53226 38.1553 9.59856 38.1167C9.65695 38.0827 9.71533 38.0488 9.77549 38.0138C9.95925 37.8593 10.014 37.7294 10.0783 37.4999C10.023 37.2947 10.023 37.2947 9.90252 37.0898C9.8577 37.0066 9.81289 36.9234 9.76671 36.8377C9.71464 36.7458 9.66224 36.654 9.60955 36.5624C9.58292 36.5161 9.5563 36.4698 9.52887 36.4221C9.37545 36.1572 9.2196 35.8938 9.06298 35.6307C8.79926 35.187 8.54085 34.7401 8.28285 34.293C8.20439 34.1571 8.12581 34.0213 8.04722 33.8854C7.99882 33.8015 7.95043 33.7176 7.90056 33.6312C7.85726 33.5562 7.81395 33.4812 7.76934 33.4039C7.73208 33.3376 7.69481 33.2714 7.65642 33.2031C7.6252 33.1485 7.59398 33.094 7.56182 33.0378C7.46062 32.7961 7.52294 32.5928 7.5783 32.3437C7.77731 32.1447 7.92557 32.1598 8.1978 32.1438C8.50236 32.226 8.64679 32.5375 8.80642 32.794C8.8504 32.8711 8.89438 32.9482 8.93969 33.0276C8.98908 33.1137 9.03848 33.1999 9.08937 33.2887C9.14018 33.378 9.19099 33.4674 9.24334 33.5595C9.34392 33.7354 9.44453 33.9113 9.54515 34.0872C9.59426 34.1732 9.64337 34.2592 9.69397 34.3478C9.92393 34.7488 10.1571 35.1479 10.3908 35.5468C10.7047 35.4827 10.8401 35.3574 11.0695 35.1318C11.6649 34.5842 12.2335 34.3564 13.047 34.3749C13.7373 34.5019 14.4076 34.7368 15.0734 34.9542C15.1747 34.987 15.2759 35.0197 15.3772 35.0524C15.6407 35.1377 15.9041 35.2233 16.1674 35.309C16.591 35.4467 17.0147 35.5839 17.4384 35.7211C17.5856 35.7688 17.7327 35.8167 17.8798 35.8645C18.0136 35.908 18.0136 35.908 18.1502 35.9523C18.2286 35.9778 18.3069 36.0033 18.3877 36.0295C19.5461 36.3899 20.8743 36.0984 22.0564 35.975C22.2558 35.9545 22.4552 35.934 22.6546 35.9136C23.0708 35.8708 23.487 35.8276 23.9031 35.7841C24.3817 35.7341 24.8604 35.685 25.3391 35.6364C25.8031 35.5892 26.267 35.5412 26.7309 35.493C26.9268 35.4727 27.1227 35.4526 27.3186 35.4327C27.5931 35.4048 27.8674 35.376 28.1417 35.347C28.2213 35.3391 28.301 35.3311 28.3831 35.323C29.1754 35.2373 29.9333 35.1067 30.6008 34.6533C30.6529 34.6193 30.705 34.5853 30.7587 34.5504C31.2586 34.2215 31.7462 33.8745 32.2328 33.5266C32.5937 33.269 32.9591 33.0183 33.3254 32.7685C33.3876 32.726 33.4499 32.6836 33.514 32.6398C33.6375 32.5555 33.7611 32.4713 33.8847 32.3871C34.1577 32.2007 34.43 32.0135 34.7023 31.8261C34.7775 31.7744 34.7775 31.7744 34.8541 31.7217C35.12 31.5388 35.3859 31.3558 35.6517 31.1727C35.7077 31.1342 35.7638 31.0956 35.8215 31.0559C35.9279 30.9826 36.0343 30.9094 36.1407 30.8361C36.1891 30.8028 36.2375 30.7694 36.2874 30.7351C36.3337 30.7032 36.3799 30.6712 36.4276 30.6383C36.5577 30.5502 36.6905 30.466 36.8233 30.382C37.1038 30.183 37.1764 30.0171 37.2658 29.6874C37.2198 29.3857 37.1535 29.2002 36.9728 28.955C36.748 28.7927 36.6052 28.7678 36.3283 28.7499C36.0751 28.8354 36.0751 28.8354 35.8107 28.9843C35.7588 29.0115 35.7069 29.0387 35.6534 29.0667C35.4609 29.1681 35.2697 29.2716 35.0783 29.3749C34.9045 29.4677 34.7306 29.5603 34.5567 29.653C33.8684 30.0201 33.1805 30.3882 32.4959 30.7623C31.1156 31.5128 29.7698 31.9799 28.196 32.1075C28.1196 32.1139 28.0432 32.1203 27.9646 32.1269C26.9818 32.2072 25.9977 32.2705 25.0136 32.3327C24.7404 32.35 24.4673 32.3678 24.1941 32.3858C23.9789 32.3999 23.7635 32.4136 23.5482 32.4272C23.3998 32.4367 23.2513 32.4465 23.1029 32.4563C22.8239 32.4736 22.5451 32.4878 22.2658 32.4999C22.2133 32.5025 22.1609 32.505 22.1068 32.5076C21.9459 32.5147 21.785 32.5193 21.624 32.5234C21.5281 32.5265 21.4323 32.5295 21.3335 32.5327C21.0939 32.4999 21.0939 32.4999 20.944 32.3537C20.8402 32.1494 20.8477 32.0407 20.884 31.8163C20.8933 31.7539 20.9027 31.6915 20.9123 31.6271C20.9249 31.5564 20.9249 31.5564 20.9377 31.4843C21.261 31.4104 21.5773 31.3837 21.908 31.3627C21.965 31.359 22.0219 31.3553 22.0806 31.3515C22.2037 31.3435 22.3268 31.3357 22.45 31.328C22.6447 31.3157 22.8393 31.3032 23.034 31.2905C23.5171 31.2591 24.0003 31.2282 24.4835 31.1975C24.8925 31.1714 25.3015 31.1451 25.7104 31.1184C25.9025 31.106 26.0946 31.094 26.2866 31.082C26.4038 31.0744 26.5211 31.0667 26.6383 31.0591C26.7408 31.0525 26.8434 31.046 26.9491 31.0393C27.1809 31.0306 27.1809 31.0306 27.3439 30.9374C27.3253 30.3496 27.1976 29.9685 26.797 29.5312C26.2154 29.119 25.5735 29.049 24.8815 28.9767C24.7729 28.9641 24.6643 28.9514 24.5558 28.9386C24.2718 28.9052 23.9877 28.8735 23.7035 28.8422C23.2497 28.7923 22.7961 28.7408 22.3426 28.6876C22.1862 28.6696 22.0297 28.6529 21.8732 28.6362C21.0006 28.5358 20.1751 28.3299 19.3947 27.9199C19.3165 27.8801 19.3165 27.8801 19.2368 27.8396C18.9116 27.6714 18.5996 27.4877 18.2886 27.2949C17.3984 26.7463 16.4505 26.3704 15.4689 26.0156C15.4115 25.9944 15.3541 25.9732 15.2949 25.9513C13.5045 25.3091 11.7603 25.7618 10.1564 26.6406Z" fill="white"/>
</g>
<defs>
<clipPath id="clip0_2397_1006">
<rect width="40" height="40" fill="white"/>
</clipPath>
</defs>
</svg>
