<svg width="40" height="40" viewBox="0 0 40 40" fill="none" xmlns="http://www.w3.org/2000/svg">
<mask id="path-1-inside-1_2397_1057" fill="white">
<path d="M20.0145 4.34077C20.1001 4.34147 20.1856 4.34218 20.2738 4.3429C21.5553 4.37009 22.9376 4.73343 23.9061 5.62495C23.9934 5.77296 23.9934 5.77296 24.0526 5.9228C24.1628 6.16284 24.2724 6.31677 24.4677 6.49409C25.4521 7.42769 25.9556 8.80461 26.0271 10.1382C26.0326 10.5244 26.0024 10.8959 25.9569 11.2792C25.9202 11.6332 25.9202 11.6332 26.079 11.9482C26.1354 12.0014 26.1918 12.0545 26.2499 12.1093C26.5647 12.7598 26.4096 13.509 26.3085 14.1992C26.2957 14.2919 26.2957 14.2919 26.2826 14.3866C26.1965 14.9267 26.0312 15.4603 25.5858 15.8105C25.5415 15.8465 25.4972 15.8826 25.4515 15.9197C25.3124 16.0156 25.3124 16.0156 25.1503 16.0702C24.9103 16.2323 24.8868 16.4858 24.8192 16.7529C24.6505 17.3496 24.4292 17.9677 23.943 18.3832C23.6833 18.6069 23.5646 18.7557 23.5308 19.1033C23.5267 19.2296 23.5249 19.356 23.5253 19.4824C23.5237 19.5473 23.5221 19.6123 23.5204 19.6792C23.5167 19.8382 23.5158 19.9972 23.5155 20.1562C23.5866 20.164 23.6578 20.1718 23.7311 20.1798C24.1597 20.2414 24.5723 20.3652 24.9886 20.4818C25.0775 20.5066 25.1664 20.5314 25.258 20.5569C25.4458 20.6095 25.6335 20.6622 25.8212 20.7151C26.1057 20.7951 26.3906 20.8737 26.6755 20.9522C26.8586 21.0037 27.0418 21.0552 27.2249 21.1068C27.3089 21.1298 27.393 21.1528 27.4795 21.1764C28.6162 21.5014 29.6239 22.0194 30.2684 23.0468C30.6059 23.6661 30.8672 24.2853 30.8708 24.9981C30.8716 25.1125 30.8716 25.1125 30.8725 25.2293C30.8727 25.3122 30.8729 25.395 30.8731 25.4803C30.8736 25.5683 30.8741 25.6563 30.8746 25.7469C30.8762 26.0378 30.8771 26.3286 30.8779 26.6195C30.8782 26.719 30.8785 26.8185 30.8788 26.9211C30.8803 27.3935 30.8814 27.866 30.8821 28.3384C30.8829 28.882 30.8849 29.4256 30.8881 29.9692C30.8907 30.4415 30.8916 30.9137 30.892 31.3859C30.8923 31.5861 30.8932 31.7863 30.8947 31.9865C30.8966 32.2671 30.8965 32.5477 30.896 32.8284C30.8975 32.9514 30.8975 32.9514 30.899 33.077C30.8937 33.8406 30.6837 34.4572 30.1561 35.0189C29.7265 35.3965 29.2413 35.634 28.6661 35.6354C28.5716 35.636 28.5716 35.636 28.4752 35.6365C28.4064 35.6365 28.3377 35.6365 28.2668 35.6364C28.1934 35.6367 28.12 35.637 28.0444 35.6373C27.7977 35.6382 27.5511 35.6385 27.3045 35.6388C27.128 35.6393 26.9514 35.6398 26.7748 35.6403C26.1944 35.642 25.6139 35.6428 25.0335 35.6436C24.8336 35.6439 24.6338 35.6442 24.4339 35.6445C23.6026 35.6458 22.7713 35.647 21.94 35.6476C21.7244 35.6477 21.5088 35.6479 21.2931 35.648C21.2396 35.648 21.186 35.6481 21.1308 35.6481C20.2631 35.6488 19.3955 35.6507 18.5279 35.6533C17.6364 35.6559 16.7449 35.6573 15.8534 35.6575C15.3531 35.6577 14.8529 35.6584 14.3526 35.6604C13.8818 35.6622 13.4111 35.6625 12.9403 35.6617C12.7677 35.6617 12.5952 35.6622 12.4227 35.6632C12.1866 35.6646 11.9505 35.6641 11.7144 35.663C11.6128 35.6643 11.6128 35.6643 11.5091 35.6656C10.8349 35.6586 10.2252 35.4411 9.72889 34.9764C9.13928 34.3222 9.03887 33.6596 9.04093 32.807C9.04053 32.7216 9.04013 32.6362 9.03972 32.5481C9.03864 32.2665 9.03871 31.9848 9.03889 31.7031C9.03859 31.5065 9.03825 31.3098 9.03788 31.1132C9.0373 30.7011 9.03731 30.289 9.03773 29.8769C9.0382 29.4027 9.03724 28.9286 9.03557 28.4544C9.03402 27.996 9.0338 27.5376 9.03407 27.0792C9.03403 26.8853 9.03362 26.6913 9.03283 26.4974C9.03186 26.2252 9.0324 25.9531 9.0333 25.6809C9.03271 25.6018 9.03211 25.5228 9.03149 25.4413C9.04002 24.2673 9.42419 23.1442 10.261 22.301C11.1914 21.4423 12.3526 21.1946 13.5448 20.8691C13.7313 20.8169 13.9178 20.7647 14.1042 20.7122C14.5185 20.596 14.9332 20.481 15.3484 20.3676C15.5188 20.3202 15.688 20.27 15.8573 20.2187C16.0936 20.1562 16.0936 20.1562 16.4061 20.1562C16.4479 19.3309 16.4479 19.3309 16.2175 18.565C16.0802 18.4403 16.0802 18.4403 15.9301 18.3291C15.4674 17.9376 15.257 17.2384 15.067 16.6802C14.9492 16.2526 14.9492 16.2526 14.6288 15.9863C14.2258 15.7848 13.9841 15.529 13.8302 15.1013C13.7674 14.8602 13.7172 14.6198 13.6718 14.3749C13.6558 14.2971 13.6397 14.2193 13.6232 14.139C13.4687 13.3256 13.3727 12.5981 13.828 11.8749C13.8796 11.8234 13.9311 11.7718 13.9843 11.7187C13.9961 11.562 13.9961 11.562 13.9769 11.383C13.9721 11.3151 13.9672 11.2472 13.9622 11.1772C13.9566 11.1045 13.951 11.0319 13.9452 10.957C13.8437 9.27673 14.2757 7.53252 15.4056 6.2407C15.8455 5.75872 16.2307 5.41655 16.8729 5.27731C17.189 5.19143 17.4614 5.01016 17.7414 4.84446C18.4627 4.43662 19.195 4.33262 20.0145 4.34077ZM18.7499 8.98432C18.6693 9.04555 18.5888 9.10678 18.5057 9.16987C18.1975 9.38722 17.9278 9.53818 17.5386 9.52414C17.2959 9.52047 17.1068 9.53536 16.8749 9.60932C16.6387 9.85965 16.519 10.1441 16.3866 10.4589C16.3488 10.5371 16.3111 10.6152 16.2722 10.6957C16.0518 11.1845 15.9805 11.5491 16.0683 12.0799C16.1081 12.3716 16.062 12.5463 15.9374 12.8124C15.7421 12.9199 15.7421 12.9199 15.5468 12.9687C15.4694 13.0074 15.4694 13.0074 15.3905 13.0468C15.4016 13.1966 15.4131 13.3463 15.4247 13.496C15.431 13.5794 15.4374 13.6628 15.4439 13.7487C15.4665 14.0306 15.4665 14.0306 15.5468 14.2968C15.702 14.3745 15.702 14.3745 15.8886 14.414C16.201 14.4914 16.3101 14.5731 16.4843 14.8437C16.5452 15.0246 16.5452 15.0246 16.5905 15.2227C16.608 15.2953 16.6256 15.3679 16.6436 15.4427C16.6619 15.519 16.6803 15.5952 16.6991 15.6738C16.9399 16.6038 17.2329 17.2306 18.0605 17.7654C18.8772 18.2286 19.6475 18.6049 20.5956 18.3544C21.4579 18.0745 22.4009 17.602 22.8612 16.7871C23.086 16.2987 23.2141 15.771 23.3482 15.2518C23.3757 15.1478 23.3757 15.1478 23.4038 15.0418C23.4197 14.9792 23.4357 14.9167 23.4521 14.8523C23.523 14.6679 23.5981 14.5776 23.7499 14.4531C23.9557 14.3795 24.1603 14.3426 24.3749 14.2968C24.5389 13.6783 24.5389 13.6783 24.5311 13.0468C24.3781 12.938 24.2215 12.8341 24.0624 12.7343C23.8485 12.3893 23.8117 12.2266 23.9013 11.8359C23.9868 11.2879 23.6123 10.8909 23.3062 10.4708C23.1832 10.3076 23.1832 10.3076 23.0468 10.1562C22.9069 10.1565 22.7671 10.1574 22.6273 10.1614C21.1201 10.2005 20.0234 9.71792 18.7499 8.98432ZM18.2811 19.9218C18.2726 19.9906 18.264 20.0594 18.2552 20.1303C18.2366 20.2664 18.2366 20.2664 18.2177 20.4052C18.2 20.5398 18.2 20.5398 18.182 20.6771C18.1243 20.9399 18.0354 21.1046 17.8905 21.3281C17.8905 21.3796 17.8905 21.4312 17.8905 21.4843C17.552 21.6262 17.206 21.7401 16.8563 21.8505C16.792 21.8708 16.7278 21.8911 16.6616 21.912C16.129 22.0781 15.593 22.2297 15.0551 22.3779C14.9729 22.4006 14.8907 22.4234 14.806 22.4469C14.467 22.5407 14.1281 22.6345 13.7886 22.7262C13.5366 22.7944 13.2851 22.8643 13.0336 22.9345C12.9578 22.9546 12.8819 22.9746 12.8038 22.9952C12.1047 23.1934 11.5943 23.5491 11.1718 24.1406C10.8602 24.7527 10.8476 25.3504 10.8479 26.0217C10.8477 26.0989 10.8474 26.1761 10.8471 26.2556C10.8464 26.5094 10.8462 26.7633 10.8461 27.0172C10.8459 27.1941 10.8456 27.371 10.8454 27.548C10.8449 27.9182 10.8447 28.2885 10.8448 28.6587C10.8448 29.1333 10.8437 29.6078 10.8424 30.0823C10.8415 30.4475 10.8414 30.8126 10.8414 31.1777C10.8413 31.3527 10.841 31.5277 10.8404 31.7027C10.8396 31.9471 10.8398 32.1915 10.8403 32.4359C10.8398 32.5081 10.8394 32.5804 10.839 32.6548C10.8393 33.2353 10.8393 33.2353 11.1346 33.7191C11.4199 33.8798 11.6996 33.8606 12.0184 33.8584C12.0889 33.8588 12.1594 33.8592 12.2321 33.8596C12.4688 33.8608 12.7055 33.8602 12.9422 33.8596C13.1117 33.8601 13.2813 33.8606 13.4508 33.8613C13.9116 33.8627 14.3724 33.8626 14.8333 33.8621C15.2177 33.8619 15.6021 33.8624 15.9866 33.8628C16.8933 33.8639 17.8001 33.8638 18.7068 33.8629C19.6429 33.862 20.579 33.8631 21.5151 33.8652C22.3183 33.8669 23.1214 33.8675 23.9246 33.867C24.4045 33.8667 24.8844 33.8669 25.3644 33.8683C25.8156 33.8695 26.2668 33.8692 26.7181 33.8677C26.8838 33.8674 27.0496 33.8677 27.2153 33.8685C27.4414 33.8695 27.6673 33.8686 27.8933 33.8672C27.9591 33.868 28.025 33.8687 28.0928 33.8695C28.4056 33.8656 28.5574 33.8511 28.8278 33.6791C29.0445 33.4526 29.0722 33.3334 29.0739 33.029C29.0744 32.9596 29.075 32.8903 29.0756 32.8189C29.0758 32.7427 29.076 32.6664 29.0762 32.5879C29.077 32.4676 29.077 32.4676 29.0778 32.3449C29.0793 32.0785 29.0802 31.8121 29.081 31.5457C29.0813 31.4547 29.0816 31.3636 29.082 31.2699C29.0836 30.7877 29.0847 30.3054 29.0854 29.8232C29.0863 29.3262 29.089 28.8292 29.0921 28.3322C29.0942 27.9493 29.0948 27.5664 29.0951 27.1835C29.0955 27.0004 29.0964 26.8173 29.0978 26.6342C29.0997 26.3769 29.0996 26.1197 29.0991 25.8624C29.1006 25.7501 29.1006 25.7501 29.1021 25.6356C29.0963 24.8658 28.8786 24.2244 28.3574 23.6526C27.8783 23.2275 27.3952 23.0812 26.7843 22.9101C26.692 22.8835 26.5996 22.857 26.5045 22.8296C26.2099 22.745 25.915 22.6615 25.62 22.5781C25.3271 22.4944 25.0342 22.4105 24.7413 22.3265C24.5595 22.2745 24.3775 22.2226 24.1956 22.171C23.9426 22.0992 23.6899 22.0264 23.4374 21.9531C23.3452 21.9264 23.253 21.8997 23.158 21.8722C23.0675 21.8453 22.9769 21.8184 22.8837 21.7907C22.802 21.7666 22.7203 21.7425 22.6361 21.7177C22.2956 21.5952 22.063 21.4275 21.8691 21.1144C21.7742 20.8823 21.7436 20.6582 21.7089 20.4101C21.6958 20.3187 21.6827 20.2272 21.6692 20.133C21.6597 20.0633 21.6503 19.9936 21.6405 19.9218C21.5537 19.9472 21.5537 19.9472 21.465 19.9731C20.3806 20.2598 19.3576 20.2363 18.2811 19.9218Z"/>
</mask>
<path d="M20.0145 4.34077C20.1001 4.34147 20.1856 4.34218 20.2738 4.3429C21.5553 4.37009 22.9376 4.73343 23.9061 5.62495C23.9934 5.77296 23.9934 5.77296 24.0526 5.9228C24.1628 6.16284 24.2724 6.31677 24.4677 6.49409C25.4521 7.42769 25.9556 8.80461 26.0271 10.1382C26.0326 10.5244 26.0024 10.8959 25.9569 11.2792C25.9202 11.6332 25.9202 11.6332 26.079 11.9482C26.1354 12.0014 26.1918 12.0545 26.2499 12.1093C26.5647 12.7598 26.4096 13.509 26.3085 14.1992C26.2957 14.2919 26.2957 14.2919 26.2826 14.3866C26.1965 14.9267 26.0312 15.4603 25.5858 15.8105C25.5415 15.8465 25.4972 15.8826 25.4515 15.9197C25.3124 16.0156 25.3124 16.0156 25.1503 16.0702C24.9103 16.2323 24.8868 16.4858 24.8192 16.7529C24.6505 17.3496 24.4292 17.9677 23.943 18.3832C23.6833 18.6069 23.5646 18.7557 23.5308 19.1033C23.5267 19.2296 23.5249 19.356 23.5253 19.4824C23.5237 19.5473 23.5221 19.6123 23.5204 19.6792C23.5167 19.8382 23.5158 19.9972 23.5155 20.1562C23.5866 20.164 23.6578 20.1718 23.7311 20.1798C24.1597 20.2414 24.5723 20.3652 24.9886 20.4818C25.0775 20.5066 25.1664 20.5314 25.258 20.5569C25.4458 20.6095 25.6335 20.6622 25.8212 20.7151C26.1057 20.7951 26.3906 20.8737 26.6755 20.9522C26.8586 21.0037 27.0418 21.0552 27.2249 21.1068C27.3089 21.1298 27.393 21.1528 27.4795 21.1764C28.6162 21.5014 29.6239 22.0194 30.2684 23.0468C30.6059 23.6661 30.8672 24.2853 30.8708 24.9981C30.8716 25.1125 30.8716 25.1125 30.8725 25.2293C30.8727 25.3122 30.8729 25.395 30.8731 25.4803C30.8736 25.5683 30.8741 25.6563 30.8746 25.7469C30.8762 26.0378 30.8771 26.3286 30.8779 26.6195C30.8782 26.719 30.8785 26.8185 30.8788 26.9211C30.8803 27.3935 30.8814 27.866 30.8821 28.3384C30.8829 28.882 30.8849 29.4256 30.8881 29.9692C30.8907 30.4415 30.8916 30.9137 30.892 31.3859C30.8923 31.5861 30.8932 31.7863 30.8947 31.9865C30.8966 32.2671 30.8965 32.5477 30.896 32.8284C30.8975 32.9514 30.8975 32.9514 30.899 33.077C30.8937 33.8406 30.6837 34.4572 30.1561 35.0189C29.7265 35.3965 29.2413 35.634 28.6661 35.6354C28.5716 35.636 28.5716 35.636 28.4752 35.6365C28.4064 35.6365 28.3377 35.6365 28.2668 35.6364C28.1934 35.6367 28.12 35.637 28.0444 35.6373C27.7977 35.6382 27.5511 35.6385 27.3045 35.6388C27.128 35.6393 26.9514 35.6398 26.7748 35.6403C26.1944 35.642 25.6139 35.6428 25.0335 35.6436C24.8336 35.6439 24.6338 35.6442 24.4339 35.6445C23.6026 35.6458 22.7713 35.647 21.94 35.6476C21.7244 35.6477 21.5088 35.6479 21.2931 35.648C21.2396 35.648 21.186 35.6481 21.1308 35.6481C20.2631 35.6488 19.3955 35.6507 18.5279 35.6533C17.6364 35.6559 16.7449 35.6573 15.8534 35.6575C15.3531 35.6577 14.8529 35.6584 14.3526 35.6604C13.8818 35.6622 13.4111 35.6625 12.9403 35.6617C12.7677 35.6617 12.5952 35.6622 12.4227 35.6632C12.1866 35.6646 11.9505 35.6641 11.7144 35.663C11.6128 35.6643 11.6128 35.6643 11.5091 35.6656C10.8349 35.6586 10.2252 35.4411 9.72889 34.9764C9.13928 34.3222 9.03887 33.6596 9.04093 32.807C9.04053 32.7216 9.04013 32.6362 9.03972 32.5481C9.03864 32.2665 9.03871 31.9848 9.03889 31.7031C9.03859 31.5065 9.03825 31.3098 9.03788 31.1132C9.0373 30.7011 9.03731 30.289 9.03773 29.8769C9.0382 29.4027 9.03724 28.9286 9.03557 28.4544C9.03402 27.996 9.0338 27.5376 9.03407 27.0792C9.03403 26.8853 9.03362 26.6913 9.03283 26.4974C9.03186 26.2252 9.0324 25.9531 9.0333 25.6809C9.03271 25.6018 9.03211 25.5228 9.03149 25.4413C9.04002 24.2673 9.42419 23.1442 10.261 22.301C11.1914 21.4423 12.3526 21.1946 13.5448 20.8691C13.7313 20.8169 13.9178 20.7647 14.1042 20.7122C14.5185 20.596 14.9332 20.481 15.3484 20.3676C15.5188 20.3202 15.688 20.27 15.8573 20.2187C16.0936 20.1562 16.0936 20.1562 16.4061 20.1562C16.4479 19.3309 16.4479 19.3309 16.2175 18.565C16.0802 18.4403 16.0802 18.4403 15.9301 18.3291C15.4674 17.9376 15.257 17.2384 15.067 16.6802C14.9492 16.2526 14.9492 16.2526 14.6288 15.9863C14.2258 15.7848 13.9841 15.529 13.8302 15.1013C13.7674 14.8602 13.7172 14.6198 13.6718 14.3749C13.6558 14.2971 13.6397 14.2193 13.6232 14.139C13.4687 13.3256 13.3727 12.5981 13.828 11.8749C13.8796 11.8234 13.9311 11.7718 13.9843 11.7187C13.9961 11.562 13.9961 11.562 13.9769 11.383C13.9721 11.3151 13.9672 11.2472 13.9622 11.1772C13.9566 11.1045 13.951 11.0319 13.9452 10.957C13.8437 9.27673 14.2757 7.53252 15.4056 6.2407C15.8455 5.75872 16.2307 5.41655 16.8729 5.27731C17.189 5.19143 17.4614 5.01016 17.7414 4.84446C18.4627 4.43662 19.195 4.33262 20.0145 4.34077ZM18.7499 8.98432C18.6693 9.04555 18.5888 9.10678 18.5057 9.16987C18.1975 9.38722 17.9278 9.53818 17.5386 9.52414C17.2959 9.52047 17.1068 9.53536 16.8749 9.60932C16.6387 9.85965 16.519 10.1441 16.3866 10.4589C16.3488 10.5371 16.3111 10.6152 16.2722 10.6957C16.0518 11.1845 15.9805 11.5491 16.0683 12.0799C16.1081 12.3716 16.062 12.5463 15.9374 12.8124C15.7421 12.9199 15.7421 12.9199 15.5468 12.9687C15.4694 13.0074 15.4694 13.0074 15.3905 13.0468C15.4016 13.1966 15.4131 13.3463 15.4247 13.496C15.431 13.5794 15.4374 13.6628 15.4439 13.7487C15.4665 14.0306 15.4665 14.0306 15.5468 14.2968C15.702 14.3745 15.702 14.3745 15.8886 14.414C16.201 14.4914 16.3101 14.5731 16.4843 14.8437C16.5452 15.0246 16.5452 15.0246 16.5905 15.2227C16.608 15.2953 16.6256 15.3679 16.6436 15.4427C16.6619 15.519 16.6803 15.5952 16.6991 15.6738C16.9399 16.6038 17.2329 17.2306 18.0605 17.7654C18.8772 18.2286 19.6475 18.6049 20.5956 18.3544C21.4579 18.0745 22.4009 17.602 22.8612 16.7871C23.086 16.2987 23.2141 15.771 23.3482 15.2518C23.3757 15.1478 23.3757 15.1478 23.4038 15.0418C23.4197 14.9792 23.4357 14.9167 23.4521 14.8523C23.523 14.6679 23.5981 14.5776 23.7499 14.4531C23.9557 14.3795 24.1603 14.3426 24.3749 14.2968C24.5389 13.6783 24.5389 13.6783 24.5311 13.0468C24.3781 12.938 24.2215 12.8341 24.0624 12.7343C23.8485 12.3893 23.8117 12.2266 23.9013 11.8359C23.9868 11.2879 23.6123 10.8909 23.3062 10.4708C23.1832 10.3076 23.1832 10.3076 23.0468 10.1562C22.9069 10.1565 22.7671 10.1574 22.6273 10.1614C21.1201 10.2005 20.0234 9.71792 18.7499 8.98432ZM18.2811 19.9218C18.2726 19.9906 18.264 20.0594 18.2552 20.1303C18.2366 20.2664 18.2366 20.2664 18.2177 20.4052C18.2 20.5398 18.2 20.5398 18.182 20.6771C18.1243 20.9399 18.0354 21.1046 17.8905 21.3281C17.8905 21.3796 17.8905 21.4312 17.8905 21.4843C17.552 21.6262 17.206 21.7401 16.8563 21.8505C16.792 21.8708 16.7278 21.8911 16.6616 21.912C16.129 22.0781 15.593 22.2297 15.0551 22.3779C14.9729 22.4006 14.8907 22.4234 14.806 22.4469C14.467 22.5407 14.1281 22.6345 13.7886 22.7262C13.5366 22.7944 13.2851 22.8643 13.0336 22.9345C12.9578 22.9546 12.8819 22.9746 12.8038 22.9952C12.1047 23.1934 11.5943 23.5491 11.1718 24.1406C10.8602 24.7527 10.8476 25.3504 10.8479 26.0217C10.8477 26.0989 10.8474 26.1761 10.8471 26.2556C10.8464 26.5094 10.8462 26.7633 10.8461 27.0172C10.8459 27.1941 10.8456 27.371 10.8454 27.548C10.8449 27.9182 10.8447 28.2885 10.8448 28.6587C10.8448 29.1333 10.8437 29.6078 10.8424 30.0823C10.8415 30.4475 10.8414 30.8126 10.8414 31.1777C10.8413 31.3527 10.841 31.5277 10.8404 31.7027C10.8396 31.9471 10.8398 32.1915 10.8403 32.4359C10.8398 32.5081 10.8394 32.5804 10.839 32.6548C10.8393 33.2353 10.8393 33.2353 11.1346 33.7191C11.4199 33.8798 11.6996 33.8606 12.0184 33.8584C12.0889 33.8588 12.1594 33.8592 12.2321 33.8596C12.4688 33.8608 12.7055 33.8602 12.9422 33.8596C13.1117 33.8601 13.2813 33.8606 13.4508 33.8613C13.9116 33.8627 14.3724 33.8626 14.8333 33.8621C15.2177 33.8619 15.6021 33.8624 15.9866 33.8628C16.8933 33.8639 17.8001 33.8638 18.7068 33.8629C19.6429 33.862 20.579 33.8631 21.5151 33.8652C22.3183 33.8669 23.1214 33.8675 23.9246 33.867C24.4045 33.8667 24.8844 33.8669 25.3644 33.8683C25.8156 33.8695 26.2668 33.8692 26.7181 33.8677C26.8838 33.8674 27.0496 33.8677 27.2153 33.8685C27.4414 33.8695 27.6673 33.8686 27.8933 33.8672C27.9591 33.868 28.025 33.8687 28.0928 33.8695C28.4056 33.8656 28.5574 33.8511 28.8278 33.6791C29.0445 33.4526 29.0722 33.3334 29.0739 33.029C29.0744 32.9596 29.075 32.8903 29.0756 32.8189C29.0758 32.7427 29.076 32.6664 29.0762 32.5879C29.077 32.4676 29.077 32.4676 29.0778 32.3449C29.0793 32.0785 29.0802 31.8121 29.081 31.5457C29.0813 31.4547 29.0816 31.3636 29.082 31.2699C29.0836 30.7877 29.0847 30.3054 29.0854 29.8232C29.0863 29.3262 29.089 28.8292 29.0921 28.3322C29.0942 27.9493 29.0948 27.5664 29.0951 27.1835C29.0955 27.0004 29.0964 26.8173 29.0978 26.6342C29.0997 26.3769 29.0996 26.1197 29.0991 25.8624C29.1006 25.7501 29.1006 25.7501 29.1021 25.6356C29.0963 24.8658 28.8786 24.2244 28.3574 23.6526C27.8783 23.2275 27.3952 23.0812 26.7843 22.9101C26.692 22.8835 26.5996 22.857 26.5045 22.8296C26.2099 22.745 25.915 22.6615 25.62 22.5781C25.3271 22.4944 25.0342 22.4105 24.7413 22.3265C24.5595 22.2745 24.3775 22.2226 24.1956 22.171C23.9426 22.0992 23.6899 22.0264 23.4374 21.9531C23.3452 21.9264 23.253 21.8997 23.158 21.8722C23.0675 21.8453 22.9769 21.8184 22.8837 21.7907C22.802 21.7666 22.7203 21.7425 22.6361 21.7177C22.2956 21.5952 22.063 21.4275 21.8691 21.1144C21.7742 20.8823 21.7436 20.6582 21.7089 20.4101C21.6958 20.3187 21.6827 20.2272 21.6692 20.133C21.6597 20.0633 21.6503 19.9936 21.6405 19.9218C21.5537 19.9472 21.5537 19.9472 21.465 19.9731C20.3806 20.2598 19.3576 20.2363 18.2811 19.9218Z" stroke="white" stroke-width="1.36752" mask="url(#path-1-inside-1_2397_1057)"/>
<mask id="path-2-inside-2_2397_1057" fill="white">
<path d="M32.4243 8.8554C32.7049 9.06855 32.8142 9.29995 32.9688 9.60918C33.0629 9.71344 33.1592 9.81577 33.2569 9.9168C34.2018 10.9506 34.52 12.2229 34.5313 13.5936C34.5146 13.7371 34.4956 13.8805 34.4727 14.0232C34.4368 14.2835 34.4368 14.2835 34.5346 14.5198C34.5706 14.567 34.6065 14.6142 34.6436 14.6629C35.0792 15.2696 34.8586 16.1828 34.7461 16.8797C34.7376 16.9345 34.7291 16.9893 34.7203 17.0458C34.6102 17.6463 34.3075 18.0124 33.8281 18.3592C33.7508 18.3592 33.6735 18.3592 33.5938 18.3592C33.5879 18.4047 33.5821 18.4502 33.5761 18.4971C33.4614 19.212 33.1983 19.8728 32.6709 20.3807C32.2893 20.7757 32.3462 21.2778 32.3438 21.7967C32.4234 21.8148 32.5031 21.833 32.5852 21.8517C33.3598 22.0299 34.1283 22.2246 34.8931 22.4408C35.0107 22.4738 35.1283 22.5064 35.2461 22.5384C36.4226 22.8589 37.5436 23.2812 38.2276 24.3602C38.6941 25.2343 38.7972 25.9902 38.7915 26.9657C38.7917 27.0942 38.792 27.2227 38.7924 27.3511C38.7929 27.6189 38.7922 27.8866 38.7908 28.1544C38.789 28.496 38.79 28.8375 38.7919 29.1791C38.793 29.4438 38.7926 29.7085 38.7918 29.9733C38.7916 30.0992 38.7919 30.2251 38.7926 30.351C38.7963 31.1639 38.7636 31.9145 38.1795 32.5464C37.46 33.1412 36.7075 33.1896 35.8216 33.1706C35.7003 33.1697 35.579 33.169 35.4577 33.1686C35.1418 33.1668 34.8259 33.1622 34.5099 33.157C34.1862 33.1522 33.8625 33.15 33.5388 33.1477C32.9061 33.1427 32.2734 33.1345 31.6406 33.1248C31.6406 32.5318 31.6406 31.9389 31.6406 31.3279C31.866 31.3256 31.866 31.3256 32.0959 31.3232C32.592 31.3179 33.0882 31.3119 33.5843 31.3055C33.8851 31.3016 34.1859 31.2979 34.4867 31.295C34.777 31.2921 35.0673 31.2885 35.3575 31.2843C35.4683 31.2829 35.5791 31.2817 35.6899 31.2808C35.845 31.2795 36 31.2771 36.1551 31.2747C36.2434 31.2737 36.3317 31.2726 36.4226 31.2716C36.657 31.2654 36.657 31.2654 36.875 31.0936C36.9116 30.8777 36.9116 30.8777 36.9066 30.6208C36.9076 30.5214 36.9086 30.422 36.9096 30.3196C36.9094 30.2105 36.9092 30.1013 36.9089 29.9922C36.9093 29.8802 36.9097 29.7683 36.9101 29.6563C36.9108 29.4211 36.9106 29.186 36.9099 28.9508C36.909 28.651 36.9105 28.3512 36.9128 28.0514C36.9143 27.8198 36.9142 27.5883 36.9138 27.3567C36.9138 27.2463 36.9143 27.1359 36.9152 27.0254C36.9204 26.3365 36.9053 25.7284 36.4516 25.1776C35.8788 24.6236 34.9963 24.4781 34.2487 24.2833C34.0788 24.2374 33.9089 24.1914 33.739 24.1453C33.475 24.0739 33.2108 24.0032 32.946 23.9346C32.6878 23.8675 32.4307 23.7973 32.1735 23.7266C32.0945 23.7069 32.0154 23.6872 31.934 23.6669C31.545 23.557 31.3095 23.4712 31.0894 23.1209C31.0373 23.0188 30.9866 22.9159 30.9375 22.8123C30.0776 21.512 29.0092 20.8436 27.5135 20.4643C27.4043 20.4366 27.4043 20.4366 27.293 20.4083C26.9926 20.3334 26.6919 20.2603 26.3902 20.1906C26.1665 20.1382 25.9441 20.0818 25.7215 20.0248C25.6535 20.0103 25.5856 19.9958 25.5156 19.9809C25.2199 19.9027 25.0524 19.8494 24.8864 19.5834C24.7302 19.2066 24.6173 18.9111 24.7657 18.5154C24.8754 18.3273 24.9905 18.1432 25.1068 17.9591C25.3295 17.5665 25.4747 17.143 25.625 16.7186C25.8915 16.8288 26.014 16.9476 26.1719 17.1873C26.2341 17.3563 26.2341 17.3563 26.2808 17.5376C26.2991 17.6043 26.3174 17.671 26.3362 17.7397C26.3728 17.8779 26.4088 18.0162 26.4443 18.1547C26.6011 18.7208 26.8361 19.1575 27.3014 19.5274C27.4968 19.635 27.6923 19.7414 27.8907 19.8436C27.947 19.876 28.0034 19.9084 28.0615 19.9418C28.5615 20.2047 29.0551 20.2559 29.6094 20.1561C30.4291 19.8695 31.1289 19.4468 31.5625 18.6717C31.6799 18.3263 31.7643 17.9725 31.8524 17.6188C32.0345 16.9299 32.0345 16.9299 32.3438 16.7186C32.6367 16.66 32.6367 16.66 32.8906 16.6404C32.9164 16.3568 32.9422 16.0732 32.9688 15.7811C32.9092 15.7504 32.8495 15.7198 32.7881 15.6883C32.549 15.527 32.4669 15.4151 32.3438 15.1561C32.3401 14.926 32.3401 14.926 32.3633 14.6775C32.3683 14.1902 32.2979 13.8425 32.0136 13.441C31.5757 13.1178 31.0129 13.2003 30.4893 13.2054C29.7784 13.1953 29.1904 12.8962 28.5868 12.5483C28.3811 12.4337 28.1951 12.3308 27.9688 12.2654C27.7271 12.4092 27.7271 12.4092 27.5 12.5779C27.3969 12.5779 27.2938 12.5779 27.1875 12.5779C27.1238 12.4283 27.0604 12.2785 26.9971 12.1287C26.9617 12.0453 26.9264 11.9619 26.89 11.876C26.8172 11.6919 26.7595 11.5209 26.7188 11.3279C26.8203 11.282 26.8203 11.282 26.9239 11.2352C27.1957 11.1018 27.1957 11.1018 27.4219 10.8885C27.682 10.6825 27.7949 10.6182 28.125 10.6248C28.5017 10.7496 28.8092 10.9778 29.126 11.2107C30.0743 11.8809 31.0656 11.9017 32.1875 11.7186C31.9007 11.3101 31.5935 10.9554 31.2293 10.6138C31.0938 10.4686 31.0938 10.4686 31.0233 10.3047C30.8987 10.0888 30.7552 10.0623 30.5225 9.98516C30.4487 9.95988 30.3748 9.9346 30.2988 9.90856C29.3665 9.63389 28.5124 9.69179 27.6563 10.1561C27.3634 10.3295 27.0779 10.511 26.7969 10.7029C26.7813 10.5531 26.7813 10.5531 26.7655 10.4002C26.7515 10.2667 26.7376 10.1333 26.7237 9.99981C26.7169 9.93425 26.7101 9.86868 26.7031 9.80114C26.6609 9.39793 26.6142 8.99567 26.5625 8.59356C26.7314 8.50485 26.9007 8.41713 27.0703 8.32988C27.1173 8.30511 27.1642 8.28034 27.2125 8.25481C28.8638 7.41163 30.9487 7.87353 32.4243 8.8554Z"/>
</mask>
<path d="M32.4243 8.8554C32.7049 9.06855 32.8142 9.29995 32.9688 9.60918C33.0629 9.71344 33.1592 9.81577 33.2569 9.9168C34.2018 10.9506 34.52 12.2229 34.5313 13.5936C34.5146 13.7371 34.4956 13.8805 34.4727 14.0232C34.4368 14.2835 34.4368 14.2835 34.5346 14.5198C34.5706 14.567 34.6065 14.6142 34.6436 14.6629C35.0792 15.2696 34.8586 16.1828 34.7461 16.8797C34.7376 16.9345 34.7291 16.9893 34.7203 17.0458C34.6102 17.6463 34.3075 18.0124 33.8281 18.3592C33.7508 18.3592 33.6735 18.3592 33.5938 18.3592C33.5879 18.4047 33.5821 18.4502 33.5761 18.4971C33.4614 19.212 33.1983 19.8728 32.6709 20.3807C32.2893 20.7757 32.3462 21.2778 32.3438 21.7967C32.4234 21.8148 32.5031 21.833 32.5852 21.8517C33.3598 22.0299 34.1283 22.2246 34.8931 22.4408C35.0107 22.4738 35.1283 22.5064 35.2461 22.5384C36.4226 22.8589 37.5436 23.2812 38.2276 24.3602C38.6941 25.2343 38.7972 25.9902 38.7915 26.9657C38.7917 27.0942 38.792 27.2227 38.7924 27.3511C38.7929 27.6189 38.7922 27.8866 38.7908 28.1544C38.789 28.496 38.79 28.8375 38.7919 29.1791C38.793 29.4438 38.7926 29.7085 38.7918 29.9733C38.7916 30.0992 38.7919 30.2251 38.7926 30.351C38.7963 31.1639 38.7636 31.9145 38.1795 32.5464C37.46 33.1412 36.7075 33.1896 35.8216 33.1706C35.7003 33.1697 35.579 33.169 35.4577 33.1686C35.1418 33.1668 34.8259 33.1622 34.5099 33.157C34.1862 33.1522 33.8625 33.15 33.5388 33.1477C32.9061 33.1427 32.2734 33.1345 31.6406 33.1248C31.6406 32.5318 31.6406 31.9389 31.6406 31.3279C31.866 31.3256 31.866 31.3256 32.0959 31.3232C32.592 31.3179 33.0882 31.3119 33.5843 31.3055C33.8851 31.3016 34.1859 31.2979 34.4867 31.295C34.777 31.2921 35.0673 31.2885 35.3575 31.2843C35.4683 31.2829 35.5791 31.2817 35.6899 31.2808C35.845 31.2795 36 31.2771 36.1551 31.2747C36.2434 31.2737 36.3317 31.2726 36.4226 31.2716C36.657 31.2654 36.657 31.2654 36.875 31.0936C36.9116 30.8777 36.9116 30.8777 36.9066 30.6208C36.9076 30.5214 36.9086 30.422 36.9096 30.3196C36.9094 30.2105 36.9092 30.1013 36.9089 29.9922C36.9093 29.8802 36.9097 29.7683 36.9101 29.6563C36.9108 29.4211 36.9106 29.186 36.9099 28.9508C36.909 28.651 36.9105 28.3512 36.9128 28.0514C36.9143 27.8198 36.9142 27.5883 36.9138 27.3567C36.9138 27.2463 36.9143 27.1359 36.9152 27.0254C36.9204 26.3365 36.9053 25.7284 36.4516 25.1776C35.8788 24.6236 34.9963 24.4781 34.2487 24.2833C34.0788 24.2374 33.9089 24.1914 33.739 24.1453C33.475 24.0739 33.2108 24.0032 32.946 23.9346C32.6878 23.8675 32.4307 23.7973 32.1735 23.7266C32.0945 23.7069 32.0154 23.6872 31.934 23.6669C31.545 23.557 31.3095 23.4712 31.0894 23.1209C31.0373 23.0188 30.9866 22.9159 30.9375 22.8123C30.0776 21.512 29.0092 20.8436 27.5135 20.4643C27.4043 20.4366 27.4043 20.4366 27.293 20.4083C26.9926 20.3334 26.6919 20.2603 26.3902 20.1906C26.1665 20.1382 25.9441 20.0818 25.7215 20.0248C25.6535 20.0103 25.5856 19.9958 25.5156 19.9809C25.2199 19.9027 25.0524 19.8494 24.8864 19.5834C24.7302 19.2066 24.6173 18.9111 24.7657 18.5154C24.8754 18.3273 24.9905 18.1432 25.1068 17.9591C25.3295 17.5665 25.4747 17.143 25.625 16.7186C25.8915 16.8288 26.014 16.9476 26.1719 17.1873C26.2341 17.3563 26.2341 17.3563 26.2808 17.5376C26.2991 17.6043 26.3174 17.671 26.3362 17.7397C26.3728 17.8779 26.4088 18.0162 26.4443 18.1547C26.6011 18.7208 26.8361 19.1575 27.3014 19.5274C27.4968 19.635 27.6923 19.7414 27.8907 19.8436C27.947 19.876 28.0034 19.9084 28.0615 19.9418C28.5615 20.2047 29.0551 20.2559 29.6094 20.1561C30.4291 19.8695 31.1289 19.4468 31.5625 18.6717C31.6799 18.3263 31.7643 17.9725 31.8524 17.6188C32.0345 16.9299 32.0345 16.9299 32.3438 16.7186C32.6367 16.66 32.6367 16.66 32.8906 16.6404C32.9164 16.3568 32.9422 16.0732 32.9688 15.7811C32.9092 15.7504 32.8495 15.7198 32.7881 15.6883C32.549 15.527 32.4669 15.4151 32.3438 15.1561C32.3401 14.926 32.3401 14.926 32.3633 14.6775C32.3683 14.1902 32.2979 13.8425 32.0136 13.441C31.5757 13.1178 31.0129 13.2003 30.4893 13.2054C29.7784 13.1953 29.1904 12.8962 28.5868 12.5483C28.3811 12.4337 28.1951 12.3308 27.9688 12.2654C27.7271 12.4092 27.7271 12.4092 27.5 12.5779C27.3969 12.5779 27.2938 12.5779 27.1875 12.5779C27.1238 12.4283 27.0604 12.2785 26.9971 12.1287C26.9617 12.0453 26.9264 11.9619 26.89 11.876C26.8172 11.6919 26.7595 11.5209 26.7188 11.3279C26.8203 11.282 26.8203 11.282 26.9239 11.2352C27.1957 11.1018 27.1957 11.1018 27.4219 10.8885C27.682 10.6825 27.7949 10.6182 28.125 10.6248C28.5017 10.7496 28.8092 10.9778 29.126 11.2107C30.0743 11.8809 31.0656 11.9017 32.1875 11.7186C31.9007 11.3101 31.5935 10.9554 31.2293 10.6138C31.0938 10.4686 31.0938 10.4686 31.0233 10.3047C30.8987 10.0888 30.7552 10.0623 30.5225 9.98516C30.4487 9.95988 30.3748 9.9346 30.2988 9.90856C29.3665 9.63389 28.5124 9.69179 27.6563 10.1561C27.3634 10.3295 27.0779 10.511 26.7969 10.7029C26.7813 10.5531 26.7813 10.5531 26.7655 10.4002C26.7515 10.2667 26.7376 10.1333 26.7237 9.99981C26.7169 9.93425 26.7101 9.86868 26.7031 9.80114C26.6609 9.39793 26.6142 8.99567 26.5625 8.59356C26.7314 8.50485 26.9007 8.41713 27.0703 8.32988C27.1173 8.30511 27.1642 8.28034 27.2125 8.25481C28.8638 7.41163 30.9487 7.87353 32.4243 8.8554Z" stroke="white" stroke-width="1.36752" mask="url(#path-2-inside-2_2397_1057)"/>
<mask id="path-3-inside-3_2397_1057" fill="white">
<path d="M10.9619 7.86128C11.0405 7.86191 11.1192 7.86253 11.2002 7.86317C11.9969 7.87838 12.7161 8.00707 13.4374 8.35933C13.428 8.4116 13.4185 8.46386 13.4088 8.51772C13.2867 9.21736 13.2035 9.9194 13.1249 10.625C13.0078 10.5224 13.0078 10.5224 12.8906 10.3906C12.8906 10.3132 12.8906 10.2359 12.8906 10.1562C11.8908 9.80166 10.8688 9.53896 9.84125 9.95753C9.39187 10.1911 8.9787 10.4807 8.56569 10.7727C8.43744 10.8593 8.43744 10.8593 8.20734 10.986C8.15437 11.0215 8.10139 11.0571 8.04682 11.0937C8.04682 11.171 8.04682 11.2484 8.04682 11.3281C8.50697 11.3656 8.77843 11.2847 9.14057 11.0156C9.21791 10.931 9.21791 10.931 9.29682 10.8447C9.52716 10.6359 9.69235 10.625 9.99994 10.625C10.2044 10.7193 10.3634 10.8113 10.5468 10.9375C11.3207 11.4598 11.9562 11.7582 12.8906 11.875C12.839 12.3132 12.7874 12.7515 12.7343 13.2031C11.8276 13.2031 10.8546 12.9828 10.1534 12.3584C10.1028 12.3277 10.0521 12.2971 9.99994 12.2656C9.80404 12.3141 9.80404 12.3141 9.60932 12.4218C8.72193 12.7804 8.72193 12.7804 8.20307 12.7343C8.18977 12.7778 8.17648 12.8213 8.16278 12.8662C8.06489 13.1744 7.9664 13.4489 7.79779 13.7255C7.59567 14.1024 7.64284 14.4843 7.66809 14.9008C7.65465 15.1892 7.59559 15.3195 7.42182 15.5468C7.21186 15.6884 7.21186 15.6884 7.03119 15.7812C7.06986 16.2066 7.06986 16.2066 7.10932 16.6406C7.1786 16.6454 7.24789 16.6502 7.31928 16.6552C7.65431 16.7374 7.75148 16.8412 7.96869 17.1093C8.07075 17.3589 8.13699 17.6149 8.20307 17.8759C8.36716 18.5156 8.53412 19.0658 9.06916 19.4863C9.15395 19.535 9.23875 19.5836 9.32611 19.6337C9.41051 19.6834 9.4949 19.733 9.58185 19.7842C10.2095 20.1141 10.6971 20.2749 11.4062 20.1562C12.102 19.9136 12.9413 19.5179 13.2986 18.8485C13.4787 18.4522 13.5734 18.0358 13.6701 17.613C13.7734 17.2031 13.8924 16.9906 14.2187 16.7187C14.4241 16.9241 14.491 17.1598 14.5898 17.4267C14.7299 17.7985 14.8716 18.1107 15.1171 18.4277C15.2527 18.615 15.3118 18.7049 15.3152 18.9376C15.2507 19.2662 15.1593 19.5247 14.9218 19.7656C14.6888 19.8629 14.4472 19.9209 14.2025 19.9819C14.1309 20.001 14.0592 20.0201 13.9854 20.0397C13.6799 20.121 13.3736 20.1997 13.0674 20.2784C11.2898 20.739 9.88953 21.336 8.90619 22.9687C8.85722 23.0871 8.85722 23.0871 8.80726 23.208C8.63991 23.4915 8.54678 23.5209 8.23324 23.6027C8.14325 23.6272 8.05325 23.6517 7.96053 23.677C7.86312 23.7017 7.76571 23.7264 7.66535 23.7518C7.56396 23.7792 7.46264 23.8068 7.36138 23.8346C6.98622 23.9372 6.61005 24.0358 6.23379 24.1343C5.91615 24.2176 5.59904 24.3025 5.28243 24.3896C5.135 24.4295 4.98693 24.4669 4.83886 24.5043C4.16742 24.688 3.66418 24.94 3.26571 25.5289C3.02946 26.0344 3.09111 26.6372 3.09381 27.182C3.09366 27.2945 3.09343 27.4071 3.09313 27.5197C3.09279 27.7544 3.09329 27.9891 3.09439 28.2238C3.09573 28.5248 3.09495 28.8259 3.09355 29.1269C3.0927 29.3588 3.09297 29.5907 3.09358 29.8226C3.09373 29.9337 3.09354 30.0448 3.093 30.1558C3.0924 30.3105 3.09347 30.4651 3.09461 30.6197C3.0948 30.7077 3.09499 30.7957 3.09518 30.8863C3.10991 30.989 3.10991 30.989 3.12494 31.0937C3.39865 31.2762 3.51371 31.271 3.83774 31.2749C3.93626 31.2764 4.03478 31.278 4.13629 31.2796C4.24381 31.2805 4.35134 31.2814 4.45887 31.2823C4.56888 31.2838 4.6789 31.2853 4.78891 31.2869C5.07827 31.2909 5.36763 31.294 5.657 31.2969C5.95236 31.3 6.24771 31.304 6.54306 31.3079C7.12243 31.3155 7.70181 31.322 8.28119 31.3281C8.28119 31.921 8.28119 32.514 8.28119 33.125C7.59454 33.1356 6.90794 33.1442 6.22122 33.1492C5.90225 33.1517 5.58335 33.155 5.26441 33.1603C4.95591 33.1655 4.64747 33.1682 4.33893 33.1694C4.22195 33.1703 4.10497 33.172 3.98801 33.1745C3.22102 33.1906 2.59631 33.1097 1.95307 32.6562C1.43637 32.1336 1.23216 31.6498 1.226 30.9106C1.22535 30.8551 1.2247 30.7997 1.22403 30.7425C1.22216 30.5601 1.22147 30.3777 1.22095 30.1953C1.22025 30.0672 1.21954 29.9391 1.21881 29.811C1.21753 29.5426 1.21692 29.2741 1.2167 29.0057C1.21628 28.6645 1.21334 28.3235 1.20976 27.9824C1.20742 27.7176 1.20687 27.4529 1.2068 27.1881C1.20647 27.0625 1.20551 26.937 1.20387 26.8114C1.19068 25.7195 1.34844 24.7762 2.09589 23.9205C2.79589 23.2168 3.55926 22.8786 4.50373 22.6208C4.58917 22.597 4.67462 22.5731 4.76266 22.5486C4.94209 22.4987 5.1216 22.449 5.30119 22.3997C5.57704 22.3239 5.85262 22.2472 6.12818 22.1704C6.30282 22.1219 6.47749 22.0735 6.65216 22.0251C6.73484 22.0022 6.81752 21.9792 6.9027 21.9556C6.97888 21.9347 7.05506 21.9138 7.13354 21.8923C7.23428 21.8645 7.23428 21.8645 7.33706 21.8362C7.49994 21.7968 7.49994 21.7968 7.65619 21.7968C7.68446 21.0263 7.68446 21.0263 7.32904 20.3808C7.2801 20.3337 7.23116 20.2866 7.18073 20.238C6.70632 19.7307 6.49289 19.035 6.40619 18.3593C6.34768 18.3524 6.28917 18.3454 6.22888 18.3383C5.97637 18.2707 5.89476 18.1905 5.72748 17.9931C5.68206 17.9413 5.63664 17.8894 5.58985 17.836C5.09051 17.0951 5.05217 15.8561 5.15619 15C5.24652 14.8364 5.24652 14.8364 5.35639 14.7021C5.59956 14.3892 5.55202 14.0908 5.51752 13.7158C5.38527 12.2143 5.83622 10.7806 6.79682 9.60933C6.99701 9.3896 6.99701 9.3896 7.18744 9.2187C7.25834 9.15103 7.32924 9.08335 7.40229 9.01363C7.63725 8.82101 7.8714 8.74726 8.16004 8.66237C8.47018 8.5555 8.75205 8.39775 9.04016 8.24214C9.67984 7.95007 10.2611 7.85124 10.9619 7.86128Z"/>
</mask>
<path d="M10.9619 7.86128C11.0405 7.86191 11.1192 7.86253 11.2002 7.86317C11.9969 7.87838 12.7161 8.00707 13.4374 8.35933C13.428 8.4116 13.4185 8.46386 13.4088 8.51772C13.2867 9.21736 13.2035 9.9194 13.1249 10.625C13.0078 10.5224 13.0078 10.5224 12.8906 10.3906C12.8906 10.3132 12.8906 10.2359 12.8906 10.1562C11.8908 9.80166 10.8688 9.53896 9.84125 9.95753C9.39187 10.1911 8.9787 10.4807 8.56569 10.7727C8.43744 10.8593 8.43744 10.8593 8.20734 10.986C8.15437 11.0215 8.10139 11.0571 8.04682 11.0937C8.04682 11.171 8.04682 11.2484 8.04682 11.3281C8.50697 11.3656 8.77843 11.2847 9.14057 11.0156C9.21791 10.931 9.21791 10.931 9.29682 10.8447C9.52716 10.6359 9.69235 10.625 9.99994 10.625C10.2044 10.7193 10.3634 10.8113 10.5468 10.9375C11.3207 11.4598 11.9562 11.7582 12.8906 11.875C12.839 12.3132 12.7874 12.7515 12.7343 13.2031C11.8276 13.2031 10.8546 12.9828 10.1534 12.3584C10.1028 12.3277 10.0521 12.2971 9.99994 12.2656C9.80404 12.3141 9.80404 12.3141 9.60932 12.4218C8.72193 12.7804 8.72193 12.7804 8.20307 12.7343C8.18977 12.7778 8.17648 12.8213 8.16278 12.8662C8.06489 13.1744 7.9664 13.4489 7.79779 13.7255C7.59567 14.1024 7.64284 14.4843 7.66809 14.9008C7.65465 15.1892 7.59559 15.3195 7.42182 15.5468C7.21186 15.6884 7.21186 15.6884 7.03119 15.7812C7.06986 16.2066 7.06986 16.2066 7.10932 16.6406C7.1786 16.6454 7.24789 16.6502 7.31928 16.6552C7.65431 16.7374 7.75148 16.8412 7.96869 17.1093C8.07075 17.3589 8.13699 17.6149 8.20307 17.8759C8.36716 18.5156 8.53412 19.0658 9.06916 19.4863C9.15395 19.535 9.23875 19.5836 9.32611 19.6337C9.41051 19.6834 9.4949 19.733 9.58185 19.7842C10.2095 20.1141 10.6971 20.2749 11.4062 20.1562C12.102 19.9136 12.9413 19.5179 13.2986 18.8485C13.4787 18.4522 13.5734 18.0358 13.6701 17.613C13.7734 17.2031 13.8924 16.9906 14.2187 16.7187C14.4241 16.9241 14.491 17.1598 14.5898 17.4267C14.7299 17.7985 14.8716 18.1107 15.1171 18.4277C15.2527 18.615 15.3118 18.7049 15.3152 18.9376C15.2507 19.2662 15.1593 19.5247 14.9218 19.7656C14.6888 19.8629 14.4472 19.9209 14.2025 19.9819C14.1309 20.001 14.0592 20.0201 13.9854 20.0397C13.6799 20.121 13.3736 20.1997 13.0674 20.2784C11.2898 20.739 9.88953 21.336 8.90619 22.9687C8.85722 23.0871 8.85722 23.0871 8.80726 23.208C8.63991 23.4915 8.54678 23.5209 8.23324 23.6027C8.14325 23.6272 8.05325 23.6517 7.96053 23.677C7.86312 23.7017 7.76571 23.7264 7.66535 23.7518C7.56396 23.7792 7.46264 23.8068 7.36138 23.8346C6.98622 23.9372 6.61005 24.0358 6.23379 24.1343C5.91615 24.2176 5.59904 24.3025 5.28243 24.3896C5.135 24.4295 4.98693 24.4669 4.83886 24.5043C4.16742 24.688 3.66418 24.94 3.26571 25.5289C3.02946 26.0344 3.09111 26.6372 3.09381 27.182C3.09366 27.2945 3.09343 27.4071 3.09313 27.5197C3.09279 27.7544 3.09329 27.9891 3.09439 28.2238C3.09573 28.5248 3.09495 28.8259 3.09355 29.1269C3.0927 29.3588 3.09297 29.5907 3.09358 29.8226C3.09373 29.9337 3.09354 30.0448 3.093 30.1558C3.0924 30.3105 3.09347 30.4651 3.09461 30.6197C3.0948 30.7077 3.09499 30.7957 3.09518 30.8863C3.10991 30.989 3.10991 30.989 3.12494 31.0937C3.39865 31.2762 3.51371 31.271 3.83774 31.2749C3.93626 31.2764 4.03478 31.278 4.13629 31.2796C4.24381 31.2805 4.35134 31.2814 4.45887 31.2823C4.56888 31.2838 4.6789 31.2853 4.78891 31.2869C5.07827 31.2909 5.36763 31.294 5.657 31.2969C5.95236 31.3 6.24771 31.304 6.54306 31.3079C7.12243 31.3155 7.70181 31.322 8.28119 31.3281C8.28119 31.921 8.28119 32.514 8.28119 33.125C7.59454 33.1356 6.90794 33.1442 6.22122 33.1492C5.90225 33.1517 5.58335 33.155 5.26441 33.1603C4.95591 33.1655 4.64747 33.1682 4.33893 33.1694C4.22195 33.1703 4.10497 33.172 3.98801 33.1745C3.22102 33.1906 2.59631 33.1097 1.95307 32.6562C1.43637 32.1336 1.23216 31.6498 1.226 30.9106C1.22535 30.8551 1.2247 30.7997 1.22403 30.7425C1.22216 30.5601 1.22147 30.3777 1.22095 30.1953C1.22025 30.0672 1.21954 29.9391 1.21881 29.811C1.21753 29.5426 1.21692 29.2741 1.2167 29.0057C1.21628 28.6645 1.21334 28.3235 1.20976 27.9824C1.20742 27.7176 1.20687 27.4529 1.2068 27.1881C1.20647 27.0625 1.20551 26.937 1.20387 26.8114C1.19068 25.7195 1.34844 24.7762 2.09589 23.9205C2.79589 23.2168 3.55926 22.8786 4.50373 22.6208C4.58917 22.597 4.67462 22.5731 4.76266 22.5486C4.94209 22.4987 5.1216 22.449 5.30119 22.3997C5.57704 22.3239 5.85262 22.2472 6.12818 22.1704C6.30282 22.1219 6.47749 22.0735 6.65216 22.0251C6.73484 22.0022 6.81752 21.9792 6.9027 21.9556C6.97888 21.9347 7.05506 21.9138 7.13354 21.8923C7.23428 21.8645 7.23428 21.8645 7.33706 21.8362C7.49994 21.7968 7.49994 21.7968 7.65619 21.7968C7.68446 21.0263 7.68446 21.0263 7.32904 20.3808C7.2801 20.3337 7.23116 20.2866 7.18073 20.238C6.70632 19.7307 6.49289 19.035 6.40619 18.3593C6.34768 18.3524 6.28917 18.3454 6.22888 18.3383C5.97637 18.2707 5.89476 18.1905 5.72748 17.9931C5.68206 17.9413 5.63664 17.8894 5.58985 17.836C5.09051 17.0951 5.05217 15.8561 5.15619 15C5.24652 14.8364 5.24652 14.8364 5.35639 14.7021C5.59956 14.3892 5.55202 14.0908 5.51752 13.7158C5.38527 12.2143 5.83622 10.7806 6.79682 9.60933C6.99701 9.3896 6.99701 9.3896 7.18744 9.2187C7.25834 9.15103 7.32924 9.08335 7.40229 9.01363C7.63725 8.82101 7.8714 8.74726 8.16004 8.66237C8.47018 8.5555 8.75205 8.39775 9.04016 8.24214C9.67984 7.95007 10.2611 7.85124 10.9619 7.86128Z" stroke="white" stroke-width="1.36752" mask="url(#path-3-inside-3_2397_1057)"/>
<path d="M19.9478 22.2959C20.106 22.3623 20.1924 22.4537 20.3813 22.6572L20.3872 22.6631C20.5971 22.8785 20.8281 23.0569 21.0444 23.2217C21.0613 23.2427 21.072 23.2551 21.0796 23.2656C21.0875 23.2767 21.0863 23.2758 21.0835 23.2695C21.0814 23.2646 21.0828 23.2666 21.0874 23.2871C21.0901 23.2993 21.0916 23.314 21.0952 23.333C21.059 23.5338 20.9916 23.6778 20.8667 23.9092L20.8657 23.9111C20.591 24.4298 20.3437 24.9377 20.5278 25.6562L20.5308 25.666L20.5347 25.6768C20.5871 25.8385 20.6426 25.9974 20.6997 26.1543V26.1553C20.834 26.5472 20.9385 26.9482 21.0532 27.3672V27.3682C21.0955 27.521 21.1396 27.6733 21.1831 27.8242V27.8252C21.2098 27.9195 21.2367 28.0141 21.2642 28.1113V28.1123C21.2873 28.1933 21.3107 28.2742 21.3345 28.3574C21.3809 28.576 21.3809 28.7369 21.3521 28.8848C21.3216 29.0405 21.2553 29.2036 21.1392 29.4258L21.1372 29.4297C21.1087 29.4861 21.0797 29.5425 21.0503 29.6006C20.9599 29.7788 20.8684 29.9568 20.7759 30.1357L20.7749 30.1377C20.7141 30.257 20.653 30.3767 20.5923 30.4961L20.2437 31.1787C20.148 31.3651 20.0544 31.5524 19.9604 31.7393C19.9094 31.6462 19.8582 31.5488 19.8062 31.4443V31.4434L19.731 31.293C19.6789 31.1887 19.6265 31.084 19.5747 30.9795C19.4963 30.8213 19.418 30.6632 19.3394 30.5059C19.2148 30.2564 19.0917 30.0057 18.9692 29.7539L18.9683 29.7529L18.7729 29.3682C18.7365 29.2952 18.7001 29.2216 18.6626 29.1465L18.6606 29.1426L18.5835 28.9951C18.5412 28.8194 18.551 28.6234 18.5981 28.3994C18.6492 28.1569 18.7314 27.9264 18.812 27.6611L18.813 27.6572C18.853 27.5202 18.8933 27.3831 18.9331 27.2461L19.1226 26.6094C19.1861 26.3995 19.2463 26.1889 19.3062 25.9805C19.325 25.9205 19.3453 25.8606 19.3647 25.7988L19.3677 25.7891C19.6089 24.9292 19.2066 24.2607 18.9087 23.6709C18.8645 23.5504 18.8446 23.4834 18.8364 23.4238C18.8308 23.3829 18.8317 23.3366 18.8403 23.2695C18.9748 23.1115 19.1315 22.9716 19.3159 22.8115L19.3208 22.8076C19.3751 22.7585 19.4299 22.7088 19.4858 22.6582C19.7525 22.4189 19.8458 22.3383 19.9038 22.3037C19.9088 22.3008 19.8966 22.2973 19.9478 22.2959Z" stroke="white" stroke-width="0.683761"/>
</svg>
