<svg width="40" height="40" viewBox="0 0 40 40" fill="none" xmlns="http://www.w3.org/2000/svg">
<g clip-path="url(#clip0_2397_1135)">
<path d="M30.796 -0.0194667C30.8659 -0.021078 30.9358 -0.0226894 31.0079 -0.0243495C32.1985 -0.0312267 33.2179 0.512023 34.0626 1.32819C34.632 2.00946 34.9486 2.75603 35.2003 3.5987C35.2259 3.68383 35.2516 3.76896 35.2781 3.85667C35.3516 4.10252 35.4244 4.34859 35.4967 4.59482C35.5511 4.77976 35.6059 4.96456 35.6608 5.14937C35.7621 5.49147 35.862 5.83396 35.9611 6.17672C36.0006 6.31289 36.0404 6.44896 36.0806 6.58492C36.1374 6.77768 36.1928 6.9708 36.2479 7.16407C36.2651 7.22145 36.2824 7.27883 36.3001 7.33795C36.4017 7.70184 36.4345 7.98669 36.3282 8.35944C36.0318 8.77106 35.6706 8.86498 35.2033 8.99329C35.1259 9.01569 35.0486 9.03808 34.9688 9.06116C34.7922 9.11216 34.6154 9.16259 34.4384 9.21256C34.1161 9.3039 33.7945 9.39729 33.4729 9.49115C32.7603 9.69884 32.0473 9.90458 31.3341 10.1101C30.9744 10.2138 30.6147 10.3177 30.255 10.4216C30.1084 10.4639 29.9617 10.5063 29.8151 10.5486C29.7423 10.5696 29.6695 10.5906 29.5946 10.6123C29.3737 10.6761 29.1528 10.7398 28.932 10.8036C27.64 11.1765 26.3483 11.5506 25.0568 11.9251C24.7816 12.0049 24.5065 12.0847 24.2313 12.1645C23.794 12.2912 23.3568 12.418 22.9195 12.5448C21.8145 12.8653 20.7095 13.1856 19.6046 13.5059C19.5256 13.5288 19.5256 13.5288 19.4451 13.5522C17.6086 14.0845 15.7719 14.6164 13.9352 15.148C13.5951 15.2464 13.255 15.3449 12.9149 15.4434C12.2558 15.6341 11.5967 15.8249 10.9376 16.0157C10.9925 16.0158 11.0474 16.0159 11.1039 16.016C14.3561 16.0223 17.6082 16.0294 20.8603 16.0376C21.2506 16.0385 21.6409 16.0395 22.0312 16.0405C22.1477 16.0408 22.1477 16.0408 22.2666 16.0411C23.5256 16.0442 24.7845 16.0467 26.0435 16.0491C27.3348 16.0515 28.6261 16.0545 29.9174 16.0581C30.7145 16.0603 31.5116 16.062 32.3087 16.0631C32.855 16.064 33.4012 16.0653 33.9475 16.0672C34.2629 16.0682 34.5783 16.069 34.8936 16.0691C35.1823 16.0693 35.4709 16.0701 35.7595 16.0715C35.9136 16.072 36.0677 16.0718 36.2219 16.0716C36.3133 16.0722 36.4047 16.0728 36.4988 16.0734C36.5777 16.0735 36.6566 16.0737 36.7379 16.0739C37.0625 16.1039 37.2772 16.1918 37.522 16.4061C37.7164 16.7457 37.6993 17.0406 37.6955 17.4258C37.6959 17.5056 37.6963 17.5853 37.6968 17.6675C37.6978 17.9351 37.6967 18.2026 37.6955 18.4702C37.6958 18.662 37.6962 18.8537 37.6968 19.0454C37.6978 19.5125 37.6973 19.9796 37.6961 20.4466C37.6948 20.9911 37.695 21.5356 37.6953 22.0801C37.6958 23.0523 37.6947 24.0245 37.6928 24.9967C37.6909 25.9387 37.6903 26.8807 37.6912 27.8228C37.692 28.8492 37.6922 29.8757 37.6911 30.9022C37.691 31.0118 37.6908 31.1215 37.6907 31.2312C37.6907 31.2852 37.6906 31.3391 37.6905 31.3947C37.6902 31.7736 37.6903 32.1524 37.6906 32.5313C37.6911 33.0424 37.6902 33.5536 37.6885 34.0647C37.6881 34.2519 37.6881 34.4391 37.6885 34.6263C37.6913 36.2033 37.5847 37.5312 36.4335 38.7305C35.4544 39.6689 34.4463 40.0233 33.1095 40.024C33.0064 40.0247 32.9033 40.0253 32.7971 40.026C32.5156 40.0277 32.2341 40.0284 31.9526 40.0288C31.7766 40.0291 31.6006 40.0295 31.4246 40.0301C30.8102 40.032 30.1958 40.033 29.5814 40.0333C29.0091 40.0336 28.4369 40.0359 27.8646 40.0392C27.3726 40.0419 26.8807 40.0431 26.3887 40.0432C26.0951 40.0432 25.8015 40.0439 25.508 40.0461C25.1809 40.0486 24.8538 40.0479 24.5267 40.0469C24.4296 40.0481 24.3325 40.0492 24.2325 40.0504C23.5026 40.0442 23.5026 40.0442 23.2621 39.8159C23.1 39.5717 23.0469 39.4345 23.0469 39.1407C23.1602 38.8009 23.2148 38.6381 23.5157 38.4376C23.6946 38.4176 23.6946 38.4176 23.9088 38.4169C23.9901 38.4162 24.0713 38.4156 24.155 38.4149C24.2442 38.415 24.3333 38.4151 24.4251 38.4151C24.519 38.4146 24.6129 38.4141 24.7097 38.4135C24.914 38.4125 25.1184 38.4117 25.3228 38.4114C25.6466 38.4108 25.9704 38.4091 26.2943 38.4072C26.9826 38.4034 27.671 38.4009 28.3594 38.3985C29.1005 38.3959 29.8416 38.3931 30.5827 38.3888C30.8515 38.3873 31.1203 38.3861 31.3891 38.3857C31.6897 38.3851 31.9904 38.3836 32.291 38.3819C32.4228 38.382 32.4228 38.382 32.5573 38.3821C33.473 38.375 34.3873 38.2881 35.0986 37.6554C37.8357 34.7564 36.0153 25.1303 36.0157 25.0782C25.9352 25.0782 15.8547 25.0782 5.46881 25.0782C4.53394 31.7929 4.53394 31.7929 6.28912 37.4903C6.35358 37.5451 6.41803 37.5999 6.48444 37.6563C6.54083 37.7095 6.59723 37.7627 6.65533 37.8174C7.44779 38.3634 8.30736 38.371 9.23535 38.3705C9.3293 38.3708 9.42325 38.3711 9.52005 38.3713C9.72321 38.3719 9.92638 38.3723 10.1295 38.3726C10.451 38.3731 10.7724 38.3744 11.0939 38.3758C11.2042 38.3763 11.3145 38.3768 11.4249 38.3773C11.5077 38.3777 11.5077 38.3777 11.5922 38.3781C12.3397 38.3814 13.0872 38.3839 13.8347 38.3849C14.3402 38.3856 14.8457 38.3873 15.3512 38.3903C15.6183 38.3919 15.8854 38.3928 16.1525 38.3924C16.4501 38.3923 16.7476 38.394 17.0451 38.3962C17.1333 38.3956 17.2215 38.3951 17.3124 38.3946C17.9092 38.4018 17.9092 38.4018 18.217 38.5866C18.4415 38.8442 18.4636 39.0294 18.4604 39.372C18.4249 39.6197 18.3006 39.7516 18.1251 39.9219C17.9245 40.0222 17.7811 40.0106 17.5565 40.0116C17.4252 40.0124 17.4252 40.0124 17.2913 40.0133C17.1466 40.0136 17.1466 40.0136 16.999 40.0139C16.8471 40.0147 16.8471 40.0147 16.6922 40.0154C16.3555 40.0171 16.0188 40.0179 15.6821 40.0187C15.566 40.019 15.4499 40.0193 15.3338 40.0196C14.7876 40.0211 14.2415 40.0222 13.6953 40.0229C13.0665 40.0237 12.4378 40.0257 11.809 40.0289C11.3222 40.0312 10.8354 40.0324 10.3486 40.0326C10.0583 40.0328 9.76806 40.0335 9.47778 40.0355C9.15282 40.0377 8.8279 40.0373 8.50293 40.0368C8.4082 40.0378 8.31348 40.0388 8.21588 40.0398C6.99046 40.0324 5.97749 39.5963 5.08582 38.7644C3.78002 37.4051 3.80402 35.6744 3.82311 33.9117C3.82444 33.7322 3.82567 33.5528 3.82682 33.3733C3.82935 32.988 3.83227 32.6028 3.8354 32.2175C3.84015 31.6036 3.84248 30.9896 3.84418 30.3756C3.84433 30.3236 3.84448 30.2716 3.84463 30.218C3.84539 29.952 3.84613 29.686 3.84685 29.42C3.84832 28.873 3.84985 28.326 3.85169 27.7791C3.85187 27.7243 3.85205 27.6695 3.85224 27.613C3.85529 26.7339 3.8623 25.8548 3.87072 24.9757C3.87932 24.0649 3.8829 23.1541 3.88234 22.2431C3.88217 21.7351 3.8842 21.2272 3.89192 20.7192C3.93403 17.8243 3.50942 15.4057 2.55601 12.6798C2.25153 11.7018 2.29329 10.4518 2.73444 9.53131C2.76938 9.45699 2.80433 9.38267 2.84033 9.30609C3.38312 8.23798 4.24549 7.5031 5.38256 7.10918C5.65283 7.02524 5.92395 6.94508 6.19574 6.86621C6.2993 6.83572 6.40284 6.80518 6.50637 6.7746C6.7816 6.69349 7.05705 6.61317 7.33259 6.53312C7.49716 6.48528 7.66168 6.4373 7.82619 6.38927C8.56967 6.17226 9.31367 5.95708 10.0578 5.74234C10.3795 5.64949 10.7011 5.5565 11.0227 5.46351C11.4926 5.32766 11.9626 5.19185 12.4325 5.05609C13.6453 4.70575 14.8578 4.35476 16.0704 4.0037C16.3796 3.91418 16.6888 3.82467 16.998 3.73516C18.5995 3.27157 20.201 2.80776 21.8024 2.34364C22.0251 2.2791 22.2478 2.21456 22.4705 2.15003C23.6442 1.80995 24.8178 1.46943 25.9911 1.12774C26.3311 1.02873 26.6712 0.929788 27.0112 0.830843C27.3324 0.737392 27.6535 0.643792 27.9745 0.550077C28.2167 0.479427 28.459 0.408984 28.7012 0.338505C28.788 0.313114 28.8748 0.287723 28.9643 0.261563C29.044 0.238394 29.1238 0.215224 29.206 0.191353C29.2749 0.171257 29.3438 0.151161 29.4148 0.130457C29.8816 0.00508531 30.315 -0.0167552 30.796 -0.0194667ZM28.3855 2.13279C28.0982 2.21758 27.8103 2.3001 27.5222 2.38227C27.3393 2.43503 27.1564 2.48793 26.9736 2.54096C26.8875 2.56579 26.8015 2.59061 26.7128 2.61619C26.5941 2.65137 26.5941 2.65137 26.473 2.68725C26.4034 2.70772 26.3337 2.72819 26.2619 2.74929C26.0805 2.80437 26.0805 2.80437 25.9376 2.96881C26.1586 3.19213 26.3801 3.41498 26.6016 3.63776C26.6635 3.70025 26.7253 3.76274 26.789 3.82712C27.1206 4.16007 27.4579 4.47841 27.8142 4.78459C28.1594 5.09128 28.477 5.42733 28.8004 5.7566C29.0609 6.01995 29.3222 6.27584 29.6042 6.51618C29.847 6.72459 30.0686 6.94536 30.2884 7.1778C30.3509 7.24336 30.4134 7.30892 30.4778 7.37647C30.6066 7.51239 30.7344 7.64934 30.8611 7.78723C30.9235 7.85199 30.9859 7.91675 31.0502 7.98346C31.1055 8.04258 31.1609 8.10169 31.2179 8.1626C31.4059 8.3059 31.4059 8.3059 31.6659 8.27079C31.957 8.2023 32.2439 8.12845 32.5309 8.0445C32.5835 8.02919 32.6361 8.01388 32.6903 7.9981C32.8005 7.96597 32.9106 7.93366 33.0206 7.90118C33.1893 7.8514 33.3582 7.80218 33.5271 7.75306C34.0404 7.61691 34.0404 7.61691 34.5313 7.42194C34.4083 6.72278 34.218 6.0463 34.0219 5.36486C33.9653 5.16731 33.91 4.96942 33.8547 4.77149C33.4161 3.19962 33.4161 3.19962 32.3145 2.05573C32.2073 1.9876 32.2073 1.9876 32.0978 1.91809C30.9013 1.26739 29.5945 1.77584 28.3855 2.13279ZM23.0936 3.63868C23.0094 3.66351 22.9252 3.68833 22.8385 3.71392C22.5703 3.7936 22.3033 3.87675 22.0362 3.96003C21.8543 4.01473 21.6724 4.06921 21.4904 4.12345C21.0449 4.25676 20.6003 4.39293 20.1563 4.53131C20.1317 4.76689 20.1317 4.76689 20.2755 4.91271C20.3304 4.96691 20.3854 5.02112 20.442 5.07697C20.5329 5.1673 20.5329 5.1673 20.6257 5.25946C20.722 5.35342 20.722 5.35342 20.8204 5.44928C20.9131 5.54143 20.9131 5.54143 21.0078 5.63544C21.2914 5.91541 21.5779 6.18893 21.8799 6.44904C22.2816 6.79523 22.6479 7.17541 23.0192 7.55347C23.2807 7.81783 23.543 8.07428 23.8264 8.31519C24.0619 8.51719 24.2728 8.73109 24.4819 8.96033C24.5398 9.02272 24.5977 9.08511 24.6573 9.14939C24.7762 9.27824 24.8934 9.40871 25.0089 9.54062C25.0961 9.63285 25.0961 9.63285 25.185 9.72693C25.2358 9.78318 25.2867 9.83944 25.3391 9.89739C25.6792 10.0654 25.9748 9.94171 26.3282 9.84381C26.3918 9.82684 26.4554 9.80987 26.5209 9.79239C26.7165 9.73849 26.9108 9.68146 27.1052 9.62348C27.1752 9.60289 27.2451 9.5823 27.3173 9.56109C27.5378 9.49614 27.7582 9.43073 27.9786 9.3653C28.1293 9.32081 28.2801 9.27636 28.4308 9.23194C28.7978 9.12375 29.1646 9.01515 29.5313 8.90631C29.5572 8.65087 29.5572 8.65087 29.3311 8.44611C29.2422 8.35802 29.1526 8.27056 29.0626 8.18366C28.9978 8.11946 28.9978 8.11946 28.9316 8.05396C28.698 7.82464 28.4586 7.60502 28.2105 7.39142C27.8054 7.04037 27.4344 6.65699 27.0591 6.27478C26.7976 6.01044 26.535 5.75317 26.2528 5.51093C25.8267 5.14441 25.4404 4.73828 25.0487 4.3357C24.9899 4.27598 24.931 4.21626 24.8704 4.15473C24.8183 4.10134 24.7662 4.04795 24.7126 3.99295C24.6528 3.93858 24.5929 3.88421 24.5313 3.82819C24.4945 3.79047 24.4577 3.75275 24.4198 3.71389C23.9802 3.32059 23.6167 3.47097 23.0936 3.63868ZM17.6778 5.25672C17.5628 5.28956 17.5628 5.28956 17.4456 5.32307C17.3626 5.347 17.2797 5.37092 17.1943 5.39557C17.1095 5.41985 17.0248 5.44413 16.9375 5.46914C16.666 5.54696 16.3945 5.62507 16.1231 5.70319C15.9394 5.7559 15.7557 5.8086 15.572 5.86127C15.1208 5.99065 14.6698 6.12027 14.2188 6.25006C14.3412 6.50773 14.4728 6.67953 14.676 6.88147C14.7361 6.94144 14.7962 7.00142 14.8582 7.06321C14.9211 7.12519 14.984 7.18718 15.0489 7.25104C15.11 7.31212 15.1711 7.3732 15.2341 7.43613C15.515 7.71492 15.7981 7.98737 16.0981 8.24561C16.5 8.59181 16.8664 8.97211 17.2379 9.35035C17.5006 9.61591 17.764 9.87273 18.0494 10.1139C18.2779 10.3095 18.4731 10.5157 18.6671 10.7456C18.7193 10.8052 18.7716 10.8647 18.8254 10.9261C18.9321 11.0484 19.0357 11.1734 19.1361 11.3009C19.3142 11.497 19.4435 11.6136 19.6876 11.7188C20.0696 11.694 20.4052 11.5882 20.7656 11.4641C20.9947 11.3871 21.2267 11.3233 21.4597 11.2591C21.6932 11.1943 21.9257 11.1259 22.1581 11.0575C22.3376 11.0049 22.5172 10.9531 22.6969 10.9012C22.8118 10.8676 22.9266 10.834 23.0414 10.8002C23.1215 10.7773 23.1215 10.7773 23.2032 10.7539C23.4339 10.6852 23.5771 10.6418 23.7501 10.4688C23.5941 10.3107 23.4378 10.1529 23.2813 9.99518C23.2165 9.92939 23.2165 9.92939 23.1504 9.86228C22.9173 9.6278 22.68 9.40307 22.4293 9.18738C22.0238 8.83702 21.6531 8.45375 21.2778 8.07166C21.0154 7.80638 20.7517 7.54818 20.4688 7.30475C20.0652 6.95754 19.6975 6.57623 19.3247 6.19666C18.7891 5.64846 18.7891 5.64846 18.2032 5.15631C18.0122 5.15631 17.8617 5.20391 17.6778 5.25672ZM11.7297 6.9666C11.6547 6.9885 11.5796 7.01041 11.5023 7.03297C11.4219 7.0573 11.3415 7.08163 11.2586 7.10669C11.1758 7.13108 11.093 7.15547 11.0077 7.18059C10.7432 7.25869 10.4791 7.33786 10.2149 7.41706C10.0357 7.47018 9.85645 7.52323 9.67719 7.57621C9.23769 7.70626 8.79847 7.8372 8.35944 7.96881C8.48831 8.24209 8.63556 8.42033 8.85077 8.6344C8.91794 8.70142 8.98511 8.76845 9.05432 8.8375C9.12472 8.90694 9.19511 8.97637 9.26764 9.04792C9.33622 9.11645 9.4048 9.18498 9.47546 9.25559C9.82411 9.6019 10.1784 9.9352 10.551 10.2554C10.8953 10.5615 11.2122 10.8968 11.5348 11.2253C11.7868 11.4801 12.0385 11.7289 12.3121 11.9605C12.8477 12.4191 13.3331 12.9361 13.8282 13.4376C14.3692 13.2852 14.9101 13.1323 15.4509 12.9788C15.6349 12.9267 15.819 12.8747 16.0031 12.8229C16.2675 12.7484 16.5318 12.6734 16.796 12.5983C16.8785 12.5752 16.9611 12.5521 17.0461 12.5283C17.1227 12.5064 17.1993 12.4845 17.2783 12.462C17.3795 12.4333 17.3795 12.4333 17.4828 12.4041C17.6752 12.3454 17.6752 12.3454 17.8907 12.1876C17.7607 12.0555 17.6305 11.9237 17.5001 11.7921C17.4643 11.7557 17.4286 11.7192 17.3917 11.6817C17.1796 11.4682 16.9618 11.2659 16.7335 11.0697C16.3079 10.7012 15.9188 10.2975 15.5244 9.8963C15.2036 9.57221 14.8768 9.26389 14.531 8.96674C14.1854 8.65966 13.8673 8.32324 13.5435 7.99353C12.7801 7.09627 12.7801 7.09627 11.7297 6.9666ZM4.78125 9.4245C4.20659 10.0431 4.02255 10.6795 4.02684 11.5184C4.08139 12.3117 4.37741 13.0909 4.60455 13.8477C4.65672 14.0258 4.70875 14.2039 4.76065 14.3821C4.85534 14.7054 4.95038 15.0286 5.04704 15.3514C5.0663 15.4158 5.08555 15.4801 5.10539 15.5464C5.15302 15.7063 5.15302 15.7063 5.23444 15.8594C5.60083 15.8134 5.94484 15.7439 6.29937 15.6411C6.34798 15.6272 6.3966 15.6132 6.44669 15.5988C6.60596 15.5528 6.76507 15.5064 6.92419 15.46C7.03639 15.4275 7.14859 15.3951 7.2608 15.3627C7.55575 15.2775 7.85056 15.1918 8.14535 15.1061C8.44191 15.0199 8.73858 14.9341 9.03525 14.8482C9.37071 14.7512 9.70616 14.6541 10.0415 14.5567C10.7043 14.3642 11.3675 14.1735 12.0313 13.9844C11.7152 13.6022 11.3828 13.2582 11.0157 12.9249C10.5589 12.505 10.1151 12.0751 9.68131 11.6315C9.46042 11.4072 9.23514 11.1938 8.99634 10.9885C8.57139 10.6214 8.18345 10.2184 7.78998 9.81818C7.46004 9.48484 7.12457 9.16499 6.76794 8.86023C6.6699 8.77535 6.57614 8.68551 6.48444 8.59381C5.78016 8.59381 5.27663 8.95012 4.78125 9.4245ZM5.46881 17.7344C5.46881 19.6165 5.46881 21.4985 5.46881 23.4376C6.03439 23.4617 6.59996 23.4859 7.18268 23.5108C7.35982 23.5215 7.53696 23.5321 7.71946 23.5431C8.45741 23.5919 8.45741 23.5919 9.12228 23.3343C9.35781 23.0633 9.49371 22.752 9.62393 22.4204C9.71757 22.1928 9.84367 21.9883 9.97137 21.7783C10.0624 21.6202 10.1534 21.462 10.2442 21.3038C10.3449 21.1287 10.4456 20.9536 10.5463 20.7786C10.5975 20.6896 10.6486 20.6007 10.7013 20.5091C10.8627 20.2285 11.0249 19.9484 11.1872 19.6683C11.2408 19.5758 11.2944 19.4832 11.348 19.3906C11.4497 19.2148 11.5516 19.0391 11.6535 18.8635C11.6997 18.7838 11.7458 18.704 11.7933 18.6219C11.8337 18.5522 11.8741 18.4825 11.9157 18.4106C12.0393 18.1889 12.1522 17.9614 12.2657 17.7344C10.0227 17.7344 7.77975 17.7344 5.46881 17.7344ZM14.1407 17.7344C13.9586 18.0535 13.7765 18.3725 13.5889 18.7012C13.1524 19.4654 12.715 20.2289 12.2755 20.9913C12.2274 21.0747 12.1793 21.1582 12.1297 21.2442C11.9124 21.6206 11.694 21.9962 11.4719 22.3698C11.4349 22.4321 11.3979 22.4944 11.3597 22.5586C11.292 22.6722 11.224 22.7856 11.1556 22.8988C10.9919 23.1506 10.9919 23.1506 10.9376 23.4376C12.3297 23.4376 13.7219 23.4376 15.1563 23.4376C15.3142 23.154 15.4721 22.8704 15.6348 22.5782C16.2855 21.4139 16.9548 20.2607 17.6383 19.1154C17.6856 19.036 17.7329 18.9566 17.7816 18.8748C17.872 18.723 17.9628 18.5715 18.054 18.4201C18.1142 18.3191 18.1142 18.3191 18.1757 18.216C18.2291 18.1271 18.2291 18.1271 18.2836 18.0364C18.3715 17.895 18.3715 17.895 18.3594 17.7344C16.9672 17.7344 15.5751 17.7344 14.1407 17.7344ZM19.9303 18.2559C19.9018 18.3158 19.8732 18.3758 19.8438 18.4376C19.785 18.5414 19.7257 18.6449 19.6656 18.7479C19.6076 18.8543 19.5498 18.9608 19.4922 19.0674C19.1791 19.6393 18.8551 20.2041 18.5255 20.7667C18.1584 21.3935 17.7929 22.0212 17.4317 22.6514C17.3912 22.7218 17.3508 22.7921 17.3091 22.8645C17.2724 22.9287 17.2357 22.9928 17.1979 23.0588C17.1656 23.1152 17.1333 23.1716 17.1 23.2297C17.0252 23.3465 17.0252 23.3465 17.0313 23.4376C18.4235 23.4376 19.8157 23.4376 21.2501 23.4376C21.4192 23.1443 21.5884 22.851 21.7628 22.5489C21.8198 22.45 21.8769 22.351 21.9357 22.2491C22.2007 21.7899 22.4656 21.3306 22.7305 20.8713C22.7799 20.7857 22.8292 20.7001 22.8801 20.6119C22.9779 20.4423 23.0757 20.2726 23.1735 20.1029C23.4006 19.7089 23.6284 19.3154 23.8584 18.9231C23.8989 18.8539 23.9393 18.7847 23.981 18.7134C24.0561 18.585 24.1316 18.4568 24.2073 18.3288C24.3883 18.0503 24.3883 18.0503 24.4532 17.7344C23.8721 17.7166 23.2911 17.7043 22.7099 17.6958C22.5122 17.6923 22.3146 17.6875 22.117 17.6814C21.8326 17.6729 21.5485 17.6689 21.2641 17.6658C21.1759 17.6621 21.0878 17.6585 20.997 17.6548C20.4294 17.6544 20.2034 17.7485 19.9303 18.2559ZM25.778 18.302C25.6261 18.6407 25.5058 18.9801 25.403 19.3368C25.2466 19.8083 24.9798 20.2131 24.7217 20.6348C24.6242 20.8031 24.5272 20.9717 24.4306 21.1405C24.1007 21.7115 23.7648 22.2788 23.4266 22.8448C23.3669 22.945 23.3669 22.945 23.306 23.0472C23.2534 23.1352 23.2534 23.1352 23.1997 23.225C23.1187 23.3452 23.1187 23.3452 23.1251 23.4376C23.7143 23.4634 24.3035 23.4811 24.8932 23.4934C25.0936 23.4985 25.2939 23.5054 25.4942 23.5142C26.5224 23.6086 26.5224 23.6086 27.4883 23.3512C27.7488 23.0918 27.8504 22.7616 27.9688 22.4219C28.0632 22.2513 28.161 22.0824 28.2621 21.9157C28.3614 21.7411 28.4606 21.5664 28.5596 21.3917C28.6682 21.2007 28.7769 21.0098 28.8856 20.8189C28.9129 20.7707 28.9403 20.7226 28.9685 20.673C29.1617 20.3337 29.3564 19.9953 29.5521 19.6574C29.5788 19.6111 29.6056 19.5648 29.6332 19.5172C29.7609 19.2965 29.8888 19.076 30.0169 18.8556C30.0626 18.7767 30.1083 18.6977 30.1554 18.6164C30.1953 18.5477 30.2352 18.479 30.2763 18.4082C30.3998 18.1869 30.5133 17.9618 30.6251 17.7344C27.9701 17.3298 27.9701 17.3298 25.778 18.302ZM32.5001 17.7344C32.2825 18.1212 32.2825 18.1212 32.0606 18.5157C31.6926 19.1679 31.3203 19.8174 30.9424 20.4639C30.8756 20.5783 30.8756 20.5783 30.8075 20.695C30.5653 21.1091 30.3222 21.5226 30.0785 21.9358C30.0024 22.0652 30.0024 22.0652 29.9248 22.1972C29.8269 22.3637 29.7287 22.5301 29.6302 22.6963C29.5865 22.7707 29.5428 22.8451 29.4977 22.9218C29.4589 22.9876 29.42 23.0534 29.38 23.1212C29.2849 23.2744 29.2849 23.2744 29.2969 23.4376C31.5141 23.4376 33.7313 23.4376 36.0157 23.4376C36.0157 21.5555 36.0157 19.6735 36.0157 17.7344C34.8555 17.7344 33.6954 17.7344 32.5001 17.7344Z" fill="white"/>
<path d="M18.8281 26.875C19.1179 26.9943 19.3804 27.1526 19.6484 27.3144C19.7267 27.3602 19.8051 27.406 19.8858 27.4532C20.0507 27.5498 20.2152 27.6469 20.3795 27.7446C20.6884 27.9283 20.999 28.1091 21.3096 28.2898C21.4629 28.3791 21.616 28.4685 21.769 28.5581C22.342 28.8936 22.9178 29.2239 23.4949 29.5524C23.8927 29.7791 24.2901 30.0068 24.6875 30.2344C24.7552 30.273 24.823 30.3116 24.8928 30.3515C25.0592 30.4467 25.225 30.5429 25.3906 30.6396C25.476 30.6891 25.5614 30.7385 25.6494 30.7895C25.9155 30.9771 26.1358 31.1641 26.2078 31.492C26.1948 31.7906 26.179 32.0144 26.0156 32.2656C25.858 32.3829 25.858 32.3829 25.6616 32.4942C25.588 32.5365 25.5144 32.5788 25.4385 32.6223C25.3181 32.6899 25.3181 32.6899 25.1953 32.7588C25.1117 32.8066 25.0281 32.8544 24.9419 32.9036C24.7646 33.0049 24.5871 33.106 24.4094 33.2067C24.067 33.4011 23.7263 33.5981 23.3855 33.7953C23.1324 33.9417 22.8791 34.0878 22.6257 34.2337C22.1859 34.487 21.7465 34.7409 21.3073 34.9949C21.0516 35.1426 20.7956 35.2897 20.5395 35.4367C20.2563 35.5995 19.9746 35.7644 19.6948 35.9329C19.6381 35.9664 19.5815 35.9999 19.5232 36.0344C19.4228 36.0938 19.323 36.1542 19.224 36.2159C18.864 36.4264 18.6085 36.4429 18.2031 36.4062C17.9835 36.2661 17.8508 36.1704 17.7343 35.9375C17.7265 35.8235 17.7234 35.7093 17.7228 35.5951C17.7223 35.5231 17.7217 35.4511 17.7211 35.377C17.7209 35.2978 17.7207 35.2186 17.7205 35.1371C17.72 35.0538 17.7195 34.9706 17.7189 34.8849C17.7174 34.6086 17.7165 34.3323 17.7157 34.0561C17.7154 33.9619 17.7151 33.8677 17.7147 33.7707C17.7131 33.2723 17.712 32.7739 17.7113 32.2755C17.7104 31.76 17.7077 31.2446 17.7046 30.7292C17.7026 30.3334 17.7019 29.9377 17.7016 29.5419C17.7013 29.3519 17.7003 29.1618 17.6989 28.9718C17.697 28.706 17.6971 28.4403 17.6976 28.1745C17.6966 28.0958 17.6956 28.0171 17.6946 27.936C17.6971 27.5931 17.7006 27.3987 17.8831 27.1014C18.1734 26.8385 18.4489 26.8139 18.8281 26.875ZM19.375 29.1406C19.375 30.7906 19.375 32.4406 19.375 34.1406C20.0043 33.8259 20.6123 33.5069 21.2158 33.1494C21.3786 33.0534 21.5415 32.9575 21.7044 32.8616C21.8251 32.7905 21.8251 32.7905 21.9482 32.7179C22.1774 32.584 22.4078 32.4522 22.6388 32.3214C22.7079 32.2822 22.777 32.2429 22.8481 32.2025C22.9783 32.1287 23.1086 32.0554 23.2393 31.9825C23.386 31.8989 23.5294 31.8094 23.6718 31.7187C23.6718 31.6672 23.6718 31.6156 23.6718 31.5625C23.5921 31.5188 23.5123 31.4751 23.4301 31.43C22.5598 30.9509 21.7 30.455 20.8428 29.9527C20.7696 29.9097 20.6963 29.8668 20.6208 29.8226C20.4564 29.7261 20.2922 29.6294 20.1281 29.5326C20.0429 29.4825 19.9577 29.4324 19.8699 29.3808C19.792 29.3348 19.7141 29.2889 19.6339 29.2415C19.4762 29.1343 19.4762 29.1343 19.375 29.1406Z" fill="white"/>
<path d="M21.0938 38.4376C21.318 38.5777 21.4446 38.6706 21.5625 38.9063C21.6079 39.4602 21.6079 39.4602 21.416 39.7608C21.1439 40.0249 20.9347 40.0317 20.5673 40.0269C20.3906 40.0001 20.3906 40.0001 20.1562 39.8341C19.9796 39.5801 19.9219 39.4497 19.9219 39.1407C20.1387 38.4903 20.4399 38.3412 21.0938 38.4376Z" fill="white"/>
</g>
<defs>
<clipPath id="clip0_2397_1135">
<rect width="40" height="40" fill="white"/>
</clipPath>
</defs>
</svg>
